<?xml version="1.0" encoding="UTF-8" standalone="no"?>
<svg
   width="666.70416"
   height="706.54303"
   version="1.1"
   xml:space="preserve"
   style="clip-rule:evenodd;fill-rule:evenodd;stroke-linejoin:round;stroke-miterlimit:2"
   id="svg25"
   xmlns="http://www.w3.org/2000/svg"
   xmlns:svg="http://www.w3.org/2000/svg"><defs
     id="defs25"><filter
       style="color-interpolation-filters:sRGB"
       id="filter36"
       x="-0.018709555"
       y="-0.031350698"
       width="1.0688353"
       height="1.0486723"><feFlood
         result="flood"
         in="SourceGraphic"
         flood-opacity="0.639216"
         flood-color="rgb(0,0,0)"
         id="feFlood35" /><feGaussianBlur
         result="blur"
         in="SourceGraphic"
         stdDeviation="4.862668"
         id="feGaussianBlur35" /><feOffset
         result="offset"
         in="blur"
         dx="19.596354"
         dy="-9.452132"
         id="feOffset35" /><feComposite
         result="comp1"
         operator="in"
         in="flood"
         in2="offset"
         id="feComposite35" /><feComposite
         result="comp2"
         operator="over"
         in="SourceGraphic"
         in2="comp1"
         id="feComposite36" /></filter></defs><g
     id="g25"
     style="filter:url(#filter36)"
     transform="translate(11.670403,21.122613)"><g
       id="g9"><g
         id="g2"><path
           d="m 316.085,190.214 c -1.136,4.372 -5.389,7.182 -9.857,6.513 -22.855,-3.548 -44.572,-15.066 -60.591,-34.158 -35.111,-41.843 -29.645,-104.32 12.198,-139.431 41.844,-35.111 104.321,-29.645 139.431,12.198 16.02,19.092 23.593,42.479 23.117,65.603 -0.117,4.516 -3.622,8.215 -8.125,8.575 -4.03,0.353 -8.047,0.928 -12.032,1.727 -2.663,0.545 -5.428,-0.168 -7.494,-1.933 -2.067,-1.764 -3.205,-4.383 -3.084,-7.098 0.798,-16.564 -4.395,-33.46 -15.884,-47.152 -24.227,-28.872 -67.336,-32.644 -96.208,-8.418 -28.872,24.227 -32.643,67.336 -8.417,96.208 11.49,13.693 27.227,21.74 43.678,23.832 2.694,0.353 5.075,1.928 6.453,4.269 1.379,2.341 1.601,5.187 0.602,7.714 -1.477,3.787 -2.741,7.643 -3.787,11.551 z"
           style="fill:#74aa00"
           id="path1" /><path
           d="m 316.047,68.301 c 16.917,-2.983 33.074,8.33 36.057,25.247 2.983,16.917 -8.33,33.074 -25.248,36.057 -16.917,2.983 -33.074,-8.33 -36.057,-25.248 -2.983,-16.917 8.33,-33.073 25.248,-36.056 z"
           id="path2" /></g><g
         id="g4"><path
           d="m 328.813,211.345 c -4.373,-1.137 -7.183,-5.39 -6.514,-9.858 3.548,-22.854 15.067,-44.571 34.158,-60.591 41.844,-35.111 104.321,-29.645 139.431,12.199 35.111,41.843 29.645,104.32 -12.198,139.431 -19.092,16.02 -42.479,23.592 -65.602,23.117 -4.516,-0.117 -8.216,-3.623 -8.576,-8.126 -0.353,-4.029 -0.928,-8.046 -1.727,-12.032 -0.545,-2.662 0.169,-5.427 1.933,-7.494 1.765,-2.066 4.383,-3.204 7.098,-3.084 16.565,0.798 33.46,-4.394 47.153,-15.884 28.872,-24.226 32.643,-67.335 8.417,-96.207 -24.227,-28.872 -67.336,-32.644 -96.208,-8.417 -13.693,11.489 -21.74,27.226 -23.832,43.677 -0.353,2.694 -1.928,5.075 -4.269,6.454 -2.341,1.378 -5.187,1.6 -7.714,0.602 -3.787,-1.477 -7.643,-2.741 -11.55,-3.787 z"
           style="fill:#74aa00"
           id="path3" /><path
           d="m 450.726,211.306 c 2.983,16.918 -8.33,33.074 -25.248,36.057 -16.917,2.983 -33.074,-8.33 -36.057,-25.247 -2.983,-16.918 8.33,-33.074 25.248,-36.057 16.917,-2.983 33.074,8.33 36.057,25.247 z"
           id="path4" /></g><g
         id="g6"><path
           d="m 307.681,224.072 c 1.137,-4.372 5.39,-7.183 9.858,-6.513 22.854,3.547 44.571,15.066 60.591,34.158 35.111,41.843 29.645,104.32 -12.199,139.431 -41.843,35.111 -104.32,29.645 -139.431,-12.199 -16.02,-19.091 -23.592,-42.479 -23.117,-65.602 0.117,-4.516 3.623,-8.216 8.126,-8.576 4.029,-0.352 8.047,-0.927 12.032,-1.726 2.662,-0.545 5.427,0.168 7.494,1.933 2.067,1.764 3.204,4.383 3.084,7.098 -0.798,16.564 4.394,33.459 15.884,47.152 24.226,28.872 67.335,32.644 96.207,8.417 28.872,-24.226 32.644,-67.335 8.417,-96.207 -11.489,-13.693 -27.226,-21.74 -43.677,-23.833 -2.694,-0.352 -5.075,-1.927 -6.454,-4.268 -1.378,-2.342 -1.6,-5.188 -0.602,-7.714 1.478,-3.787 2.741,-7.644 3.787,-11.551 z"
           style="fill:#74aa00"
           id="path5" /><path
           d="m 307.72,345.985 c -16.917,2.983 -33.074,-8.33 -36.057,-25.247 -2.983,-16.918 8.33,-33.074 25.247,-36.057 16.918,-2.983 33.074,8.33 36.057,25.247 2.983,16.918 -8.33,33.074 -25.247,36.057 z"
           id="path6" /></g><g
         id="g8"><path
           d="m 294.954,202.941 c 4.373,1.136 7.183,5.389 6.514,9.857 -3.548,22.855 -15.067,44.572 -34.159,60.592 -41.843,35.11 -104.32,29.644 -139.431,-12.199 -35.11,-41.843 -29.644,-104.32 12.199,-139.431 19.092,-16.02 42.479,-23.593 65.602,-23.117 4.516,0.117 8.216,3.622 8.576,8.126 0.352,4.029 0.927,8.046 1.727,12.032 0.544,2.662 -0.169,5.427 -1.933,7.493 -1.765,2.067 -4.384,3.205 -7.099,3.084 -16.564,-0.798 -33.459,4.395 -47.152,15.884 -28.872,24.227 -32.644,67.336 -8.417,96.208 24.226,28.872 67.335,32.643 96.207,8.417 13.693,-11.49 21.74,-27.227 23.833,-43.678 0.352,-2.694 1.927,-5.075 4.269,-6.453 2.341,-1.379 5.187,-1.601 7.714,-0.602 3.786,1.477 7.643,2.741 11.55,3.787 z"
           style="fill:#74aa00"
           id="path7" /><path
           d="m 173.041,202.979 c -2.983,-16.917 8.33,-33.073 25.247,-36.056 16.918,-2.983 33.074,8.329 36.057,25.247 2.983,16.917 -8.33,33.074 -25.247,36.057 -16.917,2.983 -33.074,-8.33 -36.057,-25.248 z"
           id="path8" /></g></g></g><g
     id="g24"
     style="clip-rule:evenodd;fill-rule:evenodd;stroke-linejoin:round;stroke-miterlimit:2"
     transform="translate(11.670403,21.122613)"><g
       id="g13"><path
         d="m 6.166,596.479 c -1.713,0 -3.169,-0.6 -4.368,-1.799 C 0.599,593.481 0,592.026 0,590.313 v -121.26 c 0,-1.712 0.599,-3.168 1.798,-4.367 1.199,-1.199 2.655,-1.798 4.368,-1.798 h 21.066 c 1.713,0 3.168,0.599 4.367,1.798 1.199,1.199 1.799,2.655 1.799,4.367 v 10.534 c 4.453,-5.481 10.147,-10.063 17.084,-13.745 6.936,-3.682 15.543,-5.523 25.819,-5.523 10.447,0 19.525,2.355 27.232,7.065 7.707,4.709 13.659,11.346 17.855,19.91 4.196,8.563 6.294,18.839 6.294,30.828 v 72.191 c 0,1.713 -0.599,3.168 -1.798,4.367 -1.199,1.199 -2.655,1.799 -4.368,1.799 H 98.909 c -1.713,0 -3.169,-0.6 -4.368,-1.799 -1.199,-1.199 -1.798,-2.654 -1.798,-4.367 v -70.649 c 0,-9.934 -2.441,-17.727 -7.322,-23.379 -4.881,-5.652 -11.946,-8.477 -21.195,-8.477 -8.906,0 -16.013,2.825 -21.323,8.477 -5.309,5.652 -7.964,13.445 -7.964,23.379 v 70.649 c 0,1.713 -0.599,3.168 -1.798,4.367 -1.199,1.199 -2.655,1.799 -4.368,1.799 z"
         style="fill:#231f20;fill-rule:nonzero"
         id="path9" /><path
         d="m 166.732,596.479 c -1.713,0 -3.169,-0.6 -4.368,-1.799 -1.199,-1.199 -1.798,-2.654 -1.798,-4.367 V 420.241 c 0,-1.712 0.599,-3.168 1.798,-4.367 1.199,-1.199 2.655,-1.798 4.368,-1.798 h 21.323 c 1.713,0 3.168,0.599 4.367,1.798 1.199,1.199 1.799,2.655 1.799,4.367 v 170.072 c 0,1.713 -0.6,3.168 -1.799,4.367 -1.199,1.199 -2.654,1.799 -4.367,1.799 z"
         style="fill:#231f20;fill-rule:nonzero"
         id="path10" /><path
         d="m 234.555,596.479 c -1.713,0 -3.169,-0.6 -4.368,-1.799 -1.199,-1.199 -1.798,-2.654 -1.798,-4.367 v -121.26 c 0,-1.712 0.599,-3.168 1.798,-4.367 1.199,-1.199 2.655,-1.798 4.368,-1.798 h 21.066 c 1.713,0 3.169,0.599 4.367,1.798 1.199,1.199 1.799,2.655 1.799,4.367 v 10.534 c 4.453,-5.481 10.147,-10.063 17.084,-13.745 6.936,-3.682 15.543,-5.523 25.819,-5.523 10.447,0 19.525,2.355 27.232,7.065 7.707,4.709 13.659,11.346 17.855,19.91 4.196,8.563 6.294,18.839 6.294,30.828 v 72.191 c 0,1.713 -0.599,3.168 -1.798,4.367 -1.199,1.199 -2.655,1.799 -4.368,1.799 h -22.607 c -1.713,0 -3.169,-0.6 -4.368,-1.799 -1.199,-1.199 -1.798,-2.654 -1.798,-4.367 v -70.649 c 0,-9.934 -2.441,-17.727 -7.322,-23.379 -4.881,-5.652 -11.946,-8.477 -21.195,-8.477 -8.906,0 -16.013,2.825 -21.323,8.477 -5.309,5.652 -7.964,13.445 -7.964,23.379 v 70.649 c 0,1.713 -0.599,3.168 -1.798,4.367 -1.199,1.199 -2.655,1.799 -4.368,1.799 z"
         style="fill:#74aa00;fill-rule:nonzero"
         id="path11" /><path
         d="m 446.245,599.048 c -19.011,0 -34.083,-5.481 -45.215,-16.442 -11.133,-10.962 -17.128,-26.547 -17.984,-46.757 -0.171,-1.713 -0.257,-3.897 -0.257,-6.551 0,-2.655 0.086,-4.753 0.257,-6.294 0.685,-13.017 3.64,-24.192 8.863,-33.527 5.224,-9.334 12.46,-16.527 21.709,-21.58 9.248,-5.052 20.124,-7.578 32.627,-7.578 13.873,0 25.519,2.868 34.939,8.606 9.42,5.738 16.528,13.702 21.323,23.892 4.796,10.191 7.194,21.966 7.194,35.325 v 5.395 c 0,1.712 -0.6,3.168 -1.799,4.367 -1.199,1.199 -2.74,1.798 -4.624,1.798 h -85.293 v 2.056 c 0.172,5.994 1.328,11.518 3.469,16.57 2.14,5.053 5.309,9.12 9.505,12.203 4.196,3.083 9.206,4.624 15.029,4.624 4.796,0 8.82,-0.728 12.075,-2.183 3.254,-1.456 5.908,-3.126 7.964,-5.01 2.055,-1.884 3.511,-3.425 4.367,-4.624 1.541,-2.056 2.783,-3.297 3.725,-3.725 0.942,-0.429 2.355,-0.643 4.239,-0.643 h 22.094 c 1.713,0 3.126,0.514 4.239,1.542 1.113,1.027 1.584,2.312 1.413,3.853 -0.171,2.741 -1.584,6.08 -4.239,10.02 -2.655,3.939 -6.466,7.792 -11.432,11.56 -4.967,3.768 -11.176,6.894 -18.626,9.377 -7.45,2.484 -15.971,3.726 -25.562,3.726 z m -28.26,-80.926 h 56.776 v -0.77 c 0,-6.68 -1.113,-12.546 -3.339,-17.598 -2.227,-5.053 -5.481,-8.992 -9.763,-11.818 -4.282,-2.826 -9.42,-4.239 -15.414,-4.239 -5.995,0 -11.133,1.413 -15.414,4.239 -4.282,2.826 -7.494,6.765 -9.634,11.818 -2.141,5.052 -3.212,10.918 -3.212,17.598 z"
         style="fill:#74aa00;fill-rule:nonzero"
         id="path12" /><path
         d="m 596.792,596.479 c -10.277,0 -18.926,-1.799 -25.948,-5.395 -7.022,-3.597 -12.246,-8.949 -15.671,-16.057 -3.426,-7.108 -5.138,-15.971 -5.138,-26.59 V 490.12 h -20.296 c -1.713,0 -3.168,-0.6 -4.367,-1.799 -1.199,-1.199 -1.799,-2.74 -1.799,-4.624 v -14.644 c 0,-1.712 0.6,-3.168 1.799,-4.367 1.199,-1.199 2.654,-1.798 4.367,-1.798 h 20.296 v -42.647 c 0,-1.712 0.556,-3.168 1.67,-4.367 1.113,-1.199 2.611,-1.798 4.495,-1.798 h 20.81 c 1.713,0 3.168,0.599 4.367,1.798 1.199,1.199 1.799,2.655 1.799,4.367 v 42.647 h 32.113 c 1.712,0 3.168,0.599 4.367,1.798 1.199,1.199 1.798,2.655 1.798,4.367 v 14.644 c 0,1.884 -0.599,3.425 -1.798,4.624 -1.199,1.199 -2.655,1.799 -4.367,1.799 h -32.113 v 55.748 c 0,7.022 1.241,12.503 3.725,16.442 2.483,3.939 6.808,5.909 12.973,5.909 h 17.727 c 1.713,0 3.168,0.599 4.367,1.798 1.199,1.199 1.799,2.655 1.799,4.368 v 15.928 c 0,1.713 -0.6,3.168 -1.799,4.367 -1.199,1.199 -2.654,1.799 -4.367,1.799 z"
         style="fill:#74aa00;fill-rule:nonzero"
         id="path13" /></g><g
       id="g23"><path
         d="m 28.524,633.812 c 0.412,0 0.769,0.15 1.069,0.45 0.3,0.3 0.45,0.656 0.45,1.069 v 5.962 c 0,0.413 -0.15,0.769 -0.45,1.069 -0.3,0.3 -0.657,0.45 -1.069,0.45 H 11.705 v 7.706 h 15.694 c 0.412,0 0.769,0.15 1.069,0.45 0.3,0.3 0.45,0.657 0.45,1.069 V 658 c 0,0.412 -0.15,0.768 -0.45,1.068 -0.3,0.3 -0.657,0.45 -1.069,0.45 H 11.705 v 12.15 c 0,0.413 -0.15,0.769 -0.45,1.069 -0.3,0.3 -0.656,0.45 -1.069,0.45 H 2.818 c -0.413,0 -0.769,-0.15 -1.069,-0.45 -0.3,-0.3 -0.45,-0.656 -0.45,-1.069 v -36.337 c 0,-0.413 0.15,-0.769 0.45,-1.069 0.3,-0.3 0.656,-0.45 1.069,-0.45 z"
         style="fill:#231f20;fill-rule:nonzero"
         id="path14" /><path
         d="m 81.23,633.25 c 3.563,0 6.638,0.675 9.225,2.025 2.588,1.35 4.585,3.178 5.991,5.484 1.406,2.306 2.184,4.884 2.334,7.734 0.075,1.05 0.113,2.738 0.113,5.063 0,2.287 -0.038,3.937 -0.113,4.95 -0.15,2.85 -0.928,5.428 -2.334,7.734 -1.406,2.307 -3.403,4.135 -5.991,5.485 -2.587,1.35 -5.662,2.025 -9.225,2.025 -3.562,0 -6.637,-0.675 -9.225,-2.025 -2.587,-1.35 -4.584,-3.178 -5.99,-5.485 -1.407,-2.306 -2.185,-4.884 -2.335,-7.734 -0.075,-2.025 -0.112,-3.675 -0.112,-4.95 0,-1.275 0.037,-2.963 0.112,-5.063 0.15,-2.85 0.928,-5.428 2.335,-7.734 1.406,-2.306 3.403,-4.134 5.99,-5.484 2.588,-1.35 5.663,-2.025 9.225,-2.025 z m 7.144,15.525 c -0.188,-1.988 -0.872,-3.572 -2.053,-4.753 -1.181,-1.182 -2.878,-1.772 -5.091,-1.772 -2.212,0 -3.909,0.59 -5.09,1.772 -1.182,1.181 -1.866,2.765 -2.054,4.753 -0.112,1.237 -0.168,2.793 -0.168,4.668 0,1.838 0.056,3.432 0.168,4.782 0.188,1.987 0.872,3.572 2.054,4.753 1.181,1.181 2.878,1.772 5.09,1.772 2.213,0 3.91,-0.591 5.091,-1.772 1.181,-1.181 1.865,-2.766 2.053,-4.753 0.112,-1.35 0.169,-2.944 0.169,-4.782 0,-1.875 -0.057,-3.431 -0.169,-4.668 z"
         style="fill:#231f20;fill-rule:nonzero"
         id="path15" /><path
         d="m 166.618,633.812 c 0.412,0 0.768,0.15 1.068,0.45 0.3,0.3 0.45,0.656 0.45,1.069 v 22.444 c 0,3.375 -0.712,6.262 -2.137,8.662 -1.425,2.4 -3.422,4.219 -5.991,5.456 -2.568,1.238 -5.559,1.857 -8.972,1.857 -3.45,0 -6.459,-0.619 -9.028,-1.857 -2.568,-1.237 -4.556,-3.056 -5.962,-5.456 -1.406,-2.4 -2.11,-5.287 -2.11,-8.662 v -22.444 c 0,-0.413 0.15,-0.769 0.45,-1.069 0.3,-0.3 0.657,-0.45 1.069,-0.45 h 7.369 c 0.412,0 0.769,0.15 1.069,0.45 0.3,0.3 0.45,0.656 0.45,1.069 v 22.219 c 0,2.287 0.572,4.059 1.715,5.315 1.144,1.257 2.803,1.885 4.978,1.885 2.175,0 3.835,-0.628 4.979,-1.885 1.143,-1.256 1.715,-3.028 1.715,-5.315 v -22.219 c 0,-0.413 0.15,-0.769 0.45,-1.069 0.3,-0.3 0.656,-0.45 1.069,-0.45 z"
         style="fill:#231f20;fill-rule:nonzero"
         id="path16" /><path
         d="m 230.18,673.187 c -0.562,0 -1.05,-0.14 -1.462,-0.422 -0.413,-0.281 -0.694,-0.572 -0.844,-0.872 l -12.881,-19.237 v 19.012 c 0,0.413 -0.15,0.769 -0.45,1.069 -0.3,0.3 -0.657,0.45 -1.069,0.45 h -7.369 c -0.412,0 -0.769,-0.15 -1.069,-0.45 -0.3,-0.3 -0.45,-0.656 -0.45,-1.069 v -36.337 c 0,-0.413 0.15,-0.769 0.45,-1.069 0.3,-0.3 0.657,-0.45 1.069,-0.45 h 5.85 c 0.563,0 1.05,0.141 1.463,0.422 0.412,0.281 0.693,0.572 0.843,0.872 l 12.882,19.237 v -19.012 c 0,-0.413 0.15,-0.769 0.45,-1.069 0.3,-0.3 0.656,-0.45 1.068,-0.45 h 7.369 c 0.413,0 0.769,0.15 1.069,0.45 0.3,0.3 0.45,0.656 0.45,1.069 v 36.337 c 0,0.413 -0.15,0.769 -0.45,1.069 -0.3,0.3 -0.656,0.45 -1.069,0.45 z"
         style="fill:#231f20;fill-rule:nonzero"
         id="path17" /><path
         d="m 307.58,649.506 c 0.075,2.1 0.113,3.45 0.113,4.05 0,0.6 -0.038,1.912 -0.113,3.937 -0.112,3.075 -0.909,5.794 -2.39,8.157 -1.482,2.362 -3.516,4.209 -6.104,5.54 -2.587,1.332 -5.587,1.997 -9,1.997 h -15.187 c -0.413,0 -0.769,-0.15 -1.069,-0.45 -0.3,-0.3 -0.45,-0.656 -0.45,-1.069 v -36.337 c 0,-0.413 0.15,-0.769 0.45,-1.069 0.3,-0.3 0.656,-0.45 1.069,-0.45 h 14.906 c 3.413,0 6.441,0.666 9.085,1.997 2.643,1.331 4.725,3.188 6.243,5.569 1.519,2.381 2.335,5.09 2.447,8.128 z m -23.794,-6.694 v 21.375 h 6.019 c 4.725,0 7.181,-2.156 7.369,-6.469 0.075,-2.175 0.112,-3.6 0.112,-4.275 0,-0.75 -0.037,-2.137 -0.112,-4.162 -0.113,-2.138 -0.816,-3.75 -2.109,-4.838 -1.294,-1.087 -3.141,-1.631 -5.541,-1.631 z"
         style="fill:#231f20;fill-rule:nonzero"
         id="path18" /><path
         d="m 374.686,671.106 c 0.15,0.375 0.225,0.656 0.225,0.844 0,0.337 -0.121,0.628 -0.365,0.872 -0.244,0.243 -0.535,0.365 -0.872,0.365 h -7.088 c -0.637,0 -1.134,-0.14 -1.49,-0.422 -0.356,-0.281 -0.591,-0.609 -0.703,-0.984 l -1.575,-4.669 h -14.963 l -1.575,4.669 c -0.112,0.375 -0.347,0.703 -0.703,0.984 -0.356,0.282 -0.853,0.422 -1.491,0.422 h -7.087 c -0.338,0 -0.628,-0.122 -0.872,-0.365 -0.244,-0.244 -0.366,-0.535 -0.366,-0.872 0,-0.188 0.075,-0.469 0.225,-0.844 l 12.263,-35.438 c 0.187,-0.525 0.487,-0.965 0.9,-1.321 0.412,-0.357 0.956,-0.535 1.631,-0.535 h 9.113 c 0.675,0 1.218,0.178 1.631,0.535 0.412,0.356 0.712,0.796 0.9,1.321 z m -14.793,-12.713 -4.557,-13.5 -4.556,13.5 z"
         style="fill:#231f20;fill-rule:nonzero"
         id="path19" /><path
         d="m 437.349,633.812 c 0.412,0 0.769,0.15 1.069,0.45 0.3,0.3 0.45,0.656 0.45,1.069 v 5.962 c 0,0.413 -0.15,0.769 -0.45,1.069 -0.3,0.3 -0.657,0.45 -1.069,0.45 h -9.9 v 28.856 c 0,0.413 -0.15,0.769 -0.45,1.069 -0.3,0.3 -0.656,0.45 -1.069,0.45 h -7.369 c -0.412,0 -0.768,-0.15 -1.068,-0.45 -0.3,-0.3 -0.45,-0.656 -0.45,-1.069 v -28.856 h -9.9 c -0.413,0 -0.769,-0.15 -1.069,-0.45 -0.3,-0.3 -0.45,-0.656 -0.45,-1.069 v -5.962 c 0,-0.413 0.15,-0.769 0.45,-1.069 0.3,-0.3 0.656,-0.45 1.069,-0.45 z"
         style="fill:#231f20;fill-rule:nonzero"
         id="path20" /><path
         d="m 474.418,673.187 c -0.413,0 -0.769,-0.15 -1.069,-0.45 -0.3,-0.3 -0.45,-0.656 -0.45,-1.069 v -36.337 c 0,-0.413 0.15,-0.769 0.45,-1.069 0.3,-0.3 0.656,-0.45 1.069,-0.45 h 7.368 c 0.413,0 0.769,0.15 1.069,0.45 0.3,0.3 0.45,0.656 0.45,1.069 v 36.337 c 0,0.413 -0.15,0.769 -0.45,1.069 -0.3,0.3 -0.656,0.45 -1.069,0.45 z"
         style="fill:#231f20;fill-rule:nonzero"
         id="path21" /><path
         d="m 536.405,633.25 c 3.563,0 6.638,0.675 9.225,2.025 2.588,1.35 4.585,3.178 5.991,5.484 1.406,2.306 2.184,4.884 2.334,7.734 0.075,1.05 0.113,2.738 0.113,5.063 0,2.287 -0.038,3.937 -0.113,4.95 -0.15,2.85 -0.928,5.428 -2.334,7.734 -1.406,2.307 -3.403,4.135 -5.991,5.485 -2.587,1.35 -5.662,2.025 -9.225,2.025 -3.562,0 -6.637,-0.675 -9.225,-2.025 -2.587,-1.35 -4.584,-3.178 -5.99,-5.485 -1.407,-2.306 -2.185,-4.884 -2.335,-7.734 -0.075,-2.025 -0.112,-3.675 -0.112,-4.95 0,-1.275 0.037,-2.963 0.112,-5.063 0.15,-2.85 0.928,-5.428 2.335,-7.734 1.406,-2.306 3.403,-4.134 5.99,-5.484 2.588,-1.35 5.663,-2.025 9.225,-2.025 z m 7.144,15.525 c -0.188,-1.988 -0.872,-3.572 -2.053,-4.753 -1.181,-1.182 -2.878,-1.772 -5.091,-1.772 -2.212,0 -3.909,0.59 -5.09,1.772 -1.182,1.181 -1.866,2.765 -2.054,4.753 -0.112,1.237 -0.168,2.793 -0.168,4.668 0,1.838 0.056,3.432 0.168,4.782 0.188,1.987 0.872,3.572 2.054,4.753 1.181,1.181 2.878,1.772 5.09,1.772 2.213,0 3.91,-0.591 5.091,-1.772 1.181,-1.181 1.865,-2.766 2.053,-4.753 0.112,-1.35 0.169,-2.944 0.169,-4.782 0,-1.875 -0.057,-3.431 -0.169,-4.668 z"
         style="fill:#231f20;fill-rule:nonzero"
         id="path22" /><path
         d="m 615.099,673.187 c -0.563,0 -1.05,-0.14 -1.463,-0.422 -0.412,-0.281 -0.693,-0.572 -0.843,-0.872 l -12.882,-19.237 v 19.012 c 0,0.413 -0.15,0.769 -0.45,1.069 -0.3,0.3 -0.656,0.45 -1.068,0.45 h -7.369 c -0.413,0 -0.769,-0.15 -1.069,-0.45 -0.3,-0.3 -0.45,-0.656 -0.45,-1.069 v -36.337 c 0,-0.413 0.15,-0.769 0.45,-1.069 0.3,-0.3 0.656,-0.45 1.069,-0.45 h 5.85 c 0.562,0 1.05,0.141 1.462,0.422 0.413,0.281 0.694,0.572 0.844,0.872 l 12.881,19.237 v -19.012 c 0,-0.413 0.15,-0.769 0.45,-1.069 0.3,-0.3 0.657,-0.45 1.069,-0.45 h 7.369 c 0.412,0 0.769,0.15 1.069,0.45 0.3,0.3 0.45,0.656 0.45,1.069 v 36.337 c 0,0.413 -0.15,0.769 -0.45,1.069 -0.3,0.3 -0.657,0.45 -1.069,0.45 z"
         style="fill:#231f20;fill-rule:nonzero"
         id="path23" /></g></g></svg>
