0
SECTION
2
HEADER
9
$INSUNITS
70
4
9
$ACADVER
1
AC1014
9
$HANDSEED
5
FFFF
0
ENDSEC
0
SECTION
2
TABLES
0
TABLE
2
VPORT
5
8
100
AcDbSymbolTable
0
ENDTAB
0
TABLE
2
LTYPE
5
5
100
AcDbSymbolTable
0
LTYPE
5
14
100
AcDbSymbolTableRecord
100
AcDbLinetypeTableRecord
2
BYBLOCK
70
0
0
LTYPE
5
15
100
AcDbSymbolTableRecord
100
AcDbLinetypeTableRecord
2
BYLAYER
70
0
0
ENDTAB
0
TABLE
2
LAYER
5
2
100
AcDbSymbolTable
70
2
0
LAYER
5
50
100
AcDbSymbolTableRecord
100
AcDbLayerTableRecord
2
0
70
0
6
CONTINUOUS
0
ENDTAB
0
TABLE
2
STYLE
5
3
100
AcDbSymbolTable
70
1
0
STYLE
5
11
100
AcDbSymbolTableRecord
100
AcDbTextStyleTableRecord
2
STANDARD
70
0
0
ENDTAB
0
TABLE
2
VIEW
5
6
100
AcDbSymbolTable
70
0
0
ENDTAB
0
TABLE
2
UCS
5
7
100
AcDbSymbolTable
70
0
0
ENDTAB
0
TABLE
2
APPID
5
9
100
AcDbSymbolTable
70
2
0
APPID
5
12
100
AcDbSymbolTableRecord
100
AcDbRegAppTableRecord
2
ACAD
70
0
0
ENDTAB
0
TABLE
2
DIMSTYLE
5
A
100
AcDbSymbolTable
70
1
0
ENDTAB
0
TABLE
2
BLOCK_RECORD
5
1
100
AcDbSymbolTable
70
1
0
BLOCK_RECORD
5
1F
100
AcDbSymbolTableRecord
100
AcDbBlockTableRecord
2
*MODEL_SPACE
0
BLOCK_RECORD
5
1B
100
AcDbSymbolTableRecord
100
AcDbBlockTableRecord
2
*PAPER_SPACE
0
ENDTAB
0
ENDSEC
0
SECTION
2
BLOCKS
0
BLOCK
5
20
100
AcDbEntity
100
AcDbBlockBegin
2
*MODEL_SPACE
0
ENDBLK
5
21
100
AcDbEntity
100
AcDbBlockEnd
0
BLOCK
5
1C
100
AcDbEntity
100
AcDbBlockBegin
2
*PAPER_SPACE
0
ENDBLK
5
1D
100
AcDbEntity
100
AcDbBlockEnd
0
ENDSEC
0
SECTION
2
ENTITIES
0
SPLINE
5
100
100
AcDbEntity
8
0
100
AcDbSpline
70
0
71
3
72
8
73
4
74
0
42
0.000000001
43
0.0000000001
44
0.0000000001
40
0
40
0
40
0
40
0
40
1
40
1
40
1
40
1
10
204.89233100000004
20
328.24444
30
0
10
204.00869300000005
20
328.24444
30
0
10
203.29234600000004
20
327.52808199999998
30
0
10
203.29234600000004
20
326.64442900000006
30
0
0
LINE
5
101
100
AcDbEntity
8
0
100
AcDbLine
10
60.00523900000001
20
304.945065
30
0
11
280.403818
21
304.945065
31
0
0
LINE
5
102
100
AcDbEntity
8
0
100
AcDbLine
10
129.90840700000001
20
284.74501299999997
30
0
11
210.06574700000002
21
284.74501299999997
31
0
0
LINE
5
103
100
AcDbEntity
8
0
100
AcDbLine
10
290.39510000000001
20
289.74499400000002
30
0
11
290.40383100000003
21
289.74499400000002
31
0
0
LINE
5
104
100
AcDbEntity
8
0
100
AcDbLine
10
234.90821100000002
20
289.74499400000002
30
0
11
234.90821100000002
21
284.74501299999997
31
0
0
SPLINE
5
105
100
AcDbEntity
8
0
100
AcDbSpline
70
0
71
3
72
8
73
4
74
0
42
0.000000001
43
0.0000000001
44
0.0000000001
40
0
40
0
40
0
40
0
40
1
40
1
40
1
40
1
10
204.89233100000004
20
325.044443
30
0
10
205.77600000000001
20
325.044443
30
0
10
206.49235099999999
20
325.76077500000002
30
0
10
206.49235099999999
20
326.64442900000006
30
0
0
LINE
5
106
100
AcDbEntity
8
0
100
AcDbLine
10
234.90821100000002
20
284.74501299999997
30
0
11
290.39510000000001
21
284.74501299999997
31
0
0
LINE
5
107
100
AcDbEntity
8
0
100
AcDbLine
10
290.39510000000001
20
284.74501299999997
30
0
11
290.39510000000001
21
289.74499400000002
31
0
0
LINE
5
108
100
AcDbEntity
8
0
100
AcDbLine
10
129.90840700000001
20
289.74499400000002
30
0
11
129.90840700000001
21
284.74501299999997
31
0
0
LINE
5
109
100
AcDbEntity
8
0
100
AcDbLine
10
105.06595000000002
20
289.74499400000002
30
0
11
129.90840700000001
21
289.74499400000002
31
0
0
LINE
5
110
100
AcDbEntity
8
0
100
AcDbLine
10
210.06574700000002
20
284.74501299999997
30
0
11
210.06574700000002
21
289.74499400000002
31
0
0
LINE
5
111
100
AcDbEntity
8
0
100
AcDbLine
10
50.005278000000004
20
294.94507799999997
30
0
11
50.005278000000004
21
284.74501299999997
31
0
0
SPLINE
5
112
100
AcDbEntity
8
0
100
AcDbSpline
70
0
71
3
72
8
73
4
74
0
42
0.000000001
43
0.0000000001
44
0.0000000001
40
0
40
0
40
0
40
0
40
1
40
1
40
1
40
1
10
203.29234600000004
20
326.64442900000006
30
0
10
203.29234600000004
20
325.76077500000002
30
0
10
204.00869300000005
20
325.044443
30
0
10
204.89233100000004
20
325.044443
30
0
0
SPLINE
5
113
100
AcDbEntity
8
0
100
AcDbSpline
70
0
71
3
72
8
73
4
74
0
42
0.000000001
43
0.0000000001
44
0.0000000001
40
0
40
0
40
0
40
0
40
1
40
1
40
1
40
1
10
60.00523900000001
20
304.945065
30
0
10
54.482408
20
304.945065
30
0
10
50.005278000000004
20
300.46790099999998
30
0
10
50.005278000000004
20
294.94507799999997
30
0
0
SPLINE
5
114
100
AcDbEntity
8
0
100
AcDbSpline
70
0
71
3
72
8
73
4
74
0
42
0.000000001
43
0.0000000001
44
0.0000000001
40
0
40
0
40
0
40
0
40
1
40
1
40
1
40
1
10
12.665341999999999
20
81.305718999999996
30
0
10
12.665341999999999
20
80.366847000000007
30
0
10
11.904225000000002
20
79.605722
30
0
10
10.965344000000002
20
79.605722
30
0
0
LINE
5
115
100
AcDbEntity
8
0
100
AcDbLine
10
105.06595000000002
20
284.74501299999997
30
0
11
105.06595000000002
21
289.74499400000002
31
0
0
LINE
5
116
100
AcDbEntity
8
0
100
AcDbLine
10
210.06574700000002
20
289.74499400000002
30
0
11
234.90821100000002
21
289.74499400000002
31
0
0
SPLINE
5
117
100
AcDbEntity
8
0
100
AcDbSpline
70
0
71
3
72
8
73
4
74
0
42
0.000000001
43
0.0000000001
44
0.0000000001
40
0
40
0
40
0
40
0
40
1
40
1
40
1
40
1
10
206.49235099999999
20
326.64442900000006
30
0
10
206.49235099999999
20
327.52808199999998
30
0
10
205.77600000000001
20
328.24444
30
0
10
204.89233100000004
20
328.24444
30
0
0
SPLINE
5
118
100
AcDbEntity
8
0
100
AcDbSpline
70
0
71
3
72
8
73
4
74
0
42
0.000000001
43
0.0000000001
44
0.0000000001
40
0
40
0
40
0
40
0
40
1
40
1
40
1
40
1
10
331.036609
20
82.957880000000003
30
0
10
331.975481
20
82.957880000000003
30
0
10
332.73660699999999
20
82.196782000000013
30
0
10
332.73660699999999
20
81.257882999999993
30
0
0
SPLINE
5
119
100
AcDbEntity
8
0
100
AcDbSpline
70
0
71
3
72
8
73
4
74
0
42
0.000000001
43
0.0000000001
44
0.0000000001
40
0
40
0
40
0
40
0
40
1
40
1
40
1
40
1
10
332.73660699999999
20
81.257882999999993
30
0
10
332.73660699999999
20
80.319011000000003
30
0
10
331.975481
20
79.557884999999999
30
0
10
331.036609
20
79.557884999999999
30
0
0
SPLINE
5
120
100
AcDbEntity
8
0
100
AcDbSpline
70
0
71
3
72
8
73
4
74
0
42
0.000000001
43
0.0000000001
44
0.0000000001
40
0
40
0
40
0
40
0
40
1
40
1
40
1
40
1
10
332.73660699999999
20
101.18041400000001
30
0
10
332.73660699999999
20
100.24154200000001
30
0
10
331.975481
20
99.480416000000019
30
0
10
331.036609
20
99.480416000000019
30
0
0
SPLINE
5
121
100
AcDbEntity
8
0
100
AcDbSpline
70
0
71
3
72
8
73
4
74
0
42
0.000000001
43
0.0000000001
44
0.0000000001
40
0
40
0
40
0
40
0
40
1
40
1
40
1
40
1
10
280.403818
20
304.945065
30
0
10
285.92664000000002
20
304.945065
30
0
10
290.40377799999999
20
300.46790099999998
30
0
10
290.40377799999999
20
294.94507799999997
30
0
0
SPLINE
5
122
100
AcDbEntity
8
0
100
AcDbSpline
70
0
71
3
72
8
73
4
74
0
42
0.000000001
43
0.0000000001
44
0.0000000001
40
0
40
0
40
0
40
0
40
1
40
1
40
1
40
1
10
331.036609
20
79.557884999999999
30
0
10
330.09773700000005
20
79.557884999999999
30
0
10
329.33661200000006
20
80.319011000000003
30
0
10
329.33661200000006
20
81.257882999999993
30
0
0
SPLINE
5
123
100
AcDbEntity
8
0
100
AcDbSpline
70
0
71
3
72
8
73
4
74
0
42
0.000000001
43
0.0000000001
44
0.0000000001
40
0
40
0
40
0
40
0
40
1
40
1
40
1
40
1
10
331.036609
20
102.88041100000001
30
0
10
331.975481
20
102.88041100000001
30
0
10
332.73660699999999
20
102.119286
30
0
10
332.73660699999999
20
101.18041400000001
30
0
0
SPLINE
5
124
100
AcDbEntity
8
0
100
AcDbSpline
70
0
71
3
72
8
73
4
74
0
42
0.000000001
43
0.0000000001
44
0.0000000001
40
0
40
0
40
0
40
0
40
1
40
1
40
1
40
1
10
12.665341999999999
20
101.22825
30
0
10
12.665341999999999
20
100.28937800000001
30
0
10
11.904225000000002
20
99.528253000000007
30
0
10
10.965344000000002
20
99.528253000000007
30
0
0
SPLINE
5
125
100
AcDbEntity
8
0
100
AcDbSpline
70
0
71
3
72
8
73
4
74
0
42
0.000000001
43
0.0000000001
44
0.0000000001
40
0
40
0
40
0
40
0
40
1
40
1
40
1
40
1
10
10.965344000000002
20
99.528253000000007
30
0
10
10.026463000000001
20
99.528253000000007
30
0
10
9.2653470000000002
20
100.28937800000001
30
0
10
9.2653470000000002
20
101.22825
30
0
0
SPLINE
5
126
100
AcDbEntity
8
0
100
AcDbSpline
70
0
71
3
72
8
73
4
74
0
42
0.000000001
43
0.0000000001
44
0.0000000001
40
0
40
0
40
0
40
0
40
1
40
1
40
1
40
1
10
10.965344000000002
20
83.005717000000004
30
0
10
11.904225000000002
20
83.005717000000004
30
0
10
12.665341999999999
20
82.244618000000003
30
0
10
12.665341999999999
20
81.305718999999996
30
0
0
SPLINE
5
127
100
AcDbEntity
8
0
100
AcDbSpline
70
0
71
3
72
8
73
4
74
0
42
0.000000001
43
0.0000000001
44
0.0000000001
40
0
40
0
40
0
40
0
40
1
40
1
40
1
40
1
10
10.965344000000002
20
102.928248
30
0
10
11.904225000000002
20
102.928248
30
0
10
12.665341999999999
20
102.167123
30
0
10
12.665341999999999
20
101.22825
30
0
0
LINE
5
128
100
AcDbEntity
8
0
100
AcDbLine
10
290.40377799999999
20
294.94507799999997
30
0
11
290.40377799999999
21
289.74499400000002
31
0
0
SPLINE
5
129
100
AcDbEntity
8
0
100
AcDbSpline
70
0
71
3
72
8
73
4
74
0
42
0.000000001
43
0.0000000001
44
0.0000000001
40
0
40
0
40
0
40
0
40
1
40
1
40
1
40
1
10
10.965344000000002
20
79.605722
30
0
10
10.026463000000001
20
79.605722
30
0
10
9.2653470000000002
20
80.366847000000007
30
0
10
9.2653470000000002
20
81.305718999999996
30
0
0
SPLINE
5
130
100
AcDbEntity
8
0
100
AcDbSpline
70
0
71
3
72
8
73
4
74
0
42
0.000000001
43
0.0000000001
44
0.0000000001
40
0
40
0
40
0
40
0
40
1
40
1
40
1
40
1
10
329.33661200000006
20
81.257882999999993
30
0
10
329.33661200000006
20
82.196782000000013
30
0
10
330.09773700000005
20
82.957880000000003
30
0
10
331.036609
20
82.957880000000003
30
0
0
SPLINE
5
131
100
AcDbEntity
8
0
100
AcDbSpline
70
0
71
3
72
8
73
4
74
0
42
0.000000001
43
0.0000000001
44
0.0000000001
40
0
40
0
40
0
40
0
40
1
40
1
40
1
40
1
10
9.2653470000000002
20
81.305718999999996
30
0
10
9.2653470000000002
20
82.244618000000003
30
0
10
10.026463000000001
20
83.005717000000004
30
0
10
10.965344000000002
20
83.005717000000004
30
0
0
LINE
5
132
100
AcDbEntity
8
0
100
AcDbLine
10
50.005278000000004
20
284.74501299999997
30
0
11
105.06595000000002
21
284.74501299999997
31
0
0
SPLINE
5
133
100
AcDbEntity
8
0
100
AcDbSpline
70
0
71
3
72
8
73
4
74
0
42
0.000000001
43
0.0000000001
44
0.0000000001
40
0
40
0
40
0
40
0
40
1
40
1
40
1
40
1
10
9.2653470000000002
20
101.22825
30
0
10
9.2653470000000002
20
102.167123
30
0
10
10.026463000000001
20
102.928248
30
0
10
10.965344000000002
20
102.928248
30
0
0
SPLINE
5
134
100
AcDbEntity
8
0
100
AcDbSpline
70
0
71
3
72
8
73
4
74
0
42
0.000000001
43
0.0000000001
44
0.0000000001
40
0
40
0
40
0
40
0
40
1
40
1
40
1
40
1
10
331.036609
20
99.480416000000019
30
0
10
330.09773700000005
20
99.480416000000019
30
0
10
329.33661200000006
20
100.24154200000001
30
0
10
329.33661200000006
20
101.18041400000001
30
0
0
SPLINE
5
135
100
AcDbEntity
8
0
100
AcDbSpline
70
0
71
3
72
8
73
4
74
0
42
0.000000001
43
0.0000000001
44
0.0000000001
40
0
40
0
40
0
40
0
40
1
40
1
40
1
40
1
10
329.33661200000006
20
101.18041400000001
30
0
10
329.33661200000006
20
102.119286
30
0
10
330.09773700000005
20
102.88041100000001
30
0
10
331.036609
20
102.88041100000001
30
0
0
LWPOLYLINE
5
136
100
AcDbEntity
8
0
100
AcDbPolyline
90
4
70
1
43
0.0
10
5.965364000000001
20
0.066780999999999993
10
5.9653639999999797
20
150.06645600000002
10
335.96472900000003
20
150.06645600000002
10
335.96472900000003
20
0.066780999999999993
0
LINE
5
137
100
AcDbEntity
8
0
100
AcDbLine
10
382.690426
20
350.86989600000004
30
0
11
410.69037900000006
21
350.86989600000004
31
0
0
LINE
5
138
100
AcDbEntity
8
0
100
AcDbLine
10
460.35694100000001
20
345.86989000000005
30
0
11
482.023549
21
345.86989000000005
31
0
0
LINE
5
139
100
AcDbEntity
8
0
100
AcDbLine
10
359.69047899999998
20
330.86994900000002
30
0
11
359.69047899999998
21
345.86989000000005
31
0
0
LINE
5
140
100
AcDbEntity
8
0
100
AcDbLine
10
510.02350300000001
20
345.86989000000005
30
0
11
531.69013700000005
21
345.86989000000005
31
0
0
LINE
5
141
100
AcDbEntity
8
0
100
AcDbLine
10
482.023549
20
350.86989600000004
30
0
11
482.023549
21
345.86989000000005
31
0
0
LINE
5
142
100
AcDbEntity
8
0
100
AcDbLine
10
566.69005199999992
20
200.87016800000001
30
0
11
566.69005199999992
21
350.86989600000004
31
0
0
LINE
5
143
100
AcDbEntity
8
0
100
AcDbLine
10
410.69037900000006
20
345.86989000000005
30
0
11
432.356987
21
345.86989000000005
31
0
0
LINE
5
144
100
AcDbEntity
8
0
100
AcDbLine
10
482.023549
20
350.86989600000004
30
0
11
510.02350300000001
21
350.86989600000004
31
0
0
LINE
5
145
100
AcDbEntity
8
0
100
AcDbLine
10
382.690426
20
345.86989000000005
30
0
11
382.690426
21
350.86989600000004
31
0
0
LINE
5
146
100
AcDbEntity
8
0
100
AcDbLine
10
359.69047899999998
20
345.86989000000005
30
0
11
382.690426
21
345.86989000000005
31
0
0
LINE
5
147
100
AcDbEntity
8
0
100
AcDbLine
10
410.69037900000006
20
205.870149
30
0
11
410.69037900000006
21
200.87016800000001
31
0
0
LINE
5
148
100
AcDbEntity
8
0
100
AcDbLine
10
359.69047899999998
20
205.870149
30
0
11
359.69047899999998
21
220.87014300000004
31
0
0
LINE
5
149
100
AcDbEntity
8
0
100
AcDbLine
10
364.69046000000003
20
285.87001900000007
30
0
11
369.69043999999997
21
285.87001900000007
31
0
0
LINE
5
150
100
AcDbEntity
8
0
100
AcDbLine
10
460.35694100000001
20
345.86989000000005
30
0
11
460.35694100000001
21
350.86989600000004
31
0
0
LINE
5
151
100
AcDbEntity
8
0
100
AcDbLine
10
410.69037900000006
20
350.86989600000004
30
0
11
410.69037900000006
21
345.86989000000005
31
0
0
LINE
5
152
100
AcDbEntity
8
0
100
AcDbLine
10
510.02350300000001
20
350.86989600000004
30
0
11
510.02350300000001
21
345.86989000000005
31
0
0
LINE
5
153
100
AcDbEntity
8
0
100
AcDbLine
10
531.69013700000005
20
350.86989600000004
30
0
11
566.69005199999992
21
350.86989600000004
31
0
0
LINE
5
154
100
AcDbEntity
8
0
100
AcDbLine
10
460.35694100000001
20
350.86989600000004
30
0
11
432.356987
21
350.86989600000004
31
0
0
SPLINE
5
155
100
AcDbEntity
8
0
100
AcDbSpline
70
0
71
3
72
8
73
4
74
0
42
0.000000001
43
0.0000000001
44
0.0000000001
40
0
40
0
40
0
40
0
40
1
40
1
40
1
40
1
10
364.69046000000003
20
225.87014900000003
30
0
10
361.929035
20
225.87014900000003
30
0
10
359.69047899999998
20
223.63156700000002
30
0
10
359.69047899999998
20
220.87014300000004
30
0
0
SPLINE
5
156
100
AcDbEntity
8
0
100
AcDbSpline
70
0
71
3
72
8
73
4
74
0
42
0.000000001
43
0.0000000001
44
0.0000000001
40
0
40
0
40
0
40
0
40
1
40
1
40
1
40
1
10
364.69046000000003
20
325.86994199999998
30
0
10
361.929035
20
325.86994199999998
30
0
10
359.69047899999998
20
328.1085240000001
30
0
10
359.69047899999998
20
330.86994900000002
30
0
0
LINE
5
157
100
AcDbEntity
8
0
100
AcDbLine
10
364.69046000000003
20
225.87014900000003
30
0
11
369.69043999999997
21
225.87014900000003
31
0
0
LINE
5
158
100
AcDbEntity
8
0
100
AcDbLine
10
437.3569940000001
20
205.870149
30
0
11
437.3569940000001
21
200.87016800000001
31
0
0
LINE
5
159
100
AcDbEntity
8
0
100
AcDbLine
10
369.69043999999997
20
285.87001900000007
30
0
11
369.69043999999997
21
325.86994199999998
31
0
0
LINE
5
160
100
AcDbEntity
8
0
100
AcDbLine
10
437.3569940000001
20
200.87016800000001
30
0
11
460.35694100000001
21
200.87016800000001
31
0
0
LINE
5
161
100
AcDbEntity
8
0
100
AcDbLine
10
369.69043999999997
20
325.86994199999998
30
0
11
364.69046000000003
21
325.86994199999998
31
0
0
LINE
5
162
100
AcDbEntity
8
0
100
AcDbLine
10
531.69013700000005
20
350.86989600000004
30
0
11
531.69013700000005
21
345.86989000000005
31
0
0
LINE
5
163
100
AcDbEntity
8
0
100
AcDbLine
10
432.356987
20
350.86989600000004
30
0
11
432.356987
21
345.86989000000005
31
0
0
LINE
5
164
100
AcDbEntity
8
0
100
AcDbLine
10
382.690426
20
200.87016800000001
30
0
11
382.690426
21
205.870149
31
0
0
LINE
5
165
100
AcDbEntity
8
0
100
AcDbLine
10
510.02350300000001
20
200.87016800000001
30
0
11
510.02350300000001
21
205.870149
31
0
0
LINE
5
166
100
AcDbEntity
8
0
100
AcDbLine
10
482.023549
20
205.870149
30
0
11
482.023549
21
200.87016800000001
31
0
0
LINE
5
167
100
AcDbEntity
8
0
100
AcDbLine
10
0.066153999999999991
20
177.745206
30
0
11
5.0661350000000009
21
177.745206
31
0
0
SPLINE
5
168
100
AcDbEntity
8
0
100
AcDbSpline
70
0
71
3
72
8
73
4
74
0
42
0.000000001
43
0.0000000001
44
0.0000000001
40
0
40
0
40
0
40
0
40
1
40
1
40
1
40
1
10
537.76374199999998
20
247.15065200000001
30
0
10
537.76374199999998
20
246.21177900000004
30
0
10
538.52486699999997
20
245.45065400000001
30
0
10
539.46373900000003
20
245.45065400000001
30
0
0
LINE
5
169
100
AcDbEntity
8
0
100
AcDbLine
10
0.066153999999999991
20
255.41174799999999
30
0
11
0.066153999999999991
21
277.07835599999999
31
0
0
LINE
5
170
100
AcDbEntity
8
0
100
AcDbLine
10
369.69043999999997
20
255.870058
30
0
11
364.69046000000003
21
255.870058
31
0
0
LINE
5
171
100
AcDbEntity
8
0
100
AcDbLine
10
460.35694100000001
20
205.870149
30
0
11
460.35694100000001
21
200.87016800000001
31
0
0
LINE
5
172
100
AcDbEntity
8
0
100
AcDbLine
10
5.0661350000000009
20
205.74516000000003
30
0
11
0.066153999999999935
21
205.74516000000003
31
0
0
LINE
5
173
100
AcDbEntity
8
0
100
AcDbLine
10
5.0661350000000009
20
177.745206
30
0
11
5.0661350000000009
21
205.74516000000003
31
0
0
LINE
5
174
100
AcDbEntity
8
0
100
AcDbLine
10
240.88470599999999
20
164.74524700000001
30
0
11
315.88470599999999
21
164.74524700000001
31
0
0
LINE
5
175
100
AcDbEntity
8
0
100
AcDbLine
10
531.69013700000005
20
205.870149
30
0
11
531.69013700000005
21
200.87016800000001
31
0
0
LINE
5
176
100
AcDbEntity
8
0
100
AcDbLine
10
204.98706900000002
20
159.74526599999999
30
0
11
240.88470599999999
21
159.74526599999999
31
0
0
LINE
5
177
100
AcDbEntity
8
0
100
AcDbLine
10
20.066112
20
154.74528600000002
30
0
11
0.06615400000000049
21
154.74528600000002
31
0
0
LINE
5
178
100
AcDbEntity
8
0
100
AcDbLine
10
138.443782
20
164.74524700000001
30
0
11
204.98706900000002
21
164.74524700000001
31
0
0
LINE
5
179
100
AcDbEntity
8
0
100
AcDbLine
10
382.690426
20
200.87016800000001
30
0
11
410.69037900000006
21
200.87016800000001
31
0
0
LINE
5
180
100
AcDbEntity
8
0
100
AcDbLine
10
0.066153999999999991
20
227.41179399999999
30
0
11
5.0661350000000009
21
227.41179399999999
31
0
0
SPLINE
5
181
100
AcDbEntity
8
0
100
AcDbSpline
70
0
71
3
72
8
73
4
74
0
42
0.000000001
43
0.0000000001
44
0.0000000001
40
0
40
0
40
0
40
0
40
1
40
1
40
1
40
1
10
539.46373900000003
20
248.85064900000003
30
0
10
538.52486699999997
20
248.85064900000003
30
0
10
537.76374199999998
20
248.08952400000004
30
0
10
537.76374199999998
20
247.15065200000001
30
0
0
LINE
5
182
100
AcDbEntity
8
0
100
AcDbLine
10
382.690426
20
205.870149
30
0
11
359.69047899999998
21
205.870149
31
0
0
LINE
5
183
100
AcDbEntity
8
0
100
AcDbLine
10
364.69046000000003
20
255.870058
30
0
11
364.69046000000003
21
285.87001900000007
31
0
0
LINE
5
184
100
AcDbEntity
8
0
100
AcDbLine
10
510.02350300000001
20
205.870149
30
0
11
531.69013700000005
21
205.870149
31
0
0
LINE
5
185
100
AcDbEntity
8
0
100
AcDbLine
10
99.246927000000014
20
164.7354829856763
30
0
11
23.746927000000014
21
164.7354829856763
31
0
0
LINE
5
186
100
AcDbEntity
8
0
100
AcDbLine
10
482.023549
20
200.87016800000001
30
0
11
510.02350300000001
21
200.87016800000001
31
0
0
LINE
5
187
100
AcDbEntity
8
0
100
AcDbLine
10
0.066153999999999935
20
205.74516000000003
30
0
11
0.066153999999999991
21
227.41179399999999
31
0
0
LINE
5
188
100
AcDbEntity
8
0
100
AcDbLine
10
99.246927000000014
20
164.7354829856763
30
0
11
99.246927000000014
21
159.74526599999999
31
0
0
LINE
5
189
100
AcDbEntity
8
0
100
AcDbLine
10
204.98706900000002
20
159.74526599999999
30
0
11
204.98706900000002
21
164.74524700000001
31
0
0
LINE
5
190
100
AcDbEntity
8
0
100
AcDbLine
10
410.69037900000006
20
205.870149
30
0
11
437.3569940000001
21
205.870149
31
0
0
LINE
5
191
100
AcDbEntity
8
0
100
AcDbLine
10
460.35694100000001
20
205.870149
30
0
11
482.023549
21
205.870149
31
0
0
LINE
5
192
100
AcDbEntity
8
0
100
AcDbLine
10
369.69043999999997
20
225.87014900000003
30
0
11
369.69043999999997
21
255.870058
31
0
0
SPLINE
5
193
100
AcDbEntity
8
0
100
AcDbSpline
70
0
71
3
72
8
73
4
74
0
42
0.000000001
43
0.0000000001
44
0.0000000001
40
0
40
0
40
0
40
0
40
1
40
1
40
1
40
1
10
541.16373699999997
20
247.15065200000001
30
0
10
541.16373699999997
20
248.08952400000004
30
0
10
540.40263800000002
20
248.85064900000003
30
0
10
539.46373900000003
20
248.85064900000003
30
0
0
SPLINE
5
194
100
AcDbEntity
8
0
100
AcDbSpline
70
0
71
3
72
8
73
4
74
0
42
0.000000001
43
0.0000000001
44
0.0000000001
40
0
40
0
40
0
40
0
40
1
40
1
40
1
40
1
10
539.46373900000003
20
245.45065400000001
30
0
10
540.40263800000002
20
245.45065400000001
30
0
10
541.16373699999997
20
246.21177900000004
30
0
10
541.16373699999997
20
247.15065200000001
30
0
0
LINE
5
195
100
AcDbEntity
8
0
100
AcDbLine
10
531.69013700000005
20
200.87016800000001
30
0
11
566.69005199999992
21
200.87016800000001
31
0
0
LINE
5
196
100
AcDbEntity
8
0
100
AcDbLine
10
240.88470599999999
20
159.74526599999999
30
0
11
240.88470599999999
21
164.74524700000001
31
0
0
LINE
5
197
100
AcDbEntity
8
0
100
AcDbLine
10
5.0661350000000009
20
227.41179399999999
30
0
11
5.0661350000000009
21
255.41174799999999
31
0
0
LINE
5
198
100
AcDbEntity
8
0
100
AcDbLine
10
138.443782
20
164.74524700000001
30
0
11
138.443782
21
159.74526599999999
31
0
0
LINE
5
199
100
AcDbEntity
8
0
100
AcDbLine
10
335.06551800000005
20
255.41174799999999
30
0
11
340.065472
21
255.41174799999999
31
0
0
LINE
5
200
100
AcDbEntity
8
0
100
AcDbLine
10
335.06551800000005
20
305.07830899999999
30
0
11
340.065472
21
305.07830899999999
31
0
0
LINE
5
201
100
AcDbEntity
8
0
100
AcDbLine
10
335.06551800000005
20
205.74516000000003
30
0
11
335.06551800000005
21
177.745206
31
0
0
LINE
5
202
100
AcDbEntity
8
0
100
AcDbLine
10
0.066153999999999991
20
177.745206
30
0
11
0.06615400000000049
21
154.74528600000002
31
0
0
LINE
5
203
100
AcDbEntity
8
0
100
AcDbLine
10
340.065472
20
227.41179399999999
30
0
11
340.065472
21
205.74516000000003
31
0
0
LINE
5
204
100
AcDbEntity
8
0
100
AcDbLine
10
340.065472
20
277.07835599999999
30
0
11
335.06551800000005
21
277.07835599999999
31
0
0
LINE
5
205
100
AcDbEntity
8
0
100
AcDbLine
10
99.246927000000014
20
159.74526599999999
30
0
11
138.443782
21
159.74526599999999
31
0
0
LINE
5
206
100
AcDbEntity
8
0
100
AcDbLine
10
335.06551800000005
20
255.41174799999999
30
0
11
335.06551800000005
21
227.41179399999999
31
0
0
LINE
5
207
100
AcDbEntity
8
0
100
AcDbLine
10
315.88470599999999
20
159.74526599999999
30
0
11
315.88470599999999
21
164.74524700000001
31
0
0
LINE
5
208
100
AcDbEntity
8
0
100
AcDbLine
10
335.06551800000005
20
227.41179399999999
30
0
11
340.065472
21
227.41179399999999
31
0
0
LINE
5
209
100
AcDbEntity
8
0
100
AcDbLine
10
335.06551800000005
20
326.74491699999999
30
0
11
340.065472
21
326.74491699999999
31
0
0
LINE
5
210
100
AcDbEntity
8
0
100
AcDbLine
10
335.06551800000005
20
277.07835599999999
30
0
11
335.06551800000005
21
305.07830899999999
31
0
0
LINE
5
211
100
AcDbEntity
8
0
100
AcDbLine
10
340.065472
20
205.74516000000003
30
0
11
335.06551800000005
21
205.74516000000003
31
0
0
LINE
5
212
100
AcDbEntity
8
0
100
AcDbLine
10
340.065472
20
154.74528600000002
30
0
11
340.065472
21
177.745206
31
0
0
LINE
5
213
100
AcDbEntity
8
0
100
AcDbLine
10
335.06551800000005
20
177.745206
30
0
11
340.065472
21
177.745206
31
0
0
LINE
5
214
100
AcDbEntity
8
0
100
AcDbLine
10
340.065472
20
305.07830899999999
30
0
11
340.065472
21
326.74491699999999
31
0
0
LINE
5
215
100
AcDbEntity
8
0
100
AcDbLine
10
5.0661350000000009
20
255.41174799999999
30
0
11
0.066153999999999991
21
255.41174799999999
31
0
0
LINE
5
216
100
AcDbEntity
8
0
100
AcDbLine
10
340.065472
20
255.41174799999999
30
0
11
340.065472
21
277.07835599999999
31
0
0
LINE
5
217
100
AcDbEntity
8
0
100
AcDbLine
10
23.746927000000014
20
159.74526599999999
30
0
11
23.746927000000014
21
164.7354829856763
31
0
0
LINE
5
218
100
AcDbEntity
8
0
100
AcDbLine
10
340.065472
20
154.74528600000002
30
0
11
320.06552400000004
21
154.74528600000002
31
0
0
LINE
5
219
100
AcDbEntity
8
0
100
AcDbLine
10
0.066153999999999991
20
326.74491699999999
30
0
11
5.0661350000000009
21
326.74491699999999
31
0
0
LINE
5
220
100
AcDbEntity
8
0
100
AcDbLine
10
5.0661350000000009
20
326.74491699999999
30
0
11
5.0661350000000009
21
356.74487900000003
31
0
0
LINE
5
221
100
AcDbEntity
8
0
100
AcDbLine
10
5.0661350000000009
20
305.07830899999999
30
0
11
5.0661350000000009
21
277.07835599999999
31
0
0
LINE
5
222
100
AcDbEntity
8
0
100
AcDbLine
10
5.0661350000000009
20
277.07835599999999
30
0
11
0.066153999999999991
21
277.07835599999999
31
0
0
LINE
5
223
100
AcDbEntity
8
0
100
AcDbLine
10
335.06551800000005
20
356.74487900000003
30
0
11
5.0661350000000009
21
356.74487900000003
31
0
0
LINE
5
224
100
AcDbEntity
8
0
100
AcDbLine
10
0.066153999999999991
20
305.07830899999999
30
0
11
5.0661350000000009
21
305.07830899999999
31
0
0
LINE
5
225
100
AcDbEntity
8
0
100
AcDbLine
10
0.066153999999999991
20
305.07830899999999
30
0
11
0.066153999999999991
21
326.74491699999999
31
0
0
SPLINE
5
226
100
AcDbEntity
8
0
100
AcDbSpline
70
0
71
3
72
8
73
4
74
0
42
0.000000001
43
0.0000000001
44
0.0000000001
40
0
40
0
40
0
40
0
40
1
40
1
40
1
40
1
10
452.65332100000001
20
74.363039999999998
30
0
10
452.65332100000001
20
72.043468999999988
30
0
10
454.53371100000004
20
70.163052000000022
30
0
10
456.85330899999997
20
70.163052000000022
30
0
0
SPLINE
5
227
100
AcDbEntity
8
0
100
AcDbSpline
70
0
71
3
72
8
73
4
74
0
42
0.000000001
43
0.0000000001
44
0.0000000001
40
0
40
0
40
0
40
0
40
1
40
1
40
1
40
1
10
537.76374199999998
20
281.150576
30
0
10
537.76374199999998
20
280.21167800000001
30
0
10
538.52486699999997
20
279.450579
30
0
10
539.46373900000003
20
279.450579
30
0
0
SPLINE
5
228
100
AcDbEntity
8
0
100
AcDbSpline
70
0
71
3
72
8
73
4
74
0
42
0.000000001
43
0.0000000001
44
0.0000000001
40
0
40
0
40
0
40
0
40
1
40
1
40
1
40
1
10
529.54654000000005
20
99.428320000000014
30
0
10
527.22696900000005
20
99.428320000000014
30
0
10
525.34655199999997
20
101.30870999999999
30
0
10
525.34655199999997
20
103.62830799999999
30
0
0
SPLINE
5
229
100
AcDbEntity
8
0
100
AcDbSpline
70
0
71
3
72
8
73
4
74
0
42
0.000000001
43
0.0000000001
44
0.0000000001
40
0
40
0
40
0
40
0
40
1
40
1
40
1
40
1
10
539.46373900000003
20
282.85057399999999
30
0
10
538.52486699999997
20
282.85057399999999
30
0
10
537.76374199999998
20
282.089448
30
0
10
537.76374199999998
20
281.150576
30
0
0
SPLINE
5
230
100
AcDbEntity
8
0
100
AcDbSpline
70
0
71
3
72
8
73
4
74
0
42
0.000000001
43
0.0000000001
44
0.0000000001
40
0
40
0
40
0
40
0
40
1
40
1
40
1
40
1
10
539.46373900000003
20
279.450579
30
0
10
540.40263800000002
20
279.450579
30
0
10
541.16373699999997
20
280.21167800000001
30
0
10
541.16373699999997
20
281.150576
30
0
0
SPLINE
5
231
100
AcDbEntity
8
0
100
AcDbSpline
70
0
71
3
72
8
73
4
74
0
42
0.000000001
43
0.0000000001
44
0.0000000001
40
0
40
0
40
0
40
0
40
1
40
1
40
1
40
1
10
498.90009700000002
20
313.11030299999999
30
0
10
497.84568100000001
20
312.05591400000003
30
0
10
496.13615900000002
20
312.05591400000003
30
0
10
495.08174300000002
20
313.11032899999998
30
0
0
SPLINE
5
232
100
AcDbEntity
8
0
100
AcDbSpline
70
0
71
3
72
8
73
4
74
0
42
0.000000001
43
0.0000000001
44
0.0000000001
40
0
40
0
40
0
40
0
40
1
40
1
40
1
40
1
10
525.34655199999997
20
158.628198
30
0
10
525.34655199999997
20
160.94776899999999
30
0
10
527.22696900000005
20
162.82818500000002
30
0
10
529.54654000000005
20
162.82818500000002
30
0
0
SPLINE
5
233
100
AcDbEntity
8
0
100
AcDbSpline
70
0
71
3
72
8
73
4
74
0
42
0.000000001
43
0.0000000001
44
0.0000000001
40
0
40
0
40
0
40
0
40
1
40
1
40
1
40
1
10
529.54654000000005
20
162.82818500000002
30
0
10
531.86616399999991
20
162.82818500000002
30
0
10
533.74652800000013
20
160.94776899999999
30
0
10
533.74652800000013
20
158.628198
30
0
0
SPLINE
5
234
100
AcDbEntity
8
0
100
AcDbSpline
70
0
71
3
72
8
73
4
74
0
42
0.000000001
43
0.0000000001
44
0.0000000001
40
0
40
0
40
0
40
0
40
1
40
1
40
1
40
1
10
456.85330899999997
20
78.563054000000008
30
0
10
454.53371100000004
20
78.563054000000008
30
0
10
452.65332100000001
20
76.682664000000003
30
0
10
452.65332100000001
20
74.363039999999998
30
0
0
SPLINE
5
235
100
AcDbEntity
8
0
100
AcDbSpline
70
0
71
3
72
8
73
4
74
0
42
0.000000001
43
0.0000000001
44
0.0000000001
40
0
40
0
40
0
40
0
40
1
40
1
40
1
40
1
10
533.84439700000007
20
135.28987599999999
30
0
10
533.37494800000002
20
134.47676000000001
30
0
10
532.33524299999999
20
134.19815400000002
30
0
10
531.52217999999993
20
134.66760300000001
30
0
0
SPLINE
5
236
100
AcDbEntity
8
0
100
AcDbSpline
70
0
71
3
72
8
73
4
74
0
42
0.000000001
43
0.0000000001
44
0.0000000001
40
0
40
0
40
0
40
0
40
1
40
1
40
1
40
1
10
533.74652800000013
20
158.628198
30
0
10
533.74652800000013
20
156.30860000000001
30
0
10
531.86616399999991
20
154.42821000000004
30
0
10
529.54654000000005
20
154.42821000000004
30
0
0
SPLINE
5
237
100
AcDbEntity
8
0
100
AcDbSpline
70
0
71
3
72
8
73
4
74
0
42
0.000000001
43
0.0000000001
44
0.0000000001
40
0
40
0
40
0
40
0
40
1
40
1
40
1
40
1
10
530.89990699999998
20
136.98987299999999
30
0
10
531.36935700000004
20
137.80293600000002
30
0
10
532.40906100000007
20
138.08154199999998
30
0
10
533.22217699999999
20
137.61209299999999
30
0
0
SPLINE
5
238
100
AcDbEntity
8
0
100
AcDbSpline
70
0
71
3
72
8
73
4
74
0
42
0.000000001
43
0.0000000001
44
0.0000000001
40
0
40
0
40
0
40
0
40
1
40
1
40
1
40
1
10
529.54654000000005
20
107.828295
30
0
10
531.86616399999991
20
107.828295
30
0
10
533.74652800000013
20
105.947879
30
0
10
533.74652800000013
20
103.62830799999999
30
0
0
SPLINE
5
239
100
AcDbEntity
8
0
100
AcDbSpline
70
0
71
3
72
8
73
4
74
0
42
0.000000001
43
0.0000000001
44
0.0000000001
40
0
40
0
40
0
40
0
40
1
40
1
40
1
40
1
10
461.05329699999999
20
154.362911
30
0
10
461.05329699999999
20
152.04331300000001
30
0
10
459.17287999999996
20
150.16292300000001
30
0
10
456.85330899999997
20
150.16292300000001
30
0
0
SPLINE
5
240
100
AcDbEntity
8
0
100
AcDbSpline
70
0
71
3
72
8
73
4
74
0
42
0.000000001
43
0.0000000001
44
0.0000000001
40
0
40
0
40
0
40
0
40
1
40
1
40
1
40
1
10
461.05329699999999
20
74.363039999999998
30
0
10
461.05329699999999
20
76.682664000000003
30
0
10
459.17287999999996
20
78.563054000000008
30
0
10
456.85330899999997
20
78.563054000000008
30
0
0
SPLINE
5
241
100
AcDbEntity
8
0
100
AcDbSpline
70
0
71
3
72
8
73
4
74
0
42
0.000000001
43
0.0000000001
44
0.0000000001
40
0
40
0
40
0
40
0
40
1
40
1
40
1
40
1
10
531.52217999999993
20
134.66760300000001
30
0
10
530.70906400000001
20
135.137079
30
0
10
530.43045800000004
20
136.17675700000001
30
0
10
530.89990699999998
20
136.98987299999999
30
0
0
SPLINE
5
242
100
AcDbEntity
8
0
100
AcDbSpline
70
0
71
3
72
8
73
4
74
0
42
0.000000001
43
0.0000000001
44
0.0000000001
40
0
40
0
40
0
40
0
40
1
40
1
40
1
40
1
10
533.22217699999999
20
137.61209299999999
30
0
10
534.03524000000004
20
137.14264399999999
30
0
10
534.31384600000001
20
136.10293899999999
30
0
10
533.84439700000007
20
135.28987599999999
30
0
0
SPLINE
5
243
100
AcDbEntity
8
0
100
AcDbSpline
70
0
71
3
72
8
73
4
74
0
42
0.000000001
43
0.0000000001
44
0.0000000001
40
0
40
0
40
0
40
0
40
1
40
1
40
1
40
1
10
529.54654000000005
20
154.42821000000004
30
0
10
527.22696900000005
20
154.42821000000004
30
0
10
525.34655199999997
20
156.30860000000001
30
0
10
525.34655199999997
20
158.628198
30
0
0
SPLINE
5
244
100
AcDbEntity
8
0
100
AcDbSpline
70
0
71
3
72
8
73
4
74
0
42
0.000000001
43
0.0000000001
44
0.0000000001
40
0
40
0
40
0
40
0
40
1
40
1
40
1
40
1
10
456.85330899999997
20
158.56289799999999
30
0
10
459.17287999999996
20
158.56289799999999
30
0
10
461.05329699999999
20
156.68248199999999
30
0
10
461.05329699999999
20
154.362911
30
0
0
SPLINE
5
245
100
AcDbEntity
8
0
100
AcDbSpline
70
0
71
3
72
8
73
4
74
0
42
0.000000001
43
0.0000000001
44
0.0000000001
40
0
40
0
40
0
40
0
40
1
40
1
40
1
40
1
10
456.85330899999997
20
150.16292300000001
30
0
10
454.53371100000004
20
150.16292300000001
30
0
10
452.65332100000001
20
152.04331300000001
30
0
10
452.65332100000001
20
154.362911
30
0
0
SPLINE
5
246
100
AcDbEntity
8
0
100
AcDbSpline
70
0
71
3
72
8
73
4
74
0
42
0.000000001
43
0.0000000001
44
0.0000000001
40
0
40
0
40
0
40
0
40
1
40
1
40
1
40
1
10
456.85330899999997
20
70.163052000000022
30
0
10
459.17287999999996
20
70.163052000000022
30
0
10
461.05329699999999
20
72.043468999999988
30
0
10
461.05329699999999
20
74.363039999999998
30
0
0
SPLINE
5
247
100
AcDbEntity
8
0
100
AcDbSpline
70
0
71
3
72
8
73
4
74
0
42
0.000000001
43
0.0000000001
44
0.0000000001
40
0
40
0
40
0
40
0
40
1
40
1
40
1
40
1
10
525.34655199999997
20
103.62830799999999
30
0
10
525.34655199999997
20
105.947879
30
0
10
527.22696900000005
20
107.828295
30
0
10
529.54654000000005
20
107.828295
30
0
0
SPLINE
5
248
100
AcDbEntity
8
0
100
AcDbSpline
70
0
71
3
72
8
73
4
74
0
42
0.000000001
43
0.0000000001
44
0.0000000001
40
0
40
0
40
0
40
0
40
1
40
1
40
1
40
1
10
452.65332100000001
20
154.362911
30
0
10
452.65332100000001
20
156.68248199999999
30
0
10
454.53371100000004
20
158.56289799999999
30
0
10
456.85330899999997
20
158.56289799999999
30
0
0
SPLINE
5
249
100
AcDbEntity
8
0
100
AcDbSpline
70
0
71
3
72
8
73
4
74
0
42
0.000000001
43
0.0000000001
44
0.0000000001
40
0
40
0
40
0
40
0
40
1
40
1
40
1
40
1
10
533.74652800000013
20
103.62830799999999
30
0
10
533.74652800000013
20
101.30870999999999
30
0
10
531.86616399999991
20
99.428320000000014
30
0
10
529.54654000000005
20
99.428320000000014
30
0
0
SPLINE
5
250
100
AcDbEntity
8
0
100
AcDbSpline
70
0
71
3
72
8
73
4
74
0
42
0.000000001
43
0.0000000001
44
0.0000000001
40
0
40
0
40
0
40
0
40
1
40
1
40
1
40
1
10
473.09078300000004
20
291.11934300000001
30
0
10
474.1451990000001
20
290.06492700000001
30
0
10
474.14517200000006
20
288.35537799999997
30
0
10
473.09075700000005
20
287.30096300000002
30
0
0
SPLINE
5
251
100
AcDbEntity
8
0
100
AcDbSpline
70
0
71
3
72
8
73
4
74
0
42
0.000000001
43
0.0000000001
44
0.0000000001
40
0
40
0
40
0
40
0
40
1
40
1
40
1
40
1
10
473.09075700000005
20
287.30096300000002
30
0
10
472.03634099999999
20
286.24657400000001
30
0
10
470.32681900000006
20
286.24657400000001
30
0
10
469.27240300000005
20
287.30098900000002
30
0
0
SPLINE
5
252
100
AcDbEntity
8
0
100
AcDbSpline
70
0
71
3
72
8
73
4
74
0
42
0.000000001
43
0.0000000001
44
0.0000000001
40
0
40
0
40
0
40
0
40
1
40
1
40
1
40
1
10
479.88622300000003
20
302.11484900000005
30
0
10
479.88622300000003
20
304.43442000000005
30
0
10
481.76663899999994
20
306.31483700000001
30
0
10
484.08620999999994
20
306.31483700000001
30
0
0
SPLINE
5
253
100
AcDbEntity
8
0
100
AcDbSpline
70
0
71
3
72
8
73
4
74
0
42
0.000000001
43
0.0000000001
44
0.0000000001
40
0
40
0
40
0
40
0
40
1
40
1
40
1
40
1
10
541.16373699999997
20
281.150576
30
0
10
541.16373699999997
20
282.089448
30
0
10
540.40263800000002
20
282.85057399999999
30
0
10
539.46373900000003
20
282.85057399999999
30
0
0
SPLINE
5
254
100
AcDbEntity
8
0
100
AcDbSpline
70
0
71
3
72
8
73
4
74
0
42
0.000000001
43
0.0000000001
44
0.0000000001
40
0
40
0
40
0
40
0
40
1
40
1
40
1
40
1
10
469.27243000000004
20
291.11936900000001
30
0
10
470.32684500000005
20
292.17375800000002
30
0
10
472.03636799999998
20
292.17375800000002
30
0
10
473.09078300000004
20
291.11934300000001
30
0
0
SPLINE
5
255
100
AcDbEntity
8
0
100
AcDbSpline
70
0
71
3
72
8
73
4
74
0
42
0.000000001
43
0.0000000001
44
0.0000000001
40
0
40
0
40
0
40
0
40
1
40
1
40
1
40
1
10
484.08620999999994
20
297.91486099999997
30
0
10
481.76663899999994
20
297.91486099999997
30
0
10
479.88622300000003
20
299.795252
30
0
10
479.88622300000003
20
302.11484900000005
30
0
0
SPLINE
5
256
100
AcDbEntity
8
0
100
AcDbSpline
70
0
71
3
72
8
73
4
74
0
42
0.000000001
43
0.0000000001
44
0.0000000001
40
0
40
0
40
0
40
0
40
1
40
1
40
1
40
1
10
495.08177000000001
20
316.92873600000001
30
0
10
496.13618500000001
20
317.98309799999998
30
0
10
497.84570800000006
20
317.98309799999998
30
0
10
498.90012300000012
20
316.92868300000004
30
0
0
SPLINE
5
257
100
AcDbEntity
8
0
100
AcDbSpline
70
0
71
3
72
8
73
4
74
0
42
0.000000001
43
0.0000000001
44
0.0000000001
40
0
40
0
40
0
40
0
40
1
40
1
40
1
40
1
10
456.85330899999997
20
253.70161600000003
30
0
10
457.79218100000003
20
253.70161600000003
30
0
10
458.55330600000002
20
254.46274200000002
30
0
10
458.55330600000002
20
255.40161400000002
30
0
0
SPLINE
5
258
100
AcDbEntity
8
0
100
AcDbSpline
70
0
71
3
72
8
73
4
74
0
42
0.000000001
43
0.0000000001
44
0.0000000001
40
0
40
0
40
0
40
0
40
1
40
1
40
1
40
1
10
484.08620999999994
20
306.31483700000001
30
0
10
486.40583399999997
20
306.31483700000001
30
0
10
488.286224
20
304.43442000000005
30
0
10
488.286224
20
302.11484900000005
30
0
0
SPLINE
5
259
100
AcDbEntity
8
0
100
AcDbSpline
70
0
71
3
72
8
73
4
74
0
42
0.000000001
43
0.0000000001
44
0.0000000001
40
0
40
0
40
0
40
0
40
1
40
1
40
1
40
1
10
458.55330600000002
20
255.40161400000002
30
0
10
458.55330600000002
20
256.340486
30
0
10
457.79218100000003
20
257.10161200000005
30
0
10
456.85330899999997
20
257.10161200000005
30
0
0
SPLINE
5
260
100
AcDbEntity
8
0
100
AcDbSpline
70
0
71
3
72
8
73
4
74
0
42
0.000000001
43
0.0000000001
44
0.0000000001
40
0
40
0
40
0
40
0
40
1
40
1
40
1
40
1
10
455.15331100000003
20
255.40161400000002
30
0
10
455.15331100000003
20
254.46274200000002
30
0
10
455.91441000000003
20
253.70161600000003
30
0
10
456.85330899999997
20
253.70161600000003
30
0
0
SPLINE
5
261
100
AcDbEntity
8
0
100
AcDbSpline
70
0
71
3
72
8
73
4
74
0
42
0.000000001
43
0.0000000001
44
0.0000000001
40
0
40
0
40
0
40
0
40
1
40
1
40
1
40
1
10
488.286224
20
302.11484900000005
30
0
10
488.286224
20
299.795252
30
0
10
486.40583399999997
20
297.91486099999997
30
0
10
484.08620999999994
20
297.91486099999997
30
0
0
SPLINE
5
262
100
AcDbEntity
8
0
100
AcDbSpline
70
0
71
3
72
8
73
4
74
0
42
0.000000001
43
0.0000000001
44
0.0000000001
40
0
40
0
40
0
40
0
40
1
40
1
40
1
40
1
10
455.15331100000003
20
305.401523
30
0
10
455.15331100000003
20
306.340396
30
0
10
455.91441000000003
20
307.10152100000005
30
0
10
456.85330899999997
20
307.10152100000005
30
0
0
SPLINE
5
263
100
AcDbEntity
8
0
100
AcDbSpline
70
0
71
3
72
8
73
4
74
0
42
0.000000001
43
0.0000000001
44
0.0000000001
40
0
40
0
40
0
40
0
40
1
40
1
40
1
40
1
10
498.90012300000012
20
316.92868300000004
30
0
10
499.95453900000001
20
315.87426699999997
30
0
10
499.95451200000002
20
314.16471799999999
30
0
10
498.90009700000002
20
313.11030299999999
30
0
0
SPLINE
5
264
100
AcDbEntity
8
0
100
AcDbSpline
70
0
71
3
72
8
73
4
74
0
42
0.000000001
43
0.0000000001
44
0.0000000001
40
0
40
0
40
0
40
0
40
1
40
1
40
1
40
1
10
456.85330899999997
20
257.10161200000005
30
0
10
455.91441000000003
20
257.10161200000005
30
0
10
455.15331100000003
20
256.340486
30
0
10
455.15331100000003
20
255.40161400000002
30
0
0
SPLINE
5
265
100
AcDbEntity
8
0
100
AcDbSpline
70
0
71
3
72
8
73
4
74
0
42
0.000000001
43
0.0000000001
44
0.0000000001
40
0
40
0
40
0
40
0
40
1
40
1
40
1
40
1
10
469.27240300000005
20
287.30098900000002
30
0
10
468.21798800000005
20
288.35540499999996
30
0
10
468.21798800000005
20
290.064954
30
0
10
469.27243000000004
20
291.11936900000001
30
0
0
SPLINE
5
266
100
AcDbEntity
8
0
100
AcDbSpline
70
0
71
3
72
8
73
4
74
0
42
0.000000001
43
0.0000000001
44
0.0000000001
40
0
40
0
40
0
40
0
40
1
40
1
40
1
40
1
10
495.08174300000002
20
313.11032899999998
30
0
10
494.02732800000001
20
314.16474500000004
30
0
10
494.02732800000001
20
315.87432000000001
30
0
10
495.08177000000001
20
316.92873600000001
30
0
0
SPLINE
5
267
100
AcDbEntity
8
0
100
AcDbSpline
70
0
71
3
72
8
73
4
74
0
42
0.000000001
43
0.0000000001
44
0.0000000001
40
0
40
0
40
0
40
0
40
1
40
1
40
1
40
1
10
456.85330899999997
20
325.58009100000004
30
0
10
459.17287999999996
20
325.58009100000004
30
0
10
461.05329699999999
20
323.69967500000001
30
0
10
461.05329699999999
20
321.38010400000007
30
0
0
SPLINE
5
268
100
AcDbEntity
8
0
100
AcDbSpline
70
0
71
3
72
8
73
4
74
0
42
0.000000001
43
0.0000000001
44
0.0000000001
40
0
40
0
40
0
40
0
40
1
40
1
40
1
40
1
10
461.05329699999999
20
321.38010400000007
30
0
10
461.05329699999999
20
319.06053199999997
30
0
10
459.17287999999996
20
317.180116
30
0
10
456.85330899999997
20
317.180116
30
0
0
SPLINE
5
269
100
AcDbEntity
8
0
100
AcDbSpline
70
0
71
3
72
8
73
4
74
0
42
0.000000001
43
0.0000000001
44
0.0000000001
40
0
40
0
40
0
40
0
40
1
40
1
40
1
40
1
10
488.83314400000012
20
238.61513000000002
30
0
10
488.83314400000012
20
240.10629300000005
30
0
10
487.62431800000002
20
241.31514500000006
30
0
10
486.13315499999999
20
241.31514500000006
30
0
0
SPLINE
5
270
100
AcDbEntity
8
0
100
AcDbSpline
70
0
71
3
72
8
73
4
74
0
42
0.000000001
43
0.0000000001
44
0.0000000001
40
0
40
0
40
0
40
0
40
1
40
1
40
1
40
1
10
513.13306499999999
20
235.91498300000001
30
0
10
514.62425400000006
20
235.91495699999999
30
0
10
515.83308
20
237.123783
30
0
10
515.83308
20
238.61491900000001
30
0
0
SPLINE
5
271
100
AcDbEntity
8
0
100
AcDbSpline
70
0
71
3
72
8
73
4
74
0
42
0.000000001
43
0.0000000001
44
0.0000000001
40
0
40
0
40
0
40
0
40
1
40
1
40
1
40
1
10
486.13312900000005
20
235.91516800000005
30
0
10
487.62429100000008
20
235.91516800000005
30
0
10
488.83314400000012
20
237.12399500000004
30
0
10
488.83314400000012
20
238.61513000000002
30
0
0
SPLINE
5
272
100
AcDbEntity
8
0
100
AcDbSpline
70
0
71
3
72
8
73
4
74
0
42
0.000000001
43
0.0000000001
44
0.0000000001
40
0
40
0
40
0
40
0
40
1
40
1
40
1
40
1
10
513.13309200000003
20
241.31493399999999
30
0
10
511.64195599999999
20
241.314986
30
0
10
510.43313000000006
20
240.10616000000002
30
0
10
510.43307700000003
20
238.61497200000002
30
0
0
SPLINE
5
273
100
AcDbEntity
8
0
100
AcDbSpline
70
0
71
3
72
8
73
4
74
0
42
0.000000001
43
0.0000000001
44
0.0000000001
40
0
40
0
40
0
40
0
40
1
40
1
40
1
40
1
10
510.43307700000003
20
238.61497200000002
30
0
10
510.43307700000003
20
237.12380899999999
30
0
10
511.64190300000001
20
235.91498300000001
30
0
10
513.13306499999999
20
235.91498300000001
30
0
0
SPLINE
5
274
100
AcDbEntity
8
0
100
AcDbSpline
70
0
71
3
72
8
73
4
74
0
42
0.000000001
43
0.0000000001
44
0.0000000001
40
0
40
0
40
0
40
0
40
1
40
1
40
1
40
1
10
515.83308
20
280.61487499999998
30
0
10
515.83308
20
282.10603800000001
30
0
10
514.62428
20
283.31486400000006
30
0
10
513.13309200000003
20
283.31488999999999
30
0
0
SPLINE
5
275
100
AcDbEntity
8
0
100
AcDbSpline
70
0
71
3
72
8
73
4
74
0
42
0.000000001
43
0.0000000001
44
0.0000000001
40
0
40
0
40
0
40
0
40
1
40
1
40
1
40
1
10
513.13306499999999
20
277.91488700000002
30
0
10
514.62425400000006
20
277.91486099999997
30
0
10
515.83308
20
279.12368700000002
30
0
10
515.83308
20
280.61487499999998
30
0
0
SPLINE
5
276
100
AcDbEntity
8
0
100
AcDbSpline
70
0
71
3
72
8
73
4
74
0
42
0.000000001
43
0.0000000001
44
0.0000000001
40
0
40
0
40
0
40
0
40
1
40
1
40
1
40
1
10
486.13315499999999
20
241.31514500000006
30
0
10
484.64201900000006
20
241.31514500000006
30
0
10
483.43314000000009
20
240.10631899999998
30
0
10
483.43314000000009
20
238.615183
30
0
0
SPLINE
5
277
100
AcDbEntity
8
0
100
AcDbSpline
70
0
71
3
72
8
73
4
74
0
42
0.000000001
43
0.0000000001
44
0.0000000001
40
0
40
0
40
0
40
0
40
1
40
1
40
1
40
1
10
483.43314000000009
20
280.61508700000002
30
0
10
483.43314000000009
20
279.12392499999999
30
0
10
484.64196600000008
20
277.915099
30
0
10
486.13312900000005
20
277.91507200000001
30
0
0
SPLINE
5
278
100
AcDbEntity
8
0
100
AcDbSpline
70
0
71
3
72
8
73
4
74
0
42
0.000000001
43
0.0000000001
44
0.0000000001
40
0
40
0
40
0
40
0
40
1
40
1
40
1
40
1
10
456.85330899999997
20
303.701526
30
0
10
455.91441000000003
20
303.701526
30
0
10
455.15331100000003
20
304.46265099999999
30
0
10
455.15331100000003
20
305.401523
30
0
0
SPLINE
5
279
100
AcDbEntity
8
0
100
AcDbSpline
70
0
71
3
72
8
73
4
74
0
42
0.000000001
43
0.0000000001
44
0.0000000001
40
0
40
0
40
0
40
0
40
1
40
1
40
1
40
1
10
486.13315499999999
20
283.31507499999998
30
0
10
484.64201900000006
20
283.31507499999998
30
0
10
483.43314000000009
20
282.10627599999998
30
0
10
483.43314000000009
20
280.61508700000002
30
0
0
SPLINE
5
280
100
AcDbEntity
8
0
100
AcDbSpline
70
0
71
3
72
8
73
4
74
0
42
0.000000001
43
0.0000000001
44
0.0000000001
40
0
40
0
40
0
40
0
40
1
40
1
40
1
40
1
10
529.54654000000005
20
232.91495800000004
30
0
10
531.86616399999991
20
232.91495800000004
30
0
10
533.74652800000013
20
234.79537500000004
30
0
10
533.74652800000013
20
237.11494600000003
30
0
0
SPLINE
5
281
100
AcDbEntity
8
0
100
AcDbSpline
70
0
71
3
72
8
73
4
74
0
42
0.000000001
43
0.0000000001
44
0.0000000001
40
0
40
0
40
0
40
0
40
1
40
1
40
1
40
1
10
533.74652800000013
20
237.11494600000003
30
0
10
533.74652800000013
20
239.43457000000001
30
0
10
531.86616399999991
20
241.31493399999999
30
0
10
529.54654000000005
20
241.31493399999999
30
0
0
SPLINE
5
282
100
AcDbEntity
8
0
100
AcDbSpline
70
0
71
3
72
8
73
4
74
0
42
0.000000001
43
0.0000000001
44
0.0000000001
40
0
40
0
40
0
40
0
40
1
40
1
40
1
40
1
10
529.54654000000005
20
241.31493399999999
30
0
10
527.22696900000005
20
241.31493399999999
30
0
10
525.34655199999997
20
239.43457000000001
30
0
10
525.34655199999997
20
237.11494600000003
30
0
0
SPLINE
5
283
100
AcDbEntity
8
0
100
AcDbSpline
70
0
71
3
72
8
73
4
74
0
42
0.000000001
43
0.0000000001
44
0.0000000001
40
0
40
0
40
0
40
0
40
1
40
1
40
1
40
1
10
486.13312900000005
20
277.91507200000001
30
0
10
487.62429100000008
20
277.91507200000001
30
0
10
488.83314400000012
20
279.123898
30
0
10
488.83314400000012
20
280.61506099999997
30
0
0
SPLINE
5
284
100
AcDbEntity
8
0
100
AcDbSpline
70
0
71
3
72
8
73
4
74
0
42
0.000000001
43
0.0000000001
44
0.0000000001
40
0
40
0
40
0
40
0
40
1
40
1
40
1
40
1
10
533.74652800000013
20
292.11483599999997
30
0
10
533.74652800000013
20
294.43446
30
0
10
531.86616399999991
20
296.31487600000003
30
0
10
529.54654000000005
20
296.31487600000003
30
0
0
SPLINE
5
285
100
AcDbEntity
8
0
100
AcDbSpline
70
0
71
3
72
8
73
4
74
0
42
0.000000001
43
0.0000000001
44
0.0000000001
40
0
40
0
40
0
40
0
40
1
40
1
40
1
40
1
10
515.83308
20
238.61491900000001
30
0
10
515.83308
20
240.10610800000001
30
0
10
514.62428
20
241.31493399999999
30
0
10
513.13309200000003
20
241.31493399999999
30
0
0
SPLINE
5
286
100
AcDbEntity
8
0
100
AcDbSpline
70
0
71
3
72
8
73
4
74
0
42
0.000000001
43
0.0000000001
44
0.0000000001
40
0
40
0
40
0
40
0
40
1
40
1
40
1
40
1
10
458.55330600000002
20
305.401523
30
0
10
458.55330600000002
20
304.46265099999999
30
0
10
457.79218100000003
20
303.701526
30
0
10
456.85330899999997
20
303.701526
30
0
0
SPLINE
5
287
100
AcDbEntity
8
0
100
AcDbSpline
70
0
71
3
72
8
73
4
74
0
42
0.000000001
43
0.0000000001
44
0.0000000001
40
0
40
0
40
0
40
0
40
1
40
1
40
1
40
1
10
456.85330899999997
20
307.10152100000005
30
0
10
457.79218100000003
20
307.10152100000005
30
0
10
458.55330600000002
20
306.340396
30
0
10
458.55330600000002
20
305.401523
30
0
0
SPLINE
5
288
100
AcDbEntity
8
0
100
AcDbSpline
70
0
71
3
72
8
73
4
74
0
42
0.000000001
43
0.0000000001
44
0.0000000001
40
0
40
0
40
0
40
0
40
1
40
1
40
1
40
1
10
513.13309200000003
20
283.31488999999999
30
0
10
511.64195599999999
20
283.31488999999999
30
0
10
510.43313000000006
20
282.10606400000006
30
0
10
510.43307700000003
20
280.61490200000003
30
0
0
SPLINE
5
289
100
AcDbEntity
8
0
100
AcDbSpline
70
0
71
3
72
8
73
4
74
0
42
0.000000001
43
0.0000000001
44
0.0000000001
40
0
40
0
40
0
40
0
40
1
40
1
40
1
40
1
10
510.43307700000003
20
280.61490200000003
30
0
10
510.43307700000003
20
279.12371300000007
30
0
10
511.64190300000001
20
277.91488700000002
30
0
10
513.13306499999999
20
277.91488700000002
30
0
0
SPLINE
5
290
100
AcDbEntity
8
0
100
AcDbSpline
70
0
71
3
72
8
73
4
74
0
42
0.000000001
43
0.0000000001
44
0.0000000001
40
0
40
0
40
0
40
0
40
1
40
1
40
1
40
1
10
483.43314000000009
20
238.615183
30
0
10
483.43314000000009
20
237.12402100000003
30
0
10
484.64196600000008
20
235.91516800000005
30
0
10
486.13312900000005
20
235.91516800000005
30
0
0
SPLINE
5
291
100
AcDbEntity
8
0
100
AcDbSpline
70
0
71
3
72
8
73
4
74
0
42
0.000000001
43
0.0000000001
44
0.0000000001
40
0
40
0
40
0
40
0
40
1
40
1
40
1
40
1
10
488.83314400000012
20
280.61506099999997
30
0
10
488.83314400000012
20
282.10624900000005
30
0
10
487.62431800000002
20
283.31507499999998
30
0
10
486.13315499999999
20
283.31507499999998
30
0
0
SPLINE
5
292
100
AcDbEntity
8
0
100
AcDbSpline
70
0
71
3
72
8
73
4
74
0
42
0.000000001
43
0.0000000001
44
0.0000000001
40
0
40
0
40
0
40
0
40
1
40
1
40
1
40
1
10
525.34655199999997
20
237.11494600000003
30
0
10
525.34655199999997
20
234.79537500000004
30
0
10
527.22696900000005
20
232.91495800000004
30
0
10
529.54654000000005
20
232.91495800000004
30
0
0
SPLINE
5
293
100
AcDbEntity
8
0
100
AcDbSpline
70
0
71
3
72
8
73
4
74
0
42
0.000000001
43
0.0000000001
44
0.0000000001
40
0
40
0
40
0
40
0
40
1
40
1
40
1
40
1
10
529.54654000000005
20
287.91484800000001
30
0
10
531.86616399999991
20
287.91484800000001
30
0
10
533.74652800000013
20
289.79526400000003
30
0
10
533.74652800000013
20
292.11483599999997
30
0
0
SPLINE
5
294
100
AcDbEntity
8
0
100
AcDbSpline
70
0
71
3
72
8
73
4
74
0
42
0.000000001
43
0.0000000001
44
0.0000000001
40
0
40
0
40
0
40
0
40
1
40
1
40
1
40
1
10
529.54654000000005
20
296.31487600000003
30
0
10
527.22696900000005
20
296.31487600000003
30
0
10
525.34655199999997
20
294.43446
30
0
10
525.34655199999997
20
292.11483599999997
30
0
0
SPLINE
5
295
100
AcDbEntity
8
0
100
AcDbSpline
70
0
71
3
72
8
73
4
74
0
42
0.000000001
43
0.0000000001
44
0.0000000001
40
0
40
0
40
0
40
0
40
1
40
1
40
1
40
1
10
456.85330899999997
20
317.180116
30
0
10
454.53371100000004
20
317.180116
30
0
10
452.65332100000001
20
319.06053199999997
30
0
10
452.65332100000001
20
321.38010400000007
30
0
0
SPLINE
5
296
100
AcDbEntity
8
0
100
AcDbSpline
70
0
71
3
72
8
73
4
74
0
42
0.000000001
43
0.0000000001
44
0.0000000001
40
0
40
0
40
0
40
0
40
1
40
1
40
1
40
1
10
525.34655199999997
20
292.11483599999997
30
0
10
525.34655199999997
20
289.79526400000003
30
0
10
527.22696900000005
20
287.91484800000001
30
0
10
529.54654000000005
20
287.91484800000001
30
0
0
SPLINE
5
297
100
AcDbEntity
8
0
100
AcDbSpline
70
0
71
3
72
8
73
4
74
0
42
0.000000001
43
0.0000000001
44
0.0000000001
40
0
40
0
40
0
40
0
40
1
40
1
40
1
40
1
10
456.85330899999997
20
245.58022000000005
30
0
10
454.53371100000004
20
245.58022000000005
30
0
10
452.65332100000001
20
243.69985700000001
30
0
10
452.65332100000001
20
241.380233
30
0
0
LINE
5
298
100
AcDbEntity
8
0
100
AcDbLine
10
482.023549
20
189.87299500000003
30
0
11
482.023549
21
194.872975
31
0
0
LINE
5
299
100
AcDbEntity
8
0
100
AcDbLine
10
531.69013700000005
20
189.87299500000003
30
0
11
510.02350300000001
21
189.87299500000003
31
0
0
LINE
5
300
100
AcDbEntity
8
0
100
AcDbLine
10
460.35694100000001
20
189.87299500000003
30
0
11
482.023549
21
189.87299500000003
31
0
0
LINE
5
301
100
AcDbEntity
8
0
100
AcDbLine
10
369.69043999999997
20
109.873124
30
0
11
364.69046000000003
21
109.873124
31
0
0
LINE
5
302
100
AcDbEntity
8
0
100
AcDbLine
10
382.690426
20
49.873253999999996
30
0
11
382.690426
21
44.873272999999998
31
0
0
LINE
5
303
100
AcDbEntity
8
0
100
AcDbLine
10
460.35694100000001
20
49.873253999999996
30
0
11
482.023549
21
49.873253999999996
31
0
0
LINE
5
304
100
AcDbEntity
8
0
100
AcDbLine
10
432.356987
20
49.873253999999996
30
0
11
432.356987
21
44.873272999999998
31
0
0
LINE
5
305
100
AcDbEntity
8
0
100
AcDbLine
10
531.69013700000005
20
194.872975
30
0
11
566.69005199999992
21
194.872975
31
0
0
SPLINE
5
306
100
AcDbEntity
8
0
100
AcDbSpline
70
0
71
3
72
8
73
4
74
0
42
0.000000001
43
0.0000000001
44
0.0000000001
40
0
40
0
40
0
40
0
40
1
40
1
40
1
40
1
10
452.65332100000001
20
241.380233
30
0
10
452.65332100000001
20
239.06066100000001
30
0
10
454.53371100000004
20
237.18024500000001
30
0
10
456.85330899999997
20
237.18024500000001
30
0
0
LINE
5
307
100
AcDbEntity
8
0
100
AcDbLine
10
359.69047899999998
20
189.87299500000003
30
0
11
382.690426
21
189.87299500000003
31
0
0
SPLINE
5
308
100
AcDbEntity
8
0
100
AcDbSpline
70
0
71
3
72
8
73
4
74
0
42
0.000000001
43
0.0000000001
44
0.0000000001
40
0
40
0
40
0
40
0
40
1
40
1
40
1
40
1
10
456.85330899999997
20
237.18024500000001
30
0
10
459.17287999999996
20
237.18024500000001
30
0
10
461.05329699999999
20
239.06066100000001
30
0
10
461.05329699999999
20
241.380233
30
0
0
LINE
5
309
100
AcDbEntity
8
0
100
AcDbLine
10
531.69013700000005
20
194.872975
30
0
11
531.69013700000005
21
189.87299500000003
31
0
0
LINE
5
310
100
AcDbEntity
8
0
100
AcDbLine
10
460.35694100000001
20
194.872975
30
0
11
460.35694100000001
21
189.87299500000003
31
0
0
LINE
5
311
100
AcDbEntity
8
0
100
AcDbLine
10
382.690426
20
44.873272999999998
30
0
11
410.69037900000006
21
44.873272999999998
31
0
0
LINE
5
312
100
AcDbEntity
8
0
100
AcDbLine
10
410.69037900000006
20
194.872975
30
0
11
382.690426
21
194.872975
31
0
0
LINE
5
313
100
AcDbEntity
8
0
100
AcDbLine
10
359.69047899999998
20
49.873253999999996
30
0
11
359.69047899999998
21
64.873221000000001
31
0
0
SPLINE
5
314
100
AcDbEntity
8
0
100
AcDbSpline
70
0
71
3
72
8
73
4
74
0
42
0.000000001
43
0.0000000001
44
0.0000000001
40
0
40
0
40
0
40
0
40
1
40
1
40
1
40
1
10
452.65332100000001
20
321.38010400000007
30
0
10
452.65332100000001
20
323.69967500000001
30
0
10
454.53371100000004
20
325.58009100000004
30
0
10
456.85330899999997
20
325.58009100000004
30
0
0
LINE
5
315
100
AcDbEntity
8
0
100
AcDbLine
10
364.69046000000003
20
139.873085
30
0
11
369.69043999999997
21
139.873085
31
0
0
LINE
5
316
100
AcDbEntity
8
0
100
AcDbLine
10
482.023549
20
44.873272999999998
30
0
11
510.02350300000001
21
44.873272999999998
31
0
0
SPLINE
5
317
100
AcDbEntity
8
0
100
AcDbSpline
70
0
71
3
72
8
73
4
74
0
42
0.000000001
43
0.0000000001
44
0.0000000001
40
0
40
0
40
0
40
0
40
1
40
1
40
1
40
1
10
461.05329699999999
20
241.380233
30
0
10
461.05329699999999
20
243.69985700000001
30
0
10
459.17287999999996
20
245.58022000000005
30
0
10
456.85330899999997
20
245.58022000000005
30
0
0
LINE
5
318
100
AcDbEntity
8
0
100
AcDbLine
10
410.69037900000006
20
194.872975
30
0
11
410.69037900000006
21
189.87299500000003
31
0
0
LINE
5
319
100
AcDbEntity
8
0
100
AcDbLine
10
510.02350300000001
20
194.872975
30
0
11
510.02350300000001
21
189.87299500000003
31
0
0
LINE
5
320
100
AcDbEntity
8
0
100
AcDbLine
10
482.023549
20
194.872975
30
0
11
510.02350300000001
21
194.872975
31
0
0
LINE
5
321
100
AcDbEntity
8
0
100
AcDbLine
10
432.356987
20
189.87299500000003
30
0
11
432.356987
21
194.872975
31
0
0
LINE
5
322
100
AcDbEntity
8
0
100
AcDbLine
10
566.69005199999992
20
44.873272999999998
30
0
11
566.69005199999992
21
194.872975
31
0
0
LINE
5
323
100
AcDbEntity
8
0
100
AcDbLine
10
382.690426
20
189.87299500000003
30
0
11
382.690426
21
194.872975
31
0
0
LINE
5
324
100
AcDbEntity
8
0
100
AcDbLine
10
410.69037900000006
20
189.87299500000003
30
0
11
432.356987
21
189.87299500000003
31
0
0
LINE
5
325
100
AcDbEntity
8
0
100
AcDbLine
10
460.35694100000001
20
194.872975
30
0
11
432.356987
21
194.872975
31
0
0
SPLINE
5
326
100
AcDbEntity
8
0
100
AcDbSpline
70
0
71
3
72
8
73
4
74
0
42
0.000000001
43
0.0000000001
44
0.0000000001
40
0
40
0
40
0
40
0
40
1
40
1
40
1
40
1
10
484.1862230000001
20
97.728321999999991
30
0
10
481.92184300000002
20
97.728321999999991
30
0
10
480.08624699999996
20
95.892673000000016
30
0
10
480.08624699999996
20
93.628294000000011
30
0
0
SPLINE
5
327
100
AcDbEntity
8
0
100
AcDbSpline
70
0
71
3
72
8
73
4
74
0
42
0.000000001
43
0.0000000001
44
0.0000000001
40
0
40
0
40
0
40
0
40
1
40
1
40
1
40
1
10
541.16373699999997
20
114.59256699999999
30
0
10
541.16373699999997
20
113.653695
30
0
10
540.40263800000002
20
112.89256899999999
30
0
10
539.46373900000003
20
112.89256899999999
30
0
0
LINE
5
328
100
AcDbEntity
8
0
100
AcDbLine
10
510.02350300000001
20
49.873253999999996
30
0
11
531.69013700000005
21
49.873253999999996
31
0
0
LINE
5
329
100
AcDbEntity
8
0
100
AcDbLine
10
364.69046000000003
20
69.873202000000006
30
0
11
369.69043999999997
21
69.873202000000006
31
0
0
SPLINE
5
330
100
AcDbEntity
8
0
100
AcDbSpline
70
0
71
3
72
8
73
4
74
0
42
0.000000001
43
0.0000000001
44
0.0000000001
40
0
40
0
40
0
40
0
40
1
40
1
40
1
40
1
10
364.69046000000003
20
69.873202000000006
30
0
10
361.929035
20
69.873202000000006
30
0
10
359.69047899999998
20
67.634619000000001
30
0
10
359.69047899999998
20
64.873221000000001
30
0
0
SPLINE
5
331
100
AcDbEntity
8
0
100
AcDbSpline
70
0
71
3
72
8
73
4
74
0
42
0.000000001
43
0.0000000001
44
0.0000000001
40
0
40
0
40
0
40
0
40
1
40
1
40
1
40
1
10
480.08624699999996
20
93.628294000000011
30
0
10
480.08624699999996
20
91.363968
30
0
10
481.92184300000002
20
89.528318999999996
30
0
10
484.1862230000001
20
89.528318999999996
30
0
0
SPLINE
5
332
100
AcDbEntity
8
0
100
AcDbSpline
70
0
71
3
72
8
73
4
74
0
42
0.000000001
43
0.0000000001
44
0.0000000001
40
0
40
0
40
0
40
0
40
1
40
1
40
1
40
1
10
539.46373900000003
20
116.292565
30
0
10
540.40263800000002
20
116.292565
30
0
10
541.16373699999997
20
115.53146599999999
30
0
10
541.16373699999997
20
114.59256699999999
30
0
0
LINE
5
333
100
AcDbEntity
8
0
100
AcDbLine
10
510.02350300000001
20
49.873253999999996
30
0
11
510.02350300000001
21
44.873272999999998
31
0
0
SPLINE
5
334
100
AcDbEntity
8
0
100
AcDbSpline
70
0
71
3
72
8
73
4
74
0
42
0.000000001
43
0.0000000001
44
0.0000000001
40
0
40
0
40
0
40
0
40
1
40
1
40
1
40
1
10
539.46373900000003
20
112.89256899999999
30
0
10
538.52486699999997
20
112.89256899999999
30
0
10
537.76374199999998
20
113.653695
30
0
10
537.76374199999998
20
114.59256699999999
30
0
0
LINE
5
335
100
AcDbEntity
8
0
100
AcDbLine
10
410.69037900000006
20
49.873253999999996
30
0
11
410.69037900000006
21
44.873272999999998
31
0
0
LINE
5
336
100
AcDbEntity
8
0
100
AcDbLine
10
369.69043999999997
20
139.873085
30
0
11
369.69043999999997
21
169.87302
31
0
0
SPLINE
5
337
100
AcDbEntity
8
0
100
AcDbSpline
70
0
71
3
72
8
73
4
74
0
42
0.000000001
43
0.0000000001
44
0.0000000001
40
0
40
0
40
0
40
0
40
1
40
1
40
1
40
1
10
484.1862230000001
20
89.528318999999996
30
0
10
486.45060199999995
20
89.528318999999996
30
0
10
488.286224
20
91.363968
30
0
10
488.286224
20
93.628294000000011
30
0
0
SPLINE
5
338
100
AcDbEntity
8
0
100
AcDbSpline
70
0
71
3
72
8
73
4
74
0
42
0.000000001
43
0.0000000001
44
0.0000000001
40
0
40
0
40
0
40
0
40
1
40
1
40
1
40
1
10
364.69046000000003
20
169.87302
30
0
10
361.929035
20
169.87302
30
0
10
359.69047899999998
20
172.11157600000004
30
0
10
359.69047899999998
20
174.87300099999999
30
0
0
LINE
5
339
100
AcDbEntity
8
0
100
AcDbLine
10
432.356987
20
44.873272999999998
30
0
11
460.35694100000001
21
44.873272999999998
31
0
0
SPLINE
5
340
100
AcDbEntity
8
0
100
AcDbSpline
70
0
71
3
72
8
73
4
74
0
42
0.000000001
43
0.0000000001
44
0.0000000001
40
0
40
0
40
0
40
0
40
1
40
1
40
1
40
1
10
537.76374199999998
20
114.59256699999999
30
0
10
537.76374199999998
20
115.53146599999999
30
0
10
538.52486699999997
20
116.292565
30
0
10
539.46373900000003
20
116.292565
30
0
0
SPLINE
5
341
100
AcDbEntity
8
0
100
AcDbSpline
70
0
71
3
72
8
73
4
74
0
42
0.000000001
43
0.0000000001
44
0.0000000001
40
0
40
0
40
0
40
0
40
1
40
1
40
1
40
1
10
539.46373900000003
20
150.29251599999998
30
0
10
540.40263800000002
20
150.29251599999998
30
0
10
541.16373699999997
20
149.531417
30
0
10
541.16373699999997
20
148.59251799999998
30
0
0
SPLINE
5
342
100
AcDbEntity
8
0
100
AcDbSpline
70
0
71
3
72
8
73
4
74
0
42
0.000000001
43
0.0000000001
44
0.0000000001
40
0
40
0
40
0
40
0
40
1
40
1
40
1
40
1
10
539.46373900000003
20
146.89252099999999
30
0
10
538.52486699999997
20
146.89252099999999
30
0
10
537.76374199999998
20
147.65364600000001
30
0
10
537.76374199999998
20
148.59251799999998
30
0
0
LINE
5
343
100
AcDbEntity
8
0
100
AcDbLine
10
364.69046000000003
20
109.873124
30
0
11
364.69046000000003
21
139.873085
31
0
0
LINE
5
344
100
AcDbEntity
8
0
100
AcDbLine
10
359.69047899999998
20
174.87300099999999
30
0
11
359.69047899999998
21
189.87299500000003
31
0
0
LINE
5
345
100
AcDbEntity
8
0
100
AcDbLine
10
382.690426
20
49.873253999999996
30
0
11
359.69047899999998
21
49.873253999999996
31
0
0
SPLINE
5
346
100
AcDbEntity
8
0
100
AcDbSpline
70
0
71
3
72
8
73
4
74
0
42
0.000000001
43
0.0000000001
44
0.0000000001
40
0
40
0
40
0
40
0
40
1
40
1
40
1
40
1
10
488.286224
20
93.628294000000011
30
0
10
488.286224
20
95.892673000000016
30
0
10
486.45060199999995
20
97.728321999999991
30
0
10
484.1862230000001
20
97.728321999999991
30
0
0
LINE
5
347
100
AcDbEntity
8
0
100
AcDbLine
10
369.69043999999997
20
69.873202000000006
30
0
11
369.69043999999997
21
109.873124
31
0
0
LINE
5
348
100
AcDbEntity
8
0
100
AcDbLine
10
410.69037900000006
20
49.873253999999996
30
0
11
432.356987
21
49.873253999999996
31
0
0
LINE
5
349
100
AcDbEntity
8
0
100
AcDbLine
10
566.69005199999992
20
44.873272999999998
30
0
11
531.69013700000005
21
44.873272999999998
31
0
0
LINE
5
350
100
AcDbEntity
8
0
100
AcDbLine
10
482.023549
20
49.873253999999996
30
0
11
482.023549
21
44.873272999999998
31
0
0
LINE
5
351
100
AcDbEntity
8
0
100
AcDbLine
10
369.69043999999997
20
169.87302
30
0
11
364.69046000000003
21
169.87302
31
0
0
LINE
5
352
100
AcDbEntity
8
0
100
AcDbLine
10
531.69013700000005
20
49.873253999999996
30
0
11
531.69013700000005
21
44.873272999999998
31
0
0
LINE
5
353
100
AcDbEntity
8
0
100
AcDbLine
10
460.35694100000001
20
44.873272999999998
30
0
11
460.35694100000001
21
49.873253999999996
31
0
0
SPLINE
5
354
100
AcDbEntity
8
0
100
AcDbSpline
70
0
71
3
72
8
73
4
74
0
42
0.000000001
43
0.0000000001
44
0.0000000001
40
0
40
0
40
0
40
0
40
1
40
1
40
1
40
1
10
465.95956200000001
20
82.683852000000002
30
0
10
466.89845999999994
20
82.683852000000002
30
0
10
467.659559
20
83.444977000000023
30
0
10
467.659559
20
84.383849999999995
30
0
0
SPLINE
5
355
100
AcDbEntity
8
0
100
AcDbSpline
70
0
71
3
72
8
73
4
74
0
42
0.000000001
43
0.0000000001
44
0.0000000001
40
0
40
0
40
0
40
0
40
1
40
1
40
1
40
1
10
128.79253899999998
20
326.64442900000006
30
0
10
128.79253899999998
20
325.76077500000002
30
0
10
129.50888700000002
20
325.044443
30
0
10
130.39255900000001
20
325.044443
30
0
0
SPLINE
5
356
100
AcDbEntity
8
0
100
AcDbSpline
70
0
71
3
72
8
73
4
74
0
42
0.000000001
43
0.0000000001
44
0.0000000001
40
0
40
0
40
0
40
0
40
1
40
1
40
1
40
1
10
476.57727
20
137.61209299999999
30
0
10
477.44825100000003
20
137.13870100000003
30
0
10
477.77053899999999
20
136.048911
30
0
10
477.297147
20
135.177931
30
0
0
SPLINE
5
357
100
AcDbEntity
8
0
100
AcDbSpline
70
0
71
3
72
8
73
4
74
0
42
0.000000001
43
0.0000000001
44
0.0000000001
40
0
40
0
40
0
40
0
40
1
40
1
40
1
40
1
10
84.89264
20
313.04447499999998
30
0
10
84.008967000000013
20
313.04447499999998
30
0
10
83.292619999999999
20
313.76077999999995
30
0
10
83.292619999999999
20
314.64445999999998
30
0
0
SPLINE
5
358
100
AcDbEntity
8
0
100
AcDbSpline
70
0
71
3
72
8
73
4
74
0
42
0.000000001
43
0.0000000001
44
0.0000000001
40
0
40
0
40
0
40
0
40
1
40
1
40
1
40
1
10
541.16373699999997
20
148.59251799999998
30
0
10
541.16373699999997
20
147.65364600000001
30
0
10
540.40263800000002
20
146.89252099999999
30
0
10
539.46373900000003
20
146.89252099999999
30
0
0
SPLINE
5
359
100
AcDbEntity
8
0
100
AcDbSpline
70
0
71
3
72
8
73
4
74
0
42
0.000000001
43
0.0000000001
44
0.0000000001
40
0
40
0
40
0
40
0
40
1
40
1
40
1
40
1
10
465.95956200000001
20
124.08376100000001
30
0
10
466.89845999999994
20
124.08376100000001
30
0
10
467.659559
20
123.32263600000003
30
0
10
467.659559
20
122.383764
30
0
0
SPLINE
5
360
100
AcDbEntity
8
0
100
AcDbSpline
70
0
71
3
72
8
73
4
74
0
42
0.000000001
43
0.0000000001
44
0.0000000001
40
0
40
0
40
0
40
0
40
1
40
1
40
1
40
1
10
465.95956200000001
20
120.68376600000001
30
0
10
465.02069000000006
20
120.68376600000001
30
0
10
464.25956399999995
20
121.44489200000001
30
0
10
464.25956399999995
20
122.383764
30
0
0
SPLINE
5
361
100
AcDbEntity
8
0
100
AcDbSpline
70
0
71
3
72
8
73
4
74
0
42
0.000000001
43
0.0000000001
44
0.0000000001
40
0
40
0
40
0
40
0
40
1
40
1
40
1
40
1
10
467.659559
20
122.383764
30
0
10
467.659559
20
121.44489200000001
30
0
10
466.89845999999994
20
120.68376600000001
30
0
10
465.95956200000001
20
120.68376600000001
30
0
0
SPLINE
5
362
100
AcDbEntity
8
0
100
AcDbSpline
70
0
71
3
72
8
73
4
74
0
42
0.000000001
43
0.0000000001
44
0.0000000001
40
0
40
0
40
0
40
0
40
1
40
1
40
1
40
1
10
537.76374199999998
20
148.59251799999998
30
0
10
537.76374199999998
20
149.531417
30
0
10
538.52486699999997
20
150.29251599999998
30
0
10
539.46373900000003
20
150.29251599999998
30
0
0
SPLINE
5
363
100
AcDbEntity
8
0
100
AcDbSpline
70
0
71
3
72
8
73
4
74
0
42
0.000000001
43
0.0000000001
44
0.0000000001
40
0
40
0
40
0
40
0
40
1
40
1
40
1
40
1
10
464.25956399999995
20
122.383764
30
0
10
464.25956399999995
20
123.32263600000003
30
0
10
465.02069000000006
20
124.08376100000001
30
0
10
465.95956200000001
20
124.08376100000001
30
0
0
SPLINE
5
364
100
AcDbEntity
8
0
100
AcDbSpline
70
0
71
3
72
8
73
4
74
0
42
0.000000001
43
0.0000000001
44
0.0000000001
40
0
40
0
40
0
40
0
40
1
40
1
40
1
40
1
10
490.6579450000001
20
79.535236999999995
30
0
10
489.30650900000001
20
78.905054000000007
30
0
10
488.72180700000001
20
77.298613000000003
30
0
10
489.35201699999999
20
75.947149999999993
30
0
0
SPLINE
5
365
100
AcDbEntity
8
0
100
AcDbSpline
70
0
71
3
72
8
73
4
74
0
42
0.000000001
43
0.0000000001
44
0.0000000001
40
0
40
0
40
0
40
0
40
1
40
1
40
1
40
1
10
478.82050899999996
20
111.30949100000001
30
0
10
478.19032600000003
20
112.660954
30
0
10
476.58388500000001
20
113.24562900000002
30
0
10
475.23242199999999
20
112.615392
30
0
0
SPLINE
5
366
100
AcDbEntity
8
0
100
AcDbSpline
70
0
71
3
72
8
73
4
74
0
42
0.000000001
43
0.0000000001
44
0.0000000001
40
0
40
0
40
0
40
0
40
1
40
1
40
1
40
1
10
464.25956399999995
20
84.383849999999995
30
0
10
464.25956399999995
20
83.444977000000023
30
0
10
465.02069000000006
20
82.683852000000002
30
0
10
465.95956200000001
20
82.683852000000002
30
0
0
SPLINE
5
367
100
AcDbEntity
8
0
100
AcDbSpline
70
0
71
3
72
8
73
4
74
0
42
0.000000001
43
0.0000000001
44
0.0000000001
40
0
40
0
40
0
40
0
40
1
40
1
40
1
40
1
10
475.23242199999999
20
112.615392
30
0
10
473.88095999999996
20
111.98520900000003
30
0
10
473.29628500000001
20
110.37876799999999
30
0
10
473.92646799999994
20
109.02730500000001
30
0
0
SPLINE
5
368
100
AcDbEntity
8
0
100
AcDbSpline
70
0
71
3
72
8
73
4
74
0
42
0.000000001
43
0.0000000001
44
0.0000000001
40
0
40
0
40
0
40
0
40
1
40
1
40
1
40
1
10
131.992547
20
314.64445999999998
30
0
10
131.992547
20
315.52814000000001
30
0
10
131.276194
20
316.24444500000004
30
0
10
130.39255900000001
20
316.24444500000004
30
0
0
SPLINE
5
369
100
AcDbEntity
8
0
100
AcDbSpline
70
0
71
3
72
8
73
4
74
0
42
0.000000001
43
0.0000000001
44
0.0000000001
40
0
40
0
40
0
40
0
40
1
40
1
40
1
40
1
10
489.35201699999999
20
75.947149999999993
30
0
10
489.98220000000003
20
74.595686999999998
30
0
10
491.58864100000005
20
74.011011999999994
30
0
10
492.94010400000002
20
74.641196000000008
30
0
0
SPLINE
5
370
100
AcDbEntity
8
0
100
AcDbSpline
70
0
71
3
72
8
73
4
74
0
42
0.000000001
43
0.0000000001
44
0.0000000001
40
0
40
0
40
0
40
0
40
1
40
1
40
1
40
1
10
494.246058
20
78.229309000000001
30
0
10
493.61584900000003
20
79.580744999999993
30
0
10
492.00940700000001
20
80.165447
30
0
10
490.6579450000001
20
79.535236999999995
30
0
0
SPLINE
5
371
100
AcDbEntity
8
0
100
AcDbSpline
70
0
71
3
72
8
73
4
74
0
42
0.000000001
43
0.0000000001
44
0.0000000001
40
0
40
0
40
0
40
0
40
1
40
1
40
1
40
1
10
128.79253899999998
20
314.64445999999998
30
0
10
128.79253899999998
20
313.76077999999995
30
0
10
129.50888700000002
20
313.04447499999998
30
0
10
130.39255900000001
20
313.04447499999998
30
0
0
SPLINE
5
372
100
AcDbEntity
8
0
100
AcDbSpline
70
0
71
3
72
8
73
4
74
0
42
0.000000001
43
0.0000000001
44
0.0000000001
40
0
40
0
40
0
40
0
40
1
40
1
40
1
40
1
10
474.14308200000005
20
136.892189
30
0
10
474.61647400000004
20
137.76319599999999
30
0
10
475.70626400000003
20
138.08548400000001
30
0
10
476.57727
20
137.61209299999999
30
0
0
SPLINE
5
373
100
AcDbEntity
8
0
100
AcDbSpline
70
0
71
3
72
8
73
4
74
0
42
0.000000001
43
0.0000000001
44
0.0000000001
40
0
40
0
40
0
40
0
40
1
40
1
40
1
40
1
10
492.94010400000002
20
74.641196000000008
30
0
10
494.29156699999999
20
75.271405999999999
30
0
10
494.87624199999999
20
76.877847000000003
30
0
10
494.246058
20
78.229309000000001
30
0
0
SPLINE
5
374
100
AcDbEntity
8
0
100
AcDbSpline
70
0
71
3
72
8
73
4
74
0
42
0.000000001
43
0.0000000001
44
0.0000000001
40
0
40
0
40
0
40
0
40
1
40
1
40
1
40
1
10
477.51458100000002
20
107.72140400000001
30
0
10
478.866018
20
108.35158700000001
30
0
10
479.45071900000011
20
109.958028
30
0
10
478.82050899999996
20
111.30949100000001
30
0
0
SPLINE
5
375
100
AcDbEntity
8
0
100
AcDbSpline
70
0
71
3
72
8
73
4
74
0
42
0.000000001
43
0.0000000001
44
0.0000000001
40
0
40
0
40
0
40
0
40
1
40
1
40
1
40
1
10
465.95956200000001
20
86.083847000000006
30
0
10
465.02069000000006
20
86.083847000000006
30
0
10
464.25956399999995
20
85.322721999999999
30
0
10
464.25956399999995
20
84.383849999999995
30
0
0
SPLINE
5
376
100
AcDbEntity
8
0
100
AcDbSpline
70
0
71
3
72
8
73
4
74
0
42
0.000000001
43
0.0000000001
44
0.0000000001
40
0
40
0
40
0
40
0
40
1
40
1
40
1
40
1
10
477.297147
20
135.177931
30
0
10
476.82380899999998
20
134.30695100000003
30
0
10
475.73396600000001
20
133.98463600000002
30
0
10
474.86298500000004
20
134.45802700000002
30
0
0
SPLINE
5
377
100
AcDbEntity
8
0
100
AcDbSpline
70
0
71
3
72
8
73
4
74
0
42
0.000000001
43
0.0000000001
44
0.0000000001
40
0
40
0
40
0
40
0
40
1
40
1
40
1
40
1
10
130.39255900000001
20
316.24444500000004
30
0
10
129.50888700000002
20
316.24444500000004
30
0
10
128.79253899999998
20
315.52814000000001
30
0
10
128.79253899999998
20
314.64445999999998
30
0
0
SPLINE
5
378
100
AcDbEntity
8
0
100
AcDbSpline
70
0
71
3
72
8
73
4
74
0
42
0.000000001
43
0.0000000001
44
0.0000000001
40
0
40
0
40
0
40
0
40
1
40
1
40
1
40
1
10
131.992547
20
326.64442900000006
30
0
10
131.992547
20
327.52808199999998
30
0
10
131.276194
20
328.24444
30
0
10
130.39255900000001
20
328.24444
30
0
0
SPLINE
5
379
100
AcDbEntity
8
0
100
AcDbSpline
70
0
71
3
72
8
73
4
74
0
42
0.000000001
43
0.0000000001
44
0.0000000001
40
0
40
0
40
0
40
0
40
1
40
1
40
1
40
1
10
130.39255900000001
20
328.24444
30
0
10
129.50888700000002
20
328.24444
30
0
10
128.79253899999998
20
327.52808199999998
30
0
10
128.79253899999998
20
326.64442900000006
30
0
0
SPLINE
5
380
100
AcDbEntity
8
0
100
AcDbSpline
70
0
71
3
72
8
73
4
74
0
42
0.000000001
43
0.0000000001
44
0.0000000001
40
0
40
0
40
0
40
0
40
1
40
1
40
1
40
1
10
474.86298500000004
20
134.45802700000002
30
0
10
473.99203200000011
20
134.93141900000001
30
0
10
473.66969000000012
20
136.021209
30
0
10
474.14308200000005
20
136.892189
30
0
0
SPLINE
5
381
100
AcDbEntity
8
0
100
AcDbSpline
70
0
71
3
72
8
73
4
74
0
42
0.000000001
43
0.0000000001
44
0.0000000001
40
0
40
0
40
0
40
0
40
1
40
1
40
1
40
1
10
130.39255900000001
20
313.04447499999998
30
0
10
131.276194
20
313.04447499999998
30
0
10
131.992547
20
313.76077999999995
30
0
10
131.992547
20
314.64445999999998
30
0
0
SPLINE
5
382
100
AcDbEntity
8
0
100
AcDbSpline
70
0
71
3
72
8
73
4
74
0
42
0.000000001
43
0.0000000001
44
0.0000000001
40
0
40
0
40
0
40
0
40
1
40
1
40
1
40
1
10
86.492625000000004
20
314.64445999999998
30
0
10
86.492625000000004
20
313.76077999999995
30
0
10
85.776278000000005
20
313.04447499999998
30
0
10
84.89264
20
313.04447499999998
30
0
0
SPLINE
5
383
100
AcDbEntity
8
0
100
AcDbSpline
70
0
71
3
72
8
73
4
74
0
42
0.000000001
43
0.0000000001
44
0.0000000001
40
0
40
0
40
0
40
0
40
1
40
1
40
1
40
1
10
467.659559
20
84.383849999999995
30
0
10
467.659559
20
85.322721999999999
30
0
10
466.89845999999994
20
86.083847000000006
30
0
10
465.95956200000001
20
86.083847000000006
30
0
0
SPLINE
5
384
100
AcDbEntity
8
0
100
AcDbSpline
70
0
71
3
72
8
73
4
74
0
42
0.000000001
43
0.0000000001
44
0.0000000001
40
0
40
0
40
0
40
0
40
1
40
1
40
1
40
1
10
473.92646799999994
20
109.02730500000001
30
0
10
474.55667800000009
20
107.67584300000001
30
0
10
476.16311900000005
20
107.09119399999999
30
0
10
477.51458100000002
20
107.72140400000001
30
0
0
LINE
5
385
100
AcDbEntity
8
0
100
AcDbLine
10
335.06551800000005
20
356.74487900000003
30
0
11
335.06551800000005
21
326.74491699999999
31
0
0
SPLINE
5
386
100
AcDbEntity
8
0
100
AcDbSpline
70
0
71
3
72
8
73
4
74
0
42
0.000000001
43
0.0000000001
44
0.0000000001
40
0
40
0
40
0
40
0
40
1
40
1
40
1
40
1
10
130.39255900000001
20
325.044443
30
0
10
131.276194
20
325.044443
30
0
10
131.992547
20
325.76077500000002
30
0
10
131.992547
20
326.64442900000006
30
0
0
SPLINE
5
387
100
AcDbEntity
8
0
100
AcDbSpline
70
0
71
3
72
8
73
4
74
0
42
0.000000001
43
0.0000000001
44
0.0000000001
40
0
40
0
40
0
40
0
40
1
40
1
40
1
40
1
10
206.49235099999999
20
314.64445999999998
30
0
10
206.49235099999999
20
315.52814000000001
30
0
10
205.77600000000001
20
316.24444500000004
30
0
10
204.89233100000004
20
316.24444500000004
30
0
0
SPLINE
5
388
100
AcDbEntity
8
0
100
AcDbSpline
70
0
71
3
72
8
73
4
74
0
42
0.000000001
43
0.0000000001
44
0.0000000001
40
0
40
0
40
0
40
0
40
1
40
1
40
1
40
1
10
86.492625000000004
20
326.64442900000006
30
0
10
86.492625000000004
20
325.76077500000002
30
0
10
85.776278000000005
20
325.044443
30
0
10
84.89264
20
325.044443
30
0
0
SPLINE
5
389
100
AcDbEntity
8
0
100
AcDbSpline
70
0
71
3
72
8
73
4
74
0
42
0.000000001
43
0.0000000001
44
0.0000000001
40
0
40
0
40
0
40
0
40
1
40
1
40
1
40
1
10
204.89233100000004
20
313.04447499999998
30
0
10
205.77600000000001
20
313.04447499999998
30
0
10
206.49235099999999
20
313.76077999999995
30
0
10
206.49235099999999
20
314.64445999999998
30
0
0
SPLINE
5
390
100
AcDbEntity
8
0
100
AcDbSpline
70
0
71
3
72
8
73
4
74
0
42
0.000000001
43
0.0000000001
44
0.0000000001
40
0
40
0
40
0
40
0
40
1
40
1
40
1
40
1
10
83.292619999999999
20
326.64442900000006
30
0
10
83.292619999999999
20
327.52808199999998
30
0
10
84.008967000000013
20
328.24444
30
0
10
84.89264
20
328.24444
30
0
0
SPLINE
5
391
100
AcDbEntity
8
0
100
AcDbSpline
70
0
71
3
72
8
73
4
74
0
42
0.000000001
43
0.0000000001
44
0.0000000001
40
0
40
0
40
0
40
0
40
1
40
1
40
1
40
1
10
84.89264
20
328.24444
30
0
10
85.776278000000005
20
328.24444
30
0
10
86.492625000000004
20
327.52808199999998
30
0
10
86.492625000000004
20
326.64442900000006
30
0
0
SPLINE
5
392
100
AcDbEntity
8
0
100
AcDbSpline
70
0
71
3
72
8
73
4
74
0
42
0.000000001
43
0.0000000001
44
0.0000000001
40
0
40
0
40
0
40
0
40
1
40
1
40
1
40
1
10
204.89233100000004
20
316.24444500000004
30
0
10
204.00869300000005
20
316.24444500000004
30
0
10
203.29234600000004
20
315.52814000000001
30
0
10
203.29234600000004
20
314.64445999999998
30
0
0
SPLINE
5
393
100
AcDbEntity
8
0
100
AcDbSpline
70
0
71
3
72
8
73
4
74
0
42
0.000000001
43
0.0000000001
44
0.0000000001
40
0
40
0
40
0
40
0
40
1
40
1
40
1
40
1
10
84.89264
20
316.24444500000004
30
0
10
85.776278000000005
20
316.24444500000004
30
0
10
86.492625000000004
20
315.52814000000001
30
0
10
86.492625000000004
20
314.64445999999998
30
0
0
SPLINE
5
394
100
AcDbEntity
8
0
100
AcDbSpline
70
0
71
3
72
8
73
4
74
0
42
0.000000001
43
0.0000000001
44
0.0000000001
40
0
40
0
40
0
40
0
40
1
40
1
40
1
40
1
10
203.29234600000004
20
314.64445999999998
30
0
10
203.29234600000004
20
313.76077999999995
30
0
10
204.00869300000005
20
313.04447499999998
30
0
10
204.89233100000004
20
313.04447499999998
30
0
0
SPLINE
5
395
100
AcDbEntity
8
0
100
AcDbSpline
70
0
71
3
72
8
73
4
74
0
42
0.000000001
43
0.0000000001
44
0.0000000001
40
0
40
0
40
0
40
0
40
1
40
1
40
1
40
1
10
83.292619999999999
20
314.64445999999998
30
0
10
83.292619999999999
20
315.52814000000001
30
0
10
84.008967000000013
20
316.24444500000004
30
0
10
84.89264
20
316.24444500000004
30
0
0
SPLINE
5
396
100
AcDbEntity
8
0
100
AcDbSpline
70
0
71
3
72
8
73
4
74
0
42
0.000000001
43
0.0000000001
44
0.0000000001
40
0
40
0
40
0
40
0
40
1
40
1
40
1
40
1
10
84.89264
20
325.044443
30
0
10
84.008967000000013
20
325.044443
30
0
10
83.292619999999999
20
325.76077500000002
30
0
10
83.292619999999999
20
326.64442900000006
30
0
0
CIRCLE
5
397
100
AcDbEntity
8
0
100
AcDbCircle
10
84.892624687499961
20
326.6444380893987
30
0
40
1.6000019106745511
210
0
220
0
230
1
0
CIRCLE
5
398
100
AcDbEntity
8
0
100
AcDbCircle
10
164.8926246874999
20
326.6444380893987
30
0
40
1.6000000000000292
210
0
220
0
230
1
0
CIRCLE
5
399
100
AcDbEntity
8
0
100
AcDbCircle
10
84.892624687499989
20
314.64445002746754
30
0
40
1.5999949726057652
210
0
220
0
230
1
0
CIRCLE
5
400
100
AcDbEntity
8
0
100
AcDbCircle
10
164.8926246874999
20
314.64445002746754
30
0
40
1.6000000000000014
210
0
220
0
230
1
0
CIRCLE
5
401
100
AcDbEntity
8
0
100
AcDbCircle
10
204.89234827602107
20
326.6444372760929
30
0
40
1.6000027240003789
210
0
220
0
230
1
0
SPLINE
5
402
100
AcDbEntity
8
0
100
AcDbSpline
70
12
71
2
41
1
41
1
41
1
72
6
73
3
74
0
42
0.000000001
43
0.0000000001
44
0.0000000001
40
0
40
0
40
0
40
0.72685046168334011
40
0.72685046168334011
40
0.72685046168334011
10
315.88470599999999
20
159.74526599999999
30
0
10
315.88470599999999
20
154.74528600000002
30
0
10
320.06552400000004
20
154.74528600000002
30
0
0
SPLINE
5
403
100
AcDbEntity
8
0
100
AcDbSpline
70
12
71
2
41
1
41
1
41
1
72
6
73
3
74
0
42
0.000000001
43
0.0000000001
44
0.0000000001
40
0
40
0
40
0
40
0.68916611980194553
40
0.68916611980194553
40
0.68916611980194553
10
23.746927000000014
20
159.74526599999999
30
0
10
23.746927000000014
20
154.74528600000002
30
0
10
20.066112
20
154.74528600000002
30
0
0
CIRCLE
5
404
100
AcDbEntity
8
0
100
AcDbCircle
10
428.54935443750003
20
266.34867394183738
30
0
40
1.7001696776396957
210
0
220
0
230
1
0
CIRCLE
5
405
100
AcDbEntity
8
0
100
AcDbCircle
10
428.54929162686847
20
253.77174108967708
30
0
40
1.7003539761779332
210
0
220
0
230
1
0
LINE
5
406
100
AcDbEntity
8
0
100
AcDbLine
10
428.54929162686847
20
253.77174108967708
30
0
11
428.54942620291871
21
313.77174108952613
31
0
0
LINE
5
407
100
AcDbEntity
8
0
100
AcDbLine
10
428.54929162686847
20
253.77174108967708
30
0
11
428.54922433884332
21
223.771741089828
31
0
0
CIRCLE
5
408
100
AcDbEntity
8
0
100
AcDbCircle
10
428.54935913288932
20
282.06020751575727
30
0
40
1.7000000000000239
210
0
220
0
230
1
0
CIRCLE
5
409
100
AcDbEntity
8
0
100
AcDbCircle
10
428.54925638693294
20
238.06020751575727
30
0
40
1.6999999999999915
210
0
220
0
230
1
0
LINE
5
410
100
AcDbEntity
8
0
100
AcDbLine
10
428.54935443750003
20
266.34867394183738
30
0
11
428.54929162686847
21
253.77174108967708
31
0
0
LINE
5
411
100
AcDbEntity
8
0
100
AcDbLine
10
309.81714000211821
20
118.47677822041079
30
0
11
309.81714000211821
21
98.476803220410829
31
0
0
LINE
5
412
100
AcDbEntity
8
0
100
AcDbLine
10
319.81710100211814
20
108.47681722041081
30
0
11
309.81714000211821
21
108.47679072041082
31
0
0
LINE
5
413
100
AcDbEntity
8
0
100
AcDbLine
10
306.70523514924673
20
96.596554863404762
30
0
11
306.70523651009063
21
96.083030872901318
31
0
0
LINE
5
414
100
AcDbEntity
8
0
100
AcDbLine
10
309.81714000211821
20
108.47679072041082
30
0
11
314.05978068923747
21
104.23415003329154
31
0
0
LINE
5
415
100
AcDbEntity
8
0
100
AcDbLine
10
309.81714000211821
20
108.47679072041082
30
0
11
316.81714000211821
21
108.47679072041082
31
0
0
CIRCLE
5
416
100
AcDbEntity
8
0
100
AcDbCircle
10
314.05978068923747
20
104.23415003329154
30
0
40
1.3999999999999999
210
0
220
0
230
1
0
CIRCLE
5
417
100
AcDbEntity
8
0
100
AcDbCircle
10
309.8189152465842
20
108.4767907204108
30
0
40
9.9999876575748363
210
0
220
0
230
1
0
CIRCLE
5
418
100
AcDbEntity
8
0
100
AcDbCircle
10
309.81691631389106
20
80.976764330902355
30
0
40
10.000068892010265
210
0
220
0
230
1
0
LINE
5
419
100
AcDbEntity
8
0
100
AcDbLine
10
309.81691631389106
20
80.976764330902355
30
0
11
314.05955700101032
21
76.734123643783064
31
0
0
LINE
5
420
100
AcDbEntity
8
0
100
AcDbLine
10
309.81691631389106
20
80.976764330902355
30
0
11
315.816916313891
21
80.976764330902355
31
0
0
CIRCLE
5
421
100
AcDbEntity
8
0
100
AcDbCircle
10
314.05955700101032
20
76.734123643783064
30
0
40
1.3500000000000001
210
0
220
0
230
1
0
CIRCLE
5
422
100
AcDbEntity
8
0
100
AcDbCircle
10
309.81711725211818
20
53.476899869656044
30
0
40
9.9999883507807006
210
0
220
0
230
1
0
LINE
5
423
100
AcDbEntity
8
0
100
AcDbLine
10
309.81711725211818
20
53.476899869656044
30
0
11
314.0597579392375
21
49.234259182536746
31
0
0
LINE
5
424
100
AcDbEntity
8
0
100
AcDbLine
10
309.81711725211818
20
53.476899869656044
30
0
11
315.81711725211824
21
53.476899869656044
31
0
0
CIRCLE
5
425
100
AcDbEntity
8
0
100
AcDbCircle
10
314.0597579392375
20
49.234259182536746
30
0
40
1.3500000000000012
210
0
220
0
230
1
0
CIRCLE
5
426
100
AcDbEntity
8
0
100
AcDbCircle
10
30.750938296935601
20
108.26182133918137
30
0
40
10.001099764893082
210
0
220
0
230
1
0
LINE
5
427
100
AcDbEntity
8
0
100
AcDbLine
10
30.750938296935601
20
108.26182133918137
30
0
11
34.993578984054878
21
104.01918065206209
31
0
0
LINE
5
428
100
AcDbEntity
8
0
100
AcDbLine
10
30.750938296935601
20
108.26182133918137
30
0
11
36.750938296935594
21
108.26182133918137
31
0
0
CIRCLE
5
429
100
AcDbEntity
8
0
100
AcDbCircle
10
34.993578984054878
20
104.01918065206209
30
0
40
1.3499999999999948
210
0
220
0
230
1
0
CIRCLE
5
430
100
AcDbEntity
8
0
100
AcDbCircle
10
30.964864136798923
20
80.065550024940805
30
0
40
10.001418082906525
210
0
220
0
230
1
0
LINE
5
431
100
AcDbEntity
8
0
100
AcDbLine
10
30.964864136798923
20
80.065550024940805
30
0
11
35.207504823918207
21
75.822909337821514
31
0
0
LINE
5
432
100
AcDbEntity
8
0
100
AcDbLine
10
30.964864136798923
20
80.065550024940805
30
0
11
36.964864136798923
21
80.065550024940805
31
0
0
CIRCLE
5
433
100
AcDbEntity
8
0
100
AcDbCircle
10
35.207504823918207
20
75.822909337821514
30
0
40
1.3499999999999979
210
0
220
0
230
1
0
CIRCLE
5
434
100
AcDbEntity
8
0
100
AcDbCircle
10
30.965403187017202
20
52.568284356316958
30
0
40
10.001201200361916
210
0
220
0
230
1
0
LINE
5
435
100
AcDbEntity
8
0
100
AcDbLine
10
30.965403187017202
20
52.568284356316958
30
0
11
35.208043874136486
21
48.325643669197675
31
0
0
LINE
5
436
100
AcDbEntity
8
0
100
AcDbLine
10
30.965403187017202
20
52.568284356316958
30
0
11
36.965403187017202
21
52.568284356316958
31
0
0
CIRCLE
5
437
100
AcDbEntity
8
0
100
AcDbCircle
10
35.208043874136486
20
48.325643669197675
30
0
40
1.3499999999999979
210
0
220
0
230
1
0
ENDSEC
0
SECTION
2
OBJECTS
0
DICTIONARY
5
C
100
AcDbDictionary
3
ACAD_GROUP
350
D
3
ACAD_MLINESTYLE
350
17
0
DICTIONARY
5
D
100
AcDbDictionary
0
DICTIONARY
5
1A
330
C
100
AcDbDictionary
0
DICTIONARY
5
17
100
AcDbDictionary
0
ENDSEC
0
EOF
