0
SECTION
2
HEADER
9
$INSUNITS
70
4
9
$ACADVER
1
AC1014
9
$HANDSEED
5
FFFF
0
ENDSEC
0
SECTION
2
TABLES
0
TABLE
2
VPORT
5
8
100
AcDbSymbolTable
0
ENDTAB
0
TABLE
2
LTYPE
5
5
100
AcDbSymbolTable
0
LTYPE
5
14
100
AcDbSymbolTableRecord
100
AcDbLinetypeTableRecord
2
BYBLOCK
70
0
0
LTYPE
5
15
100
AcDbSymbolTableRecord
100
AcDbLinetypeTableRecord
2
BYLAYER
70
0
0
ENDTAB
0
TABLE
2
LAYER
5
2
100
AcDbSymbolTable
70
2
0
LAYER
5
50
100
AcDbSymbolTableRecord
100
AcDbLayerTableRecord
2
0
70
0
6
CONTINUOUS
0
ENDTAB
0
TABLE
2
STYLE
5
3
100
AcDbSymbolTable
70
1
0
STYLE
5
11
100
AcDbSymbolTableRecord
100
AcDbTextStyleTableRecord
2
STANDARD
70
0
0
ENDTAB
0
TABLE
2
VIEW
5
6
100
AcDbSymbolTable
70
0
0
ENDTAB
0
TABLE
2
UCS
5
7
100
AcDbSymbolTable
70
0
0
ENDTAB
0
TABLE
2
APPID
5
9
100
AcDbSymbolTable
70
2
0
APPID
5
12
100
AcDbSymbolTableRecord
100
AcDbRegAppTableRecord
2
ACAD
70
0
0
ENDTAB
0
TABLE
2
DIMSTYLE
5
A
100
AcDbSymbolTable
70
1
0
ENDTAB
0
TABLE
2
BLOCK_RECORD
5
1
100
AcDbSymbolTable
70
1
0
BLOCK_RECORD
5
1F
100
AcDbSymbolTableRecord
100
AcDbBlockTableRecord
2
*MODEL_SPACE
0
BLOCK_RECORD
5
1B
100
AcDbSymbolTableRecord
100
AcDbBlockTableRecord
2
*PAPER_SPACE
0
ENDTAB
0
ENDSEC
0
SECTION
2
BLOCKS
0
BLOCK
5
20
100
AcDbEntity
100
AcDbBlockBegin
2
*MODEL_SPACE
0
ENDBLK
5
21
100
AcDbEntity
100
AcDbBlockEnd
0
BLOCK
5
1C
100
AcDbEntity
100
AcDbBlockBegin
2
*PAPER_SPACE
0
ENDBLK
5
1D
100
AcDbEntity
100
AcDbBlockEnd
0
ENDSEC
0
SECTION
2
ENTITIES
0
LINE
5
100
100
AcDbEntity
8
0
100
AcDbLine
10
551.85423099999991
20
42.919717000000006
30
0
11
551.85423099999991
21
56.742453000000012
31
0
0
SPLINE
5
101
100
AcDbEntity
8
0
100
AcDbSpline
70
0
71
3
72
8
73
4
74
0
42
0.000000001
43
0.0000000001
44
0.0000000001
40
0
40
0
40
0
40
0
40
1
40
1
40
1
40
1
10
555.24959699999999
20
42.919717000000006
30
0
10
555.25277199999994
20
42.86068800000001
30
0
10
555.25277199999994
20
42.801527000000007
30
0
10
555.24959699999999
20
42.742499000000002
30
0
0
SPLINE
5
102
100
AcDbEntity
8
0
100
AcDbSpline
70
0
71
3
72
8
73
4
74
0
42
0.000000001
43
0.0000000001
44
0.0000000001
40
0
40
0
40
0
40
0
40
1
40
1
40
1
40
1
10
555.24959699999999
20
42.742499000000002
30
0
10
555.200649
20
41.804870000000001
30
0
10
554.40089400000011
20
41.084464000000011
30
0
10
553.46329200000002
20
41.133412
30
0
0
SPLINE
5
103
100
AcDbEntity
8
0
100
AcDbSpline
70
0
71
3
72
8
73
4
74
0
42
0.000000001
43
0.0000000001
44
0.0000000001
40
0
40
0
40
0
40
0
40
1
40
1
40
1
40
1
10
553.64053600000011
20
58.528757999999996
30
0
10
554.57813799999997
20
58.479835999999999
30
0
10
555.29854499999999
20
57.680081000000015
30
0
10
555.24959699999999
20
56.742453000000012
30
0
0
SPLINE
5
104
100
AcDbEntity
8
0
100
AcDbSpline
70
0
71
3
72
8
73
4
74
0
42
0.000000001
43
0.0000000001
44
0.0000000001
40
0
40
0
40
0
40
0
40
1
40
1
40
1
40
1
10
551.85423099999991
20
56.742453000000012
30
0
10
551.85105599999997
20
56.801507999999998
30
0
10
551.85105599999997
20
56.860668000000004
30
0
10
551.85423099999991
20
56.919697000000006
30
0
0
LINE
5
105
100
AcDbEntity
8
0
100
AcDbLine
10
555.24959699999999
20
56.742453000000012
30
0
11
555.24959699999999
21
42.919717000000006
31
0
0
LINE
5
106
100
AcDbEntity
8
0
100
AcDbLine
10
303.26476700000006
20
314.11408261832543
30
0
11
528.26476700000001
21
314.11408261832543
31
0
0
LINE
5
107
100
AcDbEntity
8
0
100
AcDbLine
10
536.26476700000001
20
306.11408261832543
30
0
11
536.26476699999967
21
283.38187338641188
31
0
0
SPLINE
5
108
100
AcDbEntity
8
0
100
AcDbSpline
70
0
71
3
72
8
73
4
74
0
42
0.000000001
43
0.0000000001
44
0.0000000001
40
0
40
0
40
0
40
0
40
1
40
1
40
1
40
1
10
551.85423099999991
20
56.919697000000006
30
0
10
551.90317900000002
20
57.857298999999998
30
0
10
552.70293400000003
20
58.577705000000009
30
0
10
553.64053600000011
20
58.528757999999996
30
0
0
SPLINE
5
109
100
AcDbEntity
8
0
100
AcDbSpline
70
0
71
3
72
8
73
4
74
0
42
0.000000001
43
0.0000000001
44
0.0000000001
40
0
40
0
40
0
40
0
40
1
40
1
40
1
40
1
10
553.46329200000002
20
41.133412
30
0
10
552.52569000000005
20
41.182359999999996
30
0
10
551.80528300000003
20
41.98211400000001
30
0
10
551.85423099999991
20
42.919717000000006
30
0
0
SPLINE
5
110
100
AcDbEntity
8
0
100
AcDbSpline
70
0
71
3
72
8
73
4
74
0
42
0.000000001
43
0.0000000001
44
0.0000000001
40
0
40
0
40
0
40
0
40
1
40
1
40
1
40
1
10
555.24959699999999
20
16.442536999999998
30
0
10
555.25277199999994
20
16.501564999999999
30
0
10
555.25277199999994
20
16.560726000000003
30
0
10
555.24959699999999
20
16.619781
30
0
0
SPLINE
5
111
100
AcDbEntity
8
0
100
AcDbSpline
70
0
71
3
72
8
73
4
74
0
42
0.000000001
43
0.0000000001
44
0.0000000001
40
0
40
0
40
0
40
0
40
1
40
1
40
1
40
1
10
553.46329200000002
20
14.833476000000001
30
0
10
554.40089400000011
20
14.784528000000002
30
0
10
555.200649
20
15.504934000000002
30
0
10
555.24959699999999
20
16.442536999999998
30
0
0
SPLINE
5
112
100
AcDbEntity
8
0
100
AcDbSpline
70
0
71
3
72
8
73
4
74
0
42
0.000000001
43
0.0000000001
44
0.0000000001
40
0
40
0
40
0
40
0
40
1
40
1
40
1
40
1
10
551.85423099999991
20
16.619781
30
0
10
551.80528300000003
20
15.682152
30
0
10
552.52569000000005
20
14.882397000000003
30
0
10
553.46329200000002
20
14.833476000000001
30
0
0
SPLINE
5
113
100
AcDbEntity
8
0
100
AcDbSpline
70
0
71
3
72
8
73
4
74
0
42
0.000000001
43
0.0000000001
44
0.0000000001
40
0
40
0
40
0
40
0
40
1
40
1
40
1
40
1
10
555.24959699999999
20
30.442517000000002
30
0
10
555.29854499999999
20
31.380119000000004
30
0
10
554.57813799999997
20
32.179873999999998
30
0
10
553.64053600000011
20
32.228821999999994
30
0
0
LWPOLYLINE
5
114
100
AcDbEntity
8
0
100
AcDbPolyline
90
52
70
1
43
0.0
10
419.59353300000004
20
150.06586399999998
10
449.593501
20
150.06586399999998
10
449.593501
20
145.065856
10
474.59343600000011
20
145.065856
10
474.59343600000011
20
150.06586399999998
10
504.59340400000002
20
150.06586399999998
10
504.59340400000002
20
145.065856
10
529.59336500000006
20
145.065856
10
529.59336500000006
20
150.06586399999998
10
559.59330699999998
20
150.06586399999998
10
559.59330699999998
20
145.065856
10
579.5932600000001
20
145.065856
10
579.5932600000001
20
125.06590300000001
10
584.59326799999997
20
125.06590300000001
10
584.59326799999997
20
95.065961000000016
10
579.5932600000001
20
95.065961000000016
10
579.5932600000001
20
65.065992000000008
10
584.59326799999997
20
65.065992000000008
10
584.59326799999997
20
25.06606
10
579.5932600000001
20
25.06606
10
579.5932600000001
20
5.0661079999999998
10
559.59330699999998
20
5.0661079999999998
10
559.59330699999998
20
0.066126000000000004
10
485.41246800000005
20
0.066126000000000004
10
485.41246800000005
20
5.0661079999999998
10
446.21559800000006
20
5.0661079999999998
10
446.21559800000006
20
0.066126000000000004
10
379.67231400000003
20
0.066126000000000004
10
379.67231400000003
20
5.0661079999999998
10
343.77463400000005
20
5.0661079999999998
10
343.77463400000005
20
0.06612600000000024
10
269.593795
20
0.066126000000000004
10
269.593795
20
5.0661079999999998
10
249.59382700000003
20
5.0661079999999998
10
249.59382700000003
20
25.06606
10
244.59383400000002
20
25.06606
10
244.59383400000002
20
65.065992000000008
10
249.65804397998539
20
65.065992000000008
10
249.65804397998539
20
95.065961000000016
10
244.59383400000002
20
95.065961000000016
10
244.59383400000002
20
125.06590300000001
10
249.59382700000003
20
125.06590300000001
10
249.59382700000003
20
145.065856
10
269.593795
20
145.065856
10
269.593795
20
150.06586399999998
10
299.75124300000004
20
150.06586399999998
10
299.75124300000004
20
145.065856
10
324.75120400000003
20
145.065856
10
324.75120400000003
20
150.06586399999998
10
377.17235000000005
20
150.06586399999998
10
377.17235000000005
20
145.065856
10
419.59353300000004
20
145.065856
0
SPLINE
5
115
100
AcDbEntity
8
0
100
AcDbSpline
70
0
71
3
72
8
73
4
74
0
42
0.000000001
43
0.0000000001
44
0.0000000001
40
0
40
0
40
0
40
0
40
1
40
1
40
1
40
1
10
234.91264100000001
20
221.81994900000004
30
0
10
234.91264100000001
20
220.88107600000001
30
0
10
234.15152599999999
20
220.11995100000001
30
0
10
233.21264300000001
20
220.11995100000001
30
0
0
SPLINE
5
116
100
AcDbEntity
8
0
100
AcDbSpline
70
0
71
3
72
8
73
4
74
0
42
0.000000001
43
0.0000000001
44
0.0000000001
40
0
40
0
40
0
40
0
40
1
40
1
40
1
40
1
10
233.21264300000001
20
220.11995100000001
30
0
10
232.27376000000004
20
220.11995100000001
30
0
10
231.51264500000002
20
220.88107600000001
30
0
10
231.51264500000002
20
221.81994900000004
30
0
0
SPLINE
5
117
100
AcDbEntity
8
0
100
AcDbSpline
70
0
71
3
72
8
73
4
74
0
42
0.000000001
43
0.0000000001
44
0.0000000001
40
0
40
0
40
0
40
0
40
1
40
1
40
1
40
1
10
553.64053600000011
20
32.228821999999994
30
0
10
552.70293400000003
20
32.277743000000001
30
0
10
551.90317900000002
20
31.557363000000002
30
0
10
551.85423099999991
20
30.619735000000002
30
0
0
SPLINE
5
118
100
AcDbEntity
8
0
100
AcDbSpline
70
0
71
3
72
8
73
4
74
0
42
0.000000001
43
0.0000000001
44
0.0000000001
40
0
40
0
40
0
40
0
40
1
40
1
40
1
40
1
10
551.85423099999991
20
30.619735000000002
30
0
10
551.85105599999997
20
30.560706
30
0
10
551.85105599999997
20
30.501545
30
0
10
551.85423099999991
20
30.442517000000002
30
0
0
SPLINE
5
119
100
AcDbEntity
8
0
100
AcDbSpline
70
0
71
3
72
8
73
4
74
0
42
0.000000001
43
0.0000000001
44
0.0000000001
40
0
40
0
40
0
40
0
40
1
40
1
40
1
40
1
10
233.21264300000001
20
223.51994700000006
30
0
10
234.15152599999999
20
223.51994700000006
30
0
10
234.91264100000001
20
222.75882100000001
30
0
10
234.91264100000001
20
221.81994900000004
30
0
0
LINE
5
120
100
AcDbEntity
8
0
100
AcDbLine
10
551.85423099999991
20
30.442517000000002
30
0
11
551.85423099999991
21
16.619781
31
0
0
LINE
5
121
100
AcDbEntity
8
0
100
AcDbLine
10
555.24959699999999
20
16.619781
30
0
11
555.24959699999999
21
30.442517000000002
31
0
0
SPLINE
5
122
100
AcDbEntity
8
0
100
AcDbSpline
70
0
71
3
72
8
73
4
74
0
42
0.000000001
43
0.0000000001
44
0.0000000001
40
0
40
0
40
0
40
0
40
1
40
1
40
1
40
1
10
231.51264500000002
20
221.81994900000004
30
0
10
231.51264500000002
20
222.75882100000001
30
0
10
232.27376000000004
20
223.51994700000006
30
0
10
233.21264300000001
20
223.51994700000006
30
0
0
SPLINE
5
123
100
AcDbEntity
8
0
100
AcDbSpline
70
0
71
3
72
8
73
4
74
0
42
0.000000001
43
0.0000000001
44
0.0000000001
40
0
40
0
40
0
40
0
40
1
40
1
40
1
40
1
10
168.95325700000001
20
244.73778300000004
30
0
10
168.95325700000001
20
243.63322900000003
30
0
10
168.05782600000001
20
242.73780100000005
30
0
10
166.953259
20
242.73780100000005
30
0
0
LINE
5
124
100
AcDbEntity
8
0
100
AcDbLine
10
226.45577400000005
20
279.37503399999997
30
0
11
82.651868000000007
21
279.37503399999997
31
0
0
LINE
5
125
100
AcDbEntity
8
0
100
AcDbLine
10
76.650866000000008
20
279.37503399999997
30
0
11
14.066152000000001
21
279.37503399999997
31
0
0
SPLINE
5
126
100
AcDbEntity
8
0
100
AcDbSpline
70
0
71
3
72
8
73
4
74
0
42
0.000000001
43
0.0000000001
44
0.0000000001
40
0
40
0
40
0
40
0
40
1
40
1
40
1
40
1
10
158.45327399999999
20
268.74465900000007
30
0
10
164.25225399999999
20
268.74465900000007
30
0
10
168.95325700000001
20
268.29386300000004
30
0
10
168.95325700000001
20
267.73776200000009
30
0
0
SPLINE
5
127
100
AcDbEntity
8
0
100
AcDbSpline
70
0
71
3
72
8
73
4
74
0
42
0.000000001
43
0.0000000001
44
0.0000000001
40
0
40
0
40
0
40
0
40
1
40
1
40
1
40
1
10
7.3129390000000001
20
223.51994700000006
30
0
10
8.2518220000000007
20
223.51994700000006
30
0
10
9.0129369999999991
20
222.75882100000001
30
0
10
9.0129369999999991
20
221.81994900000004
30
0
0
SPLINE
5
128
100
AcDbEntity
8
0
100
AcDbSpline
70
0
71
3
72
8
73
4
74
0
42
0.000000001
43
0.0000000001
44
0.0000000001
40
0
40
0
40
0
40
0
40
1
40
1
40
1
40
1
10
27.953542000000002
20
244.73777400000003
30
0
10
27.953542000000002
20
243.63322000000005
30
0
10
28.848970000000005
20
242.73779200000001
30
0
10
29.953537000000004
20
242.73779200000001
30
0
0
SPLINE
5
129
100
AcDbEntity
8
0
100
AcDbSpline
70
0
71
3
72
8
73
4
74
0
42
0.000000001
43
0.0000000001
44
0.0000000001
40
0
40
0
40
0
40
0
40
1
40
1
40
1
40
1
10
77.650864999999996
20
247.81566699999999
30
0
10
77.098579999999998
20
247.81566699999999
30
0
10
76.650866000000008
20
248.26339400000001
30
0
10
76.650866000000008
20
248.81565800000004
30
0
0
LINE
5
130
100
AcDbEntity
8
0
100
AcDbLine
10
147.953292
20
244.73778300000004
30
0
11
147.953292
21
267.73776200000009
31
0
0
LINE
5
131
100
AcDbEntity
8
0
100
AcDbLine
10
168.95325700000001
20
267.73776200000009
30
0
11
168.95325700000001
21
244.73778300000004
31
0
0
LINE
5
132
100
AcDbEntity
8
0
100
AcDbLine
10
48.953507000000009
20
244.73777400000003
30
0
11
48.953507000000009
21
267.737753
31
0
0
SPLINE
5
133
100
AcDbEntity
8
0
100
AcDbSpline
70
0
71
3
72
8
73
4
74
0
42
0.000000001
43
0.0000000001
44
0.0000000001
40
0
40
0
40
0
40
0
40
1
40
1
40
1
40
1
10
48.953507000000009
20
267.737753
30
0
10
48.953507000000009
20
268.29385400000001
30
0
10
44.252503999999995
20
268.74467700000002
30
0
10
38.453524000000002
20
268.74467700000002
30
0
0
LINE
5
134
100
AcDbEntity
8
0
100
AcDbLine
10
226.45577400000002
20
355.95441235293714
30
0
11
226.45577400000005
21
279.37503399999997
31
0
0
SPLINE
5
135
100
AcDbEntity
8
0
100
AcDbSpline
70
0
71
3
72
8
73
4
74
0
42
0.000000001
43
0.0000000001
44
0.0000000001
40
0
40
0
40
0
40
0
40
1
40
1
40
1
40
1
10
147.953292
20
267.73776200000009
30
0
10
147.953292
20
268.29386300000004
30
0
10
152.654292
20
268.74465900000007
30
0
10
158.45327399999999
20
268.74465900000007
30
0
0
LINE
5
136
100
AcDbEntity
8
0
100
AcDbLine
10
82.651868000000007
20
279.37503399999997
30
0
11
82.651868000000007
21
248.81565800000004
31
0
0
SPLINE
5
137
100
AcDbEntity
8
0
100
AcDbSpline
70
0
71
3
72
8
73
4
74
0
42
0.000000001
43
0.0000000001
44
0.0000000001
40
0
40
0
40
0
40
0
40
1
40
1
40
1
40
1
10
46.953509000000004
20
242.73779200000001
30
0
10
48.058076000000007
20
242.73779200000001
30
0
10
48.953507000000009
20
243.63322000000005
30
0
10
48.953507000000009
20
244.73777400000003
30
0
0
SPLINE
5
138
100
AcDbEntity
8
0
100
AcDbSpline
70
0
71
3
72
8
73
4
74
0
42
0.000000001
43
0.0000000001
44
0.0000000001
40
0
40
0
40
0
40
0
40
1
40
1
40
1
40
1
10
7.3129390000000001
20
220.11995100000001
30
0
10
6.3740569999999996
20
220.11995100000001
30
0
10
5.6129419999999994
20
220.88107600000001
30
0
10
5.6129419999999994
20
221.81994900000004
30
0
0
LINE
5
139
100
AcDbEntity
8
0
100
AcDbLine
10
81.651869000000005
20
247.81566699999999
30
0
11
77.650864999999996
21
247.81566699999999
31
0
0
LINE
5
140
100
AcDbEntity
8
0
100
AcDbLine
10
76.650866000000008
20
248.81565800000004
30
0
11
76.650866000000008
21
279.37503399999997
31
0
0
LINE
5
141
100
AcDbEntity
8
0
100
AcDbLine
10
29.953537000000004
20
242.73779200000001
30
0
11
46.953509000000004
21
242.73779200000001
31
0
0
SPLINE
5
142
100
AcDbEntity
8
0
100
AcDbSpline
70
0
71
3
72
8
73
4
74
0
42
0.000000001
43
0.0000000001
44
0.0000000001
40
0
40
0
40
0
40
0
40
1
40
1
40
1
40
1
10
149.95328700000002
20
242.73780100000005
30
0
10
148.84871999999999
20
242.73780100000005
30
0
10
147.953292
20
243.63322900000003
30
0
10
147.953292
20
244.73778300000004
30
0
0
SPLINE
5
143
100
AcDbEntity
8
0
100
AcDbSpline
70
0
71
3
72
8
73
4
74
0
42
0.000000001
43
0.0000000001
44
0.0000000001
40
0
40
0
40
0
40
0
40
1
40
1
40
1
40
1
10
9.0129369999999991
20
221.81994900000004
30
0
10
9.0129369999999991
20
220.88107600000001
30
0
10
8.2518220000000007
20
220.11995100000001
30
0
10
7.3129390000000001
20
220.11995100000001
30
0
0
LINE
5
144
100
AcDbEntity
8
0
100
AcDbLine
10
27.953542000000002
20
267.737753
30
0
11
27.953542000000002
21
244.73777400000003
31
0
0
LINE
5
145
100
AcDbEntity
8
0
100
AcDbLine
10
166.953259
20
242.73780100000005
30
0
11
149.95328700000002
21
242.73780100000005
31
0
0
SPLINE
5
146
100
AcDbEntity
8
0
100
AcDbSpline
70
0
71
3
72
8
73
4
74
0
42
0.000000001
43
0.0000000001
44
0.0000000001
40
0
40
0
40
0
40
0
40
1
40
1
40
1
40
1
10
5.6129419999999994
20
221.81994900000004
30
0
10
5.6129419999999994
20
222.75882100000001
30
0
10
6.3740569999999996
20
223.51994700000006
30
0
10
7.3129390000000001
20
223.51994700000006
30
0
0
SPLINE
5
147
100
AcDbEntity
8
0
100
AcDbSpline
70
0
71
3
72
8
73
4
74
0
42
0.000000001
43
0.0000000001
44
0.0000000001
40
0
40
0
40
0
40
0
40
1
40
1
40
1
40
1
10
82.651868000000007
20
248.81565800000004
30
0
10
82.651868000000007
20
248.26339400000001
30
0
10
82.204154000000003
20
247.81566699999999
30
0
10
81.651869000000005
20
247.81566699999999
30
0
0
SPLINE
5
148
100
AcDbEntity
8
0
100
AcDbSpline
70
0
71
3
72
8
73
4
74
0
42
0.000000001
43
0.0000000001
44
0.0000000001
40
0
40
0
40
0
40
0
40
1
40
1
40
1
40
1
10
231.50898799999999
20
279.81985099999997
30
0
10
231.50898799999999
20
280.75872300000003
30
0
10
232.27010300000001
20
281.51984900000002
30
0
10
233.20898599999998
20
281.51984900000002
30
0
0
LINE
5
149
100
AcDbEntity
8
0
100
AcDbLine
10
160.126666
20
210.98268700000003
30
0
11
160.126666
21
205.98270500000001
31
0
0
SPLINE
5
150
100
AcDbEntity
8
0
100
AcDbSpline
70
0
71
3
72
8
73
4
74
0
42
0.000000001
43
0.0000000001
44
0.0000000001
40
0
40
0
40
0
40
0
40
1
40
1
40
1
40
1
10
38.453524000000002
20
268.74467700000002
30
0
10
32.654541999999999
20
268.74467700000002
30
0
10
27.953542000000002
20
268.29385400000001
30
0
10
27.953542000000002
20
267.737753
30
0
0
LINE
5
151
100
AcDbEntity
8
0
100
AcDbLine
10
0.066152000000000002
20
355.98244299999999
30
0
11
14.066152000000001
21
355.98244299999999
31
0
0
SPLINE
5
152
100
AcDbEntity
8
0
100
AcDbSpline
70
0
71
3
72
8
73
4
74
0
42
0.000000001
43
0.0000000001
44
0.0000000001
40
0
40
0
40
0
40
0
40
1
40
1
40
1
40
1
10
9.0129369999999991
20
279.81985099999997
30
0
10
9.0129369999999991
20
278.88097900000002
30
0
10
8.2518220000000007
20
278.11985299999998
30
0
10
7.3129390000000001
20
278.11985299999998
30
0
0
LINE
5
153
100
AcDbEntity
8
0
100
AcDbLine
10
184.96912599999999
20
205.98270500000001
30
0
11
184.96912599999999
21
210.98268700000003
31
0
0
SPLINE
5
154
100
AcDbEntity
8
0
100
AcDbSpline
70
0
71
3
72
8
73
4
74
0
42
0.000000001
43
0.0000000001
44
0.0000000001
40
0
40
0
40
0
40
0
40
1
40
1
40
1
40
1
10
7.3129390000000001
20
278.11985299999998
30
0
10
6.3740569999999996
20
278.11985299999998
30
0
10
5.6129419999999994
20
278.88097900000002
30
0
10
5.6129419999999994
20
279.81985099999997
30
0
0
SPLINE
5
155
100
AcDbEntity
8
0
100
AcDbSpline
70
0
71
3
72
8
73
4
74
0
42
0.000000001
43
0.0000000001
44
0.0000000001
40
0
40
0
40
0
40
0
40
1
40
1
40
1
40
1
10
234.90898200000001
20
279.81985099999997
30
0
10
234.90898200000001
20
278.88097900000002
30
0
10
234.14786700000002
20
278.11985299999998
30
0
10
233.20898599999998
20
278.11985299999998
30
0
0
LINE
5
156
100
AcDbEntity
8
0
100
AcDbLine
10
79.969301999999999
20
205.98270500000001
30
0
11
79.969301999999999
21
210.98268700000003
31
0
0
LINE
5
157
100
AcDbEntity
8
0
100
AcDbLine
10
240.45577399999999
20
355.9544123529372
30
0
11
240.45577400000002
21
205.98270500000001
31
0
0
SPLINE
5
158
100
AcDbEntity
8
0
100
AcDbSpline
70
0
71
3
72
8
73
4
74
0
42
0.000000001
43
0.0000000001
44
0.0000000001
40
0
40
0
40
0
40
0
40
1
40
1
40
1
40
1
10
233.20898599999998
20
281.51984900000002
30
0
10
234.14786700000002
20
281.51984900000002
30
0
10
234.90898200000001
20
280.75872300000003
30
0
10
234.90898200000001
20
279.81985099999997
30
0
0
LINE
5
159
100
AcDbEntity
8
0
100
AcDbLine
10
55.126843999999991
20
210.98268700000003
30
0
11
55.126843999999991
21
205.98270500000001
31
0
0
SPLINE
5
160
100
AcDbEntity
8
0
100
AcDbSpline
70
0
71
3
72
8
73
4
74
0
42
0.000000001
43
0.0000000001
44
0.0000000001
40
0
40
0
40
0
40
0
40
1
40
1
40
1
40
1
10
5.6129419999999994
20
279.81985099999997
30
0
10
5.6129419999999994
20
280.75872300000003
30
0
10
6.3740569999999996
20
281.51984900000002
30
0
10
7.3129390000000001
20
281.51984900000002
30
0
0
SPLINE
5
161
100
AcDbEntity
8
0
100
AcDbSpline
70
0
71
3
72
8
73
4
74
0
42
0.000000001
43
0.0000000001
44
0.0000000001
40
0
40
0
40
0
40
0
40
1
40
1
40
1
40
1
10
7.3129390000000001
20
281.51984900000002
30
0
10
8.2518220000000007
20
281.51984900000002
30
0
10
9.0129369999999991
20
280.75872300000003
30
0
10
9.0129369999999991
20
279.81985099999997
30
0
0
LINE
5
162
100
AcDbEntity
8
0
100
AcDbLine
10
240.45577400000002
20
205.98270500000001
30
0
11
184.96912599999999
21
205.98270500000001
31
0
0
LINE
5
163
100
AcDbEntity
8
0
100
AcDbLine
10
184.96912599999999
20
210.98268700000003
30
0
11
160.126666
21
210.98268700000003
31
0
0
LINE
5
164
100
AcDbEntity
8
0
100
AcDbLine
10
55.126843999999991
20
205.98270500000001
30
0
11
0.066151999999997102
21
205.98270500000001
31
0
0
SPLINE
5
165
100
AcDbEntity
8
0
100
AcDbSpline
70
0
71
3
72
8
73
4
74
0
42
0.000000001
43
0.0000000001
44
0.0000000001
40
0
40
0
40
0
40
0
40
1
40
1
40
1
40
1
10
233.20898599999998
20
278.11985299999998
30
0
10
232.27010300000001
20
278.11985299999998
30
0
10
231.50898799999999
20
278.88097900000002
30
0
10
231.50898799999999
20
279.81985099999997
30
0
0
LINE
5
166
100
AcDbEntity
8
0
100
AcDbLine
10
160.126666
20
205.98270500000001
30
0
11
79.969301999999999
21
205.98270500000001
31
0
0
LINE
5
167
100
AcDbEntity
8
0
100
AcDbLine
10
0.066151999999997102
20
205.98270500000001
30
0
11
0.066152000000000002
21
355.98244299999999
31
0
0
LINE
5
168
100
AcDbEntity
8
0
100
AcDbLine
10
560.68577000000005
20
163.98279099999999
30
0
11
560.68577000000005
21
158.98278300000001
31
0
0
LINE
5
169
100
AcDbEntity
8
0
100
AcDbLine
10
565.68575099999998
20
153.98280199999999
30
0
11
585.68573000000004
21
153.98280199999999
31
0
0
LINE
5
170
100
AcDbEntity
8
0
100
AcDbLine
10
580.68572199999994
20
176.982754
30
0
11
580.68572199999994
21
204.98271399999999
31
0
0
LINE
5
171
100
AcDbEntity
8
0
100
AcDbLine
10
79.969301999999999
20
210.98268700000003
30
0
11
55.126843999999991
21
210.98268700000003
31
0
0
LINE
5
172
100
AcDbEntity
8
0
100
AcDbLine
10
375.46476700000005
20
284.01431999999988
30
0
11
375.46476700000005
21
279.11408261832543
31
0
0
LINE
5
173
100
AcDbEntity
8
0
100
AcDbLine
10
295.26476700000001
20
283.64723229361528
30
0
11
295.26476700000001
21
306.11408261832543
31
0
0
LINE
5
174
100
AcDbEntity
8
0
100
AcDbLine
10
245.68629700000002
20
231.64933500000004
30
0
11
245.68629700000002
21
204.98271399999999
31
0
0
LINE
5
175
100
AcDbEntity
8
0
100
AcDbLine
10
245.68629700000002
20
176.982754
30
0
11
245.68629700000002
21
153.98280199999999
31
0
0
LINE
5
176
100
AcDbEntity
8
0
100
AcDbLine
10
475.68589800000012
20
158.98278300000001
30
0
11
475.68589800000012
21
163.98279099999999
31
0
0
LINE
5
177
100
AcDbEntity
8
0
100
AcDbLine
10
270.68625800000001
20
158.98278300000001
30
0
11
270.68625800000001
21
163.98279099999999
31
0
0
LINE
5
178
100
AcDbEntity
8
0
100
AcDbLine
10
325.84366699999998
20
163.98279099999999
30
0
11
378.26481300000006
21
163.98279099999999
31
0
0
LINE
5
179
100
AcDbEntity
8
0
100
AcDbLine
10
300.843706
20
163.98279099999999
30
0
11
300.843706
21
158.98278300000001
31
0
0
SPLINE
5
180
100
AcDbEntity
8
0
100
AcDbSpline
70
0
71
3
72
8
73
4
74
0
42
0.000000001
43
0.0000000001
44
0.0000000001
40
0
40
0
40
0
40
0
40
1
40
1
40
1
40
1
10
560.68577000000005
20
158.98278300000001
30
0
10
560.68577000000005
20
156.22135800000001
30
0
10
562.92432599999995
20
153.98280199999999
30
0
10
565.68575099999998
20
153.98280199999999
30
0
0
LINE
5
181
100
AcDbEntity
8
0
100
AcDbLine
10
270.68625800000001
20
163.98279099999999
30
0
11
300.843706
21
163.98279099999999
31
0
0
LINE
5
182
100
AcDbEntity
8
0
100
AcDbLine
10
378.26481300000006
20
163.98279099999999
30
0
11
378.26481300000006
21
158.98278300000001
31
0
0
LINE
5
183
100
AcDbEntity
8
0
100
AcDbLine
10
480.86476699999997
20
284.01408261832546
30
0
11
480.86476699999997
21
279.11408261832543
31
0
0
LINE
5
184
100
AcDbEntity
8
0
100
AcDbLine
10
530.68582800000001
20
158.98278300000001
30
0
11
530.68582800000001
21
163.98279099999999
31
0
0
LINE
5
185
100
AcDbEntity
8
0
100
AcDbLine
10
300.843706
20
158.98278300000001
30
0
11
325.84366699999998
21
158.98278300000001
31
0
0
LINE
5
186
100
AcDbEntity
8
0
100
AcDbLine
10
245.68629700000002
20
153.98280199999999
30
0
11
265.68627600000002
21
153.98280199999999
31
0
0
LINE
5
187
100
AcDbEntity
8
0
100
AcDbLine
10
456.06476699999996
20
284.01408261832546
30
0
11
456.06476699999979
21
279.11408261832543
31
0
0
LINE
5
188
100
AcDbEntity
8
0
100
AcDbLine
10
585.68573000000004
20
176.982754
30
0
11
580.68572199999994
21
176.982754
31
0
0
LINE
5
189
100
AcDbEntity
8
0
100
AcDbLine
10
420.68599500000005
20
158.98278300000001
30
0
11
420.68599500000005
21
163.98279099999999
31
0
0
LINE
5
190
100
AcDbEntity
8
0
100
AcDbLine
10
585.68573000000004
20
153.98280199999999
30
0
11
585.68573000000004
21
176.982754
31
0
0
LINE
5
191
100
AcDbEntity
8
0
100
AcDbLine
10
350.66476700000004
20
284.01431999999988
30
0
11
350.66476700000004
21
279.11431999999991
31
0
0
LINE
5
192
100
AcDbEntity
8
0
100
AcDbLine
10
325.84366699999998
20
158.98278300000001
30
0
11
325.84366699999998
21
163.98279099999999
31
0
0
LINE
5
193
100
AcDbEntity
8
0
100
AcDbLine
10
245.68629700000002
20
204.98271399999999
30
0
11
250.68628900000004
21
204.98271399999999
31
0
0
LINE
5
194
100
AcDbEntity
8
0
100
AcDbLine
10
250.68628900000004
20
204.98271399999999
30
0
11
250.68628900000004
21
176.982754
31
0
0
LINE
5
195
100
AcDbEntity
8
0
100
AcDbLine
10
378.26481300000006
20
158.98278300000001
30
0
11
420.68599500000005
21
158.98278300000001
31
0
0
LINE
5
196
100
AcDbEntity
8
0
100
AcDbLine
10
450.68596399999996
20
163.98279099999999
30
0
11
450.68596399999996
21
158.98278300000001
31
0
0
LINE
5
197
100
AcDbEntity
8
0
100
AcDbLine
10
250.68628900000004
20
231.64933500000004
30
0
11
245.68629700000002
21
231.64933500000004
31
0
0
LINE
5
198
100
AcDbEntity
8
0
100
AcDbLine
10
580.68572199999994
20
226.64932700000003
30
0
11
580.68572199999994
21
254.64928700000002
31
0
0
LINE
5
199
100
AcDbEntity
8
0
100
AcDbLine
10
420.68599500000005
20
163.98279099999999
30
0
11
450.68596399999996
21
163.98279099999999
31
0
0
LINE
5
200
100
AcDbEntity
8
0
100
AcDbLine
10
580.68572199999994
20
204.98271399999999
30
0
11
585.68573000000004
21
204.98271399999999
31
0
0
LINE
5
201
100
AcDbEntity
8
0
100
AcDbLine
10
580.68572199999994
20
355.98244299999999
30
0
11
250.68628899999999
21
355.98244299999999
31
0
0
LINE
5
202
100
AcDbEntity
8
0
100
AcDbLine
10
391.86478027614748
20
183.56284517138266
30
0
11
391.86478027614777
21
175.66633534927269
31
0
0
SPLINE
5
203
100
AcDbEntity
8
0
100
AcDbSpline
70
0
71
3
72
8
73
4
74
0
42
0.000000001
43
0.0000000001
44
0.0000000001
40
0
40
0
40
0
40
0
40
1
40
1
40
1
40
1
10
328.16752500000001
20
199.10669900000002
30
0
10
329.27210499999995
20
199.10669900000002
30
0
10
330.167507
20
198.211297
30
0
10
330.167507
20
197.10671700000003
30
0
0
LINE
5
204
100
AcDbEntity
8
0
100
AcDbLine
10
585.68573000000004
20
304.31588700000009
30
0
11
585.68573000000004
21
325.98250000000002
31
0
0
LINE
5
205
100
AcDbEntity
8
0
100
AcDbLine
10
390.6176643306955
20
174.99950267253831
30
0
11
371.90273176208854
21
174.95545886847222
31
0
0
SPLINE
5
206
100
AcDbEntity
8
0
100
AcDbSpline
70
0
71
3
72
8
73
4
74
0
42
0.000000001
43
0.0000000001
44
0.0000000001
40
0
40
0
40
0
40
0
40
1
40
1
40
1
40
1
10
370.90274076208857
20
175.95544986847221
30
0
10
370.90274076208857
20
175.40318686847223
30
0
10
371.35044176208856
20
174.95545886847222
30
0
10
371.90273176208854
20
174.95545886847222
30
0
0
LINE
5
207
100
AcDbEntity
8
0
100
AcDbLine
10
450.68596399999996
20
158.98278300000001
30
0
11
475.68589800000012
21
158.98278300000001
31
0
0
LINE
5
208
100
AcDbEntity
8
0
100
AcDbLine
10
505.68586699999997
20
158.98278300000001
30
0
11
530.68582800000001
21
158.98278300000001
31
0
0
LINE
5
209
100
AcDbEntity
8
0
100
AcDbLine
10
585.68573000000004
20
226.64932700000003
30
0
11
580.68572199999994
21
226.64932700000003
31
0
0
LINE
5
210
100
AcDbEntity
8
0
100
AcDbLine
10
585.68573000000004
20
254.64928700000002
30
0
11
585.68573000000004
21
276.31592699999999
31
0
0
LINE
5
211
100
AcDbEntity
8
0
100
AcDbLine
10
505.68586699999997
20
163.98279099999999
30
0
11
505.68586699999997
21
158.98278300000001
31
0
0
LINE
5
212
100
AcDbEntity
8
0
100
AcDbLine
10
475.68589800000012
20
163.98279099999999
30
0
11
505.68586699999997
21
163.98279099999999
31
0
0
LINE
5
213
100
AcDbEntity
8
0
100
AcDbLine
10
530.68582800000001
20
163.98279099999999
30
0
11
560.68577000000005
21
163.98279099999999
31
0
0
LINE
5
214
100
AcDbEntity
8
0
100
AcDbLine
10
585.68573000000004
20
276.31592699999999
30
0
11
580.68572199999994
21
276.31592699999999
31
0
0
LINE
5
215
100
AcDbEntity
8
0
100
AcDbLine
10
580.68572199999994
20
304.31588700000009
30
0
11
585.68573000000004
21
304.31588700000009
31
0
0
LINE
5
216
100
AcDbEntity
8
0
100
AcDbLine
10
585.68573000000004
20
325.98250000000002
30
0
11
580.68572199999994
21
325.98250000000002
31
0
0
LINE
5
217
100
AcDbEntity
8
0
100
AcDbLine
10
250.68628899999999
20
355.98244299999999
30
0
11
250.68628900000004
21
325.98250000000002
31
0
0
SPLINE
5
218
100
AcDbEntity
8
0
100
AcDbSpline
70
0
71
3
72
8
73
4
74
0
42
0.000000001
43
0.0000000001
44
0.0000000001
40
0
40
0
40
0
40
0
40
1
40
1
40
1
40
1
10
390.6176643306955
20
174.99950267253831
30
0
10
391.14617154820212
20
174.83926645085472
30
0
10
391.70454434460845
20
175.13782908874902
30
0
10
391.86478027614777
20
175.66633534927269
30
0
0
SPLINE
5
219
100
AcDbEntity
8
0
100
AcDbSpline
70
0
71
3
72
8
73
4
74
0
42
0.000000001
43
0.0000000001
44
0.0000000001
40
0
40
0
40
0
40
0
40
1
40
1
40
1
40
1
10
326.16751600000009
20
197.10671700000003
30
0
10
326.16751600000009
20
198.211297
30
0
10
327.06294400000002
20
199.10669900000002
30
0
10
328.16752500000001
20
199.10669900000002
30
0
0
LINE
5
220
100
AcDbEntity
8
0
100
AcDbLine
10
370.90274076208857
20
175.95544986847221
30
0
11
370.90274076208857
21
184.01927486847222
31
0
0
SPLINE
5
221
100
AcDbEntity
8
0
100
AcDbSpline
70
0
71
3
72
8
73
4
74
0
42
0.000000001
43
0.0000000001
44
0.0000000001
40
0
40
0
40
0
40
0
40
1
40
1
40
1
40
1
10
330.167507
20
197.10671700000003
30
0
10
330.167507
20
196.00216200000003
30
0
10
329.27210499999995
20
195.106708
30
0
10
328.16752500000001
20
195.106708
30
0
0
LINE
5
222
100
AcDbEntity
8
0
100
AcDbLine
10
585.68573000000004
20
204.98271399999999
30
0
11
585.68573000000004
21
226.64932700000003
31
0
0
LINE
5
223
100
AcDbEntity
8
0
100
AcDbLine
10
580.68572199999994
20
276.31592699999999
30
0
11
580.68572199999994
21
304.31588700000009
31
0
0
SPLINE
5
224
100
AcDbEntity
8
0
100
AcDbSpline
70
0
71
3
72
8
73
4
74
0
42
0.000000001
43
0.0000000001
44
0.0000000001
40
0
40
0
40
0
40
0
40
1
40
1
40
1
40
1
10
328.16752500000001
20
195.106708
30
0
10
327.06294400000002
20
195.106708
30
0
10
326.16751600000009
20
196.00216200000003
30
0
10
326.16751600000009
20
197.10671700000003
30
0
0
LINE
5
225
100
AcDbEntity
8
0
100
AcDbLine
10
250.68628900000004
20
176.982754
30
0
11
245.68629700000002
21
176.982754
31
0
0
LINE
5
226
100
AcDbEntity
8
0
100
AcDbLine
10
580.68572199999994
20
254.64928700000002
30
0
11
585.68573000000004
21
254.64928700000002
31
0
0
LINE
5
227
100
AcDbEntity
8
0
100
AcDbLine
10
580.68572199999994
20
325.98250000000002
30
0
11
580.68572199999994
21
355.98244299999999
31
0
0
LWPOLYLINE
5
228
100
AcDbEntity
8
0
100
AcDbPolyline
90
16
70
1
43
0.0
10
550.73038900000006
20
268.98258900000002
10
282.03659900000002
20
268.98258900000002
10
280.03660900000006
20
268.98258900000002
42
0.41421356237308982
10
272.036609
20
260.98258900000002
10
272.036609
20
258.98259900000005
10
272.036609
20
193.982733
10
272.036609
20
191.98266174316598
42
0.41421153932357158
10
280.03655374297529
20
183.98266174335689
10
290.56818944128236
20
183.98258900000002
10
546.330376
20
183.98258900000002
10
552.73037800000009
20
183.98258900000002
42
0.41421356237309503
10
560.73037799999997
20
191.98258899999999
10
560.73037799999997
20
193.982733
10
560.73037799999997
20
258.98259900000005
10
560.73037800000009
20
260.98258900000002
42
0.41421356237310025
10
552.73037800000009
20
268.98258900000002
0
SPLINE
5
229
100
AcDbEntity
8
0
100
AcDbSpline
70
0
71
3
72
8
73
4
74
0
42
0.000000001
43
0.0000000001
44
0.0000000001
40
0
40
0
40
0
40
0
40
1
40
1
40
1
40
1
10
313.45229799999998
20
180.58274800000004
30
0
10
317.09737699999999
20
180.58274800000004
30
0
10
320.05229100000003
20
177.62783300000001
30
0
10
320.05229100000003
20
173.982754
30
0
0
SPLINE
5
230
100
AcDbEntity
8
0
100
AcDbSpline
70
0
71
3
72
8
73
4
74
0
42
0.000000001
43
0.0000000001
44
0.0000000001
40
0
40
0
40
0
40
0
40
1
40
1
40
1
40
1
10
306.852304
20
173.982754
30
0
10
306.852304
20
177.62783300000001
30
0
10
309.80721899999998
20
180.58274800000004
30
0
10
313.45229799999998
20
180.58274800000004
30
0
0
SPLINE
5
231
100
AcDbEntity
8
0
100
AcDbSpline
70
0
71
3
72
8
73
4
74
0
42
0.000000001
43
0.0000000001
44
0.0000000001
40
0
40
0
40
0
40
0
40
1
40
1
40
1
40
1
10
320.05229100000003
20
173.982754
30
0
10
320.05229100000003
20
170.33770200000004
30
0
10
317.09737699999999
20
167.38276100000004
30
0
10
313.45229799999998
20
167.38276100000004
30
0
0
SPLINE
5
232
100
AcDbEntity
8
0
100
AcDbSpline
70
0
71
3
72
8
73
4
74
0
42
0.000000001
43
0.0000000001
44
0.0000000001
40
0
40
0
40
0
40
0
40
1
40
1
40
1
40
1
10
313.45229799999998
20
167.38276100000004
30
0
10
309.80721899999998
20
167.38276100000004
30
0
10
306.852304
20
170.33770200000004
30
0
10
306.852304
20
173.982754
30
0
0
SPLINE
5
233
100
AcDbEntity
8
0
100
AcDbSpline
70
0
71
3
72
8
73
4
74
0
42
0.000000001
43
0.0000000001
44
0.0000000001
40
0
40
0
40
0
40
0
40
1
40
1
40
1
40
1
10
330.05228100000005
20
173.982754
30
0
10
330.05228100000005
20
173.09909999999999
30
0
10
329.33592299999998
20
172.382769
30
0
10
328.452269
20
172.382769
30
0
0
LINE
5
234
100
AcDbEntity
8
0
100
AcDbLine
10
245.68629700000002
20
254.64928700000002
30
0
11
250.68628900000004
21
254.64928700000002
31
0
0
SPLINE
5
235
100
AcDbEntity
8
0
100
AcDbSpline
70
0
71
3
72
8
73
4
74
0
42
0.000000001
43
0.0000000001
44
0.0000000001
40
0
40
0
40
0
40
0
40
1
40
1
40
1
40
1
10
300.05231200000003
20
173.982754
30
0
10
300.05231200000003
20
173.09909999999999
30
0
10
299.335981
20
172.382769
30
0
10
298.45232700000003
20
172.382769
30
0
0
SPLINE
5
236
100
AcDbEntity
8
0
100
AcDbSpline
70
0
71
3
72
8
73
4
74
0
42
0.000000001
43
0.0000000001
44
0.0000000001
40
0
40
0
40
0
40
0
40
1
40
1
40
1
40
1
10
298.45232700000003
20
172.382769
30
0
10
297.56867299999999
20
172.382769
30
0
10
296.85231499999998
20
173.09909999999999
30
0
10
296.85231499999998
20
173.982754
30
0
0
SPLINE
5
237
100
AcDbEntity
8
0
100
AcDbSpline
70
0
71
3
72
8
73
4
74
0
42
0.000000001
43
0.0000000001
44
0.0000000001
40
0
40
0
40
0
40
0
40
1
40
1
40
1
40
1
10
328.452269
20
175.58276599999999
30
0
10
329.33592299999998
20
175.58276599999999
30
0
10
330.05228100000005
20
174.86640800000001
30
0
10
330.05228100000005
20
173.982754
30
0
0
SPLINE
5
238
100
AcDbEntity
8
0
100
AcDbSpline
70
0
71
3
72
8
73
4
74
0
42
0.000000001
43
0.0000000001
44
0.0000000001
40
0
40
0
40
0
40
0
40
1
40
1
40
1
40
1
10
265.68627600000002
20
153.98280199999999
30
0
10
268.447675
20
153.98280199999999
30
0
10
270.68625800000001
20
156.22135800000001
30
0
10
270.68625800000001
20
158.98278300000001
30
0
0
LINE
5
239
100
AcDbEntity
8
0
100
AcDbLine
10
250.68628900000004
20
304.31588700000009
30
0
11
250.68628900000004
21
276.31592699999999
31
0
0
SPLINE
5
240
100
AcDbEntity
8
0
100
AcDbSpline
70
0
71
3
72
8
73
4
74
0
42
0.000000001
43
0.0000000001
44
0.0000000001
40
0
40
0
40
0
40
0
40
1
40
1
40
1
40
1
10
326.852283
20
173.982754
30
0
10
326.852283
20
174.86640800000001
30
0
10
327.56861500000002
20
175.58276599999999
30
0
10
328.452269
20
175.58276599999999
30
0
0
SPLINE
5
241
100
AcDbEntity
8
0
100
AcDbSpline
70
0
71
3
72
8
73
4
74
0
42
0.000000001
43
0.0000000001
44
0.0000000001
40
0
40
0
40
0
40
0
40
1
40
1
40
1
40
1
10
296.85231499999998
20
173.982754
30
0
10
296.85231499999998
20
174.86640800000001
30
0
10
297.56867299999999
20
175.58276599999999
30
0
10
298.45232700000003
20
175.58276599999999
30
0
0
SPLINE
5
242
100
AcDbEntity
8
0
100
AcDbSpline
70
0
71
3
72
8
73
4
74
0
42
0.000000001
43
0.0000000001
44
0.0000000001
40
0
40
0
40
0
40
0
40
1
40
1
40
1
40
1
10
298.45232700000003
20
175.58276599999999
30
0
10
299.335981
20
175.58276599999999
30
0
10
300.05231200000003
20
174.86640800000001
30
0
10
300.05231200000003
20
173.982754
30
0
0
LINE
5
243
100
AcDbEntity
8
0
100
AcDbLine
10
250.68628900000004
20
325.98250000000002
30
0
11
245.68629700000002
21
325.98250000000002
31
0
0
LINE
5
244
100
AcDbEntity
8
0
100
AcDbLine
10
250.68628900000004
20
254.64928700000002
30
0
11
250.68628900000004
21
231.64933500000004
31
0
0
LINE
5
245
100
AcDbEntity
8
0
100
AcDbLine
10
245.68629700000002
20
304.31588700000009
30
0
11
250.68628900000004
21
304.31588700000009
31
0
0
SPLINE
5
246
100
AcDbEntity
8
0
100
AcDbSpline
70
0
71
3
72
8
73
4
74
0
42
0.000000001
43
0.0000000001
44
0.0000000001
40
0
40
0
40
0
40
0
40
1
40
1
40
1
40
1
10
328.452269
20
172.382769
30
0
10
327.56861500000002
20
172.382769
30
0
10
326.852283
20
173.09909999999999
30
0
10
326.852283
20
173.982754
30
0
0
LINE
5
247
100
AcDbEntity
8
0
100
AcDbLine
10
245.68629700000002
20
325.98250000000002
30
0
11
245.68629700000002
21
304.31588700000009
31
0
0
LINE
5
248
100
AcDbEntity
8
0
100
AcDbLine
10
250.68628900000004
20
276.31592699999999
30
0
11
245.68629700000002
21
276.31592699999999
31
0
0
LINE
5
249
100
AcDbEntity
8
0
100
AcDbLine
10
245.68629700000002
20
276.31592699999999
30
0
11
245.68629700000002
21
254.64928700000002
31
0
0
SPLINE
5
250
100
AcDbEntity
8
0
100
AcDbSpline
70
0
71
3
72
8
73
4
74
0
42
0.000000001
43
0.0000000001
44
0.0000000001
40
0
40
0
40
0
40
0
40
1
40
1
40
1
40
1
10
118.45352399999999
20
268.74467700000002
30
0
10
112.65454200000001
20
268.74467700000002
30
0
10
107.953542
20
268.29385400000001
30
0
10
107.953542
20
267.737753
30
0
0
LINE
5
251
100
AcDbEntity
8
0
100
AcDbLine
10
107.953542
20
267.737753
30
0
11
107.953542
21
244.73777400000003
31
0
0
LINE
5
252
100
AcDbEntity
8
0
100
AcDbLine
10
109.95353700000001
20
242.73779200000001
30
0
11
126.95350900000001
21
242.73779200000001
31
0
0
SPLINE
5
253
100
AcDbEntity
8
0
100
AcDbSpline
70
0
71
3
72
8
73
4
74
0
42
0.000000001
43
0.0000000001
44
0.0000000001
40
0
40
0
40
0
40
0
40
1
40
1
40
1
40
1
10
128.953507
20
267.737753
30
0
10
128.953507
20
268.29385400000001
30
0
10
124.25250399999999
20
268.74467700000002
30
0
10
118.45352399999999
20
268.74467700000002
30
0
0
LINE
5
254
100
AcDbEntity
8
0
100
AcDbLine
10
128.953507
20
244.73777400000003
30
0
11
128.953507
21
267.737753
31
0
0
SPLINE
5
255
100
AcDbEntity
8
0
100
AcDbSpline
70
0
71
3
72
8
73
4
74
0
42
0.000000001
43
0.0000000001
44
0.0000000001
40
0
40
0
40
0
40
0
40
1
40
1
40
1
40
1
10
126.95350900000001
20
242.73779200000001
30
0
10
128.05807600000003
20
242.73779200000001
30
0
10
128.953507
20
243.63322000000005
30
0
10
128.953507
20
244.73777400000003
30
0
0
SPLINE
5
256
100
AcDbEntity
8
0
100
AcDbSpline
70
0
71
3
72
8
73
4
74
0
42
0.000000001
43
0.0000000001
44
0.0000000001
40
0
40
0
40
0
40
0
40
1
40
1
40
1
40
1
10
107.953542
20
244.73777400000003
30
0
10
107.953542
20
243.63322000000005
30
0
10
108.84897000000001
20
242.73779200000001
30
0
10
109.95353700000001
20
242.73779200000001
30
0
0
CIRCLE
5
257
100
AcDbEntity
8
0
100
AcDbCircle
10
7.3129394375000007
20
279.81985288057376
30
0
40
1.6999961194263444
210
-0
220
0
230
1
0
CIRCLE
5
258
100
AcDbEntity
8
0
100
AcDbCircle
10
7.3127595512294041
20
221.81976955122946
30
0
40
1.7001774582407572
210
-0
220
0
230
1
0
LINE
5
259
100
AcDbEntity
8
0
100
AcDbLine
10
226.45577400000002
20
355.95441235293714
30
0
11
240.45577399999999
21
355.9544123529372
31
0
0
LWPOLYLINE
5
260
100
AcDbEntity
8
0
100
AcDbPolyline
90
14
70
1
43
0.0
10
14.066151784275803
20
93.375033908953526
10
226.4561517823372
20
93.375034127069341
10
240.45615178233709
20
93.375034127069341
10
240.45615178233717
20
155.98244299999996
10
186.05615178233717
20
155.98244299999999
10
186.05615178233717
20
150.98246100000006
10
159.25615178233716
20
150.98246100000006
10
159.25615178233716
20
155.98244299999999
10
80.866151778459923
20
155.98244299999999
10
80.866151778459923
20
150.98246100000006
10
54.066151778459925
20
150.98246100000006
10
54.066151778459925
20
155.98244299907088
10
0.066151778459925564
20
155.98244299907088
10
0.066151784275798597
20
93.375033907653034
0
CIRCLE
5
261
100
AcDbEntity
8
0
100
AcDbCircle
10
7.3129394374999999
20
340.98244299999999
30
0
40
1.7001936655097274
210
-0
220
0
230
1
0
CIRCLE
5
262
100
AcDbEntity
8
0
100
AcDbCircle
10
7.3129394096766269
20
340.98244300059628
30
0
40
1.7001936655097274
210
-0
220
0
230
1
0
CIRCLE
5
263
100
AcDbEntity
8
0
100
AcDbCircle
10
7.3129394374999999
20
310.98244299999999
30
0
40
1.7001936655097274
210
-0
220
0
230
1
0
CIRCLE
5
264
100
AcDbEntity
8
0
100
AcDbCircle
10
233.17121881148819
20
340.95441235293708
30
0
40
1.7000000000000015
210
0
220
0
230
1
0
CIRCLE
5
265
100
AcDbEntity
8
0
100
AcDbCircle
10
233.10577744507
20
310.95441235291639
30
0
40
1.7000000000000079
210
0
220
0
230
1
0
LINE
5
266
100
AcDbEntity
8
0
100
AcDbLine
10
295.66476699999976
20
279.11432000000019
30
0
11
350.66476700000004
21
279.11431999999991
31
0
0
LINE
5
267
100
AcDbEntity
8
0
100
AcDbLine
10
350.66476700000004
20
284.01431999999988
30
0
11
375.46476700000005
21
284.01431999999988
31
0
0
LINE
5
268
100
AcDbEntity
8
0
100
AcDbLine
10
375.46476700000005
20
279.11408261832543
30
0
11
456.06476699999979
21
279.11408261832543
31
0
0
LINE
5
269
100
AcDbEntity
8
0
100
AcDbLine
10
456.06476699999996
20
284.01408261832546
30
0
11
480.86476699999997
21
284.01408261832546
31
0
0
LINE
5
270
100
AcDbEntity
8
0
100
AcDbLine
10
480.86476699999997
20
279.11408261832543
30
0
11
536.13045199999999
21
279.11408261832543
31
0
0
LINE
5
271
100
AcDbEntity
8
0
100
AcDbLine
10
295.26476700000001
20
283.64723229361528
30
0
11
295.26476700000001
21
279.11432000000002
31
0
0
LINE
5
272
100
AcDbEntity
8
0
100
AcDbLine
10
295.66476699999976
20
279.11432000000019
30
0
11
295.26476700000001
21
279.11432000000002
31
0
0
LINE
5
273
100
AcDbEntity
8
0
100
AcDbLine
10
536.26476699999967
20
283.38187338641188
30
0
11
536.26476699999967
21
279.11408261832543
31
0
0
LINE
5
274
100
AcDbEntity
8
0
100
AcDbLine
10
536.26476699999967
20
279.11408261832543
30
0
11
535.31298924144596
21
279.11408261832543
31
0
0
ARC
5
275
100
AcDbEntity
8
0
100
AcDbCircle
10
303.26476700000006
20
306.11408261832543
30
0
40
8.0000000000000071
210
0
220
-0
230
1
100
AcDbArc
50
90
51
180
0
ARC
5
276
100
AcDbEntity
8
0
100
AcDbCircle
10
528.26476700000001
20
306.11408261832543
30
0
40
7.9999999999999716
210
0
220
0
230
1
100
AcDbArc
50
0
51
90
0
LINE
5
277
100
AcDbEntity
8
0
100
AcDbLine
10
14.066152000000001
20
355.98244299999999
30
0
11
14.066152000000001
21
279.37503399999997
31
0
0
CIRCLE
5
278
100
AcDbEntity
8
0
100
AcDbCircle
10
7.3128492758966654
20
140.98244299907088
30
0
40
1.7000000000000017
210
0
220
0
230
1
0
CIRCLE
5
279
100
AcDbEntity
8
0
100
AcDbCircle
10
7.3128492766570306
20
110.98244299907088
30
0
40
1.6999999999999991
210
0
220
0
230
1
0
CIRCLE
5
280
100
AcDbEntity
8
0
100
AcDbCircle
10
233.10577744507
20
140.98244299999996
30
0
40
1.7000000000000033
210
0
220
0
230
1
0
CIRCLE
5
281
100
AcDbEntity
8
0
100
AcDbCircle
10
233.10577744507
20
110.98244299999996
30
0
40
1.6999999999999893
210
0
220
0
230
1
0
CIRCLE
5
282
100
AcDbEntity
8
0
100
AcDbCircle
10
354.72983498089275
20
140.22996337996886
30
0
40
1.6003038162582339
210
0
220
0
230
1
0
CIRCLE
5
283
100
AcDbEntity
8
0
100
AcDbCircle
10
489.92988186009489
20
140.22978818461519
30
0
40
1.6001830363795424
210
-0
220
0
230
1
0
CIRCLE
5
284
100
AcDbEntity
8
0
100
AcDbCircle
10
456.72983498083408
20
140.22985401438754
30
0
40
1.6000000000000045
210
0
220
0
230
1
0
CIRCLE
5
285
100
AcDbEntity
8
0
100
AcDbCircle
10
354.72979192105987
20
64.12958387610081
30
0
40
1.6003119083236481
210
-0
220
0
230
1
0
CIRCLE
5
286
100
AcDbEntity
8
0
100
AcDbCircle
10
489.92991586199332
20
64.129733376018322
30
0
40
1.6001902480083321
210
-0
220
0
230
1
0
CIRCLE
5
287
100
AcDbEntity
8
0
100
AcDbCircle
10
456.72973636848673
20
64.129696664335285
30
0
40
1.6000000000000203
210
0
220
0
230
1
0
LWPOLYLINE
5
288
100
AcDbEntity
8
0
100
AcDbPolyline
90
4
70
1
43
0.0
10
370.90274076208857
20
184.01927486847222
10
391.8647802761476
20
184.01927486847222
10
391.8647802761476
20
189.01927486847222
10
370.90274076208857
20
189.01927486847222
0
SPLINE
5
289
100
AcDbEntity
8
0
100
AcDbSpline
70
0
71
3
72
8
73
4
74
0
42
0.000000001
43
0.0000000001
44
0.0000000001
40
0
40
0
40
0
40
0
40
1
40
1
40
1
40
1
10
493.46329200000008
20
41.133412
30
0
10
492.52569000000005
20
41.182359999999996
30
0
10
491.80528300000003
20
41.98211400000001
30
0
10
491.85423099999991
20
42.919717000000006
30
0
0
SPLINE
5
290
100
AcDbEntity
8
0
100
AcDbSpline
70
0
71
3
72
8
73
4
74
0
42
0.000000001
43
0.0000000001
44
0.0000000001
40
0
40
0
40
0
40
0
40
1
40
1
40
1
40
1
10
491.85423099999991
20
16.619781
30
0
10
491.80528300000003
20
15.682152
30
0
10
492.52569000000005
20
14.882397000000003
30
0
10
493.46329200000008
20
14.833476000000001
30
0
0
LINE
5
291
100
AcDbEntity
8
0
100
AcDbLine
10
491.85423099999991
20
30.442517000000002
30
0
11
491.85423099999991
21
16.619781
31
0
0
SPLINE
5
292
100
AcDbEntity
8
0
100
AcDbSpline
70
0
71
3
72
8
73
4
74
0
42
0.000000001
43
0.0000000001
44
0.0000000001
40
0
40
0
40
0
40
0
40
1
40
1
40
1
40
1
10
491.85423099999991
20
56.919697000000006
30
0
10
491.90317900000002
20
57.857298999999998
30
0
10
492.70293400000008
20
58.577705000000009
30
0
10
493.64053600000005
20
58.528757999999996
30
0
0
SPLINE
5
293
100
AcDbEntity
8
0
100
AcDbSpline
70
0
71
3
72
8
73
4
74
0
42
0.000000001
43
0.0000000001
44
0.0000000001
40
0
40
0
40
0
40
0
40
1
40
1
40
1
40
1
10
491.85423099999991
20
30.619735000000002
30
0
10
491.85105599999997
20
30.560706
30
0
10
491.85105599999997
20
30.501545
30
0
10
491.85423099999991
20
30.442517000000002
30
0
0
SPLINE
5
294
100
AcDbEntity
8
0
100
AcDbSpline
70
0
71
3
72
8
73
4
74
0
42
0.000000001
43
0.0000000001
44
0.0000000001
40
0
40
0
40
0
40
0
40
1
40
1
40
1
40
1
10
493.46329200000008
20
14.833476000000001
30
0
10
494.40089400000005
20
14.784528000000002
30
0
10
495.200649
20
15.504934000000002
30
0
10
495.24959700000005
20
16.442536999999998
30
0
0
LINE
5
295
100
AcDbEntity
8
0
100
AcDbLine
10
491.85423099999991
20
42.919717000000006
30
0
11
491.85423099999991
21
56.742453000000012
31
0
0
SPLINE
5
296
100
AcDbEntity
8
0
100
AcDbSpline
70
0
71
3
72
8
73
4
74
0
42
0.000000001
43
0.0000000001
44
0.0000000001
40
0
40
0
40
0
40
0
40
1
40
1
40
1
40
1
10
495.24959700000005
20
42.742499000000002
30
0
10
495.200649
20
41.804870000000001
30
0
10
494.40089400000005
20
41.084464000000011
30
0
10
493.46329200000008
20
41.133412
30
0
0
LINE
5
297
100
AcDbEntity
8
0
100
AcDbLine
10
495.24959700000005
20
56.742453000000012
30
0
11
495.24959700000005
21
42.919717000000006
31
0
0
SPLINE
5
298
100
AcDbEntity
8
0
100
AcDbSpline
70
0
71
3
72
8
73
4
74
0
42
0.000000001
43
0.0000000001
44
0.0000000001
40
0
40
0
40
0
40
0
40
1
40
1
40
1
40
1
10
493.64053600000005
20
58.528757999999996
30
0
10
494.57813799999997
20
58.479835999999999
30
0
10
495.29854499999999
20
57.680081000000015
30
0
10
495.24959700000005
20
56.742453000000012
30
0
0
SPLINE
5
299
100
AcDbEntity
8
0
100
AcDbSpline
70
0
71
3
72
8
73
4
74
0
42
0.000000001
43
0.0000000001
44
0.0000000001
40
0
40
0
40
0
40
0
40
1
40
1
40
1
40
1
10
495.24959700000005
20
42.919717000000006
30
0
10
495.25277199999999
20
42.86068800000001
30
0
10
495.25277199999999
20
42.801527000000007
30
0
10
495.24959700000005
20
42.742499000000002
30
0
0
SPLINE
5
300
100
AcDbEntity
8
0
100
AcDbSpline
70
0
71
3
72
8
73
4
74
0
42
0.000000001
43
0.0000000001
44
0.0000000001
40
0
40
0
40
0
40
0
40
1
40
1
40
1
40
1
10
495.24959700000005
20
16.442536999999998
30
0
10
495.25277199999999
20
16.501564999999999
30
0
10
495.25277199999999
20
16.560726000000003
30
0
10
495.24959700000005
20
16.619781
30
0
0
SPLINE
5
301
100
AcDbEntity
8
0
100
AcDbSpline
70
0
71
3
72
8
73
4
74
0
42
0.000000001
43
0.0000000001
44
0.0000000001
40
0
40
0
40
0
40
0
40
1
40
1
40
1
40
1
10
495.24959700000005
20
30.442517000000002
30
0
10
495.29854499999999
20
31.380119000000004
30
0
10
494.57813799999997
20
32.179873999999998
30
0
10
493.64053600000005
20
32.228821999999994
30
0
0
SPLINE
5
302
100
AcDbEntity
8
0
100
AcDbSpline
70
0
71
3
72
8
73
4
74
0
42
0.000000001
43
0.0000000001
44
0.0000000001
40
0
40
0
40
0
40
0
40
1
40
1
40
1
40
1
10
491.85423099999991
20
56.742453000000012
30
0
10
491.85105599999997
20
56.801507999999998
30
0
10
491.85105599999997
20
56.860668000000004
30
0
10
491.85423099999991
20
56.919697000000006
30
0
0
SPLINE
5
303
100
AcDbEntity
8
0
100
AcDbSpline
70
0
71
3
72
8
73
4
74
0
42
0.000000001
43
0.0000000001
44
0.0000000001
40
0
40
0
40
0
40
0
40
1
40
1
40
1
40
1
10
493.64053600000005
20
32.228821999999994
30
0
10
492.70293400000008
20
32.277743000000001
30
0
10
491.90317900000002
20
31.557363000000002
30
0
10
491.85423099999991
20
30.619735000000002
30
0
0
LINE
5
304
100
AcDbEntity
8
0
100
AcDbLine
10
495.24959700000005
20
16.619781
30
0
11
495.24959700000005
21
30.442517000000002
31
0
0
LINE
5
305
100
AcDbEntity
8
0
100
AcDbLine
10
304.08704397998542
20
136.38220763104277
30
0
11
304.08704397998542
21
77.461199228526382
31
0
0
LINE
5
306
100
AcDbEntity
8
0
100
AcDbLine
10
281.79783759491096
20
97.465856000000002
30
0
11
326.37625036505983
21
97.465856000000002
31
0
0
CIRCLE
5
307
100
AcDbEntity
8
0
100
AcDbCircle
10
304.08704397998542
20
97.465856000000002
30
0
40
1.6999999999999886
210
0
220
0
230
1
0
LINE
5
308
100
AcDbEntity
8
0
100
AcDbLine
10
261.71134823069929
20
262.98258900000002
30
0
11
571.07529713396821
21
262.98258900000002
31
0
0
LINE
5
309
100
AcDbEntity
8
0
100
AcDbLine
10
278.03660900000006
20
278.47802087902397
30
0
11
278.03660900000006
21
169.88217857650289
31
0
0
CIRCLE
5
310
100
AcDbEntity
8
0
100
AcDbCircle
10
278.03660900000006
20
262.98258900000002
30
0
40
1.699999999999988
210
0
220
0
230
1
0
LINE
5
311
100
AcDbEntity
8
0
100
AcDbLine
10
261.26726040750322
20
189.98258900000002
30
0
11
571.45061536538174
21
189.98258900000002
31
0
0
CIRCLE
5
312
100
AcDbEntity
8
0
100
AcDbCircle
10
278.03660900000006
20
189.98258900000002
30
0
40
1.7000000000000204
210
0
220
0
230
1
0
LINE
5
313
100
AcDbEntity
8
0
100
AcDbLine
10
554.73037799999997
20
287.52311299464168
30
0
11
554.73037799999997
21
173.58059856672682
31
0
0
CIRCLE
5
314
100
AcDbEntity
8
0
100
AcDbCircle
10
554.73037799999997
20
262.98258900000002
30
0
40
1.700000000000004
210
0
220
0
230
1
0
CIRCLE
5
315
100
AcDbEntity
8
0
100
AcDbCircle
10
554.73037799999997
20
189.98258900000002
30
0
40
1.6999999999999846
210
0
220
0
230
1
0
ENDSEC
0
SECTION
2
OBJECTS
0
DICTIONARY
5
C
100
AcDbDictionary
3
ACAD_GROUP
350
D
3
ACAD_MLINESTYLE
350
17
0
DICTIONARY
5
D
100
AcDbDictionary
0
DICTIONARY
5
1A
330
C
100
AcDbDictionary
0
DICTIONARY
5
17
100
AcDbDictionary
0
ENDSEC
0
EOF
