  0
SECTION
  2
HEADER
  9
$ACADVER
  1
AC1014
  9
$HANDSEED
  5
FFFF
  9
$INSUNITS
 70
     4
  9
$MEASUREMENT
 70
     1
  0
ENDSEC
  0
SECTION
  2
TABLES
  0
TABLE
  2
VPORT
  5
8
330
0
100
AcDbSymbolTable
 70
     4
  0
VPORT
  5
2E
330
8
100
AcDbSymbolTableRecord
100
AcDbViewportTableRecord
  2
*ACTIVE
 70
     0
 10
0.0
 20
0.0
 11
1.0
 21
1.0
 12
210.0
 22
148.5
 13
0.0
 23
0.0
 14
10.0
 24
10.0
 15
10.0
 25
10.0
 16
0.0
 26
0.0
 36
1.0
 17
0.0
 27
0.0
 37
0.0
 40
341.0
 41
1.24
 42
50.0
 43
0.0
 44
0.0
 50
0.0
 51
0.0
 71
     0
 72
   100
 73
     1
 74
     3
 75
     0
 76
     0
 77
     0
 78
     0
  0
ENDTAB
  0
TABLE
  2
LTYPE
  5
5
330
0
100
AcDbSymbolTable
 70
     1
  0
LTYPE
  5
14
330
5
100
AcDbSymbolTableRecord
100
AcDbLinetypeTableRecord
  2
BYBLOCK
 70
     0
  3

 72
    65
 73
     0
 40
0.0
  0
LTYPE
  5
15
330
5
100
AcDbSymbolTableRecord
100
AcDbLinetypeTableRecord
  2
BYLAYER
 70
     0
  3

 72
    65
 73
     0
 40
0.0
  0
LTYPE
  5
16
330
5
100
AcDbSymbolTableRecord
100
AcDbLinetypeTableRecord
  2
CONTINUOUS
 70
     0
  3
Solid line
 72
    65
 73
     0
 40
0.0
  0
ENDTAB
  0
TABLE
  2
LAYER
  5
2
100
AcDbSymbolTable
 70
1
  0
LAYER
  5
50
100
AcDbSymbolTableRecord
100
AcDbLayerTableRecord
  2
0
 70
0
  6
CONTINUOUS
  0
ENDTAB
  0
TABLE
  2
STYLE
  5
3
330
0
100
AcDbSymbolTable
 70
     1
  0
STYLE
  5
11
330
3
100
AcDbSymbolTableRecord
100
AcDbTextStyleTableRecord
  2
STANDARD
 70
     0
 40
0.0
 41
1.0
 50
0.0
 71
     0
 42
2.5
  3
txt
  4

  0
ENDTAB
  0
TABLE
  2
VIEW
  5
6
330
0
100
AcDbSymbolTable
 70
     0
  0
ENDTAB
  0
TABLE
  2
UCS
  5
7
330
0
100
AcDbSymbolTable
 70
     0
  0
ENDTAB
  0
TABLE
  2
APPID
  5
9
330
0
100
AcDbSymbolTable
 70
     2
  0
APPID
  5
12
330
9
100
AcDbSymbolTableRecord
100
AcDbRegAppTableRecord
  2
ACAD
 70
     0
  0
ENDTAB
  0
TABLE
  2
DIMSTYLE
  5
A
330
0
100
AcDbSymbolTable
 70
     1
  0
DIMSTYLE
105
27
330
A
100
AcDbSymbolTableRecord
100
AcDbDimStyleTableRecord
  2
ISO-25
 70
     0
  3

  4

  5

  6

  7

 40
1.0
 41
2.5
 42
0.625
 43
3.75
 44
1.25
 45
0.0
 46
0.0
 47
0.0
 48
0.0
140
2.5
141
2.5
142
0.0
143
0.03937007874016
144
1.0
145
0.0
146
1.0
147
0.625
 71
     0
 72
     0
 73
     0
 74
     0
 75
     0
 76
     0
 77
     1
 78
     8
170
     0
171
     3
172
     1
173
     0
174
     0
175
     0
176
     0
177
     0
178
     0
270
     2
271
     2
272
     2
273
     2
274
     3
340
11
275
     0
280
     0
281
     0
282
     0
283
     0
284
     8
285
     0
286
     0
287
     3
288
     0
  0
ENDTAB
  0
TABLE
  2
BLOCK_RECORD
  5
1
330
0
100
AcDbSymbolTable
 70
     1
  0
BLOCK_RECORD
  5
1F
330
1
100
AcDbSymbolTableRecord
100
AcDbBlockTableRecord
  2
*MODEL_SPACE
  0
BLOCK_RECORD
  5
1B
330
1
100
AcDbSymbolTableRecord
100
AcDbBlockTableRecord
  2
*PAPER_SPACE
  0
ENDTAB
  0
ENDSEC
  0
SECTION
  2
BLOCKS
  0
BLOCK
  5
20
330
1F
100
AcDbEntity
  8
0
100
AcDbBlockBegin
  2
*MODEL_SPACE
 70
     0
 10
0.0
 20
0.0
 30
0.0
  3
*MODEL_SPACE
  1

  0
ENDBLK
  5
21
330
1F
100
AcDbEntity
  8
0
100
AcDbBlockEnd
  0
BLOCK
  5
1C
330
1B
100
AcDbEntity
 67
     1
  8
0
100
AcDbBlockBegin
  2
*PAPER_SPACE
  1

  0
ENDBLK
  5
1D
330
1B
100
AcDbEntity
 67
     1
  8
0
100
AcDbBlockEnd
  0
ENDSEC
  0
SECTION
  2
ENTITIES
  0
SPLINE
  5
100
100
AcDbEntity
  8
0
 62
3
100
AcDbSpline
 70
8
 71
3
 72
8
 73
4
 74
0
 40
0
 40
0
 40
0
 40
0
 40
1
 40
1
 40
1
 40
1
 10
204.958477
 20
328.309995
 30
0.0
 10
204.074840
 20
328.309995
 30
0.0
 10
203.358491
 20
327.593638
 30
0.0
 10
203.358491
 20
326.709985
 30
0.0
  0
LWPOLYLINE
  5
101
100
AcDbEntity
  8
0
 62
3
100
AcDbPolyline
 90
2
 70
0
 10
60.071259
 20
305.010621
 30
0.0
 10
280.468920
 20
305.010621
 30
0.0
  0
LWPOLYLINE
  5
102
100
AcDbEntity
  8
0
 62
3
100
AcDbPolyline
 90
2
 70
0
 10
129.974443
 20
284.810556
 30
0.0
 10
210.131819
 20
284.810556
 30
0.0
  0
LWPOLYLINE
  5
103
100
AcDbEntity
  8
0
 62
3
100
AcDbPolyline
 90
2
 70
0
 10
290.462233
 20
289.810546
 30
0.0
 10
290.470171
 20
289.810546
 30
0.0
  0
SPLINE
  5
104
100
AcDbEntity
  8
0
 62
3
100
AcDbSpline
 70
8
 71
3
 72
8
 73
4
 74
0
 40
0
 40
0
 40
0
 40
0
 40
1
 40
1
 40
1
 40
1
 10
204.958477
 20
325.109997
 30
0.0
 10
205.842146
 20
325.109997
 30
0.0
 10
206.558497
 20
325.826330
 30
0.0
 10
206.558497
 20
326.709985
 30
0.0
  0
LWPOLYLINE
  5
105
100
AcDbEntity
  8
0
 62
3
100
AcDbPolyline
 90
4
 70
0
 10
234.974343
 20
289.810546
 30
0.0
 10
234.974343
 20
284.810556
 30
0.0
 10
290.462233
 20
284.810556
 30
0.0
 10
290.462233
 20
289.810546
 30
0.0
  0
LWPOLYLINE
  5
106
100
AcDbEntity
  8
0
 62
3
100
AcDbPolyline
 90
2
 70
0
 10
129.974443
 20
289.810546
 30
0.0
 10
129.974443
 20
284.810556
 30
0.0
  0
LWPOLYLINE
  5
107
100
AcDbEntity
  8
0
 62
3
100
AcDbPolyline
 90
2
 70
0
 10
105.132184
 20
289.810546
 30
0.0
 10
129.974443
 20
289.810546
 30
0.0
  0
LWPOLYLINE
  5
108
100
AcDbEntity
  8
0
 62
3
100
AcDbPolyline
 90
2
 70
0
 10
210.131819
 20
284.810556
 30
0.0
 10
210.131819
 20
289.810546
 30
0.0
  0
SPLINE
  5
109
100
AcDbEntity
  8
0
 62
3
100
AcDbSpline
 70
8
 71
3
 72
8
 73
4
 74
0
 40
0
 40
0
 40
0
 40
0
 40
1
 40
1
 40
1
 40
1
 10
203.358491
 20
326.709985
 30
0.0
 10
203.358491
 20
325.826330
 30
0.0
 10
204.074840
 20
325.109997
 30
0.0
 10
204.958477
 20
325.109997
 30
0.0
  0
SPLINE
  5
10a
100
AcDbEntity
  8
0
 62
3
100
AcDbSpline
 70
8
 71
3
 72
8
 73
4
 74
0
 40
0
 40
0
 40
0
 40
0
 40
1
 40
1
 40
1
 40
1
 10
60.071378
 20
305.010619
 30
0.0
 10
54.548547
 20
305.010619
 30
0.0
 10
50.071419
 20
300.533455
 30
0.0
 10
50.071419
 20
295.010632
 30
0.0
  0
SPLINE
  5
10b
100
AcDbEntity
  8
0
 62
3
100
AcDbSpline
 70
8
 71
3
 72
8
 73
4
 74
0
 40
0
 40
0
 40
0
 40
0
 40
1
 40
1
 40
1
 40
1
 10
12.731480
 20
81.371264
 30
0.0
 10
12.731480
 20
80.432392
 30
0.0
 10
11.970363
 20
79.671268
 30
0.0
 10
11.031482
 20
79.671268
 30
0.0
  0
LWPOLYLINE
  5
10c
100
AcDbEntity
  8
0
 62
3
100
AcDbPolyline
 90
2
 70
0
 10
50.071331
 20
295.010633
 30
0.0
 10
50.071331
 20
284.810556
 30
0.0
  0
LWPOLYLINE
  5
10d
100
AcDbEntity
  8
0
 62
3
100
AcDbPolyline
 90
2
 70
0
 10
105.132184
 20
284.810556
 30
0.0
 10
105.132184
 20
289.810546
 30
0.0
  0
SPLINE
  5
10e
100
AcDbEntity
  8
0
 62
3
100
AcDbSpline
 70
8
 71
3
 72
8
 73
4
 74
0
 40
0
 40
0
 40
0
 40
0
 40
1
 40
1
 40
1
 40
1
 10
206.558497
 20
326.709985
 30
0.0
 10
206.558497
 20
327.593638
 30
0.0
 10
205.842146
 20
328.309995
 30
0.0
 10
204.958477
 20
328.309995
 30
0.0
  0
SPLINE
  5
10f
100
AcDbEntity
  8
0
 62
3
100
AcDbSpline
 70
8
 71
3
 72
8
 73
4
 74
0
 40
0
 40
0
 40
0
 40
0
 40
1
 40
1
 40
1
 40
1
 10
331.102764
 20
83.023425
 30
0.0
 10
332.041638
 20
83.023425
 30
0.0
 10
332.802765
 20
82.262327
 30
0.0
 10
332.802765
 20
81.323427
 30
0.0
  0
SPLINE
  5
110
100
AcDbEntity
  8
0
 62
3
100
AcDbSpline
 70
8
 71
3
 72
8
 73
4
 74
0
 40
0
 40
0
 40
0
 40
0
 40
1
 40
1
 40
1
 40
1
 10
332.802765
 20
81.323427
 30
0.0
 10
332.802765
 20
80.384556
 30
0.0
 10
332.041638
 20
79.623429
 30
0.0
 10
331.102764
 20
79.623429
 30
0.0
  0
SPLINE
  5
111
100
AcDbEntity
  8
0
 62
3
100
AcDbSpline
 70
8
 71
3
 72
8
 73
4
 74
0
 40
0
 40
0
 40
0
 40
0
 40
1
 40
1
 40
1
 40
1
 10
332.802765
 20
101.245960
 30
0.0
 10
332.802765
 20
100.307089
 30
0.0
 10
332.041638
 20
99.545962
 30
0.0
 10
331.102764
 20
99.545962
 30
0.0
  0
SPLINE
  5
112
100
AcDbEntity
  8
0
 62
3
100
AcDbSpline
 70
8
 71
3
 72
8
 73
4
 74
0
 40
0
 40
0
 40
0
 40
0
 40
1
 40
1
 40
1
 40
1
 10
280.469979
 20
305.010619
 30
0.0
 10
285.992786
 20
305.010619
 30
0.0
 10
290.469933
 20
300.533455
 30
0.0
 10
290.469933
 20
295.010632
 30
0.0
  0
SPLINE
  5
113
100
AcDbEntity
  8
0
 62
3
100
AcDbSpline
 70
8
 71
3
 72
8
 73
4
 74
0
 40
0
 40
0
 40
0
 40
0
 40
1
 40
1
 40
1
 40
1
 10
331.102764
 20
79.623429
 30
0.0
 10
330.163890
 20
79.623429
 30
0.0
 10
329.402763
 20
80.384556
 30
0.0
 10
329.402763
 20
81.323427
 30
0.0
  0
SPLINE
  5
114
100
AcDbEntity
  8
0
 62
3
100
AcDbSpline
 70
8
 71
3
 72
8
 73
4
 74
0
 40
0
 40
0
 40
0
 40
0
 40
1
 40
1
 40
1
 40
1
 10
331.102764
 20
102.945956
 30
0.0
 10
332.041638
 20
102.945956
 30
0.0
 10
332.802765
 20
102.184831
 30
0.0
 10
332.802765
 20
101.245960
 30
0.0
  0
SPLINE
  5
115
100
AcDbEntity
  8
0
 62
3
100
AcDbSpline
 70
8
 71
3
 72
8
 73
4
 74
0
 40
0
 40
0
 40
0
 40
0
 40
1
 40
1
 40
1
 40
1
 10
12.731480
 20
101.293797
 30
0.0
 10
12.731480
 20
100.354923
 30
0.0
 10
11.970363
 20
99.593798
 30
0.0
 10
11.031482
 20
99.593798
 30
0.0
  0
SPLINE
  5
116
100
AcDbEntity
  8
0
 62
3
100
AcDbSpline
 70
8
 71
3
 72
8
 73
4
 74
0
 40
0
 40
0
 40
0
 40
0
 40
1
 40
1
 40
1
 40
1
 10
11.031482
 20
99.593798
 30
0.0
 10
10.092601
 20
99.593798
 30
0.0
 10
9.331485
 20
100.354923
 30
0.0
 10
9.331485
 20
101.293797
 30
0.0
  0
SPLINE
  5
117
100
AcDbEntity
  8
0
 62
3
100
AcDbSpline
 70
8
 71
3
 72
8
 73
4
 74
0
 40
0
 40
0
 40
0
 40
0
 40
1
 40
1
 40
1
 40
1
 10
11.031482
 20
83.071262
 30
0.0
 10
11.970363
 20
83.071262
 30
0.0
 10
12.731480
 20
82.310161
 30
0.0
 10
12.731480
 20
81.371264
 30
0.0
  0
SPLINE
  5
118
100
AcDbEntity
  8
0
 62
3
100
AcDbSpline
 70
8
 71
3
 72
8
 73
4
 74
0
 40
0
 40
0
 40
0
 40
0
 40
1
 40
1
 40
1
 40
1
 10
11.031482
 20
102.993792
 30
0.0
 10
11.970363
 20
102.993792
 30
0.0
 10
12.731480
 20
102.232668
 30
0.0
 10
12.731480
 20
101.293797
 30
0.0
  0
LWPOLYLINE
  5
119
100
AcDbEntity
  8
0
 62
3
100
AcDbPolyline
 90
2
 70
0
 10
210.131819
 20
289.810546
 30
0.0
 10
234.974343
 20
289.810546
 30
0.0
  0
SPLINE
  5
11a
100
AcDbEntity
  8
0
 62
3
100
AcDbSpline
 70
8
 71
3
 72
8
 73
4
 74
0
 40
0
 40
0
 40
0
 40
0
 40
1
 40
1
 40
1
 40
1
 10
11.031482
 20
79.671268
 30
0.0
 10
10.092601
 20
79.671268
 30
0.0
 10
9.331485
 20
80.432392
 30
0.0
 10
9.331485
 20
81.371264
 30
0.0
  0
SPLINE
  5
11b
100
AcDbEntity
  8
0
 62
3
100
AcDbSpline
 70
8
 71
3
 72
8
 73
4
 74
0
 40
0
 40
0
 40
0
 40
0
 40
1
 40
1
 40
1
 40
1
 10
329.402763
 20
81.323427
 30
0.0
 10
329.402763
 20
82.262327
 30
0.0
 10
330.163890
 20
83.023425
 30
0.0
 10
331.102764
 20
83.023425
 30
0.0
  0
SPLINE
  5
11c
100
AcDbEntity
  8
0
 62
3
100
AcDbSpline
 70
8
 71
3
 72
8
 73
4
 74
0
 40
0
 40
0
 40
0
 40
0
 40
1
 40
1
 40
1
 40
1
 10
9.331485
 20
81.371264
 30
0.0
 10
9.331485
 20
82.310161
 30
0.0
 10
10.092601
 20
83.071262
 30
0.0
 10
11.031482
 20
83.071262
 30
0.0
  0
LWPOLYLINE
  5
11d
100
AcDbEntity
  8
0
 62
3
100
AcDbPolyline
 90
2
 70
0
 10
290.470171
 20
295.010633
 30
0.0
 10
290.470171
 20
289.810546
 30
0.0
  0
SPLINE
  5
11e
100
AcDbEntity
  8
0
 62
3
100
AcDbSpline
 70
8
 71
3
 72
8
 73
4
 74
0
 40
0
 40
0
 40
0
 40
0
 40
1
 40
1
 40
1
 40
1
 10
9.331485
 20
101.293797
 30
0.0
 10
9.331485
 20
102.232668
 30
0.0
 10
10.092601
 20
102.993792
 30
0.0
 10
11.031482
 20
102.993792
 30
0.0
  0
SPLINE
  5
11f
100
AcDbEntity
  8
0
 62
3
100
AcDbSpline
 70
8
 71
3
 72
8
 73
4
 74
0
 40
0
 40
0
 40
0
 40
0
 40
1
 40
1
 40
1
 40
1
 10
331.102764
 20
99.545962
 30
0.0
 10
330.163890
 20
99.545962
 30
0.0
 10
329.402763
 20
100.307089
 30
0.0
 10
329.402763
 20
101.245960
 30
0.0
  0
SPLINE
  5
120
100
AcDbEntity
  8
0
 62
3
100
AcDbSpline
 70
8
 71
3
 72
8
 73
4
 74
0
 40
0
 40
0
 40
0
 40
0
 40
1
 40
1
 40
1
 40
1
 10
329.402763
 20
101.245960
 30
0.0
 10
329.402763
 20
102.184831
 30
0.0
 10
330.163890
 20
102.945956
 30
0.0
 10
331.102764
 20
102.945956
 30
0.0
  0
LWPOLYLINE
  5
121
100
AcDbEntity
  8
0
 62
3
100
AcDbPolyline
 90
2
 70
0
 10
50.071331
 20
284.810556
 30
0.0
 10
105.132184
 20
284.810556
 30
0.0
  0
LWPOLYLINE
  5
122
100
AcDbEntity
  8
0
 62
7
100
AcDbPolyline
 90
4
 70
1
 10
6.031502
 20
0.132318
 30
0.0
 10
6.031502
 20
150.132003
 30
0.0
 10
336.030893
 20
150.132003
 30
0.0
 10
336.030893
 20
0.132318
 30
0.0
  0
LWPOLYLINE
  5
123
100
AcDbEntity
  8
0
 62
7
100
AcDbPolyline
 90
2
 70
0
 10
370.056841
 20
350.935516
 30
0.0
 10
398.057696
 20
350.935516
 30
0.0
  0
LWPOLYLINE
  5
124
100
AcDbEntity
  8
0
 62
7
100
AcDbPolyline
 90
2
 70
0
 10
447.722636
 20
345.935420
 30
0.0
 10
469.389366
 20
345.935420
 30
0.0
  0
LWPOLYLINE
  5
125
100
AcDbEntity
  8
0
 62
7
100
AcDbPolyline
 90
2
 70
0
 10
347.056611
 20
330.935397
 30
0.0
 10
347.056611
 20
345.935420
 30
0.0
  0
LWPOLYLINE
  5
126
100
AcDbEntity
  8
0
 62
7
100
AcDbPolyline
 90
2
 70
0
 10
497.390221
 20
345.935420
 30
0.0
 10
519.056951
 20
345.935420
 30
0.0
  0
LWPOLYLINE
  5
127
100
AcDbEntity
  8
0
 62
7
100
AcDbPolyline
 90
2
 70
0
 10
469.389366
 20
350.935516
 30
0.0
 10
469.389366
 20
345.935420
 30
0.0
  0
LWPOLYLINE
  5
128
100
AcDbEntity
  8
0
 62
7
100
AcDbPolyline
 90
2
 70
0
 10
554.056036
 20
200.935810
 30
0.0
 10
554.056036
 20
350.935516
 30
0.0
  0
LWPOLYLINE
  5
129
100
AcDbEntity
  8
0
 62
7
100
AcDbPolyline
 90
2
 70
0
 10
398.057696
 20
345.935420
 30
0.0
 10
419.724426
 20
345.935420
 30
0.0
  0
LWPOLYLINE
  5
12a
100
AcDbEntity
  8
0
 62
7
100
AcDbPolyline
 90
2
 70
0
 10
469.389366
 20
350.935516
 30
0.0
 10
497.390221
 20
350.935516
 30
0.0
  0
LWPOLYLINE
  5
12b
100
AcDbEntity
  8
0
 62
7
100
AcDbPolyline
 90
2
 70
0
 10
370.056841
 20
345.935420
 30
0.0
 10
370.056841
 20
350.935516
 30
0.0
  0
LWPOLYLINE
  5
12c
100
AcDbEntity
  8
0
 62
7
100
AcDbPolyline
 90
2
 70
0
 10
347.056611
 20
345.935420
 30
0.0
 10
370.056841
 20
345.935420
 30
0.0
  0
LWPOLYLINE
  5
12d
100
AcDbEntity
  8
0
 62
7
100
AcDbPolyline
 90
2
 70
0
 10
398.057696
 20
205.935642
 30
0.0
 10
398.057696
 20
200.935810
 30
0.0
  0
LWPOLYLINE
  5
12e
100
AcDbEntity
  8
0
 62
7
100
AcDbPolyline
 90
2
 70
0
 10
347.056611
 20
205.935642
 30
0.0
 10
347.056611
 20
220.935665
 30
0.0
  0
LWPOLYLINE
  5
12f
100
AcDbEntity
  8
0
 62
7
100
AcDbPolyline
 90
2
 70
0
 10
352.057236
 20
285.935564
 30
0.0
 10
357.057861
 20
285.935564
 30
0.0
  0
LWPOLYLINE
  5
130
100
AcDbEntity
  8
0
 62
7
100
AcDbPolyline
 90
2
 70
0
 10
447.722636
 20
345.935420
 30
0.0
 10
447.722636
 20
350.935516
 30
0.0
  0
LWPOLYLINE
  5
131
100
AcDbEntity
  8
0
 62
7
100
AcDbPolyline
 90
2
 70
0
 10
398.057696
 20
350.935516
 30
0.0
 10
398.057696
 20
345.935420
 30
0.0
  0
LWPOLYLINE
  5
132
100
AcDbEntity
  8
0
 62
7
100
AcDbPolyline
 90
2
 70
0
 10
497.390221
 20
350.935516
 30
0.0
 10
497.390221
 20
345.935420
 30
0.0
  0
LWPOLYLINE
  5
133
100
AcDbEntity
  8
0
 62
7
100
AcDbPolyline
 90
2
 70
0
 10
519.056951
 20
350.935516
 30
0.0
 10
554.056036
 20
350.935516
 30
0.0
  0
SPLINE
  5
134
100
AcDbEntity
  8
0
 62
7
100
AcDbSpline
 70
8
 71
3
 72
8
 73
4
 74
0
 40
0
 40
0
 40
0
 40
0
 40
1
 40
1
 40
1
 40
1
 10
352.056601
 20
225.935700
 30
0.0
 10
349.295197
 20
225.935700
 30
0.0
 10
347.056637
 20
223.697119
 30
0.0
 10
347.056637
 20
220.935694
 30
0.0
  0
SPLINE
  5
135
100
AcDbEntity
  8
0
 62
7
100
AcDbSpline
 70
8
 71
3
 72
8
 73
4
 74
0
 40
0
 40
0
 40
0
 40
0
 40
1
 40
1
 40
1
 40
1
 10
352.056601
 20
325.935497
 30
0.0
 10
349.295197
 20
325.935497
 30
0.0
 10
347.056637
 20
328.174078
 30
0.0
 10
347.056637
 20
330.935505
 30
0.0
  0
LWPOLYLINE
  5
136
100
AcDbEntity
  8
0
 62
7
100
AcDbPolyline
 90
2
 70
0
 10
447.722636
 20
350.935516
 30
0.0
 10
419.724426
 20
350.935516
 30
0.0
  0
LWPOLYLINE
  5
137
100
AcDbEntity
  8
0
 62
7
100
AcDbPolyline
 90
2
 70
0
 10
352.057236
 20
225.935761
 30
0.0
 10
357.057861
 20
225.935761
 30
0.0
  0
LWPOLYLINE
  5
138
100
AcDbEntity
  8
0
 62
7
100
AcDbPolyline
 90
2
 70
0
 10
424.722406
 20
205.935642
 30
0.0
 10
424.722406
 20
200.935810
 30
0.0
  0
LWPOLYLINE
  5
139
100
AcDbEntity
  8
0
 62
7
100
AcDbPolyline
 90
2
 70
0
 10
357.057861
 20
285.935564
 30
0.0
 10
357.057861
 20
325.935565
 30
0.0
  0
LWPOLYLINE
  5
13a
100
AcDbEntity
  8
0
 62
7
100
AcDbPolyline
 90
2
 70
0
 10
424.722406
 20
200.935810
 30
0.0
 10
447.722636
 20
200.935810
 30
0.0
  0
LWPOLYLINE
  5
13b
100
AcDbEntity
  8
0
 62
7
100
AcDbPolyline
 90
2
 70
0
 10
357.057861
 20
325.935565
 30
0.0
 10
352.057236
 20
325.935565
 30
0.0
  0
LWPOLYLINE
  5
13c
100
AcDbEntity
  8
0
 62
7
100
AcDbPolyline
 90
2
 70
0
 10
519.056951
 20
350.935516
 30
0.0
 10
519.056951
 20
345.935420
 30
0.0
  0
LWPOLYLINE
  5
13d
100
AcDbEntity
  8
0
 62
7
100
AcDbPolyline
 90
2
 70
0
 10
419.724426
 20
350.935516
 30
0.0
 10
419.724426
 20
345.935420
 30
0.0
  0
LWPOLYLINE
  5
13e
100
AcDbEntity
  8
0
 62
7
100
AcDbPolyline
 90
2
 70
0
 10
370.056841
 20
200.935810
 30
0.0
 10
370.056841
 20
205.935642
 30
0.0
  0
LWPOLYLINE
  5
13f
100
AcDbEntity
  8
0
 62
7
100
AcDbPolyline
 90
2
 70
0
 10
497.390221
 20
200.935810
 30
0.0
 10
497.390221
 20
205.935642
 30
0.0
  0
LWPOLYLINE
  5
140
100
AcDbEntity
  8
0
 62
7
100
AcDbPolyline
 90
2
 70
0
 10
469.389366
 20
205.935642
 30
0.0
 10
469.389366
 20
200.935810
 30
0.0
  0
SPLINE
  5
141
100
AcDbEntity
  8
0
 62
3
100
AcDbSpline
 70
8
 71
3
 72
8
 73
4
 74
0
 40
0
 40
0
 40
0
 40
0
 40
1
 40
1
 40
1
 40
1
 10
525.129906
 20
247.216205
 30
0.0
 10
525.129906
 20
246.277331
 30
0.0
 10
525.891033
 20
245.516207
 30
0.0
 10
526.829907
 20
245.516207
 30
0.0
  0
LWPOLYLINE
  5
142
100
AcDbEntity
  8
0
 62
7
100
AcDbPolyline
 90
2
 70
0
 10
0.132292
 20
177.810697
 30
0.0
 10
5.132274
 20
177.810697
 30
0.0
  0
LWPOLYLINE
  5
143
100
AcDbEntity
  8
0
 62
7
100
AcDbPolyline
 90
2
 70
0
 10
0.132292
 20
255.477285
 30
0.0
 10
0.132292
 20
277.143910
 30
0.0
  0
LWPOLYLINE
  5
144
100
AcDbEntity
  8
0
 62
7
100
AcDbPolyline
 90
2
 70
0
 10
357.057861
 20
255.935544
 30
0.0
 10
352.057236
 20
255.935544
 30
0.0
  0
LWPOLYLINE
  5
145
100
AcDbEntity
  8
0
 62
7
100
AcDbPolyline
 90
2
 70
0
 10
447.722636
 20
205.935642
 30
0.0
 10
447.722636
 20
200.935810
 30
0.0
  0
LWPOLYLINE
  5
146
100
AcDbEntity
  8
0
 62
7
100
AcDbPolyline
 90
2
 70
0
 10
5.132274
 20
205.810758
 30
0.0
 10
0.132292
 20
205.810758
 30
0.0
  0
LWPOLYLINE
  5
147
100
AcDbEntity
  8
0
 62
7
100
AcDbPolyline
 90
2
 70
0
 10
5.132274
 20
177.810697
 30
0.0
 10
5.132274
 20
205.810758
 30
0.0
  0
LWPOLYLINE
  5
148
100
AcDbEntity
  8
0
 62
7
100
AcDbPolyline
 90
2
 70
0
 10
240.950752
 20
164.810923
 30
0.0
 10
315.949547
 20
164.810923
 30
0.0
  0
LWPOLYLINE
  5
149
100
AcDbEntity
  8
0
 62
7
100
AcDbPolyline
 90
2
 70
0
 10
519.056951
 20
205.935642
 30
0.0
 10
519.056951
 20
200.935810
 30
0.0
  0
LWPOLYLINE
  5
14a
100
AcDbEntity
  8
0
 62
7
100
AcDbPolyline
 90
2
 70
0
 10
205.053142
 20
159.810827
 30
0.0
 10
240.950752
 20
159.810827
 30
0.0
  0
LWPOLYLINE
  5
14b
100
AcDbEntity
  8
0
 62
7
100
AcDbPolyline
 90
2
 70
0
 10
20.132244
 20
154.810731
 30
0.0
 10
0.132292
 20
154.810731
 30
0.0
  0
LWPOLYLINE
  5
14c
100
AcDbEntity
  8
0
 62
7
100
AcDbPolyline
 90
2
 70
0
 10
138.509902
 20
164.810923
 30
0.0
 10
205.053142
 20
164.810923
 30
0.0
  0
LWPOLYLINE
  5
14d
100
AcDbEntity
  8
0
 62
7
100
AcDbPolyline
 90
2
 70
0
 10
370.056841
 20
200.935810
 30
0.0
 10
398.057696
 20
200.935810
 30
0.0
  0
SPLINE
  5
14e
100
AcDbEntity
  8
0
 62
3
100
AcDbSpline
 70
8
 71
3
 72
8
 73
4
 74
0
 40
0
 40
0
 40
0
 40
0
 40
1
 40
1
 40
1
 40
1
 10
526.829907
 20
248.916201
 30
0.0
 10
525.891033
 20
248.916201
 30
0.0
 10
525.129906
 20
248.155076
 30
0.0
 10
525.129906
 20
247.216205
 30
0.0
  0
LWPOLYLINE
  5
14f
100
AcDbEntity
  8
0
 62
7
100
AcDbPolyline
 90
2
 70
0
 10
0.132292
 20
227.477224
 30
0.0
 10
5.132274
 20
227.477224
 30
0.0
  0
LWPOLYLINE
  5
150
100
AcDbEntity
  8
0
 62
7
100
AcDbPolyline
 90
2
 70
0
 10
370.056841
 20
205.935642
 30
0.0
 10
347.056611
 20
205.935642
 30
0.0
  0
LWPOLYLINE
  5
151
100
AcDbEntity
  8
0
 62
7
100
AcDbPolyline
 90
2
 70
0
 10
352.057236
 20
255.935544
 30
0.0
 10
352.057236
 20
285.935564
 30
0.0
  0
LWPOLYLINE
  5
152
100
AcDbEntity
  8
0
 62
7
100
AcDbPolyline
 90
2
 70
0
 10
497.390221
 20
205.935642
 30
0.0
 10
519.056951
 20
205.935642
 30
0.0
  0
LWPOLYLINE
  5
153
100
AcDbEntity
  8
0
 62
7
100
AcDbPolyline
 90
2
 70
0
 10
99.312938
 20
164.801134
 30
0.0
 10
23.813075
 20
164.801134
 30
0.0
  0
LWPOLYLINE
  5
154
100
AcDbEntity
  8
0
 62
7
100
AcDbPolyline
 90
2
 70
0
 10
469.389366
 20
200.935810
 30
0.0
 10
497.390221
 20
200.935810
 30
0.0
  0
LWPOLYLINE
  5
155
100
AcDbEntity
  8
0
 62
7
100
AcDbPolyline
 90
2
 70
0
 10
0.132292
 20
205.810758
 30
0.0
 10
0.132292
 20
227.477224
 30
0.0
  0
LWPOLYLINE
  5
156
100
AcDbEntity
  8
0
 62
7
100
AcDbPolyline
 90
2
 70
0
 10
99.312938
 20
164.801134
 30
0.0
 10
99.312938
 20
159.810827
 30
0.0
  0
LWPOLYLINE
  5
157
100
AcDbEntity
  8
0
 62
7
100
AcDbPolyline
 90
2
 70
0
 10
205.053142
 20
159.810827
 30
0.0
 10
205.053142
 20
164.810923
 30
0.0
  0
LWPOLYLINE
  5
158
100
AcDbEntity
  8
0
 62
7
100
AcDbPolyline
 90
2
 70
0
 10
398.057696
 20
205.935642
 30
0.0
 10
424.722406
 20
205.935642
 30
0.0
  0
LWPOLYLINE
  5
159
100
AcDbEntity
  8
0
 62
7
100
AcDbPolyline
 90
2
 70
0
 10
447.722636
 20
205.935642
 30
0.0
 10
469.389366
 20
205.935642
 30
0.0
  0
SPLINE
  5
15a
100
AcDbEntity
  8
0
 62
3
100
AcDbSpline
 70
8
 71
3
 72
8
 73
4
 74
0
 40
0
 40
0
 40
0
 40
0
 40
1
 40
1
 40
1
 40
1
 10
528.529908
 20
247.216205
 30
0.0
 10
528.529908
 20
248.155076
 30
0.0
 10
527.768808
 20
248.916201
 30
0.0
 10
526.829907
 20
248.916201
 30
0.0
  0
SPLINE
  5
15b
100
AcDbEntity
  8
0
 62
3
100
AcDbSpline
 70
8
 71
3
 72
8
 73
4
 74
0
 40
0
 40
0
 40
0
 40
0
 40
1
 40
1
 40
1
 40
1
 10
526.829907
 20
245.516207
 30
0.0
 10
527.768808
 20
245.516207
 30
0.0
 10
528.529908
 20
246.277331
 30
0.0
 10
528.529908
 20
247.216205
 30
0.0
  0
LWPOLYLINE
  5
15c
100
AcDbEntity
  8
0
 62
7
100
AcDbPolyline
 90
2
 70
0
 10
357.057861
 20
225.935761
 30
0.0
 10
357.057861
 20
255.935544
 30
0.0
  0
LWPOLYLINE
  5
15d
100
AcDbEntity
  8
0
 62
7
100
AcDbPolyline
 90
2
 70
0
 10
519.056951
 20
200.935810
 30
0.0
 10
554.056036
 20
200.935810
 30
0.0
  0
LWPOLYLINE
  5
15e
100
AcDbEntity
  8
0
 62
7
100
AcDbPolyline
 90
2
 70
0
 10
240.950752
 20
159.810827
 30
0.0
 10
240.950752
 20
164.810923
 30
0.0
  0
LWPOLYLINE
  5
15f
100
AcDbEntity
  8
0
 62
7
100
AcDbPolyline
 90
2
 70
0
 10
5.132274
 20
227.477224
 30
0.0
 10
5.132274
 20
255.477285
 30
0.0
  0
LWPOLYLINE
  5
160
100
AcDbEntity
  8
0
 62
7
100
AcDbPolyline
 90
2
 70
0
 10
138.509902
 20
164.810923
 30
0.0
 10
138.509902
 20
159.810827
 30
0.0
  0
LWPOLYLINE
  5
161
100
AcDbEntity
  8
0
 62
7
100
AcDbPolyline
 90
2
 70
0
 10
335.131839
 20
255.477285
 30
0.0
 10
340.132465
 20
255.477285
 30
0.0
  0
LWPOLYLINE
  5
162
100
AcDbEntity
  8
0
 62
7
100
AcDbPolyline
 90
2
 70
0
 10
335.131839
 20
305.143865
 30
0.0
 10
340.132465
 20
305.143865
 30
0.0
  0
LWPOLYLINE
  5
163
100
AcDbEntity
  8
0
 62
7
100
AcDbPolyline
 90
2
 70
0
 10
335.131839
 20
205.810758
 30
0.0
 10
335.131839
 20
177.810697
 30
0.0
  0
LWPOLYLINE
  5
164
100
AcDbEntity
  8
0
 62
7
100
AcDbPolyline
 90
2
 70
0
 10
0.132292
 20
177.810697
 30
0.0
 10
0.132292
 20
154.810731
 30
0.0
  0
LWPOLYLINE
  5
165
100
AcDbEntity
  8
0
 62
7
100
AcDbPolyline
 90
2
 70
0
 10
340.132465
 20
227.477224
 30
0.0
 10
340.132465
 20
205.810758
 30
0.0
  0
LWPOLYLINE
  5
166
100
AcDbEntity
  8
0
 62
7
100
AcDbPolyline
 90
2
 70
0
 10
340.132465
 20
277.143910
 30
0.0
 10
335.131839
 20
277.143910
 30
0.0
  0
LWPOLYLINE
  5
167
100
AcDbEntity
  8
0
 62
7
100
AcDbPolyline
 90
2
 70
0
 10
99.312938
 20
159.810827
 30
0.0
 10
138.509902
 20
159.810827
 30
0.0
  0
LWPOLYLINE
  5
168
100
AcDbEntity
  8
0
 62
7
100
AcDbPolyline
 90
2
 70
0
 10
335.131839
 20
255.477285
 30
0.0
 10
335.131839
 20
227.477224
 30
0.0
  0
LWPOLYLINE
  5
169
100
AcDbEntity
  8
0
 62
7
100
AcDbPolyline
 90
2
 70
0
 10
315.949547
 20
159.810827
 30
0.0
 10
315.949547
 20
164.810923
 30
0.0
  0
LWPOLYLINE
  5
16a
100
AcDbEntity
  8
0
 62
7
100
AcDbPolyline
 90
2
 70
0
 10
335.131839
 20
227.477224
 30
0.0
 10
340.132465
 20
227.477224
 30
0.0
  0
LWPOLYLINE
  5
16b
100
AcDbEntity
  8
0
 62
7
100
AcDbPolyline
 90
2
 70
0
 10
335.131839
 20
326.810543
 30
0.0
 10
340.132465
 20
326.810543
 30
0.0
  0
LWPOLYLINE
  5
16c
100
AcDbEntity
  8
0
 62
7
100
AcDbPolyline
 90
2
 70
0
 10
335.131839
 20
277.143910
 30
0.0
 10
335.131839
 20
305.143865
 30
0.0
  0
LWPOLYLINE
  5
16d
100
AcDbEntity
  8
0
 62
7
100
AcDbPolyline
 90
2
 70
0
 10
340.132465
 20
205.810758
 30
0.0
 10
335.131839
 20
205.810758
 30
0.0
  0
LWPOLYLINE
  5
16e
100
AcDbEntity
  8
0
 62
7
100
AcDbPolyline
 90
2
 70
0
 10
340.132465
 20
154.810731
 30
0.0
 10
340.132465
 20
177.810697
 30
0.0
  0
LWPOLYLINE
  5
16f
100
AcDbEntity
  8
0
 62
7
100
AcDbPolyline
 90
2
 70
0
 10
335.131839
 20
177.810697
 30
0.0
 10
340.132465
 20
177.810697
 30
0.0
  0
LWPOLYLINE
  5
170
100
AcDbEntity
  8
0
 62
7
100
AcDbPolyline
 90
2
 70
0
 10
340.132465
 20
305.143865
 30
0.0
 10
340.132465
 20
326.810543
 30
0.0
  0
LWPOLYLINE
  5
171
100
AcDbEntity
  8
0
 62
7
100
AcDbPolyline
 90
2
 70
0
 10
5.132274
 20
255.477285
 30
0.0
 10
0.132292
 20
255.477285
 30
0.0
  0
LWPOLYLINE
  5
172
100
AcDbEntity
  8
0
 62
7
100
AcDbPolyline
 90
2
 70
0
 10
340.132465
 20
255.477285
 30
0.0
 10
340.132465
 20
277.143910
 30
0.0
  0
LWPOLYLINE
  5
173
100
AcDbEntity
  8
0
 62
7
100
AcDbPolyline
 90
2
 70
0
 10
23.813075
 20
159.810827
 30
0.0
 10
23.813075
 20
164.801134
 30
0.0
  0
LWPOLYLINE
  5
174
100
AcDbEntity
  8
0
 62
7
100
AcDbPolyline
 90
2
 70
0
 10
340.132465
 20
154.810731
 30
0.0
 10
320.132609
 20
154.810731
 30
0.0
  0
LWPOLYLINE
  5
175
100
AcDbEntity
  8
0
 62
7
100
AcDbPolyline
 90
3
 70
0
 10
0.132292
 20
326.810543
 30
0.0
 10
5.132274
 20
326.810543
 30
0.0
 10
5.132274
 20
356.810325
 30
0.0
  0
LWPOLYLINE
  5
176
100
AcDbEntity
  8
0
 62
7
100
AcDbPolyline
 90
3
 70
0
 10
5.132274
 20
305.143865
 30
0.0
 10
5.132274
 20
277.143910
 30
0.0
 10
0.132292
 20
277.143910
 30
0.0
  0
LWPOLYLINE
  5
177
100
AcDbEntity
  8
0
 62
7
100
AcDbPolyline
 90
2
 70
0
 10
335.131839
 20
356.810325
 30
0.0
 10
5.132274
 20
356.810325
 30
0.0
  0
LWPOLYLINE
  5
178
100
AcDbEntity
  8
0
 62
7
100
AcDbPolyline
 90
2
 70
0
 10
0.132292
 20
305.143865
 30
0.0
 10
5.132274
 20
305.143865
 30
0.0
  0
SPLINE
  5
179
100
AcDbEntity
  8
0
 62
3
100
AcDbSpline
 70
8
 71
3
 72
8
 73
4
 74
0
 40
0
 40
0
 40
0
 40
0
 40
1
 40
1
 40
1
 40
1
 10
440.019477
 20
74.428583
 30
0.0
 10
440.019477
 20
72.109013
 30
0.0
 10
441.899871
 20
70.228595
 30
0.0
 10
444.219473
 20
70.228595
 30
0.0
  0
SPLINE
  5
17a
100
AcDbEntity
  8
0
 62
3
100
AcDbSpline
 70
8
 71
3
 72
8
 73
4
 74
0
 40
0
 40
0
 40
0
 40
0
 40
1
 40
1
 40
1
 40
1
 10
525.129906
 20
281.216129
 30
0.0
 10
525.129906
 20
280.277231
 30
0.0
 10
525.891033
 20
279.516132
 30
0.0
 10
526.829907
 20
279.516132
 30
0.0
  0
SPLINE
  5
17b
100
AcDbEntity
  8
0
 62
3
100
AcDbSpline
 70
8
 71
3
 72
8
 73
4
 74
0
 40
0
 40
0
 40
0
 40
0
 40
1
 40
1
 40
1
 40
1
 10
516.912688
 20
99.493865
 30
0.0
 10
514.593139
 20
99.493865
 30
0.0
 10
512.712719
 20
101.374256
 30
0.0
 10
512.712719
 20
103.693853
 30
0.0
  0
SPLINE
  5
17c
100
AcDbEntity
  8
0
 62
3
100
AcDbSpline
 70
8
 71
3
 72
8
 73
4
 74
0
 40
0
 40
0
 40
0
 40
0
 40
1
 40
1
 40
1
 40
1
 10
526.829907
 20
282.916127
 30
0.0
 10
525.891033
 20
282.916127
 30
0.0
 10
525.129906
 20
282.155001
 30
0.0
 10
525.129906
 20
281.216129
 30
0.0
  0
SPLINE
  5
17d
100
AcDbEntity
  8
0
 62
3
100
AcDbSpline
 70
8
 71
3
 72
8
 73
4
 74
0
 40
0
 40
0
 40
0
 40
0
 40
1
 40
1
 40
1
 40
1
 10
526.829907
 20
279.516132
 30
0.0
 10
527.768808
 20
279.516132
 30
0.0
 10
528.529908
 20
280.277231
 30
0.0
 10
528.529908
 20
281.216129
 30
0.0
  0
SPLINE
  5
17e
100
AcDbEntity
  8
0
 62
3
100
AcDbSpline
 70
8
 71
3
 72
8
 73
4
 74
0
 40
0
 40
0
 40
0
 40
0
 40
1
 40
1
 40
1
 40
1
 10
486.266264
 20
313.175857
 30
0.0
 10
485.211847
 20
312.121468
 30
0.0
 10
483.502321
 20
312.121468
 30
0.0
 10
482.447903
 20
313.175883
 30
0.0
  0
SPLINE
  5
17f
100
AcDbEntity
  8
0
 62
3
100
AcDbSpline
 70
8
 71
3
 72
8
 73
4
 74
0
 40
0
 40
0
 40
0
 40
0
 40
1
 40
1
 40
1
 40
1
 10
512.712719
 20
158.693746
 30
0.0
 10
512.712719
 20
161.013316
 30
0.0
 10
514.593139
 20
162.893734
 30
0.0
 10
516.912688
 20
162.893734
 30
0.0
  0
SPLINE
  5
180
100
AcDbEntity
  8
0
 62
3
100
AcDbSpline
 70
8
 71
3
 72
8
 73
4
 74
0
 40
0
 40
0
 40
0
 40
0
 40
1
 40
1
 40
1
 40
1
 10
516.912688
 20
162.893734
 30
0.0
 10
519.232317
 20
162.893734
 30
0.0
 10
521.112684
 20
161.013316
 30
0.0
 10
521.112684
 20
158.693746
 30
0.0
  0
SPLINE
  5
181
100
AcDbEntity
  8
0
 62
3
100
AcDbSpline
 70
8
 71
3
 72
8
 73
4
 74
0
 40
0
 40
0
 40
0
 40
0
 40
1
 40
1
 40
1
 40
1
 10
444.219473
 20
78.628598
 30
0.0
 10
441.899871
 20
78.628598
 30
0.0
 10
440.019477
 20
76.748209
 30
0.0
 10
440.019477
 20
74.428583
 30
0.0
  0
SPLINE
  5
182
100
AcDbEntity
  8
0
 62
3
100
AcDbSpline
 70
8
 71
3
 72
8
 73
4
 74
0
 40
0
 40
0
 40
0
 40
0
 40
1
 40
1
 40
1
 40
1
 10
521.210554
 20
135.355423
 30
0.0
 10
520.741104
 20
134.542305
 30
0.0
 10
519.701397
 20
134.263702
 30
0.0
 10
518.888332
 20
134.733149
 30
0.0
  0
SPLINE
  5
183
100
AcDbEntity
  8
0
 62
3
100
AcDbSpline
 70
8
 71
3
 72
8
 73
4
 74
0
 40
0
 40
0
 40
0
 40
0
 40
1
 40
1
 40
1
 40
1
 10
521.112684
 20
158.693746
 30
0.0
 10
521.112684
 20
156.374149
 30
0.0
 10
519.232317
 20
154.493758
 30
0.0
 10
516.912688
 20
154.493758
 30
0.0
  0
SPLINE
  5
184
100
AcDbEntity
  8
0
 62
3
100
AcDbSpline
 70
8
 71
3
 72
8
 73
4
 74
0
 40
0
 40
0
 40
0
 40
0
 40
1
 40
1
 40
1
 40
1
 10
518.266059
 20
137.055419
 30
0.0
 10
518.735509
 20
137.868483
 30
0.0
 10
519.775216
 20
138.147090
 30
0.0
 10
520.588333
 20
137.677639
 30
0.0
  0
SPLINE
  5
185
100
AcDbEntity
  8
0
 62
3
100
AcDbSpline
 70
8
 71
3
 72
8
 73
4
 74
0
 40
0
 40
0
 40
0
 40
0
 40
1
 40
1
 40
1
 40
1
 10
516.912688
 20
107.893841
 30
0.0
 10
519.232317
 20
107.893841
 30
0.0
 10
521.112684
 20
106.013424
 30
0.0
 10
521.112684
 20
103.693853
 30
0.0
  0
SPLINE
  5
186
100
AcDbEntity
  8
0
 62
3
100
AcDbSpline
 70
8
 71
3
 72
8
 73
4
 74
0
 40
0
 40
0
 40
0
 40
0
 40
1
 40
1
 40
1
 40
1
 10
448.419442
 20
154.428458
 30
0.0
 10
448.419442
 20
152.108862
 30
0.0
 10
446.539049
 20
150.228470
 30
0.0
 10
444.219473
 20
150.228470
 30
0.0
  0
SPLINE
  5
187
100
AcDbEntity
  8
0
 62
3
100
AcDbSpline
 70
8
 71
3
 72
8
 73
4
 74
0
 40
0
 40
0
 40
0
 40
0
 40
1
 40
1
 40
1
 40
1
 10
448.419442
 20
74.428583
 30
0.0
 10
448.419442
 20
76.748209
 30
0.0
 10
446.539049
 20
78.628598
 30
0.0
 10
444.219473
 20
78.628598
 30
0.0
  0
SPLINE
  5
188
100
AcDbEntity
  8
0
 62
3
100
AcDbSpline
 70
8
 71
3
 72
8
 73
4
 74
0
 40
0
 40
0
 40
0
 40
0
 40
1
 40
1
 40
1
 40
1
 10
518.888332
 20
134.733149
 30
0.0
 10
518.075215
 20
135.202626
 30
0.0
 10
517.796608
 20
136.242304
 30
0.0
 10
518.266059
 20
137.055419
 30
0.0
  0
SPLINE
  5
189
100
AcDbEntity
  8
0
 62
3
100
AcDbSpline
 70
8
 71
3
 72
8
 73
4
 74
0
 40
0
 40
0
 40
0
 40
0
 40
1
 40
1
 40
1
 40
1
 10
520.588333
 20
137.677639
 30
0.0
 10
521.401398
 20
137.208192
 30
0.0
 10
521.680004
 20
136.168485
 30
0.0
 10
521.210554
 20
135.355423
 30
0.0
  0
SPLINE
  5
18a
100
AcDbEntity
  8
0
 62
3
100
AcDbSpline
 70
8
 71
3
 72
8
 73
4
 74
0
 40
0
 40
0
 40
0
 40
0
 40
1
 40
1
 40
1
 40
1
 10
516.912688
 20
154.493758
 30
0.0
 10
514.593139
 20
154.493758
 30
0.0
 10
512.712719
 20
156.374149
 30
0.0
 10
512.712719
 20
158.693746
 30
0.0
  0
SPLINE
  5
18b
100
AcDbEntity
  8
0
 62
3
100
AcDbSpline
 70
8
 71
3
 72
8
 73
4
 74
0
 40
0
 40
0
 40
0
 40
0
 40
1
 40
1
 40
1
 40
1
 10
444.219473
 20
158.628447
 30
0.0
 10
446.539049
 20
158.628447
 30
0.0
 10
448.419442
 20
156.748029
 30
0.0
 10
448.419442
 20
154.428458
 30
0.0
  0
SPLINE
  5
18c
100
AcDbEntity
  8
0
 62
3
100
AcDbSpline
 70
8
 71
3
 72
8
 73
4
 74
0
 40
0
 40
0
 40
0
 40
0
 40
1
 40
1
 40
1
 40
1
 10
444.219473
 20
150.228470
 30
0.0
 10
441.899871
 20
150.228470
 30
0.0
 10
440.019477
 20
152.108862
 30
0.0
 10
440.019477
 20
154.428458
 30
0.0
  0
SPLINE
  5
18d
100
AcDbEntity
  8
0
 62
3
100
AcDbSpline
 70
8
 71
3
 72
8
 73
4
 74
0
 40
0
 40
0
 40
0
 40
0
 40
1
 40
1
 40
1
 40
1
 10
444.219473
 20
70.228595
 30
0.0
 10
446.539049
 20
70.228595
 30
0.0
 10
448.419442
 20
72.109013
 30
0.0
 10
448.419442
 20
74.428583
 30
0.0
  0
SPLINE
  5
18e
100
AcDbEntity
  8
0
 62
3
100
AcDbSpline
 70
8
 71
3
 72
8
 73
4
 74
0
 40
0
 40
0
 40
0
 40
0
 40
1
 40
1
 40
1
 40
1
 10
512.712719
 20
103.693853
 30
0.0
 10
512.712719
 20
106.013424
 30
0.0
 10
514.593139
 20
107.893841
 30
0.0
 10
516.912688
 20
107.893841
 30
0.0
  0
SPLINE
  5
18f
100
AcDbEntity
  8
0
 62
3
100
AcDbSpline
 70
8
 71
3
 72
8
 73
4
 74
0
 40
0
 40
0
 40
0
 40
0
 40
1
 40
1
 40
1
 40
1
 10
440.019477
 20
154.428458
 30
0.0
 10
440.019477
 20
156.748029
 30
0.0
 10
441.899871
 20
158.628447
 30
0.0
 10
444.219473
 20
158.628447
 30
0.0
  0
SPLINE
  5
190
100
AcDbEntity
  8
0
 62
3
100
AcDbSpline
 70
8
 71
3
 72
8
 73
4
 74
0
 40
0
 40
0
 40
0
 40
0
 40
1
 40
1
 40
1
 40
1
 10
521.112684
 20
103.693853
 30
0.0
 10
521.112684
 20
101.374256
 30
0.0
 10
519.232317
 20
99.493865
 30
0.0
 10
516.912688
 20
99.493865
 30
0.0
  0
SPLINE
  5
191
100
AcDbEntity
  8
0
 62
3
100
AcDbSpline
 70
8
 71
3
 72
8
 73
4
 74
0
 40
0
 40
0
 40
0
 40
0
 40
1
 40
1
 40
1
 40
1
 10
460.456953
 20
291.184897
 30
0.0
 10
461.511344
 20
290.130480
 30
0.0
 10
461.511317
 20
288.420931
 30
0.0
 10
460.456926
 20
287.366516
 30
0.0
  0
SPLINE
  5
192
100
AcDbEntity
  8
0
 62
3
100
AcDbSpline
 70
8
 71
3
 72
8
 73
4
 74
0
 40
0
 40
0
 40
0
 40
0
 40
1
 40
1
 40
1
 40
1
 10
460.456926
 20
287.366516
 30
0.0
 10
459.402509
 20
286.312127
 30
0.0
 10
457.692983
 20
286.312127
 30
0.0
 10
456.638565
 20
287.366542
 30
0.0
  0
SPLINE
  5
193
100
AcDbEntity
  8
0
 62
3
100
AcDbSpline
 70
8
 71
3
 72
8
 73
4
 74
0
 40
0
 40
0
 40
0
 40
0
 40
1
 40
1
 40
1
 40
1
 10
467.252379
 20
302.180403
 30
0.0
 10
467.252379
 20
304.499974
 30
0.0
 10
469.132799
 20
306.380391
 30
0.0
 10
471.452375
 20
306.380391
 30
0.0
  0
SPLINE
  5
194
100
AcDbEntity
  8
0
 62
3
100
AcDbSpline
 70
8
 71
3
 72
8
 73
4
 74
0
 40
0
 40
0
 40
0
 40
0
 40
1
 40
1
 40
1
 40
1
 10
528.529908
 20
281.216129
 30
0.0
 10
528.529908
 20
282.155001
 30
0.0
 10
527.768808
 20
282.916127
 30
0.0
 10
526.829907
 20
282.916127
 30
0.0
  0
SPLINE
  5
195
100
AcDbEntity
  8
0
 62
3
100
AcDbSpline
 70
8
 71
3
 72
8
 73
4
 74
0
 40
0
 40
0
 40
0
 40
0
 40
1
 40
1
 40
1
 40
1
 10
456.638592
 20
291.184923
 30
0.0
 10
457.693009
 20
292.239312
 30
0.0
 10
459.402535
 20
292.239312
 30
0.0
 10
460.456953
 20
291.184897
 30
0.0
  0
SPLINE
  5
196
100
AcDbEntity
  8
0
 62
3
100
AcDbSpline
 70
8
 71
3
 72
8
 73
4
 74
0
 40
0
 40
0
 40
0
 40
0
 40
1
 40
1
 40
1
 40
1
 10
471.452375
 20
297.980415
 30
0.0
 10
469.132799
 20
297.980415
 30
0.0
 10
467.252379
 20
299.860806
 30
0.0
 10
467.252379
 20
302.180403
 30
0.0
  0
SPLINE
  5
197
100
AcDbEntity
  8
0
 62
3
100
AcDbSpline
 70
8
 71
3
 72
8
 73
4
 74
0
 40
0
 40
0
 40
0
 40
0
 40
1
 40
1
 40
1
 40
1
 10
482.447930
 20
316.994291
 30
0.0
 10
483.502347
 20
318.048653
 30
0.0
 10
485.211873
 20
318.048653
 30
0.0
 10
486.266291
 20
316.994238
 30
0.0
  0
SPLINE
  5
198
100
AcDbEntity
  8
0
 62
3
100
AcDbSpline
 70
8
 71
3
 72
8
 73
4
 74
0
 40
0
 40
0
 40
0
 40
0
 40
1
 40
1
 40
1
 40
1
 10
444.219473
 20
253.767167
 30
0.0
 10
445.158347
 20
253.767167
 30
0.0
 10
445.919474
 20
254.528294
 30
0.0
 10
445.919474
 20
255.467165
 30
0.0
  0
SPLINE
  5
199
100
AcDbEntity
  8
0
 62
3
100
AcDbSpline
 70
8
 71
3
 72
8
 73
4
 74
0
 40
0
 40
0
 40
0
 40
0
 40
1
 40
1
 40
1
 40
1
 10
471.452375
 20
306.380391
 30
0.0
 10
473.772004
 20
306.380391
 30
0.0
 10
475.652371
 20
304.499974
 30
0.0
 10
475.652371
 20
302.180403
 30
0.0
  0
SPLINE
  5
19a
100
AcDbEntity
  8
0
 62
3
100
AcDbSpline
 70
8
 71
3
 72
8
 73
4
 74
0
 40
0
 40
0
 40
0
 40
0
 40
1
 40
1
 40
1
 40
1
 10
445.919474
 20
255.467165
 30
0.0
 10
445.919474
 20
256.406039
 30
0.0
 10
445.158347
 20
257.167163
 30
0.0
 10
444.219473
 20
257.167163
 30
0.0
  0
SPLINE
  5
19b
100
AcDbEntity
  8
0
 62
3
100
AcDbSpline
 70
8
 71
3
 72
8
 73
4
 74
0
 40
0
 40
0
 40
0
 40
0
 40
1
 40
1
 40
1
 40
1
 10
442.519472
 20
255.467165
 30
0.0
 10
442.519472
 20
254.528294
 30
0.0
 10
443.280572
 20
253.767167
 30
0.0
 10
444.219473
 20
253.767167
 30
0.0
  0
SPLINE
  5
19c
100
AcDbEntity
  8
0
 62
3
100
AcDbSpline
 70
8
 71
3
 72
8
 73
4
 74
0
 40
0
 40
0
 40
0
 40
0
 40
1
 40
1
 40
1
 40
1
 10
475.652371
 20
302.180403
 30
0.0
 10
475.652371
 20
299.860806
 30
0.0
 10
473.772004
 20
297.980415
 30
0.0
 10
471.452375
 20
297.980415
 30
0.0
  0
SPLINE
  5
19d
100
AcDbEntity
  8
0
 62
3
100
AcDbSpline
 70
8
 71
3
 72
8
 73
4
 74
0
 40
0
 40
0
 40
0
 40
0
 40
1
 40
1
 40
1
 40
1
 10
442.519472
 20
305.467077
 30
0.0
 10
442.519472
 20
306.405950
 30
0.0
 10
443.280572
 20
307.167075
 30
0.0
 10
444.219473
 20
307.167075
 30
0.0
  0
SPLINE
  5
19e
100
AcDbEntity
  8
0
 62
3
100
AcDbSpline
 70
8
 71
3
 72
8
 73
4
 74
0
 40
0
 40
0
 40
0
 40
0
 40
1
 40
1
 40
1
 40
1
 10
486.266291
 20
316.994238
 30
0.0
 10
487.320708
 20
315.939822
 30
0.0
 10
487.320682
 20
314.230273
 30
0.0
 10
486.266264
 20
313.175857
 30
0.0
  0
SPLINE
  5
19f
100
AcDbEntity
  8
0
 62
3
100
AcDbSpline
 70
8
 71
3
 72
8
 73
4
 74
0
 40
0
 40
0
 40
0
 40
0
 40
1
 40
1
 40
1
 40
1
 10
444.219473
 20
257.167163
 30
0.0
 10
443.280572
 20
257.167163
 30
0.0
 10
442.519472
 20
256.406039
 30
0.0
 10
442.519472
 20
255.467165
 30
0.0
  0
SPLINE
  5
1a0
100
AcDbEntity
  8
0
 62
3
100
AcDbSpline
 70
8
 71
3
 72
8
 73
4
 74
0
 40
0
 40
0
 40
0
 40
0
 40
1
 40
1
 40
1
 40
1
 10
456.638565
 20
287.366542
 30
0.0
 10
455.584148
 20
288.420958
 30
0.0
 10
455.584148
 20
290.130508
 30
0.0
 10
456.638592
 20
291.184923
 30
0.0
  0
SPLINE
  5
1a1
100
AcDbEntity
  8
0
 62
3
100
AcDbSpline
 70
8
 71
3
 72
8
 73
4
 74
0
 40
0
 40
0
 40
0
 40
0
 40
1
 40
1
 40
1
 40
1
 10
482.447903
 20
313.175883
 30
0.0
 10
481.393486
 20
314.230300
 30
0.0
 10
481.393486
 20
315.939875
 30
0.0
 10
482.447930
 20
316.994291
 30
0.0
  0
SPLINE
  5
1a2
100
AcDbEntity
  8
0
 62
3
100
AcDbSpline
 70
8
 71
3
 72
8
 73
4
 74
0
 40
0
 40
0
 40
0
 40
0
 40
1
 40
1
 40
1
 40
1
 10
444.219473
 20
325.645646
 30
0.0
 10
446.539049
 20
325.645646
 30
0.0
 10
448.419442
 20
323.765231
 30
0.0
 10
448.419442
 20
321.445659
 30
0.0
  0
SPLINE
  5
1a3
100
AcDbEntity
  8
0
 62
3
100
AcDbSpline
 70
8
 71
3
 72
8
 73
4
 74
0
 40
0
 40
0
 40
0
 40
0
 40
1
 40
1
 40
1
 40
1
 10
448.419442
 20
321.445659
 30
0.0
 10
448.419442
 20
319.126087
 30
0.0
 10
446.539049
 20
317.245671
 30
0.0
 10
444.219473
 20
317.245671
 30
0.0
  0
SPLINE
  5
1a4
100
AcDbEntity
  8
0
 62
3
100
AcDbSpline
 70
8
 71
3
 72
8
 73
4
 74
0
 40
0
 40
0
 40
0
 40
0
 40
1
 40
1
 40
1
 40
1
 10
476.199291
 20
238.680683
 30
0.0
 10
476.199291
 20
240.171845
 30
0.0
 10
474.990463
 20
241.380698
 30
0.0
 10
473.499324
 20
241.380698
 30
0.0
  0
SPLINE
  5
1a5
100
AcDbEntity
  8
0
 62
3
100
AcDbSpline
 70
8
 71
3
 72
8
 73
4
 74
0
 40
0
 40
0
 40
0
 40
0
 40
1
 40
1
 40
1
 40
1
 10
500.499234
 20
235.980536
 30
0.0
 10
501.990426
 20
235.980509
 30
0.0
 10
503.199228
 20
237.189335
 30
0.0
 10
503.199228
 20
238.680471
 30
0.0
  0
SPLINE
  5
1a6
100
AcDbEntity
  8
0
 62
3
100
AcDbSpline
 70
8
 71
3
 72
8
 73
4
 74
0
 40
0
 40
0
 40
0
 40
0
 40
1
 40
1
 40
1
 40
1
 10
473.499298
 20
235.980718
 30
0.0
 10
474.990436
 20
235.980718
 30
0.0
 10
476.199291
 20
237.189547
 30
0.0
 10
476.199291
 20
238.680683
 30
0.0
  0
SPLINE
  5
1a7
100
AcDbEntity
  8
0
 62
3
100
AcDbSpline
 70
8
 71
3
 72
8
 73
4
 74
0
 40
0
 40
0
 40
0
 40
0
 40
1
 40
1
 40
1
 40
1
 10
500.499261
 20
241.380486
 30
0.0
 10
499.008122
 20
241.380539
 30
0.0
 10
497.799293
 20
240.171710
 30
0.0
 10
497.799241
 20
238.680524
 30
0.0
  0
SPLINE
  5
1a8
100
AcDbEntity
  8
0
 62
3
100
AcDbSpline
 70
8
 71
3
 72
8
 73
4
 74
0
 40
0
 40
0
 40
0
 40
0
 40
1
 40
1
 40
1
 40
1
 10
497.799241
 20
238.680524
 30
0.0
 10
497.799241
 20
237.189361
 30
0.0
 10
499.008069
 20
235.980536
 30
0.0
 10
500.499234
 20
235.980536
 30
0.0
  0
SPLINE
  5
1a9
100
AcDbEntity
  8
0
 62
3
100
AcDbSpline
 70
8
 71
3
 72
8
 73
4
 74
0
 40
0
 40
0
 40
0
 40
0
 40
1
 40
1
 40
1
 40
1
 10
503.199228
 20
280.680428
 30
0.0
 10
503.199228
 20
282.171591
 30
0.0
 10
501.990426
 20
283.380417
 30
0.0
 10
500.499261
 20
283.380443
 30
0.0
  0
SPLINE
  5
1aa
100
AcDbEntity
  8
0
 62
3
100
AcDbSpline
 70
8
 71
3
 72
8
 73
4
 74
0
 40
0
 40
0
 40
0
 40
0
 40
1
 40
1
 40
1
 40
1
 10
500.499234
 20
277.980440
 30
0.0
 10
501.990426
 20
277.980414
 30
0.0
 10
503.199228
 20
279.189240
 30
0.0
 10
503.199228
 20
280.680428
 30
0.0
  0
SPLINE
  5
1ab
100
AcDbEntity
  8
0
 62
3
100
AcDbSpline
 70
8
 71
3
 72
8
 73
4
 74
0
 40
0
 40
0
 40
0
 40
0
 40
1
 40
1
 40
1
 40
1
 10
473.499324
 20
241.380698
 30
0.0
 10
472.008185
 20
241.380698
 30
0.0
 10
470.799304
 20
240.171872
 30
0.0
 10
470.799304
 20
238.680736
 30
0.0
  0
SPLINE
  5
1ac
100
AcDbEntity
  8
0
 62
3
100
AcDbSpline
 70
8
 71
3
 72
8
 73
4
 74
0
 40
0
 40
0
 40
0
 40
0
 40
1
 40
1
 40
1
 40
1
 10
470.799304
 20
280.680640
 30
0.0
 10
470.799304
 20
279.189478
 30
0.0
 10
472.008132
 20
277.980652
 30
0.0
 10
473.499298
 20
277.980625
 30
0.0
  0
SPLINE
  5
1ad
100
AcDbEntity
  8
0
 62
3
100
AcDbSpline
 70
8
 71
3
 72
8
 73
4
 74
0
 40
0
 40
0
 40
0
 40
0
 40
1
 40
1
 40
1
 40
1
 10
444.219473
 20
303.767080
 30
0.0
 10
443.280572
 20
303.767080
 30
0.0
 10
442.519472
 20
304.528205
 30
0.0
 10
442.519472
 20
305.467077
 30
0.0
  0
SPLINE
  5
1ae
100
AcDbEntity
  8
0
 62
3
100
AcDbSpline
 70
8
 71
3
 72
8
 73
4
 74
0
 40
0
 40
0
 40
0
 40
0
 40
1
 40
1
 40
1
 40
1
 10
473.499324
 20
283.380628
 30
0.0
 10
472.008185
 20
283.380628
 30
0.0
 10
470.799304
 20
282.171829
 30
0.0
 10
470.799304
 20
280.680640
 30
0.0
  0
SPLINE
  5
1af
100
AcDbEntity
  8
0
 62
3
100
AcDbSpline
 70
8
 71
3
 72
8
 73
4
 74
0
 40
0
 40
0
 40
0
 40
0
 40
1
 40
1
 40
1
 40
1
 10
516.912688
 20
232.980510
 30
0.0
 10
519.232317
 20
232.980510
 30
0.0
 10
521.112684
 20
234.860927
 30
0.0
 10
521.112684
 20
237.180498
 30
0.0
  0
SPLINE
  5
1b0
100
AcDbEntity
  8
0
 62
3
100
AcDbSpline
 70
8
 71
3
 72
8
 73
4
 74
0
 40
0
 40
0
 40
0
 40
0
 40
1
 40
1
 40
1
 40
1
 10
521.112684
 20
237.180498
 30
0.0
 10
521.112684
 20
239.500121
 30
0.0
 10
519.232317
 20
241.380486
 30
0.0
 10
516.912688
 20
241.380486
 30
0.0
  0
SPLINE
  5
1b1
100
AcDbEntity
  8
0
 62
3
100
AcDbSpline
 70
8
 71
3
 72
8
 73
4
 74
0
 40
0
 40
0
 40
0
 40
0
 40
1
 40
1
 40
1
 40
1
 10
516.912688
 20
241.380486
 30
0.0
 10
514.593139
 20
241.380486
 30
0.0
 10
512.712719
 20
239.500121
 30
0.0
 10
512.712719
 20
237.180498
 30
0.0
  0
SPLINE
  5
1b2
100
AcDbEntity
  8
0
 62
3
100
AcDbSpline
 70
8
 71
3
 72
8
 73
4
 74
0
 40
0
 40
0
 40
0
 40
0
 40
1
 40
1
 40
1
 40
1
 10
473.499298
 20
277.980625
 30
0.0
 10
474.990436
 20
277.980625
 30
0.0
 10
476.199291
 20
279.189451
 30
0.0
 10
476.199291
 20
280.680614
 30
0.0
  0
SPLINE
  5
1b3
100
AcDbEntity
  8
0
 62
3
100
AcDbSpline
 70
8
 71
3
 72
8
 73
4
 74
0
 40
0
 40
0
 40
0
 40
0
 40
1
 40
1
 40
1
 40
1
 10
521.112684
 20
292.180390
 30
0.0
 10
521.112684
 20
294.500014
 30
0.0
 10
519.232317
 20
296.380430
 30
0.0
 10
516.912688
 20
296.380430
 30
0.0
  0
SPLINE
  5
1b4
100
AcDbEntity
  8
0
 62
3
100
AcDbSpline
 70
8
 71
3
 72
8
 73
4
 74
0
 40
0
 40
0
 40
0
 40
0
 40
1
 40
1
 40
1
 40
1
 10
503.199228
 20
238.680471
 30
0.0
 10
503.199228
 20
240.171660
 30
0.0
 10
501.990426
 20
241.380486
 30
0.0
 10
500.499261
 20
241.380486
 30
0.0
  0
SPLINE
  5
1b5
100
AcDbEntity
  8
0
 62
3
100
AcDbSpline
 70
8
 71
3
 72
8
 73
4
 74
0
 40
0
 40
0
 40
0
 40
0
 40
1
 40
1
 40
1
 40
1
 10
445.919474
 20
305.467077
 30
0.0
 10
445.919474
 20
304.528205
 30
0.0
 10
445.158347
 20
303.767080
 30
0.0
 10
444.219473
 20
303.767080
 30
0.0
  0
SPLINE
  5
1b6
100
AcDbEntity
  8
0
 62
3
100
AcDbSpline
 70
8
 71
3
 72
8
 73
4
 74
0
 40
0
 40
0
 40
0
 40
0
 40
1
 40
1
 40
1
 40
1
 10
444.219473
 20
307.167075
 30
0.0
 10
445.158347
 20
307.167075
 30
0.0
 10
445.919474
 20
306.405950
 30
0.0
 10
445.919474
 20
305.467077
 30
0.0
  0
SPLINE
  5
1b7
100
AcDbEntity
  8
0
 62
3
100
AcDbSpline
 70
8
 71
3
 72
8
 73
4
 74
0
 40
0
 40
0
 40
0
 40
0
 40
1
 40
1
 40
1
 40
1
 10
500.499261
 20
283.380443
 30
0.0
 10
499.008122
 20
283.380443
 30
0.0
 10
497.799293
 20
282.171617
 30
0.0
 10
497.799241
 20
280.680455
 30
0.0
  0
SPLINE
  5
1b8
100
AcDbEntity
  8
0
 62
3
100
AcDbSpline
 70
8
 71
3
 72
8
 73
4
 74
0
 40
0
 40
0
 40
0
 40
0
 40
1
 40
1
 40
1
 40
1
 10
497.799241
 20
280.680455
 30
0.0
 10
497.799241
 20
279.189266
 30
0.0
 10
499.008069
 20
277.980440
 30
0.0
 10
500.499234
 20
277.980440
 30
0.0
  0
SPLINE
  5
1b9
100
AcDbEntity
  8
0
 62
3
100
AcDbSpline
 70
8
 71
3
 72
8
 73
4
 74
0
 40
0
 40
0
 40
0
 40
0
 40
1
 40
1
 40
1
 40
1
 10
470.799304
 20
238.680736
 30
0.0
 10
470.799304
 20
237.189573
 30
0.0
 10
472.008132
 20
235.980718
 30
0.0
 10
473.499298
 20
235.980718
 30
0.0
  0
SPLINE
  5
1ba
100
AcDbEntity
  8
0
 62
3
100
AcDbSpline
 70
8
 71
3
 72
8
 73
4
 74
0
 40
0
 40
0
 40
0
 40
0
 40
1
 40
1
 40
1
 40
1
 10
476.199291
 20
280.680614
 30
0.0
 10
476.199291
 20
282.171802
 30
0.0
 10
474.990463
 20
283.380628
 30
0.0
 10
473.499324
 20
283.380628
 30
0.0
  0
SPLINE
  5
1bb
100
AcDbEntity
  8
0
 62
3
100
AcDbSpline
 70
8
 71
3
 72
8
 73
4
 74
0
 40
0
 40
0
 40
0
 40
0
 40
1
 40
1
 40
1
 40
1
 10
512.712719
 20
237.180498
 30
0.0
 10
512.712719
 20
234.860927
 30
0.0
 10
514.593139
 20
232.980510
 30
0.0
 10
516.912688
 20
232.980510
 30
0.0
  0
SPLINE
  5
1bc
100
AcDbEntity
  8
0
 62
3
100
AcDbSpline
 70
8
 71
3
 72
8
 73
4
 74
0
 40
0
 40
0
 40
0
 40
0
 40
1
 40
1
 40
1
 40
1
 10
516.912688
 20
287.980402
 30
0.0
 10
519.232317
 20
287.980402
 30
0.0
 10
521.112684
 20
289.860818
 30
0.0
 10
521.112684
 20
292.180390
 30
0.0
  0
SPLINE
  5
1bd
100
AcDbEntity
  8
0
 62
3
100
AcDbSpline
 70
8
 71
3
 72
8
 73
4
 74
0
 40
0
 40
0
 40
0
 40
0
 40
1
 40
1
 40
1
 40
1
 10
516.912688
 20
296.380430
 30
0.0
 10
514.593139
 20
296.380430
 30
0.0
 10
512.712719
 20
294.500014
 30
0.0
 10
512.712719
 20
292.180390
 30
0.0
  0
SPLINE
  5
1be
100
AcDbEntity
  8
0
 62
3
100
AcDbSpline
 70
8
 71
3
 72
8
 73
4
 74
0
 40
0
 40
0
 40
0
 40
0
 40
1
 40
1
 40
1
 40
1
 10
444.219473
 20
317.245671
 30
0.0
 10
441.899871
 20
317.245671
 30
0.0
 10
440.019477
 20
319.126087
 30
0.0
 10
440.019477
 20
321.445659
 30
0.0
  0
SPLINE
  5
1bf
100
AcDbEntity
  8
0
 62
3
100
AcDbSpline
 70
8
 71
3
 72
8
 73
4
 74
0
 40
0
 40
0
 40
0
 40
0
 40
1
 40
1
 40
1
 40
1
 10
512.712719
 20
292.180390
 30
0.0
 10
512.712719
 20
289.860818
 30
0.0
 10
514.593139
 20
287.980402
 30
0.0
 10
516.912688
 20
287.980402
 30
0.0
  0
SPLINE
  5
1c0
100
AcDbEntity
  8
0
 62
3
100
AcDbSpline
 70
8
 71
3
 72
8
 73
4
 74
0
 40
0
 40
0
 40
0
 40
0
 40
1
 40
1
 40
1
 40
1
 10
444.219473
 20
245.645770
 30
0.0
 10
441.899871
 20
245.645770
 30
0.0
 10
440.019477
 20
243.765408
 30
0.0
 10
440.019477
 20
241.445785
 30
0.0
  0
LWPOLYLINE
  5
1c1
100
AcDbEntity
  8
0
 62
7
100
AcDbPolyline
 90
2
 70
0
 10
0.132292
 20
305.143865
 30
0.0
 10
0.132292
 20
326.810543
 30
0.0
  0
LWPOLYLINE
  5
1c2
100
AcDbEntity
  8
0
 62
7
100
AcDbPolyline
 90
2
 70
0
 10
469.389366
 20
189.938668
 30
0.0
 10
469.389366
 20
194.938499
 30
0.0
  0
LWPOLYLINE
  5
1c3
100
AcDbEntity
  8
0
 62
7
100
AcDbPolyline
 90
2
 70
0
 10
519.056951
 20
189.938668
 30
0.0
 10
497.390221
 20
189.938668
 30
0.0
  0
LWPOLYLINE
  5
1c4
100
AcDbEntity
  8
0
 62
7
100
AcDbPolyline
 90
2
 70
0
 10
447.722636
 20
189.938668
 30
0.0
 10
469.389366
 20
189.938668
 30
0.0
  0
LWPOLYLINE
  5
1c5
100
AcDbEntity
  8
0
 62
7
100
AcDbPolyline
 90
2
 70
0
 10
357.057861
 20
109.938719
 30
0.0
 10
352.057236
 20
109.938719
 30
0.0
  0
LWPOLYLINE
  5
1c6
100
AcDbEntity
  8
0
 62
7
100
AcDbPolyline
 90
2
 70
0
 10
370.056841
 20
49.938889
 30
0.0
 10
370.056841
 20
44.938793
 30
0.0
  0
LWPOLYLINE
  5
1c7
100
AcDbEntity
  8
0
 62
7
100
AcDbPolyline
 90
2
 70
0
 10
447.722636
 20
49.938889
 30
0.0
 10
469.389366
 20
49.938889
 30
0.0
  0
LWPOLYLINE
  5
1c8
100
AcDbEntity
  8
0
 62
7
100
AcDbPolyline
 90
2
 70
0
 10
419.724426
 20
49.938889
 30
0.0
 10
419.724426
 20
44.938793
 30
0.0
  0
SPLINE
  5
1c9
100
AcDbEntity
  8
0
 62
3
100
AcDbSpline
 70
8
 71
3
 72
8
 73
4
 74
0
 40
0
 40
0
 40
0
 40
0
 40
1
 40
1
 40
1
 40
1
 10
440.019477
 20
241.445785
 30
0.0
 10
440.019477
 20
239.126212
 30
0.0
 10
441.899871
 20
237.245797
 30
0.0
 10
444.219473
 20
237.245797
 30
0.0
  0
LWPOLYLINE
  5
1ca
100
AcDbEntity
  8
0
 62
7
100
AcDbPolyline
 90
2
 70
0
 10
519.056951
 20
194.938499
 30
0.0
 10
554.056036
 20
194.938499
 30
0.0
  0
SPLINE
  5
1cb
100
AcDbEntity
  8
0
 62
3
100
AcDbSpline
 70
8
 71
3
 72
8
 73
4
 74
0
 40
0
 40
0
 40
0
 40
0
 40
1
 40
1
 40
1
 40
1
 10
444.219473
 20
237.245797
 30
0.0
 10
446.539049
 20
237.245797
 30
0.0
 10
448.419442
 20
239.126212
 30
0.0
 10
448.419442
 20
241.445785
 30
0.0
  0
LWPOLYLINE
  5
1cc
100
AcDbEntity
  8
0
 62
7
100
AcDbPolyline
 90
2
 70
0
 10
347.056611
 20
189.938668
 30
0.0
 10
370.056841
 20
189.938668
 30
0.0
  0
LWPOLYLINE
  5
1cd
100
AcDbEntity
  8
0
 62
7
100
AcDbPolyline
 90
2
 70
0
 10
519.056951
 20
194.938499
 30
0.0
 10
519.056951
 20
189.938668
 30
0.0
  0
LWPOLYLINE
  5
1ce
100
AcDbEntity
  8
0
 62
7
100
AcDbPolyline
 90
2
 70
0
 10
447.722636
 20
194.938499
 30
0.0
 10
447.722636
 20
189.938668
 30
0.0
  0
LWPOLYLINE
  5
1cf
100
AcDbEntity
  8
0
 62
7
100
AcDbPolyline
 90
2
 70
0
 10
370.056841
 20
44.938793
 30
0.0
 10
398.057696
 20
44.938793
 30
0.0
  0
LWPOLYLINE
  5
1d0
100
AcDbEntity
  8
0
 62
7
100
AcDbPolyline
 90
2
 70
0
 10
398.057696
 20
194.938499
 30
0.0
 10
370.056841
 20
194.938499
 30
0.0
  0
SPLINE
  5
1d1
100
AcDbEntity
  8
0
 62
3
100
AcDbSpline
 70
8
 71
3
 72
8
 73
4
 74
0
 40
0
 40
0
 40
0
 40
0
 40
1
 40
1
 40
1
 40
1
 10
440.019477
 20
321.445659
 30
0.0
 10
440.019477
 20
323.765231
 30
0.0
 10
441.899871
 20
325.645646
 30
0.0
 10
444.219473
 20
325.645646
 30
0.0
  0
LWPOLYLINE
  5
1d2
100
AcDbEntity
  8
0
 62
7
100
AcDbPolyline
 90
2
 70
0
 10
347.056611
 20
49.938889
 30
0.0
 10
347.056611
 20
64.938648
 30
0.0
  0
LWPOLYLINE
  5
1d3
100
AcDbEntity
  8
0
 62
7
100
AcDbPolyline
 90
2
 70
0
 10
352.057236
 20
139.938501
 30
0.0
 10
357.057861
 20
139.938501
 30
0.0
  0
SPLINE
  5
1d4
100
AcDbEntity
  8
0
 62
3
100
AcDbSpline
 70
8
 71
3
 72
8
 73
4
 74
0
 40
0
 40
0
 40
0
 40
0
 40
1
 40
1
 40
1
 40
1
 10
448.419442
 20
241.445785
 30
0.0
 10
448.419442
 20
243.765408
 30
0.0
 10
446.539049
 20
245.645770
 30
0.0
 10
444.219473
 20
245.645770
 30
0.0
  0
LWPOLYLINE
  5
1d5
100
AcDbEntity
  8
0
 62
7
100
AcDbPolyline
 90
2
 70
0
 10
469.389366
 20
44.938793
 30
0.0
 10
497.390221
 20
44.938793
 30
0.0
  0
LWPOLYLINE
  5
1d6
100
AcDbEntity
  8
0
 62
7
100
AcDbPolyline
 90
2
 70
0
 10
398.057696
 20
194.938499
 30
0.0
 10
398.057696
 20
189.938668
 30
0.0
  0
LWPOLYLINE
  5
1d7
100
AcDbEntity
  8
0
 62
7
100
AcDbPolyline
 90
2
 70
0
 10
497.390221
 20
194.938499
 30
0.0
 10
497.390221
 20
189.938668
 30
0.0
  0
LWPOLYLINE
  5
1d8
100
AcDbEntity
  8
0
 62
7
100
AcDbPolyline
 90
2
 70
0
 10
469.389366
 20
194.938499
 30
0.0
 10
497.390221
 20
194.938499
 30
0.0
  0
LWPOLYLINE
  5
1d9
100
AcDbEntity
  8
0
 62
7
100
AcDbPolyline
 90
2
 70
0
 10
419.724426
 20
189.938668
 30
0.0
 10
419.724426
 20
194.938499
 30
0.0
  0
LWPOLYLINE
  5
1da
100
AcDbEntity
  8
0
 62
7
100
AcDbPolyline
 90
2
 70
0
 10
554.056036
 20
44.938793
 30
0.0
 10
554.056036
 20
194.938499
 30
0.0
  0
LWPOLYLINE
  5
1db
100
AcDbEntity
  8
0
 62
7
100
AcDbPolyline
 90
2
 70
0
 10
370.056841
 20
189.938668
 30
0.0
 10
370.056841
 20
194.938499
 30
0.0
  0
LWPOLYLINE
  5
1dc
100
AcDbEntity
  8
0
 62
7
100
AcDbPolyline
 90
2
 70
0
 10
398.057696
 20
189.938668
 30
0.0
 10
419.724426
 20
189.938668
 30
0.0
  0
SPLINE
  5
1dd
100
AcDbEntity
  8
0
 62
3
100
AcDbSpline
 70
8
 71
3
 72
8
 73
4
 74
0
 40
0
 40
0
 40
0
 40
0
 40
1
 40
1
 40
1
 40
1
 10
471.552388
 20
97.793867
 30
0.0
 10
469.288004
 20
97.793867
 30
0.0
 10
467.452404
 20
95.958220
 30
0.0
 10
467.452404
 20
93.693839
 30
0.0
  0
SPLINE
  5
1de
100
AcDbEntity
  8
0
 62
3
100
AcDbSpline
 70
8
 71
3
 72
8
 73
4
 74
0
 40
0
 40
0
 40
0
 40
0
 40
1
 40
1
 40
1
 40
1
 10
528.529908
 20
114.658113
 30
0.0
 10
528.529908
 20
113.719242
 30
0.0
 10
527.768808
 20
112.958115
 30
0.0
 10
526.829907
 20
112.958115
 30
0.0
  0
LWPOLYLINE
  5
1df
100
AcDbEntity
  8
0
 62
7
100
AcDbPolyline
 90
2
 70
0
 10
447.722636
 20
194.938499
 30
0.0
 10
419.724426
 20
194.938499
 30
0.0
  0
LWPOLYLINE
  5
1e0
100
AcDbEntity
  8
0
 62
7
100
AcDbPolyline
 90
2
 70
0
 10
497.390221
 20
49.938889
 30
0.0
 10
519.056951
 20
49.938889
 30
0.0
  0
SPLINE
  5
1e1
100
AcDbEntity
  8
0
 62
7
100
AcDbSpline
 70
8
 71
3
 72
8
 73
4
 74
0
 40
0
 40
0
 40
0
 40
0
 40
1
 40
1
 40
1
 40
1
 10
352.056601
 20
69.938747
 30
0.0
 10
349.295197
 20
69.938747
 30
0.0
 10
347.056637
 20
67.700163
 30
0.0
 10
347.056637
 20
64.938765
 30
0.0
  0
SPLINE
  5
1e2
100
AcDbEntity
  8
0
 62
3
100
AcDbSpline
 70
8
 71
3
 72
8
 73
4
 74
0
 40
0
 40
0
 40
0
 40
0
 40
1
 40
1
 40
1
 40
1
 10
467.452404
 20
93.693839
 30
0.0
 10
467.452404
 20
91.429513
 30
0.0
 10
469.288004
 20
89.593863
 30
0.0
 10
471.552388
 20
89.593863
 30
0.0
  0
SPLINE
  5
1e3
100
AcDbEntity
  8
0
 62
3
100
AcDbSpline
 70
8
 71
3
 72
8
 73
4
 74
0
 40
0
 40
0
 40
0
 40
0
 40
1
 40
1
 40
1
 40
1
 10
526.829907
 20
116.358111
 30
0.0
 10
527.768808
 20
116.358111
 30
0.0
 10
528.529908
 20
115.597014
 30
0.0
 10
528.529908
 20
114.658113
 30
0.0
  0
LWPOLYLINE
  5
1e4
100
AcDbEntity
  8
0
 62
7
100
AcDbPolyline
 90
2
 70
0
 10
352.057236
 20
69.938744
 30
0.0
 10
357.057861
 20
69.938744
 30
0.0
  0
SPLINE
  5
1e5
100
AcDbEntity
  8
0
 62
3
100
AcDbSpline
 70
8
 71
3
 72
8
 73
4
 74
0
 40
0
 40
0
 40
0
 40
0
 40
1
 40
1
 40
1
 40
1
 10
526.829907
 20
112.958115
 30
0.0
 10
525.891033
 20
112.958115
 30
0.0
 10
525.129906
 20
113.719242
 30
0.0
 10
525.129906
 20
114.658113
 30
0.0
  0
LWPOLYLINE
  5
1e6
100
AcDbEntity
  8
0
 62
7
100
AcDbPolyline
 90
2
 70
0
 10
497.390221
 20
49.938889
 30
0.0
 10
497.390221
 20
44.938793
 30
0.0
  0
LWPOLYLINE
  5
1e7
100
AcDbEntity
  8
0
 62
7
100
AcDbPolyline
 90
2
 70
0
 10
398.057696
 20
49.938889
 30
0.0
 10
398.057696
 20
44.938793
 30
0.0
  0
SPLINE
  5
1e8
100
AcDbEntity
  8
0
 62
3
100
AcDbSpline
 70
8
 71
3
 72
8
 73
4
 74
0
 40
0
 40
0
 40
0
 40
0
 40
1
 40
1
 40
1
 40
1
 10
471.552388
 20
89.593863
 30
0.0
 10
473.816771
 20
89.593863
 30
0.0
 10
475.652371
 20
91.429513
 30
0.0
 10
475.652371
 20
93.693839
 30
0.0
  0
SPLINE
  5
1e9
100
AcDbEntity
  8
0
 62
7
100
AcDbSpline
 70
8
 71
3
 72
8
 73
4
 74
0
 40
0
 40
0
 40
0
 40
0
 40
1
 40
1
 40
1
 40
1
 10
352.056601
 20
169.938570
 30
0.0
 10
349.295197
 20
169.938570
 30
0.0
 10
347.056637
 20
172.177125
 30
0.0
 10
347.056637
 20
174.938549
 30
0.0
  0
LWPOLYLINE
  5
1ea
100
AcDbEntity
  8
0
 62
7
100
AcDbPolyline
 90
2
 70
0
 10
357.057861
 20
139.938501
 30
0.0
 10
357.057861
 20
169.938548
 30
0.0
  0
SPLINE
  5
1eb
100
AcDbEntity
  8
0
 62
3
100
AcDbSpline
 70
8
 71
3
 72
8
 73
4
 74
0
 40
0
 40
0
 40
0
 40
0
 40
1
 40
1
 40
1
 40
1
 10
525.129906
 20
114.658113
 30
0.0
 10
525.129906
 20
115.597014
 30
0.0
 10
525.891033
 20
116.358111
 30
0.0
 10
526.829907
 20
116.358111
 30
0.0
  0
SPLINE
  5
1ec
100
AcDbEntity
  8
0
 62
3
100
AcDbSpline
 70
8
 71
3
 72
8
 73
4
 74
0
 40
0
 40
0
 40
0
 40
0
 40
1
 40
1
 40
1
 40
1
 10
526.829907
 20
150.358063
 30
0.0
 10
527.768808
 20
150.358063
 30
0.0
 10
528.529908
 20
149.596966
 30
0.0
 10
528.529908
 20
148.658065
 30
0.0
  0
SPLINE
  5
1ed
100
AcDbEntity
  8
0
 62
3
100
AcDbSpline
 70
8
 71
3
 72
8
 73
4
 74
0
 40
0
 40
0
 40
0
 40
0
 40
1
 40
1
 40
1
 40
1
 10
526.829907
 20
146.958069
 30
0.0
 10
525.891033
 20
146.958069
 30
0.0
 10
525.129906
 20
147.719194
 30
0.0
 10
525.129906
 20
148.658065
 30
0.0
  0
LWPOLYLINE
  5
1ee
100
AcDbEntity
  8
0
 62
7
100
AcDbPolyline
 90
2
 70
0
 10
419.724426
 20
44.938793
 30
0.0
 10
447.722636
 20
44.938793
 30
0.0
  0
LWPOLYLINE
  5
1ef
100
AcDbEntity
  8
0
 62
7
100
AcDbPolyline
 90
2
 70
0
 10
352.057236
 20
109.938719
 30
0.0
 10
352.057236
 20
139.938501
 30
0.0
  0
LWPOLYLINE
  5
1f0
100
AcDbEntity
  8
0
 62
7
100
AcDbPolyline
 90
2
 70
0
 10
347.056611
 20
174.938644
 30
0.0
 10
347.056611
 20
189.938668
 30
0.0
  0
SPLINE
  5
1f1
100
AcDbEntity
  8
0
 62
3
100
AcDbSpline
 70
8
 71
3
 72
8
 73
4
 74
0
 40
0
 40
0
 40
0
 40
0
 40
1
 40
1
 40
1
 40
1
 10
475.652371
 20
93.693839
 30
0.0
 10
475.652371
 20
95.958220
 30
0.0
 10
473.816771
 20
97.793867
 30
0.0
 10
471.552388
 20
97.793867
 30
0.0
  0
LWPOLYLINE
  5
1f2
100
AcDbEntity
  8
0
 62
7
100
AcDbPolyline
 90
2
 70
0
 10
370.056841
 20
49.938889
 30
0.0
 10
347.056611
 20
49.938889
 30
0.0
  0
LWPOLYLINE
  5
1f3
100
AcDbEntity
  8
0
 62
7
100
AcDbPolyline
 90
2
 70
0
 10
357.057861
 20
69.938744
 30
0.0
 10
357.057861
 20
109.938719
 30
0.0
  0
LWPOLYLINE
  5
1f4
100
AcDbEntity
  8
0
 62
7
100
AcDbPolyline
 90
2
 70
0
 10
398.057696
 20
49.938889
 30
0.0
 10
419.724426
 20
49.938889
 30
0.0
  0
LWPOLYLINE
  5
1f5
100
AcDbEntity
  8
0
 62
7
100
AcDbPolyline
 90
2
 70
0
 10
554.056036
 20
44.938793
 30
0.0
 10
519.056951
 20
44.938793
 30
0.0
  0
LWPOLYLINE
  5
1f6
100
AcDbEntity
  8
0
 62
7
100
AcDbPolyline
 90
2
 70
0
 10
469.389366
 20
49.938889
 30
0.0
 10
469.389366
 20
44.938793
 30
0.0
  0
LWPOLYLINE
  5
1f7
100
AcDbEntity
  8
0
 62
7
100
AcDbPolyline
 90
2
 70
0
 10
357.057861
 20
169.938548
 30
0.0
 10
352.057236
 20
169.938548
 30
0.0
  0
LWPOLYLINE
  5
1f8
100
AcDbEntity
  8
0
 62
7
100
AcDbPolyline
 90
2
 70
0
 10
519.056951
 20
49.938889
 30
0.0
 10
519.056951
 20
44.938793
 30
0.0
  0
SPLINE
  5
1f9
100
AcDbEntity
  8
0
 62
3
100
AcDbSpline
 70
8
 71
3
 72
8
 73
4
 74
0
 40
0
 40
0
 40
0
 40
0
 40
1
 40
1
 40
1
 40
1
 10
453.325717
 20
82.749396
 30
0.0
 10
454.264618
 20
82.749396
 30
0.0
 10
455.025718
 20
83.510520
 30
0.0
 10
455.025718
 20
84.449394
 30
0.0
  0
SPLINE
  5
1fa
100
AcDbEntity
  8
0
 62
3
100
AcDbSpline
 70
8
 71
3
 72
8
 73
4
 74
0
 40
0
 40
0
 40
0
 40
0
 40
1
 40
1
 40
1
 40
1
 10
128.858682
 20
326.709985
 30
0.0
 10
128.858682
 20
325.826330
 30
0.0
 10
129.575031
 20
325.109997
 30
0.0
 10
130.458702
 20
325.109997
 30
0.0
  0
SPLINE
  5
1fb
100
AcDbEntity
  8
0
 62
3
100
AcDbSpline
 70
8
 71
3
 72
8
 73
4
 74
0
 40
0
 40
0
 40
0
 40
0
 40
1
 40
1
 40
1
 40
1
 10
463.943420
 20
137.677639
 30
0.0
 10
464.814402
 20
137.204247
 30
0.0
 10
465.136691
 20
136.114457
 30
0.0
 10
464.663299
 20
135.243478
 30
0.0
  0
SPLINE
  5
1fc
100
AcDbEntity
  8
0
 62
3
100
AcDbSpline
 70
8
 71
3
 72
8
 73
4
 74
0
 40
0
 40
0
 40
0
 40
0
 40
1
 40
1
 40
1
 40
1
 10
84.958781
 20
313.110029
 30
0.0
 10
84.075109
 20
313.110029
 30
0.0
 10
83.358760
 20
313.826335
 30
0.0
 10
83.358760
 20
314.710015
 30
0.0
  0
SPLINE
  5
1fd
100
AcDbEntity
  8
0
 62
3
100
AcDbSpline
 70
8
 71
3
 72
8
 73
4
 74
0
 40
0
 40
0
 40
0
 40
0
 40
1
 40
1
 40
1
 40
1
 10
528.529908
 20
148.658065
 30
0.0
 10
528.529908
 20
147.719194
 30
0.0
 10
527.768808
 20
146.958069
 30
0.0
 10
526.829907
 20
146.958069
 30
0.0
  0
SPLINE
  5
1fe
100
AcDbEntity
  8
0
 62
3
100
AcDbSpline
 70
8
 71
3
 72
8
 73
4
 74
0
 40
0
 40
0
 40
0
 40
0
 40
1
 40
1
 40
1
 40
1
 10
453.325717
 20
124.149308
 30
0.0
 10
454.264618
 20
124.149308
 30
0.0
 10
455.025718
 20
123.388183
 30
0.0
 10
455.025718
 20
122.449309
 30
0.0
  0
SPLINE
  5
1ff
100
AcDbEntity
  8
0
 62
3
100
AcDbSpline
 70
8
 71
3
 72
8
 73
4
 74
0
 40
0
 40
0
 40
0
 40
0
 40
1
 40
1
 40
1
 40
1
 10
453.325717
 20
120.749311
 30
0.0
 10
452.386843
 20
120.749311
 30
0.0
 10
451.625716
 20
121.510438
 30
0.0
 10
451.625716
 20
122.449309
 30
0.0
  0
SPLINE
  5
200
100
AcDbEntity
  8
0
 62
3
100
AcDbSpline
 70
8
 71
3
 72
8
 73
4
 74
0
 40
0
 40
0
 40
0
 40
0
 40
1
 40
1
 40
1
 40
1
 10
455.025718
 20
122.449309
 30
0.0
 10
455.025718
 20
121.510438
 30
0.0
 10
454.264618
 20
120.749311
 30
0.0
 10
453.325717
 20
120.749311
 30
0.0
  0
SPLINE
  5
201
100
AcDbEntity
  8
0
 62
3
100
AcDbSpline
 70
8
 71
3
 72
8
 73
4
 74
0
 40
0
 40
0
 40
0
 40
0
 40
1
 40
1
 40
1
 40
1
 10
525.129906
 20
148.658065
 30
0.0
 10
525.129906
 20
149.596966
 30
0.0
 10
525.891033
 20
150.358063
 30
0.0
 10
526.829907
 20
150.358063
 30
0.0
  0
SPLINE
  5
202
100
AcDbEntity
  8
0
 62
3
100
AcDbSpline
 70
8
 71
3
 72
8
 73
4
 74
0
 40
0
 40
0
 40
0
 40
0
 40
1
 40
1
 40
1
 40
1
 10
451.625716
 20
122.449309
 30
0.0
 10
451.625716
 20
123.388183
 30
0.0
 10
452.386843
 20
124.149308
 30
0.0
 10
453.325717
 20
124.149308
 30
0.0
  0
SPLINE
  5
203
100
AcDbEntity
  8
0
 62
3
100
AcDbSpline
 70
8
 71
3
 72
8
 73
4
 74
0
 40
0
 40
0
 40
0
 40
0
 40
1
 40
1
 40
1
 40
1
 10
478.024096
 20
79.600780
 30
0.0
 10
476.672657
 20
78.970598
 30
0.0
 10
476.087955
 20
77.364157
 30
0.0
 10
476.718166
 20
76.012694
 30
0.0
  0
SPLINE
  5
204
100
AcDbEntity
  8
0
 62
3
100
AcDbSpline
 70
8
 71
3
 72
8
 73
4
 74
0
 40
0
 40
0
 40
0
 40
0
 40
1
 40
1
 40
1
 40
1
 10
466.186664
 20
111.375036
 30
0.0
 10
465.556479
 20
112.726499
 30
0.0
 10
463.950035
 20
113.311175
 30
0.0
 10
462.598570
 20
112.680937
 30
0.0
  0
SPLINE
  5
205
100
AcDbEntity
  8
0
 62
3
100
AcDbSpline
 70
8
 71
3
 72
8
 73
4
 74
0
 40
0
 40
0
 40
0
 40
0
 40
1
 40
1
 40
1
 40
1
 10
451.625716
 20
84.449394
 30
0.0
 10
451.625716
 20
83.510520
 30
0.0
 10
452.386843
 20
82.749396
 30
0.0
 10
453.325717
 20
82.749396
 30
0.0
  0
SPLINE
  5
206
100
AcDbEntity
  8
0
 62
3
100
AcDbSpline
 70
8
 71
3
 72
8
 73
4
 74
0
 40
0
 40
0
 40
0
 40
0
 40
1
 40
1
 40
1
 40
1
 10
462.598570
 20
112.680937
 30
0.0
 10
461.247104
 20
112.050755
 30
0.0
 10
460.662455
 20
110.444314
 30
0.0
 10
461.292613
 20
109.092851
 30
0.0
  0
SPLINE
  5
207
100
AcDbEntity
  8
0
 62
3
100
AcDbSpline
 70
8
 71
3
 72
8
 73
4
 74
0
 40
0
 40
0
 40
0
 40
0
 40
1
 40
1
 40
1
 40
1
 10
132.058690
 20
314.710015
 30
0.0
 10
132.058690
 20
315.593695
 30
0.0
 10
131.342336
 20
316.310000
 30
0.0
 10
130.458702
 20
316.310000
 30
0.0
  0
SPLINE
  5
208
100
AcDbEntity
  8
0
 62
3
100
AcDbSpline
 70
8
 71
3
 72
8
 73
4
 74
0
 40
0
 40
0
 40
0
 40
0
 40
1
 40
1
 40
1
 40
1
 10
476.718166
 20
76.012694
 30
0.0
 10
477.348350
 20
74.661231
 30
0.0
 10
478.954795
 20
74.076555
 30
0.0
 10
480.306260
 20
74.706740
 30
0.0
  0
SPLINE
  5
209
100
AcDbEntity
  8
0
 62
3
100
AcDbSpline
 70
8
 71
3
 72
8
 73
4
 74
0
 40
0
 40
0
 40
0
 40
0
 40
1
 40
1
 40
1
 40
1
 10
481.612217
 20
78.294852
 30
0.0
 10
480.982006
 20
79.646289
 30
0.0
 10
479.375561
 20
80.230991
 30
0.0
 10
478.024096
 20
79.600780
 30
0.0
  0
SPLINE
  5
20a
100
AcDbEntity
  8
0
 62
3
100
AcDbSpline
 70
8
 71
3
 72
8
 73
4
 74
0
 40
0
 40
0
 40
0
 40
0
 40
1
 40
1
 40
1
 40
1
 10
128.858682
 20
314.710015
 30
0.0
 10
128.858682
 20
313.826335
 30
0.0
 10
129.575031
 20
313.110029
 30
0.0
 10
130.458702
 20
313.110029
 30
0.0
  0
SPLINE
  5
20b
100
AcDbEntity
  8
0
 62
3
100
AcDbSpline
 70
8
 71
3
 72
8
 73
4
 74
0
 40
0
 40
0
 40
0
 40
0
 40
1
 40
1
 40
1
 40
1
 10
461.509227
 20
136.957737
 30
0.0
 10
461.982620
 20
137.828743
 30
0.0
 10
463.072412
 20
138.151032
 30
0.0
 10
463.943420
 20
137.677639
 30
0.0
  0
SPLINE
  5
20c
100
AcDbEntity
  8
0
 62
3
100
AcDbSpline
 70
8
 71
3
 72
8
 73
4
 74
0
 40
0
 40
0
 40
0
 40
0
 40
1
 40
1
 40
1
 40
1
 10
480.306260
 20
74.706740
 30
0.0
 10
481.657725
 20
75.336951
 30
0.0
 10
482.242401
 20
76.943392
 30
0.0
 10
481.612217
 20
78.294852
 30
0.0
  0
SPLINE
  5
20d
100
AcDbEntity
  8
0
 62
3
100
AcDbSpline
 70
8
 71
3
 72
8
 73
4
 74
0
 40
0
 40
0
 40
0
 40
0
 40
1
 40
1
 40
1
 40
1
 10
464.880733
 20
107.786950
 30
0.0
 10
466.232172
 20
108.417132
 30
0.0
 10
466.816875
 20
110.023573
 30
0.0
 10
466.186664
 20
111.375036
 30
0.0
  0
SPLINE
  5
20e
100
AcDbEntity
  8
0
 62
3
100
AcDbSpline
 70
8
 71
3
 72
8
 73
4
 74
0
 40
0
 40
0
 40
0
 40
0
 40
1
 40
1
 40
1
 40
1
 10
453.325717
 20
86.149393
 30
0.0
 10
452.386843
 20
86.149393
 30
0.0
 10
451.625716
 20
85.388266
 30
0.0
 10
451.625716
 20
84.449394
 30
0.0
  0
SPLINE
  5
20f
100
AcDbEntity
  8
0
 62
3
100
AcDbSpline
 70
8
 71
3
 72
8
 73
4
 74
0
 40
0
 40
0
 40
0
 40
0
 40
1
 40
1
 40
1
 40
1
 10
464.663299
 20
135.243478
 30
0.0
 10
464.189959
 20
134.372499
 30
0.0
 10
463.100114
 20
134.050183
 30
0.0
 10
462.229132
 20
134.523573
 30
0.0
  0
SPLINE
  5
210
100
AcDbEntity
  8
0
 62
3
100
AcDbSpline
 70
8
 71
3
 72
8
 73
4
 74
0
 40
0
 40
0
 40
0
 40
0
 40
1
 40
1
 40
1
 40
1
 10
130.458702
 20
316.310000
 30
0.0
 10
129.575031
 20
316.310000
 30
0.0
 10
128.858682
 20
315.593695
 30
0.0
 10
128.858682
 20
314.710015
 30
0.0
  0
SPLINE
  5
211
100
AcDbEntity
  8
0
 62
3
100
AcDbSpline
 70
8
 71
3
 72
8
 73
4
 74
0
 40
0
 40
0
 40
0
 40
0
 40
1
 40
1
 40
1
 40
1
 10
132.058690
 20
326.709985
 30
0.0
 10
132.058690
 20
327.593638
 30
0.0
 10
131.342336
 20
328.309995
 30
0.0
 10
130.458702
 20
328.309995
 30
0.0
  0
SPLINE
  5
212
100
AcDbEntity
  8
0
 62
3
100
AcDbSpline
 70
8
 71
3
 72
8
 73
4
 74
0
 40
0
 40
0
 40
0
 40
0
 40
1
 40
1
 40
1
 40
1
 10
130.458702
 20
328.309995
 30
0.0
 10
129.575031
 20
328.309995
 30
0.0
 10
128.858682
 20
327.593638
 30
0.0
 10
128.858682
 20
326.709985
 30
0.0
  0
SPLINE
  5
213
100
AcDbEntity
  8
0
 62
3
100
AcDbSpline
 70
8
 71
3
 72
8
 73
4
 74
0
 40
0
 40
0
 40
0
 40
0
 40
1
 40
1
 40
1
 40
1
 10
462.229132
 20
134.523573
 30
0.0
 10
461.358177
 20
134.996966
 30
0.0
 10
461.035835
 20
136.086755
 30
0.0
 10
461.509227
 20
136.957737
 30
0.0
  0
SPLINE
  5
214
100
AcDbEntity
  8
0
 62
3
100
AcDbSpline
 70
8
 71
3
 72
8
 73
4
 74
0
 40
0
 40
0
 40
0
 40
0
 40
1
 40
1
 40
1
 40
1
 10
130.458702
 20
313.110029
 30
0.0
 10
131.342336
 20
313.110029
 30
0.0
 10
132.058690
 20
313.826335
 30
0.0
 10
132.058690
 20
314.710015
 30
0.0
  0
SPLINE
  5
215
100
AcDbEntity
  8
0
 62
3
100
AcDbSpline
 70
8
 71
3
 72
8
 73
4
 74
0
 40
0
 40
0
 40
0
 40
0
 40
1
 40
1
 40
1
 40
1
 10
86.558766
 20
314.710015
 30
0.0
 10
86.558766
 20
313.826335
 30
0.0
 10
85.842420
 20
313.110029
 30
0.0
 10
84.958781
 20
313.110029
 30
0.0
  0
SPLINE
  5
216
100
AcDbEntity
  8
0
 62
3
100
AcDbSpline
 70
8
 71
3
 72
8
 73
4
 74
0
 40
0
 40
0
 40
0
 40
0
 40
1
 40
1
 40
1
 40
1
 10
455.025718
 20
84.449394
 30
0.0
 10
455.025718
 20
85.388266
 30
0.0
 10
454.264618
 20
86.149393
 30
0.0
 10
453.325717
 20
86.149393
 30
0.0
  0
SPLINE
  5
217
100
AcDbEntity
  8
0
 62
3
100
AcDbSpline
 70
8
 71
3
 72
8
 73
4
 74
0
 40
0
 40
0
 40
0
 40
0
 40
1
 40
1
 40
1
 40
1
 10
461.292613
 20
109.092851
 30
0.0
 10
461.922824
 20
107.741389
 30
0.0
 10
463.529268
 20
107.156739
 30
0.0
 10
464.880733
 20
107.786950
 30
0.0
  0
LWPOLYLINE
  5
218
100
AcDbEntity
  8
0
 62
7
100
AcDbPolyline
 90
2
 70
0
 10
447.722636
 20
44.938793
 30
0.0
 10
447.722636
 20
49.938889
 30
0.0
  0
SPLINE
  5
219
100
AcDbEntity
  8
0
 62
3
100
AcDbSpline
 70
8
 71
3
 72
8
 73
4
 74
0
 40
0
 40
0
 40
0
 40
0
 40
1
 40
1
 40
1
 40
1
 10
130.458702
 20
325.109997
 30
0.0
 10
131.342336
 20
325.109997
 30
0.0
 10
132.058690
 20
325.826330
 30
0.0
 10
132.058690
 20
326.709985
 30
0.0
  0
SPLINE
  5
21a
100
AcDbEntity
  8
0
 62
3
100
AcDbSpline
 70
8
 71
3
 72
8
 73
4
 74
0
 40
0
 40
0
 40
0
 40
0
 40
1
 40
1
 40
1
 40
1
 10
206.558497
 20
314.710015
 30
0.0
 10
206.558497
 20
315.593695
 30
0.0
 10
205.842146
 20
316.310000
 30
0.0
 10
204.958477
 20
316.310000
 30
0.0
  0
SPLINE
  5
21b
100
AcDbEntity
  8
0
 62
3
100
AcDbSpline
 70
8
 71
3
 72
8
 73
4
 74
0
 40
0
 40
0
 40
0
 40
0
 40
1
 40
1
 40
1
 40
1
 10
86.558766
 20
326.709985
 30
0.0
 10
86.558766
 20
325.826330
 30
0.0
 10
85.842420
 20
325.109997
 30
0.0
 10
84.958781
 20
325.109997
 30
0.0
  0
SPLINE
  5
21c
100
AcDbEntity
  8
0
 62
3
100
AcDbSpline
 70
8
 71
3
 72
8
 73
4
 74
0
 40
0
 40
0
 40
0
 40
0
 40
1
 40
1
 40
1
 40
1
 10
204.958477
 20
313.110029
 30
0.0
 10
205.842146
 20
313.110029
 30
0.0
 10
206.558497
 20
313.826335
 30
0.0
 10
206.558497
 20
314.710015
 30
0.0
  0
SPLINE
  5
21d
100
AcDbEntity
  8
0
 62
3
100
AcDbSpline
 70
8
 71
3
 72
8
 73
4
 74
0
 40
0
 40
0
 40
0
 40
0
 40
1
 40
1
 40
1
 40
1
 10
83.358760
 20
326.709985
 30
0.0
 10
83.358760
 20
327.593638
 30
0.0
 10
84.075109
 20
328.309995
 30
0.0
 10
84.958781
 20
328.309995
 30
0.0
  0
SPLINE
  5
21e
100
AcDbEntity
  8
0
 62
3
100
AcDbSpline
 70
8
 71
3
 72
8
 73
4
 74
0
 40
0
 40
0
 40
0
 40
0
 40
1
 40
1
 40
1
 40
1
 10
84.958781
 20
328.309995
 30
0.0
 10
85.842420
 20
328.309995
 30
0.0
 10
86.558766
 20
327.593638
 30
0.0
 10
86.558766
 20
326.709985
 30
0.0
  0
SPLINE
  5
21f
100
AcDbEntity
  8
0
 62
3
100
AcDbSpline
 70
8
 71
3
 72
8
 73
4
 74
0
 40
0
 40
0
 40
0
 40
0
 40
1
 40
1
 40
1
 40
1
 10
204.958477
 20
316.310000
 30
0.0
 10
204.074840
 20
316.310000
 30
0.0
 10
203.358491
 20
315.593695
 30
0.0
 10
203.358491
 20
314.710015
 30
0.0
  0
SPLINE
  5
220
100
AcDbEntity
  8
0
 62
3
100
AcDbSpline
 70
8
 71
3
 72
8
 73
4
 74
0
 40
0
 40
0
 40
0
 40
0
 40
1
 40
1
 40
1
 40
1
 10
84.958781
 20
316.310000
 30
0.0
 10
85.842420
 20
316.310000
 30
0.0
 10
86.558766
 20
315.593695
 30
0.0
 10
86.558766
 20
314.710015
 30
0.0
  0
SPLINE
  5
221
100
AcDbEntity
  8
0
 62
3
100
AcDbSpline
 70
8
 71
3
 72
8
 73
4
 74
0
 40
0
 40
0
 40
0
 40
0
 40
1
 40
1
 40
1
 40
1
 10
203.358491
 20
314.710015
 30
0.0
 10
203.358491
 20
313.826335
 30
0.0
 10
204.074840
 20
313.110029
 30
0.0
 10
204.958477
 20
313.110029
 30
0.0
  0
SPLINE
  5
222
100
AcDbEntity
  8
0
 62
3
100
AcDbSpline
 70
8
 71
3
 72
8
 73
4
 74
0
 40
0
 40
0
 40
0
 40
0
 40
1
 40
1
 40
1
 40
1
 10
83.358760
 20
314.710015
 30
0.0
 10
83.358760
 20
315.593695
 30
0.0
 10
84.075109
 20
316.310000
 30
0.0
 10
84.958781
 20
316.310000
 30
0.0
  0
SPLINE
  5
223
100
AcDbEntity
  8
0
 62
3
100
AcDbSpline
 70
8
 71
3
 72
8
 73
4
 74
0
 40
0
 40
0
 40
0
 40
0
 40
1
 40
1
 40
1
 40
1
 10
84.958781
 20
325.109997
 30
0.0
 10
84.075109
 20
325.109997
 30
0.0
 10
83.358760
 20
325.826330
 30
0.0
 10
83.358760
 20
326.709985
 30
0.0
  0
SPLINE
  5
224
100
AcDbEntity
  8
0
 62
3
100
AcDbSpline
 70
8
 71
3
 72
8
 73
4
 74
0
 40
0
 40
0
 40
0
 40
0
 40
1
 40
1
 40
1
 40
1
 10
86.558769
 20
326.709993
 30
0.0
 10
86.558769
 20
327.281619
 30
0.0
 10
86.253810
 20
327.809823
 30
0.0
 10
85.758768
 20
328.095636
 30
0.0
  0
SPLINE
  5
225
100
AcDbEntity
  8
0
 62
3
100
AcDbSpline
 70
8
 71
3
 72
8
 73
4
 74
0
 40
0
 40
0
 40
0
 40
0
 40
1
 40
1
 40
1
 40
1
 10
85.758768
 20
328.095636
 30
0.0
 10
85.263725
 20
328.381449
 30
0.0
 10
84.653807
 20
328.381449
 30
0.0
 10
84.158765
 20
328.095636
 30
0.0
  0
SPLINE
  5
226
100
AcDbEntity
  8
0
 62
3
100
AcDbSpline
 70
8
 71
3
 72
8
 73
4
 74
0
 40
0
 40
0
 40
0
 40
0
 40
1
 40
1
 40
1
 40
1
 10
84.158765
 20
328.095636
 30
0.0
 10
83.663722
 20
327.809823
 30
0.0
 10
83.358763
 20
327.281619
 30
0.0
 10
83.358763
 20
326.709993
 30
0.0
  0
SPLINE
  5
227
100
AcDbEntity
  8
0
 62
3
100
AcDbSpline
 70
8
 71
3
 72
8
 73
4
 74
0
 40
0
 40
0
 40
0
 40
0
 40
1
 40
1
 40
1
 40
1
 10
83.358763
 20
326.709993
 30
0.0
 10
83.358763
 20
326.138367
 30
0.0
 10
83.663722
 20
325.610163
 30
0.0
 10
84.158765
 20
325.324350
 30
0.0
  0
SPLINE
  5
228
100
AcDbEntity
  8
0
 62
3
100
AcDbSpline
 70
8
 71
3
 72
8
 73
4
 74
0
 40
0
 40
0
 40
0
 40
0
 40
1
 40
1
 40
1
 40
1
 10
84.158765
 20
325.324350
 30
0.0
 10
84.653807
 20
325.038537
 30
0.0
 10
85.263725
 20
325.038537
 30
0.0
 10
85.758768
 20
325.324350
 30
0.0
  0
SPLINE
  5
229
100
AcDbEntity
  8
0
 62
3
100
AcDbSpline
 70
8
 71
3
 72
8
 73
4
 74
0
 40
0
 40
0
 40
0
 40
0
 40
1
 40
1
 40
1
 40
1
 10
85.758768
 20
325.324350
 30
0.0
 10
86.253810
 20
325.610163
 30
0.0
 10
86.558769
 20
326.138367
 30
0.0
 10
86.558769
 20
326.709993
 30
0.0
  0
LWPOLYLINE
  5
22a
100
AcDbEntity
  8
0
 62
7
100
AcDbPolyline
 90
2
 70
0
 10
335.131839
 20
356.810325
 30
0.0
 10
335.131839
 20
326.810543
 30
0.0
  0
SPLINE
  5
22b
100
AcDbEntity
  8
0
 62
3
100
AcDbSpline
 70
8
 71
3
 72
8
 73
4
 74
0
 40
0
 40
0
 40
0
 40
0
 40
1
 40
1
 40
1
 40
1
 10
166.558768
 20
326.709993
 30
0.0
 10
166.557753
 20
327.592929
 30
0.0
 10
165.841707
 20
328.308153
 30
0.0
 10
164.958769
 20
328.308153
 30
0.0
  0
SPLINE
  5
22c
100
AcDbEntity
  8
0
 62
3
100
AcDbSpline
 70
8
 71
3
 72
8
 73
4
 74
0
 40
0
 40
0
 40
0
 40
0
 40
1
 40
1
 40
1
 40
1
 10
164.958769
 20
328.308153
 30
0.0
 10
164.075832
 20
328.308153
 30
0.0
 10
163.359786
 20
327.592929
 30
0.0
 10
163.358770
 20
326.709993
 30
0.0
  0
SPLINE
  5
22d
100
AcDbEntity
  8
0
 62
3
100
AcDbSpline
 70
8
 71
3
 72
8
 73
4
 74
0
 40
0
 40
0
 40
0
 40
0
 40
1
 40
1
 40
1
 40
1
 10
163.358770
 20
326.709993
 30
0.0
 10
163.359786
 20
325.827057
 30
0.0
 10
164.075832
 20
325.111833
 30
0.0
 10
164.958769
 20
325.111833
 30
0.0
  0
SPLINE
  5
22e
100
AcDbEntity
  8
0
 62
3
100
AcDbSpline
 70
8
 71
3
 72
8
 73
4
 74
0
 40
0
 40
0
 40
0
 40
0
 40
1
 40
1
 40
1
 40
1
 10
164.958769
 20
325.111833
 30
0.0
 10
165.841707
 20
325.111833
 30
0.0
 10
166.557753
 20
325.827057
 30
0.0
 10
166.558768
 20
326.709993
 30
0.0
  0
LWPOLYLINE
  5
22f
100
AcDbEntity
  8
0
 62
3
100
AcDbPolyline
 90
1
 70
1
 10
86.558769
 20
326.709993
 30
0.0
  0
SPLINE
  5
230
100
AcDbEntity
  8
0
 62
3
100
AcDbSpline
 70
8
 71
3
 72
8
 73
4
 74
0
 40
0
 40
0
 40
0
 40
0
 40
1
 40
1
 40
1
 40
1
 10
86.558761
 20
314.710005
 30
0.0
 10
86.558402
 20
315.593403
 30
0.0
 10
85.842165
 20
316.309349
 30
0.0
 10
84.958766
 20
316.309349
 30
0.0
  0
SPLINE
  5
231
100
AcDbEntity
  8
0
 62
3
100
AcDbSpline
 70
8
 71
3
 72
8
 73
4
 74
0
 40
0
 40
0
 40
0
 40
0
 40
1
 40
1
 40
1
 40
1
 10
84.958766
 20
316.309349
 30
0.0
 10
84.075367
 20
316.309349
 30
0.0
 10
83.359130
 20
315.593403
 30
0.0
 10
83.358771
 20
314.710005
 30
0.0
  0
SPLINE
  5
232
100
AcDbEntity
  8
0
 62
3
100
AcDbSpline
 70
8
 71
3
 72
8
 73
4
 74
0
 40
0
 40
0
 40
0
 40
0
 40
1
 40
1
 40
1
 40
1
 10
83.358771
 20
314.710005
 30
0.0
 10
83.359130
 20
313.826606
 30
0.0
 10
84.075367
 20
313.110660
 30
0.0
 10
84.958766
 20
313.110660
 30
0.0
  0
SPLINE
  5
233
100
AcDbEntity
  8
0
 62
3
100
AcDbSpline
 70
8
 71
3
 72
8
 73
4
 74
0
 40
0
 40
0
 40
0
 40
0
 40
1
 40
1
 40
1
 40
1
 10
84.958766
 20
313.110660
 30
0.0
 10
85.842165
 20
313.110660
 30
0.0
 10
86.558402
 20
313.826606
 30
0.0
 10
86.558761
 20
314.710005
 30
0.0
  0
LWPOLYLINE
  5
234
100
AcDbEntity
  8
0
 62
3
100
AcDbPolyline
 90
1
 70
1
 10
166.558768
 20
326.709993
 30
0.0
  0
SPLINE
  5
235
100
AcDbEntity
  8
0
 62
3
100
AcDbSpline
 70
8
 71
3
 72
8
 73
4
 74
0
 40
0
 40
0
 40
0
 40
0
 40
1
 40
1
 40
1
 40
1
 10
166.558768
 20
314.710005
 30
0.0
 10
166.557753
 20
315.592941
 30
0.0
 10
165.841707
 20
316.308164
 30
0.0
 10
164.958769
 20
316.308164
 30
0.0
  0
SPLINE
  5
236
100
AcDbEntity
  8
0
 62
3
100
AcDbSpline
 70
8
 71
3
 72
8
 73
4
 74
0
 40
0
 40
0
 40
0
 40
0
 40
1
 40
1
 40
1
 40
1
 10
164.958769
 20
316.308164
 30
0.0
 10
164.075832
 20
316.308164
 30
0.0
 10
163.359786
 20
315.592941
 30
0.0
 10
163.358770
 20
314.710005
 30
0.0
  0
SPLINE
  5
237
100
AcDbEntity
  8
0
 62
3
100
AcDbSpline
 70
8
 71
3
 72
8
 73
4
 74
0
 40
0
 40
0
 40
0
 40
0
 40
1
 40
1
 40
1
 40
1
 10
163.358770
 20
314.710005
 30
0.0
 10
163.359786
 20
313.827068
 30
0.0
 10
164.075832
 20
313.111845
 30
0.0
 10
164.958769
 20
313.111845
 30
0.0
  0
SPLINE
  5
238
100
AcDbEntity
  8
0
 62
3
100
AcDbSpline
 70
8
 71
3
 72
8
 73
4
 74
0
 40
0
 40
0
 40
0
 40
0
 40
1
 40
1
 40
1
 40
1
 10
164.958769
 20
313.111845
 30
0.0
 10
165.841707
 20
313.111845
 30
0.0
 10
166.557753
 20
313.827068
 30
0.0
 10
166.558768
 20
314.710005
 30
0.0
  0
LWPOLYLINE
  5
239
100
AcDbEntity
  8
0
 62
3
100
AcDbPolyline
 90
1
 70
1
 10
86.558761
 20
314.710005
 30
0.0
  0
SPLINE
  5
23a
100
AcDbEntity
  8
0
 62
3
100
AcDbSpline
 70
8
 71
3
 72
8
 73
4
 74
0
 40
0
 40
0
 40
0
 40
0
 40
1
 40
1
 40
1
 40
1
 10
206.558497
 20
326.709993
 30
0.0
 10
206.558497
 20
327.281619
 30
0.0
 10
206.253538
 20
327.809823
 30
0.0
 10
205.758496
 20
328.095636
 30
0.0
  0
SPLINE
  5
23b
100
AcDbEntity
  8
0
 62
3
100
AcDbSpline
 70
8
 71
3
 72
8
 73
4
 74
0
 40
0
 40
0
 40
0
 40
0
 40
1
 40
1
 40
1
 40
1
 10
205.758496
 20
328.095636
 30
0.0
 10
205.263453
 20
328.381449
 30
0.0
 10
204.653535
 20
328.381449
 30
0.0
 10
204.158493
 20
328.095636
 30
0.0
  0
SPLINE
  5
23c
100
AcDbEntity
  8
0
 62
3
100
AcDbSpline
 70
8
 71
3
 72
8
 73
4
 74
0
 40
0
 40
0
 40
0
 40
0
 40
1
 40
1
 40
1
 40
1
 10
204.158493
 20
328.095636
 30
0.0
 10
203.663450
 20
327.809823
 30
0.0
 10
203.358491
 20
327.281619
 30
0.0
 10
203.358491
 20
326.709993
 30
0.0
  0
SPLINE
  5
23d
100
AcDbEntity
  8
0
 62
3
100
AcDbSpline
 70
8
 71
3
 72
8
 73
4
 74
0
 40
0
 40
0
 40
0
 40
0
 40
1
 40
1
 40
1
 40
1
 10
203.358491
 20
326.709993
 30
0.0
 10
203.358491
 20
326.138367
 30
0.0
 10
203.663450
 20
325.610163
 30
0.0
 10
204.158493
 20
325.324350
 30
0.0
  0
SPLINE
  5
23e
100
AcDbEntity
  8
0
 62
3
100
AcDbSpline
 70
8
 71
3
 72
8
 73
4
 74
0
 40
0
 40
0
 40
0
 40
0
 40
1
 40
1
 40
1
 40
1
 10
204.158493
 20
325.324350
 30
0.0
 10
204.653535
 20
325.038537
 30
0.0
 10
205.263453
 20
325.038537
 30
0.0
 10
205.758496
 20
325.324350
 30
0.0
  0
SPLINE
  5
23f
100
AcDbEntity
  8
0
 62
3
100
AcDbSpline
 70
8
 71
3
 72
8
 73
4
 74
0
 40
0
 40
0
 40
0
 40
0
 40
1
 40
1
 40
1
 40
1
 10
205.758496
 20
325.324350
 30
0.0
 10
206.253538
 20
325.610163
 30
0.0
 10
206.558497
 20
326.138367
 30
0.0
 10
206.558497
 20
326.709993
 30
0.0
  0
LWPOLYLINE
  5
240
100
AcDbEntity
  8
0
 62
3
100
AcDbPolyline
 90
1
 70
1
 10
166.558768
 20
314.710005
 30
0.0
  0
SPLINE
  5
241
100
AcDbEntity
  8
0
 62
7
100
AcDbSpline
 70
8
 71
3
 72
8
 73
4
 74
0
 40
0
 40
0
 40
0
 40
0
 40
1
 40
1
 40
1
 40
1
 10
315.950870
 20
159.810814
 30
0.0
 10
315.950870
 20
156.477494
 30
0.0
 10
317.344474
 20
154.810834
 30
0.0
 10
320.131683
 20
154.810834
 30
0.0
  0
SPLINE
  5
242
100
AcDbEntity
  8
0
 62
7
100
AcDbSpline
 70
8
 71
3
 72
8
 73
4
 74
0
 40
0
 40
0
 40
0
 40
0
 40
1
 40
1
 40
1
 40
1
 10
23.813066
 20
159.810814
 30
0.0
 10
23.813066
 20
156.477494
 30
0.0
 10
22.586127
 20
154.810834
 30
0.0
 10
20.132250
 20
154.810834
 30
0.0
  0
SPLINE
  5
243
100
AcDbEntity
  8
0
 62
3
100
AcDbSpline
 70
8
 71
3
 72
8
 73
4
 74
0
 40
0
 40
0
 40
0
 40
0
 40
1
 40
1
 40
1
 40
1
 10
417.615670
 20
266.414227
 30
0.0
 10
417.612428
 20
267.350902
 30
0.0
 10
416.852191
 20
268.108511
 30
0.0
 10
415.915511
 20
268.108511
 30
0.0
  0
SPLINE
  5
244
100
AcDbEntity
  8
0
 62
3
100
AcDbSpline
 70
8
 71
3
 72
8
 73
4
 74
0
 40
0
 40
0
 40
0
 40
0
 40
1
 40
1
 40
1
 40
1
 10
415.915511
 20
268.108511
 30
0.0
 10
414.978831
 20
268.108511
 30
0.0
 10
414.218594
 20
267.350902
 30
0.0
 10
414.215351
 20
266.414227
 30
0.0
  0
SPLINE
  5
245
100
AcDbEntity
  8
0
 62
3
100
AcDbSpline
 70
8
 71
3
 72
8
 73
4
 74
0
 40
0
 40
0
 40
0
 40
0
 40
1
 40
1
 40
1
 40
1
 10
414.215351
 20
266.414227
 30
0.0
 10
414.218594
 20
265.477552
 30
0.0
 10
414.978831
 20
264.719942
 30
0.0
 10
415.915511
 20
264.719942
 30
0.0
  0
SPLINE
  5
246
100
AcDbEntity
  8
0
 62
3
100
AcDbSpline
 70
8
 71
3
 72
8
 73
4
 74
0
 40
0
 40
0
 40
0
 40
0
 40
1
 40
1
 40
1
 40
1
 10
415.915511
 20
264.719942
 30
0.0
 10
416.852191
 20
264.719942
 30
0.0
 10
417.612428
 20
265.477552
 30
0.0
 10
417.615670
 20
266.414227
 30
0.0
  0
LWPOLYLINE
  5
247
100
AcDbEntity
  8
0
 62
3
100
AcDbPolyline
 90
1
 70
1
 10
206.558497
 20
326.709993
 30
0.0
  0
SPLINE
  5
248
100
AcDbEntity
  8
0
 62
3
100
AcDbSpline
 70
8
 71
3
 72
8
 73
4
 74
0
 40
0
 40
0
 40
0
 40
0
 40
1
 40
1
 40
1
 40
1
 10
417.615803
 20
253.837292
 30
0.0
 10
417.615803
 20
254.444771
 30
0.0
 10
417.291716
 20
255.006106
 30
0.0
 10
416.765624
 20
255.309845
 30
0.0
  0
SPLINE
  5
249
100
AcDbEntity
  8
0
 62
3
100
AcDbSpline
 70
8
 71
3
 72
8
 73
4
 74
0
 40
0
 40
0
 40
0
 40
0
 40
1
 40
1
 40
1
 40
1
 10
416.765624
 20
255.309845
 30
0.0
 10
416.239531
 20
255.613585
 30
0.0
 10
415.591358
 20
255.613585
 30
0.0
 10
415.065266
 20
255.309845
 30
0.0
  0
SPLINE
  5
24a
100
AcDbEntity
  8
0
 62
3
100
AcDbSpline
 70
8
 71
3
 72
8
 73
4
 74
0
 40
0
 40
0
 40
0
 40
0
 40
1
 40
1
 40
1
 40
1
 10
415.065266
 20
255.309845
 30
0.0
 10
414.539173
 20
255.006106
 30
0.0
 10
414.215087
 20
254.444771
 30
0.0
 10
414.215087
 20
253.837292
 30
0.0
  0
SPLINE
  5
24b
100
AcDbEntity
  8
0
 62
3
100
AcDbSpline
 70
8
 71
3
 72
8
 73
4
 74
0
 40
0
 40
0
 40
0
 40
0
 40
1
 40
1
 40
1
 40
1
 10
414.215087
 20
253.837292
 30
0.0
 10
414.215087
 20
253.229813
 30
0.0
 10
414.539173
 20
252.668478
 30
0.0
 10
415.065266
 20
252.364739
 30
0.0
  0
SPLINE
  5
24c
100
AcDbEntity
  8
0
 62
3
100
AcDbSpline
 70
8
 71
3
 72
8
 73
4
 74
0
 40
0
 40
0
 40
0
 40
0
 40
1
 40
1
 40
1
 40
1
 10
415.065266
 20
252.364739
 30
0.0
 10
415.591358
 20
252.060999
 30
0.0
 10
416.239531
 20
252.060999
 30
0.0
 10
416.765624
 20
252.364739
 30
0.0
  0
SPLINE
  5
24d
100
AcDbEntity
  8
0
 62
3
100
AcDbSpline
 70
8
 71
3
 72
8
 73
4
 74
0
 40
0
 40
0
 40
0
 40
0
 40
1
 40
1
 40
1
 40
1
 10
416.765624
 20
252.364739
 30
0.0
 10
417.291716
 20
252.668478
 30
0.0
 10
417.615803
 20
253.229813
 30
0.0
 10
417.615803
 20
253.837292
 30
0.0
  0
LWPOLYLINE
  5
24e
100
AcDbEntity
  8
0
 62
3
100
AcDbPolyline
 90
1
 70
1
 10
417.615670
 20
266.414227
 30
0.0
  0
SPLINE
  5
24f
100
AcDbEntity
  8
0
 62
3
100
AcDbSpline
 70
8
 71
3
 72
8
 73
4
 74
0
 40
0
 40
0
 40
0
 40
0
 40
1
 40
1
 40
1
 40
1
 10
417.615512
 20
282.125761
 30
0.0
 10
417.615512
 20
282.733113
 30
0.0
 10
417.291493
 20
283.294329
 30
0.0
 10
416.765511
 20
283.598005
 30
0.0
  0
SPLINE
  5
250
100
AcDbEntity
  8
0
 62
3
100
AcDbSpline
 70
8
 71
3
 72
8
 73
4
 74
0
 40
0
 40
0
 40
0
 40
0
 40
1
 40
1
 40
1
 40
1
 10
416.765511
 20
283.598005
 30
0.0
 10
416.239529
 20
283.901681
 30
0.0
 10
415.591492
 20
283.901681
 30
0.0
 10
415.065510
 20
283.598005
 30
0.0
  0
SPLINE
  5
251
100
AcDbEntity
  8
0
 62
3
100
AcDbSpline
 70
8
 71
3
 72
8
 73
4
 74
0
 40
0
 40
0
 40
0
 40
0
 40
1
 40
1
 40
1
 40
1
 10
415.065510
 20
283.598005
 30
0.0
 10
414.539528
 20
283.294329
 30
0.0
 10
414.215510
 20
282.733113
 30
0.0
 10
414.215510
 20
282.125761
 30
0.0
  0
SPLINE
  5
252
100
AcDbEntity
  8
0
 62
3
100
AcDbSpline
 70
8
 71
3
 72
8
 73
4
 74
0
 40
0
 40
0
 40
0
 40
0
 40
1
 40
1
 40
1
 40
1
 10
414.215510
 20
282.125761
 30
0.0
 10
414.215510
 20
281.518409
 30
0.0
 10
414.539528
 20
280.957193
 30
0.0
 10
415.065510
 20
280.653517
 30
0.0
  0
SPLINE
  5
253
100
AcDbEntity
  8
0
 62
3
100
AcDbSpline
 70
8
 71
3
 72
8
 73
4
 74
0
 40
0
 40
0
 40
0
 40
0
 40
1
 40
1
 40
1
 40
1
 10
415.065510
 20
280.653517
 30
0.0
 10
415.591492
 20
280.349841
 30
0.0
 10
416.239529
 20
280.349841
 30
0.0
 10
416.765511
 20
280.653517
 30
0.0
  0
SPLINE
  5
254
100
AcDbEntity
  8
0
 62
3
100
AcDbSpline
 70
8
 71
3
 72
8
 73
4
 74
0
 40
0
 40
0
 40
0
 40
0
 40
1
 40
1
 40
1
 40
1
 10
416.765511
 20
280.653517
 30
0.0
 10
417.291493
 20
280.957193
 30
0.0
 10
417.615512
 20
281.518409
 30
0.0
 10
417.615512
 20
282.125761
 30
0.0
  0
LWPOLYLINE
  5
255
100
AcDbEntity
  8
0
 62
3
100
AcDbPolyline
 90
1
 70
1
 10
417.615803
 20
253.837292
 30
0.0
  0
SPLINE
  5
256
100
AcDbEntity
  8
0
 62
3
100
AcDbSpline
 70
8
 71
3
 72
8
 73
4
 74
0
 40
0
 40
0
 40
0
 40
0
 40
1
 40
1
 40
1
 40
1
 10
417.615406
 20
238.125759
 30
0.0
 10
417.615406
 20
238.733111
 30
0.0
 10
417.291388
 20
239.294327
 30
0.0
 10
416.765405
 20
239.598003
 30
0.0
  0
SPLINE
  5
257
100
AcDbEntity
  8
0
 62
3
100
AcDbSpline
 70
8
 71
3
 72
8
 73
4
 74
0
 40
0
 40
0
 40
0
 40
0
 40
1
 40
1
 40
1
 40
1
 10
416.765405
 20
239.598003
 30
0.0
 10
416.239423
 20
239.901679
 30
0.0
 10
415.591387
 20
239.901679
 30
0.0
 10
415.065405
 20
239.598003
 30
0.0
  0
SPLINE
  5
258
100
AcDbEntity
  8
0
 62
3
100
AcDbSpline
 70
8
 71
3
 72
8
 73
4
 74
0
 40
0
 40
0
 40
0
 40
0
 40
1
 40
1
 40
1
 40
1
 10
415.065405
 20
239.598003
 30
0.0
 10
414.539422
 20
239.294327
 30
0.0
 10
414.215404
 20
238.733111
 30
0.0
 10
414.215404
 20
238.125759
 30
0.0
  0
SPLINE
  5
259
100
AcDbEntity
  8
0
 62
3
100
AcDbSpline
 70
8
 71
3
 72
8
 73
4
 74
0
 40
0
 40
0
 40
0
 40
0
 40
1
 40
1
 40
1
 40
1
 10
414.215404
 20
238.125759
 30
0.0
 10
414.215404
 20
237.518407
 30
0.0
 10
414.539422
 20
236.957191
 30
0.0
 10
415.065405
 20
236.653515
 30
0.0
  0
SPLINE
  5
25a
100
AcDbEntity
  8
0
 62
3
100
AcDbSpline
 70
8
 71
3
 72
8
 73
4
 74
0
 40
0
 40
0
 40
0
 40
0
 40
1
 40
1
 40
1
 40
1
 10
415.065405
 20
236.653515
 30
0.0
 10
415.591387
 20
236.349839
 30
0.0
 10
416.239423
 20
236.349839
 30
0.0
 10
416.765405
 20
236.653515
 30
0.0
  0
SPLINE
  5
25b
100
AcDbEntity
  8
0
 62
3
100
AcDbSpline
 70
8
 71
3
 72
8
 73
4
 74
0
 40
0
 40
0
 40
0
 40
0
 40
1
 40
1
 40
1
 40
1
 10
416.765405
 20
236.653515
 30
0.0
 10
417.291388
 20
236.957191
 30
0.0
 10
417.615406
 20
237.518407
 30
0.0
 10
417.615406
 20
238.125759
 30
0.0
  0
LWPOLYLINE
  5
25c
100
AcDbEntity
  8
0
 62
3
100
AcDbPolyline
 90
1
 70
1
 10
417.615512
 20
282.125761
 30
0.0
  0
SPLINE
  5
25d
100
AcDbEntity
  8
0
 62
3
100
AcDbSpline
 70
8
 71
3
 72
8
 73
4
 74
0
 40
0
 40
0
 40
0
 40
0
 40
1
 40
1
 40
1
 40
1
 10
319.885065
 20
108.542335
 30
0.0
 10
319.885065
 20
112.114989
 30
0.0
 10
317.979077
 20
115.416257
 30
0.0
 10
314.885068
 20
117.202584
 30
0.0
  0
SPLINE
  5
25e
100
AcDbEntity
  8
0
 62
3
100
AcDbSpline
 70
8
 71
3
 72
8
 73
4
 74
0
 40
0
 40
0
 40
0
 40
0
 40
1
 40
1
 40
1
 40
1
 10
314.885068
 20
117.202584
 30
0.0
 10
311.791060
 20
118.988911
 30
0.0
 10
307.979084
 20
118.988911
 30
0.0
 10
304.885075
 20
117.202584
 30
0.0
  0
SPLINE
  5
25f
100
AcDbEntity
  8
0
 62
3
100
AcDbSpline
 70
8
 71
3
 72
8
 73
4
 74
0
 40
0
 40
0
 40
0
 40
0
 40
1
 40
1
 40
1
 40
1
 10
304.885075
 20
117.202584
 30
0.0
 10
301.791066
 20
115.416257
 30
0.0
 10
299.885078
 20
112.114989
 30
0.0
 10
299.885078
 20
108.542335
 30
0.0
  0
SPLINE
  5
260
100
AcDbEntity
  8
0
 62
3
100
AcDbSpline
 70
8
 71
3
 72
8
 73
4
 74
0
 40
0
 40
0
 40
0
 40
0
 40
1
 40
1
 40
1
 40
1
 10
299.885078
 20
108.542335
 30
0.0
 10
299.885078
 20
104.969682
 30
0.0
 10
301.791066
 20
101.668414
 30
0.0
 10
304.885075
 20
99.882087
 30
0.0
  0
SPLINE
  5
261
100
AcDbEntity
  8
0
 62
3
100
AcDbSpline
 70
8
 71
3
 72
8
 73
4
 74
0
 40
0
 40
0
 40
0
 40
0
 40
1
 40
1
 40
1
 40
1
 10
304.885075
 20
99.882087
 30
0.0
 10
307.979084
 20
98.095760
 30
0.0
 10
311.791060
 20
98.095760
 30
0.0
 10
314.885068
 20
99.882087
 30
0.0
  0
SPLINE
  5
262
100
AcDbEntity
  8
0
 62
3
100
AcDbSpline
 70
8
 71
3
 72
8
 73
4
 74
0
 40
0
 40
0
 40
0
 40
0
 40
1
 40
1
 40
1
 40
1
 10
314.885068
 20
99.882087
 30
0.0
 10
317.979077
 20
101.668414
 30
0.0
 10
319.885065
 20
104.969682
 30
0.0
 10
319.885065
 20
108.542335
 30
0.0
  0
LWPOLYLINE
  5
263
100
AcDbEntity
  8
0
 62
3
100
AcDbPolyline
 90
1
 70
1
 10
417.615406
 20
238.125759
 30
0.0
  0
SPLINE
  5
264
100
AcDbEntity
  8
0
 62
3
100
AcDbSpline
 70
8
 71
3
 72
8
 73
4
 74
0
 40
0
 40
0
 40
0
 40
0
 40
1
 40
1
 40
1
 40
1
 10
319.883134
 20
81.042310
 30
0.0
 10
319.883134
 20
84.614992
 30
0.0
 10
317.977131
 20
87.916286
 30
0.0
 10
314.883097
 20
89.702627
 30
0.0
  0
SPLINE
  5
265
100
AcDbEntity
  8
0
 62
3
100
AcDbSpline
 70
8
 71
3
 72
8
 73
4
 74
0
 40
0
 40
0
 40
0
 40
0
 40
1
 40
1
 40
1
 40
1
 10
314.883097
 20
89.702627
 30
0.0
 10
311.789064
 20
91.488968
 30
0.0
 10
307.977058
 20
91.488968
 30
0.0
 10
304.883024
 20
89.702627
 30
0.0
  0
SPLINE
  5
266
100
AcDbEntity
  8
0
 62
3
100
AcDbSpline
 70
8
 71
3
 72
8
 73
4
 74
0
 40
0
 40
0
 40
0
 40
0
 40
1
 40
1
 40
1
 40
1
 10
304.883024
 20
89.702627
 30
0.0
 10
301.788991
 20
87.916286
 30
0.0
 10
299.882988
 20
84.614992
 30
0.0
 10
299.882988
 20
81.042310
 30
0.0
  0
SPLINE
  5
267
100
AcDbEntity
  8
0
 62
3
100
AcDbSpline
 70
8
 71
3
 72
8
 73
4
 74
0
 40
0
 40
0
 40
0
 40
0
 40
1
 40
1
 40
1
 40
1
 10
299.882988
 20
81.042310
 30
0.0
 10
299.882988
 20
77.469628
 30
0.0
 10
301.788991
 20
74.168333
 30
0.0
 10
304.883024
 20
72.381992
 30
0.0
  0
SPLINE
  5
268
100
AcDbEntity
  8
0
 62
3
100
AcDbSpline
 70
8
 71
3
 72
8
 73
4
 74
0
 40
0
 40
0
 40
0
 40
0
 40
1
 40
1
 40
1
 40
1
 10
304.883024
 20
72.381992
 30
0.0
 10
307.977058
 20
70.595651
 30
0.0
 10
311.789064
 20
70.595651
 30
0.0
 10
314.883097
 20
72.381992
 30
0.0
  0
SPLINE
  5
269
100
AcDbEntity
  8
0
 62
3
100
AcDbSpline
 70
8
 71
3
 72
8
 73
4
 74
0
 40
0
 40
0
 40
0
 40
0
 40
1
 40
1
 40
1
 40
1
 10
314.883097
 20
72.381992
 30
0.0
 10
317.977131
 20
74.168333
 30
0.0
 10
319.883134
 20
77.469628
 30
0.0
 10
319.883134
 20
81.042310
 30
0.0
  0
LWPOLYLINE
  5
26a
100
AcDbEntity
  8
0
 62
3
100
AcDbPolyline
 90
1
 70
1
 10
319.885065
 20
108.542335
 30
0.0
  0
SPLINE
  5
26b
100
AcDbEntity
  8
0
 62
3
100
AcDbSpline
 70
8
 71
3
 72
8
 73
4
 74
0
 40
0
 40
0
 40
0
 40
0
 40
1
 40
1
 40
1
 40
1
 10
319.883266
 20
53.542443
 30
0.0
 10
319.883266
 20
57.115097
 30
0.0
 10
317.977278
 20
60.416365
 30
0.0
 10
314.883269
 20
62.202691
 30
0.0
  0
SPLINE
  5
26c
100
AcDbEntity
  8
0
 62
3
100
AcDbSpline
 70
8
 71
3
 72
8
 73
4
 74
0
 40
0
 40
0
 40
0
 40
0
 40
1
 40
1
 40
1
 40
1
 10
314.883269
 20
62.202691
 30
0.0
 10
311.789261
 20
63.989018
 30
0.0
 10
307.977284
 20
63.989018
 30
0.0
 10
304.883276
 20
62.202691
 30
0.0
  0
SPLINE
  5
26d
100
AcDbEntity
  8
0
 62
3
100
AcDbSpline
 70
8
 71
3
 72
8
 73
4
 74
0
 40
0
 40
0
 40
0
 40
0
 40
1
 40
1
 40
1
 40
1
 10
304.883276
 20
62.202691
 30
0.0
 10
301.789267
 20
60.416365
 30
0.0
 10
299.883279
 20
57.115097
 30
0.0
 10
299.883279
 20
53.542443
 30
0.0
  0
SPLINE
  5
26e
100
AcDbEntity
  8
0
 62
3
100
AcDbSpline
 70
8
 71
3
 72
8
 73
4
 74
0
 40
0
 40
0
 40
0
 40
0
 40
1
 40
1
 40
1
 40
1
 10
299.883279
 20
53.542443
 30
0.0
 10
299.883279
 20
49.969789
 30
0.0
 10
301.789267
 20
46.668521
 30
0.0
 10
304.883276
 20
44.882194
 30
0.0
  0
SPLINE
  5
26f
100
AcDbEntity
  8
0
 62
3
100
AcDbSpline
 70
8
 71
3
 72
8
 73
4
 74
0
 40
0
 40
0
 40
0
 40
0
 40
1
 40
1
 40
1
 40
1
 10
304.883276
 20
44.882194
 30
0.0
 10
307.977284
 20
43.095868
 30
0.0
 10
311.789261
 20
43.095868
 30
0.0
 10
314.883269
 20
44.882194
 30
0.0
  0
SPLINE
  5
270
100
AcDbEntity
  8
0
 62
3
100
AcDbSpline
 70
8
 71
3
 72
8
 73
4
 74
0
 40
0
 40
0
 40
0
 40
0
 40
1
 40
1
 40
1
 40
1
 10
314.883269
 20
44.882194
 30
0.0
 10
317.977278
 20
46.668521
 30
0.0
 10
319.883266
 20
49.969789
 30
0.0
 10
319.883266
 20
53.542443
 30
0.0
  0
LWPOLYLINE
  5
271
100
AcDbEntity
  8
0
 62
3
100
AcDbPolyline
 90
1
 70
1
 10
319.883134
 20
81.042310
 30
0.0
  0
SPLINE
  5
272
100
AcDbEntity
  8
0
 62
3
100
AcDbSpline
 70
8
 71
3
 72
8
 73
4
 74
0
 40
0
 40
0
 40
0
 40
0
 40
1
 40
1
 40
1
 40
1
 10
40.818177
 20
108.327367
 30
0.0
 10
40.817279
 20
113.850186
 30
0.0
 10
36.339897
 20
118.326840
 30
0.0
 10
30.817077
 20
118.326840
 30
0.0
  0
SPLINE
  5
273
100
AcDbEntity
  8
0
 62
3
100
AcDbSpline
 70
8
 71
3
 72
8
 73
4
 74
0
 40
0
 40
0
 40
0
 40
0
 40
1
 40
1
 40
1
 40
1
 10
30.817077
 20
118.326840
 30
0.0
 10
25.294257
 20
118.326840
 30
0.0
 10
20.816875
 20
113.850186
 30
0.0
 10
20.815977
 20
108.327367
 30
0.0
  0
SPLINE
  5
274
100
AcDbEntity
  8
0
 62
3
100
AcDbSpline
 70
8
 71
3
 72
8
 73
4
 74
0
 40
0
 40
0
 40
0
 40
0
 40
1
 40
1
 40
1
 40
1
 10
20.815977
 20
108.327367
 30
0.0
 10
20.816875
 20
102.804547
 30
0.0
 10
25.294257
 20
98.327893
 30
0.0
 10
30.817077
 20
98.327893
 30
0.0
  0
SPLINE
  5
275
100
AcDbEntity
  8
0
 62
3
100
AcDbSpline
 70
8
 71
3
 72
8
 73
4
 74
0
 40
0
 40
0
 40
0
 40
0
 40
1
 40
1
 40
1
 40
1
 10
30.817077
 20
98.327893
 30
0.0
 10
36.339897
 20
98.327893
 30
0.0
 10
40.817279
 20
102.804547
 30
0.0
 10
40.818177
 20
108.327367
 30
0.0
  0
LWPOLYLINE
  5
276
100
AcDbEntity
  8
0
 62
3
100
AcDbPolyline
 90
1
 70
1
 10
319.883266
 20
53.542443
 30
0.0
  0
SPLINE
  5
277
100
AcDbEntity
  8
0
 62
3
100
AcDbSpline
 70
8
 71
3
 72
8
 73
4
 74
0
 40
0
 40
0
 40
0
 40
0
 40
1
 40
1
 40
1
 40
1
 10
41.032421
 20
80.131095
 30
0.0
 10
41.031151
 20
85.653828
 30
0.0
 10
36.553735
 20
90.130213
 30
0.0
 10
31.031003
 20
90.130213
 30
0.0
  0
SPLINE
  5
278
100
AcDbEntity
  8
0
 62
3
100
AcDbSpline
 70
8
 71
3
 72
8
 73
4
 74
0
 40
0
 40
0
 40
0
 40
0
 40
1
 40
1
 40
1
 40
1
 10
31.031003
 20
90.130213
 30
0.0
 10
25.508270
 20
90.130213
 30
0.0
 10
21.030855
 20
85.653828
 30
0.0
 10
21.029585
 20
80.131095
 30
0.0
  0
SPLINE
  5
279
100
AcDbEntity
  8
0
 62
3
100
AcDbSpline
 70
8
 71
3
 72
8
 73
4
 74
0
 40
0
 40
0
 40
0
 40
0
 40
1
 40
1
 40
1
 40
1
 10
21.029585
 20
80.131095
 30
0.0
 10
21.030855
 20
74.608363
 30
0.0
 10
25.508270
 20
70.131977
 30
0.0
 10
31.031003
 20
70.131977
 30
0.0
  0
SPLINE
  5
27a
100
AcDbEntity
  8
0
 62
3
100
AcDbSpline
 70
8
 71
3
 72
8
 73
4
 74
0
 40
0
 40
0
 40
0
 40
0
 40
1
 40
1
 40
1
 40
1
 10
31.031003
 20
70.131977
 30
0.0
 10
36.553735
 20
70.131977
 30
0.0
 10
41.031151
 20
74.608363
 30
0.0
 10
41.032421
 20
80.131095
 30
0.0
  0
LWPOLYLINE
  5
27b
100
AcDbEntity
  8
0
 62
3
100
AcDbPolyline
 90
1
 70
1
 10
40.818177
 20
108.327367
 30
0.0
  0
SPLINE
  5
27c
100
AcDbEntity
  8
0
 62
3
100
AcDbSpline
 70
8
 71
3
 72
8
 73
4
 74
0
 40
0
 40
0
 40
0
 40
0
 40
1
 40
1
 40
1
 40
1
 10
41.032744
 20
52.633827
 30
0.0
 10
41.031845
 20
58.156703
 30
0.0
 10
36.554418
 20
62.633402
 30
0.0
 10
31.031542
 20
62.633402
 30
0.0
  0
SPLINE
  5
27d
100
AcDbEntity
  8
0
 62
3
100
AcDbSpline
 70
8
 71
3
 72
8
 73
4
 74
0
 40
0
 40
0
 40
0
 40
0
 40
1
 40
1
 40
1
 40
1
 10
31.031542
 20
62.633402
 30
0.0
 10
25.508666
 20
62.633402
 30
0.0
 10
21.031239
 20
58.156703
 30
0.0
 10
21.030340
 20
52.633827
 30
0.0
  0
SPLINE
  5
27e
100
AcDbEntity
  8
0
 62
3
100
AcDbSpline
 70
8
 71
3
 72
8
 73
4
 74
0
 40
0
 40
0
 40
0
 40
0
 40
1
 40
1
 40
1
 40
1
 10
21.030340
 20
52.633827
 30
0.0
 10
21.031239
 20
47.110951
 30
0.0
 10
25.508666
 20
42.634252
 30
0.0
 10
31.031542
 20
42.634252
 30
0.0
  0
SPLINE
  5
27f
100
AcDbEntity
  8
0
 62
3
100
AcDbSpline
 70
8
 71
3
 72
8
 73
4
 74
0
 40
0
 40
0
 40
0
 40
0
 40
1
 40
1
 40
1
 40
1
 10
31.031542
 20
42.634252
 30
0.0
 10
36.554418
 20
42.634252
 30
0.0
 10
41.031845
 20
47.110951
 30
0.0
 10
41.032744
 20
52.633827
 30
0.0
  0
LWPOLYLINE
  5
280
100
AcDbEntity
  8
0
 62
3
100
AcDbPolyline
 90
1
 70
1
 10
41.032421
 20
80.131095
 30
0.0
  0
LWPOLYLINE
  5
281
100
AcDbEntity
  8
0
 62
3
100
AcDbPolyline
 90
1
 70
1
 10
41.032744
 20
52.633827
 30
0.0
  0
LWPOLYLINE
  5
282
100
AcDbEntity
  8
0
 62
5
100
AcDbPolyline
 90
4
 70
1
 10
360.339330
 20
271.986018
 30
0.0
 10
362.329446
 20
271.986018
 30
0.0
 10
362.329446
 20
266.816711
 30
0.0
 10
360.339330
 20
266.816711
 30
0.0
  0
LWPOLYLINE
  5
283
100
AcDbEntity
  8
0
 62
5
100
AcDbPolyline
 90
4
 70
1
 10
361.670475
 20
126.651012
 30
0.0
 10
363.660591
 20
126.651012
 30
0.0
 10
363.660591
 20
131.820320
 30
0.0
 10
361.670475
 20
131.820320
 30
0.0
  0
LWPOLYLINE
  5
284
100
AcDbEntity
  8
0
 62
5
100
AcDbPolyline
 90
3
 70
1
 10
362.721170
 20
122.003833
 30
0.0
 10
365.355547
 20
126.683447
 30
0.0
 10
359.985696
 20
126.625080
 30
0.0
  0
LWPOLYLINE
  5
285
100
AcDbEntity
  8
0
 62
5
100
AcDbPolyline
 90
3
 70
1
 10
361.390019
 20
276.633198
 30
0.0
 10
364.024396
 20
271.953583
 30
0.0
 10
358.654545
 20
272.011951
 30
0.0
  0
ENDSEC
  0
SECTION
  2
OBJECTS
  0
DICTIONARY
  5
C
330
0
100
AcDbDictionary
  3
ACAD_GROUP
350
D
  3
ACAD_MLINESTYLE
350
17
  0
DICTIONARY
  5
D
330
C
100
AcDbDictionary
  0
DICTIONARY
  5
1A
330
C
100
AcDbDictionary
  0
DICTIONARY
  5
17
330
C
100
AcDbDictionary
  3
STANDARD
350
18
  0
DICTIONARY
  5
19
330
C
100
AcDbDictionary
  0
ENDSEC
  0
EOF
