999
"DXF R12 Output" (www.mydxf.blogspot.com)
 0 
SECTION
 2 
HEADER
 9 
$ACADVER
 1 
AC1009
 9 
$EXTMIN
 10 
 0 
 20 
 0 
 9 
$EXTMAX
 10 
 8.5 
 20 
 11 
 0 
ENDSEC
 0 
SECTION
 2 
ENTITIES
0
LINE
8
Layer 1
10
0.846666
20
381.445000
11
-0.846666
21
379.751000
0
LINE
8
Layer 1
10
0.000000
20
382.009000
11
0.000000
21
379.187000
0
LINE
8
Layer 1
10
2.257780
20
379.469000
11
1.128890
21
378.340110
0
LINE
8
Layer 1
10
1.693330
20
380.034000
11
0.564440
21
378.905110
0
LINE
8
Layer 1
10
1.128890
20
380.598000
11
0.000000
21
379.469110
0
LINE
8
D_U+00E9coupe V5
10
368.997000
20
51.505200
11
16.997300
21
51.505200
0
LINE
8
D_U+00E9coupe V5
10
16.997300
20
19.505200
11
16.997300
21
51.505200
0
LINE
8
D_U+00E9coupe V5
10
11.663900
20
19.505200
11
16.997300
21
19.505200
0
LINE
8
D_U+00E9coupe V5
10
11.663900
20
-3.605850
11
11.663900
21
19.505200
0
LINE
8
D_U+00E9coupe V5
10
11.663900
20
-3.605850
11
16.997300
21
-3.605850
0
LINE
8
D_U+00E9coupe V5
10
16.997300
20
-3.605850
11
16.997300
21
-33.472500
0
LINE
8
D_U+00E9coupe V5
10
16.997300
20
-33.472500
11
11.663900
21
-33.472500
0
LINE
8
D_U+00E9coupe V5
10
11.663900
20
-56.583600
11
11.663900
21
-33.472500
0
LINE
8
D_U+00E9coupe V5
10
16.997300
20
-56.583600
11
11.663900
21
-56.583600
0
LINE
8
D_U+00E9coupe V5
10
16.997300
20
-86.450200
11
16.997300
21
-56.583600
0
LINE
8
D_U+00E9coupe V5
10
11.663900
20
-86.450200
11
16.997300
21
-86.450200
0
LINE
8
D_U+00E9coupe V5
10
11.663900
20
-109.561000
11
11.663900
21
-86.450200
0
LINE
8
D_U+00E9coupe V5
10
16.997300
20
-109.561000
11
11.663900
21
-109.561000
0
LINE
8
D_U+00E9coupe V5
10
16.997300
20
-139.428000
11
16.997300
21
-109.561000
0
LINE
8
D_U+00E9coupe V5
10
11.663900
20
-139.428000
11
16.997300
21
-139.428000
0
LINE
8
D_U+00E9coupe V5
10
11.663900
20
-139.428000
11
11.663900
21
-163.961000
0
LINE
8
D_U+00E9coupe V5
10
32.997200
20
-163.961000
11
11.663900
21
-163.961000
0
LINE
8
D_U+00E9coupe V5
10
38.330600
20
-158.628000
11
38.222245
21
-159.702861
0
LINE
8
D_U+00E9coupe V5
10
38.222245
20
-159.702861
11
37.911480
21
-160.703985
0
LINE
8
D_U+00E9coupe V5
10
37.911480
20
-160.703985
11
37.419750
21
-161.609927
0
LINE
8
D_U+00E9coupe V5
10
37.419750
20
-161.609927
11
36.768502
21
-162.399241
0
LINE
8
D_U+00E9coupe V5
10
36.768502
20
-162.399241
11
35.979185
21
-163.050483
0
LINE
8
D_U+00E9coupe V5
10
35.979185
20
-163.050483
11
35.073244
21
-163.542207
0
LINE
8
D_U+00E9coupe V5
10
35.073244
20
-163.542207
11
34.072127
21
-163.852967
0
LINE
8
D_U+00E9coupe V5
10
34.072127
20
-163.852967
11
32.997280
21
-163.961320
0
LINE
8
D_U+00E9coupe V5
10
38.330600
20
-158.628000
11
38.330600
21
-153.295000
0
LINE
8
D_U+00E9coupe V5
10
117.457000
20
-153.295000
11
38.330600
21
-153.295000
0
LINE
8
D_U+00E9coupe V5
10
117.457000
20
-153.295000
11
117.457000
21
-158.628000
0
LINE
8
D_U+00E9coupe V5
10
117.457000
20
-158.628000
11
159.267000
21
-158.628000
0
LINE
8
D_U+00E9coupe V5
10
159.267000
20
-153.295000
11
159.267000
21
-158.628000
0
LINE
8
D_U+00E9coupe V5
10
159.267000
20
-153.295000
11
230.246000
21
-153.295000
0
LINE
8
D_U+00E9coupe V5
10
230.246000
20
-158.628000
11
230.246000
21
-153.295000
0
LINE
8
D_U+00E9coupe V5
10
230.246000
20
-158.628000
11
268.537000
21
-158.628000
0
LINE
8
D_U+00E9coupe V5
10
268.537000
20
-158.628000
11
268.537000
21
-153.295000
0
LINE
8
D_U+00E9coupe V5
10
268.537000
20
-153.295000
11
347.664000
21
-153.295000
0
LINE
8
D_U+00E9coupe V5
10
347.664000
20
-158.628000
11
347.664000
21
-153.295000
0
LINE
8
D_U+00E9coupe V5
10
352.997000
20
-163.961000
11
351.922148
21
-163.852647
0
LINE
8
D_U+00E9coupe V5
10
351.922148
20
-163.852647
11
350.921028
21
-163.541887
0
LINE
8
D_U+00E9coupe V5
10
350.921028
20
-163.541887
11
350.015086
21
-163.050163
0
LINE
8
D_U+00E9coupe V5
10
350.015086
20
-163.050163
11
349.225770
21
-162.398921
0
LINE
8
D_U+00E9coupe V5
10
349.225770
20
-162.398921
11
348.574525
21
-161.609607
0
LINE
8
D_U+00E9coupe V5
10
348.574525
20
-161.609607
11
348.082798
21
-160.703665
0
LINE
8
D_U+00E9coupe V5
10
348.082798
20
-160.703665
11
347.772034
21
-159.702541
0
LINE
8
D_U+00E9coupe V5
10
347.772034
20
-159.702541
11
347.663680
21
-158.627680
0
LINE
8
D_U+00E9coupe V5
10
374.330000
20
-163.961000
11
352.997000
21
-163.961000
0
LINE
8
D_U+00E9coupe V5
10
374.330000
20
-163.961000
11
374.330000
21
-139.428000
0
LINE
8
D_U+00E9coupe V5
10
368.997000
20
-139.428000
11
374.330000
21
-139.428000
0
LINE
8
D_U+00E9coupe V5
10
368.997000
20
-109.561000
11
368.997000
21
-139.428000
0
LINE
8
D_U+00E9coupe V5
10
374.330000
20
-109.561000
11
368.997000
21
-109.561000
0
LINE
8
D_U+00E9coupe V5
10
374.330000
20
-86.450200
11
374.330000
21
-109.561000
0
LINE
8
D_U+00E9coupe V5
10
368.997000
20
-86.450200
11
374.330000
21
-86.450200
0
LINE
8
D_U+00E9coupe V5
10
368.997000
20
-56.583600
11
368.997000
21
-86.450200
0
LINE
8
D_U+00E9coupe V5
10
368.997000
20
-56.583600
11
374.330000
21
-56.583600
0
LINE
8
D_U+00E9coupe V5
10
374.330000
20
-56.583600
11
374.330000
21
-33.472500
0
LINE
8
D_U+00E9coupe V5
10
374.330000
20
-33.472500
11
368.997000
21
-33.472500
0
LINE
8
D_U+00E9coupe V5
10
368.997000
20
-33.472500
11
368.997000
21
-3.605850
0
LINE
8
D_U+00E9coupe V5
10
368.997000
20
-3.605850
11
374.330000
21
-3.605850
0
LINE
8
D_U+00E9coupe V5
10
374.330000
20
-3.605850
11
374.330000
21
19.505200
0
LINE
8
D_U+00E9coupe V5
10
368.997000
20
19.505200
11
374.330000
21
19.505200
0
LINE
8
D_U+00E9coupe V5
10
368.997000
20
51.505200
11
368.997000
21
19.505200
0
LINE
8
D_U+00E9coupe V5
10
152.386000
20
6.598050
11
152.251880
21
7.262370
0
LINE
8
D_U+00E9coupe V5
10
152.251880
20
7.262370
11
151.886126
21
7.804847
0
LINE
8
D_U+00E9coupe V5
10
151.886126
20
7.804847
11
151.343644
21
8.170588
0
LINE
8
D_U+00E9coupe V5
10
151.343644
20
8.170588
11
150.679340
21
8.304700
0
LINE
8
D_U+00E9coupe V5
10
150.679340
20
8.304700
11
150.015017
21
8.170588
0
LINE
8
D_U+00E9coupe V5
10
150.015017
20
8.170588
11
149.472526
21
7.804846
0
LINE
8
D_U+00E9coupe V5
10
149.472526
20
7.804846
11
149.106769
21
7.262369
0
LINE
8
D_U+00E9coupe V5
10
149.106769
20
7.262369
11
148.972650
21
6.598050
0
LINE
8
D_U+00E9coupe V5
10
148.972650
20
6.598050
11
149.106769
21
5.933730
0
LINE
8
D_U+00E9coupe V5
10
149.106769
20
5.933730
11
149.472526
21
5.391253
0
LINE
8
D_U+00E9coupe V5
10
149.472526
20
5.391253
11
150.015017
21
5.025512
0
LINE
8
D_U+00E9coupe V5
10
150.015017
20
5.025512
11
150.679340
21
4.891400
0
LINE
8
D_U+00E9coupe V5
10
150.679340
20
4.891400
11
151.343642
21
5.025512
0
LINE
8
D_U+00E9coupe V5
10
151.343642
20
5.025512
11
151.886124
21
5.391254
0
LINE
8
D_U+00E9coupe V5
10
151.886124
20
5.391254
11
152.251880
21
5.933731
0
LINE
8
D_U+00E9coupe V5
10
152.251880
20
5.933731
11
152.386000
21
6.598050
0
LINE
8
D_U+00E9coupe V5
10
152.386000
20
6.598050
11
152.386000
21
6.598050
0
LINE
8
D_U+00E9coupe V5
10
152.386000
20
6.598050
11
152.386000
21
6.598050
0
LINE
8
D_U+00E9coupe V5
10
152.386000
20
19.398000
11
152.251880
21
20.062313
0
LINE
8
D_U+00E9coupe V5
10
152.251880
20
20.062313
11
151.886126
21
20.604802
0
LINE
8
D_U+00E9coupe V5
10
151.886126
20
20.604802
11
151.343644
21
20.970559
0
LINE
8
D_U+00E9coupe V5
10
151.343644
20
20.970559
11
150.679340
21
21.104680
0
LINE
8
D_U+00E9coupe V5
10
150.679340
20
21.104680
11
150.015017
21
20.970559
0
LINE
8
D_U+00E9coupe V5
10
150.015017
20
20.970559
11
149.472526
21
20.604802
0
LINE
8
D_U+00E9coupe V5
10
149.472526
20
20.604802
11
149.106769
21
20.062313
0
LINE
8
D_U+00E9coupe V5
10
149.106769
20
20.062313
11
148.972650
21
19.398000
0
LINE
8
D_U+00E9coupe V5
10
148.972650
20
19.398000
11
149.106769
21
18.733691
0
LINE
8
D_U+00E9coupe V5
10
149.106769
20
18.733691
11
149.472526
21
18.191213
0
LINE
8
D_U+00E9coupe V5
10
149.472526
20
18.191213
11
150.015017
21
17.825466
0
LINE
8
D_U+00E9coupe V5
10
150.015017
20
17.825466
11
150.679340
21
17.691350
0
LINE
8
D_U+00E9coupe V5
10
150.679340
20
17.691350
11
151.343642
21
17.825466
0
LINE
8
D_U+00E9coupe V5
10
151.343642
20
17.825466
11
151.886124
21
18.191214
0
LINE
8
D_U+00E9coupe V5
10
151.886124
20
18.191214
11
152.251880
21
18.733693
0
LINE
8
D_U+00E9coupe V5
10
152.251880
20
18.733693
11
152.386000
21
19.398000
0
LINE
8
D_U+00E9coupe V5
10
152.386000
20
19.398000
11
152.386000
21
19.398000
0
LINE
8
D_U+00E9coupe V5
10
152.386000
20
19.398000
11
152.386000
21
19.398000
0
LINE
8
D_U+00E9coupe V5
10
103.852000
20
6.598050
11
103.717881
21
5.933730
0
LINE
8
D_U+00E9coupe V5
10
103.717881
20
5.933730
11
103.352129
21
5.391253
0
LINE
8
D_U+00E9coupe V5
10
103.352129
20
5.391253
11
102.809650
21
5.025512
0
LINE
8
D_U+00E9coupe V5
10
102.809650
20
5.025512
11
102.145350
21
4.891400
0
LINE
8
D_U+00E9coupe V5
10
102.145350
20
4.891400
11
101.481027
21
5.025512
0
LINE
8
D_U+00E9coupe V5
10
101.481027
20
5.025512
11
100.938536
21
5.391254
0
LINE
8
D_U+00E9coupe V5
10
100.938536
20
5.391254
11
100.572779
21
5.933731
0
LINE
8
D_U+00E9coupe V5
10
100.572779
20
5.933731
11
100.438660
21
6.598050
0
LINE
8
D_U+00E9coupe V5
10
100.438660
20
6.598050
11
100.572779
21
7.262370
0
LINE
8
D_U+00E9coupe V5
10
100.572779
20
7.262370
11
100.938536
21
7.804847
0
LINE
8
D_U+00E9coupe V5
10
100.938536
20
7.804847
11
101.481027
21
8.170588
0
LINE
8
D_U+00E9coupe V5
10
101.481027
20
8.170588
11
102.145350
21
8.304700
0
LINE
8
D_U+00E9coupe V5
10
102.145350
20
8.304700
11
102.809652
21
8.170588
0
LINE
8
D_U+00E9coupe V5
10
102.809652
20
8.170588
11
103.352131
21
7.804846
0
LINE
8
D_U+00E9coupe V5
10
103.352131
20
7.804846
11
103.717882
21
7.262369
0
LINE
8
D_U+00E9coupe V5
10
103.717882
20
7.262369
11
103.852000
21
6.598050
0
LINE
8
D_U+00E9coupe V5
10
103.852000
20
6.598050
11
103.852000
21
6.598050
0
LINE
8
D_U+00E9coupe V5
10
103.852000
20
6.598050
11
103.852000
21
6.598050
0
LINE
8
D_U+00E9coupe V5
10
103.852000
20
19.398000
11
103.717881
21
18.733691
0
LINE
8
D_U+00E9coupe V5
10
103.717881
20
18.733691
11
103.352129
21
18.191213
0
LINE
8
D_U+00E9coupe V5
10
103.352129
20
18.191213
11
102.809650
21
17.825466
0
LINE
8
D_U+00E9coupe V5
10
102.809650
20
17.825466
11
102.145350
21
17.691350
0
LINE
8
D_U+00E9coupe V5
10
102.145350
20
17.691350
11
101.481027
21
17.825466
0
LINE
8
D_U+00E9coupe V5
10
101.481027
20
17.825466
11
100.938536
21
18.191214
0
LINE
8
D_U+00E9coupe V5
10
100.938536
20
18.191214
11
100.572779
21
18.733693
0
LINE
8
D_U+00E9coupe V5
10
100.572779
20
18.733693
11
100.438660
21
19.398000
0
LINE
8
D_U+00E9coupe V5
10
100.438660
20
19.398000
11
100.572779
21
20.062313
0
LINE
8
D_U+00E9coupe V5
10
100.572779
20
20.062313
11
100.938536
21
20.604802
0
LINE
8
D_U+00E9coupe V5
10
100.938536
20
20.604802
11
101.481027
21
20.970559
0
LINE
8
D_U+00E9coupe V5
10
101.481027
20
20.970559
11
102.145350
21
21.104680
0
LINE
8
D_U+00E9coupe V5
10
102.145350
20
21.104680
11
102.809652
21
20.970559
0
LINE
8
D_U+00E9coupe V5
10
102.809652
20
20.970559
11
103.352131
21
20.604802
0
LINE
8
D_U+00E9coupe V5
10
103.352131
20
20.604802
11
103.717882
21
20.062313
0
LINE
8
D_U+00E9coupe V5
10
103.717882
20
20.062313
11
103.852000
21
19.398000
0
LINE
8
D_U+00E9coupe V5
10
103.852000
20
19.398000
11
103.852000
21
19.398000
0
LINE
8
D_U+00E9coupe V5
10
103.852000
20
19.398000
11
103.852000
21
19.398000
0
LINE
8
D_U+00E9coupe V5
10
261.719000
20
6.598050
11
261.584880
21
7.262370
0
LINE
8
D_U+00E9coupe V5
10
261.584880
20
7.262370
11
261.219123
21
7.804847
0
LINE
8
D_U+00E9coupe V5
10
261.219123
20
7.804847
11
260.676632
21
8.170588
0
LINE
8
D_U+00E9coupe V5
10
260.676632
20
8.170588
11
260.012310
21
8.304700
0
LINE
8
D_U+00E9coupe V5
10
260.012310
20
8.304700
11
259.348009
21
8.170588
0
LINE
8
D_U+00E9coupe V5
10
259.348009
20
8.170588
11
258.805530
21
7.804846
0
LINE
8
D_U+00E9coupe V5
10
258.805530
20
7.804846
11
258.439778
21
7.262369
0
LINE
8
D_U+00E9coupe V5
10
258.439778
20
7.262369
11
258.305660
21
6.598050
0
LINE
8
D_U+00E9coupe V5
10
258.305660
20
6.598050
11
258.439779
21
5.933730
0
LINE
8
D_U+00E9coupe V5
10
258.439779
20
5.933730
11
258.805531
21
5.391253
0
LINE
8
D_U+00E9coupe V5
10
258.805531
20
5.391253
11
259.348010
21
5.025512
0
LINE
8
D_U+00E9coupe V5
10
259.348010
20
5.025512
11
260.012310
21
4.891400
0
LINE
8
D_U+00E9coupe V5
10
260.012310
20
4.891400
11
260.676632
21
5.025512
0
LINE
8
D_U+00E9coupe V5
10
260.676632
20
5.025512
11
261.219123
21
5.391254
0
LINE
8
D_U+00E9coupe V5
10
261.219123
20
5.391254
11
261.584880
21
5.933731
0
LINE
8
D_U+00E9coupe V5
10
261.584880
20
5.933731
11
261.719000
21
6.598050
0
LINE
8
D_U+00E9coupe V5
10
261.719000
20
6.598050
11
261.719000
21
6.598050
0
LINE
8
D_U+00E9coupe V5
10
261.719000
20
6.598050
11
261.719000
21
6.598050
0
LINE
8
D_U+00E9coupe V5
10
261.719000
20
19.398000
11
261.584880
21
20.062313
0
LINE
8
D_U+00E9coupe V5
10
261.584880
20
20.062313
11
261.219123
21
20.604802
0
LINE
8
D_U+00E9coupe V5
10
261.219123
20
20.604802
11
260.676632
21
20.970559
0
LINE
8
D_U+00E9coupe V5
10
260.676632
20
20.970559
11
260.012310
21
21.104680
0
LINE
8
D_U+00E9coupe V5
10
260.012310
20
21.104680
11
259.348009
21
20.970559
0
LINE
8
D_U+00E9coupe V5
10
259.348009
20
20.970559
11
258.805530
21
20.604802
0
LINE
8
D_U+00E9coupe V5
10
258.805530
20
20.604802
11
258.439778
21
20.062313
0
LINE
8
D_U+00E9coupe V5
10
258.439778
20
20.062313
11
258.305660
21
19.398000
0
LINE
8
D_U+00E9coupe V5
10
258.305660
20
19.398000
11
258.439779
21
18.733691
0
LINE
8
D_U+00E9coupe V5
10
258.439779
20
18.733691
11
258.805531
21
18.191213
0
LINE
8
D_U+00E9coupe V5
10
258.805531
20
18.191213
11
259.348010
21
17.825466
0
LINE
8
D_U+00E9coupe V5
10
259.348010
20
17.825466
11
260.012310
21
17.691350
0
LINE
8
D_U+00E9coupe V5
10
260.012310
20
17.691350
11
260.676632
21
17.825466
0
LINE
8
D_U+00E9coupe V5
10
260.676632
20
17.825466
11
261.219123
21
18.191214
0
LINE
8
D_U+00E9coupe V5
10
261.219123
20
18.191214
11
261.584880
21
18.733693
0
LINE
8
D_U+00E9coupe V5
10
261.584880
20
18.733693
11
261.719000
21
19.398000
0
LINE
8
D_U+00E9coupe V5
10
261.719000
20
19.398000
11
261.719000
21
19.398000
0
LINE
8
D_U+00E9coupe V5
10
261.719000
20
19.398000
11
261.719000
21
19.398000
0
LINE
8
D_U+00E9coupe V5
10
64.932400
20
-14.414600
11
64.932400
21
-25.294700
0
LINE
8
D_U+00E9coupe V5
10
75.599000
20
-3.747980
11
73.449300
21
-3.964690
0
LINE
8
D_U+00E9coupe V5
10
73.449300
20
-3.964690
11
71.447065
21
-4.586223
0
LINE
8
D_U+00E9coupe V5
10
71.447065
20
-4.586223
11
69.635190
21
-5.569686
0
LINE
8
D_U+00E9coupe V5
10
69.635190
20
-5.569686
11
68.056564
21
-6.872186
0
LINE
8
D_U+00E9coupe V5
10
68.056564
20
-6.872186
11
66.754080
21
-8.450829
0
LINE
8
D_U+00E9coupe V5
10
66.754080
20
-8.450829
11
65.770630
21
-10.262721
0
LINE
8
D_U+00E9coupe V5
10
65.770630
20
-10.262721
11
65.149106
21
-12.264970
0
LINE
8
D_U+00E9coupe V5
10
65.149106
20
-12.264970
11
64.932400
21
-14.414680
0
LINE
8
D_U+00E9coupe V5
10
75.599000
20
-3.747980
11
310.691000
21
-3.747980
0
LINE
8
D_U+00E9coupe V5
10
310.691000
20
-3.747980
11
312.840698
21
-3.964690
0
LINE
8
D_U+00E9coupe V5
10
312.840698
20
-3.964690
11
314.842930
21
-4.586223
0
LINE
8
D_U+00E9coupe V5
10
314.842930
20
-4.586223
11
316.654806
21
-5.569686
0
LINE
8
D_U+00E9coupe V5
10
316.654806
20
-5.569686
11
318.233432
21
-6.872186
0
LINE
8
D_U+00E9coupe V5
10
318.233432
20
-6.872186
11
319.535917
21
-8.450829
0
LINE
8
D_U+00E9coupe V5
10
319.535917
20
-8.450829
11
320.519368
21
-10.262721
0
LINE
8
D_U+00E9coupe V5
10
320.519368
20
-10.262721
11
321.140893
21
-12.264970
0
LINE
8
D_U+00E9coupe V5
10
321.140893
20
-12.264970
11
321.357600
21
-14.414680
0
LINE
8
D_U+00E9coupe V5
10
321.358000
20
-14.414600
11
321.358000
21
-19.961400
0
LINE
8
D_U+00E9coupe V5
10
321.348000
20
-19.961400
11
321.358000
21
-19.961400
0
LINE
8
D_U+00E9coupe V5
10
321.348000
20
-25.294700
11
321.348000
21
-19.961400
0
LINE
8
D_U+00E9coupe V5
10
262.162000
20
-25.294700
11
321.348000
21
-25.294700
0
LINE
8
D_U+00E9coupe V5
10
262.162000
20
-19.961400
11
262.162000
21
-25.294700
0
LINE
8
D_U+00E9coupe V5
10
235.664000
20
-19.961400
11
262.162000
21
-19.961400
0
LINE
8
D_U+00E9coupe V5
10
235.664000
20
-25.294700
11
235.664000
21
-19.961400
0
LINE
8
D_U+00E9coupe V5
10
150.162000
20
-25.294700
11
235.664000
21
-25.294700
0
LINE
8
D_U+00E9coupe V5
10
150.162000
20
-19.961400
11
150.162000
21
-25.294700
0
LINE
8
D_U+00E9coupe V5
10
123.664000
20
-19.961400
11
150.162000
21
-19.961400
0
LINE
8
D_U+00E9coupe V5
10
123.664000
20
-25.294700
11
123.664000
21
-19.961400
0
LINE
8
D_U+00E9coupe V5
10
64.932400
20
-25.294700
11
123.664000
21
-25.294700
0
LINE
8
D_U+00E9coupe V5
10
25.103100
20
-242.297000
11
24.960599
21
-243.002824
0
LINE
8
D_U+00E9coupe V5
10
24.960599
20
-243.002824
11
24.571987
21
-243.579212
0
LINE
8
D_U+00E9coupe V5
10
24.571987
20
-243.579212
11
23.995598
21
-243.967827
0
LINE
8
D_U+00E9coupe V5
10
23.995598
20
-243.967827
11
23.289770
21
-244.110330
0
LINE
8
D_U+00E9coupe V5
10
23.289770
20
-244.110330
11
22.583942
21
-243.967828
0
LINE
8
D_U+00E9coupe V5
10
22.583942
20
-243.967828
11
22.007554
21
-243.579213
0
LINE
8
D_U+00E9coupe V5
10
22.007554
20
-243.579213
11
21.618941
21
-243.002825
0
LINE
8
D_U+00E9coupe V5
10
21.618941
20
-243.002825
11
21.476440
21
-242.297000
0
LINE
8
D_U+00E9coupe V5
10
21.476440
20
-242.297000
11
21.618941
21
-241.591164
0
LINE
8
D_U+00E9coupe V5
10
21.618941
20
-241.591164
11
22.007553
21
-241.014776
0
LINE
8
D_U+00E9coupe V5
10
22.007553
20
-241.014776
11
22.583942
21
-240.626168
0
LINE
8
D_U+00E9coupe V5
10
22.583942
20
-240.626168
11
23.289770
21
-240.483670
0
LINE
8
D_U+00E9coupe V5
10
23.289770
20
-240.483670
11
23.995598
21
-240.626168
0
LINE
8
D_U+00E9coupe V5
10
23.995598
20
-240.626168
11
24.571986
21
-241.014776
0
LINE
8
D_U+00E9coupe V5
10
24.571986
20
-241.014776
11
24.960599
21
-241.591164
0
LINE
8
D_U+00E9coupe V5
10
24.960599
20
-241.591164
11
25.103100
21
-242.297000
0
LINE
8
D_U+00E9coupe V5
10
25.103100
20
-242.297000
11
25.103100
21
-242.297000
0
LINE
8
D_U+00E9coupe V5
10
25.103100
20
-242.297000
11
25.103100
21
-242.297000
0
LINE
8
D_U+00E9coupe V5
10
25.103100
20
-221.046000
11
24.960599
21
-221.751824
0
LINE
8
D_U+00E9coupe V5
10
24.960599
20
-221.751824
11
24.571987
21
-222.328213
0
LINE
8
D_U+00E9coupe V5
10
24.571987
20
-222.328213
11
23.995598
21
-222.716828
0
LINE
8
D_U+00E9coupe V5
10
23.995598
20
-222.716828
11
23.289770
21
-222.859330
0
LINE
8
D_U+00E9coupe V5
10
23.289770
20
-222.859330
11
22.583942
21
-222.716828
0
LINE
8
D_U+00E9coupe V5
10
22.583942
20
-222.716828
11
22.007554
21
-222.328213
0
LINE
8
D_U+00E9coupe V5
10
22.007554
20
-222.328213
11
21.618941
21
-221.751825
0
LINE
8
D_U+00E9coupe V5
10
21.618941
20
-221.751825
11
21.476440
21
-221.046000
0
LINE
8
D_U+00E9coupe V5
10
21.476440
20
-221.046000
11
21.618941
21
-220.340176
0
LINE
8
D_U+00E9coupe V5
10
21.618941
20
-220.340176
11
22.007553
21
-219.763787
0
LINE
8
D_U+00E9coupe V5
10
22.007553
20
-219.763787
11
22.583942
21
-219.375172
0
LINE
8
D_U+00E9coupe V5
10
22.583942
20
-219.375172
11
23.289770
21
-219.232670
0
LINE
8
D_U+00E9coupe V5
10
23.289770
20
-219.232670
11
23.995598
21
-219.375172
0
LINE
8
D_U+00E9coupe V5
10
23.995598
20
-219.375172
11
24.571986
21
-219.763787
0
LINE
8
D_U+00E9coupe V5
10
24.571986
20
-219.763787
11
24.960599
21
-220.340175
0
LINE
8
D_U+00E9coupe V5
10
24.960599
20
-220.340175
11
25.103100
21
-221.046000
0
LINE
8
D_U+00E9coupe V5
10
25.103100
20
-221.046000
11
25.103100
21
-221.046000
0
LINE
8
D_U+00E9coupe V5
10
25.103100
20
-221.046000
11
25.103100
21
-221.046000
0
LINE
8
D_U+00E9coupe V5
10
362.886000
20
-242.348000
11
363.028502
21
-241.642164
0
LINE
8
D_U+00E9coupe V5
10
363.028502
20
-241.642164
11
363.417117
21
-241.065776
0
LINE
8
D_U+00E9coupe V5
10
363.417117
20
-241.065776
11
363.993505
21
-240.677168
0
LINE
8
D_U+00E9coupe V5
10
363.993505
20
-240.677168
11
364.699330
21
-240.534670
0
LINE
8
D_U+00E9coupe V5
10
364.699330
20
-240.534670
11
365.405154
21
-240.677168
0
LINE
8
D_U+00E9coupe V5
10
365.405154
20
-240.677168
11
365.981543
21
-241.065776
0
LINE
8
D_U+00E9coupe V5
10
365.981543
20
-241.065776
11
366.370158
21
-241.642164
0
LINE
8
D_U+00E9coupe V5
10
366.370158
20
-241.642164
11
366.512660
21
-242.348000
0
LINE
8
D_U+00E9coupe V5
10
366.512660
20
-242.348000
11
366.370158
21
-243.053824
0
LINE
8
D_U+00E9coupe V5
10
366.370158
20
-243.053824
11
365.981543
21
-243.630213
0
LINE
8
D_U+00E9coupe V5
10
365.981543
20
-243.630213
11
365.405155
21
-244.018828
0
LINE
8
D_U+00E9coupe V5
10
365.405155
20
-244.018828
11
364.699330
21
-244.161330
0
LINE
8
D_U+00E9coupe V5
10
364.699330
20
-244.161330
11
363.993506
21
-244.018828
0
LINE
8
D_U+00E9coupe V5
10
363.993506
20
-244.018828
11
363.417118
21
-243.630213
0
LINE
8
D_U+00E9coupe V5
10
363.417118
20
-243.630213
11
363.028503
21
-243.053825
0
LINE
8
D_U+00E9coupe V5
10
363.028503
20
-243.053825
11
362.886000
21
-242.348000
0
LINE
8
D_U+00E9coupe V5
10
362.886000
20
-242.348000
11
362.886000
21
-242.348000
0
LINE
8
D_U+00E9coupe V5
10
362.886000
20
-242.348000
11
362.886000
21
-242.348000
0
LINE
8
D_U+00E9coupe V5
10
362.886000
20
-221.097000
11
363.028502
21
-220.391176
0
LINE
8
D_U+00E9coupe V5
10
363.028502
20
-220.391176
11
363.417117
21
-219.814788
0
LINE
8
D_U+00E9coupe V5
10
363.417117
20
-219.814788
11
363.993505
21
-219.426173
0
LINE
8
D_U+00E9coupe V5
10
363.993505
20
-219.426173
11
364.699330
21
-219.283670
0
LINE
8
D_U+00E9coupe V5
10
364.699330
20
-219.283670
11
365.405154
21
-219.426172
0
LINE
8
D_U+00E9coupe V5
10
365.405154
20
-219.426172
11
365.981543
21
-219.814787
0
LINE
8
D_U+00E9coupe V5
10
365.981543
20
-219.814787
11
366.370158
21
-220.391175
0
LINE
8
D_U+00E9coupe V5
10
366.370158
20
-220.391175
11
366.512660
21
-221.097000
0
LINE
8
D_U+00E9coupe V5
10
366.512660
20
-221.097000
11
366.370158
21
-221.802824
0
LINE
8
D_U+00E9coupe V5
10
366.370158
20
-221.802824
11
365.981543
21
-222.379212
0
LINE
8
D_U+00E9coupe V5
10
365.981543
20
-222.379212
11
365.405155
21
-222.767828
0
LINE
8
D_U+00E9coupe V5
10
365.405155
20
-222.767828
11
364.699330
21
-222.910330
0
LINE
8
D_U+00E9coupe V5
10
364.699330
20
-222.910330
11
363.993506
21
-222.767828
0
LINE
8
D_U+00E9coupe V5
10
363.993506
20
-222.767828
11
363.417118
21
-222.379213
0
LINE
8
D_U+00E9coupe V5
10
363.417118
20
-222.379213
11
363.028503
21
-221.802825
0
LINE
8
D_U+00E9coupe V5
10
363.028503
20
-221.802825
11
362.886000
21
-221.097000
0
LINE
8
D_U+00E9coupe V5
10
362.886000
20
-221.097000
11
362.886000
21
-221.097000
0
LINE
8
D_U+00E9coupe V5
10
362.886000
20
-221.097000
11
362.886000
21
-221.097000
0
LINE
8
Layer 1
10
352.312000
20
-272.952000
11
352.095292
21
-275.101716
0
LINE
8
Layer 1
10
352.095292
20
-275.101716
11
351.473763
21
-277.103967
0
LINE
8
Layer 1
10
351.473763
20
-277.103967
11
350.490307
21
-278.915860
0
LINE
8
Layer 1
10
350.490307
20
-278.915860
11
349.187818
21
-280.494501
0
LINE
8
Layer 1
10
349.187818
20
-280.494501
11
347.609188
21
-281.796999
0
LINE
8
Layer 1
10
347.609188
20
-281.796999
11
345.797313
21
-282.780460
0
LINE
8
Layer 1
10
345.797313
20
-282.780460
11
343.795086
21
-283.401991
0
LINE
8
Layer 1
10
343.795086
20
-283.401991
11
341.645400
21
-283.618700
0
LINE
8
Layer 1
10
341.645400
20
-283.618700
11
339.495684
21
-283.401992
0
LINE
8
Layer 1
10
339.495684
20
-283.401992
11
337.493433
21
-282.780461
0
LINE
8
Layer 1
10
337.493433
20
-282.780461
11
335.681540
21
-281.797002
0
LINE
8
Layer 1
10
335.681540
20
-281.797002
11
334.102899
21
-280.494505
0
LINE
8
Layer 1
10
334.102899
20
-280.494505
11
332.800401
21
-278.915864
0
LINE
8
Layer 1
10
332.800401
20
-278.915864
11
331.816940
21
-277.103971
0
LINE
8
Layer 1
10
331.816940
20
-277.103971
11
331.195409
21
-275.101719
0
LINE
8
Layer 1
10
331.195409
20
-275.101719
11
330.978700
21
-272.952000
0
LINE
8
Layer 1
10
330.978700
20
-272.952000
11
331.195408
21
-270.802302
0
LINE
8
Layer 1
10
331.195408
20
-270.802302
11
331.816939
21
-268.800070
0
LINE
8
Layer 1
10
331.816939
20
-268.800070
11
332.800398
21
-266.988194
0
LINE
8
Layer 1
10
332.800398
20
-266.988194
11
334.102895
21
-265.409567
0
LINE
8
Layer 1
10
334.102895
20
-265.409567
11
335.681536
21
-264.107083
0
LINE
8
Layer 1
10
335.681536
20
-264.107083
11
337.493429
21
-263.123632
0
LINE
8
Layer 1
10
337.493429
20
-263.123632
11
339.495681
21
-262.502107
0
LINE
8
Layer 1
10
339.495681
20
-262.502107
11
341.645400
21
-262.285400
0
LINE
8
Layer 1
10
341.645400
20
-262.285400
11
343.795098
21
-262.502108
0
LINE
8
Layer 1
10
343.795098
20
-262.502108
11
345.797330
21
-263.123637
0
LINE
8
Layer 1
10
345.797330
20
-263.123637
11
347.609206
21
-264.107093
0
LINE
8
Layer 1
10
347.609206
20
-264.107093
11
349.187833
21
-265.409582
0
LINE
8
Layer 1
10
349.187833
20
-265.409582
11
350.490317
21
-266.988212
0
LINE
8
Layer 1
10
350.490317
20
-266.988212
11
351.473768
21
-268.800087
0
LINE
8
Layer 1
10
351.473768
20
-268.800087
11
352.095293
21
-270.802314
0
LINE
8
Layer 1
10
352.095293
20
-270.802314
11
352.312000
21
-272.952000
0
LINE
8
Layer 1
10
352.312000
20
-272.952000
11
352.312000
21
-272.952000
0
LINE
8
Layer 1
10
352.312000
20
-272.952000
11
352.312000
21
-272.952000
0
LINE
8
Layer 1
10
352.312000
20
-243.619000
11
352.095292
21
-245.768702
0
LINE
8
Layer 1
10
352.095292
20
-245.768702
11
351.473763
21
-247.770946
0
LINE
8
Layer 1
10
351.473763
20
-247.770946
11
350.490307
21
-249.582838
0
LINE
8
Layer 1
10
350.490307
20
-249.582838
11
349.187818
21
-251.161482
0
LINE
8
Layer 1
10
349.187818
20
-251.161482
11
347.609188
21
-252.463986
0
LINE
8
Layer 1
10
347.609188
20
-252.463986
11
345.797313
21
-253.447453
0
LINE
8
Layer 1
10
345.797313
20
-253.447453
11
343.795086
21
-254.068989
0
LINE
8
Layer 1
10
343.795086
20
-254.068989
11
341.645400
21
-254.285700
0
LINE
8
Layer 1
10
341.645400
20
-254.285700
11
339.495684
21
-254.068990
0
LINE
8
Layer 1
10
339.495684
20
-254.068990
11
337.493433
21
-253.447457
0
LINE
8
Layer 1
10
337.493433
20
-253.447457
11
335.681540
21
-252.463994
0
LINE
8
Layer 1
10
335.681540
20
-252.463994
11
334.102899
21
-251.161494
0
LINE
8
Layer 1
10
334.102899
20
-251.161494
11
332.800401
21
-249.582851
0
LINE
8
Layer 1
10
332.800401
20
-249.582851
11
331.816940
21
-247.770959
0
LINE
8
Layer 1
10
331.816940
20
-247.770959
11
331.195409
21
-245.768710
0
LINE
8
Layer 1
10
331.195409
20
-245.768710
11
330.978700
21
-243.619000
0
LINE
8
Layer 1
10
330.978700
20
-243.619000
11
331.195408
21
-241.469298
0
LINE
8
Layer 1
10
331.195408
20
-241.469298
11
331.816939
21
-239.467054
0
LINE
8
Layer 1
10
331.816939
20
-239.467054
11
332.800398
21
-237.655162
0
LINE
8
Layer 1
10
332.800398
20
-237.655162
11
334.102895
21
-236.076518
0
LINE
8
Layer 1
10
334.102895
20
-236.076518
11
335.681536
21
-234.774014
0
LINE
8
Layer 1
10
335.681536
20
-234.774014
11
337.493429
21
-233.790547
0
LINE
8
Layer 1
10
337.493429
20
-233.790547
11
339.495681
21
-233.169011
0
LINE
8
Layer 1
10
339.495681
20
-233.169011
11
341.645400
21
-232.952300
0
LINE
8
Layer 1
10
341.645400
20
-232.952300
11
343.795098
21
-233.169010
0
LINE
8
Layer 1
10
343.795098
20
-233.169010
11
345.797330
21
-233.790543
0
LINE
8
Layer 1
10
345.797330
20
-233.790543
11
347.609206
21
-234.774006
0
LINE
8
Layer 1
10
347.609206
20
-234.774006
11
349.187833
21
-236.076506
0
LINE
8
Layer 1
10
349.187833
20
-236.076506
11
350.490317
21
-237.655149
0
LINE
8
Layer 1
10
350.490317
20
-237.655149
11
351.473768
21
-239.467041
0
LINE
8
Layer 1
10
351.473768
20
-239.467041
11
352.095293
21
-241.469290
0
LINE
8
Layer 1
10
352.095293
20
-241.469290
11
352.312000
21
-243.619000
0
LINE
8
Layer 1
10
352.312000
20
-243.619000
11
352.312000
21
-243.619000
0
LINE
8
Layer 1
10
352.312000
20
-243.619000
11
352.312000
21
-243.619000
0
LINE
8
Layer 1
10
352.312000
20
-214.285000
11
352.095292
21
-216.434716
0
LINE
8
Layer 1
10
352.095292
20
-216.434716
11
351.473763
21
-218.436967
0
LINE
8
Layer 1
10
351.473763
20
-218.436967
11
350.490307
21
-220.248860
0
LINE
8
Layer 1
10
350.490307
20
-220.248860
11
349.187818
21
-221.827501
0
LINE
8
Layer 1
10
349.187818
20
-221.827501
11
347.609188
21
-223.129999
0
LINE
8
Layer 1
10
347.609188
20
-223.129999
11
345.797313
21
-224.113460
0
LINE
8
Layer 1
10
345.797313
20
-224.113460
11
343.795086
21
-224.734991
0
LINE
8
Layer 1
10
343.795086
20
-224.734991
11
341.645400
21
-224.951700
0
LINE
8
Layer 1
10
341.645400
20
-224.951700
11
339.495684
21
-224.734992
0
LINE
8
Layer 1
10
339.495684
20
-224.734992
11
337.493433
21
-224.113461
0
LINE
8
Layer 1
10
337.493433
20
-224.113461
11
335.681540
21
-223.130002
0
LINE
8
Layer 1
10
335.681540
20
-223.130002
11
334.102899
21
-221.827505
0
LINE
8
Layer 1
10
334.102899
20
-221.827505
11
332.800401
21
-220.248864
0
LINE
8
Layer 1
10
332.800401
20
-220.248864
11
331.816940
21
-218.436971
0
LINE
8
Layer 1
10
331.816940
20
-218.436971
11
331.195409
21
-216.434719
0
LINE
8
Layer 1
10
331.195409
20
-216.434719
11
330.978700
21
-214.285000
0
LINE
8
Layer 1
10
330.978700
20
-214.285000
11
331.195408
21
-212.135302
0
LINE
8
Layer 1
10
331.195408
20
-212.135302
11
331.816939
21
-210.133070
0
LINE
8
Layer 1
10
331.816939
20
-210.133070
11
332.800398
21
-208.321194
0
LINE
8
Layer 1
10
332.800398
20
-208.321194
11
334.102895
21
-206.742568
0
LINE
8
Layer 1
10
334.102895
20
-206.742568
11
335.681536
21
-205.440083
0
LINE
8
Layer 1
10
335.681536
20
-205.440083
11
337.493429
21
-204.456632
0
LINE
8
Layer 1
10
337.493429
20
-204.456632
11
339.495681
21
-203.835107
0
LINE
8
Layer 1
10
339.495681
20
-203.835107
11
341.645400
21
-203.618400
0
LINE
8
Layer 1
10
341.645400
20
-203.618400
11
343.795098
21
-203.835108
0
LINE
8
Layer 1
10
343.795098
20
-203.835108
11
345.797330
21
-204.456637
0
LINE
8
Layer 1
10
345.797330
20
-204.456637
11
347.609206
21
-205.440093
0
LINE
8
Layer 1
10
347.609206
20
-205.440093
11
349.187833
21
-206.742583
0
LINE
8
Layer 1
10
349.187833
20
-206.742583
11
350.490317
21
-208.321212
0
LINE
8
Layer 1
10
350.490317
20
-208.321212
11
351.473768
21
-210.133087
0
LINE
8
Layer 1
10
351.473768
20
-210.133087
11
352.095293
21
-212.135314
0
LINE
8
Layer 1
10
352.095293
20
-212.135314
11
352.312000
21
-214.285000
0
LINE
8
Layer 1
10
352.312000
20
-214.285000
11
352.312000
21
-214.285000
0
LINE
8
Layer 1
10
352.312000
20
-214.285000
11
352.312000
21
-214.285000
0
LINE
8
D_U+00E9coupe V5
10
369.956000
20
-168.952000
11
17.956400
21
-168.952000
0
LINE
8
Layer 1
10
33.956400
20
-272.952000
11
34.173108
21
-270.802302
0
LINE
8
Layer 1
10
34.173108
20
-270.802302
11
34.794636
21
-268.800070
0
LINE
8
Layer 1
10
34.794636
20
-268.800070
11
35.778091
21
-266.988194
0
LINE
8
Layer 1
10
35.778091
20
-266.988194
11
37.080579
21
-265.409567
0
LINE
8
Layer 1
10
37.080579
20
-265.409567
11
38.659207
21
-264.107083
0
LINE
8
Layer 1
10
38.659207
20
-264.107083
11
40.471082
21
-263.123632
0
LINE
8
Layer 1
10
40.471082
20
-263.123632
11
42.473311
21
-262.502107
0
LINE
8
Layer 1
10
42.473311
20
-262.502107
11
44.623000
21
-262.285400
0
LINE
8
Layer 1
10
44.623000
20
-262.285400
11
46.772716
21
-262.502108
0
LINE
8
Layer 1
10
46.772716
20
-262.502108
11
48.774967
21
-263.123637
0
LINE
8
Layer 1
10
48.774967
20
-263.123637
11
50.586860
21
-264.107093
0
LINE
8
Layer 1
10
50.586860
20
-264.107093
11
52.165501
21
-265.409582
0
LINE
8
Layer 1
10
52.165501
20
-265.409582
11
53.467999
21
-266.988212
0
LINE
8
Layer 1
10
53.467999
20
-266.988212
11
54.451460
21
-268.800087
0
LINE
8
Layer 1
10
54.451460
20
-268.800087
11
55.072991
21
-270.802314
0
LINE
8
Layer 1
10
55.072991
20
-270.802314
11
55.289700
21
-272.952000
0
LINE
8
Layer 1
10
55.289700
20
-272.952000
11
55.072992
21
-275.101716
0
LINE
8
Layer 1
10
55.072992
20
-275.101716
11
54.451463
21
-277.103967
0
LINE
8
Layer 1
10
54.451463
20
-277.103967
11
53.468004
21
-278.915860
0
LINE
8
Layer 1
10
53.468004
20
-278.915860
11
52.165509
21
-280.494501
0
LINE
8
Layer 1
10
52.165509
20
-280.494501
11
50.586868
21
-281.796999
0
LINE
8
Layer 1
10
50.586868
20
-281.796999
11
48.774975
21
-282.780460
0
LINE
8
Layer 1
10
48.774975
20
-282.780460
11
46.772722
21
-283.401991
0
LINE
8
Layer 1
10
46.772722
20
-283.401991
11
44.623000
21
-283.618700
0
LINE
8
Layer 1
10
44.623000
20
-283.618700
11
42.473300
21
-283.401992
0
LINE
8
Layer 1
10
42.473300
20
-283.401992
11
40.471065
21
-282.780461
0
LINE
8
Layer 1
10
40.471065
20
-282.780461
11
38.659190
21
-281.797002
0
LINE
8
Layer 1
10
38.659190
20
-281.797002
11
37.080564
21
-280.494505
0
LINE
8
Layer 1
10
37.080564
20
-280.494505
11
35.778080
21
-278.915864
0
LINE
8
Layer 1
10
35.778080
20
-278.915864
11
34.794630
21
-277.103971
0
LINE
8
Layer 1
10
34.794630
20
-277.103971
11
34.173106
21
-275.101719
0
LINE
8
Layer 1
10
34.173106
20
-275.101719
11
33.956400
21
-272.952000
0
LINE
8
Layer 1
10
33.956400
20
-272.952000
11
33.956400
21
-272.952000
0
LINE
8
Layer 1
10
33.956400
20
-272.952000
11
33.956400
21
-272.952000
0
LINE
8
Layer 1
10
33.956400
20
-243.619000
11
34.173108
21
-241.469298
0
LINE
8
Layer 1
10
34.173108
20
-241.469298
11
34.794636
21
-239.467054
0
LINE
8
Layer 1
10
34.794636
20
-239.467054
11
35.778091
21
-237.655162
0
LINE
8
Layer 1
10
35.778091
20
-237.655162
11
37.080579
21
-236.076518
0
LINE
8
Layer 1
10
37.080579
20
-236.076518
11
38.659207
21
-234.774014
0
LINE
8
Layer 1
10
38.659207
20
-234.774014
11
40.471082
21
-233.790547
0
LINE
8
Layer 1
10
40.471082
20
-233.790547
11
42.473311
21
-233.169011
0
LINE
8
Layer 1
10
42.473311
20
-233.169011
11
44.623000
21
-232.952300
0
LINE
8
Layer 1
10
44.623000
20
-232.952300
11
46.772716
21
-233.169010
0
LINE
8
Layer 1
10
46.772716
20
-233.169010
11
48.774967
21
-233.790543
0
LINE
8
Layer 1
10
48.774967
20
-233.790543
11
50.586860
21
-234.774006
0
LINE
8
Layer 1
10
50.586860
20
-234.774006
11
52.165501
21
-236.076506
0
LINE
8
Layer 1
10
52.165501
20
-236.076506
11
53.467999
21
-237.655149
0
LINE
8
Layer 1
10
53.467999
20
-237.655149
11
54.451460
21
-239.467041
0
LINE
8
Layer 1
10
54.451460
20
-239.467041
11
55.072991
21
-241.469290
0
LINE
8
Layer 1
10
55.072991
20
-241.469290
11
55.289700
21
-243.619000
0
LINE
8
Layer 1
10
55.289700
20
-243.619000
11
55.072992
21
-245.768702
0
LINE
8
Layer 1
10
55.072992
20
-245.768702
11
54.451463
21
-247.770946
0
LINE
8
Layer 1
10
54.451463
20
-247.770946
11
53.468004
21
-249.582838
0
LINE
8
Layer 1
10
53.468004
20
-249.582838
11
52.165509
21
-251.161482
0
LINE
8
Layer 1
10
52.165509
20
-251.161482
11
50.586868
21
-252.463986
0
LINE
8
Layer 1
10
50.586868
20
-252.463986
11
48.774975
21
-253.447453
0
LINE
8
Layer 1
10
48.774975
20
-253.447453
11
46.772722
21
-254.068989
0
LINE
8
Layer 1
10
46.772722
20
-254.068989
11
44.623000
21
-254.285700
0
LINE
8
Layer 1
10
44.623000
20
-254.285700
11
42.473300
21
-254.068990
0
LINE
8
Layer 1
10
42.473300
20
-254.068990
11
40.471065
21
-253.447457
0
LINE
8
Layer 1
10
40.471065
20
-253.447457
11
38.659190
21
-252.463994
0
LINE
8
Layer 1
10
38.659190
20
-252.463994
11
37.080564
21
-251.161494
0
LINE
8
Layer 1
10
37.080564
20
-251.161494
11
35.778080
21
-249.582851
0
LINE
8
Layer 1
10
35.778080
20
-249.582851
11
34.794630
21
-247.770959
0
LINE
8
Layer 1
10
34.794630
20
-247.770959
11
34.173106
21
-245.768710
0
LINE
8
Layer 1
10
34.173106
20
-245.768710
11
33.956400
21
-243.619000
0
LINE
8
Layer 1
10
33.956400
20
-243.619000
11
33.956400
21
-243.619000
0
LINE
8
Layer 1
10
33.956400
20
-243.619000
11
33.956400
21
-243.619000
0
LINE
8
Layer 1
10
33.956400
20
-214.285000
11
34.173108
21
-212.135302
0
LINE
8
Layer 1
10
34.173108
20
-212.135302
11
34.794636
21
-210.133070
0
LINE
8
Layer 1
10
34.794636
20
-210.133070
11
35.778091
21
-208.321194
0
LINE
8
Layer 1
10
35.778091
20
-208.321194
11
37.080579
21
-206.742568
0
LINE
8
Layer 1
10
37.080579
20
-206.742568
11
38.659207
21
-205.440083
0
LINE
8
Layer 1
10
38.659207
20
-205.440083
11
40.471082
21
-204.456632
0
LINE
8
Layer 1
10
40.471082
20
-204.456632
11
42.473311
21
-203.835107
0
LINE
8
Layer 1
10
42.473311
20
-203.835107
11
44.623000
21
-203.618400
0
LINE
8
Layer 1
10
44.623000
20
-203.618400
11
46.772705
21
-203.835108
0
LINE
8
Layer 1
10
46.772705
20
-203.835108
11
48.774950
21
-204.456637
0
LINE
8
Layer 1
10
48.774950
20
-204.456637
11
50.586842
21
-205.440093
0
LINE
8
Layer 1
10
50.586842
20
-205.440093
11
52.165486
21
-206.742583
0
LINE
8
Layer 1
10
52.165486
20
-206.742583
11
53.467988
21
-208.321212
0
LINE
8
Layer 1
10
53.467988
20
-208.321212
11
54.451454
21
-210.133087
0
LINE
8
Layer 1
10
54.451454
20
-210.133087
11
55.072990
21
-212.135314
0
LINE
8
Layer 1
10
55.072990
20
-212.135314
11
55.289700
21
-214.285000
0
LINE
8
Layer 1
10
55.289700
20
-214.285000
11
55.072990
21
-216.434716
0
LINE
8
Layer 1
10
55.072990
20
-216.434716
11
54.451457
21
-218.436967
0
LINE
8
Layer 1
10
54.451457
20
-218.436967
11
53.467994
21
-220.248860
0
LINE
8
Layer 1
10
53.467994
20
-220.248860
11
52.165494
21
-221.827501
0
LINE
8
Layer 1
10
52.165494
20
-221.827501
11
50.586851
21
-223.129999
0
LINE
8
Layer 1
10
50.586851
20
-223.129999
11
48.774959
21
-224.113460
0
LINE
8
Layer 1
10
48.774959
20
-224.113460
11
46.772710
21
-224.734991
0
LINE
8
Layer 1
10
46.772710
20
-224.734991
11
44.623000
21
-224.951700
0
LINE
8
Layer 1
10
44.623000
20
-224.951700
11
42.473300
21
-224.734992
0
LINE
8
Layer 1
10
42.473300
20
-224.734992
11
40.471065
21
-224.113461
0
LINE
8
Layer 1
10
40.471065
20
-224.113461
11
38.659190
21
-223.130002
0
LINE
8
Layer 1
10
38.659190
20
-223.130002
11
37.080564
21
-221.827505
0
LINE
8
Layer 1
10
37.080564
20
-221.827505
11
35.778080
21
-220.248864
0
LINE
8
Layer 1
10
35.778080
20
-220.248864
11
34.794630
21
-218.436971
0
LINE
8
Layer 1
10
34.794630
20
-218.436971
11
34.173106
21
-216.434719
0
LINE
8
Layer 1
10
34.173106
20
-216.434719
11
33.956400
21
-214.285000
0
LINE
8
Layer 1
10
33.956400
20
-214.285000
11
33.956400
21
-214.285000
0
LINE
8
Layer 1
10
33.956400
20
-214.285000
11
33.956400
21
-214.285000
0
LINE
8
D_U+00E9coupe V5
10
17.956400
20
-328.952000
11
17.956400
21
-168.952000
0
LINE
8
D_U+00E9coupe V5
10
369.956000
20
-328.952000
11
17.956400
21
-328.952000
0
LINE
8
D_U+00E9coupe V5
10
369.956000
20
-168.952000
11
369.956000
21
-328.952000
0
LINE
8
D_U+00E9coupe V5
10
470.527000
20
-44.917800
11
470.384502
21
-44.211976
0
LINE
8
D_U+00E9coupe V5
10
470.384502
20
-44.211976
11
469.995894
21
-43.635587
0
LINE
8
D_U+00E9coupe V5
10
469.995894
20
-43.635587
11
469.419506
21
-43.246972
0
LINE
8
D_U+00E9coupe V5
10
469.419506
20
-43.246972
11
468.713670
21
-43.104470
0
LINE
8
D_U+00E9coupe V5
10
468.713670
20
-43.104470
11
468.007846
21
-43.246972
0
LINE
8
D_U+00E9coupe V5
10
468.007846
20
-43.246972
11
467.431457
21
-43.635587
0
LINE
8
D_U+00E9coupe V5
10
467.431457
20
-43.635587
11
467.042843
21
-44.211975
0
LINE
8
D_U+00E9coupe V5
10
467.042843
20
-44.211975
11
466.900340
21
-44.917800
0
LINE
8
D_U+00E9coupe V5
10
466.900340
20
-44.917800
11
467.042842
21
-45.623636
0
LINE
8
D_U+00E9coupe V5
10
467.042842
20
-45.623636
11
467.431457
21
-46.200024
0
LINE
8
D_U+00E9coupe V5
10
467.431457
20
-46.200024
11
468.007845
21
-46.588632
0
LINE
8
D_U+00E9coupe V5
10
468.007845
20
-46.588632
11
468.713670
21
-46.731130
0
LINE
8
D_U+00E9coupe V5
10
468.713670
20
-46.731130
11
469.419506
21
-46.588632
0
LINE
8
D_U+00E9coupe V5
10
469.419506
20
-46.588632
11
469.995894
21
-46.200024
0
LINE
8
D_U+00E9coupe V5
10
469.995894
20
-46.200024
11
470.384502
21
-45.623636
0
LINE
8
D_U+00E9coupe V5
10
470.384502
20
-45.623636
11
470.527000
21
-44.917800
0
LINE
8
D_U+00E9coupe V5
10
470.527000
20
-44.917800
11
470.527000
21
-44.917800
0
LINE
8
D_U+00E9coupe V5
10
470.527000
20
-44.917800
11
470.527000
21
-44.917800
0
LINE
8
D_U+00E9coupe V5
10
616.063000
20
-114.761000
11
616.063000
21
45.238600
0
LINE
8
D_U+00E9coupe V5
10
578.730000
20
45.238600
11
616.063000
21
45.238600
0
LINE
8
D_U+00E9coupe V5
10
578.730000
20
45.238600
11
578.730000
21
39.905200
0
LINE
8
D_U+00E9coupe V5
10
555.619000
20
39.905200
11
578.730000
21
39.905200
0
LINE
8
D_U+00E9coupe V5
10
555.619000
20
45.238600
11
555.619000
21
39.905200
0
LINE
8
D_U+00E9coupe V5
10
525.752000
20
45.238600
11
555.619000
21
45.238600
0
LINE
8
D_U+00E9coupe V5
10
525.752000
20
45.238600
11
525.752000
21
39.905200
0
LINE
8
D_U+00E9coupe V5
10
502.641000
20
39.905200
11
525.752000
21
39.905200
0
LINE
8
D_U+00E9coupe V5
10
502.641000
20
39.905200
11
502.641000
21
45.238600
0
LINE
8
D_U+00E9coupe V5
10
502.641000
20
45.238600
11
472.775000
21
45.238600
0
LINE
8
D_U+00E9coupe V5
10
472.775000
20
45.238600
11
472.775000
21
39.905200
0
LINE
8
D_U+00E9coupe V5
10
449.664000
20
39.905200
11
472.775000
21
39.905200
0
LINE
8
D_U+00E9coupe V5
10
449.664000
20
45.238600
11
449.664000
21
39.905200
0
LINE
8
D_U+00E9coupe V5
10
419.797000
20
45.238600
11
449.664000
21
45.238600
0
LINE
8
D_U+00E9coupe V5
10
419.797000
20
39.905200
11
419.797000
21
45.238600
0
LINE
8
D_U+00E9coupe V5
10
395.264000
20
39.905200
11
419.797000
21
39.905200
0
LINE
8
D_U+00E9coupe V5
10
395.264000
20
23.905300
11
395.264000
21
39.905200
0
LINE
8
D_U+00E9coupe V5
10
400.597000
20
18.571900
11
399.522148
21
18.680255
0
LINE
8
D_U+00E9coupe V5
10
399.522148
20
18.680255
11
398.521028
21
18.991021
0
LINE
8
D_U+00E9coupe V5
10
398.521028
20
18.991021
11
397.615086
21
19.482752
0
LINE
8
D_U+00E9coupe V5
10
397.615086
20
19.482752
11
396.825770
21
20.134001
0
LINE
8
D_U+00E9coupe V5
10
396.825770
20
20.134001
11
396.174525
21
20.923322
0
LINE
8
D_U+00E9coupe V5
10
396.174525
20
20.923322
11
395.682797
21
21.829269
0
LINE
8
D_U+00E9coupe V5
10
395.682797
20
21.829269
11
395.372034
21
22.830393
0
LINE
8
D_U+00E9coupe V5
10
395.372034
20
22.830393
11
395.263680
21
23.905250
0
LINE
8
D_U+00E9coupe V5
10
405.930000
20
18.571900
11
400.597000
21
18.571900
0
LINE
8
D_U+00E9coupe V5
10
405.930000
20
-24.094700
11
405.930000
21
18.571900
0
LINE
8
D_U+00E9coupe V5
10
400.597000
20
-24.094700
11
405.930000
21
-24.094700
0
LINE
8
D_U+00E9coupe V5
10
400.597000
20
-56.094700
11
400.597000
21
-24.094700
0
LINE
8
D_U+00E9coupe V5
10
405.930000
20
-56.094700
11
400.597000
21
-56.094700
0
LINE
8
D_U+00E9coupe V5
10
405.930000
20
-88.094700
11
405.930000
21
-56.094700
0
LINE
8
D_U+00E9coupe V5
10
400.597000
20
-88.094700
11
405.930000
21
-88.094700
0
LINE
8
D_U+00E9coupe V5
10
400.597000
20
-88.094700
11
399.522148
21
-88.203055
0
LINE
8
D_U+00E9coupe V5
10
399.522148
20
-88.203055
11
398.521028
21
-88.513821
0
LINE
8
D_U+00E9coupe V5
10
398.521028
20
-88.513821
11
397.615086
21
-89.005552
0
LINE
8
D_U+00E9coupe V5
10
397.615086
20
-89.005552
11
396.825770
21
-89.656801
0
LINE
8
D_U+00E9coupe V5
10
396.825770
20
-89.656801
11
396.174525
21
-90.446122
0
LINE
8
D_U+00E9coupe V5
10
396.174525
20
-90.446122
11
395.682797
21
-91.352069
0
LINE
8
D_U+00E9coupe V5
10
395.682797
20
-91.352069
11
395.372034
21
-92.353193
0
LINE
8
D_U+00E9coupe V5
10
395.372034
20
-92.353193
11
395.263680
21
-93.428050
0
LINE
8
D_U+00E9coupe V5
10
395.264000
20
-109.428000
11
395.264000
21
-93.428000
0
LINE
8
D_U+00E9coupe V5
10
419.797000
20
-109.428000
11
395.264000
21
-109.428000
0
LINE
8
D_U+00E9coupe V5
10
419.797000
20
-114.761000
11
419.797000
21
-109.428000
0
LINE
8
D_U+00E9coupe V5
10
419.797000
20
-114.761000
11
449.664000
21
-114.761000
0
LINE
8
D_U+00E9coupe V5
10
449.664000
20
-109.428000
11
449.664000
21
-114.761000
0
LINE
8
D_U+00E9coupe V5
10
449.664000
20
-109.428000
11
478.108000
21
-109.428000
0
LINE
8
D_U+00E9coupe V5
10
478.108000
20
-109.428000
11
478.108000
21
-114.761000
0
LINE
8
D_U+00E9coupe V5
10
478.108000
20
-114.761000
11
502.641000
21
-114.761000
0
LINE
8
D_U+00E9coupe V5
10
502.641000
20
-109.428000
11
502.641000
21
-114.761000
0
LINE
8
D_U+00E9coupe V5
10
502.641000
20
-109.428000
11
525.752000
21
-109.428000
0
LINE
8
D_U+00E9coupe V5
10
525.752000
20
-109.428000
11
525.752000
21
-114.761000
0
LINE
8
D_U+00E9coupe V5
10
525.752000
20
-114.761000
11
555.619000
21
-114.761000
0
LINE
8
D_U+00E9coupe V5
10
555.619000
20
-114.761000
11
555.619000
21
-109.428000
0
LINE
8
D_U+00E9coupe V5
10
555.619000
20
-109.428000
11
578.730000
21
-109.428000
0
LINE
8
D_U+00E9coupe V5
10
578.730000
20
-109.428000
11
578.730000
21
-114.761000
0
LINE
8
D_U+00E9coupe V5
10
578.730000
20
-114.761000
11
616.063000
21
-114.761000
0
LINE
8
D_U+00E9coupe V5
10
470.527000
20
-58.333000
11
470.384502
21
-57.627176
0
LINE
8
D_U+00E9coupe V5
10
470.384502
20
-57.627176
11
469.995894
21
-57.050787
0
LINE
8
D_U+00E9coupe V5
10
469.995894
20
-57.050787
11
469.419506
21
-56.662172
0
LINE
8
D_U+00E9coupe V5
10
469.419506
20
-56.662172
11
468.713670
21
-56.519670
0
LINE
8
D_U+00E9coupe V5
10
468.713670
20
-56.519670
11
468.007846
21
-56.662172
0
LINE
8
D_U+00E9coupe V5
10
468.007846
20
-56.662172
11
467.431457
21
-57.050787
0
LINE
8
D_U+00E9coupe V5
10
467.431457
20
-57.050787
11
467.042843
21
-57.627175
0
LINE
8
D_U+00E9coupe V5
10
467.042843
20
-57.627175
11
466.900340
21
-58.333000
0
LINE
8
D_U+00E9coupe V5
10
466.900340
20
-58.333000
11
467.042842
21
-59.038836
0
LINE
8
D_U+00E9coupe V5
10
467.042842
20
-59.038836
11
467.431457
21
-59.615224
0
LINE
8
D_U+00E9coupe V5
10
467.431457
20
-59.615224
11
468.007845
21
-60.003832
0
LINE
8
D_U+00E9coupe V5
10
468.007845
20
-60.003832
11
468.713670
21
-60.146330
0
LINE
8
D_U+00E9coupe V5
10
468.713670
20
-60.146330
11
469.419506
21
-60.003832
0
LINE
8
D_U+00E9coupe V5
10
469.419506
20
-60.003832
11
469.995894
21
-59.615224
0
LINE
8
D_U+00E9coupe V5
10
469.995894
20
-59.615224
11
470.384502
21
-59.038836
0
LINE
8
D_U+00E9coupe V5
10
470.384502
20
-59.038836
11
470.527000
21
-58.333000
0
LINE
8
D_U+00E9coupe V5
10
470.527000
20
-58.333000
11
470.527000
21
-58.333000
0
LINE
8
D_U+00E9coupe V5
10
470.527000
20
-58.333000
11
470.527000
21
-58.333000
0
LINE
8
D_U+00E9coupe V5
10
587.022000
20
-63.582100
11
586.316176
21
-63.724602
0
LINE
8
D_U+00E9coupe V5
10
586.316176
20
-63.724602
11
585.739788
21
-64.113217
0
LINE
8
D_U+00E9coupe V5
10
585.739788
20
-64.113217
11
585.351173
21
-64.689605
0
LINE
8
D_U+00E9coupe V5
10
585.351173
20
-64.689605
11
585.208670
21
-65.395430
0
LINE
8
D_U+00E9coupe V5
10
585.208670
20
-65.395430
11
585.351172
21
-66.101254
0
LINE
8
D_U+00E9coupe V5
10
585.351172
20
-66.101254
11
585.739787
21
-66.677642
0
LINE
8
D_U+00E9coupe V5
10
585.739787
20
-66.677642
11
586.316175
21
-67.066257
0
LINE
8
D_U+00E9coupe V5
10
586.316175
20
-67.066257
11
587.022000
21
-67.208760
0
LINE
8
D_U+00E9coupe V5
10
587.022000
20
-67.208760
11
587.727836
21
-67.066258
0
LINE
8
D_U+00E9coupe V5
10
587.727836
20
-67.066258
11
588.304224
21
-66.677643
0
LINE
8
D_U+00E9coupe V5
10
588.304224
20
-66.677643
11
588.692832
21
-66.101255
0
LINE
8
D_U+00E9coupe V5
10
588.692832
20
-66.101255
11
588.835330
21
-65.395430
0
LINE
8
D_U+00E9coupe V5
10
588.835330
20
-65.395430
11
588.692832
21
-64.689606
0
LINE
8
D_U+00E9coupe V5
10
588.692832
20
-64.689606
11
588.304224
21
-64.113217
0
LINE
8
D_U+00E9coupe V5
10
588.304224
20
-64.113217
11
587.727836
21
-63.724602
0
LINE
8
D_U+00E9coupe V5
10
587.727836
20
-63.724602
11
587.022000
21
-63.582100
0
LINE
8
D_U+00E9coupe V5
10
587.022000
20
-63.582100
11
587.022000
21
-63.582100
0
LINE
8
D_U+00E9coupe V5
10
587.022000
20
-63.582100
11
587.022000
21
-63.582100
0
LINE
8
D_U+00E9coupe V5
10
587.022000
20
-27.315500
11
586.316176
21
-27.458002
0
LINE
8
D_U+00E9coupe V5
10
586.316176
20
-27.458002
11
585.739788
21
-27.846617
0
LINE
8
D_U+00E9coupe V5
10
585.739788
20
-27.846617
11
585.351173
21
-28.423005
0
LINE
8
D_U+00E9coupe V5
10
585.351173
20
-28.423005
11
585.208670
21
-29.128830
0
LINE
8
D_U+00E9coupe V5
10
585.208670
20
-29.128830
11
585.351172
21
-29.834666
0
LINE
8
D_U+00E9coupe V5
10
585.351172
20
-29.834666
11
585.739787
21
-30.411054
0
LINE
8
D_U+00E9coupe V5
10
585.739787
20
-30.411054
11
586.316175
21
-30.799662
0
LINE
8
D_U+00E9coupe V5
10
586.316175
20
-30.799662
11
587.022000
21
-30.942160
0
LINE
8
D_U+00E9coupe V5
10
587.022000
20
-30.942160
11
587.727836
21
-30.799662
0
LINE
8
D_U+00E9coupe V5
10
587.727836
20
-30.799662
11
588.304224
21
-30.411054
0
LINE
8
D_U+00E9coupe V5
10
588.304224
20
-30.411054
11
588.692832
21
-29.834666
0
LINE
8
D_U+00E9coupe V5
10
588.692832
20
-29.834666
11
588.835330
21
-29.128830
0
LINE
8
D_U+00E9coupe V5
10
588.835330
20
-29.128830
11
588.692832
21
-28.423006
0
LINE
8
D_U+00E9coupe V5
10
588.692832
20
-28.423006
11
588.304224
21
-27.846618
0
LINE
8
D_U+00E9coupe V5
10
588.304224
20
-27.846618
11
587.727836
21
-27.458002
0
LINE
8
D_U+00E9coupe V5
10
587.727836
20
-27.458002
11
587.022000
21
-27.315500
0
LINE
8
D_U+00E9coupe V5
10
587.022000
20
-27.315500
11
587.022000
21
-27.315500
0
LINE
8
D_U+00E9coupe V5
10
587.022000
20
-27.315500
11
587.022000
21
-27.315500
0
LINE
8
D_U+00E9coupe V5
10
543.754000
20
9.034560
11
544.386645
21
8.081838
0
LINE
8
D_U+00E9coupe V5
10
544.386645
20
8.081838
11
544.597518
21
6.998090
0
LINE
8
D_U+00E9coupe V5
10
544.597518
20
6.998090
11
544.386625
21
5.914342
0
LINE
8
D_U+00E9coupe V5
10
544.386625
20
5.914342
11
543.753972
21
4.961620
0
LINE
8
D_U+00E9coupe V5
10
543.753972
20
4.961620
11
542.801255
21
4.328988
0
LINE
8
D_U+00E9coupe V5
10
542.801255
20
4.328988
11
541.717516
21
4.118114
0
LINE
8
D_U+00E9coupe V5
10
541.717516
20
4.118114
11
540.633774
21
4.328999
0
LINE
8
D_U+00E9coupe V5
10
540.633774
20
4.328999
11
539.681052
21
4.961648
0
LINE
8
D_U+00E9coupe V5
10
539.681052
20
4.961648
11
539.048403
21
5.914374
0
LINE
8
D_U+00E9coupe V5
10
539.048403
20
5.914374
11
538.837523
21
6.998133
0
LINE
8
D_U+00E9coupe V5
10
538.837523
20
6.998133
11
539.048414
21
8.081892
0
LINE
8
D_U+00E9coupe V5
10
539.048414
20
8.081892
11
539.681080
21
9.034618
0
LINE
8
D_U+00E9coupe V5
10
539.681080
20
9.034618
11
540.633797
21
9.667233
0
LINE
8
D_U+00E9coupe V5
10
540.633797
20
9.667233
11
541.717536
21
9.878099
0
LINE
8
D_U+00E9coupe V5
10
541.717536
20
9.878099
11
542.801277
21
9.667210
0
LINE
8
D_U+00E9coupe V5
10
542.801277
20
9.667210
11
543.754000
21
9.034562
0
LINE
8
D_U+00E9coupe V5
10
543.754000
20
9.034562
11
543.754000
21
9.034562
0
LINE
8
D_U+00E9coupe V5
10
543.754000
20
9.034562
11
543.754000
21
9.034560
0
LINE
8
D_U+00E9coupe V5
10
516.224000
20
-18.495400
11
516.856645
21
-19.448122
0
LINE
8
D_U+00E9coupe V5
10
516.856645
20
-19.448122
11
517.067518
21
-20.531870
0
LINE
8
D_U+00E9coupe V5
10
517.067518
20
-20.531870
11
516.856625
21
-21.615618
0
LINE
8
D_U+00E9coupe V5
10
516.856625
20
-21.615618
11
516.223972
21
-22.568340
0
LINE
8
D_U+00E9coupe V5
10
516.223972
20
-22.568340
11
515.271255
21
-23.200972
0
LINE
8
D_U+00E9coupe V5
10
515.271255
20
-23.200972
11
514.187516
21
-23.411846
0
LINE
8
D_U+00E9coupe V5
10
514.187516
20
-23.411846
11
513.103774
21
-23.200961
0
LINE
8
D_U+00E9coupe V5
10
513.103774
20
-23.200961
11
512.151052
21
-22.568312
0
LINE
8
D_U+00E9coupe V5
10
512.151052
20
-22.568312
11
511.518403
21
-21.615590
0
LINE
8
D_U+00E9coupe V5
10
511.518403
20
-21.615590
11
511.307523
21
-20.531842
0
LINE
8
D_U+00E9coupe V5
10
511.307523
20
-20.531842
11
511.518414
21
-19.448093
0
LINE
8
D_U+00E9coupe V5
10
511.518414
20
-19.448093
11
512.151080
21
-18.495372
0
LINE
8
D_U+00E9coupe V5
10
512.151080
20
-18.495372
11
513.103797
21
-17.862740
0
LINE
8
D_U+00E9coupe V5
10
513.103797
20
-17.862740
11
514.187536
21
-17.651865
0
LINE
8
D_U+00E9coupe V5
10
514.187536
20
-17.651865
11
515.271277
21
-17.862751
0
LINE
8
D_U+00E9coupe V5
10
515.271277
20
-17.862751
11
516.224000
21
-18.495400
0
LINE
8
D_U+00E9coupe V5
10
516.224000
20
-18.495400
11
516.224000
21
-18.495400
0
LINE
8
D_U+00E9coupe V5
10
516.224000
20
-18.495400
11
516.224000
21
-18.495400
0
LINE
8
D_U+00E9coupe V5
10
527.953000
20
-11.246900
11
527.050132
21
-11.155883
0
LINE
8
D_U+00E9coupe V5
10
527.050132
20
-11.155883
11
526.209194
21
-10.894842
0
LINE
8
D_U+00E9coupe V5
10
526.209194
20
-10.894842
11
525.448204
21
-10.481791
0
LINE
8
D_U+00E9coupe V5
10
525.448204
20
-10.481791
11
524.785176
21
-9.934745
0
LINE
8
D_U+00E9coupe V5
10
524.785176
20
-9.934745
11
524.238127
21
-9.271719
0
LINE
8
D_U+00E9coupe V5
10
524.238127
20
-9.271719
11
523.825073
21
-8.510728
0
LINE
8
D_U+00E9coupe V5
10
523.825073
20
-8.510728
11
523.564028
21
-7.669787
0
LINE
8
D_U+00E9coupe V5
10
523.564028
20
-7.669787
11
523.473010
21
-6.766910
0
LINE
8
D_U+00E9coupe V5
10
523.473010
20
-6.766910
11
523.564028
21
-5.864042
0
LINE
8
D_U+00E9coupe V5
10
523.564028
20
-5.864042
11
523.825073
21
-5.023104
0
LINE
8
D_U+00E9coupe V5
10
523.825073
20
-5.023104
11
524.238127
21
-4.262114
0
LINE
8
D_U+00E9coupe V5
10
524.238127
20
-4.262114
11
524.785176
21
-3.599086
0
LINE
8
D_U+00E9coupe V5
10
524.785176
20
-3.599086
11
525.448204
21
-3.052037
0
LINE
8
D_U+00E9coupe V5
10
525.448204
20
-3.052037
11
526.209194
21
-2.638983
0
LINE
8
D_U+00E9coupe V5
10
526.209194
20
-2.638983
11
527.050132
21
-2.377938
0
LINE
8
D_U+00E9coupe V5
10
527.050132
20
-2.377938
11
527.953000
21
-2.286920
0
LINE
8
D_U+00E9coupe V5
10
527.953000
20
-2.286920
11
528.855887
21
-2.377938
0
LINE
8
D_U+00E9coupe V5
10
528.855887
20
-2.377938
11
529.696836
21
-2.638983
0
LINE
8
D_U+00E9coupe V5
10
529.696836
20
-2.638983
11
530.457832
21
-3.052037
0
LINE
8
D_U+00E9coupe V5
10
530.457832
20
-3.052037
11
531.120861
21
-3.599086
0
LINE
8
D_U+00E9coupe V5
10
531.120861
20
-3.599086
11
531.667909
21
-4.262114
0
LINE
8
D_U+00E9coupe V5
10
531.667909
20
-4.262114
11
532.080961
21
-5.023104
0
LINE
8
D_U+00E9coupe V5
10
532.080961
20
-5.023104
11
532.342003
21
-5.864042
0
LINE
8
D_U+00E9coupe V5
10
532.342003
20
-5.864042
11
532.433020
21
-6.766910
0
LINE
8
D_U+00E9coupe V5
10
532.433020
20
-6.766910
11
532.342003
21
-7.669787
0
LINE
8
D_U+00E9coupe V5
10
532.342003
20
-7.669787
11
532.080961
21
-8.510728
0
LINE
8
D_U+00E9coupe V5
10
532.080961
20
-8.510728
11
531.667909
21
-9.271719
0
LINE
8
D_U+00E9coupe V5
10
531.667909
20
-9.271719
11
531.120861
21
-9.934745
0
LINE
8
D_U+00E9coupe V5
10
531.120861
20
-9.934745
11
530.457832
21
-10.481791
0
LINE
8
D_U+00E9coupe V5
10
530.457832
20
-10.481791
11
529.696836
21
-10.894842
0
LINE
8
D_U+00E9coupe V5
10
529.696836
20
-10.894842
11
528.855887
21
-11.155883
0
LINE
8
D_U+00E9coupe V5
10
528.855887
20
-11.155883
11
527.953000
21
-11.246900
0
LINE
8
D_U+00E9coupe V5
10
527.953000
20
-11.246900
11
527.953000
21
-11.246900
0
LINE
8
D_U+00E9coupe V5
10
527.953000
20
-11.246900
11
527.953000
21
-11.246900
0
LINE
8
D_U+00E9coupe V5
10
498.904000
20
-58.407700
11
499.609824
21
-58.265198
0
LINE
8
D_U+00E9coupe V5
10
499.609824
20
-58.265198
11
500.186213
21
-57.876583
0
LINE
8
D_U+00E9coupe V5
10
500.186213
20
-57.876583
11
500.574827
21
-57.300195
0
LINE
8
D_U+00E9coupe V5
10
500.574827
20
-57.300195
11
500.717330
21
-56.594370
0
LINE
8
D_U+00E9coupe V5
10
500.717330
20
-56.594370
11
500.574828
21
-55.888546
0
LINE
8
D_U+00E9coupe V5
10
500.574828
20
-55.888546
11
500.186213
21
-55.312157
0
LINE
8
D_U+00E9coupe V5
10
500.186213
20
-55.312157
11
499.609825
21
-54.923542
0
LINE
8
D_U+00E9coupe V5
10
499.609825
20
-54.923542
11
498.904000
21
-54.781040
0
LINE
8
D_U+00E9coupe V5
10
498.904000
20
-54.781040
11
498.198164
21
-54.923542
0
LINE
8
D_U+00E9coupe V5
10
498.198164
20
-54.923542
11
497.621776
21
-55.312157
0
LINE
8
D_U+00E9coupe V5
10
497.621776
20
-55.312157
11
497.233168
21
-55.888545
0
LINE
8
D_U+00E9coupe V5
10
497.233168
20
-55.888545
11
497.090670
21
-56.594370
0
LINE
8
D_U+00E9coupe V5
10
497.090670
20
-56.594370
11
497.233168
21
-57.300194
0
LINE
8
D_U+00E9coupe V5
10
497.233168
20
-57.300194
11
497.621776
21
-57.876582
0
LINE
8
D_U+00E9coupe V5
10
497.621776
20
-57.876582
11
498.198164
21
-58.265197
0
LINE
8
D_U+00E9coupe V5
10
498.198164
20
-58.265197
11
498.904000
21
-58.407700
0
LINE
8
D_U+00E9coupe V5
10
498.904000
20
-58.407700
11
498.904000
21
-58.407700
0
LINE
8
D_U+00E9coupe V5
10
498.904000
20
-58.407700
11
498.904000
21
-58.407700
0
LINE
8
D_U+00E9coupe V5
10
498.904000
20
-5.074420
11
498.198164
21
-4.931918
0
LINE
8
D_U+00E9coupe V5
10
498.198164
20
-4.931918
11
497.621776
21
-4.543303
0
LINE
8
D_U+00E9coupe V5
10
497.621776
20
-4.543303
11
497.233168
21
-3.966915
0
LINE
8
D_U+00E9coupe V5
10
497.233168
20
-3.966915
11
497.090670
21
-3.261090
0
LINE
8
D_U+00E9coupe V5
10
497.090670
20
-3.261090
11
497.233168
21
-2.555266
0
LINE
8
D_U+00E9coupe V5
10
497.233168
20
-2.555266
11
497.621776
21
-1.978877
0
LINE
8
D_U+00E9coupe V5
10
497.621776
20
-1.978877
11
498.198164
21
-1.590262
0
LINE
8
D_U+00E9coupe V5
10
498.198164
20
-1.590262
11
498.904000
21
-1.447760
0
LINE
8
D_U+00E9coupe V5
10
498.904000
20
-1.447760
11
499.609824
21
-1.590262
0
LINE
8
D_U+00E9coupe V5
10
499.609824
20
-1.590262
11
500.186213
21
-1.978877
0
LINE
8
D_U+00E9coupe V5
10
500.186213
20
-1.978877
11
500.574827
21
-2.555265
0
LINE
8
D_U+00E9coupe V5
10
500.574827
20
-2.555265
11
500.717330
21
-3.261090
0
LINE
8
D_U+00E9coupe V5
10
500.717330
20
-3.261090
11
500.574828
21
-3.966914
0
LINE
8
D_U+00E9coupe V5
10
500.574828
20
-3.966914
11
500.186213
21
-4.543303
0
LINE
8
D_U+00E9coupe V5
10
500.186213
20
-4.543303
11
499.609825
21
-4.931917
0
LINE
8
D_U+00E9coupe V5
10
499.609825
20
-4.931917
11
498.904000
21
-5.074420
0
LINE
8
D_U+00E9coupe V5
10
498.904000
20
-5.074420
11
498.904000
21
-5.074420
0
LINE
8
D_U+00E9coupe V5
10
498.904000
20
-5.074420
11
498.904000
21
-5.074420
0
LINE
8
D_U+00E9coupe V5
10
561.816000
20
-74.500200
11
561.589680
21
-73.379163
0
LINE
8
D_U+00E9coupe V5
10
561.589680
20
-73.379163
11
560.972480
21
-72.463715
0
LINE
8
D_U+00E9coupe V5
10
560.972480
20
-72.463715
11
560.057043
21
-71.846505
0
LINE
8
D_U+00E9coupe V5
10
560.057043
20
-71.846505
11
558.936010
21
-71.620180
0
LINE
8
D_U+00E9coupe V5
10
558.936010
20
-71.620180
11
557.815002
21
-71.846472
0
LINE
8
D_U+00E9coupe V5
10
557.815002
20
-71.846472
11
556.899566
21
-72.463664
0
LINE
8
D_U+00E9coupe V5
10
556.899566
20
-72.463664
11
556.282347
21
-73.379104
0
LINE
8
D_U+00E9coupe V5
10
556.282347
20
-73.379104
11
556.055990
21
-74.500140
0
LINE
8
D_U+00E9coupe V5
10
556.055990
20
-74.500140
11
556.282315
21
-75.621160
0
LINE
8
D_U+00E9coupe V5
10
556.282315
20
-75.621160
11
556.899521
21
-76.536599
0
LINE
8
D_U+00E9coupe V5
10
556.899521
20
-76.536599
11
557.814960
21
-77.153805
0
LINE
8
D_U+00E9coupe V5
10
557.814960
20
-77.153805
11
558.935980
21
-77.380130
0
LINE
8
D_U+00E9coupe V5
10
558.935980
20
-77.380130
11
560.057018
21
-77.153823
0
LINE
8
D_U+00E9coupe V5
10
560.057018
20
-77.153823
11
560.972465
21
-76.536628
0
LINE
8
D_U+00E9coupe V5
10
560.972465
20
-76.536628
11
561.589675
21
-75.621202
0
LINE
8
D_U+00E9coupe V5
10
561.589675
20
-75.621202
11
561.816000
21
-74.500200
0
LINE
8
D_U+00E9coupe V5
10
561.816000
20
-74.500200
11
561.816000
21
-74.500200
0
LINE
8
D_U+00E9coupe V5
10
561.816000
20
-74.500200
11
561.816000
21
-74.500200
0
LINE
8
D_U+00E9coupe V5
10
561.816000
20
-29.700200
11
561.589680
21
-28.579179
0
LINE
8
D_U+00E9coupe V5
10
561.589680
20
-28.579179
11
560.972480
21
-27.663737
0
LINE
8
D_U+00E9coupe V5
10
560.972480
20
-27.663737
11
560.057043
21
-27.046522
0
LINE
8
D_U+00E9coupe V5
10
560.057043
20
-27.046522
11
558.936010
21
-26.820180
0
LINE
8
D_U+00E9coupe V5
10
558.936010
20
-26.820180
11
557.815002
21
-27.046505
0
LINE
8
D_U+00E9coupe V5
10
557.815002
20
-27.046505
11
556.899566
21
-27.663711
0
LINE
8
D_U+00E9coupe V5
10
556.899566
20
-27.663711
11
556.282347
21
-28.579150
0
LINE
8
D_U+00E9coupe V5
10
556.282347
20
-28.579150
11
556.055990
21
-29.700170
0
LINE
8
D_U+00E9coupe V5
10
556.055990
20
-29.700170
11
556.282315
21
-30.821207
0
LINE
8
D_U+00E9coupe V5
10
556.282315
20
-30.821207
11
556.899521
21
-31.736655
0
LINE
8
D_U+00E9coupe V5
10
556.899521
20
-31.736655
11
557.814960
21
-32.353865
0
LINE
8
D_U+00E9coupe V5
10
557.814960
20
-32.353865
11
558.935980
21
-32.580190
0
LINE
8
D_U+00E9coupe V5
10
558.935980
20
-32.580190
11
560.057018
21
-32.353882
0
LINE
8
D_U+00E9coupe V5
10
560.057018
20
-32.353882
11
560.972465
21
-31.736681
0
LINE
8
D_U+00E9coupe V5
10
560.972465
20
-31.736681
11
561.589675
21
-30.821237
0
LINE
8
D_U+00E9coupe V5
10
561.589675
20
-30.821237
11
561.816000
21
-29.700200
0
LINE
8
D_U+00E9coupe V5
10
561.816000
20
-29.700200
11
561.816000
21
-29.700200
0
LINE
8
D_U+00E9coupe V5
10
561.816000
20
-29.700200
11
561.816000
21
-29.700200
0
LINE
8
D_U+00E9coupe V5
10
533.016000
20
-74.500000
11
532.789675
21
-73.378975
0
LINE
8
D_U+00E9coupe V5
10
532.789675
20
-73.378975
11
532.172469
21
-72.463526
0
LINE
8
D_U+00E9coupe V5
10
532.172469
20
-72.463526
11
531.257030
21
-71.846309
0
LINE
8
D_U+00E9coupe V5
10
531.257030
20
-71.846309
11
530.136010
21
-71.619980
0
LINE
8
D_U+00E9coupe V5
10
530.136010
20
-71.619980
11
529.014994
21
-71.846304
0
LINE
8
D_U+00E9coupe V5
10
529.014994
20
-71.846304
11
528.099544
21
-72.463507
0
LINE
8
D_U+00E9coupe V5
10
528.099544
20
-72.463507
11
527.482322
21
-73.378937
0
LINE
8
D_U+00E9coupe V5
10
527.482322
20
-73.378937
11
527.255990
21
-74.499940
0
LINE
8
D_U+00E9coupe V5
10
527.255990
20
-74.499940
11
527.482315
21
-75.620965
0
LINE
8
D_U+00E9coupe V5
10
527.482315
20
-75.620965
11
528.099521
21
-76.536414
0
LINE
8
D_U+00E9coupe V5
10
528.099521
20
-76.536414
11
529.014960
21
-77.153631
0
LINE
8
D_U+00E9coupe V5
10
529.014960
20
-77.153631
11
530.135980
21
-77.379960
0
LINE
8
D_U+00E9coupe V5
10
530.135980
20
-77.379960
11
531.257005
21
-77.153636
0
LINE
8
D_U+00E9coupe V5
10
531.257005
20
-77.153636
11
532.172454
21
-76.536432
0
LINE
8
D_U+00E9coupe V5
10
532.172454
20
-76.536432
11
532.789671
21
-75.621003
0
LINE
8
D_U+00E9coupe V5
10
532.789671
20
-75.621003
11
533.016000
21
-74.500000
0
LINE
8
D_U+00E9coupe V5
10
533.016000
20
-74.500000
11
533.016000
21
-74.500000
0
LINE
8
D_U+00E9coupe V5
10
533.016000
20
-74.500000
11
533.016000
21
-74.500000
0
LINE
8
D_U+00E9coupe V5
10
533.016000
20
-29.700000
11
532.789675
21
-28.578962
0
LINE
8
D_U+00E9coupe V5
10
532.789675
20
-28.578962
11
532.172469
21
-27.663515
0
LINE
8
D_U+00E9coupe V5
10
532.172469
20
-27.663515
11
531.257030
21
-27.046305
0
LINE
8
D_U+00E9coupe V5
10
531.257030
20
-27.046305
11
530.136010
21
-26.819980
0
LINE
8
D_U+00E9coupe V5
10
530.136010
20
-26.819980
11
529.014994
21
-27.046300
0
LINE
8
D_U+00E9coupe V5
10
529.014994
20
-27.046300
11
528.099544
21
-27.663500
0
LINE
8
D_U+00E9coupe V5
10
528.099544
20
-27.663500
11
527.482322
21
-28.578937
0
LINE
8
D_U+00E9coupe V5
10
527.482322
20
-28.578937
11
527.255990
21
-29.699970
0
LINE
8
D_U+00E9coupe V5
10
527.255990
20
-29.699970
11
527.482315
21
-30.820991
0
LINE
8
D_U+00E9coupe V5
10
527.482315
20
-30.820991
11
528.099521
21
-31.736432
0
LINE
8
D_U+00E9coupe V5
10
528.099521
20
-31.736432
11
529.014960
21
-32.353648
0
LINE
8
D_U+00E9coupe V5
10
529.014960
20
-32.353648
11
530.135980
21
-32.579990
0
LINE
8
D_U+00E9coupe V5
10
530.135980
20
-32.579990
11
531.257005
21
-32.353665
0
LINE
8
D_U+00E9coupe V5
10
531.257005
20
-32.353665
11
532.172454
21
-31.736459
0
LINE
8
D_U+00E9coupe V5
10
532.172454
20
-31.736459
11
532.789671
21
-30.821020
0
LINE
8
D_U+00E9coupe V5
10
532.789671
20
-30.821020
11
533.016000
21
-29.700000
0
LINE
8
D_U+00E9coupe V5
10
533.016000
20
-29.700000
11
533.016000
21
-29.700000
0
LINE
8
D_U+00E9coupe V5
10
533.016000
20
-29.700000
11
533.016000
21
-29.700000
0
LINE
8
D_U+00E9coupe V5
10
576.444000
20
-80.580200
11
577.346886
21
-80.489182
0
LINE
8
D_U+00E9coupe V5
10
577.346886
20
-80.489182
11
578.187831
21
-80.228137
0
LINE
8
D_U+00E9coupe V5
10
578.187831
20
-80.228137
11
578.948823
21
-79.815083
0
LINE
8
D_U+00E9coupe V5
10
578.948823
20
-79.815083
11
579.611846
21
-79.268034
0
LINE
8
D_U+00E9coupe V5
10
579.611846
20
-79.268034
11
580.158889
21
-78.605006
0
LINE
8
D_U+00E9coupe V5
10
580.158889
20
-78.605006
11
580.571936
21
-77.844016
0
LINE
8
D_U+00E9coupe V5
10
580.571936
20
-77.844016
11
580.832974
21
-77.003078
0
LINE
8
D_U+00E9coupe V5
10
580.832974
20
-77.003078
11
580.923990
21
-76.100210
0
LINE
8
D_U+00E9coupe V5
10
580.923990
20
-76.100210
11
580.832974
21
-75.197324
0
LINE
8
D_U+00E9coupe V5
10
580.832974
20
-75.197324
11
580.571936
21
-74.356379
0
LINE
8
D_U+00E9coupe V5
10
580.571936
20
-74.356379
11
580.158889
21
-73.595387
0
LINE
8
D_U+00E9coupe V5
10
580.158889
20
-73.595387
11
579.611846
21
-72.932364
0
LINE
8
D_U+00E9coupe V5
10
579.611846
20
-72.932364
11
578.948823
21
-72.385321
0
LINE
8
D_U+00E9coupe V5
10
578.948823
20
-72.385321
11
578.187831
21
-71.972274
0
LINE
8
D_U+00E9coupe V5
10
578.187831
20
-71.972274
11
577.346886
21
-71.711236
0
LINE
8
D_U+00E9coupe V5
10
577.346886
20
-71.711236
11
576.444000
21
-71.620220
0
LINE
8
D_U+00E9coupe V5
10
576.444000
20
-71.620220
11
575.541132
21
-71.711236
0
LINE
8
D_U+00E9coupe V5
10
575.541132
20
-71.711236
11
574.700194
21
-71.972274
0
LINE
8
D_U+00E9coupe V5
10
574.700194
20
-71.972274
11
573.939204
21
-72.385321
0
LINE
8
D_U+00E9coupe V5
10
573.939204
20
-72.385321
11
573.276176
21
-72.932364
0
LINE
8
D_U+00E9coupe V5
10
573.276176
20
-72.932364
11
572.729127
21
-73.595387
0
LINE
8
D_U+00E9coupe V5
10
572.729127
20
-73.595387
11
572.316073
21
-74.356379
0
LINE
8
D_U+00E9coupe V5
10
572.316073
20
-74.356379
11
572.055028
21
-75.197324
0
LINE
8
D_U+00E9coupe V5
10
572.055028
20
-75.197324
11
571.964010
21
-76.100210
0
LINE
8
D_U+00E9coupe V5
10
571.964010
20
-76.100210
11
572.055028
21
-77.003078
0
LINE
8
D_U+00E9coupe V5
10
572.055028
20
-77.003078
11
572.316073
21
-77.844016
0
LINE
8
D_U+00E9coupe V5
10
572.316073
20
-77.844016
11
572.729127
21
-78.605006
0
LINE
8
D_U+00E9coupe V5
10
572.729127
20
-78.605006
11
573.276176
21
-79.268034
0
LINE
8
D_U+00E9coupe V5
10
573.276176
20
-79.268034
11
573.939204
21
-79.815083
0
LINE
8
D_U+00E9coupe V5
10
573.939204
20
-79.815083
11
574.700194
21
-80.228137
0
LINE
8
D_U+00E9coupe V5
10
574.700194
20
-80.228137
11
575.541132
21
-80.489182
0
LINE
8
D_U+00E9coupe V5
10
575.541132
20
-80.489182
11
576.444000
21
-80.580200
0
LINE
8
D_U+00E9coupe V5
10
576.444000
20
-80.580200
11
576.444000
21
-80.580200
0
LINE
8
D_U+00E9coupe V5
10
576.444000
20
-80.580200
11
576.444000
21
-80.580200
0
LINE
8
D_U+00E9coupe V5
10
576.444000
20
-21.913600
11
577.346886
21
-21.822582
0
LINE
8
D_U+00E9coupe V5
10
577.346886
20
-21.822582
11
578.187831
21
-21.561537
0
LINE
8
D_U+00E9coupe V5
10
578.187831
20
-21.561537
11
578.948823
21
-21.148483
0
LINE
8
D_U+00E9coupe V5
10
578.948823
20
-21.148483
11
579.611846
21
-20.601434
0
LINE
8
D_U+00E9coupe V5
10
579.611846
20
-20.601434
11
580.158889
21
-19.938406
0
LINE
8
D_U+00E9coupe V5
10
580.158889
20
-19.938406
11
580.571936
21
-19.177416
0
LINE
8
D_U+00E9coupe V5
10
580.571936
20
-19.177416
11
580.832974
21
-18.336478
0
LINE
8
D_U+00E9coupe V5
10
580.832974
20
-18.336478
11
580.923990
21
-17.433610
0
LINE
8
D_U+00E9coupe V5
10
580.923990
20
-17.433610
11
580.832974
21
-16.530722
0
LINE
8
D_U+00E9coupe V5
10
580.832974
20
-16.530722
11
580.571936
21
-15.689770
0
LINE
8
D_U+00E9coupe V5
10
580.571936
20
-15.689770
11
580.158889
21
-14.928768
0
LINE
8
D_U+00E9coupe V5
10
580.158889
20
-14.928768
11
579.611846
21
-14.265734
0
LINE
8
D_U+00E9coupe V5
10
579.611846
20
-14.265734
11
578.948823
21
-13.718680
0
LINE
8
D_U+00E9coupe V5
10
578.948823
20
-13.718680
11
578.187831
21
-13.305624
0
LINE
8
D_U+00E9coupe V5
10
578.187831
20
-13.305624
11
577.346886
21
-13.044578
0
LINE
8
D_U+00E9coupe V5
10
577.346886
20
-13.044578
11
576.444000
21
-12.953560
0
LINE
8
D_U+00E9coupe V5
10
576.444000
20
-12.953560
11
575.541132
21
-13.044578
0
LINE
8
D_U+00E9coupe V5
10
575.541132
20
-13.044578
11
574.700194
21
-13.305624
0
LINE
8
D_U+00E9coupe V5
10
574.700194
20
-13.305624
11
573.939204
21
-13.718680
0
LINE
8
D_U+00E9coupe V5
10
573.939204
20
-13.718680
11
573.276176
21
-14.265734
0
LINE
8
D_U+00E9coupe V5
10
573.276176
20
-14.265734
11
572.729127
21
-14.928768
0
LINE
8
D_U+00E9coupe V5
10
572.729127
20
-14.928768
11
572.316073
21
-15.689770
0
LINE
8
D_U+00E9coupe V5
10
572.316073
20
-15.689770
11
572.055028
21
-16.530722
0
LINE
8
D_U+00E9coupe V5
10
572.055028
20
-16.530722
11
571.964010
21
-17.433610
0
LINE
8
D_U+00E9coupe V5
10
571.964010
20
-17.433610
11
572.055028
21
-18.336478
0
LINE
8
D_U+00E9coupe V5
10
572.055028
20
-18.336478
11
572.316073
21
-19.177416
0
LINE
8
D_U+00E9coupe V5
10
572.316073
20
-19.177416
11
572.729127
21
-19.938406
0
LINE
8
D_U+00E9coupe V5
10
572.729127
20
-19.938406
11
573.276176
21
-20.601434
0
LINE
8
D_U+00E9coupe V5
10
573.276176
20
-20.601434
11
573.939204
21
-21.148483
0
LINE
8
D_U+00E9coupe V5
10
573.939204
20
-21.148483
11
574.700194
21
-21.561537
0
LINE
8
D_U+00E9coupe V5
10
574.700194
20
-21.561537
11
575.541132
21
-21.822582
0
LINE
8
D_U+00E9coupe V5
10
575.541132
20
-21.822582
11
576.444000
21
-21.913600
0
LINE
8
D_U+00E9coupe V5
10
576.444000
20
-21.913600
11
576.444000
21
-21.913600
0
LINE
8
D_U+00E9coupe V5
10
576.444000
20
-21.913600
11
576.444000
21
-21.913600
0
LINE
8
D_U+00E9coupe V5
10
498.904000
20
9.302760
11
498.001123
21
9.393778
0
LINE
8
D_U+00E9coupe V5
10
498.001123
20
9.393778
11
497.160182
21
9.654823
0
LINE
8
D_U+00E9coupe V5
10
497.160182
20
9.654823
11
496.399191
21
10.067877
0
LINE
8
D_U+00E9coupe V5
10
496.399191
20
10.067877
11
495.736165
21
10.614926
0
LINE
8
D_U+00E9coupe V5
10
495.736165
20
10.614926
11
495.189119
21
11.277954
0
LINE
8
D_U+00E9coupe V5
10
495.189119
20
11.277954
11
494.776068
21
12.038944
0
LINE
8
D_U+00E9coupe V5
10
494.776068
20
12.038944
11
494.515027
21
12.879882
0
LINE
8
D_U+00E9coupe V5
10
494.515027
20
12.879882
11
494.424010
21
13.782750
0
LINE
8
D_U+00E9coupe V5
10
494.424010
20
13.782750
11
494.515027
21
14.685618
0
LINE
8
D_U+00E9coupe V5
10
494.515027
20
14.685618
11
494.776068
21
15.526556
0
LINE
8
D_U+00E9coupe V5
10
494.776068
20
15.526556
11
495.189119
21
16.287546
0
LINE
8
D_U+00E9coupe V5
10
495.189119
20
16.287546
11
495.736165
21
16.950574
0
LINE
8
D_U+00E9coupe V5
10
495.736165
20
16.950574
11
496.399191
21
17.497623
0
LINE
8
D_U+00E9coupe V5
10
496.399191
20
17.497623
11
497.160182
21
17.910677
0
LINE
8
D_U+00E9coupe V5
10
497.160182
20
17.910677
11
498.001123
21
18.171722
0
LINE
8
D_U+00E9coupe V5
10
498.001123
20
18.171722
11
498.904000
21
18.262740
0
LINE
8
D_U+00E9coupe V5
10
498.904000
20
18.262740
11
499.806868
21
18.171722
0
LINE
8
D_U+00E9coupe V5
10
499.806868
20
18.171722
11
500.647806
21
17.910677
0
LINE
8
D_U+00E9coupe V5
10
500.647806
20
17.910677
11
501.408796
21
17.497623
0
LINE
8
D_U+00E9coupe V5
10
501.408796
20
17.497623
11
502.071824
21
16.950574
0
LINE
8
D_U+00E9coupe V5
10
502.071824
20
16.950574
11
502.618873
21
16.287546
0
LINE
8
D_U+00E9coupe V5
10
502.618873
20
16.287546
11
503.031927
21
15.526556
0
LINE
8
D_U+00E9coupe V5
10
503.031927
20
15.526556
11
503.292972
21
14.685618
0
LINE
8
D_U+00E9coupe V5
10
503.292972
20
14.685618
11
503.383990
21
13.782750
0
LINE
8
D_U+00E9coupe V5
10
503.383990
20
13.782750
11
503.292972
21
12.879882
0
LINE
8
D_U+00E9coupe V5
10
503.292972
20
12.879882
11
503.031927
21
12.038944
0
LINE
8
D_U+00E9coupe V5
10
503.031927
20
12.038944
11
502.618873
21
11.277954
0
LINE
8
D_U+00E9coupe V5
10
502.618873
20
11.277954
11
502.071824
21
10.614926
0
LINE
8
D_U+00E9coupe V5
10
502.071824
20
10.614926
11
501.408796
21
10.067877
0
LINE
8
D_U+00E9coupe V5
10
501.408796
20
10.067877
11
500.647806
21
9.654823
0
LINE
8
D_U+00E9coupe V5
10
500.647806
20
9.654823
11
499.806868
21
9.393778
0
LINE
8
D_U+00E9coupe V5
10
499.806868
20
9.393778
11
498.904000
21
9.302760
0
LINE
8
D_U+00E9coupe V5
10
498.904000
20
9.302760
11
498.904000
21
9.302760
0
LINE
8
D_U+00E9coupe V5
10
498.904000
20
9.302760
11
498.904000
21
9.302760
0
LINE
8
D_U+00E9coupe V5
10
498.904000
20
-76.030500
11
499.806868
21
-75.939482
0
LINE
8
D_U+00E9coupe V5
10
499.806868
20
-75.939482
11
500.647806
21
-75.678437
0
LINE
8
D_U+00E9coupe V5
10
500.647806
20
-75.678437
11
501.408796
21
-75.265383
0
LINE
8
D_U+00E9coupe V5
10
501.408796
20
-75.265383
11
502.071824
21
-74.718334
0
LINE
8
D_U+00E9coupe V5
10
502.071824
20
-74.718334
11
502.618873
21
-74.055306
0
LINE
8
D_U+00E9coupe V5
10
502.618873
20
-74.055306
11
503.031927
21
-73.294316
0
LINE
8
D_U+00E9coupe V5
10
503.031927
20
-73.294316
11
503.292972
21
-72.453378
0
LINE
8
D_U+00E9coupe V5
10
503.292972
20
-72.453378
11
503.383990
21
-71.550510
0
LINE
8
D_U+00E9coupe V5
10
503.383990
20
-71.550510
11
503.292972
21
-70.647624
0
LINE
8
D_U+00E9coupe V5
10
503.292972
20
-70.647624
11
503.031927
21
-69.806679
0
LINE
8
D_U+00E9coupe V5
10
503.031927
20
-69.806679
11
502.618873
21
-69.045687
0
LINE
8
D_U+00E9coupe V5
10
502.618873
20
-69.045687
11
502.071824
21
-68.382664
0
LINE
8
D_U+00E9coupe V5
10
502.071824
20
-68.382664
11
501.408796
21
-67.835621
0
LINE
8
D_U+00E9coupe V5
10
501.408796
20
-67.835621
11
500.647806
21
-67.422574
0
LINE
8
D_U+00E9coupe V5
10
500.647806
20
-67.422574
11
499.806868
21
-67.161536
0
LINE
8
D_U+00E9coupe V5
10
499.806868
20
-67.161536
11
498.904000
21
-67.070520
0
LINE
8
D_U+00E9coupe V5
10
498.904000
20
-67.070520
11
498.001123
21
-67.161536
0
LINE
8
D_U+00E9coupe V5
10
498.001123
20
-67.161536
11
497.160182
21
-67.422574
0
LINE
8
D_U+00E9coupe V5
10
497.160182
20
-67.422574
11
496.399191
21
-67.835621
0
LINE
8
D_U+00E9coupe V5
10
496.399191
20
-67.835621
11
495.736165
21
-68.382664
0
LINE
8
D_U+00E9coupe V5
10
495.736165
20
-68.382664
11
495.189119
21
-69.045687
0
LINE
8
D_U+00E9coupe V5
10
495.189119
20
-69.045687
11
494.776068
21
-69.806679
0
LINE
8
D_U+00E9coupe V5
10
494.776068
20
-69.806679
11
494.515027
21
-70.647624
0
LINE
8
D_U+00E9coupe V5
10
494.515027
20
-70.647624
11
494.424010
21
-71.550510
0
LINE
8
D_U+00E9coupe V5
10
494.424010
20
-71.550510
11
494.515027
21
-72.453378
0
LINE
8
D_U+00E9coupe V5
10
494.515027
20
-72.453378
11
494.776068
21
-73.294316
0
LINE
8
D_U+00E9coupe V5
10
494.776068
20
-73.294316
11
495.189119
21
-74.055306
0
LINE
8
D_U+00E9coupe V5
10
495.189119
20
-74.055306
11
495.736165
21
-74.718334
0
LINE
8
D_U+00E9coupe V5
10
495.736165
20
-74.718334
11
496.399191
21
-75.265383
0
LINE
8
D_U+00E9coupe V5
10
496.399191
20
-75.265383
11
497.160182
21
-75.678437
0
LINE
8
D_U+00E9coupe V5
10
497.160182
20
-75.678437
11
498.001123
21
-75.939482
0
LINE
8
D_U+00E9coupe V5
10
498.001123
20
-75.939482
11
498.904000
21
-76.030500
0
LINE
8
D_U+00E9coupe V5
10
498.904000
20
-76.030500
11
498.904000
21
-76.030500
0
LINE
8
D_U+00E9coupe V5
10
498.904000
20
-76.030500
11
498.904000
21
-76.030500
0
LINE
8
D_U+00E9coupe V5
10
616.063000
20
-281.158000
11
616.063000
21
-121.158000
0
LINE
8
D_U+00E9coupe V5
10
578.730000
20
-121.158000
11
616.063000
21
-121.158000
0
LINE
8
D_U+00E9coupe V5
10
578.730000
20
-121.158000
11
578.730000
21
-126.492000
0
LINE
8
D_U+00E9coupe V5
10
578.730000
20
-126.492000
11
555.619000
21
-126.492000
0
LINE
8
D_U+00E9coupe V5
10
555.619000
20
-121.158000
11
555.619000
21
-126.492000
0
LINE
8
D_U+00E9coupe V5
10
525.752000
20
-121.158000
11
555.619000
21
-121.158000
0
LINE
8
D_U+00E9coupe V5
10
525.752000
20
-126.492000
11
525.752000
21
-121.158000
0
LINE
8
D_U+00E9coupe V5
10
502.641000
20
-126.492000
11
525.752000
21
-126.492000
0
LINE
8
D_U+00E9coupe V5
10
502.641000
20
-121.158000
11
502.641000
21
-126.492000
0
LINE
8
D_U+00E9coupe V5
10
502.641000
20
-121.158000
11
472.775000
21
-121.158000
0
LINE
8
D_U+00E9coupe V5
10
472.775000
20
-126.492000
11
472.775000
21
-121.158000
0
LINE
8
D_U+00E9coupe V5
10
449.664000
20
-126.492000
11
472.775000
21
-126.492000
0
LINE
8
D_U+00E9coupe V5
10
449.664000
20
-121.158000
11
449.664000
21
-126.492000
0
LINE
8
D_U+00E9coupe V5
10
449.664000
20
-121.158000
11
419.797000
21
-121.158000
0
LINE
8
D_U+00E9coupe V5
10
419.797000
20
-126.492000
11
419.797000
21
-121.158000
0
LINE
8
D_U+00E9coupe V5
10
395.264000
20
-126.492000
11
419.797000
21
-126.492000
0
LINE
8
D_U+00E9coupe V5
10
395.264000
20
-142.492000
11
395.264000
21
-126.492000
0
LINE
8
D_U+00E9coupe V5
10
400.597000
20
-147.825000
11
399.522148
21
-147.716646
0
LINE
8
D_U+00E9coupe V5
10
399.522148
20
-147.716646
11
398.521028
21
-147.405882
0
LINE
8
D_U+00E9coupe V5
10
398.521028
20
-147.405882
11
397.615086
21
-146.914155
0
LINE
8
D_U+00E9coupe V5
10
397.615086
20
-146.914155
11
396.825770
21
-146.262910
0
LINE
8
D_U+00E9coupe V5
10
396.825770
20
-146.262910
11
396.174525
21
-145.473594
0
LINE
8
D_U+00E9coupe V5
10
396.174525
20
-145.473594
11
395.682797
21
-144.567653
0
LINE
8
D_U+00E9coupe V5
10
395.682797
20
-144.567653
11
395.372034
21
-143.566532
0
LINE
8
D_U+00E9coupe V5
10
395.372034
20
-143.566532
11
395.263680
21
-142.491680
0
LINE
8
D_U+00E9coupe V5
10
405.930000
20
-147.825000
11
400.597000
21
-147.825000
0
LINE
8
D_U+00E9coupe V5
10
405.930000
20
-179.825000
11
405.930000
21
-147.825000
0
LINE
8
D_U+00E9coupe V5
10
400.597000
20
-179.825000
11
405.930000
21
-179.825000
0
LINE
8
D_U+00E9coupe V5
10
400.597000
20
-211.825000
11
400.597000
21
-179.825000
0
LINE
8
D_U+00E9coupe V5
10
405.930000
20
-211.825000
11
400.597000
21
-211.825000
0
LINE
8
D_U+00E9coupe V5
10
405.930000
20
-254.492000
11
405.930000
21
-211.825000
0
LINE
8
D_U+00E9coupe V5
10
400.597000
20
-254.492000
11
405.930000
21
-254.492000
0
LINE
8
D_U+00E9coupe V5
10
400.597000
20
-254.492000
11
399.522148
21
-254.600355
0
LINE
8
D_U+00E9coupe V5
10
399.522148
20
-254.600355
11
398.521028
21
-254.911120
0
LINE
8
D_U+00E9coupe V5
10
398.521028
20
-254.911120
11
397.615086
21
-255.402850
0
LINE
8
D_U+00E9coupe V5
10
397.615086
20
-255.402850
11
396.825770
21
-256.054098
0
LINE
8
D_U+00E9coupe V5
10
396.825770
20
-256.054098
11
396.174525
21
-256.843415
0
LINE
8
D_U+00E9coupe V5
10
396.174525
20
-256.843415
11
395.682797
21
-257.749356
0
LINE
8
D_U+00E9coupe V5
10
395.682797
20
-257.749356
11
395.372034
21
-258.750473
0
LINE
8
D_U+00E9coupe V5
10
395.372034
20
-258.750473
11
395.263680
21
-259.825320
0
LINE
8
D_U+00E9coupe V5
10
395.264000
20
-275.825000
11
395.264000
21
-259.825000
0
LINE
8
D_U+00E9coupe V5
10
419.797000
20
-275.825000
11
395.264000
21
-275.825000
0
LINE
8
D_U+00E9coupe V5
10
419.797000
20
-275.825000
11
419.797000
21
-281.158000
0
LINE
8
D_U+00E9coupe V5
10
419.797000
20
-281.158000
11
449.664000
21
-281.158000
0
LINE
8
D_U+00E9coupe V5
10
449.664000
20
-275.825000
11
449.664000
21
-281.158000
0
LINE
8
D_U+00E9coupe V5
10
449.664000
20
-275.825000
11
472.775000
21
-275.825000
0
LINE
8
D_U+00E9coupe V5
10
472.775000
20
-275.825000
11
472.775000
21
-281.158000
0
LINE
8
D_U+00E9coupe V5
10
472.775000
20
-281.158000
11
502.641000
21
-281.158000
0
LINE
8
D_U+00E9coupe V5
10
502.641000
20
-281.158000
11
502.641000
21
-275.825000
0
LINE
8
D_U+00E9coupe V5
10
502.641000
20
-275.825000
11
525.752000
21
-275.825000
0
LINE
8
D_U+00E9coupe V5
10
525.752000
20
-275.825000
11
525.752000
21
-281.158000
0
LINE
8
D_U+00E9coupe V5
10
525.752000
20
-281.158000
11
555.619000
21
-281.158000
0
LINE
8
D_U+00E9coupe V5
10
555.619000
20
-275.825000
11
555.619000
21
-281.158000
0
LINE
8
D_U+00E9coupe V5
10
555.619000
20
-275.825000
11
578.730000
21
-275.825000
0
LINE
8
D_U+00E9coupe V5
10
578.730000
20
-275.825000
11
578.730000
21
-281.158000
0
LINE
8
D_U+00E9coupe V5
10
616.063000
20
-281.158000
11
578.730000
21
-281.158000
0
LINE
8
D_U+00E9coupe V5
10
528.059000
20
-224.779000
11
527.177618
21
-224.867852
0
LINE
8
D_U+00E9coupe V5
10
527.177618
20
-224.867852
11
526.356699
21
-225.122682
0
LINE
8
D_U+00E9coupe V5
10
526.356699
20
-225.122682
11
525.613829
21
-225.525904
0
LINE
8
D_U+00E9coupe V5
10
525.613829
20
-225.525904
11
524.966592
21
-226.059933
0
LINE
8
D_U+00E9coupe V5
10
524.966592
20
-226.059933
11
524.432575
21
-226.707180
0
LINE
8
D_U+00E9coupe V5
10
524.432575
20
-226.707180
11
524.029362
21
-227.450059
0
LINE
8
D_U+00E9coupe V5
10
524.029362
20
-227.450059
11
523.774539
21
-228.270985
0
LINE
8
D_U+00E9coupe V5
10
523.774539
20
-228.270985
11
523.685690
21
-229.152370
0
LINE
8
D_U+00E9coupe V5
10
523.685690
20
-229.152370
11
523.774539
21
-230.033735
0
LINE
8
D_U+00E9coupe V5
10
523.774539
20
-230.033735
11
524.029362
21
-230.854646
0
LINE
8
D_U+00E9coupe V5
10
524.029362
20
-230.854646
11
524.432575
21
-231.597515
0
LINE
8
D_U+00E9coupe V5
10
524.432575
20
-231.597515
11
524.966592
21
-232.244755
0
LINE
8
D_U+00E9coupe V5
10
524.966592
20
-232.244755
11
525.613829
21
-232.778779
0
LINE
8
D_U+00E9coupe V5
10
525.613829
20
-232.778779
11
526.356699
21
-233.181999
0
LINE
8
D_U+00E9coupe V5
10
526.356699
20
-233.181999
11
527.177618
21
-233.436829
0
LINE
8
D_U+00E9coupe V5
10
527.177618
20
-233.436829
11
528.059000
21
-233.525680
0
LINE
8
D_U+00E9coupe V5
10
528.059000
20
-233.525680
11
528.940384
21
-233.436829
0
LINE
8
D_U+00E9coupe V5
10
528.940384
20
-233.436829
11
529.761306
21
-233.181999
0
LINE
8
D_U+00E9coupe V5
10
529.761306
20
-233.181999
11
530.504181
21
-232.778779
0
LINE
8
D_U+00E9coupe V5
10
530.504181
20
-232.778779
11
531.151422
21
-232.244755
0
LINE
8
D_U+00E9coupe V5
10
531.151422
20
-232.244755
11
531.685445
21
-231.597515
0
LINE
8
D_U+00E9coupe V5
10
531.685445
20
-231.597515
11
532.088663
21
-230.854646
0
LINE
8
D_U+00E9coupe V5
10
532.088663
20
-230.854646
11
532.343490
21
-230.033735
0
LINE
8
D_U+00E9coupe V5
10
532.343490
20
-230.033735
11
532.432340
21
-229.152370
0
LINE
8
D_U+00E9coupe V5
10
532.432340
20
-229.152370
11
532.343490
21
-228.270985
0
LINE
8
D_U+00E9coupe V5
10
532.343490
20
-228.270985
11
532.088663
21
-227.450059
0
LINE
8
D_U+00E9coupe V5
10
532.088663
20
-227.450059
11
531.685445
21
-226.707180
0
LINE
8
D_U+00E9coupe V5
10
531.685445
20
-226.707180
11
531.151422
21
-226.059933
0
LINE
8
D_U+00E9coupe V5
10
531.151422
20
-226.059933
11
530.504181
21
-225.525904
0
LINE
8
D_U+00E9coupe V5
10
530.504181
20
-225.525904
11
529.761306
21
-225.122682
0
LINE
8
D_U+00E9coupe V5
10
529.761306
20
-225.122682
11
528.940384
21
-224.867852
0
LINE
8
D_U+00E9coupe V5
10
528.940384
20
-224.867852
11
528.059000
21
-224.779000
0
LINE
8
D_U+00E9coupe V5
10
528.059000
20
-224.779000
11
528.059000
21
-224.779000
0
LINE
8
D_U+00E9coupe V5
10
528.059000
20
-224.779000
11
528.059000
21
-224.779000
0
LINE
8
D_U+00E9coupe V5
10
587.022000
20
-208.604000
11
586.316176
21
-208.461498
0
LINE
8
D_U+00E9coupe V5
10
586.316176
20
-208.461498
11
585.739788
21
-208.072883
0
LINE
8
D_U+00E9coupe V5
10
585.739788
20
-208.072883
11
585.351173
21
-207.496495
0
LINE
8
D_U+00E9coupe V5
10
585.351173
20
-207.496495
11
585.208670
21
-206.790670
0
LINE
8
D_U+00E9coupe V5
10
585.208670
20
-206.790670
11
585.351172
21
-206.084834
0
LINE
8
D_U+00E9coupe V5
10
585.351172
20
-206.084834
11
585.739787
21
-205.508446
0
LINE
8
D_U+00E9coupe V5
10
585.739787
20
-205.508446
11
586.316175
21
-205.119838
0
LINE
8
D_U+00E9coupe V5
10
586.316175
20
-205.119838
11
587.022000
21
-204.977340
0
LINE
8
D_U+00E9coupe V5
10
587.022000
20
-204.977340
11
587.727836
21
-205.119838
0
LINE
8
D_U+00E9coupe V5
10
587.727836
20
-205.119838
11
588.304224
21
-205.508446
0
LINE
8
D_U+00E9coupe V5
10
588.304224
20
-205.508446
11
588.692832
21
-206.084834
0
LINE
8
D_U+00E9coupe V5
10
588.692832
20
-206.084834
11
588.835330
21
-206.790670
0
LINE
8
D_U+00E9coupe V5
10
588.835330
20
-206.790670
11
588.692832
21
-207.496494
0
LINE
8
D_U+00E9coupe V5
10
588.692832
20
-207.496494
11
588.304224
21
-208.072882
0
LINE
8
D_U+00E9coupe V5
10
588.304224
20
-208.072882
11
587.727836
21
-208.461498
0
LINE
8
D_U+00E9coupe V5
10
587.727836
20
-208.461498
11
587.022000
21
-208.604000
0
LINE
8
D_U+00E9coupe V5
10
587.022000
20
-208.604000
11
587.022000
21
-208.604000
0
LINE
8
D_U+00E9coupe V5
10
587.022000
20
-208.604000
11
587.022000
21
-208.604000
0
LINE
8
D_U+00E9coupe V5
10
587.022000
20
-172.338000
11
586.316176
21
-172.195498
0
LINE
8
D_U+00E9coupe V5
10
586.316176
20
-172.195498
11
585.739788
21
-171.806883
0
LINE
8
D_U+00E9coupe V5
10
585.739788
20
-171.806883
11
585.351173
21
-171.230495
0
LINE
8
D_U+00E9coupe V5
10
585.351173
20
-171.230495
11
585.208670
21
-170.524670
0
LINE
8
D_U+00E9coupe V5
10
585.208670
20
-170.524670
11
585.351172
21
-169.818834
0
LINE
8
D_U+00E9coupe V5
10
585.351172
20
-169.818834
11
585.739787
21
-169.242446
0
LINE
8
D_U+00E9coupe V5
10
585.739787
20
-169.242446
11
586.316175
21
-168.853838
0
LINE
8
D_U+00E9coupe V5
10
586.316175
20
-168.853838
11
587.022000
21
-168.711340
0
LINE
8
D_U+00E9coupe V5
10
587.022000
20
-168.711340
11
587.727836
21
-168.853838
0
LINE
8
D_U+00E9coupe V5
10
587.727836
20
-168.853838
11
588.304224
21
-169.242446
0
LINE
8
D_U+00E9coupe V5
10
588.304224
20
-169.242446
11
588.692832
21
-169.818834
0
LINE
8
D_U+00E9coupe V5
10
588.692832
20
-169.818834
11
588.835330
21
-170.524670
0
LINE
8
D_U+00E9coupe V5
10
588.835330
20
-170.524670
11
588.692832
21
-171.230494
0
LINE
8
D_U+00E9coupe V5
10
588.692832
20
-171.230494
11
588.304224
21
-171.806882
0
LINE
8
D_U+00E9coupe V5
10
588.304224
20
-171.806882
11
587.727836
21
-172.195497
0
LINE
8
D_U+00E9coupe V5
10
587.727836
20
-172.195497
11
587.022000
21
-172.338000
0
LINE
8
D_U+00E9coupe V5
10
587.022000
20
-172.338000
11
587.022000
21
-172.338000
0
LINE
8
D_U+00E9coupe V5
10
587.022000
20
-172.338000
11
587.022000
21
-172.338000
0
LINE
8
D_U+00E9coupe V5
10
519.943000
20
-182.237000
11
520.525930
21
-182.725074
0
LINE
8
D_U+00E9coupe V5
10
520.525930
20
-182.725074
11
520.864684
21
-183.376187
0
LINE
8
D_U+00E9coupe V5
10
520.864684
20
-183.376187
11
520.934563
21
-184.106816
0
LINE
8
D_U+00E9coupe V5
10
520.934563
20
-184.106816
11
520.710870
21
-184.833440
0
LINE
8
D_U+00E9coupe V5
10
520.710870
20
-184.833440
11
520.222820
21
-185.416375
0
LINE
8
D_U+00E9coupe V5
10
520.222820
20
-185.416375
11
519.571704
21
-185.755139
0
LINE
8
D_U+00E9coupe V5
10
519.571704
20
-185.755139
11
518.841062
21
-185.825028
0
LINE
8
D_U+00E9coupe V5
10
518.841062
20
-185.825028
11
518.114430
21
-185.601338
0
LINE
8
D_U+00E9coupe V5
10
518.114430
20
-185.601338
11
517.531508
21
-185.113264
0
LINE
8
D_U+00E9coupe V5
10
517.531508
20
-185.113264
11
517.192742
21
-184.462151
0
LINE
8
D_U+00E9coupe V5
10
517.192742
20
-184.462151
11
517.122846
21
-183.731522
0
LINE
8
D_U+00E9coupe V5
10
517.122846
20
-183.731522
11
517.346532
21
-183.004898
0
LINE
8
D_U+00E9coupe V5
10
517.346532
20
-183.004898
11
517.834607
21
-182.421952
0
LINE
8
D_U+00E9coupe V5
10
517.834607
20
-182.421952
11
518.485723
21
-182.083189
0
LINE
8
D_U+00E9coupe V5
10
518.485723
20
-182.083189
11
519.216361
21
-182.013306
0
LINE
8
D_U+00E9coupe V5
10
519.216361
20
-182.013306
11
519.943002
21
-182.237000
0
LINE
8
D_U+00E9coupe V5
10
519.943002
20
-182.237000
11
519.943002
21
-182.237000
0
LINE
8
D_U+00E9coupe V5
10
519.943002
20
-182.237000
11
519.943000
21
-182.237000
0
LINE
8
D_U+00E9coupe V5
10
508.617000
20
-200.294000
11
507.911176
21
-200.151498
0
LINE
8
D_U+00E9coupe V5
10
507.911176
20
-200.151498
11
507.334788
21
-199.762883
0
LINE
8
D_U+00E9coupe V5
10
507.334788
20
-199.762883
11
506.946172
21
-199.186495
0
LINE
8
D_U+00E9coupe V5
10
506.946172
20
-199.186495
11
506.803670
21
-198.480670
0
LINE
8
D_U+00E9coupe V5
10
506.803670
20
-198.480670
11
506.946172
21
-197.774846
0
LINE
8
D_U+00E9coupe V5
10
506.946172
20
-197.774846
11
507.334787
21
-197.198458
0
LINE
8
D_U+00E9coupe V5
10
507.334787
20
-197.198458
11
507.911175
21
-196.809843
0
LINE
8
D_U+00E9coupe V5
10
507.911175
20
-196.809843
11
508.617000
21
-196.667340
0
LINE
8
D_U+00E9coupe V5
10
508.617000
20
-196.667340
11
509.322836
21
-196.809842
0
LINE
8
D_U+00E9coupe V5
10
509.322836
20
-196.809842
11
509.899224
21
-197.198457
0
LINE
8
D_U+00E9coupe V5
10
509.899224
20
-197.198457
11
510.287832
21
-197.774845
0
LINE
8
D_U+00E9coupe V5
10
510.287832
20
-197.774845
11
510.430330
21
-198.480670
0
LINE
8
D_U+00E9coupe V5
10
510.430330
20
-198.480670
11
510.287832
21
-199.186494
0
LINE
8
D_U+00E9coupe V5
10
510.287832
20
-199.186494
11
509.899224
21
-199.762882
0
LINE
8
D_U+00E9coupe V5
10
509.899224
20
-199.762882
11
509.322836
21
-200.151498
0
LINE
8
D_U+00E9coupe V5
10
509.322836
20
-200.151498
11
508.617000
21
-200.294000
0
LINE
8
D_U+00E9coupe V5
10
508.617000
20
-200.294000
11
508.617000
21
-200.294000
0
LINE
8
D_U+00E9coupe V5
10
508.617000
20
-200.294000
11
508.617000
21
-200.294000
0
LINE
8
D_U+00E9coupe V5
10
508.617000
20
-240.827000
11
509.322836
21
-240.684498
0
LINE
8
D_U+00E9coupe V5
10
509.322836
20
-240.684498
11
509.899224
21
-240.295883
0
LINE
8
D_U+00E9coupe V5
10
509.899224
20
-240.295883
11
510.287832
21
-239.719495
0
LINE
8
D_U+00E9coupe V5
10
510.287832
20
-239.719495
11
510.430330
21
-239.013670
0
LINE
8
D_U+00E9coupe V5
10
510.430330
20
-239.013670
11
510.287832
21
-238.307846
0
LINE
8
D_U+00E9coupe V5
10
510.287832
20
-238.307846
11
509.899224
21
-237.731457
0
LINE
8
D_U+00E9coupe V5
10
509.899224
20
-237.731457
11
509.322836
21
-237.342842
0
LINE
8
D_U+00E9coupe V5
10
509.322836
20
-237.342842
11
508.617000
21
-237.200340
0
LINE
8
D_U+00E9coupe V5
10
508.617000
20
-237.200340
11
507.911176
21
-237.342842
0
LINE
8
D_U+00E9coupe V5
10
507.911176
20
-237.342842
11
507.334788
21
-237.731457
0
LINE
8
D_U+00E9coupe V5
10
507.334788
20
-237.731457
11
506.946172
21
-238.307845
0
LINE
8
D_U+00E9coupe V5
10
506.946172
20
-238.307845
11
506.803670
21
-239.013670
0
LINE
8
D_U+00E9coupe V5
10
506.803670
20
-239.013670
11
506.946172
21
-239.719494
0
LINE
8
D_U+00E9coupe V5
10
506.946172
20
-239.719494
11
507.334787
21
-240.295883
0
LINE
8
D_U+00E9coupe V5
10
507.334787
20
-240.295883
11
507.911175
21
-240.684498
0
LINE
8
D_U+00E9coupe V5
10
507.911175
20
-240.684498
11
508.617000
21
-240.827000
0
LINE
8
D_U+00E9coupe V5
10
508.617000
20
-240.827000
11
508.617000
21
-240.827000
0
LINE
8
D_U+00E9coupe V5
10
508.617000
20
-240.827000
11
508.617000
21
-240.827000
0
LINE
8
D_U+00E9coupe V5
10
537.397000
20
-249.406000
11
538.317346
21
-248.727106
0
LINE
8
D_U+00E9coupe V5
10
538.317346
20
-248.727106
11
538.886170
21
-247.780839
0
LINE
8
D_U+00E9coupe V5
10
538.886170
20
-247.780839
11
539.058664
21
-246.690321
0
LINE
8
D_U+00E9coupe V5
10
539.058664
20
-246.690321
11
538.790020
21
-245.578670
0
LINE
8
D_U+00E9coupe V5
10
538.790020
20
-245.578670
11
538.111126
21
-244.658338
0
LINE
8
D_U+00E9coupe V5
10
538.111126
20
-244.658338
11
537.164859
21
-244.089515
0
LINE
8
D_U+00E9coupe V5
10
537.164859
20
-244.089515
11
536.074341
21
-243.917023
0
LINE
8
D_U+00E9coupe V5
10
536.074341
20
-243.917023
11
534.962690
21
-244.185680
0
LINE
8
D_U+00E9coupe V5
10
534.962690
20
-244.185680
11
534.042357
21
-244.864559
0
LINE
8
D_U+00E9coupe V5
10
534.042357
20
-244.864559
11
533.473535
21
-245.810819
0
LINE
8
D_U+00E9coupe V5
10
533.473535
20
-245.810819
11
533.301042
21
-246.901334
0
LINE
8
D_U+00E9coupe V5
10
533.301042
20
-246.901334
11
533.569700
21
-248.012980
0
LINE
8
D_U+00E9coupe V5
10
533.569700
20
-248.012980
11
534.248579
21
-248.933326
0
LINE
8
D_U+00E9coupe V5
10
534.248579
20
-248.933326
11
535.194839
21
-249.502150
0
LINE
8
D_U+00E9coupe V5
10
535.194839
20
-249.502150
11
536.285354
21
-249.674644
0
LINE
8
D_U+00E9coupe V5
10
536.285354
20
-249.674644
11
537.397000
21
-249.406000
0
LINE
8
D_U+00E9coupe V5
10
537.397000
20
-249.406000
11
537.397000
21
-249.406000
0
LINE
8
D_U+00E9coupe V5
10
537.397000
20
-249.406000
11
537.397000
21
-249.406000
0
LINE
8
D_U+00E9coupe V5
10
518.509000
20
-208.900000
11
517.588654
21
-209.578879
0
LINE
8
D_U+00E9coupe V5
10
517.588654
20
-209.578879
11
517.019830
21
-210.525139
0
LINE
8
D_U+00E9coupe V5
10
517.019830
20
-210.525139
11
516.847336
21
-211.615654
0
LINE
8
D_U+00E9coupe V5
10
516.847336
20
-211.615654
11
517.115980
21
-212.727300
0
LINE
8
D_U+00E9coupe V5
10
517.115980
20
-212.727300
11
517.794874
21
-213.647640
0
LINE
8
D_U+00E9coupe V5
10
517.794874
20
-213.647640
11
518.741141
21
-214.216451
0
LINE
8
D_U+00E9coupe V5
10
518.741141
20
-214.216451
11
519.831659
21
-214.388926
0
LINE
8
D_U+00E9coupe V5
10
519.831659
20
-214.388926
11
520.943310
21
-214.120260
0
LINE
8
D_U+00E9coupe V5
10
520.943310
20
-214.120260
11
521.863642
21
-213.441381
0
LINE
8
D_U+00E9coupe V5
10
521.863642
20
-213.441381
11
522.432465
21
-212.495121
0
LINE
8
D_U+00E9coupe V5
10
522.432465
20
-212.495121
11
522.604957
21
-211.404606
0
LINE
8
D_U+00E9coupe V5
10
522.604957
20
-211.404606
11
522.336300
21
-210.292960
0
LINE
8
D_U+00E9coupe V5
10
522.336300
20
-210.292960
11
521.657421
21
-209.372615
0
LINE
8
D_U+00E9coupe V5
10
521.657421
20
-209.372615
11
520.711162
21
-208.803797
0
LINE
8
D_U+00E9coupe V5
10
520.711162
20
-208.803797
11
519.620646
21
-208.631321
0
LINE
8
D_U+00E9coupe V5
10
519.620646
20
-208.631321
11
518.509000
21
-208.900000
0
LINE
8
D_U+00E9coupe V5
10
518.509000
20
-208.900000
11
518.509000
21
-208.900000
0
LINE
8
D_U+00E9coupe V5
10
518.509000
20
-208.900000
11
518.509000
21
-208.900000
0
LINE
8
D_U+00E9coupe V5
10
580.364000
20
-182.237000
11
580.904000
21
-182.713330
0
LINE
8
D_U+00E9coupe V5
10
580.904000
20
-182.713330
11
581.208857
21
-183.338072
0
LINE
8
D_U+00E9coupe V5
10
581.208857
20
-183.338072
11
581.257211
21
-184.031536
0
LINE
8
D_U+00E9coupe V5
10
581.257211
20
-184.031536
11
581.027701
21
-184.714030
0
LINE
8
D_U+00E9coupe V5
10
581.027701
20
-184.714030
11
580.551371
21
-185.254062
0
LINE
8
D_U+00E9coupe V5
10
580.551371
20
-185.254062
11
579.926629
21
-185.558934
0
LINE
8
D_U+00E9coupe V5
10
579.926629
20
-185.558934
11
579.233165
21
-185.607294
0
LINE
8
D_U+00E9coupe V5
10
579.233165
20
-185.607294
11
578.550671
21
-185.377788
0
LINE
8
D_U+00E9coupe V5
10
578.550671
20
-185.377788
11
578.010639
21
-184.901445
0
LINE
8
D_U+00E9coupe V5
10
578.010639
20
-184.901445
11
577.705767
21
-184.276697
0
LINE
8
D_U+00E9coupe V5
10
577.705767
20
-184.276697
11
577.657407
21
-183.583222
0
LINE
8
D_U+00E9coupe V5
10
577.657407
20
-183.583222
11
577.886913
21
-182.900698
0
LINE
8
D_U+00E9coupe V5
10
577.886913
20
-182.900698
11
578.363244
21
-182.360698
0
LINE
8
D_U+00E9coupe V5
10
578.363244
20
-182.360698
11
578.987993
21
-182.055841
0
LINE
8
D_U+00E9coupe V5
10
578.987993
20
-182.055841
11
579.681474
21
-182.007487
0
LINE
8
D_U+00E9coupe V5
10
579.681474
20
-182.007487
11
580.364003
21
-182.236997
0
LINE
8
D_U+00E9coupe V5
10
580.364003
20
-182.236997
11
580.364003
21
-182.236997
0
LINE
8
D_U+00E9coupe V5
10
580.364003
20
-182.236997
11
580.364000
21
-182.237000
0
LINE
8
D_U+00E9coupe V5
10
576.444000
20
-155.339000
11
577.346886
21
-155.430018
0
LINE
8
D_U+00E9coupe V5
10
577.346886
20
-155.430018
11
578.187831
21
-155.691063
0
LINE
8
D_U+00E9coupe V5
10
578.187831
20
-155.691063
11
578.948823
21
-156.104117
0
LINE
8
D_U+00E9coupe V5
10
578.948823
20
-156.104117
11
579.611846
21
-156.651166
0
LINE
8
D_U+00E9coupe V5
10
579.611846
20
-156.651166
11
580.158889
21
-157.314194
0
LINE
8
D_U+00E9coupe V5
10
580.158889
20
-157.314194
11
580.571936
21
-158.075184
0
LINE
8
D_U+00E9coupe V5
10
580.571936
20
-158.075184
11
580.832974
21
-158.916122
0
LINE
8
D_U+00E9coupe V5
10
580.832974
20
-158.916122
11
580.923990
21
-159.818990
0
LINE
8
D_U+00E9coupe V5
10
580.923990
20
-159.818990
11
580.832974
21
-160.721867
0
LINE
8
D_U+00E9coupe V5
10
580.832974
20
-160.721867
11
580.571936
21
-161.562808
0
LINE
8
D_U+00E9coupe V5
10
580.571936
20
-161.562808
11
580.158889
21
-162.323799
0
LINE
8
D_U+00E9coupe V5
10
580.158889
20
-162.323799
11
579.611846
21
-162.986825
0
LINE
8
D_U+00E9coupe V5
10
579.611846
20
-162.986825
11
578.948823
21
-163.533871
0
LINE
8
D_U+00E9coupe V5
10
578.948823
20
-163.533871
11
578.187831
21
-163.946922
0
LINE
8
D_U+00E9coupe V5
10
578.187831
20
-163.946922
11
577.346886
21
-164.207963
0
LINE
8
D_U+00E9coupe V5
10
577.346886
20
-164.207963
11
576.444000
21
-164.298980
0
LINE
8
D_U+00E9coupe V5
10
576.444000
20
-164.298980
11
575.541132
21
-164.207963
0
LINE
8
D_U+00E9coupe V5
10
575.541132
20
-164.207963
11
574.700194
21
-163.946922
0
LINE
8
D_U+00E9coupe V5
10
574.700194
20
-163.946922
11
573.939204
21
-163.533871
0
LINE
8
D_U+00E9coupe V5
10
573.939204
20
-163.533871
11
573.276176
21
-162.986825
0
LINE
8
D_U+00E9coupe V5
10
573.276176
20
-162.986825
11
572.729127
21
-162.323799
0
LINE
8
D_U+00E9coupe V5
10
572.729127
20
-162.323799
11
572.316073
21
-161.562808
0
LINE
8
D_U+00E9coupe V5
10
572.316073
20
-161.562808
11
572.055028
21
-160.721867
0
LINE
8
D_U+00E9coupe V5
10
572.055028
20
-160.721867
11
571.964010
21
-159.818990
0
LINE
8
D_U+00E9coupe V5
10
571.964010
20
-159.818990
11
572.055028
21
-158.916122
0
LINE
8
D_U+00E9coupe V5
10
572.055028
20
-158.916122
11
572.316073
21
-158.075184
0
LINE
8
D_U+00E9coupe V5
10
572.316073
20
-158.075184
11
572.729127
21
-157.314194
0
LINE
8
D_U+00E9coupe V5
10
572.729127
20
-157.314194
11
573.276176
21
-156.651166
0
LINE
8
D_U+00E9coupe V5
10
573.276176
20
-156.651166
11
573.939204
21
-156.104117
0
LINE
8
D_U+00E9coupe V5
10
573.939204
20
-156.104117
11
574.700194
21
-155.691063
0
LINE
8
D_U+00E9coupe V5
10
574.700194
20
-155.691063
11
575.541132
21
-155.430018
0
LINE
8
D_U+00E9coupe V5
10
575.541132
20
-155.430018
11
576.444000
21
-155.339000
0
LINE
8
D_U+00E9coupe V5
10
576.444000
20
-155.339000
11
576.444000
21
-155.339000
0
LINE
8
D_U+00E9coupe V5
10
576.444000
20
-155.339000
11
576.444000
21
-155.339000
0
LINE
8
D_U+00E9coupe V5
10
576.444000
20
-214.006000
11
577.346886
21
-214.097018
0
LINE
8
D_U+00E9coupe V5
10
577.346886
20
-214.097018
11
578.187831
21
-214.358063
0
LINE
8
D_U+00E9coupe V5
10
578.187831
20
-214.358063
11
578.948823
21
-214.771117
0
LINE
8
D_U+00E9coupe V5
10
578.948823
20
-214.771117
11
579.611846
21
-215.318166
0
LINE
8
D_U+00E9coupe V5
10
579.611846
20
-215.318166
11
580.158889
21
-215.981194
0
LINE
8
D_U+00E9coupe V5
10
580.158889
20
-215.981194
11
580.571936
21
-216.742184
0
LINE
8
D_U+00E9coupe V5
10
580.571936
20
-216.742184
11
580.832974
21
-217.583122
0
LINE
8
D_U+00E9coupe V5
10
580.832974
20
-217.583122
11
580.923990
21
-218.485990
0
LINE
8
D_U+00E9coupe V5
10
580.923990
20
-218.485990
11
580.832974
21
-219.388867
0
LINE
8
D_U+00E9coupe V5
10
580.832974
20
-219.388867
11
580.571936
21
-220.229808
0
LINE
8
D_U+00E9coupe V5
10
580.571936
20
-220.229808
11
580.158889
21
-220.990799
0
LINE
8
D_U+00E9coupe V5
10
580.158889
20
-220.990799
11
579.611846
21
-221.653825
0
LINE
8
D_U+00E9coupe V5
10
579.611846
20
-221.653825
11
578.948823
21
-222.200871
0
LINE
8
D_U+00E9coupe V5
10
578.948823
20
-222.200871
11
578.187831
21
-222.613922
0
LINE
8
D_U+00E9coupe V5
10
578.187831
20
-222.613922
11
577.346886
21
-222.874963
0
LINE
8
D_U+00E9coupe V5
10
577.346886
20
-222.874963
11
576.444000
21
-222.965980
0
LINE
8
D_U+00E9coupe V5
10
576.444000
20
-222.965980
11
575.541132
21
-222.874963
0
LINE
8
D_U+00E9coupe V5
10
575.541132
20
-222.874963
11
574.700194
21
-222.613922
0
LINE
8
D_U+00E9coupe V5
10
574.700194
20
-222.613922
11
573.939204
21
-222.200871
0
LINE
8
D_U+00E9coupe V5
10
573.939204
20
-222.200871
11
573.276176
21
-221.653825
0
LINE
8
D_U+00E9coupe V5
10
573.276176
20
-221.653825
11
572.729127
21
-220.990799
0
LINE
8
D_U+00E9coupe V5
10
572.729127
20
-220.990799
11
572.316073
21
-220.229808
0
LINE
8
D_U+00E9coupe V5
10
572.316073
20
-220.229808
11
572.055028
21
-219.388867
0
LINE
8
D_U+00E9coupe V5
10
572.055028
20
-219.388867
11
571.964010
21
-218.485990
0
LINE
8
D_U+00E9coupe V5
10
571.964010
20
-218.485990
11
572.055028
21
-217.583122
0
LINE
8
D_U+00E9coupe V5
10
572.055028
20
-217.583122
11
572.316073
21
-216.742184
0
LINE
8
D_U+00E9coupe V5
10
572.316073
20
-216.742184
11
572.729127
21
-215.981194
0
LINE
8
D_U+00E9coupe V5
10
572.729127
20
-215.981194
11
573.276176
21
-215.318166
0
LINE
8
D_U+00E9coupe V5
10
573.276176
20
-215.318166
11
573.939204
21
-214.771117
0
LINE
8
D_U+00E9coupe V5
10
573.939204
20
-214.771117
11
574.700194
21
-214.358063
0
LINE
8
D_U+00E9coupe V5
10
574.700194
20
-214.358063
11
575.541132
21
-214.097018
0
LINE
8
D_U+00E9coupe V5
10
575.541132
20
-214.097018
11
576.444000
21
-214.006000
0
LINE
8
D_U+00E9coupe V5
10
576.444000
20
-214.006000
11
576.444000
21
-214.006000
0
LINE
8
D_U+00E9coupe V5
10
576.444000
20
-214.006000
11
576.444000
21
-214.006000
0
LINE
8
D_U+00E9coupe V5
10
498.904000
20
-159.889000
11
499.806868
21
-159.980018
0
LINE
8
D_U+00E9coupe V5
10
499.806868
20
-159.980018
11
500.647806
21
-160.241063
0
LINE
8
D_U+00E9coupe V5
10
500.647806
20
-160.241063
11
501.408796
21
-160.654117
0
LINE
8
D_U+00E9coupe V5
10
501.408796
20
-160.654117
11
502.071824
21
-161.201166
0
LINE
8
D_U+00E9coupe V5
10
502.071824
20
-161.201166
11
502.618873
21
-161.864194
0
LINE
8
D_U+00E9coupe V5
10
502.618873
20
-161.864194
11
503.031927
21
-162.625184
0
LINE
8
D_U+00E9coupe V5
10
503.031927
20
-162.625184
11
503.292972
21
-163.466122
0
LINE
8
D_U+00E9coupe V5
10
503.292972
20
-163.466122
11
503.383990
21
-164.368990
0
LINE
8
D_U+00E9coupe V5
10
503.383990
20
-164.368990
11
503.292972
21
-165.271867
0
LINE
8
D_U+00E9coupe V5
10
503.292972
20
-165.271867
11
503.031927
21
-166.112808
0
LINE
8
D_U+00E9coupe V5
10
503.031927
20
-166.112808
11
502.618873
21
-166.873799
0
LINE
8
D_U+00E9coupe V5
10
502.618873
20
-166.873799
11
502.071824
21
-167.536825
0
LINE
8
D_U+00E9coupe V5
10
502.071824
20
-167.536825
11
501.408796
21
-168.083871
0
LINE
8
D_U+00E9coupe V5
10
501.408796
20
-168.083871
11
500.647806
21
-168.496922
0
LINE
8
D_U+00E9coupe V5
10
500.647806
20
-168.496922
11
499.806868
21
-168.757963
0
LINE
8
D_U+00E9coupe V5
10
499.806868
20
-168.757963
11
498.904000
21
-168.848980
0
LINE
8
D_U+00E9coupe V5
10
498.904000
20
-168.848980
11
498.001123
21
-168.757963
0
LINE
8
D_U+00E9coupe V5
10
498.001123
20
-168.757963
11
497.160182
21
-168.496922
0
LINE
8
D_U+00E9coupe V5
10
497.160182
20
-168.496922
11
496.399191
21
-168.083871
0
LINE
8
D_U+00E9coupe V5
10
496.399191
20
-168.083871
11
495.736165
21
-167.536825
0
LINE
8
D_U+00E9coupe V5
10
495.736165
20
-167.536825
11
495.189119
21
-166.873799
0
LINE
8
D_U+00E9coupe V5
10
495.189119
20
-166.873799
11
494.776068
21
-166.112808
0
LINE
8
D_U+00E9coupe V5
10
494.776068
20
-166.112808
11
494.515027
21
-165.271867
0
LINE
8
D_U+00E9coupe V5
10
494.515027
20
-165.271867
11
494.424010
21
-164.368990
0
LINE
8
D_U+00E9coupe V5
10
494.424010
20
-164.368990
11
494.515027
21
-163.466122
0
LINE
8
D_U+00E9coupe V5
10
494.515027
20
-163.466122
11
494.776068
21
-162.625184
0
LINE
8
D_U+00E9coupe V5
10
494.776068
20
-162.625184
11
495.189119
21
-161.864194
0
LINE
8
D_U+00E9coupe V5
10
495.189119
20
-161.864194
11
495.736165
21
-161.201166
0
LINE
8
D_U+00E9coupe V5
10
495.736165
20
-161.201166
11
496.399191
21
-160.654117
0
LINE
8
D_U+00E9coupe V5
10
496.399191
20
-160.654117
11
497.160182
21
-160.241063
0
LINE
8
D_U+00E9coupe V5
10
497.160182
20
-160.241063
11
498.001123
21
-159.980018
0
LINE
8
D_U+00E9coupe V5
10
498.001123
20
-159.980018
11
498.904000
21
-159.889000
0
LINE
8
D_U+00E9coupe V5
10
498.904000
20
-159.889000
11
498.904000
21
-159.889000
0
LINE
8
D_U+00E9coupe V5
10
498.904000
20
-159.889000
11
498.904000
21
-159.889000
0
LINE
8
D_U+00E9coupe V5
10
498.904000
20
-245.222000
11
498.001123
21
-245.313017
0
LINE
8
D_U+00E9coupe V5
10
498.001123
20
-245.313017
11
497.160182
21
-245.574059
0
LINE
8
D_U+00E9coupe V5
10
497.160182
20
-245.574059
11
496.399191
21
-245.987111
0
LINE
8
D_U+00E9coupe V5
10
496.399191
20
-245.987111
11
495.736165
21
-246.534159
0
LINE
8
D_U+00E9coupe V5
10
495.736165
20
-246.534159
11
495.189119
21
-247.197188
0
LINE
8
D_U+00E9coupe V5
10
495.189119
20
-247.197188
11
494.776068
21
-247.958184
0
LINE
8
D_U+00E9coupe V5
10
494.776068
20
-247.958184
11
494.515027
21
-248.799133
0
LINE
8
D_U+00E9coupe V5
10
494.515027
20
-248.799133
11
494.424010
21
-249.702020
0
LINE
8
D_U+00E9coupe V5
10
494.424010
20
-249.702020
11
494.515027
21
-250.604888
0
LINE
8
D_U+00E9coupe V5
10
494.515027
20
-250.604888
11
494.776068
21
-251.445826
0
LINE
8
D_U+00E9coupe V5
10
494.776068
20
-251.445826
11
495.189119
21
-252.206816
0
LINE
8
D_U+00E9coupe V5
10
495.189119
20
-252.206816
11
495.736165
21
-252.869844
0
LINE
8
D_U+00E9coupe V5
10
495.736165
20
-252.869844
11
496.399191
21
-253.416893
0
LINE
8
D_U+00E9coupe V5
10
496.399191
20
-253.416893
11
497.160182
21
-253.829947
0
LINE
8
D_U+00E9coupe V5
10
497.160182
20
-253.829947
11
498.001123
21
-254.090992
0
LINE
8
D_U+00E9coupe V5
10
498.001123
20
-254.090992
11
498.904000
21
-254.182010
0
LINE
8
D_U+00E9coupe V5
10
498.904000
20
-254.182010
11
499.806868
21
-254.090992
0
LINE
8
D_U+00E9coupe V5
10
499.806868
20
-254.090992
11
500.647806
21
-253.829947
0
LINE
8
D_U+00E9coupe V5
10
500.647806
20
-253.829947
11
501.408796
21
-253.416893
0
LINE
8
D_U+00E9coupe V5
10
501.408796
20
-253.416893
11
502.071824
21
-252.869844
0
LINE
8
D_U+00E9coupe V5
10
502.071824
20
-252.869844
11
502.618873
21
-252.206816
0
LINE
8
D_U+00E9coupe V5
10
502.618873
20
-252.206816
11
503.031927
21
-251.445826
0
LINE
8
D_U+00E9coupe V5
10
503.031927
20
-251.445826
11
503.292972
21
-250.604888
0
LINE
8
D_U+00E9coupe V5
10
503.292972
20
-250.604888
11
503.383990
21
-249.702020
0
LINE
8
D_U+00E9coupe V5
10
503.383990
20
-249.702020
11
503.292972
21
-248.799133
0
LINE
8
D_U+00E9coupe V5
10
503.292972
20
-248.799133
11
503.031927
21
-247.958184
0
LINE
8
D_U+00E9coupe V5
10
503.031927
20
-247.958184
11
502.618873
21
-247.197188
0
LINE
8
D_U+00E9coupe V5
10
502.618873
20
-247.197188
11
502.071824
21
-246.534159
0
LINE
8
D_U+00E9coupe V5
10
502.071824
20
-246.534159
11
501.408796
21
-245.987111
0
LINE
8
D_U+00E9coupe V5
10
501.408796
20
-245.987111
11
500.647806
21
-245.574059
0
LINE
8
D_U+00E9coupe V5
10
500.647806
20
-245.574059
11
499.806868
21
-245.313017
0
LINE
8
D_U+00E9coupe V5
10
499.806868
20
-245.313017
11
498.904000
21
-245.222000
0
LINE
8
D_U+00E9coupe V5
10
498.904000
20
-245.222000
11
498.904000
21
-245.222000
0
LINE
8
D_U+00E9coupe V5
10
498.904000
20
-245.222000
11
498.904000
21
-245.222000
0
LINE
8
gravure
10
110.501000
20
-299.282000
11
110.266690
21
-299.847690
0
LINE
8
gravure
10
110.266690
20
-299.847690
11
109.700994
21
-300.082015
0
LINE
8
gravure
10
109.700994
20
-300.082015
11
109.135312
21
-299.847690
0
LINE
8
gravure
10
109.135312
20
-299.847690
11
108.900988
21
-299.282000
0
LINE
8
gravure
10
108.900988
20
-299.282000
11
109.135312
21
-298.716310
0
LINE
8
gravure
10
109.135312
20
-298.716310
11
109.700994
21
-298.481985
0
LINE
8
gravure
10
109.700994
20
-298.481985
11
110.266690
21
-298.716310
0
LINE
8
gravure
10
110.266690
20
-298.716310
11
110.501000
21
-299.282000
0
LINE
8
gravure
10
110.501000
20
-299.282000
11
110.501000
21
-299.282000
0
LINE
8
gravure
10
113.167000
20
-301.948000
11
112.932689
21
-302.513700
0
LINE
8
gravure
10
112.932689
20
-302.513700
11
112.366994
21
-302.748015
0
LINE
8
gravure
10
112.366994
20
-302.748015
11
111.801311
21
-302.513700
0
LINE
8
gravure
10
111.801311
20
-302.513700
11
111.566988
21
-301.948000
0
LINE
8
gravure
10
111.566988
20
-301.948000
11
111.801311
21
-301.382310
0
LINE
8
gravure
10
111.801311
20
-301.382310
11
112.366994
21
-301.147985
0
LINE
8
gravure
10
112.366994
20
-301.147985
11
112.932689
21
-301.382310
0
LINE
8
gravure
10
112.932689
20
-301.382310
11
113.167000
21
-301.948000
0
LINE
8
gravure
10
113.167000
20
-301.948000
11
113.167000
21
-301.948000
0
LINE
8
gravure
10
110.501000
20
-304.615000
11
110.266690
21
-305.180700
0
LINE
8
gravure
10
110.266690
20
-305.180700
11
109.700994
21
-305.415015
0
LINE
8
gravure
10
109.700994
20
-305.415015
11
109.135312
21
-305.180700
0
LINE
8
gravure
10
109.135312
20
-305.180700
11
108.900988
21
-304.615000
0
LINE
8
gravure
10
108.900988
20
-304.615000
11
109.135312
21
-304.049310
0
LINE
8
gravure
10
109.135312
20
-304.049310
11
109.700994
21
-303.814985
0
LINE
8
gravure
10
109.700994
20
-303.814985
11
110.266690
21
-304.049310
0
LINE
8
gravure
10
110.266690
20
-304.049310
11
110.501000
21
-304.615000
0
LINE
8
gravure
10
110.501000
20
-304.615000
11
110.501000
21
-304.615000
0
LINE
8
gravure
10
116.581000
20
-299.282000
11
116.346677
21
-299.847690
0
LINE
8
gravure
10
116.346677
20
-299.847690
11
115.780994
21
-300.082015
0
LINE
8
gravure
10
115.780994
20
-300.082015
11
115.215300
21
-299.847690
0
LINE
8
gravure
10
115.215300
20
-299.847690
11
114.980991
21
-299.282000
0
LINE
8
gravure
10
114.980991
20
-299.282000
11
115.215300
21
-298.716310
0
LINE
8
gravure
10
115.215300
20
-298.716310
11
115.780994
21
-298.481985
0
LINE
8
gravure
10
115.780994
20
-298.481985
11
116.346677
21
-298.716310
0
LINE
8
gravure
10
116.346677
20
-298.716310
11
116.581000
21
-299.282000
0
LINE
8
gravure
10
116.581000
20
-299.282000
11
116.581000
21
-299.282000
0
LINE
8
gravure
10
119.247000
20
-299.282000
11
119.012690
21
-299.847690
0
LINE
8
gravure
10
119.012690
20
-299.847690
11
118.446994
21
-300.082015
0
LINE
8
gravure
10
118.446994
20
-300.082015
11
117.881315
21
-299.847690
0
LINE
8
gravure
10
117.881315
20
-299.847690
11
117.646991
21
-299.282000
0
LINE
8
gravure
10
117.646991
20
-299.282000
11
117.881315
21
-298.716310
0
LINE
8
gravure
10
117.881315
20
-298.716310
11
118.446994
21
-298.481985
0
LINE
8
gravure
10
118.446994
20
-298.481985
11
119.012690
21
-298.716310
0
LINE
8
gravure
10
119.012690
20
-298.716310
11
119.247000
21
-299.282000
0
LINE
8
gravure
10
119.247000
20
-299.282000
11
119.247000
21
-299.282000
0
LINE
8
gravure
10
116.581000
20
-301.948000
11
116.346677
21
-302.513700
0
LINE
8
gravure
10
116.346677
20
-302.513700
11
115.780994
21
-302.748015
0
LINE
8
gravure
10
115.780994
20
-302.748015
11
115.215300
21
-302.513700
0
LINE
8
gravure
10
115.215300
20
-302.513700
11
114.980991
21
-301.948000
0
LINE
8
gravure
10
114.980991
20
-301.948000
11
115.215300
21
-301.382310
0
LINE
8
gravure
10
115.215300
20
-301.382310
11
115.780994
21
-301.147985
0
LINE
8
gravure
10
115.780994
20
-301.147985
11
116.346677
21
-301.382310
0
LINE
8
gravure
10
116.346677
20
-301.382310
11
116.581000
21
-301.948000
0
LINE
8
gravure
10
116.581000
20
-301.948000
11
116.581000
21
-301.948000
0
LINE
8
gravure
10
116.581000
20
-304.615000
11
116.346677
21
-305.180700
0
LINE
8
gravure
10
116.346677
20
-305.180700
11
115.780994
21
-305.415015
0
LINE
8
gravure
10
115.780994
20
-305.415015
11
115.215300
21
-305.180700
0
LINE
8
gravure
10
115.215300
20
-305.180700
11
114.980991
21
-304.615000
0
LINE
8
gravure
10
114.980991
20
-304.615000
11
115.215300
21
-304.049310
0
LINE
8
gravure
10
115.215300
20
-304.049310
11
115.780994
21
-303.814985
0
LINE
8
gravure
10
115.780994
20
-303.814985
11
116.346677
21
-304.049310
0
LINE
8
gravure
10
116.346677
20
-304.049310
11
116.581000
21
-304.615000
0
LINE
8
gravure
10
116.581000
20
-304.615000
11
116.581000
21
-304.615000
0
LINE
8
gravure
10
122.661000
20
-299.282000
11
122.426676
21
-299.847690
0
LINE
8
gravure
10
122.426676
20
-299.847690
11
121.860997
21
-300.082015
0
LINE
8
gravure
10
121.860997
20
-300.082015
11
121.295301
21
-299.847690
0
LINE
8
gravure
10
121.295301
20
-299.847690
11
121.060991
21
-299.282000
0
LINE
8
gravure
10
121.060991
20
-299.282000
11
121.295301
21
-298.716310
0
LINE
8
gravure
10
121.295301
20
-298.716310
11
121.860997
21
-298.481985
0
LINE
8
gravure
10
121.860997
20
-298.481985
11
122.426676
21
-298.716310
0
LINE
8
gravure
10
122.426676
20
-298.716310
11
122.661000
21
-299.282000
0
LINE
8
gravure
10
122.661000
20
-299.282000
11
122.661000
21
-299.282000
0
LINE
8
gravure
10
125.327000
20
-301.948000
11
125.092675
21
-302.513700
0
LINE
8
gravure
10
125.092675
20
-302.513700
11
124.526997
21
-302.748015
0
LINE
8
gravure
10
124.526997
20
-302.748015
11
123.961299
21
-302.513700
0
LINE
8
gravure
10
123.961299
20
-302.513700
11
123.726991
21
-301.948000
0
LINE
8
gravure
10
123.726991
20
-301.948000
11
123.961299
21
-301.382310
0
LINE
8
gravure
10
123.961299
20
-301.382310
11
124.526997
21
-301.147985
0
LINE
8
gravure
10
124.526997
20
-301.147985
11
125.092675
21
-301.382310
0
LINE
8
gravure
10
125.092675
20
-301.382310
11
125.327000
21
-301.948000
0
LINE
8
gravure
10
125.327000
20
-301.948000
11
125.327000
21
-301.948000
0
LINE
8
gravure
10
128.741000
20
-299.282000
11
128.506696
21
-299.847690
0
LINE
8
gravure
10
128.506696
20
-299.847690
11
127.941033
21
-300.082015
0
LINE
8
gravure
10
127.941033
20
-300.082015
11
127.375337
21
-299.847690
0
LINE
8
gravure
10
127.375337
20
-299.847690
11
127.141027
21
-299.282000
0
LINE
8
gravure
10
127.141027
20
-299.282000
11
127.375337
21
-298.716310
0
LINE
8
gravure
10
127.375337
20
-298.716310
11
127.941033
21
-298.481985
0
LINE
8
gravure
10
127.941033
20
-298.481985
11
128.506696
21
-298.716310
0
LINE
8
gravure
10
128.506696
20
-298.716310
11
128.741000
21
-299.282000
0
LINE
8
gravure
10
128.741000
20
-299.282000
11
128.741000
21
-299.282000
0
LINE
8
gravure
10
131.407000
20
-299.282000
11
131.172677
21
-299.847690
0
LINE
8
gravure
10
131.172677
20
-299.847690
11
130.606997
21
-300.082015
0
LINE
8
gravure
10
130.606997
20
-300.082015
11
130.041301
21
-299.847690
0
LINE
8
gravure
10
130.041301
20
-299.847690
11
129.806991
21
-299.282000
0
LINE
8
gravure
10
129.806991
20
-299.282000
11
130.041301
21
-298.716310
0
LINE
8
gravure
10
130.041301
20
-298.716310
11
130.606997
21
-298.481985
0
LINE
8
gravure
10
130.606997
20
-298.481985
11
131.172677
21
-298.716310
0
LINE
8
gravure
10
131.172677
20
-298.716310
11
131.407000
21
-299.282000
0
LINE
8
gravure
10
131.407000
20
-299.282000
11
131.407000
21
-299.282000
0
LINE
8
gravure
10
131.407000
20
-301.948000
11
131.172677
21
-302.513700
0
LINE
8
gravure
10
131.172677
20
-302.513700
11
130.606997
21
-302.748015
0
LINE
8
gravure
10
130.606997
20
-302.748015
11
130.041301
21
-302.513700
0
LINE
8
gravure
10
130.041301
20
-302.513700
11
129.806991
21
-301.948000
0
LINE
8
gravure
10
129.806991
20
-301.948000
11
130.041301
21
-301.382310
0
LINE
8
gravure
10
130.041301
20
-301.382310
11
130.606997
21
-301.147985
0
LINE
8
gravure
10
130.606997
20
-301.147985
11
131.172677
21
-301.382310
0
LINE
8
gravure
10
131.172677
20
-301.382310
11
131.407000
21
-301.948000
0
LINE
8
gravure
10
131.407000
20
-301.948000
11
131.407000
21
-301.948000
0
LINE
8
gravure
10
128.741000
20
-304.615000
11
128.506696
21
-305.180700
0
LINE
8
gravure
10
128.506696
20
-305.180700
11
127.941033
21
-305.415015
0
LINE
8
gravure
10
127.941033
20
-305.415015
11
127.375337
21
-305.180700
0
LINE
8
gravure
10
127.375337
20
-305.180700
11
127.141027
21
-304.615000
0
LINE
8
gravure
10
127.141027
20
-304.615000
11
127.375337
21
-304.049310
0
LINE
8
gravure
10
127.375337
20
-304.049310
11
127.941033
21
-303.814985
0
LINE
8
gravure
10
127.941033
20
-303.814985
11
128.506696
21
-304.049310
0
LINE
8
gravure
10
128.506696
20
-304.049310
11
128.741000
21
-304.615000
0
LINE
8
gravure
10
128.741000
20
-304.615000
11
128.741000
21
-304.615000
0
LINE
8
gravure
10
143.567000
20
-299.282000
11
143.332690
21
-299.847690
0
LINE
8
gravure
10
143.332690
20
-299.847690
11
142.766994
21
-300.082015
0
LINE
8
gravure
10
142.766994
20
-300.082015
11
142.201312
21
-299.847690
0
LINE
8
gravure
10
142.201312
20
-299.847690
11
141.966988
21
-299.282000
0
LINE
8
gravure
10
141.966988
20
-299.282000
11
142.201312
21
-298.716310
0
LINE
8
gravure
10
142.201312
20
-298.716310
11
142.766994
21
-298.481985
0
LINE
8
gravure
10
142.766994
20
-298.481985
11
143.332690
21
-298.716310
0
LINE
8
gravure
10
143.332690
20
-298.716310
11
143.567000
21
-299.282000
0
LINE
8
gravure
10
143.567000
20
-299.282000
11
143.567000
21
-299.282000
0
LINE
8
gravure
10
140.901000
20
-301.948000
11
140.666690
21
-302.513700
0
LINE
8
gravure
10
140.666690
20
-302.513700
11
140.100994
21
-302.748015
0
LINE
8
gravure
10
140.100994
20
-302.748015
11
139.535312
21
-302.513700
0
LINE
8
gravure
10
139.535312
20
-302.513700
11
139.300988
21
-301.948000
0
LINE
8
gravure
10
139.300988
20
-301.948000
11
139.535312
21
-301.382310
0
LINE
8
gravure
10
139.535312
20
-301.382310
11
140.100994
21
-301.147985
0
LINE
8
gravure
10
140.100994
20
-301.147985
11
140.666691
21
-301.382310
0
LINE
8
gravure
10
140.666691
20
-301.382310
11
140.901000
21
-301.948000
0
LINE
8
gravure
10
140.901000
20
-301.948000
11
140.901000
21
-301.948000
0
LINE
8
gravure
10
140.901000
20
-304.615000
11
140.666690
21
-305.180700
0
LINE
8
gravure
10
140.666690
20
-305.180700
11
140.100994
21
-305.415015
0
LINE
8
gravure
10
140.100994
20
-305.415015
11
139.535312
21
-305.180700
0
LINE
8
gravure
10
139.535312
20
-305.180700
11
139.300988
21
-304.615000
0
LINE
8
gravure
10
139.300988
20
-304.615000
11
139.535312
21
-304.049310
0
LINE
8
gravure
10
139.535312
20
-304.049310
11
140.100994
21
-303.814985
0
LINE
8
gravure
10
140.100994
20
-303.814985
11
140.666691
21
-304.049310
0
LINE
8
gravure
10
140.666691
20
-304.049310
11
140.901000
21
-304.615000
0
LINE
8
gravure
10
140.901000
20
-304.615000
11
140.901000
21
-304.615000
0
LINE
8
gravure
10
146.981000
20
-299.282000
11
146.746676
21
-299.847690
0
LINE
8
gravure
10
146.746676
20
-299.847690
11
146.180994
21
-300.082015
0
LINE
8
gravure
10
146.180994
20
-300.082015
11
145.615300
21
-299.847690
0
LINE
8
gravure
10
145.615300
20
-299.847690
11
145.380991
21
-299.282000
0
LINE
8
gravure
10
145.380991
20
-299.282000
11
145.615300
21
-298.716310
0
LINE
8
gravure
10
145.615300
20
-298.716310
11
146.180994
21
-298.481985
0
LINE
8
gravure
10
146.180994
20
-298.481985
11
146.746676
21
-298.716310
0
LINE
8
gravure
10
146.746676
20
-298.716310
11
146.981000
21
-299.282000
0
LINE
8
gravure
10
146.981000
20
-299.282000
11
146.981000
21
-299.282000
0
LINE
8
gravure
10
149.647000
20
-301.948000
11
149.412690
21
-302.513700
0
LINE
8
gravure
10
149.412690
20
-302.513700
11
148.846994
21
-302.748015
0
LINE
8
gravure
10
148.846994
20
-302.748015
11
148.281315
21
-302.513700
0
LINE
8
gravure
10
148.281315
20
-302.513700
11
148.046991
21
-301.948000
0
LINE
8
gravure
10
148.046991
20
-301.948000
11
148.281315
21
-301.382310
0
LINE
8
gravure
10
148.281315
20
-301.382310
11
148.846994
21
-301.147985
0
LINE
8
gravure
10
148.846994
20
-301.147985
11
149.412690
21
-301.382310
0
LINE
8
gravure
10
149.412690
20
-301.382310
11
149.647000
21
-301.948000
0
LINE
8
gravure
10
149.647000
20
-301.948000
11
149.647000
21
-301.948000
0
LINE
8
gravure
10
146.981000
20
-304.615000
11
146.746676
21
-305.180700
0
LINE
8
gravure
10
146.746676
20
-305.180700
11
146.180994
21
-305.415015
0
LINE
8
gravure
10
146.180994
20
-305.415015
11
145.615300
21
-305.180700
0
LINE
8
gravure
10
145.615300
20
-305.180700
11
145.380991
21
-304.615000
0
LINE
8
gravure
10
145.380991
20
-304.615000
11
145.615300
21
-304.049310
0
LINE
8
gravure
10
145.615300
20
-304.049310
11
146.180994
21
-303.814985
0
LINE
8
gravure
10
146.180994
20
-303.814985
11
146.746676
21
-304.049310
0
LINE
8
gravure
10
146.746676
20
-304.049310
11
146.981000
21
-304.615000
0
LINE
8
gravure
10
146.981000
20
-304.615000
11
146.981000
21
-304.615000
0
LINE
8
gravure
10
153.061000
20
-299.282000
11
152.826676
21
-299.847690
0
LINE
8
gravure
10
152.826676
20
-299.847690
11
152.260997
21
-300.082015
0
LINE
8
gravure
10
152.260997
20
-300.082015
11
151.695301
21
-299.847690
0
LINE
8
gravure
10
151.695301
20
-299.847690
11
151.460991
21
-299.282000
0
LINE
8
gravure
10
151.460991
20
-299.282000
11
151.695301
21
-298.716310
0
LINE
8
gravure
10
151.695301
20
-298.716310
11
152.260997
21
-298.481985
0
LINE
8
gravure
10
152.260997
20
-298.481985
11
152.826676
21
-298.716310
0
LINE
8
gravure
10
152.826676
20
-298.716310
11
153.061000
21
-299.282000
0
LINE
8
gravure
10
153.061000
20
-299.282000
11
153.061000
21
-299.282000
0
LINE
8
gravure
10
153.061000
20
-304.615000
11
152.826676
21
-305.180700
0
LINE
8
gravure
10
152.826676
20
-305.180700
11
152.260997
21
-305.415015
0
LINE
8
gravure
10
152.260997
20
-305.415015
11
151.695301
21
-305.180700
0
LINE
8
gravure
10
151.695301
20
-305.180700
11
151.460991
21
-304.615000
0
LINE
8
gravure
10
151.460991
20
-304.615000
11
151.695301
21
-304.049310
0
LINE
8
gravure
10
151.695301
20
-304.049310
11
152.260997
21
-303.814985
0
LINE
8
gravure
10
152.260997
20
-303.814985
11
152.826676
21
-304.049310
0
LINE
8
gravure
10
152.826676
20
-304.049310
11
153.061000
21
-304.615000
0
LINE
8
gravure
10
153.061000
20
-304.615000
11
153.061000
21
-304.615000
0
LINE
8
gravure
10
155.727000
20
-304.615000
11
155.492676
21
-305.180700
0
LINE
8
gravure
10
155.492676
20
-305.180700
11
154.926997
21
-305.415015
0
LINE
8
gravure
10
154.926997
20
-305.415015
11
154.361301
21
-305.180700
0
LINE
8
gravure
10
154.361301
20
-305.180700
11
154.126991
21
-304.615000
0
LINE
8
gravure
10
154.126991
20
-304.615000
11
154.361301
21
-304.049310
0
LINE
8
gravure
10
154.361301
20
-304.049310
11
154.926997
21
-303.814985
0
LINE
8
gravure
10
154.926997
20
-303.814985
11
155.492676
21
-304.049310
0
LINE
8
gravure
10
155.492676
20
-304.049310
11
155.727000
21
-304.615000
0
LINE
8
gravure
10
155.727000
20
-304.615000
11
155.727000
21
-304.615000
0
LINE
8
gravure
10
159.141000
20
-299.282000
11
158.906695
21
-299.847690
0
LINE
8
gravure
10
158.906695
20
-299.847690
11
158.341033
21
-300.082015
0
LINE
8
gravure
10
158.341033
20
-300.082015
11
157.775337
21
-299.847690
0
LINE
8
gravure
10
157.775337
20
-299.847690
11
157.541027
21
-299.282000
0
LINE
8
gravure
10
157.541027
20
-299.282000
11
157.775337
21
-298.716310
0
LINE
8
gravure
10
157.775337
20
-298.716310
11
158.341033
21
-298.481985
0
LINE
8
gravure
10
158.341033
20
-298.481985
11
158.906695
21
-298.716310
0
LINE
8
gravure
10
158.906695
20
-298.716310
11
159.141000
21
-299.282000
0
LINE
8
gravure
10
159.141000
20
-299.282000
11
159.141000
21
-299.282000
0
LINE
8
gravure
10
159.141000
20
-301.948000
11
158.906695
21
-302.513700
0
LINE
8
gravure
10
158.906695
20
-302.513700
11
158.341033
21
-302.748015
0
LINE
8
gravure
10
158.341033
20
-302.748015
11
157.775337
21
-302.513700
0
LINE
8
gravure
10
157.775337
20
-302.513700
11
157.541027
21
-301.948000
0
LINE
8
gravure
10
157.541027
20
-301.948000
11
157.775337
21
-301.382310
0
LINE
8
gravure
10
157.775337
20
-301.382310
11
158.341033
21
-301.147985
0
LINE
8
gravure
10
158.341033
20
-301.147985
11
158.906695
21
-301.382310
0
LINE
8
gravure
10
158.906695
20
-301.382310
11
159.141000
21
-301.948000
0
LINE
8
gravure
10
159.141000
20
-301.948000
11
159.141000
21
-301.948000
0
LINE
8
gravure
10
161.807000
20
-301.948000
11
161.572678
21
-302.513700
0
LINE
8
gravure
10
161.572678
20
-302.513700
11
161.006997
21
-302.748015
0
LINE
8
gravure
10
161.006997
20
-302.748015
11
160.441301
21
-302.513700
0
LINE
8
gravure
10
160.441301
20
-302.513700
11
160.206991
21
-301.948000
0
LINE
8
gravure
10
160.206991
20
-301.948000
11
160.441301
21
-301.382310
0
LINE
8
gravure
10
160.441301
20
-301.382310
11
161.006997
21
-301.147985
0
LINE
8
gravure
10
161.006997
20
-301.147985
11
161.572678
21
-301.382310
0
LINE
8
gravure
10
161.572678
20
-301.382310
11
161.807000
21
-301.948000
0
LINE
8
gravure
10
161.807000
20
-301.948000
11
161.807000
21
-301.948000
0
LINE
8
gravure
10
159.141000
20
-304.615000
11
158.906695
21
-305.180700
0
LINE
8
gravure
10
158.906695
20
-305.180700
11
158.341033
21
-305.415015
0
LINE
8
gravure
10
158.341033
20
-305.415015
11
157.775337
21
-305.180700
0
LINE
8
gravure
10
157.775337
20
-305.180700
11
157.541027
21
-304.615000
0
LINE
8
gravure
10
157.541027
20
-304.615000
11
157.775337
21
-304.049310
0
LINE
8
gravure
10
157.775337
20
-304.049310
11
158.341033
21
-303.814985
0
LINE
8
gravure
10
158.341033
20
-303.814985
11
158.906695
21
-304.049310
0
LINE
8
gravure
10
158.906695
20
-304.049310
11
159.141000
21
-304.615000
0
LINE
8
gravure
10
159.141000
20
-304.615000
11
159.141000
21
-304.615000
0
LINE
8
gravure
10
165.221000
20
-299.282000
11
164.986690
21
-299.847690
0
LINE
8
gravure
10
164.986690
20
-299.847690
11
164.420994
21
-300.082015
0
LINE
8
gravure
10
164.420994
20
-300.082015
11
163.855330
21
-299.847690
0
LINE
8
gravure
10
163.855330
20
-299.847690
11
163.621024
21
-299.282000
0
LINE
8
gravure
10
163.621024
20
-299.282000
11
163.855330
21
-298.716310
0
LINE
8
gravure
10
163.855330
20
-298.716310
11
164.420994
21
-298.481985
0
LINE
8
gravure
10
164.420994
20
-298.481985
11
164.986690
21
-298.716310
0
LINE
8
gravure
10
164.986690
20
-298.716310
11
165.221000
21
-299.282000
0
LINE
8
gravure
10
165.221000
20
-299.282000
11
165.221000
21
-299.282000
0
LINE
8
gravure
10
167.887000
20
-299.282000
11
167.652694
21
-299.847690
0
LINE
8
gravure
10
167.652694
20
-299.847690
11
167.087030
21
-300.082015
0
LINE
8
gravure
10
167.087030
20
-300.082015
11
166.521334
21
-299.847690
0
LINE
8
gravure
10
166.521334
20
-299.847690
11
166.287024
21
-299.282000
0
LINE
8
gravure
10
166.287024
20
-299.282000
11
166.521334
21
-298.716310
0
LINE
8
gravure
10
166.521334
20
-298.716310
11
167.087030
21
-298.481985
0
LINE
8
gravure
10
167.087030
20
-298.481985
11
167.652694
21
-298.716310
0
LINE
8
gravure
10
167.652694
20
-298.716310
11
167.887000
21
-299.282000
0
LINE
8
gravure
10
167.887000
20
-299.282000
11
167.887000
21
-299.282000
0
LINE
8
gravure
10
171.301000
20
-299.282000
11
171.066690
21
-299.847690
0
LINE
8
gravure
10
171.066690
20
-299.847690
11
170.500994
21
-300.082015
0
LINE
8
gravure
10
170.500994
20
-300.082015
11
169.935314
21
-299.847690
0
LINE
8
gravure
10
169.935314
20
-299.847690
11
169.700991
21
-299.282000
0
LINE
8
gravure
10
169.700991
20
-299.282000
11
169.935314
21
-298.716310
0
LINE
8
gravure
10
169.935314
20
-298.716310
11
170.500994
21
-298.481985
0
LINE
8
gravure
10
170.500994
20
-298.481985
11
171.066690
21
-298.716310
0
LINE
8
gravure
10
171.066690
20
-298.716310
11
171.301000
21
-299.282000
0
LINE
8
gravure
10
171.301000
20
-299.282000
11
171.301000
21
-299.282000
0
LINE
8
gravure
10
173.967000
20
-301.948000
11
173.732691
21
-302.513700
0
LINE
8
gravure
10
173.732691
20
-302.513700
11
173.166994
21
-302.748015
0
LINE
8
gravure
10
173.166994
20
-302.748015
11
172.601312
21
-302.513700
0
LINE
8
gravure
10
172.601312
20
-302.513700
11
172.366988
21
-301.948000
0
LINE
8
gravure
10
172.366988
20
-301.948000
11
172.601312
21
-301.382310
0
LINE
8
gravure
10
172.601312
20
-301.382310
11
173.166994
21
-301.147985
0
LINE
8
gravure
10
173.166994
20
-301.147985
11
173.732692
21
-301.382310
0
LINE
8
gravure
10
173.732692
20
-301.382310
11
173.967000
21
-301.948000
0
LINE
8
gravure
10
173.967000
20
-301.948000
11
173.967000
21
-301.948000
0
LINE
8
gravure
10
183.461000
20
-299.282000
11
183.226676
21
-299.847690
0
LINE
8
gravure
10
183.226676
20
-299.847690
11
182.660997
21
-300.082015
0
LINE
8
gravure
10
182.660997
20
-300.082015
11
182.095303
21
-299.847690
0
LINE
8
gravure
10
182.095303
20
-299.847690
11
181.860991
21
-299.282000
0
LINE
8
gravure
10
181.860991
20
-299.282000
11
182.095303
21
-298.716310
0
LINE
8
gravure
10
182.095303
20
-298.716310
11
182.660997
21
-298.481985
0
LINE
8
gravure
10
182.660997
20
-298.481985
11
183.226676
21
-298.716310
0
LINE
8
gravure
10
183.226676
20
-298.716310
11
183.461000
21
-299.282000
0
LINE
8
gravure
10
183.461000
20
-299.282000
11
183.461000
21
-299.282000
0
LINE
8
gravure
10
183.461000
20
-301.948000
11
183.226676
21
-302.513700
0
LINE
8
gravure
10
183.226676
20
-302.513700
11
182.660997
21
-302.748015
0
LINE
8
gravure
10
182.660997
20
-302.748015
11
182.095303
21
-302.513700
0
LINE
8
gravure
10
182.095303
20
-302.513700
11
181.860991
21
-301.948000
0
LINE
8
gravure
10
181.860991
20
-301.948000
11
182.095303
21
-301.382310
0
LINE
8
gravure
10
182.095303
20
-301.382310
11
182.660997
21
-301.147985
0
LINE
8
gravure
10
182.660997
20
-301.147985
11
183.226676
21
-301.382310
0
LINE
8
gravure
10
183.226676
20
-301.382310
11
183.461000
21
-301.948000
0
LINE
8
gravure
10
183.461000
20
-301.948000
11
183.461000
21
-301.948000
0
LINE
8
gravure
10
195.621000
20
-299.282000
11
195.386690
21
-299.847690
0
LINE
8
gravure
10
195.386690
20
-299.847690
11
194.820994
21
-300.082015
0
LINE
8
gravure
10
194.820994
20
-300.082015
11
194.255334
21
-299.847690
0
LINE
8
gravure
10
194.255334
20
-299.847690
11
194.021027
21
-299.282000
0
LINE
8
gravure
10
194.021027
20
-299.282000
11
194.255334
21
-298.716310
0
LINE
8
gravure
10
194.255334
20
-298.716310
11
194.820994
21
-298.481985
0
LINE
8
gravure
10
194.820994
20
-298.481985
11
195.386690
21
-298.716310
0
LINE
8
gravure
10
195.386690
20
-298.716310
11
195.621000
21
-299.282000
0
LINE
8
gravure
10
195.621000
20
-299.282000
11
195.621000
21
-299.282000
0
LINE
8
gravure
10
204.367000
20
-299.282000
11
204.132690
21
-299.847690
0
LINE
8
gravure
10
204.132690
20
-299.847690
11
203.566994
21
-300.082015
0
LINE
8
gravure
10
203.566994
20
-300.082015
11
203.001313
21
-299.847690
0
LINE
8
gravure
10
203.001313
20
-299.847690
11
202.766988
21
-299.282000
0
LINE
8
gravure
10
202.766988
20
-299.282000
11
203.001313
21
-298.716310
0
LINE
8
gravure
10
203.001313
20
-298.716310
11
203.566994
21
-298.481985
0
LINE
8
gravure
10
203.566994
20
-298.481985
11
204.132690
21
-298.716310
0
LINE
8
gravure
10
204.132690
20
-298.716310
11
204.367000
21
-299.282000
0
LINE
8
gravure
10
204.367000
20
-299.282000
11
204.367000
21
-299.282000
0
LINE
8
gravure
10
201.701000
20
-301.948000
11
201.466690
21
-302.513700
0
LINE
8
gravure
10
201.466690
20
-302.513700
11
200.900994
21
-302.748015
0
LINE
8
gravure
10
200.900994
20
-302.748015
11
200.335313
21
-302.513700
0
LINE
8
gravure
10
200.335313
20
-302.513700
11
200.100988
21
-301.948000
0
LINE
8
gravure
10
200.100988
20
-301.948000
11
200.335313
21
-301.382310
0
LINE
8
gravure
10
200.335313
20
-301.382310
11
200.900994
21
-301.147985
0
LINE
8
gravure
10
200.900994
20
-301.147985
11
201.466690
21
-301.382310
0
LINE
8
gravure
10
201.466690
20
-301.382310
11
201.701000
21
-301.948000
0
LINE
8
gravure
10
201.701000
20
-301.948000
11
201.701000
21
-301.948000
0
LINE
8
gravure
10
207.781000
20
-299.282000
11
207.546676
21
-299.847690
0
LINE
8
gravure
10
207.546676
20
-299.847690
11
206.980994
21
-300.082015
0
LINE
8
gravure
10
206.980994
20
-300.082015
11
206.415317
21
-299.847690
0
LINE
8
gravure
10
206.415317
20
-299.847690
11
206.180991
21
-299.282000
0
LINE
8
gravure
10
206.180991
20
-299.282000
11
206.415317
21
-298.716310
0
LINE
8
gravure
10
206.415317
20
-298.716310
11
206.980994
21
-298.481985
0
LINE
8
gravure
10
206.980994
20
-298.481985
11
207.546676
21
-298.716310
0
LINE
8
gravure
10
207.546676
20
-298.716310
11
207.781000
21
-299.282000
0
LINE
8
gravure
10
207.781000
20
-299.282000
11
207.781000
21
-299.282000
0
LINE
8
gravure
10
207.781000
20
-301.948000
11
207.546676
21
-302.513700
0
LINE
8
gravure
10
207.546676
20
-302.513700
11
206.980994
21
-302.748015
0
LINE
8
gravure
10
206.980994
20
-302.748015
11
206.415317
21
-302.513700
0
LINE
8
gravure
10
206.415317
20
-302.513700
11
206.180991
21
-301.948000
0
LINE
8
gravure
10
206.180991
20
-301.948000
11
206.415317
21
-301.382310
0
LINE
8
gravure
10
206.415317
20
-301.382310
11
206.980994
21
-301.147985
0
LINE
8
gravure
10
206.980994
20
-301.147985
11
207.546676
21
-301.382310
0
LINE
8
gravure
10
207.546676
20
-301.382310
11
207.781000
21
-301.948000
0
LINE
8
gravure
10
207.781000
20
-301.948000
11
207.781000
21
-301.948000
0
LINE
8
gravure
10
207.781000
20
-304.615000
11
207.546676
21
-305.180700
0
LINE
8
gravure
10
207.546676
20
-305.180700
11
206.980994
21
-305.415015
0
LINE
8
gravure
10
206.980994
20
-305.415015
11
206.415317
21
-305.180700
0
LINE
8
gravure
10
206.415317
20
-305.180700
11
206.180991
21
-304.615000
0
LINE
8
gravure
10
206.180991
20
-304.615000
11
206.415317
21
-304.049310
0
LINE
8
gravure
10
206.415317
20
-304.049310
11
206.980994
21
-303.814985
0
LINE
8
gravure
10
206.980994
20
-303.814985
11
207.546676
21
-304.049310
0
LINE
8
gravure
10
207.546676
20
-304.049310
11
207.781000
21
-304.615000
0
LINE
8
gravure
10
207.781000
20
-304.615000
11
207.781000
21
-304.615000
0
LINE
8
gravure
10
213.861000
20
-299.282000
11
213.626676
21
-299.847690
0
LINE
8
gravure
10
213.626676
20
-299.847690
11
213.060997
21
-300.082015
0
LINE
8
gravure
10
213.060997
20
-300.082015
11
212.495301
21
-299.847690
0
LINE
8
gravure
10
212.495301
20
-299.847690
11
212.260991
21
-299.282000
0
LINE
8
gravure
10
212.260991
20
-299.282000
11
212.495301
21
-298.716310
0
LINE
8
gravure
10
212.495301
20
-298.716310
11
213.060997
21
-298.481985
0
LINE
8
gravure
10
213.060997
20
-298.481985
11
213.626676
21
-298.716310
0
LINE
8
gravure
10
213.626676
20
-298.716310
11
213.861000
21
-299.282000
0
LINE
8
gravure
10
213.861000
20
-299.282000
11
213.861000
21
-299.282000
0
LINE
8
gravure
10
213.861000
20
-301.948000
11
213.626676
21
-302.513700
0
LINE
8
gravure
10
213.626676
20
-302.513700
11
213.060997
21
-302.748015
0
LINE
8
gravure
10
213.060997
20
-302.748015
11
212.495301
21
-302.513700
0
LINE
8
gravure
10
212.495301
20
-302.513700
11
212.260991
21
-301.948000
0
LINE
8
gravure
10
212.260991
20
-301.948000
11
212.495301
21
-301.382310
0
LINE
8
gravure
10
212.495301
20
-301.382310
11
213.060997
21
-301.147985
0
LINE
8
gravure
10
213.060997
20
-301.147985
11
213.626676
21
-301.382310
0
LINE
8
gravure
10
213.626676
20
-301.382310
11
213.861000
21
-301.948000
0
LINE
8
gravure
10
213.861000
20
-301.948000
11
213.861000
21
-301.948000
0
LINE
8
gravure
10
213.861000
20
-304.615000
11
213.626676
21
-305.180700
0
LINE
8
gravure
10
213.626676
20
-305.180700
11
213.060997
21
-305.415015
0
LINE
8
gravure
10
213.060997
20
-305.415015
11
212.495301
21
-305.180700
0
LINE
8
gravure
10
212.495301
20
-305.180700
11
212.260991
21
-304.615000
0
LINE
8
gravure
10
212.260991
20
-304.615000
11
212.495301
21
-304.049310
0
LINE
8
gravure
10
212.495301
20
-304.049310
11
213.060997
21
-303.814985
0
LINE
8
gravure
10
213.060997
20
-303.814985
11
213.626676
21
-304.049310
0
LINE
8
gravure
10
213.626676
20
-304.049310
11
213.861000
21
-304.615000
0
LINE
8
gravure
10
213.861000
20
-304.615000
11
213.861000
21
-304.615000
0
LINE
8
gravure
10
219.940000
20
-299.282000
11
219.705693
21
-299.847690
0
LINE
8
gravure
10
219.705693
20
-299.847690
11
219.140028
21
-300.082015
0
LINE
8
gravure
10
219.140028
20
-300.082015
11
218.574332
21
-299.847690
0
LINE
8
gravure
10
218.574332
20
-299.847690
11
218.340022
21
-299.282000
0
LINE
8
gravure
10
218.340022
20
-299.282000
11
218.574332
21
-298.716310
0
LINE
8
gravure
10
218.574332
20
-298.716310
11
219.140028
21
-298.481985
0
LINE
8
gravure
10
219.140028
20
-298.481985
11
219.705693
21
-298.716310
0
LINE
8
gravure
10
219.705693
20
-298.716310
11
219.940000
21
-299.282000
0
LINE
8
gravure
10
219.940000
20
-299.282000
11
219.940000
21
-299.282000
0
LINE
8
gravure
10
222.607000
20
-301.948000
11
222.372676
21
-302.513700
0
LINE
8
gravure
10
222.372676
20
-302.513700
11
221.806994
21
-302.748015
0
LINE
8
gravure
10
221.806994
20
-302.748015
11
221.241298
21
-302.513700
0
LINE
8
gravure
10
221.241298
20
-302.513700
11
221.006988
21
-301.948000
0
LINE
8
gravure
10
221.006988
20
-301.948000
11
221.241298
21
-301.382310
0
LINE
8
gravure
10
221.241298
20
-301.382310
11
221.806994
21
-301.147985
0
LINE
8
gravure
10
221.806994
20
-301.147985
11
222.372676
21
-301.382310
0
LINE
8
gravure
10
222.372676
20
-301.382310
11
222.607000
21
-301.948000
0
LINE
8
gravure
10
222.607000
20
-301.948000
11
222.607000
21
-301.948000
0
LINE
8
gravure
10
232.101000
20
-299.282000
11
231.866687
21
-299.847690
0
LINE
8
gravure
10
231.866687
20
-299.847690
11
231.300994
21
-300.082015
0
LINE
8
gravure
10
231.300994
20
-300.082015
11
230.735313
21
-299.847690
0
LINE
8
gravure
10
230.735313
20
-299.847690
11
230.500991
21
-299.282000
0
LINE
8
gravure
10
230.500991
20
-299.282000
11
230.735313
21
-298.716310
0
LINE
8
gravure
10
230.735313
20
-298.716310
11
231.300994
21
-298.481985
0
LINE
8
gravure
10
231.300994
20
-298.481985
11
231.866687
21
-298.716310
0
LINE
8
gravure
10
231.866687
20
-298.716310
11
232.101000
21
-299.282000
0
LINE
8
gravure
10
232.101000
20
-299.282000
11
232.101000
21
-299.282000
0
LINE
8
gravure
10
234.767000
20
-301.948000
11
234.532690
21
-302.513700
0
LINE
8
gravure
10
234.532690
20
-302.513700
11
233.966994
21
-302.748015
0
LINE
8
gravure
10
233.966994
20
-302.748015
11
233.401333
21
-302.513700
0
LINE
8
gravure
10
233.401333
20
-302.513700
11
233.167027
21
-301.948000
0
LINE
8
gravure
10
233.167027
20
-301.948000
11
233.401332
21
-301.382310
0
LINE
8
gravure
10
233.401332
20
-301.382310
11
233.966994
21
-301.147985
0
LINE
8
gravure
10
233.966994
20
-301.147985
11
234.532690
21
-301.382310
0
LINE
8
gravure
10
234.532690
20
-301.382310
11
234.767000
21
-301.948000
0
LINE
8
gravure
10
234.767000
20
-301.948000
11
234.767000
21
-301.948000
0
LINE
8
gravure
10
238.180000
20
-299.282000
11
237.945690
21
-299.847690
0
LINE
8
gravure
10
237.945690
20
-299.847690
11
237.379997
21
-300.082015
0
LINE
8
gravure
10
237.379997
20
-300.082015
11
236.814315
21
-299.847690
0
LINE
8
gravure
10
236.814315
20
-299.847690
11
236.579991
21
-299.282000
0
LINE
8
gravure
10
236.579991
20
-299.282000
11
236.814315
21
-298.716310
0
LINE
8
gravure
10
236.814315
20
-298.716310
11
237.379997
21
-298.481985
0
LINE
8
gravure
10
237.379997
20
-298.481985
11
237.945690
21
-298.716310
0
LINE
8
gravure
10
237.945690
20
-298.716310
11
238.180000
21
-299.282000
0
LINE
8
gravure
10
238.180000
20
-299.282000
11
238.180000
21
-299.282000
0
LINE
8
gravure
10
240.847000
20
-299.282000
11
240.612690
21
-299.847690
0
LINE
8
gravure
10
240.612690
20
-299.847690
11
240.046997
21
-300.082015
0
LINE
8
gravure
10
240.046997
20
-300.082015
11
239.481318
21
-299.847690
0
LINE
8
gravure
10
239.481318
20
-299.847690
11
239.246991
21
-299.282000
0
LINE
8
gravure
10
239.246991
20
-299.282000
11
239.481318
21
-298.716310
0
LINE
8
gravure
10
239.481318
20
-298.716310
11
240.046997
21
-298.481985
0
LINE
8
gravure
10
240.046997
20
-298.481985
11
240.612690
21
-298.716310
0
LINE
8
gravure
10
240.612690
20
-298.716310
11
240.847000
21
-299.282000
0
LINE
8
gravure
10
240.847000
20
-299.282000
11
240.847000
21
-299.282000
0
LINE
8
gravure
10
238.180000
20
-304.615000
11
237.945690
21
-305.180700
0
LINE
8
gravure
10
237.945690
20
-305.180700
11
237.379997
21
-305.415015
0
LINE
8
gravure
10
237.379997
20
-305.415015
11
236.814315
21
-305.180700
0
LINE
8
gravure
10
236.814315
20
-305.180700
11
236.579991
21
-304.615000
0
LINE
8
gravure
10
236.579991
20
-304.615000
11
236.814315
21
-304.049310
0
LINE
8
gravure
10
236.814315
20
-304.049310
11
237.379997
21
-303.814985
0
LINE
8
gravure
10
237.379997
20
-303.814985
11
237.945690
21
-304.049310
0
LINE
8
gravure
10
237.945690
20
-304.049310
11
238.180000
21
-304.615000
0
LINE
8
gravure
10
238.180000
20
-304.615000
11
238.180000
21
-304.615000
0
LINE
8
gravure
10
244.261000
20
-299.282000
11
244.026673
21
-299.847690
0
LINE
8
gravure
10
244.026673
20
-299.847690
11
243.460994
21
-300.082015
0
LINE
8
gravure
10
243.460994
20
-300.082015
11
242.895296
21
-299.847690
0
LINE
8
gravure
10
242.895296
20
-299.847690
11
242.660988
21
-299.282000
0
LINE
8
gravure
10
242.660988
20
-299.282000
11
242.895297
21
-298.716310
0
LINE
8
gravure
10
242.895297
20
-298.716310
11
243.460994
21
-298.481985
0
LINE
8
gravure
10
243.460994
20
-298.481985
11
244.026673
21
-298.716310
0
LINE
8
gravure
10
244.026673
20
-298.716310
11
244.261000
21
-299.282000
0
LINE
8
gravure
10
244.261000
20
-299.282000
11
244.261000
21
-299.282000
0
LINE
8
gravure
10
244.261000
20
-301.948000
11
244.026673
21
-302.513700
0
LINE
8
gravure
10
244.026673
20
-302.513700
11
243.460994
21
-302.748015
0
LINE
8
gravure
10
243.460994
20
-302.748015
11
242.895296
21
-302.513700
0
LINE
8
gravure
10
242.895296
20
-302.513700
11
242.660988
21
-301.948000
0
LINE
8
gravure
10
242.660988
20
-301.948000
11
242.895297
21
-301.382310
0
LINE
8
gravure
10
242.895297
20
-301.382310
11
243.460994
21
-301.147985
0
LINE
8
gravure
10
243.460994
20
-301.147985
11
244.026673
21
-301.382310
0
LINE
8
gravure
10
244.026673
20
-301.382310
11
244.261000
21
-301.948000
0
LINE
8
gravure
10
244.261000
20
-301.948000
11
244.261000
21
-301.948000
0
LINE
8
gravure
10
250.340000
20
-299.282000
11
250.105695
21
-299.847690
0
LINE
8
gravure
10
250.105695
20
-299.847690
11
249.540033
21
-300.082015
0
LINE
8
gravure
10
249.540033
20
-300.082015
11
248.974337
21
-299.847690
0
LINE
8
gravure
10
248.974337
20
-299.847690
11
248.740027
21
-299.282000
0
LINE
8
gravure
10
248.740027
20
-299.282000
11
248.974337
21
-298.716310
0
LINE
8
gravure
10
248.974337
20
-298.716310
11
249.540033
21
-298.481985
0
LINE
8
gravure
10
249.540033
20
-298.481985
11
250.105695
21
-298.716310
0
LINE
8
gravure
10
250.105695
20
-298.716310
11
250.340000
21
-299.282000
0
LINE
8
gravure
10
250.340000
20
-299.282000
11
250.340000
21
-299.282000
0
LINE
8
gravure
10
253.007000
20
-301.948000
11
252.772676
21
-302.513700
0
LINE
8
gravure
10
252.772676
20
-302.513700
11
252.206994
21
-302.748015
0
LINE
8
gravure
10
252.206994
20
-302.748015
11
251.641298
21
-302.513700
0
LINE
8
gravure
10
251.641298
20
-302.513700
11
251.406988
21
-301.948000
0
LINE
8
gravure
10
251.406988
20
-301.948000
11
251.641298
21
-301.382310
0
LINE
8
gravure
10
251.641298
20
-301.382310
11
252.206994
21
-301.147985
0
LINE
8
gravure
10
252.206994
20
-301.147985
11
252.772676
21
-301.382310
0
LINE
8
gravure
10
252.772676
20
-301.382310
11
253.007000
21
-301.948000
0
LINE
8
gravure
10
253.007000
20
-301.948000
11
253.007000
21
-301.948000
0
LINE
8
gravure
10
250.340000
20
-304.615000
11
250.105695
21
-305.180700
0
LINE
8
gravure
10
250.105695
20
-305.180700
11
249.540033
21
-305.415015
0
LINE
8
gravure
10
249.540033
20
-305.415015
11
248.974337
21
-305.180700
0
LINE
8
gravure
10
248.974337
20
-305.180700
11
248.740027
21
-304.615000
0
LINE
8
gravure
10
248.740027
20
-304.615000
11
248.974337
21
-304.049310
0
LINE
8
gravure
10
248.974337
20
-304.049310
11
249.540033
21
-303.814985
0
LINE
8
gravure
10
249.540033
20
-303.814985
11
250.105695
21
-304.049310
0
LINE
8
gravure
10
250.105695
20
-304.049310
11
250.340000
21
-304.615000
0
LINE
8
gravure
10
250.340000
20
-304.615000
11
250.340000
21
-304.615000
0
LINE
8
gravure
10
259.087000
20
-299.282000
11
258.852694
21
-299.847690
0
LINE
8
gravure
10
258.852694
20
-299.847690
11
258.287030
21
-300.082015
0
LINE
8
gravure
10
258.287030
20
-300.082015
11
257.721336
21
-299.847690
0
LINE
8
gravure
10
257.721336
20
-299.847690
11
257.487027
21
-299.282000
0
LINE
8
gravure
10
257.487027
20
-299.282000
11
257.721336
21
-298.716310
0
LINE
8
gravure
10
257.721336
20
-298.716310
11
258.287030
21
-298.481985
0
LINE
8
gravure
10
258.287030
20
-298.481985
11
258.852694
21
-298.716310
0
LINE
8
gravure
10
258.852694
20
-298.716310
11
259.087000
21
-299.282000
0
LINE
8
gravure
10
259.087000
20
-299.282000
11
259.087000
21
-299.282000
0
LINE
8
gravure
10
256.420000
20
-301.948000
11
256.185690
21
-302.513700
0
LINE
8
gravure
10
256.185690
20
-302.513700
11
255.619994
21
-302.748015
0
LINE
8
gravure
10
255.619994
20
-302.748015
11
255.054335
21
-302.513700
0
LINE
8
gravure
10
255.054335
20
-302.513700
11
254.820033
21
-301.948000
0
LINE
8
gravure
10
254.820033
20
-301.948000
11
255.054335
21
-301.382310
0
LINE
8
gravure
10
255.054335
20
-301.382310
11
255.619994
21
-301.147985
0
LINE
8
gravure
10
255.619994
20
-301.147985
11
256.185690
21
-301.382310
0
LINE
8
gravure
10
256.185690
20
-301.382310
11
256.420000
21
-301.948000
0
LINE
8
gravure
10
256.420000
20
-301.948000
11
256.420000
21
-301.948000
0
LINE
8
gravure
10
256.420000
20
-304.615000
11
256.185690
21
-305.180700
0
LINE
8
gravure
10
256.185690
20
-305.180700
11
255.619994
21
-305.415015
0
LINE
8
gravure
10
255.619994
20
-305.415015
11
255.054335
21
-305.180700
0
LINE
8
gravure
10
255.054335
20
-305.180700
11
254.820033
21
-304.615000
0
LINE
8
gravure
10
254.820033
20
-304.615000
11
255.054335
21
-304.049310
0
LINE
8
gravure
10
255.054335
20
-304.049310
11
255.619994
21
-303.814985
0
LINE
8
gravure
10
255.619994
20
-303.814985
11
256.185690
21
-304.049310
0
LINE
8
gravure
10
256.185690
20
-304.049310
11
256.420000
21
-304.615000
0
LINE
8
gravure
10
256.420000
20
-304.615000
11
256.420000
21
-304.615000
0
LINE
8
gravure
10
265.167000
20
-299.282000
11
264.932688
21
-299.847690
0
LINE
8
gravure
10
264.932688
20
-299.847690
11
264.366997
21
-300.082015
0
LINE
8
gravure
10
264.366997
20
-300.082015
11
263.801328
21
-299.847690
0
LINE
8
gravure
10
263.801328
20
-299.847690
11
263.567022
21
-299.282000
0
LINE
8
gravure
10
263.567022
20
-299.282000
11
263.801328
21
-298.716310
0
LINE
8
gravure
10
263.801328
20
-298.716310
11
264.366997
21
-298.481985
0
LINE
8
gravure
10
264.366997
20
-298.481985
11
264.932688
21
-298.716310
0
LINE
8
gravure
10
264.932688
20
-298.716310
11
265.167000
21
-299.282000
0
LINE
8
gravure
10
265.167000
20
-299.282000
11
265.167000
21
-299.282000
0
LINE
8
gravure
10
262.500000
20
-301.948000
11
262.265690
21
-302.513700
0
LINE
8
gravure
10
262.265690
20
-302.513700
11
261.699994
21
-302.748015
0
LINE
8
gravure
10
261.699994
20
-302.748015
11
261.134315
21
-302.513700
0
LINE
8
gravure
10
261.134315
20
-302.513700
11
260.899991
21
-301.948000
0
LINE
8
gravure
10
260.899991
20
-301.948000
11
261.134315
21
-301.382310
0
LINE
8
gravure
10
261.134315
20
-301.382310
11
261.699994
21
-301.147985
0
LINE
8
gravure
10
261.699994
20
-301.147985
11
262.265690
21
-301.382310
0
LINE
8
gravure
10
262.265690
20
-301.382310
11
262.500000
21
-301.948000
0
LINE
8
gravure
10
262.500000
20
-301.948000
11
262.500000
21
-301.948000
0
LINE
8
gravure
10
262.500000
20
-304.615000
11
262.265690
21
-305.180700
0
LINE
8
gravure
10
262.265690
20
-305.180700
11
261.699994
21
-305.415015
0
LINE
8
gravure
10
261.699994
20
-305.415015
11
261.134315
21
-305.180700
0
LINE
8
gravure
10
261.134315
20
-305.180700
11
260.899991
21
-304.615000
0
LINE
8
gravure
10
260.899991
20
-304.615000
11
261.134315
21
-304.049310
0
LINE
8
gravure
10
261.134315
20
-304.049310
11
261.699994
21
-303.814985
0
LINE
8
gravure
10
261.699994
20
-303.814985
11
262.265690
21
-304.049310
0
LINE
8
gravure
10
262.265690
20
-304.049310
11
262.500000
21
-304.615000
0
LINE
8
gravure
10
262.500000
20
-304.615000
11
262.500000
21
-304.615000
0
LINE
8
gravure
10
268.580000
20
-299.282000
11
268.345691
21
-299.847690
0
LINE
8
gravure
10
268.345691
20
-299.847690
11
267.779997
21
-300.082015
0
LINE
8
gravure
10
267.779997
20
-300.082015
11
267.214315
21
-299.847690
0
LINE
8
gravure
10
267.214315
20
-299.847690
11
266.979991
21
-299.282000
0
LINE
8
gravure
10
266.979991
20
-299.282000
11
267.214315
21
-298.716310
0
LINE
8
gravure
10
267.214315
20
-298.716310
11
267.779997
21
-298.481985
0
LINE
8
gravure
10
267.779997
20
-298.481985
11
268.345691
21
-298.716310
0
LINE
8
gravure
10
268.345691
20
-298.716310
11
268.580000
21
-299.282000
0
LINE
8
gravure
10
268.580000
20
-299.282000
11
268.580000
21
-299.282000
0
LINE
8
gravure
10
271.247000
20
-301.948000
11
271.012691
21
-302.513700
0
LINE
8
gravure
10
271.012691
20
-302.513700
11
270.446997
21
-302.748015
0
LINE
8
gravure
10
270.446997
20
-302.748015
11
269.881315
21
-302.513700
0
LINE
8
gravure
10
269.881315
20
-302.513700
11
269.646991
21
-301.948000
0
LINE
8
gravure
10
269.646991
20
-301.948000
11
269.881315
21
-301.382310
0
LINE
8
gravure
10
269.881315
20
-301.382310
11
270.446997
21
-301.147985
0
LINE
8
gravure
10
270.446997
20
-301.147985
11
271.012691
21
-301.382310
0
LINE
8
gravure
10
271.012691
20
-301.382310
11
271.247000
21
-301.948000
0
LINE
8
gravure
10
271.247000
20
-301.948000
11
271.247000
21
-301.948000
0
LINE
8
gravure
10
274.660000
20
-299.282000
11
274.425677
21
-299.847690
0
LINE
8
gravure
10
274.425677
20
-299.847690
11
273.859997
21
-300.082015
0
LINE
8
gravure
10
273.859997
20
-300.082015
11
273.294301
21
-299.847690
0
LINE
8
gravure
10
273.294301
20
-299.847690
11
273.059991
21
-299.282000
0
LINE
8
gravure
10
273.059991
20
-299.282000
11
273.294301
21
-298.716310
0
LINE
8
gravure
10
273.294301
20
-298.716310
11
273.859997
21
-298.481985
0
LINE
8
gravure
10
273.859997
20
-298.481985
11
274.425677
21
-298.716310
0
LINE
8
gravure
10
274.425677
20
-298.716310
11
274.660000
21
-299.282000
0
LINE
8
gravure
10
274.660000
20
-299.282000
11
274.660000
21
-299.282000
0
LINE
8
gravure
10
274.660000
20
-301.948000
11
274.425677
21
-302.513700
0
LINE
8
gravure
10
274.425677
20
-302.513700
11
273.859997
21
-302.748015
0
LINE
8
gravure
10
273.859997
20
-302.748015
11
273.294301
21
-302.513700
0
LINE
8
gravure
10
273.294301
20
-302.513700
11
273.059991
21
-301.948000
0
LINE
8
gravure
10
273.059991
20
-301.948000
11
273.294301
21
-301.382310
0
LINE
8
gravure
10
273.294301
20
-301.382310
11
273.859997
21
-301.147985
0
LINE
8
gravure
10
273.859997
20
-301.147985
11
274.425677
21
-301.382310
0
LINE
8
gravure
10
274.425677
20
-301.382310
11
274.660000
21
-301.948000
0
LINE
8
gravure
10
274.660000
20
-301.948000
11
274.660000
21
-301.948000
0
LINE
8
gravure
10
277.327000
20
-301.948000
11
277.092672
21
-302.513700
0
LINE
8
gravure
10
277.092672
20
-302.513700
11
276.526994
21
-302.748015
0
LINE
8
gravure
10
276.526994
20
-302.748015
11
275.961298
21
-302.513700
0
LINE
8
gravure
10
275.961298
20
-302.513700
11
275.726991
21
-301.948000
0
LINE
8
gravure
10
275.726991
20
-301.948000
11
275.961298
21
-301.382310
0
LINE
8
gravure
10
275.961298
20
-301.382310
11
276.526994
21
-301.147985
0
LINE
8
gravure
10
276.526994
20
-301.147985
11
277.092673
21
-301.382310
0
LINE
8
gravure
10
277.092673
20
-301.382310
11
277.327000
21
-301.948000
0
LINE
8
gravure
10
277.327000
20
-301.948000
11
277.327000
21
-301.948000
0
LINE
8
gravure
10
274.660000
20
-304.615000
11
274.425677
21
-305.180700
0
LINE
8
gravure
10
274.425677
20
-305.180700
11
273.859997
21
-305.415015
0
LINE
8
gravure
10
273.859997
20
-305.415015
11
273.294301
21
-305.180700
0
LINE
8
gravure
10
273.294301
20
-305.180700
11
273.059991
21
-304.615000
0
LINE
8
gravure
10
273.059991
20
-304.615000
11
273.294301
21
-304.049310
0
LINE
8
gravure
10
273.294301
20
-304.049310
11
273.859997
21
-303.814985
0
LINE
8
gravure
10
273.859997
20
-303.814985
11
274.425677
21
-304.049310
0
LINE
8
gravure
10
274.425677
20
-304.049310
11
274.660000
21
-304.615000
0
LINE
8
gravure
10
274.660000
20
-304.615000
11
274.660000
21
-304.615000
0
LINE
8
gravure
10
189.541000
20
-299.282000
11
189.306695
21
-299.847690
0
LINE
8
gravure
10
189.306695
20
-299.847690
11
188.741033
21
-300.082015
0
LINE
8
gravure
10
188.741033
20
-300.082015
11
188.175337
21
-299.847690
0
LINE
8
gravure
10
188.175337
20
-299.847690
11
187.941027
21
-299.282000
0
LINE
8
gravure
10
187.941027
20
-299.282000
11
188.175337
21
-298.716310
0
LINE
8
gravure
10
188.175337
20
-298.716310
11
188.741033
21
-298.481985
0
LINE
8
gravure
10
188.741033
20
-298.481985
11
189.306695
21
-298.716310
0
LINE
8
gravure
10
189.306695
20
-298.716310
11
189.541000
21
-299.282000
0
LINE
8
gravure
10
189.541000
20
-299.282000
11
189.541000
21
-299.282000
0
LINE
8
gravure
10
189.541000
20
-301.948000
11
189.306695
21
-302.513700
0
LINE
8
gravure
10
189.306695
20
-302.513700
11
188.741033
21
-302.748015
0
LINE
8
gravure
10
188.741033
20
-302.748015
11
188.175337
21
-302.513700
0
LINE
8
gravure
10
188.175337
20
-302.513700
11
187.941027
21
-301.948000
0
LINE
8
gravure
10
187.941027
20
-301.948000
11
188.175337
21
-301.382310
0
LINE
8
gravure
10
188.175337
20
-301.382310
11
188.741033
21
-301.147985
0
LINE
8
gravure
10
188.741033
20
-301.147985
11
189.306695
21
-301.382310
0
LINE
8
gravure
10
189.306695
20
-301.382310
11
189.541000
21
-301.948000
0
LINE
8
gravure
10
189.541000
20
-301.948000
11
189.541000
21
-301.948000
0
LINE
8
gravure
10
192.207000
20
-301.948000
11
191.972676
21
-302.513700
0
LINE
8
gravure
10
191.972676
20
-302.513700
11
191.406994
21
-302.748015
0
LINE
8
gravure
10
191.406994
20
-302.748015
11
190.841298
21
-302.513700
0
LINE
8
gravure
10
190.841298
20
-302.513700
11
190.606988
21
-301.948000
0
LINE
8
gravure
10
190.606988
20
-301.948000
11
190.841298
21
-301.382310
0
LINE
8
gravure
10
190.841298
20
-301.382310
11
191.406994
21
-301.147985
0
LINE
8
gravure
10
191.406994
20
-301.147985
11
191.972676
21
-301.382310
0
LINE
8
gravure
10
191.972676
20
-301.382310
11
192.207000
21
-301.948000
0
LINE
8
gravure
10
192.207000
20
-301.948000
11
192.207000
21
-301.948000
0
LINE
8
gravure
10
189.541000
20
-304.615000
11
189.306695
21
-305.180700
0
LINE
8
gravure
10
189.306695
20
-305.180700
11
188.741033
21
-305.415015
0
LINE
8
gravure
10
188.741033
20
-305.415015
11
188.175337
21
-305.180700
0
LINE
8
gravure
10
188.175337
20
-305.180700
11
187.941027
21
-304.615000
0
LINE
8
gravure
10
187.941027
20
-304.615000
11
188.175337
21
-304.049310
0
LINE
8
gravure
10
188.175337
20
-304.049310
11
188.741033
21
-303.814985
0
LINE
8
gravure
10
188.741033
20
-303.814985
11
189.306695
21
-304.049310
0
LINE
8
gravure
10
189.306695
20
-304.049310
11
189.541000
21
-304.615000
0
LINE
8
gravure
10
189.541000
20
-304.615000
11
189.541000
21
-304.615000
0
LINE
8
gravure
10
295.537000
20
-302.421000
11
295.340319
21
-300.469952
0
LINE
8
gravure
10
295.340319
20
-300.469952
11
294.776228
21
-298.652742
0
LINE
8
gravure
10
294.776228
20
-298.652742
11
293.883655
21
-297.008299
0
LINE
8
gravure
10
293.883655
20
-297.008299
11
292.701530
21
-295.575550
0
LINE
8
gravure
10
292.701530
20
-295.575550
11
291.268781
21
-294.393425
0
LINE
8
gravure
10
291.268781
20
-294.393425
11
289.624338
21
-293.500853
0
LINE
8
gravure
10
289.624338
20
-293.500853
11
287.807127
21
-292.936761
0
LINE
8
gravure
10
287.807127
20
-292.936761
11
285.856080
21
-292.740080
0
LINE
8
gravure
10
285.856080
20
-292.740080
11
100.889080
21
-292.740080
0
LINE
8
gravure
10
100.889080
20
-292.740080
11
98.938034
21
-292.936761
0
LINE
8
gravure
10
98.938034
20
-292.936761
11
97.120827
21
-293.500852
0
LINE
8
gravure
10
97.120827
20
-293.500852
11
95.476388
21
-294.393425
0
LINE
8
gravure
10
95.476388
20
-294.393425
11
94.043645
21
-295.575550
0
LINE
8
gravure
10
94.043645
20
-295.575550
11
92.861526
21
-297.008299
0
LINE
8
gravure
10
92.861526
20
-297.008299
11
91.968958
21
-298.652742
0
LINE
8
gravure
10
91.968958
20
-298.652742
11
91.404870
21
-300.469952
0
LINE
8
gravure
10
91.404870
20
-300.469952
11
91.208190
21
-302.421000
0
LINE
8
gravure
10
91.208190
20
-302.421000
11
91.208190
21
-302.421000
0
LINE
8
gravure
10
91.208190
20
-302.421000
11
91.404870
21
-304.372038
0
LINE
8
gravure
10
91.404870
20
-304.372038
11
91.968958
21
-306.189240
0
LINE
8
gravure
10
91.968958
20
-306.189240
11
92.861526
21
-307.833679
0
LINE
8
gravure
10
92.861526
20
-307.833679
11
94.043645
21
-309.266424
0
LINE
8
gravure
10
94.043645
20
-309.266424
11
95.476388
21
-310.448547
0
LINE
8
gravure
10
95.476388
20
-310.448547
11
97.120827
21
-311.341118
0
LINE
8
gravure
10
97.120827
20
-311.341118
11
98.938034
21
-311.905209
0
LINE
8
gravure
10
98.938034
20
-311.905209
11
100.889080
21
-312.101890
0
LINE
8
gravure
10
100.889080
20
-312.101890
11
285.856080
21
-312.101890
0
LINE
8
gravure
10
285.856080
20
-312.101890
11
287.807127
21
-311.905209
0
LINE
8
gravure
10
287.807127
20
-311.905209
11
289.624337
21
-311.341118
0
LINE
8
gravure
10
289.624337
20
-311.341118
11
291.268781
21
-310.448547
0
LINE
8
gravure
10
291.268781
20
-310.448547
11
292.701530
21
-309.266424
0
LINE
8
gravure
10
292.701530
20
-309.266424
11
293.883655
21
-307.833679
0
LINE
8
gravure
10
293.883655
20
-307.833679
11
294.776227
21
-306.189240
0
LINE
8
gravure
10
294.776227
20
-306.189240
11
295.340319
21
-304.372038
0
LINE
8
gravure
10
295.340319
20
-304.372038
11
295.537000
21
-302.421000
0
LINE
8
gravure
10
295.537000
20
-302.421000
11
295.537000
21
-302.421000
0
LINE
8
gravure
10
295.537000
20
-302.421000
11
295.537000
21
-302.421000
0
LINE
8
gravure
10
295.537000
20
-302.421000
11
295.537000
21
-302.421000
0
LINE
8
gravure
10
441.747000
20
-53.620100
11
442.366054
21
-50.291570
0
LINE
8
gravure
10
442.366054
20
-50.291570
11
442.535472
21
-50.094466
0
LINE
8
gravure
10
442.535472
20
-50.094466
11
444.915792
21
-49.074146
0
LINE
8
gravure
10
444.915792
20
-49.074146
11
445.173150
21
-49.090515
0
LINE
8
gravure
10
445.173150
20
-49.090515
11
447.999970
21
-51.029745
0
LINE
8
gravure
10
447.999970
20
-51.029745
11
448.229924
21
-51.008578
0
LINE
8
gravure
10
448.229924
20
-51.008578
11
450.652064
21
-48.586268
0
LINE
8
gravure
10
450.652064
20
-48.586268
11
450.673231
21
-48.356483
0
LINE
8
gravure
10
450.673231
20
-48.356483
11
448.699371
21
-45.480303
0
LINE
8
gravure
10
448.699371
20
-45.480303
11
448.680744
21
-45.221731
0
LINE
8
gravure
10
448.680744
20
-45.221731
11
449.625313
21
-42.914231
0
LINE
8
gravure
10
449.625313
20
-42.914231
11
449.820074
21
-42.744108
0
LINE
8
gravure
10
449.820074
20
-42.744108
11
453.262844
21
-42.103238
0
LINE
8
gravure
10
453.262844
20
-42.103238
11
453.410587
21
-41.925607
0
LINE
8
gravure
10
453.410587
20
-41.925607
11
453.410587
21
-38.499767
0
LINE
8
gravure
10
453.410587
20
-38.499767
11
453.262957
21
-38.322306
0
LINE
8
gravure
10
453.262957
20
-38.322306
11
449.820077
21
-37.681719
0
LINE
8
gravure
10
449.820077
20
-37.681719
11
449.625428
21
-37.511596
0
LINE
8
gravure
10
449.625428
20
-37.511596
11
448.680887
21
-35.203926
0
LINE
8
gravure
10
448.680887
20
-35.203926
11
448.699514
21
-34.945354
0
LINE
8
gravure
10
448.699514
20
-34.945354
11
450.673374
21
-32.069174
0
LINE
8
gravure
10
450.673374
20
-32.069174
11
450.652207
21
-31.839107
0
LINE
8
gravure
10
450.652207
20
-31.839107
11
448.229927
21
-29.416827
0
LINE
8
gravure
10
448.229927
20
-29.416827
11
447.999860
21
-29.395661
0
LINE
8
gravure
10
447.999860
20
-29.395661
11
445.173150
21
-31.335201
0
LINE
8
gravure
10
445.173150
20
-31.335201
11
444.915792
21
-31.351005
0
LINE
8
gravure
10
444.915792
20
-31.351005
11
442.535472
21
-30.330545
0
LINE
8
gravure
10
442.535472
20
-30.330545
11
442.366054
21
-30.133610
0
LINE
8
gravure
10
442.366054
20
-30.133610
11
441.747000
21
-26.805200
0
LINE
8
gravure
10
441.747000
20
-26.805200
11
441.569257
21
-26.657570
0
LINE
8
gravure
10
441.569257
20
-26.657570
11
438.143367
21
-26.657683
0
LINE
8
gravure
10
438.143367
20
-26.657683
11
437.965652
21
-26.805313
0
LINE
8
gravure
10
437.965652
20
-26.805313
11
437.361443
21
-30.052103
0
LINE
8
gravure
10
437.361443
20
-30.052103
11
437.190783
21
-30.244945
0
LINE
8
gravure
10
437.190783
20
-30.244945
11
434.658773
21
-31.258465
0
LINE
8
gravure
10
434.658773
20
-31.258465
11
434.400201
21
-31.239274
0
LINE
8
gravure
10
434.400201
20
-31.239274
11
431.712661
21
-29.394864
0
LINE
8
gravure
10
431.712661
20
-29.394864
11
431.482340
21
-29.416030
0
LINE
8
gravure
10
431.482340
20
-29.416030
11
429.060200
21
-31.838760
0
LINE
8
gravure
10
429.060200
20
-31.838760
11
429.039033
21
-32.068686
0
LINE
8
gravure
10
429.039033
20
-32.068686
11
430.851013
21
-34.708786
0
LINE
8
gravure
10
430.851013
20
-34.708786
11
430.859762
21
-34.961770
0
LINE
8
gravure
10
430.859762
20
-34.961770
11
430.238224
21
-36.126020
0
LINE
8
gravure
10
430.238224
20
-36.126020
11
430.308554
21
-36.317395
0
LINE
8
gravure
10
430.308554
20
-36.317395
11
436.109004
21
-38.718035
0
LINE
8
gravure
10
436.109004
20
-38.718035
11
436.325863
21
-38.647536
0
LINE
8
gravure
10
436.325863
20
-38.647536
11
436.504425
21
-38.356142
0
LINE
8
gravure
10
436.504425
20
-38.356142
11
436.645480
21
-38.171879
0
LINE
8
gravure
10
436.645480
20
-38.171879
11
437.239500
21
-37.455302
0
LINE
8
gravure
10
437.239500
20
-37.455302
11
437.990692
21
-36.903548
0
LINE
8
gravure
10
437.990692
20
-36.903548
11
438.867106
21
-36.548855
0
LINE
8
gravure
10
438.867106
20
-36.548855
11
439.836790
21
-36.423459
0
LINE
8
gravure
10
439.836790
20
-36.423459
11
440.600341
21
-36.500442
0
LINE
8
gravure
10
440.600341
20
-36.500442
11
441.311503
21
-36.721226
0
LINE
8
gravure
10
441.311503
20
-36.721226
11
442.515734
21
-37.533226
0
LINE
8
gravure
10
442.515734
20
-37.533226
11
443.327630
21
-38.737507
0
LINE
8
gravure
10
443.327630
20
-38.737507
11
443.548374
21
-39.448644
0
LINE
8
gravure
10
443.548374
20
-39.448644
11
443.625340
21
-40.212119
0
LINE
8
gravure
10
443.625340
20
-40.212119
11
443.548374
21
-40.975594
0
LINE
8
gravure
10
443.548374
20
-40.975594
11
443.327630
21
-41.686710
0
LINE
8
gravure
10
443.327630
20
-41.686710
11
442.515734
21
-42.890914
0
LINE
8
gravure
10
442.515734
20
-42.890914
11
441.311503
21
-43.702831
0
LINE
8
gravure
10
441.311503
20
-43.702831
11
440.600341
21
-43.923588
0
LINE
8
gravure
10
440.600341
20
-43.923588
11
439.836790
21
-44.000559
0
LINE
8
gravure
10
439.836790
20
-44.000559
11
438.867106
21
-43.875200
0
LINE
8
gravure
10
438.867106
20
-43.875200
11
437.990691
21
-43.520567
0
LINE
8
gravure
10
437.990691
20
-43.520567
11
437.239498
21
-42.968825
0
LINE
8
gravure
10
437.239498
20
-42.968825
11
436.645480
21
-42.252139
0
LINE
8
gravure
10
436.645480
20
-42.252139
11
436.504256
21
-42.068243
0
LINE
8
gravure
10
436.504256
20
-42.068243
11
436.325863
21
-41.776821
0
LINE
8
gravure
10
436.325863
20
-41.776821
11
436.109145
21
-41.706379
0
LINE
8
gravure
10
436.109145
20
-41.706379
11
430.308295
21
-44.106849
0
LINE
8
gravure
10
430.308295
20
-44.106849
11
430.237965
21
-44.298252
0
LINE
8
gravure
10
430.237965
20
-44.298252
11
430.859446
21
-45.462502
0
LINE
8
gravure
10
430.859446
20
-45.462502
11
430.850980
21
-45.715599
0
LINE
8
gravure
10
430.850980
20
-45.715599
11
429.038890
21
-48.355699
0
LINE
8
gravure
10
429.038890
20
-48.355699
11
429.060056
21
-48.585484
0
LINE
8
gravure
10
429.060056
20
-48.585484
11
431.482366
21
-51.008194
0
LINE
8
gravure
10
431.482366
20
-51.008194
11
431.712716
21
-51.029360
0
LINE
8
gravure
10
431.712716
20
-51.029360
11
434.399976
21
-49.185210
0
LINE
8
gravure
10
434.399976
20
-49.185210
11
434.658548
21
-49.166019
0
LINE
8
gravure
10
434.658548
20
-49.166019
11
437.190588
21
-50.179679
0
LINE
8
gravure
10
437.190588
20
-50.179679
11
437.361332
21
-50.372267
0
LINE
8
gravure
10
437.361332
20
-50.372267
11
437.965569
21
-53.619037
0
LINE
8
gravure
10
437.965569
20
-53.619037
11
438.143284
21
-53.766667
0
LINE
8
gravure
10
438.143284
20
-53.766667
11
441.569004
21
-53.766667
0
LINE
8
gravure
10
441.569004
20
-53.766667
11
441.747030
21
-53.619460
0
LINE
8
gravure
10
441.747000
20
-53.620100
11
441.747000
21
-53.620100
0
LINE
8
gravure
10
441.747000
20
-209.918000
11
442.366054
21
-206.589450
0
LINE
8
gravure
10
442.366054
20
-206.589450
11
442.535472
21
-206.392374
0
LINE
8
gravure
10
442.535472
20
-206.392374
11
444.915792
21
-205.372054
0
LINE
8
gravure
10
444.915792
20
-205.372054
11
445.173150
21
-205.388423
0
LINE
8
gravure
10
445.173150
20
-205.388423
11
447.999970
21
-207.327683
0
LINE
8
gravure
10
447.999970
20
-207.327683
11
448.229924
21
-207.306516
0
LINE
8
gravure
10
448.229924
20
-207.306516
11
450.652064
21
-204.884176
0
LINE
8
gravure
10
450.652064
20
-204.884176
11
450.673231
21
-204.654419
0
LINE
8
gravure
10
450.673231
20
-204.654419
11
448.699371
21
-201.778239
0
LINE
8
gravure
10
448.699371
20
-201.778239
11
448.680744
21
-201.519639
0
LINE
8
gravure
10
448.680744
20
-201.519639
11
449.625313
21
-199.212139
0
LINE
8
gravure
10
449.625313
20
-199.212139
11
449.820074
21
-199.042044
0
LINE
8
gravure
10
449.820074
20
-199.042044
11
453.262844
21
-198.401174
0
LINE
8
gravure
10
453.262844
20
-198.401174
11
453.410587
21
-198.223572
0
LINE
8
gravure
10
453.410587
20
-198.223572
11
453.410587
21
-194.797682
0
LINE
8
gravure
10
453.410587
20
-194.797682
11
453.262957
21
-194.620221
0
LINE
8
gravure
10
453.262957
20
-194.620221
11
449.820077
21
-193.979634
0
LINE
8
gravure
10
449.820077
20
-193.979634
11
449.625428
21
-193.809539
0
LINE
8
gravure
10
449.625428
20
-193.809539
11
448.680887
21
-191.501869
0
LINE
8
gravure
10
448.680887
20
-191.501869
11
448.699514
21
-191.243325
0
LINE
8
gravure
10
448.699514
20
-191.243325
11
450.673374
21
-188.367145
0
LINE
8
gravure
10
450.673374
20
-188.367145
11
450.652207
21
-188.137078
0
LINE
8
gravure
10
450.652207
20
-188.137078
11
448.229927
21
-185.714738
0
LINE
8
gravure
10
448.229927
20
-185.714738
11
447.999860
21
-185.693572
0
LINE
8
gravure
10
447.999860
20
-185.693572
11
445.173150
21
-187.633112
0
LINE
8
gravure
10
445.173150
20
-187.633112
11
444.915792
21
-187.649198
0
LINE
8
gravure
10
444.915792
20
-187.649198
11
442.535472
21
-186.628708
0
LINE
8
gravure
10
442.535472
20
-186.628708
11
442.366054
21
-186.431773
0
LINE
8
gravure
10
442.366054
20
-186.431773
11
441.747000
21
-183.103363
0
LINE
8
gravure
10
441.747000
20
-183.103363
11
441.569257
21
-182.955733
0
LINE
8
gravure
10
441.569257
20
-182.955733
11
438.143367
21
-182.955874
0
LINE
8
gravure
10
438.143367
20
-182.955874
11
437.965652
21
-183.103504
0
LINE
8
gravure
10
437.965652
20
-183.103504
11
437.361443
21
-186.350274
0
LINE
8
gravure
10
437.361443
20
-186.350274
11
437.190783
21
-186.543116
0
LINE
8
gravure
10
437.190783
20
-186.543116
11
434.658773
21
-187.556636
0
LINE
8
gravure
10
434.658773
20
-187.556636
11
434.400201
21
-187.537445
0
LINE
8
gravure
10
434.400201
20
-187.537445
11
431.712661
21
-185.693065
0
LINE
8
gravure
10
431.712661
20
-185.693065
11
431.482340
21
-185.714232
0
LINE
8
gravure
10
431.482340
20
-185.714232
11
429.060200
21
-188.136942
0
LINE
8
gravure
10
429.060200
20
-188.136942
11
429.039033
21
-188.366868
0
LINE
8
gravure
10
429.039033
20
-188.366868
11
430.851013
21
-191.006998
0
LINE
8
gravure
10
430.851013
20
-191.006998
11
430.859762
21
-191.259982
0
LINE
8
gravure
10
430.859762
20
-191.259982
11
430.238224
21
-192.424232
0
LINE
8
gravure
10
430.238224
20
-192.424232
11
430.308554
21
-192.615579
0
LINE
8
gravure
10
430.308554
20
-192.615579
11
436.109004
21
-195.016219
0
LINE
8
gravure
10
436.109004
20
-195.016219
11
436.325863
21
-194.945776
0
LINE
8
gravure
10
436.325863
20
-194.945776
11
436.504425
21
-194.654354
0
LINE
8
gravure
10
436.504425
20
-194.654354
11
436.645480
21
-194.470091
0
LINE
8
gravure
10
436.645480
20
-194.470091
11
437.239500
21
-193.753497
0
LINE
8
gravure
10
437.239500
20
-193.753497
11
437.990692
21
-193.201734
0
LINE
8
gravure
10
437.990692
20
-193.201734
11
438.867106
21
-192.847037
0
LINE
8
gravure
10
438.867106
20
-192.847037
11
439.836790
21
-192.721641
0
LINE
8
gravure
10
439.836790
20
-192.721641
11
440.600341
21
-192.798625
0
LINE
8
gravure
10
440.600341
20
-192.798625
11
441.311503
21
-193.019413
0
LINE
8
gravure
10
441.311503
20
-193.019413
11
442.515734
21
-193.831423
0
LINE
8
gravure
10
442.515734
20
-193.831423
11
443.327630
21
-195.035714
0
LINE
8
gravure
10
443.327630
20
-195.035714
11
443.548374
21
-195.746855
0
LINE
8
gravure
10
443.548374
20
-195.746855
11
443.625340
21
-196.510331
0
LINE
8
gravure
10
443.625340
20
-196.510331
11
443.548374
21
-197.273798
0
LINE
8
gravure
10
443.548374
20
-197.273798
11
443.327630
21
-197.984909
0
LINE
8
gravure
10
443.327630
20
-197.984909
11
442.515734
21
-199.189115
0
LINE
8
gravure
10
442.515734
20
-199.189115
11
441.311503
21
-200.001039
0
LINE
8
gravure
10
441.311503
20
-200.001039
11
440.600341
21
-200.221799
0
LINE
8
gravure
10
440.600341
20
-200.221799
11
439.836790
21
-200.298771
0
LINE
8
gravure
10
439.836790
20
-200.298771
11
438.867106
21
-200.173408
0
LINE
8
gravure
10
438.867106
20
-200.173408
11
437.990691
21
-199.818765
0
LINE
8
gravure
10
437.990691
20
-199.818765
11
437.239498
21
-199.267012
0
LINE
8
gravure
10
437.239498
20
-199.267012
11
436.645480
21
-198.550321
0
LINE
8
gravure
10
436.645480
20
-198.550321
11
436.504256
21
-198.366453
0
LINE
8
gravure
10
436.504256
20
-198.366453
11
436.325863
21
-198.075059
0
LINE
8
gravure
10
436.325863
20
-198.075059
11
436.109145
21
-198.004560
0
LINE
8
gravure
10
436.109145
20
-198.004560
11
430.308295
21
-200.405080
0
LINE
8
gravure
10
430.308295
20
-200.405080
11
430.237965
21
-200.596427
0
LINE
8
gravure
10
430.237965
20
-200.596427
11
430.859446
21
-201.760677
0
LINE
8
gravure
10
430.859446
20
-201.760677
11
430.850980
21
-202.013802
0
LINE
8
gravure
10
430.850980
20
-202.013802
11
429.038890
21
-204.653902
0
LINE
8
gravure
10
429.038890
20
-204.653902
11
429.060056
21
-204.883715
0
LINE
8
gravure
10
429.060056
20
-204.883715
11
431.482366
21
-207.306425
0
LINE
8
gravure
10
431.482366
20
-207.306425
11
431.712716
21
-207.327592
0
LINE
8
gravure
10
431.712716
20
-207.327592
11
434.399976
21
-205.483472
0
LINE
8
gravure
10
434.399976
20
-205.483472
11
434.658548
21
-205.464281
0
LINE
8
gravure
10
434.658548
20
-205.464281
11
437.190588
21
-206.477911
0
LINE
8
gravure
10
437.190588
20
-206.477911
11
437.361332
21
-206.670499
0
LINE
8
gravure
10
437.361332
20
-206.670499
11
437.965569
21
-209.917289
0
LINE
8
gravure
10
437.965569
20
-209.917289
11
438.143284
21
-210.064919
0
LINE
8
gravure
10
438.143284
20
-210.064919
11
441.569004
21
-210.064919
0
LINE
8
gravure
10
441.569004
20
-210.064919
11
441.747030
21
-209.917768
0
LINE
8
gravure
10
441.747000
20
-209.918000
11
441.747000
21
-209.918000
0
LINE
8
Layer 1
10
-23.338600
20
373.181000
11
-23.522008
21
373.929093
0
LINE
8
Layer 1
10
-23.522008
20
373.929093
11
-23.746683
21
374.200578
0
LINE
8
Layer 1
10
-23.746683
20
374.200578
11
-24.090574
21
374.291073
0
LINE
8
Layer 1
10
-24.090574
20
374.291073
11
-25.631200
21
374.291000
0
LINE
8
Layer 1
10
-25.631200
20
374.291000
11
-25.631200
21
372.095000
0
LINE
8
Layer 1
10
-25.631200
20
372.095000
11
-24.090600
21
372.095000
0
LINE
8
Layer 1
10
-24.090600
20
372.095000
11
-23.746709
21
372.179462
0
LINE
8
Layer 1
10
-23.746709
20
372.179462
11
-23.522034
21
372.432849
0
LINE
8
Layer 1
10
-23.522034
20
372.432849
11
-23.338626
21
373.180942
0
LINE
8
Layer 1
10
-23.338626
20
373.180942
11
-23.338600
21
373.181000
0
LINE
8
Layer 1
10
-25.631210
20
365.700070
11
-23.925500
21
365.700000
0
LINE
8
Layer 1
10
-23.925500
20
365.700000
11
-23.535757
21
365.796528
0
LINE
8
Layer 1
10
-23.535757
20
365.796528
11
-23.283570
21
366.086113
0
LINE
8
Layer 1
10
-23.283570
20
366.086113
11
-23.081820
21
366.882470
0
LINE
8
Layer 1
10
-23.081820
20
366.882470
11
-23.301910
21
367.678827
0
LINE
8
Layer 1
10
-23.301910
20
367.678827
11
-23.558682
21
367.968412
0
LINE
8
Layer 1
10
-23.558682
20
367.968412
11
-23.925499
21
368.064940
0
LINE
8
Layer 1
10
-23.925499
20
368.064940
11
-25.631200
21
368.065000
0
LINE
8
Layer 1
10
-25.631200
20
368.065000
11
-25.631210
21
365.700070
0
LINE
8
Layer 1
10
-29.721220
20
361.549360
11
-30.069696
21
361.742418
0
LINE
8
Layer 1
10
-30.069696
20
361.742418
11
-30.216423
21
362.200925
0
LINE
8
Layer 1
10
-30.216423
20
362.200925
11
-30.216400
21
377.790000
0
LINE
8
Layer 1
10
-30.216400
20
377.790000
11
-30.069673
21
378.248509
0
LINE
8
Layer 1
10
-30.069673
20
378.248509
11
-29.721197
21
378.441565
0
LINE
8
Layer 1
10
-29.721197
20
378.441565
11
-23.632100
21
378.441000
0
LINE
8
Layer 1
10
-23.632100
20
378.441000
11
-22.400971
21
378.362571
0
LINE
8
Layer 1
10
-22.400971
20
378.362571
11
-21.348665
21
378.127282
0
LINE
8
Layer 1
10
-21.348665
20
378.127282
11
-20.475181
21
377.735136
0
LINE
8
Layer 1
10
-20.475181
20
377.735136
11
-19.780520
21
377.186130
0
LINE
8
Layer 1
10
-19.780520
20
377.186130
11
-19.242903
21
376.477250
0
LINE
8
Layer 1
10
-19.242903
20
376.477250
11
-18.858890
21
375.605480
0
LINE
8
Layer 1
10
-18.858890
20
375.605480
11
-18.628483
21
374.570820
0
LINE
8
Layer 1
10
-18.628483
20
374.570820
11
-18.551680
21
373.373270
0
LINE
8
Layer 1
10
-18.551680
20
373.373270
11
-18.698407
21
372.287330
0
LINE
8
Layer 1
10
-18.698407
20
372.287330
11
-19.065224
21
371.418577
0
LINE
8
Layer 1
10
-19.065224
20
371.418577
11
-19.542086
21
370.767012
0
LINE
8
Layer 1
10
-19.542086
20
370.767012
11
-20.018948
21
370.356767
0
LINE
8
Layer 1
10
-20.018948
20
370.356767
11
-19.358677
21
369.801730
0
LINE
8
Layer 1
10
-19.358677
20
369.801730
11
-18.790111
21
369.005373
0
LINE
8
Layer 1
10
-18.790111
20
369.005373
11
-18.423294
21
367.991823
0
LINE
8
Layer 1
10
-18.423294
20
367.991823
11
-18.276567
21
366.857613
0
LINE
8
Layer 1
10
-18.276567
20
366.857613
11
-18.360247
21
365.583140
0
LINE
8
Layer 1
10
-18.360247
20
365.583140
11
-18.611287
21
364.486640
0
LINE
8
Layer 1
10
-18.611287
20
364.486640
11
-19.029687
21
363.568115
0
LINE
8
Layer 1
10
-19.029687
20
363.568115
11
-19.615447
21
362.827563
0
LINE
8
Layer 1
10
-19.615447
20
362.827563
11
-20.350227
21
362.268000
0
LINE
8
Layer 1
10
-20.350227
20
362.268000
11
-21.234027
21
361.868313
0
LINE
8
Layer 1
10
-21.234027
20
361.868313
11
-22.266847
21
361.628500
0
LINE
8
Layer 1
10
-22.266847
20
361.628500
11
-23.448687
21
361.548563
0
LINE
8
Layer 1
10
-23.448687
20
361.548563
11
-29.721220
21
361.549360
0
LINE
8
Layer 1
10
-12.737600
20
372.601000
11
-11.435400
21
373.686940
0
LINE
8
Layer 1
10
-11.435400
20
373.686940
11
-10.678841
21
373.994623
0
LINE
8
Layer 1
10
-10.678841
20
373.994623
11
-9.876430
21
374.097184
0
LINE
8
Layer 1
10
-9.876430
20
374.097184
11
-8.996060
21
374.098000
0
LINE
8
Layer 1
10
-8.996060
20
374.098000
11
-8.647584
21
373.904944
0
LINE
8
Layer 1
10
-8.647584
20
373.904944
11
-8.500857
21
373.446435
0
LINE
8
Layer 1
10
-8.500857
20
373.446435
11
-8.500860
21
369.681000
0
LINE
8
Layer 1
10
-8.500860
20
369.681000
11
-8.647587
21
369.222491
0
LINE
8
Layer 1
10
-8.647587
20
369.222491
11
-8.996063
21
369.029435
0
LINE
8
Layer 1
10
-8.996063
20
369.029435
11
-11.362000
21
369.030000
0
LINE
8
Layer 1
10
-11.362000
20
369.030000
11
-11.843447
21
368.939505
0
LINE
8
Layer 1
10
-11.843447
20
368.939505
11
-12.187337
21
368.668020
0
LINE
8
Layer 1
10
-12.187337
20
368.668020
11
-12.393672
21
368.215545
0
LINE
8
Layer 1
10
-12.393672
20
368.215545
11
-12.462450
21
367.582080
0
LINE
8
Layer 1
10
-12.462450
20
367.582080
11
-12.462500
21
362.200000
0
LINE
8
Layer 1
10
-12.462500
20
362.200000
11
-12.609227
21
361.741493
0
LINE
8
Layer 1
10
-12.609227
20
361.741493
11
-12.957703
21
361.548435
0
LINE
8
Layer 1
10
-12.957703
20
361.548435
11
-16.442500
21
361.549000
0
LINE
8
Layer 1
10
-16.442500
20
361.549000
11
-16.790976
21
361.742058
0
LINE
8
Layer 1
10
-16.790976
20
361.742058
11
-16.937703
21
362.200565
0
LINE
8
Layer 1
10
-16.937703
20
362.200565
11
-16.937700
21
373.446000
0
LINE
8
Layer 1
10
-16.937700
20
373.446000
11
-16.790973
21
373.904509
0
LINE
8
Layer 1
10
-16.790973
20
373.904509
11
-16.442497
21
374.097565
0
LINE
8
Layer 1
10
-16.442497
20
374.097565
11
-13.232800
21
374.098000
0
LINE
8
Layer 1
10
-13.232800
20
374.098000
11
-12.884324
21
373.904944
0
LINE
8
Layer 1
10
-12.884324
20
373.904944
11
-12.737597
21
373.446435
0
LINE
8
Layer 1
10
-12.737597
20
373.446435
11
-12.737600
21
372.601000
0
LINE
8
Layer 1
10
-8.115720
20
365.145000
11
-8.046942
21
365.965489
0
LINE
8
Layer 1
10
-8.046942
20
365.965489
11
-7.840607
21
366.689450
0
LINE
8
Layer 1
10
-7.840607
20
366.689450
11
-7.033610
21
367.896050
0
LINE
8
Layer 1
10
-7.033610
20
367.896050
11
-5.768090
21
368.740671
0
LINE
8
Layer 1
10
-5.768090
20
368.740671
11
-4.099070
21
369.319840
0
LINE
8
Layer 1
10
-4.099070
20
369.319840
11
-2.154940
21
369.730084
0
LINE
8
Layer 1
10
-2.154940
20
369.730084
11
-2.246644
21
370.671233
0
LINE
8
Layer 1
10
-2.246644
20
370.671233
11
-2.397964
21
370.887808
0
LINE
8
Layer 1
10
-2.397964
20
370.887808
11
-2.705170
21
370.960000
0
LINE
8
Layer 1
10
-2.705170
20
370.960000
11
-3.090328
21
370.839340
0
LINE
8
Layer 1
10
-3.090328
20
370.839340
11
-3.365441
21
370.573888
0
LINE
8
Layer 1
10
-3.365441
20
370.573888
11
-3.622213
21
370.308436
0
LINE
8
Layer 1
10
-3.622213
20
370.308436
11
-3.970689
21
370.187776
0
LINE
8
Layer 1
10
-3.970689
20
370.187776
11
-7.088640
21
370.188000
0
LINE
8
Layer 1
10
-7.088640
20
370.188000
11
-7.400434
21
370.332792
0
LINE
8
Layer 1
10
-7.400434
20
370.332792
11
-7.492138
21
370.718905
0
LINE
8
Layer 1
10
-7.492138
20
370.718905
11
-7.198684
21
371.804845
0
LINE
8
Layer 1
10
-7.198684
20
371.804845
11
-6.355005
21
372.987315
0
LINE
8
Layer 1
10
-6.355005
20
372.987315
11
-5.690149
21
373.500121
0
LINE
8
Layer 1
10
-5.690149
20
373.500121
11
-4.869395
21
373.928465
0
LINE
8
Layer 1
10
-4.869395
20
373.928465
11
-3.860649
21
374.236148
0
LINE
8
Layer 1
10
-3.860649
20
374.236148
11
-2.668495
21
374.338709
0
LINE
8
Layer 1
10
-2.668495
20
374.338709
11
-1.494680
21
374.252738
0
LINE
8
Layer 1
10
-1.494680
20
374.252738
11
-0.485933
21
373.994826
0
LINE
8
Layer 1
10
-0.485933
20
373.994826
11
0.357745
21
373.564973
0
LINE
8
Layer 1
10
0.357745
20
373.564973
11
1.036355
21
372.963179
0
LINE
8
Layer 1
10
1.036355
20
372.963179
11
1.565948
21
372.216596
0
LINE
8
Layer 1
10
1.565948
20
372.216596
11
1.944230
21
371.328236
0
LINE
8
Layer 1
10
1.944230
20
371.328236
11
2.171198
21
370.298101
0
LINE
8
Layer 1
10
2.171198
20
370.298101
11
2.246855
21
369.126189
0
LINE
8
Layer 1
10
2.246855
20
369.126189
11
2.246860
21
362.200000
0
LINE
8
Layer 1
10
2.246860
20
362.200000
11
2.100133
21
361.741493
0
LINE
8
Layer 1
10
2.100133
20
361.741493
11
1.751657
21
361.548435
0
LINE
8
Layer 1
10
1.751657
20
361.548435
11
-1.458000
21
361.549000
0
LINE
8
Layer 1
10
-1.458000
20
361.549000
11
-1.806476
21
361.742058
0
LINE
8
Layer 1
10
-1.806476
20
361.742058
11
-1.953203
21
362.200565
0
LINE
8
Layer 1
10
-1.953203
20
362.200565
11
-1.953200
21
362.876000
0
LINE
8
Layer 1
10
-1.953200
20
362.876000
11
-2.425477
21
362.224435
0
LINE
8
Layer 1
10
-2.425477
20
362.224435
11
-3.035310
21
361.717660
0
LINE
8
Layer 1
10
-3.035310
20
361.717660
11
-3.746018
21
361.409977
0
LINE
8
Layer 1
10
-3.746018
20
361.409977
11
-4.557600
21
361.307416
0
LINE
8
Layer 1
10
-4.557600
20
361.307416
11
-5.314161
21
361.379812
0
LINE
8
Layer 1
10
-5.314161
20
361.379812
11
-6.006530
21
361.597001
0
LINE
8
Layer 1
10
-6.006530
20
361.597001
11
-7.143660
21
362.393356
0
LINE
8
Layer 1
10
-7.143660
20
362.393356
11
-7.858953
21
363.624096
0
LINE
8
Layer 1
10
-7.858953
20
363.624096
11
-8.115725
21
365.144416
0
LINE
8
Layer 1
10
-8.115725
20
365.144416
11
-8.115720
21
365.145000
0
LINE
8
Layer 1
10
-3.292080
20
364.879549
11
-2.810632
21
364.988143
0
LINE
8
Layer 1
10
-2.810632
20
364.988143
11
-2.430060
21
365.313925
0
LINE
8
Layer 1
10
-2.430060
20
365.313925
11
-2.182459
21
365.905159
0
LINE
8
Layer 1
10
-2.182459
20
365.905159
11
-2.099925
21
366.761845
0
LINE
8
Layer 1
10
-2.099925
20
366.761845
11
-3.182035
21
366.448128
0
LINE
8
Layer 1
10
-3.182035
20
366.448128
11
-3.823965
21
366.062016
0
LINE
8
Layer 1
10
-3.823965
20
366.062016
11
-3.989033
21
365.555243
0
LINE
8
Layer 1
10
-3.989033
20
365.555243
11
-3.823965
21
365.072602
0
LINE
8
Layer 1
10
-3.823965
20
365.072602
11
-3.292080
21
364.879546
0
LINE
8
Layer 1
10
-3.292080
20
364.879546
11
-3.292080
21
364.879549
0
LINE
8
Layer 1
10
28.887600
20
348.355000
11
28.508296
21
348.565137
0
LINE
8
Layer 1
10
28.508296
20
348.565137
11
28.348589
21
349.064204
0
LINE
8
Layer 1
10
28.348589
20
349.064204
11
28.348600
21
361.305000
0
LINE
8
Layer 1
10
28.348600
20
361.305000
11
28.508307
21
361.804069
0
LINE
8
Layer 1
10
28.508307
20
361.804069
11
28.887611
21
362.014203
0
LINE
8
Layer 1
10
28.887611
20
362.014203
11
32.461000
21
362.014000
0
LINE
8
Layer 1
10
32.461000
20
362.014000
11
32.840301
21
361.803866
0
LINE
8
Layer 1
10
32.840301
20
361.803866
11
33.000010
21
361.304797
0
LINE
8
Layer 1
10
33.000010
20
361.304797
11
33.000000
21
349.065000
0
LINE
8
Layer 1
10
33.000000
20
349.065000
11
32.840291
21
348.565933
0
LINE
8
Layer 1
10
32.840291
20
348.565933
11
32.460990
21
348.355796
0
LINE
8
Layer 1
10
32.460990
20
348.355796
11
28.887600
21
348.355000
0
LINE
8
Layer 1
10
32.900230
20
364.167600
11
32.740523
21
363.668531
0
LINE
8
Layer 1
10
32.740523
20
363.668531
11
32.361219
21
363.458396
0
LINE
8
Layer 1
10
32.361219
20
363.458396
11
28.987400
21
363.459000
0
LINE
8
Layer 1
10
28.987400
20
363.459000
11
28.608096
21
363.669135
0
LINE
8
Layer 1
10
28.608096
20
363.669135
11
28.448392
21
364.168204
0
LINE
8
Layer 1
10
28.448392
20
364.168204
11
28.448400
21
367.346000
0
LINE
8
Layer 1
10
28.448400
20
367.346000
11
28.608104
21
367.845069
0
LINE
8
Layer 1
10
28.608104
20
367.845069
11
28.987408
21
368.055203
0
LINE
8
Layer 1
10
28.987408
20
368.055203
11
32.361200
21
368.056000
0
LINE
8
Layer 1
10
32.361200
20
368.056000
11
32.740504
21
367.845866
0
LINE
8
Layer 1
10
32.740504
20
367.845866
11
32.900211
21
367.346797
0
LINE
8
Layer 1
10
32.900211
20
367.346797
11
32.900230
21
364.167600
0
LINE
8
Layer 1
10
35.335700
20
348.355000
11
34.956396
21
348.565137
0
LINE
8
Layer 1
10
34.956396
20
348.565137
11
34.796689
21
349.064204
0
LINE
8
Layer 1
10
34.796689
20
349.064204
11
34.796700
21
366.296000
0
LINE
8
Layer 1
10
34.796700
20
366.296000
11
34.956407
21
366.795069
0
LINE
8
Layer 1
10
34.956407
20
366.795069
11
35.335711
21
367.005203
0
LINE
8
Layer 1
10
35.335711
20
367.005203
11
38.909200
21
367.005000
0
LINE
8
Layer 1
10
38.909200
20
367.005000
11
39.288504
21
366.794866
0
LINE
8
Layer 1
10
39.288504
20
366.794866
11
39.448211
21
366.295797
0
LINE
8
Layer 1
10
39.448211
20
366.295797
11
39.448200
21
349.065000
0
LINE
8
Layer 1
10
39.448200
20
349.065000
11
39.288493
21
348.565933
0
LINE
8
Layer 1
10
39.288493
20
348.565933
11
38.909189
21
348.355796
0
LINE
8
Layer 1
10
38.909189
20
348.355796
11
35.335700
21
348.355000
0
LINE
8
Layer 1
10
41.783900
20
348.355000
11
41.404596
21
348.565137
0
LINE
8
Layer 1
10
41.404596
20
348.565137
11
41.244889
21
349.064204
0
LINE
8
Layer 1
10
41.244889
20
349.064204
11
41.244900
21
366.296000
0
LINE
8
Layer 1
10
41.244900
20
366.296000
11
41.404607
21
366.795069
0
LINE
8
Layer 1
10
41.404607
20
366.795069
11
41.783911
21
367.005203
0
LINE
8
Layer 1
10
41.783911
20
367.005203
11
45.357300
21
367.005000
0
LINE
8
Layer 1
10
45.357300
20
367.005000
11
45.736604
21
366.794866
0
LINE
8
Layer 1
10
45.736604
20
366.794866
11
45.896311
21
366.295797
0
LINE
8
Layer 1
10
45.896311
20
366.295797
11
45.896300
21
349.065000
0
LINE
8
Layer 1
10
45.896300
20
349.065000
11
45.736593
21
348.565933
0
LINE
8
Layer 1
10
45.736593
20
348.565933
11
45.357289
21
348.355796
0
LINE
8
Layer 1
10
45.357289
20
348.355796
11
41.783900
21
348.355000
0
LINE
8
Layer 1
10
52.244700
20
353.635000
11
52.244700
21
353.504000
0
LINE
8
Layer 1
10
52.244700
20
353.504000
11
52.404407
21
352.295730
0
LINE
8
Layer 1
10
52.404407
20
352.295730
11
52.648956
21
352.000227
0
LINE
8
Layer 1
10
52.648956
20
352.000227
11
53.023269
21
351.901726
0
LINE
8
Layer 1
10
53.023269
20
351.901726
11
53.322718
21
352.033061
0
LINE
8
Layer 1
10
53.322718
20
352.033061
11
53.602205
21
352.374530
0
LINE
8
Layer 1
10
53.602205
20
352.374530
11
53.901657
21
352.663465
0
LINE
8
Layer 1
10
53.901657
20
352.663465
11
54.260996
21
352.742266
0
LINE
8
Layer 1
10
54.260996
20
352.742266
11
58.034000
21
352.742000
0
LINE
8
Layer 1
10
58.034000
20
352.742000
11
58.353416
21
352.584399
0
LINE
8
Layer 1
10
58.353416
20
352.584399
11
58.473194
21
352.164131
0
LINE
8
Layer 1
10
58.473194
20
352.164131
11
58.113855
21
350.955861
0
LINE
8
Layer 1
10
58.113855
20
350.955861
11
57.135651
21
349.616251
0
LINE
8
Layer 1
10
57.135651
20
349.616251
11
56.387027
21
349.031815
0
LINE
8
Layer 1
10
56.387027
20
349.031815
11
55.458731
21
348.539311
0
LINE
8
Layer 1
10
55.458731
20
348.539311
11
54.350766
21
348.204410
0
LINE
8
Layer 1
10
54.350766
20
348.204410
11
53.063131
21
348.092777
0
LINE
8
Layer 1
10
53.063131
20
348.092777
11
51.810431
21
348.191278
0
LINE
8
Layer 1
10
51.810431
20
348.191278
11
50.687491
21
348.486779
0
LINE
8
Layer 1
10
50.687491
20
348.486779
11
49.719271
21
349.018681
0
LINE
8
Layer 1
10
49.719271
20
349.018681
11
48.890791
21
349.773849
0
LINE
8
Layer 1
10
48.890791
20
349.773849
11
48.236992
21
350.758854
0
LINE
8
Layer 1
10
48.236992
20
350.758854
11
47.752881
21
351.980259
0
LINE
8
Layer 1
10
47.752881
20
351.980259
11
47.453430
21
353.444634
0
LINE
8
Layer 1
10
47.453430
20
353.444634
11
47.353613
21
355.158539
0
LINE
8
Layer 1
10
47.353613
20
355.158539
11
47.453430
21
356.787081
0
LINE
8
Layer 1
10
47.453430
20
356.787081
11
47.752881
21
358.205489
0
LINE
8
Layer 1
10
47.752881
20
358.205489
11
48.236991
21
359.433464
0
LINE
8
Layer 1
10
48.236991
20
359.433464
11
48.890791
21
360.438169
0
LINE
8
Layer 1
10
48.890791
20
360.438169
11
49.719269
21
361.239306
0
LINE
8
Layer 1
10
49.719269
20
361.239306
11
50.687491
21
361.804039
0
LINE
8
Layer 1
10
50.687491
20
361.804039
11
51.805438
21
362.158640
0
LINE
8
Layer 1
10
51.805438
20
362.158640
11
53.043161
21
362.276841
0
LINE
8
Layer 1
10
53.043161
20
362.276841
11
54.405656
21
362.132373
0
LINE
8
Layer 1
10
54.405656
20
362.132373
11
55.578501
21
361.698971
0
LINE
8
Layer 1
10
55.578501
20
361.698971
11
56.561693
21
361.022601
0
LINE
8
Layer 1
10
56.561693
20
361.022601
11
57.355231
21
360.149231
0
LINE
8
Layer 1
10
57.355231
20
360.149231
11
57.964112
21
359.091992
0
LINE
8
Layer 1
10
57.964112
20
359.091992
11
58.393321
21
357.864021
0
LINE
8
Layer 1
10
58.393321
20
357.864021
11
58.647856
21
356.537548
0
LINE
8
Layer 1
10
58.647856
20
356.537548
11
58.732701
21
355.132271
0
LINE
8
Layer 1
10
58.732701
20
355.132271
11
58.732700
21
354.344000
0
LINE
8
Layer 1
10
58.732700
20
354.344000
11
58.572991
21
353.844931
0
LINE
8
Layer 1
10
58.572991
20
353.844931
11
58.193687
21
353.634797
0
LINE
8
Layer 1
10
58.193687
20
353.634797
11
52.244700
21
353.635000
0
LINE
8
Layer 1
10
53.043233
20
358.599430
11
52.693874
21
358.500929
0
LINE
8
Layer 1
10
52.693874
20
358.500929
11
52.444333
21
358.205428
0
LINE
8
Layer 1
10
52.444333
20
358.205428
11
52.244700
21
356.918358
0
LINE
8
Layer 1
10
52.244700
20
356.918358
11
53.841700
21
356.918000
0
LINE
8
Layer 1
10
53.841700
20
356.918000
11
53.642070
21
358.205070
0
LINE
8
Layer 1
10
53.642070
20
358.205070
11
53.392528
21
358.500571
0
LINE
8
Layer 1
10
53.392528
20
358.500571
11
53.043170
21
358.599072
0
LINE
8
Layer 1
10
53.043170
20
358.599072
11
53.043233
21
358.599430
0
LINE
8
Layer 1
10
44.999400
20
362.345000
11
45.054419
21
362.079547
0
LINE
8
Layer 1
10
45.054419
20
362.079547
11
44.926033
21
361.693435
0
LINE
8
Layer 1
10
44.926033
20
361.693435
11
44.650923
21
361.548642
0
LINE
8
Layer 1
10
44.650923
20
361.548642
11
40.891000
21
361.549000
0
LINE
8
Layer 1
10
40.891000
20
361.549000
11
40.340774
21
361.790322
0
LINE
8
Layer 1
10
40.340774
20
361.790322
11
40.102344
21
362.200566
0
LINE
8
Layer 1
10
40.102344
20
362.200566
11
38.525034
21
366.809786
0
LINE
8
Layer 1
10
38.525034
20
366.809786
11
37.773100
21
366.810000
0
LINE
8
Layer 1
10
37.773100
20
366.810000
11
37.773100
21
362.200000
0
LINE
8
Layer 1
10
37.773100
20
362.200000
11
37.626373
21
361.741493
0
LINE
8
Layer 1
10
37.626373
20
361.741493
11
37.277897
21
361.548435
0
LINE
8
Layer 1
10
37.277897
20
361.548435
11
33.683100
21
361.549000
0
LINE
8
Layer 1
10
33.683100
20
361.549000
11
33.334621
21
361.742058
0
LINE
8
Layer 1
10
33.334621
20
361.742058
11
33.187899
21
362.200565
0
LINE
8
Layer 1
10
33.187899
20
362.200565
11
33.187900
21
377.790000
0
LINE
8
Layer 1
10
33.187900
20
377.790000
11
33.334622
21
378.248509
0
LINE
8
Layer 1
10
33.334622
20
378.248509
11
33.683101
21
378.441565
0
LINE
8
Layer 1
10
33.683101
20
378.441565
11
39.111900
21
378.441000
0
LINE
8
Layer 1
10
39.111900
20
378.441000
11
40.363663
21
378.338439
0
LINE
8
Layer 1
10
40.363663
20
378.338439
11
41.477870
21
378.030755
0
LINE
8
Layer 1
10
41.477870
20
378.030755
11
42.440765
21
377.548114
0
LINE
8
Layer 1
10
42.440765
20
377.548114
11
43.238590
21
376.872415
0
LINE
8
Layer 1
10
43.238590
20
376.872415
11
43.871351
21
376.039861
0
LINE
8
Layer 1
10
43.871351
20
376.039861
11
44.339040
21
375.038385
0
LINE
8
Layer 1
10
44.339040
20
375.038385
11
44.627908
21
373.880047
0
LINE
8
Layer 1
10
44.627908
20
373.880047
11
44.724197
21
372.576915
0
LINE
8
Layer 1
10
44.724197
20
372.576915
11
44.586641
21
371.050562
0
LINE
8
Layer 1
10
44.586641
20
371.050562
11
44.173974
21
369.753465
0
LINE
8
Layer 1
10
44.173974
20
369.753465
11
43.541213
21
368.685622
0
LINE
8
Layer 1
10
43.541213
20
368.685622
11
42.743384
21
367.847035
0
LINE
8
Layer 1
10
42.743384
20
367.847035
11
44.999400
21
362.345000
0
LINE
8
Layer 1
10
37.773100
20
371.395000
11
39.111900
21
371.395000
0
LINE
8
Layer 1
10
39.111900
20
371.395000
11
39.478717
21
371.485495
0
LINE
8
Layer 1
10
39.478717
20
371.485495
11
39.735489
21
371.756980
0
LINE
8
Layer 1
10
39.735489
20
371.756980
11
39.955580
21
372.625734
0
LINE
8
Layer 1
10
39.955580
20
372.625734
11
39.753831
21
373.518619
0
LINE
8
Layer 1
10
39.753831
20
373.518619
11
39.501644
21
373.844402
0
LINE
8
Layer 1
10
39.501644
20
373.844402
11
39.111900
21
373.952996
0
LINE
8
Layer 1
10
39.111900
20
373.952996
11
37.773100
21
373.953000
0
LINE
8
Layer 1
10
37.773100
20
373.953000
11
37.773100
21
371.395000
0
LINE
8
Layer 1
10
54.334900
20
378.441000
11
54.660448
21
378.374637
0
LINE
8
Layer 1
10
54.660448
20
378.374637
11
54.903464
21
378.175548
0
LINE
8
Layer 1
10
54.903464
20
378.175548
11
55.160238
21
377.644643
0
LINE
8
Layer 1
10
55.160238
20
377.644643
11
59.250248
21
362.248443
0
LINE
8
Layer 1
10
59.250248
20
362.248443
11
59.268564
21
362.079519
0
LINE
8
Layer 1
10
59.268564
20
362.079519
11
59.140178
21
361.693407
0
LINE
8
Layer 1
10
59.140178
20
361.693407
11
58.865065
21
361.548614
0
LINE
8
Layer 1
10
58.865065
20
361.548614
11
55.472000
21
361.549000
0
LINE
8
Layer 1
10
55.472000
20
361.549000
11
54.958455
21
361.742058
0
LINE
8
Layer 1
10
54.958455
20
361.742058
11
54.756706
21
362.152302
0
LINE
8
Layer 1
10
54.756706
20
362.152302
11
54.316524
21
363.745012
0
LINE
8
Layer 1
10
54.316524
20
363.745012
11
50.373200
21
363.745000
0
LINE
8
Layer 1
10
50.373200
20
363.745000
11
49.933016
21
362.152290
0
LINE
8
Layer 1
10
49.933016
20
362.152290
11
49.731267
21
361.742046
0
LINE
8
Layer 1
10
49.731267
20
361.742046
11
49.217725
21
361.548988
0
LINE
8
Layer 1
10
49.217725
20
361.548988
11
45.824700
21
361.549000
0
LINE
8
Layer 1
10
45.824700
20
361.549000
11
45.531246
21
361.693793
0
LINE
8
Layer 1
10
45.531246
20
361.693793
11
45.421202
21
362.079905
0
LINE
8
Layer 1
10
45.421202
20
362.079905
11
45.439518
21
362.248829
0
LINE
8
Layer 1
10
45.439518
20
362.248829
11
49.529548
21
377.645029
0
LINE
8
Layer 1
10
49.529548
20
377.645029
11
49.786319
21
378.175934
0
LINE
8
Layer 1
10
49.786319
20
378.175934
11
50.029335
21
378.375023
0
LINE
8
Layer 1
10
50.029335
20
378.375023
11
50.354886
21
378.441386
0
LINE
8
Layer 1
10
50.354886
20
378.441386
11
54.334900
21
378.441000
0
LINE
8
Layer 1
10
53.381176
20
368.450340
11
52.335746
21
372.938900
0
LINE
8
Layer 1
10
52.335746
20
372.938900
11
51.308656
21
368.450340
0
LINE
8
Layer 1
10
51.308656
20
368.450340
11
53.381176
21
368.450340
0
LINE
8
Layer 1
10
66.329800
20
378.441000
11
67.517370
21
378.350505
0
LINE
8
Layer 1
10
67.517370
20
378.350505
11
68.585720
21
378.079019
0
LINE
8
Layer 1
10
68.585720
20
378.079019
11
69.534860
21
377.620511
0
LINE
8
Layer 1
10
69.534860
20
377.620511
11
70.328100
21
376.968949
0
LINE
8
Layer 1
10
70.328100
20
376.968949
11
70.974613
21
376.148461
0
LINE
8
Layer 1
10
70.974613
20
376.148461
11
71.446890
21
375.134919
0
LINE
8
Layer 1
10
71.446890
20
375.134919
11
71.749514
21
373.928319
0
LINE
8
Layer 1
10
71.749514
20
373.928319
11
71.850388
21
372.528659
0
LINE
8
Layer 1
10
71.850388
20
372.528659
11
71.749514
21
371.135031
0
LINE
8
Layer 1
10
71.749514
20
371.135031
11
71.446890
21
369.946529
0
LINE
8
Layer 1
10
71.446890
20
369.946529
11
70.974613
21
368.957116
0
LINE
8
Layer 1
10
70.974613
20
368.957116
11
70.328100
21
368.160759
0
LINE
8
Layer 1
10
70.328100
20
368.160759
11
69.534858
21
367.551424
0
LINE
8
Layer 1
10
69.534858
20
367.551424
11
68.585720
21
367.123079
0
LINE
8
Layer 1
10
68.585720
20
367.123079
11
67.517365
21
366.887791
0
LINE
8
Layer 1
10
67.517365
20
366.887791
11
66.329800
21
366.809362
0
LINE
8
Layer 1
10
66.329800
20
366.809362
11
65.045900
21
366.810000
0
LINE
8
Layer 1
10
65.045900
20
366.810000
11
65.045900
21
362.200000
0
LINE
8
Layer 1
10
65.045900
20
362.200000
11
64.899176
21
361.741493
0
LINE
8
Layer 1
10
64.899176
20
361.741493
11
64.550700
21
361.548435
0
LINE
8
Layer 1
10
64.550700
20
361.548435
11
60.772500
21
361.549000
0
LINE
8
Layer 1
10
60.772500
20
361.549000
11
60.424024
21
361.742058
0
LINE
8
Layer 1
10
60.424024
20
361.742058
11
60.277297
21
362.200565
0
LINE
8
Layer 1
10
60.277297
20
362.200565
11
60.277300
21
377.790000
0
LINE
8
Layer 1
10
60.277300
20
377.790000
11
60.424027
21
378.248509
0
LINE
8
Layer 1
10
60.424027
20
378.248509
11
60.772503
21
378.441565
0
LINE
8
Layer 1
10
60.772503
20
378.441565
11
66.329800
21
378.441000
0
LINE
8
Layer 1
10
64.954240
20
371.273790
11
66.238100
21
371.274000
0
LINE
8
Layer 1
10
66.238100
20
371.274000
11
66.806667
21
371.563584
0
LINE
8
Layer 1
10
66.806667
20
371.563584
11
67.013002
21
371.973830
0
LINE
8
Layer 1
10
67.013002
20
371.973830
11
67.081780
21
372.577134
0
LINE
8
Layer 1
10
67.081780
20
372.577134
11
66.898370
21
373.494151
0
LINE
8
Layer 1
10
66.898370
20
373.494151
11
66.650770
21
373.838033
0
LINE
8
Layer 1
10
66.650770
20
373.838033
11
66.238100
21
373.952660
0
LINE
8
Layer 1
10
66.238100
20
373.952660
11
64.954200
21
373.953000
0
LINE
8
Layer 1
10
64.954200
20
373.953000
11
64.954240
21
371.273790
 0 
ENDSEC
 0 
EOF