<?xml version="1.0" encoding="UTF-8" standalone="no"?>
<svg
   viewBox="0 0 2142.0747 1348.5773"
   width="566.75726mm"
   height="356.81107mm"
   version="1.1"
   id="svg13364"
   sodipodi:docname="BrailleRAP V5 600x400 planche1_r14.svg"
   inkscape:version="1.1.2 (b8e25be833, 2022-02-05)"
   xmlns:inkscape="http://www.inkscape.org/namespaces/inkscape"
   xmlns:sodipodi="http://sodipodi.sourceforge.net/DTD/sodipodi-0.dtd"
   xmlns:xlink="http://www.w3.org/1999/xlink"
   xmlns="http://www.w3.org/2000/svg"
   xmlns:svg="http://www.w3.org/2000/svg">
  <sodipodi:namedview
     id="namedview13366"
     pagecolor="#ffffff"
     bordercolor="#666666"
     borderopacity="1.0"
     inkscape:pageshadow="2"
     inkscape:pageopacity="0.0"
     inkscape:pagecheckerboard="0"
     showgrid="false"
     inkscape:zoom="0.45291837"
     inkscape:cx="726.40021"
     inkscape:cy="805.88473"
     inkscape:window-width="1920"
     inkscape:window-height="1017"
     inkscape:window-x="-8"
     inkscape:window-y="-8"
     inkscape:window-maximized="1"
     inkscape:current-layer="g13082"
     fit-margin-top="0"
     fit-margin-left="0"
     fit-margin-right="0"
     fit-margin-bottom="0"
     units="mm"
     inkscape:document-units="mm" />
  <desc
     id="desc12630">BrailleRAP V5 600x400 planche1.dxf - scale = 1.0, origin = (0.0, 0.0), method = manual</desc>
  <defs
     id="defs12660">
    <marker
       id="DistanceX"
       orient="auto"
       refX="0"
       refY="0"
       style="overflow:visible">
      <path
         d="M 3,-3 -3,3 M 0,-5 V 5"
         style="stroke:#000000;stroke-width:0.5"
         id="path12632" />
    </marker>
    <pattern
       id="Hatch"
       patternUnits="userSpaceOnUse"
       width="8"
       height="8"
       x="0"
       y="0">
      <path
         d="M8 4 l-4,4"
         stroke="#000000"
         stroke-width="0.25"
         linecap="square"
         id="path12635" />
      <path
         d="M6 2 l-4,4"
         stroke="#000000"
         stroke-width="0.25"
         linecap="square"
         id="path12637" />
      <path
         d="M4 0 l-4,4"
         stroke="#000000"
         stroke-width="0.25"
         linecap="square"
         id="path12639" />
    </pattern>
    <symbol
       id="*Model_Space" />
    <symbol
       id="*Paper_Space" />
    <symbol
       id="*Paper_Space0" />
    <symbol
       id="block_2" />
    <symbol
       id="block_3" />
    <symbol
       id="block_4" />
    <symbol
       id="block_5" />
    <symbol
       id="block_6" />
    <symbol
       id="block_7" />
    <symbol
       id="block_8" />
    <symbol
       id="block_9" />
    <symbol
       id="block_10" />
    <symbol
       id="block_11" />
    <symbol
       id="block_12" />
    <symbol
       id="block_13" />
    <symbol
       id="block_14" />
    <symbol
       id="block_15" />
    <symbol
       id="block_16" />
  </defs>
  <g
     inkscape:groupmode="layer"
     inkscape:label="0"
     id="g12662"
     transform="translate(-41.078933,-1165.8277)" />
  <g
     inkscape:groupmode="layer"
     inkscape:label="D_U+00E9coupe V5"
     id="g13082"
     transform="translate(-41.078933,-1165.8277)">
    <use
       xlink:href="#block_3"
       id="use12664"
       x="0"
       y="0"
       width="100%"
       height="100%" />
    <use
       xlink:href="#block_4"
       id="use12666"
       x="0"
       y="0"
       width="100%"
       height="100%" />
    <path
       d="M 1307.4707,1166.0777 H 60.226533"
       style="fill:none;stroke:#00ff00;stroke-width:0.5"
       id="path12668" />
    <path
       d="M 60.226533,1279.4636 V 1166.0777"
       style="fill:none;stroke:#00ff00;stroke-width:0.5"
       id="path12670" />
    <path
       d="m 41.328933,1279.4636 h 18.8976"
       style="fill:none;stroke:#00ff00;stroke-width:0.5"
       id="path12672" />
    <path
       d="m 41.328933,1361.3533 v -81.8897"
       style="fill:none;stroke:#00ff00;stroke-width:0.5"
       id="path12674" />
    <path
       d="m 41.328933,1361.3533 h 18.8976"
       style="fill:none;stroke:#00ff00;stroke-width:0.5"
       id="path12676" />
    <path
       d="m 60.226533,1361.3533 v 105.8268"
       style="fill:none;stroke:#00ff00;stroke-width:0.5"
       id="path12678" />
    <path
       d="m 60.226533,1467.1801 h -18.8976"
       style="fill:none;stroke:#00ff00;stroke-width:0.5"
       id="path12680" />
    <path
       d="m 41.328933,1549.0698 v -81.8897"
       style="fill:none;stroke:#00ff00;stroke-width:0.5"
       id="path12682" />
    <path
       d="m 60.226533,1549.0698 h -18.8976"
       style="fill:none;stroke:#00ff00;stroke-width:0.5"
       id="path12684" />
    <path
       d="M 60.226533,1654.8966 V 1549.0698"
       style="fill:none;stroke:#00ff00;stroke-width:0.5"
       id="path12686" />
    <path
       d="m 41.328933,1654.8966 h 18.8976"
       style="fill:none;stroke:#00ff00;stroke-width:0.5"
       id="path12688" />
    <path
       d="m 41.328933,1736.7864 v -81.8898"
       style="fill:none;stroke:#00ff00;stroke-width:0.5"
       id="path12690" />
    <path
       d="m 60.226533,1736.7864 h -18.8976"
       style="fill:none;stroke:#00ff00;stroke-width:0.5"
       id="path12692" />
    <path
       d="M 60.226533,1842.6132 V 1736.7864"
       style="fill:none;stroke:#00ff00;stroke-width:0.5"
       id="path12694" />
    <path
       d="m 41.328933,1842.6132 h 18.8976"
       style="fill:none;stroke:#00ff00;stroke-width:0.5"
       id="path12696" />
    <path
       d="m 41.328933,1842.6132 v 86.929"
       style="fill:none;stroke:#00ff00;stroke-width:0.5"
       id="path12698" />
    <path
       d="M 116.91947,1929.5422 H 41.328933"
       style="fill:none;stroke:#00ff00;stroke-width:0.5"
       id="path12700" />
    <path
       d="m 135.81706,1910.6446 c 0,10.437 -8.46079,18.8976 -18.89759,18.8976"
       style="fill:none;stroke:#00ff00;stroke-width:0.5"
       id="path12702" />
    <path
       d="M 135.81706,1910.6446 V 1891.747"
       style="fill:none;stroke:#00ff00;stroke-width:0.5"
       id="path12704" />
    <path
       d="M 416.18612,1891.747 H 135.81706"
       style="fill:none;stroke:#00ff00;stroke-width:0.5"
       id="path12706" />
    <path
       d="m 416.18612,1891.747 v 18.8976"
       style="fill:none;stroke:#00ff00;stroke-width:0.5"
       id="path12708" />
    <path
       d="M 416.18612,1910.6446 H 564.332"
       style="fill:none;stroke:#00ff00;stroke-width:0.5"
       id="path12710" />
    <path
       d="m 564.332,1891.747 v 18.8976"
       style="fill:none;stroke:#00ff00;stroke-width:0.5"
       id="path12712" />
    <path
       d="M 564.332,1891.747 H 815.83467"
       style="fill:none;stroke:#00ff00;stroke-width:0.5"
       id="path12714" />
    <path
       d="M 815.83467,1910.6446 V 1891.747"
       style="fill:none;stroke:#00ff00;stroke-width:0.5"
       id="path12716" />
    <path
       d="M 815.83467,1910.6446 H 951.51104"
       style="fill:none;stroke:#00ff00;stroke-width:0.5"
       id="path12718" />
    <path
       d="M 951.51104,1910.6446 V 1891.747"
       style="fill:none;stroke:#00ff00;stroke-width:0.5"
       id="path12720" />
    <path
       d="M 951.51104,1891.747 H 1231.8801"
       style="fill:none;stroke:#00ff00;stroke-width:0.5"
       id="path12722" />
    <path
       d="M 1231.8801,1910.6446 V 1891.747"
       style="fill:none;stroke:#00ff00;stroke-width:0.5"
       id="path12724" />
    <path
       d="m 1250.7777,1929.5422 c -10.4369,0 -18.8976,-8.4606 -18.8976,-18.8976"
       style="fill:none;stroke:#00ff00;stroke-width:0.5"
       id="path12726" />
    <path
       d="m 1326.3682,1929.5422 h -75.5905"
       style="fill:none;stroke:#00ff00;stroke-width:0.5"
       id="path12728" />
    <path
       d="m 1326.3682,1929.5422 v -86.929"
       style="fill:none;stroke:#00ff00;stroke-width:0.5"
       id="path12730" />
    <path
       d="m 1307.4707,1842.6132 h 18.8975"
       style="fill:none;stroke:#00ff00;stroke-width:0.5"
       id="path12732" />
    <path
       d="m 1307.4707,1736.7864 v 105.8268"
       style="fill:none;stroke:#00ff00;stroke-width:0.5"
       id="path12734" />
    <path
       d="m 1326.3682,1736.7864 h -18.8975"
       style="fill:none;stroke:#00ff00;stroke-width:0.5"
       id="path12736" />
    <path
       d="m 1326.3682,1654.8966 v 81.8898"
       style="fill:none;stroke:#00ff00;stroke-width:0.5"
       id="path12738" />
    <path
       d="m 1307.4707,1654.8966 h 18.8975"
       style="fill:none;stroke:#00ff00;stroke-width:0.5"
       id="path12740" />
    <path
       d="m 1307.4707,1549.0698 v 105.8268"
       style="fill:none;stroke:#00ff00;stroke-width:0.5"
       id="path12742" />
    <path
       d="m 1307.4707,1549.0698 h 18.8975"
       style="fill:none;stroke:#00ff00;stroke-width:0.5"
       id="path12744" />
    <path
       d="m 1326.3682,1549.0698 v -81.8897"
       style="fill:none;stroke:#00ff00;stroke-width:0.5"
       id="path12746" />
    <path
       d="m 1326.3682,1467.1801 h -18.8975"
       style="fill:none;stroke:#00ff00;stroke-width:0.5"
       id="path12748" />
    <path
       d="M 1307.4707,1467.1801 V 1361.3533"
       style="fill:none;stroke:#00ff00;stroke-width:0.5"
       id="path12750" />
    <path
       d="m 1307.4707,1361.3533 h 18.8975"
       style="fill:none;stroke:#00ff00;stroke-width:0.5"
       id="path12752" />
    <path
       d="m 1326.3682,1361.3533 v -81.8897"
       style="fill:none;stroke:#00ff00;stroke-width:0.5"
       id="path12754" />
    <path
       d="m 1307.4707,1279.4636 h 18.8975"
       style="fill:none;stroke:#00ff00;stroke-width:0.5"
       id="path12756" />
    <path
       d="m 1307.4707,1166.0777 v 113.3859"
       style="fill:none;stroke:#00ff00;stroke-width:0.5"
       id="path12758" />
    <path
       d="m 539.94933,1325.1977 c 0,-3.3399 -2.70748,-6.0472 -6.04721,-6.0472 -3.33987,0 -6.04733,2.7073 -6.04733,6.0472 0,3.3399 2.70746,6.0472 6.04733,6.0472 3.33973,0 6.04721,-2.7073 6.04721,-6.0472 0,0 0,0 0,0 z"
       style="fill:none;stroke:#00ff00;stroke-width:0.5"
       id="path12760" />
    <path
       d="m 539.94933,1279.8434 c 0,-3.3398 -2.70748,-6.0473 -6.04721,-6.0473 -3.33987,0 -6.04733,2.7075 -6.04733,6.0473 0,3.3398 2.70746,6.0472 6.04733,6.0472 3.33973,0 6.04721,-2.7074 6.04721,-6.0472 0,0 0,0 0,0 z"
       style="fill:none;stroke:#00ff00;stroke-width:0.5"
       id="path12762" />
    <path
       d="m 367.98079,1325.1977 c 0,3.3399 -2.70746,6.0472 -6.0472,6.0472 -3.33987,0 -6.04733,-2.7073 -6.04733,-6.0472 0,-3.3399 2.70746,-6.0472 6.04733,-6.0472 3.33974,0 6.0472,2.7073 6.0472,6.0472 0,0 0,0 0,0 z"
       style="fill:none;stroke:#00ff00;stroke-width:0.5"
       id="path12764" />
    <path
       d="m 367.98079,1279.8434 c 0,3.3398 -2.70746,6.0472 -6.0472,6.0472 -3.33987,0 -6.04733,-2.7074 -6.04733,-6.0472 0,-3.3398 2.70746,-6.0473 6.04733,-6.0473 3.33974,0 6.0472,2.7075 6.0472,6.0473 0,0 0,0 0,0 z"
       style="fill:none;stroke:#00ff00;stroke-width:0.5"
       id="path12766" />
    <path
       d="m 927.35091,1325.1977 c 0,-3.3399 -2.70747,-6.0472 -6.04733,-6.0472 -3.33974,0 -6.0472,2.7073 -6.0472,6.0472 0,3.3399 2.70746,6.0472 6.0472,6.0472 3.33986,0 6.04733,-2.7073 6.04733,-6.0472 0,0 0,0 0,0 z"
       style="fill:none;stroke:#00ff00;stroke-width:0.5"
       id="path12768" />
    <path
       d="m 927.35091,1279.8434 c 0,-3.3398 -2.70747,-6.0473 -6.04733,-6.0473 -3.33974,0 -6.0472,2.7075 -6.0472,6.0473 0,3.3398 2.70746,6.0472 6.0472,6.0472 3.33986,0 6.04733,-2.7074 6.04733,-6.0472 0,0 0,0 0,0 z"
       style="fill:none;stroke:#00ff00;stroke-width:0.5"
       id="path12770" />
    <path
       d="m 230.07559,1399.6522 v 38.5515"
       style="fill:none;stroke:#00ff00;stroke-width:0.5"
       id="path12772" />
    <path
       d="m 267.87079,1361.8569 c -20.87373,0 -37.7952,16.9216 -37.7952,37.7953"
       style="fill:none;stroke:#00ff00;stroke-width:0.5"
       id="path12774" />
    <path
       d="M 267.87079,1361.8569 H 1100.8749"
       style="fill:none;stroke:#00ff00;stroke-width:0.5"
       id="path12776" />
    <path
       d="m 1100.8749,1361.8569 c 20.8737,0 37.7952,16.9216 37.7952,37.7953"
       style="fill:none;stroke:#00ff00;stroke-width:0.5"
       id="path12778" />
    <path
       d="m 1138.6701,1399.6522 v 19.6539"
       style="fill:none;stroke:#00ff00;stroke-width:0.5"
       id="path12780" />
    <path
       d="m 1138.6373,1419.3061 h 0.033"
       style="fill:none;stroke:#00ff00;stroke-width:0.5"
       id="path12782" />
    <path
       d="m 1138.6373,1438.2037 v -18.8976"
       style="fill:none;stroke:#00ff00;stroke-width:0.5"
       id="path12784" />
    <path
       d="M 928.92267,1438.2037 H 1138.6373"
       style="fill:none;stroke:#00ff00;stroke-width:0.5"
       id="path12786" />
    <path
       d="m 928.92267,1419.3061 v 18.8976"
       style="fill:none;stroke:#00ff00;stroke-width:0.5"
       id="path12788" />
    <path
       d="m 835.02971,1419.3061 h 93.89296"
       style="fill:none;stroke:#00ff00;stroke-width:0.5"
       id="path12790" />
    <path
       d="m 835.02971,1438.2037 v -18.8976"
       style="fill:none;stroke:#00ff00;stroke-width:0.5"
       id="path12792" />
    <path
       d="M 532.07225,1438.2037 H 835.02971"
       style="fill:none;stroke:#00ff00;stroke-width:0.5"
       id="path12794" />
    <path
       d="m 532.07225,1419.3061 v 18.8976"
       style="fill:none;stroke:#00ff00;stroke-width:0.5"
       id="path12796" />
    <path
       d="m 438.17932,1419.3061 h 93.89293"
       style="fill:none;stroke:#00ff00;stroke-width:0.5"
       id="path12798" />
    <path
       d="m 438.17932,1438.2037 v -18.8976"
       style="fill:none;stroke:#00ff00;stroke-width:0.5"
       id="path12800" />
    <path
       d="M 230.07559,1438.2037 H 438.17932"
       style="fill:none;stroke:#00ff00;stroke-width:0.5"
       id="path12802" />
    <use
       xlink:href="#block_6"
       id="use12804"
       x="0"
       y="0"
       width="100%"
       height="100%" />
    <use
       xlink:href="#block_7"
       id="use12806"
       x="0"
       y="0"
       width="100%"
       height="100%" />
    <path
       d="m 88.948,2207.1096 c 0,3.5485 -2.876667,6.4252 -6.4252,6.4252 -3.548533,0 -6.4252,-2.8767 -6.4252,-6.4252 0,-3.5486 2.876667,-6.4252 6.4252,-6.4252 3.548533,0 6.4252,2.8766 6.4252,6.4252 0,0 0,0 0,0 z"
       style="fill:none;stroke:#00ff00;stroke-width:0.5"
       id="path12808" />
    <path
       d="m 88.948,2131.8117 c 0,3.5485 -2.876667,6.4252 -6.4252,6.4252 -3.548533,0 -6.4252,-2.8767 -6.4252,-6.4252 0,-3.5485 2.876667,-6.4252 6.4252,-6.4252 3.548533,0 6.4252,2.8767 6.4252,6.4252 0,0 0,0 0,0 z"
       style="fill:none;stroke:#00ff00;stroke-width:0.5"
       id="path12810" />
    <path
       d="m 1285.8181,2207.2904 c 0,-3.5486 2.8767,-6.4252 6.4252,-6.4252 3.5485,0 6.4252,2.8766 6.4252,6.4252 0,3.5485 -2.8767,6.4252 -6.4252,6.4252 -3.5485,0 -6.4252,-2.8767 -6.4252,-6.4252 0,0 0,0 0,0 z"
       style="fill:none;stroke:#00ff00;stroke-width:0.5"
       id="path12812" />
    <path
       d="m 1285.8181,2131.9925 c 0,-3.5485 2.8767,-6.4252 6.4252,-6.4252 3.5485,0 6.4252,2.8767 6.4252,6.4252 0,3.5485 -2.8767,6.4252 -6.4252,6.4252 -3.5485,0 -6.4252,-2.8767 -6.4252,-6.4252 0,0 0,0 0,0 z"
       style="fill:none;stroke:#00ff00;stroke-width:0.5"
       id="path12814" />
    <g
       id="g14802"
       transform="translate(0,18.8976)">
      <path
         d="m 1248.3496,2315.7298 c 0,20.8739 -16.9215,37.7954 -37.7952,37.7954 -20.8739,0 -37.7954,-16.9215 -37.7954,-37.7954 0,-20.8737 16.9215,-37.7952 37.7954,-37.7952 20.8737,0 37.7952,16.9215 37.7952,37.7952 0,0 0,0 0,0 z"
         style="fill:none;stroke:#00ff00;stroke-width:0.5"
         id="path12818" />
      <path
         d="m 1248.3496,2211.7929 c 0,20.8737 -16.9215,37.7953 -37.7952,37.7953 -20.8739,0 -37.7954,-16.9216 -37.7954,-37.7953 0,-20.8737 16.9215,-37.7953 37.7954,-37.7953 20.8737,0 37.7952,16.9216 37.7952,37.7953 0,0 0,0 0,0 z"
         style="fill:none;stroke:#00ff00;stroke-width:0.5"
         id="path12820" />
      <path
         d="m 1248.3496,2107.8558 c 0,20.8739 -16.9215,37.7954 -37.7952,37.7954 -20.8739,0 -37.7954,-16.9215 -37.7954,-37.7954 0,-20.8737 16.9215,-37.7952 37.7954,-37.7952 20.8737,0 37.7952,16.9215 37.7952,37.7952 0,0 0,0 0,0 z"
         style="fill:none;stroke:#00ff00;stroke-width:0.5"
         id="path12822" />
    </g>
    <path
       d="M 1310.8693,1947.226 H 63.6252"
       style="fill:none;stroke:#00ff00;stroke-width:0.5"
       id="path12830" />
    <g
       id="g14797"
       transform="translate(0,18.8976)">
      <path
         d="m 120.31813,2315.7298 c 0,-20.8737 16.92147,-37.7952 37.7952,-37.7952 20.87387,0 37.79533,16.9215 37.79533,37.7952 0,20.8739 -16.92146,37.7954 -37.79533,37.7954 -20.87373,0 -37.7952,-16.9215 -37.7952,-37.7954 0,0 0,0 0,0 z"
         style="fill:none;stroke:#00ff00;stroke-width:0.5"
         id="path12824" />
      <path
         d="m 120.31813,2211.7929 c 0,-20.8737 16.92147,-37.7953 37.7952,-37.7953 20.87387,0 37.79533,16.9216 37.79533,37.7953 0,20.8737 -16.92146,37.7953 -37.79533,37.7953 -20.87373,0 -37.7952,-16.9216 -37.7952,-37.7953 0,0 0,0 0,0 z"
         style="fill:none;stroke:#00ff00;stroke-width:0.5"
         id="path12826" />
      <path
         d="m 120.31813,2107.8558 c 0,-20.8737 16.92146,-37.7952 37.7952,-37.7952 20.87373,0 37.79533,16.9215 37.79533,37.7952 0,20.8739 -16.9216,37.7954 -37.79533,37.7954 -20.87374,0 -37.7952,-16.9215 -37.7952,-37.7954 0,0 0,0 0,0 z"
         style="fill:none;stroke:#00ff00;stroke-width:0.5"
         id="path12828" />
    </g>
    <path
       d="M 63.6252,2514.155 V 1947.226"
       style="fill:none;stroke:#00ff00;stroke-width:0.5"
       id="path12832" />
    <path
       d="M 1310.8693,2514.155 H 63.6252"
       style="fill:none;stroke:#00ff00;stroke-width:0.5"
       id="path12834" />
    <path
       d="m 1310.8693,1947.226 v 566.929"
       style="fill:none;stroke:#00ff00;stroke-width:0.5"
       id="path12836" />
    <use
       xlink:href="#block_9"
       id="use12838"
       x="0"
       y="0"
       width="100%"
       height="100%" />
    <use
       xlink:href="#block_10"
       id="use12840"
       x="0"
       y="0"
       width="100%"
       height="100%" />
    <path
       d="m 1667.2213,1507.7342 c 0,-3.5485 -2.8766,-6.4252 -6.4252,-6.4252 -3.5485,0 -6.4252,2.8767 -6.4252,6.4252 0,3.5486 2.8767,6.4252 6.4252,6.4252 3.5486,0 6.4252,-2.8766 6.4252,-6.4252 0,0 0,0 0,0 z"
       style="fill:none;stroke:#00ff00;stroke-width:0.5"
       id="path12842" />
    <path
       d="M 2182.9037,1755.2116 V 1188.2824"
       style="fill:none;stroke:#00ff00;stroke-width:0.5"
       id="path12844" />
    <path
       d="m 2050.6203,1188.2824 h 132.2834"
       style="fill:none;stroke:#00ff00;stroke-width:0.5"
       id="path12846" />
    <path
       d="m 2050.6203,1188.2824 v 18.8977"
       style="fill:none;stroke:#00ff00;stroke-width:0.5"
       id="path12848" />
    <path
       d="m 1968.7305,1207.1801 h 81.8898"
       style="fill:none;stroke:#00ff00;stroke-width:0.5"
       id="path12850" />
    <path
       d="m 1968.7305,1188.2824 v 18.8977"
       style="fill:none;stroke:#00ff00;stroke-width:0.5"
       id="path12852" />
    <path
       d="m 1862.9037,1188.2824 h 105.8268"
       style="fill:none;stroke:#00ff00;stroke-width:0.5"
       id="path12854" />
    <path
       d="m 1862.9037,1188.2824 v 18.8977"
       style="fill:none;stroke:#00ff00;stroke-width:0.5"
       id="path12856" />
    <path
       d="m 1781.014,1207.1801 h 81.8897"
       style="fill:none;stroke:#00ff00;stroke-width:0.5"
       id="path12858" />
    <path
       d="m 1781.014,1207.1801 v -18.8977"
       style="fill:none;stroke:#00ff00;stroke-width:0.5"
       id="path12860" />
    <path
       d="M 1781.014,1188.2824 H 1675.1872"
       style="fill:none;stroke:#00ff00;stroke-width:0.5"
       id="path12862" />
    <path
       d="m 1675.1872,1188.2824 v 18.8977"
       style="fill:none;stroke:#00ff00;stroke-width:0.5"
       id="path12864" />
    <path
       d="m 1593.2975,1207.1801 h 81.8897"
       style="fill:none;stroke:#00ff00;stroke-width:0.5"
       id="path12866" />
    <path
       d="m 1593.2975,1188.2824 v 18.8977"
       style="fill:none;stroke:#00ff00;stroke-width:0.5"
       id="path12868" />
    <path
       d="m 1487.4707,1188.2824 h 105.8268"
       style="fill:none;stroke:#00ff00;stroke-width:0.5"
       id="path12870" />
    <path
       d="m 1487.4707,1207.1801 v -18.8977"
       style="fill:none;stroke:#00ff00;stroke-width:0.5"
       id="path12872" />
    <path
       d="m 1400.5416,1207.1801 h 86.9291"
       style="fill:none;stroke:#00ff00;stroke-width:0.5"
       id="path12874" />
    <path
       d="m 1400.5416,1263.8729 v -56.6928"
       style="fill:none;stroke:#00ff00;stroke-width:0.5"
       id="path12876" />
    <path
       d="m 1419.4392,1282.7706 c -10.4369,0 -18.8976,-8.4608 -18.8976,-18.8977"
       style="fill:none;stroke:#00ff00;stroke-width:0.5"
       id="path12878" />
    <path
       d="m 1438.3368,1282.7706 h -18.8976"
       style="fill:none;stroke:#00ff00;stroke-width:0.5"
       id="path12880" />
    <path
       d="M 1438.3368,1433.9517 V 1282.7706"
       style="fill:none;stroke:#00ff00;stroke-width:0.5"
       id="path12882" />
    <path
       d="m 1419.4392,1433.9517 h 18.8976"
       style="fill:none;stroke:#00ff00;stroke-width:0.5"
       id="path12884" />
    <path
       d="M 1419.4392,1547.3376 V 1433.9517"
       style="fill:none;stroke:#00ff00;stroke-width:0.5"
       id="path12886" />
    <path
       d="m 1438.3368,1547.3376 h -18.8976"
       style="fill:none;stroke:#00ff00;stroke-width:0.5"
       id="path12888" />
    <path
       d="M 1438.3368,1660.7233 V 1547.3376"
       style="fill:none;stroke:#00ff00;stroke-width:0.5"
       id="path12890" />
    <path
       d="m 1419.4392,1660.7233 h 18.8976"
       style="fill:none;stroke:#00ff00;stroke-width:0.5"
       id="path12892" />
    <path
       d="m 1419.4392,1660.7233 c -10.4369,0 -18.8976,8.4608 -18.8976,18.8977"
       style="fill:none;stroke:#00ff00;stroke-width:0.5"
       id="path12894" />
    <path
       d="m 1400.5416,1736.314 v -56.693"
       style="fill:none;stroke:#00ff00;stroke-width:0.5"
       id="path12896" />
    <path
       d="m 1487.4707,1736.314 h -86.9291"
       style="fill:none;stroke:#00ff00;stroke-width:0.5"
       id="path12898" />
    <path
       d="M 1487.4707,1755.2116 V 1736.314"
       style="fill:none;stroke:#00ff00;stroke-width:0.5"
       id="path12900" />
    <path
       d="m 1487.4707,1755.2116 h 105.8268"
       style="fill:none;stroke:#00ff00;stroke-width:0.5"
       id="path12902" />
    <path
       d="m 1593.2975,1736.314 v 18.8976"
       style="fill:none;stroke:#00ff00;stroke-width:0.5"
       id="path12904" />
    <path
       d="m 1593.2975,1736.314 h 100.7874"
       style="fill:none;stroke:#00ff00;stroke-width:0.5"
       id="path12906" />
    <path
       d="m 1694.0849,1736.314 v 18.8976"
       style="fill:none;stroke:#00ff00;stroke-width:0.5"
       id="path12908" />
    <path
       d="m 1694.0849,1755.2116 h 86.9291"
       style="fill:none;stroke:#00ff00;stroke-width:0.5"
       id="path12910" />
    <path
       d="m 1781.014,1736.314 v 18.8976"
       style="fill:none;stroke:#00ff00;stroke-width:0.5"
       id="path12912" />
    <path
       d="m 1781.014,1736.314 h 81.8897"
       style="fill:none;stroke:#00ff00;stroke-width:0.5"
       id="path12914" />
    <path
       d="m 1862.9037,1736.314 v 18.8976"
       style="fill:none;stroke:#00ff00;stroke-width:0.5"
       id="path12916" />
    <path
       d="m 1862.9037,1755.2116 h 105.8268"
       style="fill:none;stroke:#00ff00;stroke-width:0.5"
       id="path12918" />
    <path
       d="M 1968.7305,1755.2116 V 1736.314"
       style="fill:none;stroke:#00ff00;stroke-width:0.5"
       id="path12920" />
    <path
       d="m 1968.7305,1736.314 h 81.8898"
       style="fill:none;stroke:#00ff00;stroke-width:0.5"
       id="path12922" />
    <path
       d="m 2050.6203,1736.314 v 18.8976"
       style="fill:none;stroke:#00ff00;stroke-width:0.5"
       id="path12924" />
    <path
       d="m 2050.6203,1755.2116 h 132.2834"
       style="fill:none;stroke:#00ff00;stroke-width:0.5"
       id="path12926" />
    <path
       d="m 1667.2213,1555.2686 c 0,-3.5485 -2.8766,-6.4252 -6.4252,-6.4252 -3.5485,0 -6.4252,2.8767 -6.4252,6.4252 0,3.5486 2.8767,6.4252 6.4252,6.4252 3.5486,0 6.4252,-2.8766 6.4252,-6.4252 0,0 0,0 0,0 z"
       style="fill:none;stroke:#00ff00;stroke-width:0.5"
       id="path12928" />
    <path
       d="m 2080.0009,1573.8677 c -3.5485,0 -6.4252,2.8767 -6.4252,6.4252 0,3.5485 2.8767,6.4252 6.4252,6.4252 3.5486,0 6.4252,-2.8767 6.4252,-6.4252 0,-3.5485 -2.8766,-6.4252 -6.4252,-6.4252 0,0 0,0 0,0 z"
       style="fill:none;stroke:#00ff00;stroke-width:0.5"
       id="path12930" />
    <path
       d="m 2080.0009,1445.3638 c -3.5485,0 -6.4252,2.8767 -6.4252,6.4252 0,3.5486 2.8767,6.4252 6.4252,6.4252 3.5486,0 6.4252,-2.8766 6.4252,-6.4252 0,-3.5485 -2.8766,-6.4252 -6.4252,-6.4252 0,0 0,0 0,0 z"
       style="fill:none;stroke:#00ff00;stroke-width:0.5"
       id="path12932" />
    <path
       d="m 1926.6893,1316.5644 c 3.9852,3.9852 3.9851,10.4465 -10e-5,14.4317 -3.9852,3.9851 -10.4464,3.9851 -14.4316,-10e-5 -3.9852,-3.9852 -3.9852,-10.4466 1e-4,-14.4318 3.9852,-3.985 10.4464,-3.985 14.4316,2e-4 0,0 0,0 0,0 z"
       style="fill:none;stroke:#00ff00;stroke-width:0.5"
       id="path12934" />
    <path
       d="m 1829.142,1414.1117 c 3.9852,3.9852 3.9851,10.4465 -10e-5,14.4317 -3.9852,3.9851 -10.4464,3.9851 -14.4316,-10e-5 -3.9852,-3.9852 -3.9852,-10.4465 10e-5,-14.4317 3.9852,-3.9851 10.4464,-3.9851 14.4316,10e-5 0,0 0,0 0,0 z"
       style="fill:none;stroke:#00ff00;stroke-width:0.5"
       id="path12936" />
    <path
       d="m 1870.6996,1388.4278 c -8.7669,0 -15.874,-7.107 -15.874,-15.874 0,-8.7669 7.1071,-15.874 15.874,-15.874 8.7671,0 15.8741,7.1071 15.8741,15.874 0,8.767 -7.107,15.874 -15.8741,15.874 0,0 0,0 0,0 z"
       style="fill:none;stroke:#00ff00;stroke-width:0.5"
       id="path12938" />
    <path
       d="m 1767.7719,1555.5333 c 3.5485,0 6.4252,-2.8767 6.4252,-6.4252 0,-3.5485 -2.8767,-6.4252 -6.4252,-6.4252 -3.5486,0 -6.4252,2.8767 -6.4252,6.4252 0,3.5485 2.8766,6.4252 6.4252,6.4252 0,0 0,0 0,0 z"
       style="fill:none;stroke:#00ff00;stroke-width:0.5"
       id="path12940" />
    <path
       d="m 1767.7719,1366.5569 c -3.5486,0 -6.4252,-2.8767 -6.4252,-6.4252 0,-3.5485 2.8766,-6.4252 6.4252,-6.4252 3.5485,0 6.4252,2.8767 6.4252,6.4252 0,3.5485 -2.8767,6.4252 -6.4252,6.4252 0,0 0,0 0,0 z"
       style="fill:none;stroke:#00ff00;stroke-width:0.5"
       id="path12942" />
    <path
       d="m 1990.688,1612.554 c 0,-5.636 -4.5687,-10.2048 -10.2047,-10.2048 -5.6358,-2e-4 -10.2046,4.5686 -10.2048,10.2046 0,5.6359 4.5688,10.2047 10.2047,10.2047 5.636,10e-5 10.2048,-4.5687 10.2048,-10.2045 0,0 0,0 0,0 z"
       style="fill:none;stroke:#00ff00;stroke-width:0.5"
       id="path12944" />
    <path
       d="m 1990.688,1453.8137 c 0,-5.6359 -4.5687,-10.2047 -10.2047,-10.2048 -5.6358,0 -10.2046,4.5688 -10.2048,10.2047 0,5.636 4.5688,10.2048 10.2047,10.2048 5.636,10e-5 10.2048,-4.5687 10.2048,-10.2047 0,0 0,0 0,0 z"
       style="fill:none;stroke:#00ff00;stroke-width:0.5"
       id="path12946" />
    <path
       d="m 1888.6408,1612.5532 c 0,-5.6359 -4.5688,-10.2048 -10.2047,-10.2048 -5.6358,0 -10.2048,4.5688 -10.2048,10.2046 0,5.6359 4.5688,10.2048 10.2047,10.2048 5.6359,0 10.2048,-4.5688 10.2048,-10.2046 0,0 0,0 0,0 z"
       style="fill:none;stroke:#00ff00;stroke-width:0.5"
       id="path12948" />
    <path
       d="m 1888.6408,1453.813 c 0,-5.636 -4.5688,-10.2048 -10.2047,-10.2048 -5.6358,0 -10.2048,4.5687 -10.2048,10.2047 0,5.6359 4.5688,10.2047 10.2047,10.2048 5.6359,0 10.2048,-4.5688 10.2048,-10.2047 0,0 0,0 0,0 z"
       style="fill:none;stroke:#00ff00;stroke-width:0.5"
       id="path12950" />
    <path
       d="m 2042.5185,1634.0972 c 8.7671,0 15.874,-7.1071 15.874,-15.874 0,-8.7671 -7.1069,-15.874 -15.874,-15.874 -8.7669,0 -15.874,7.1069 -15.874,15.874 0,8.7669 7.1071,15.874 15.874,15.874 0,0 0,0 0,0 z"
       style="fill:none;stroke:#00ff00;stroke-width:0.5"
       id="path12952" />
    <path
       d="m 2042.5185,1426.2232 c 8.7671,0 15.874,-7.1071 15.874,-15.874 0,-8.7671 -7.1069,-15.8742 -15.874,-15.8742 -8.7669,0 -15.874,7.1071 -15.874,15.8742 0,8.7669 7.1071,15.874 15.874,15.874 0,0 0,0 0,0 z"
       style="fill:none;stroke:#00ff00;stroke-width:0.5"
       id="path12954" />
    <path
       d="m 1767.7719,1315.6141 c -8.767,0 -15.874,-7.1071 -15.874,-15.874 0,-8.7669 7.107,-15.874 15.874,-15.874 8.7669,0 15.874,7.1071 15.874,15.874 0,8.7669 -7.1071,15.874 -15.874,15.874 0,0 0,0 0,0 z"
       style="fill:none;stroke:#00ff00;stroke-width:0.5"
       id="path12956" />
    <path
       d="m 1767.7719,1617.9764 c 8.7669,0 15.874,-7.1071 15.874,-15.874 0,-8.7671 -7.1071,-15.874 -15.874,-15.874 -8.767,0 -15.874,7.1069 -15.874,15.874 0,8.7669 7.107,15.874 15.874,15.874 0,0 0,0 0,0 z"
       style="fill:none;stroke:#00ff00;stroke-width:0.5"
       id="path12958" />
    <use
       xlink:href="#block_12"
       id="use12960"
       x="0"
       y="0"
       width="100%"
       height="100%" />
    <use
       xlink:href="#block_13"
       id="use12962"
       x="0"
       y="0"
       width="100%"
       height="100%" />
    <path
       d="M 2182.9037,2344.8073 V 1777.8782"
       style="fill:none;stroke:#00ff00;stroke-width:0.5"
       id="path12964" />
    <path
       d="m 2050.6203,1777.8782 h 132.2834"
       style="fill:none;stroke:#00ff00;stroke-width:0.5"
       id="path12966" />
    <path
       d="m 2050.6203,1777.8782 v 18.8976"
       style="fill:none;stroke:#00ff00;stroke-width:0.5"
       id="path12968" />
    <path
       d="m 2050.6203,1796.7758 h -81.8898"
       style="fill:none;stroke:#00ff00;stroke-width:0.5"
       id="path12970" />
    <path
       d="m 1968.7305,1777.8782 v 18.8976"
       style="fill:none;stroke:#00ff00;stroke-width:0.5"
       id="path12972" />
    <path
       d="m 1862.9037,1777.8782 h 105.8268"
       style="fill:none;stroke:#00ff00;stroke-width:0.5"
       id="path12974" />
    <path
       d="m 1862.9037,1796.7758 v -18.8976"
       style="fill:none;stroke:#00ff00;stroke-width:0.5"
       id="path12976" />
    <path
       d="m 1781.014,1796.7758 h 81.8897"
       style="fill:none;stroke:#00ff00;stroke-width:0.5"
       id="path12978" />
    <path
       d="m 1781.014,1777.8782 v 18.8976"
       style="fill:none;stroke:#00ff00;stroke-width:0.5"
       id="path12980" />
    <path
       d="M 1781.014,1777.8782 H 1675.1872"
       style="fill:none;stroke:#00ff00;stroke-width:0.5"
       id="path12982" />
    <path
       d="m 1675.1872,1796.7758 v -18.8976"
       style="fill:none;stroke:#00ff00;stroke-width:0.5"
       id="path12984" />
    <path
       d="m 1593.2975,1796.7758 h 81.8897"
       style="fill:none;stroke:#00ff00;stroke-width:0.5"
       id="path12986" />
    <path
       d="m 1593.2975,1777.8782 v 18.8976"
       style="fill:none;stroke:#00ff00;stroke-width:0.5"
       id="path12988" />
    <path
       d="M 1593.2975,1777.8782 H 1487.4707"
       style="fill:none;stroke:#00ff00;stroke-width:0.5"
       id="path12990" />
    <path
       d="m 1487.4707,1796.7758 v -18.8976"
       style="fill:none;stroke:#00ff00;stroke-width:0.5"
       id="path12992" />
    <path
       d="m 1400.5416,1796.7758 h 86.9291"
       style="fill:none;stroke:#00ff00;stroke-width:0.5"
       id="path12994" />
    <path
       d="m 1400.5416,1853.4688 v -56.693"
       style="fill:none;stroke:#00ff00;stroke-width:0.5"
       id="path12996" />
    <path
       d="m 1419.4392,1872.3664 c -10.4369,0 -18.8976,-8.4607 -18.8976,-18.8976"
       style="fill:none;stroke:#00ff00;stroke-width:0.5"
       id="path12998" />
    <path
       d="m 1438.3368,1872.3664 h -18.8976"
       style="fill:none;stroke:#00ff00;stroke-width:0.5"
       id="path13000" />
    <path
       d="M 1438.3368,1985.7522 V 1872.3664"
       style="fill:none;stroke:#00ff00;stroke-width:0.5"
       id="path13002" />
    <path
       d="m 1419.4392,1985.7522 h 18.8976"
       style="fill:none;stroke:#00ff00;stroke-width:0.5"
       id="path13004" />
    <path
       d="M 1419.4392,2099.1381 V 1985.7522"
       style="fill:none;stroke:#00ff00;stroke-width:0.5"
       id="path13006" />
    <path
       d="m 1438.3368,2099.1381 h -18.8976"
       style="fill:none;stroke:#00ff00;stroke-width:0.5"
       id="path13008" />
    <path
       d="M 1438.3368,2250.3192 V 2099.1381"
       style="fill:none;stroke:#00ff00;stroke-width:0.5"
       id="path13010" />
    <path
       d="m 1419.4392,2250.3192 h 18.8976"
       style="fill:none;stroke:#00ff00;stroke-width:0.5"
       id="path13012" />
    <path
       d="m 1419.4392,2250.3192 c -10.4369,0 -18.8976,8.4608 -18.8976,18.8976"
       style="fill:none;stroke:#00ff00;stroke-width:0.5"
       id="path13014" />
    <path
       d="m 1400.5416,2325.9097 v -56.6929"
       style="fill:none;stroke:#00ff00;stroke-width:0.5"
       id="path13016" />
    <path
       d="m 1487.4707,2325.9097 h -86.9291"
       style="fill:none;stroke:#00ff00;stroke-width:0.5"
       id="path13018" />
    <path
       d="m 1487.4707,2325.9097 v 18.8976"
       style="fill:none;stroke:#00ff00;stroke-width:0.5"
       id="path13020" />
    <path
       d="m 1487.4707,2344.8073 h 105.8268"
       style="fill:none;stroke:#00ff00;stroke-width:0.5"
       id="path13022" />
    <path
       d="m 1593.2975,2325.9097 v 18.8976"
       style="fill:none;stroke:#00ff00;stroke-width:0.5"
       id="path13024" />
    <path
       d="m 1593.2975,2325.9097 h 81.8897"
       style="fill:none;stroke:#00ff00;stroke-width:0.5"
       id="path13026" />
    <path
       d="m 1675.1872,2325.9097 v 18.8976"
       style="fill:none;stroke:#00ff00;stroke-width:0.5"
       id="path13028" />
    <path
       d="M 1675.1872,2344.8073 H 1781.014"
       style="fill:none;stroke:#00ff00;stroke-width:0.5"
       id="path13030" />
    <path
       d="m 1781.014,2344.8073 v -18.8976"
       style="fill:none;stroke:#00ff00;stroke-width:0.5"
       id="path13032" />
    <path
       d="m 1781.014,2325.9097 h 81.8897"
       style="fill:none;stroke:#00ff00;stroke-width:0.5"
       id="path13034" />
    <path
       d="m 1862.9037,2325.9097 v 18.8976"
       style="fill:none;stroke:#00ff00;stroke-width:0.5"
       id="path13036" />
    <path
       d="m 1862.9037,2344.8073 h 105.8268"
       style="fill:none;stroke:#00ff00;stroke-width:0.5"
       id="path13038" />
    <path
       d="m 1968.7305,2325.9097 v 18.8976"
       style="fill:none;stroke:#00ff00;stroke-width:0.5"
       id="path13040" />
    <path
       d="m 1968.7305,2325.9097 h 81.8898"
       style="fill:none;stroke:#00ff00;stroke-width:0.5"
       id="path13042" />
    <path
       d="m 2050.6203,2325.9097 v 18.8976"
       style="fill:none;stroke:#00ff00;stroke-width:0.5"
       id="path13044" />
    <path
       d="M 2182.9037,2344.8073 H 2050.6203"
       style="fill:none;stroke:#00ff00;stroke-width:0.5"
       id="path13046" />
    <path
       d="m 1871.0776,2145.0398 c -8.5583,0 -15.496,6.9379 -15.496,15.4962 0,8.5581 6.9377,15.496 15.496,15.496 8.5583,0 15.4961,-6.9379 15.4961,-15.496 0,-8.5583 -6.9378,-15.4962 -15.4961,-15.4962 0,0 0,0 0,0 z"
       style="fill:none;stroke:#00ff00;stroke-width:0.5"
       id="path13048" />
    <path
       d="m 2080.0009,2087.726 c -3.5485,0 -6.4252,-2.8767 -6.4252,-6.4252 0,-3.5486 2.8767,-6.4252 6.4252,-6.4252 3.5486,0 6.4252,2.8766 6.4252,6.4252 0,3.5485 -2.8766,6.4252 -6.4252,6.4252 0,0 0,0 0,0 z"
       style="fill:none;stroke:#00ff00;stroke-width:0.5"
       id="path13050" />
    <path
       d="m 2080.0009,1959.222 c -3.5485,0 -6.4252,-2.8767 -6.4252,-6.4252 0,-3.5486 2.8767,-6.4252 6.4252,-6.4252 3.5486,0 6.4252,2.8766 6.4252,6.4252 0,3.5485 -2.8766,6.4252 -6.4252,6.4252 0,0 0,0 0,0 z"
       style="fill:none;stroke:#00ff00;stroke-width:0.5"
       id="path13052" />
    <path
       d="m 1842.3193,1994.2977 c 3.2919,1.7892 4.51,5.9081 2.7208,9.2 -1.789,3.2919 -5.9081,4.5101 -9.2,2.7209 -3.2918,-1.7892 -4.5101,-5.9081 -2.7209,-9.2 1.7892,-3.292 5.9081,-4.5101 9.2001,-2.7209 0,0 0,0 0,0 z"
       style="fill:none;stroke:#00ff00;stroke-width:0.5"
       id="path13054" />
    <path
       d="m 1802.1893,2058.2789 c -3.5485,0 -6.4252,-2.8767 -6.4252,-6.4252 0,-3.5485 2.8767,-6.4252 6.4252,-6.4252 3.5486,0 6.4252,2.8767 6.4252,6.4252 0,3.5485 -2.8766,6.4252 -6.4252,6.4252 0,0 0,0 0,0 z"
       style="fill:none;stroke:#00ff00;stroke-width:0.5"
       id="path13056" />
    <path
       d="m 1802.1893,2201.9009 c 3.5486,0 6.4252,-2.8767 6.4252,-6.4252 0,-3.5485 -2.8766,-6.4252 -6.4252,-6.4252 -3.5485,0 -6.4252,2.8767 -6.4252,6.4252 0,3.5485 2.8767,6.4252 6.4252,6.4252 0,0 0,0 0,0 z"
       style="fill:none;stroke:#00ff00;stroke-width:0.5"
       id="path13058" />
    <path
       d="m 1904.1632,2232.2984 c 5.1079,-2.3819 7.3177,-8.4535 4.9359,-13.5614 -2.3819,-5.1078 -8.4535,-7.3177 -13.5614,-4.9358 -5.1078,2.3818 -7.3177,8.4534 -4.9358,13.5613 2.3818,5.1079 8.4534,7.3177 13.5613,4.9359 0,0 0,0 0,0 z"
       style="fill:none;stroke:#00ff00;stroke-width:0.5"
       id="path13060" />
    <path
       d="m 1837.2364,2088.7736 c -5.1079,2.3818 -7.3177,8.4534 -4.9359,13.5613 2.3819,5.1079 8.4535,7.3176 13.5614,4.9357 5.1078,-2.3818 7.3177,-8.4534 4.9358,-13.5613 -2.3818,-5.1079 -8.4534,-7.3177 -13.5613,-4.9357 0,0 0,0 0,0 z"
       style="fill:none;stroke:#00ff00;stroke-width:0.5"
       id="path13062" />
    <path
       d="m 2056.4107,1994.2977 c 3.073,1.7743 4.126,5.7039 2.3517,8.7769 -1.7743,3.0732 -5.7039,4.1262 -8.7769,2.3519 -3.0732,-1.7744 -4.1262,-5.7039 -2.3519,-8.7771 1.7743,-3.073 5.7039,-4.126 8.7771,-2.3517 0,0 0,0 0,0 z"
       style="fill:none;stroke:#00ff00;stroke-width:0.5"
       id="path13064" />
    <path
       d="m 2042.5185,1898.9926 c 8.7671,0 15.874,7.1071 15.874,15.874 0,8.767 -7.1069,15.874 -15.874,15.874 -8.7669,0 -15.874,-7.107 -15.874,-15.874 0,-8.7669 7.1071,-15.874 15.874,-15.874 0,0 0,0 0,0 z"
       style="fill:none;stroke:#00ff00;stroke-width:0.5"
       id="path13066" />
    <path
       d="m 2042.5185,2106.8666 c 8.7671,0 15.874,7.1071 15.874,15.874 0,8.767 -7.1069,15.874 -15.874,15.874 -8.7669,0 -15.874,-7.107 -15.874,-15.874 0,-8.7669 7.1071,-15.874 15.874,-15.874 0,0 0,0 0,0 z"
       style="fill:none;stroke:#00ff00;stroke-width:0.5"
       id="path13068" />
    <path
       d="m 1767.7719,1915.1134 c 8.7669,0 15.874,7.1071 15.874,15.874 0,8.767 -7.1071,15.874 -15.874,15.874 -8.767,0 -15.874,-7.107 -15.874,-15.874 0,-8.7669 7.107,-15.874 15.874,-15.874 0,0 0,0 0,0 z"
       style="fill:none;stroke:#00ff00;stroke-width:0.5"
       id="path13070" />
    <path
       d="m 1767.7719,2217.4756 c -8.767,0 -15.874,7.107 -15.874,15.8741 0,8.7669 7.107,15.874 15.874,15.874 8.7669,0 15.874,-7.1071 15.874,-15.874 0,-8.7671 -7.1071,-15.8741 -15.874,-15.8741 0,0 0,0 0,0 z"
       style="fill:none;stroke:#00ff00;stroke-width:0.5"
       id="path13072" />
    <use
       xlink:href="#block_2"
       id="use13074"
       x="0"
       y="0"
       width="100%"
       height="100%" />
    <use
       xlink:href="#block_5"
       id="use13076"
       x="0"
       y="0"
       width="100%"
       height="100%" />
    <use
       xlink:href="#block_8"
       id="use13078"
       x="0"
       y="0"
       width="100%"
       height="100%" />
    <use
       xlink:href="#block_11"
       id="use13080"
       x="0"
       y="0"
       width="100%"
       height="100%" />
  </g>
  <g
     inkscape:groupmode="layer"
     inkscape:label="gravure"
     id="g13362"
     transform="translate(-41.078933,-1165.8277)">
    <path
       d="m 391.53786,2409.0249 c 0,1.5655 -1.26907,2.8347 -2.83467,2.8347 -1.56547,0 -2.83467,-1.2692 -2.83467,-2.8347 0,-1.5655 1.2692,-2.8347 2.83467,-2.8347 1.5656,0 2.83467,1.2692 2.83467,2.8347 z"
       style="fill:none;stroke:#000000"
       id="path13202" />
    <path
       d="m 400.98667,2418.4737 c 0,1.5656 -1.26908,2.8347 -2.83467,2.8347 -1.56548,0 -2.83467,-1.2691 -2.83467,-2.8347 0,-1.5655 1.26919,-2.8347 2.83467,-2.8347 1.56559,0 2.83467,1.2692 2.83467,2.8347 z"
       style="fill:none;stroke:#000000"
       id="path13204" />
    <path
       d="m 391.53786,2427.9225 c 0,1.5656 -1.26907,2.8347 -2.83467,2.8347 -1.56547,0 -2.83467,-1.2691 -2.83467,-2.8347 0,-1.5655 1.2692,-2.8347 2.83467,-2.8347 1.5656,0 2.83467,1.2692 2.83467,2.8347 z"
       style="fill:none;stroke:#000000"
       id="path13206" />
    <path
       d="m 413.08119,2409.0249 c 0,1.5655 -1.26919,2.8347 -2.83467,2.8347 -1.5656,0 -2.83466,-1.2692 -2.83466,-2.8347 0,-1.5655 1.26906,-2.8347 2.83466,-2.8347 1.56548,0 2.83467,1.2692 2.83467,2.8347 z"
       style="fill:none;stroke:#000000"
       id="path13208" />
    <path
       d="m 422.52999,2409.0249 c 0,1.5655 -1.26907,2.8347 -2.83467,2.8347 -1.56546,0 -2.83466,-1.2692 -2.83466,-2.8347 0,-1.5655 1.2692,-2.8347 2.83466,-2.8347 1.5656,0 2.83467,1.2692 2.83467,2.8347 z"
       style="fill:none;stroke:#000000"
       id="path13210" />
    <path
       d="m 413.08119,2418.4737 c 0,1.5656 -1.26919,2.8347 -2.83467,2.8347 -1.5656,0 -2.83466,-1.2691 -2.83466,-2.8347 0,-1.5655 1.26906,-2.8347 2.83466,-2.8347 1.56548,0 2.83467,1.2692 2.83467,2.8347 z"
       style="fill:none;stroke:#000000"
       id="path13212" />
    <path
       d="m 413.08119,2427.9225 c 0,1.5656 -1.26919,2.8347 -2.83467,2.8347 -1.5656,0 -2.83466,-1.2691 -2.83466,-2.8347 0,-1.5655 1.26906,-2.8347 2.83466,-2.8347 1.56548,0 2.83467,1.2692 2.83467,2.8347 z"
       style="fill:none;stroke:#000000"
       id="path13214" />
    <path
       d="m 434.62452,2409.0249 c 0,1.5655 -1.2692,2.8347 -2.83466,2.8347 -1.5656,0 -2.83467,-1.2692 -2.83467,-2.8347 0,-1.5655 1.26907,-2.8347 2.83467,-2.8347 1.56546,0 2.83466,1.2692 2.83466,2.8347 z"
       style="fill:none;stroke:#000000"
       id="path13216" />
    <path
       d="m 444.07333,2418.4737 c 0,1.5656 -1.26921,2.8347 -2.83466,2.8347 -1.56562,0 -2.83467,-1.2691 -2.83467,-2.8347 0,-1.5655 1.26905,-2.8347 2.83467,-2.8347 1.56545,0 2.83466,1.2692 2.83466,2.8347 z"
       style="fill:none;stroke:#000000"
       id="path13218" />
    <path
       d="m 456.16772,2409.0249 c 0,1.5655 -1.26905,2.8347 -2.83453,2.8347 -1.5656,0 -2.83467,-1.2692 -2.83467,-2.8347 0,-1.5655 1.26907,-2.8347 2.83467,-2.8347 1.56548,0 2.83453,1.2692 2.83453,2.8347 z"
       style="fill:none;stroke:#000000"
       id="path13220" />
    <path
       d="m 465.61665,2409.0249 c 0,1.5655 -1.26919,2.8347 -2.83466,2.8347 -1.5656,0 -2.83467,-1.2692 -2.83467,-2.8347 0,-1.5655 1.26907,-2.8347 2.83467,-2.8347 1.56547,0 2.83466,1.2692 2.83466,2.8347 z"
       style="fill:none;stroke:#000000"
       id="path13222" />
    <path
       d="m 465.61665,2418.4737 c 0,1.5656 -1.26919,2.8347 -2.83466,2.8347 -1.5656,0 -2.83467,-1.2691 -2.83467,-2.8347 0,-1.5655 1.26907,-2.8347 2.83467,-2.8347 1.56547,0 2.83466,1.2692 2.83466,2.8347 z"
       style="fill:none;stroke:#000000"
       id="path13224" />
    <path
       d="m 456.16772,2427.9225 c 0,1.5656 -1.26905,2.8347 -2.83453,2.8347 -1.5656,0 -2.83467,-1.2691 -2.83467,-2.8347 0,-1.5655 1.26907,-2.8347 2.83467,-2.8347 1.56548,0 2.83453,1.2692 2.83453,2.8347 z"
       style="fill:none;stroke:#000000"
       id="path13226" />
    <path
       d="m 508.70319,2409.0249 c 0,1.5655 -1.26907,2.8347 -2.83467,2.8347 -1.56547,0 -2.83467,-1.2692 -2.83467,-2.8347 0,-1.5655 1.2692,-2.8347 2.83467,-2.8347 1.5656,0 2.83467,1.2692 2.83467,2.8347 z"
       style="fill:none;stroke:#000000"
       id="path13228" />
    <path
       d="m 499.25439,2418.4737 c 0,1.5656 -1.26906,2.8347 -2.83467,2.8347 -1.56547,0 -2.83467,-1.2691 -2.83467,-2.8347 0,-1.5655 1.2692,-2.8347 2.83467,-2.8347 1.56561,0 2.83467,1.2692 2.83467,2.8347 z"
       style="fill:none;stroke:#000000"
       id="path13230" />
    <path
       d="m 499.25439,2427.9225 c 0,1.5656 -1.26906,2.8347 -2.83467,2.8347 -1.56547,0 -2.83467,-1.2691 -2.83467,-2.8347 0,-1.5655 1.2692,-2.8347 2.83467,-2.8347 1.56561,0 2.83467,1.2692 2.83467,2.8347 z"
       style="fill:none;stroke:#000000"
       id="path13232" />
    <path
       d="m 520.79772,2409.0249 c 0,1.5655 -1.2692,2.8347 -2.83467,2.8347 -1.5656,0 -2.83466,-1.2692 -2.83466,-2.8347 0,-1.5655 1.26906,-2.8347 2.83466,-2.8347 1.56547,0 2.83467,1.2692 2.83467,2.8347 z"
       style="fill:none;stroke:#000000"
       id="path13234" />
    <path
       d="m 530.24652,2418.4737 c 0,1.5656 -1.26907,2.8347 -2.83467,2.8347 -1.56546,0 -2.83466,-1.2691 -2.83466,-2.8347 0,-1.5655 1.2692,-2.8347 2.83466,-2.8347 1.5656,0 2.83467,1.2692 2.83467,2.8347 z"
       style="fill:none;stroke:#000000"
       id="path13236" />
    <path
       d="m 520.79772,2427.9225 c 0,1.5656 -1.2692,2.8347 -2.83467,2.8347 -1.5656,0 -2.83466,-1.2691 -2.83466,-2.8347 0,-1.5655 1.26906,-2.8347 2.83466,-2.8347 1.56547,0 2.83467,1.2692 2.83467,2.8347 z"
       style="fill:none;stroke:#000000"
       id="path13238" />
    <path
       d="m 542.34105,2409.0249 c 0,1.5655 -1.2692,2.8347 -2.83466,2.8347 -1.5656,0 -2.83467,-1.2692 -2.83467,-2.8347 0,-1.5655 1.26907,-2.8347 2.83467,-2.8347 1.56546,0 2.83466,1.2692 2.83466,2.8347 z"
       style="fill:none;stroke:#000000"
       id="path13240" />
    <path
       d="m 542.34105,2427.9225 c 0,1.5656 -1.2692,2.8347 -2.83466,2.8347 -1.5656,0 -2.83467,-1.2691 -2.83467,-2.8347 0,-1.5655 1.26907,-2.8347 2.83467,-2.8347 1.56546,0 2.83466,1.2692 2.83466,2.8347 z"
       style="fill:none;stroke:#000000"
       id="path13242" />
    <path
       d="m 551.78985,2427.9225 c 0,1.5656 -1.2692,2.8347 -2.83466,2.8347 -1.5656,0 -2.83467,-1.2691 -2.83467,-2.8347 0,-1.5655 1.26907,-2.8347 2.83467,-2.8347 1.56546,0 2.83466,1.2692 2.83466,2.8347 z"
       style="fill:none;stroke:#000000"
       id="path13244" />
    <path
       d="m 563.88425,2409.0249 c 0,1.5655 -1.26906,2.8347 -2.83453,2.8347 -1.5656,0 -2.83467,-1.2692 -2.83467,-2.8347 0,-1.5655 1.26907,-2.8347 2.83467,-2.8347 1.56547,0 2.83453,1.2692 2.83453,2.8347 z"
       style="fill:none;stroke:#000000"
       id="path13246" />
    <path
       d="m 563.88425,2418.4737 c 0,1.5656 -1.26906,2.8347 -2.83453,2.8347 -1.5656,0 -2.83467,-1.2691 -2.83467,-2.8347 0,-1.5655 1.26907,-2.8347 2.83467,-2.8347 1.56547,0 2.83453,1.2692 2.83453,2.8347 z"
       style="fill:none;stroke:#000000"
       id="path13248" />
    <path
       d="m 573.33318,2418.4737 c 0,1.5656 -1.26918,2.8347 -2.83466,2.8347 -1.5656,0 -2.83467,-1.2691 -2.83467,-2.8347 0,-1.5655 1.26907,-2.8347 2.83467,-2.8347 1.56548,0 2.83466,1.2692 2.83466,2.8347 z"
       style="fill:none;stroke:#000000"
       id="path13250" />
    <path
       d="m 563.88425,2427.9225 c 0,1.5656 -1.26906,2.8347 -2.83453,2.8347 -1.5656,0 -2.83467,-1.2691 -2.83467,-2.8347 0,-1.5655 1.26907,-2.8347 2.83467,-2.8347 1.56547,0 2.83453,1.2692 2.83453,2.8347 z"
       style="fill:none;stroke:#000000"
       id="path13252" />
    <path
       d="m 585.42759,2409.0249 c 0,1.5655 -1.26907,2.8347 -2.83467,2.8347 -1.56547,0 -2.83454,-1.2692 -2.83454,-2.8347 0,-1.5655 1.26907,-2.8347 2.83454,-2.8347 1.5656,0 2.83467,1.2692 2.83467,2.8347 z"
       style="fill:none;stroke:#000000"
       id="path13254" />
    <path
       d="m 594.87639,2409.0249 c 0,1.5655 -1.26907,2.8347 -2.83454,2.8347 -1.5656,0 -2.83467,-1.2692 -2.83467,-2.8347 0,-1.5655 1.26907,-2.8347 2.83467,-2.8347 1.56547,0 2.83454,1.2692 2.83454,2.8347 z"
       style="fill:none;stroke:#000000"
       id="path13256" />
    <path
       d="m 606.97092,2409.0249 c 0,1.5655 -1.26907,2.8347 -2.83467,2.8347 -1.56547,0 -2.83466,-1.2692 -2.83466,-2.8347 0,-1.5655 1.26919,-2.8347 2.83466,-2.8347 1.5656,0 2.83467,1.2692 2.83467,2.8347 z"
       style="fill:none;stroke:#000000"
       id="path13258" />
    <path
       d="m 616.41972,2418.4737 c 0,1.5656 -1.26905,2.8347 -2.83467,2.8347 -1.56547,0 -2.83467,-1.2691 -2.83467,-2.8347 0,-1.5655 1.2692,-2.8347 2.83467,-2.8347 1.56562,0 2.83467,1.2692 2.83467,2.8347 z"
       style="fill:none;stroke:#000000"
       id="path13260" />
    <path
       d="m 650.05758,2409.0249 c 0,1.5655 -1.2692,2.8347 -2.83466,2.8347 -1.56559,0 -2.83467,-1.2692 -2.83467,-2.8347 0,-1.5655 1.26908,-2.8347 2.83467,-2.8347 1.56546,0 2.83466,1.2692 2.83466,2.8347 z"
       style="fill:none;stroke:#000000"
       id="path13262" />
    <path
       d="m 650.05758,2418.4737 c 0,1.5656 -1.2692,2.8347 -2.83466,2.8347 -1.56559,0 -2.83467,-1.2691 -2.83467,-2.8347 0,-1.5655 1.26908,-2.8347 2.83467,-2.8347 1.56546,0 2.83466,1.2692 2.83466,2.8347 z"
       style="fill:none;stroke:#000000"
       id="path13264" />
    <path
       d="m 693.14412,2409.0249 c 0,1.5655 -1.26907,2.8347 -2.83467,2.8347 -1.56545,0 -2.83453,-1.2692 -2.83453,-2.8347 0,-1.5655 1.26908,-2.8347 2.83453,-2.8347 1.5656,0 2.83467,1.2692 2.83467,2.8347 z"
       style="fill:none;stroke:#000000"
       id="path13266" />
    <path
       d="m 724.13625,2409.0249 c 0,1.5655 -1.26907,2.8347 -2.83467,2.8347 -1.56546,0 -2.83467,-1.2692 -2.83467,-2.8347 0,-1.5655 1.26921,-2.8347 2.83467,-2.8347 1.5656,0 2.83467,1.2692 2.83467,2.8347 z"
       style="fill:none;stroke:#000000"
       id="path13268" />
    <path
       d="m 714.68745,2418.4737 c 0,1.5656 -1.26907,2.8347 -2.83467,2.8347 -1.56546,0 -2.83467,-1.2691 -2.83467,-2.8347 0,-1.5655 1.26921,-2.8347 2.83467,-2.8347 1.5656,0 2.83467,1.2692 2.83467,2.8347 z"
       style="fill:none;stroke:#000000"
       id="path13270" />
    <path
       d="m 736.23078,2409.0249 c 0,1.5655 -1.2692,2.8347 -2.83467,2.8347 -1.56544,0 -2.83466,-1.2692 -2.83466,-2.8347 0,-1.5655 1.26922,-2.8347 2.83466,-2.8347 1.56547,0 2.83467,1.2692 2.83467,2.8347 z"
       style="fill:none;stroke:#000000"
       id="path13272" />
    <path
       d="m 736.23078,2418.4737 c 0,1.5656 -1.2692,2.8347 -2.83467,2.8347 -1.56544,0 -2.83466,-1.2691 -2.83466,-2.8347 0,-1.5655 1.26922,-2.8347 2.83466,-2.8347 1.56547,0 2.83467,1.2692 2.83467,2.8347 z"
       style="fill:none;stroke:#000000"
       id="path13274" />
    <path
       d="m 736.23078,2427.9225 c 0,1.5656 -1.2692,2.8347 -2.83467,2.8347 -1.56544,0 -2.83466,-1.2691 -2.83466,-2.8347 0,-1.5655 1.26922,-2.8347 2.83466,-2.8347 1.56547,0 2.83467,1.2692 2.83467,2.8347 z"
       style="fill:none;stroke:#000000"
       id="path13276" />
    <path
       d="m 757.77411,2409.0249 c 0,1.5655 -1.2692,2.8347 -2.83466,2.8347 -1.5656,0 -2.83467,-1.2692 -2.83467,-2.8347 0,-1.5655 1.26907,-2.8347 2.83467,-2.8347 1.56546,0 2.83466,1.2692 2.83466,2.8347 z"
       style="fill:none;stroke:#000000"
       id="path13278" />
    <path
       d="m 757.77411,2418.4737 c 0,1.5656 -1.2692,2.8347 -2.83466,2.8347 -1.5656,0 -2.83467,-1.2691 -2.83467,-2.8347 0,-1.5655 1.26907,-2.8347 2.83467,-2.8347 1.56546,0 2.83466,1.2692 2.83466,2.8347 z"
       style="fill:none;stroke:#000000"
       id="path13280" />
    <path
       d="m 757.77411,2427.9225 c 0,1.5656 -1.2692,2.8347 -2.83466,2.8347 -1.5656,0 -2.83467,-1.2691 -2.83467,-2.8347 0,-1.5655 1.26907,-2.8347 2.83467,-2.8347 1.56546,0 2.83466,1.2692 2.83466,2.8347 z"
       style="fill:none;stroke:#000000"
       id="path13282" />
    <path
       d="m 779.31733,2409.0249 c 0,1.5655 -1.26908,2.8347 -2.83455,2.8347 -1.5656,0 -2.83467,-1.2692 -2.83467,-2.8347 0,-1.5655 1.26907,-2.8347 2.83467,-2.8347 1.56547,0 2.83455,1.2692 2.83455,2.8347 z"
       style="fill:none;stroke:#000000"
       id="path13284" />
    <path
       d="m 788.76625,2418.4737 c 0,1.5656 -1.2692,2.8347 -2.83467,2.8347 -1.5656,0 -2.83467,-1.2691 -2.83467,-2.8347 0,-1.5655 1.26907,-2.8347 2.83467,-2.8347 1.56547,0 2.83467,1.2692 2.83467,2.8347 z"
       style="fill:none;stroke:#000000"
       id="path13286" />
    <path
       d="m 822.404,2409.0249 c 0,1.5655 -1.26909,2.8347 -2.83467,2.8347 -1.56548,0 -2.83466,-1.2692 -2.83466,-2.8347 0,-1.5655 1.26918,-2.8347 2.83466,-2.8347 1.56558,0 2.83467,1.2692 2.83467,2.8347 z"
       style="fill:none;stroke:#000000"
       id="path13288" />
    <path
       d="m 831.85278,2418.4737 c 0,1.5656 -1.26907,2.8347 -2.83467,2.8347 -1.56546,0 -2.83453,-1.2691 -2.83453,-2.8347 0,-1.5655 1.26907,-2.8347 2.83453,-2.8347 1.5656,0 2.83467,1.2692 2.83467,2.8347 z"
       style="fill:none;stroke:#000000"
       id="path13290" />
    <path
       d="m 843.94731,2409.0249 c 0,1.5655 -1.26907,2.8347 -2.83466,2.8347 -1.56547,0 -2.83467,-1.2692 -2.83467,-2.8347 0,-1.5655 1.2692,-2.8347 2.83467,-2.8347 1.56559,0 2.83466,1.2692 2.83466,2.8347 z"
       style="fill:none;stroke:#000000"
       id="path13292" />
    <path
       d="m 853.39611,2409.0249 c 0,1.5655 -1.26907,2.8347 -2.83466,2.8347 -1.56545,0 -2.83467,-1.2692 -2.83467,-2.8347 0,-1.5655 1.26922,-2.8347 2.83467,-2.8347 1.56559,0 2.83466,1.2692 2.83466,2.8347 z"
       style="fill:none;stroke:#000000"
       id="path13294" />
    <path
       d="m 843.94731,2427.9225 c 0,1.5656 -1.26907,2.8347 -2.83466,2.8347 -1.56547,0 -2.83467,-1.2691 -2.83467,-2.8347 0,-1.5655 1.2692,-2.8347 2.83467,-2.8347 1.56559,0 2.83466,1.2692 2.83466,2.8347 z"
       style="fill:none;stroke:#000000"
       id="path13296" />
    <path
       d="m 865.49067,2409.0249 c 0,1.5655 -1.26922,2.8347 -2.83467,2.8347 -1.56562,0 -2.83467,-1.2692 -2.83467,-2.8347 0,-1.5655 1.26905,-2.8347 2.83467,-2.8347 1.56545,0 2.83467,1.2692 2.83467,2.8347 z"
       style="fill:none;stroke:#000000"
       id="path13298" />
    <path
       d="m 865.49067,2418.4737 c 0,1.5656 -1.26922,2.8347 -2.83467,2.8347 -1.56562,0 -2.83467,-1.2691 -2.83467,-2.8347 0,-1.5655 1.26905,-2.8347 2.83467,-2.8347 1.56545,0 2.83467,1.2692 2.83467,2.8347 z"
       style="fill:none;stroke:#000000"
       id="path13300" />
    <path
       d="m 887.03384,2409.0249 c 0,1.5655 -1.26906,2.8347 -2.83453,2.8347 -1.5656,0 -2.83467,-1.2692 -2.83467,-2.8347 0,-1.5655 1.26907,-2.8347 2.83467,-2.8347 1.56547,0 2.83453,1.2692 2.83453,2.8347 z"
       style="fill:none;stroke:#000000"
       id="path13302" />
    <path
       d="m 896.48278,2418.4737 c 0,1.5656 -1.2692,2.8347 -2.83467,2.8347 -1.5656,0 -2.83467,-1.2691 -2.83467,-2.8347 0,-1.5655 1.26907,-2.8347 2.83467,-2.8347 1.56547,0 2.83467,1.2692 2.83467,2.8347 z"
       style="fill:none;stroke:#000000"
       id="path13304" />
    <path
       d="m 887.03384,2427.9225 c 0,1.5656 -1.26906,2.8347 -2.83453,2.8347 -1.5656,0 -2.83467,-1.2691 -2.83467,-2.8347 0,-1.5655 1.26907,-2.8347 2.83467,-2.8347 1.56547,0 2.83453,1.2692 2.83453,2.8347 z"
       style="fill:none;stroke:#000000"
       id="path13306" />
    <path
       d="m 918.02598,2409.0249 c 0,1.5655 -1.26907,2.8347 -2.83454,2.8347 -1.5656,0 -2.83466,-1.2692 -2.83466,-2.8347 0,-1.5655 1.26906,-2.8347 2.83466,-2.8347 1.56547,0 2.83454,1.2692 2.83454,2.8347 z"
       style="fill:none;stroke:#000000"
       id="path13308" />
    <path
       d="m 908.57718,2418.4737 c 0,1.5656 -1.26907,2.8347 -2.83467,2.8347 -1.56547,0 -2.83451,-1.2691 -2.83451,-2.8347 0,-1.5655 1.26904,-2.8347 2.83451,-2.8347 1.5656,0 2.83467,1.2692 2.83467,2.8347 z"
       style="fill:none;stroke:#000000"
       id="path13310" />
    <path
       d="m 908.57718,2427.9225 c 0,1.5656 -1.26907,2.8347 -2.83467,2.8347 -1.56547,0 -2.83451,-1.2691 -2.83451,-2.8347 0,-1.5655 1.26904,-2.8347 2.83451,-2.8347 1.5656,0 2.83467,1.2692 2.83467,2.8347 z"
       style="fill:none;stroke:#000000"
       id="path13312" />
    <path
       d="m 939.56933,2409.0249 c 0,1.5655 -1.26909,2.8347 -2.83466,2.8347 -1.56549,0 -2.83456,-1.2692 -2.83456,-2.8347 0,-1.5655 1.26907,-2.8347 2.83456,-2.8347 1.56557,0 2.83466,1.2692 2.83466,2.8347 z"
       style="fill:none;stroke:#000000"
       id="path13314" />
    <path
       d="m 930.12051,2418.4737 c 0,1.5656 -1.26907,2.8347 -2.83467,2.8347 -1.56546,0 -2.83466,-1.2691 -2.83466,-2.8347 0,-1.5655 1.2692,-2.8347 2.83466,-2.8347 1.5656,0 2.83467,1.2692 2.83467,2.8347 z"
       style="fill:none;stroke:#000000"
       id="path13316" />
    <path
       d="m 930.12051,2427.9225 c 0,1.5656 -1.26907,2.8347 -2.83467,2.8347 -1.56546,0 -2.83466,-1.2691 -2.83466,-2.8347 0,-1.5655 1.2692,-2.8347 2.83466,-2.8347 1.5656,0 2.83467,1.2692 2.83467,2.8347 z"
       style="fill:none;stroke:#000000"
       id="path13318" />
    <path
       d="m 951.66384,2409.0249 c 0,1.5655 -1.26906,2.8347 -2.83466,2.8347 -1.56547,0 -2.83467,-1.2692 -2.83467,-2.8347 0,-1.5655 1.2692,-2.8347 2.83467,-2.8347 1.5656,0 2.83466,1.2692 2.83466,2.8347 z"
       style="fill:none;stroke:#000000"
       id="path13320" />
    <path
       d="m 961.11264,2418.4737 c 0,1.5656 -1.26906,2.8347 -2.83466,2.8347 -1.56547,0 -2.83467,-1.2691 -2.83467,-2.8347 0,-1.5655 1.2692,-2.8347 2.83467,-2.8347 1.5656,0 2.83466,1.2692 2.83466,2.8347 z"
       style="fill:none;stroke:#000000"
       id="path13322" />
    <path
       d="m 973.20717,2409.0249 c 0,1.5655 -1.26919,2.8347 -2.83466,2.8347 -1.5656,0 -2.83467,-1.2692 -2.83467,-2.8347 0,-1.5655 1.26907,-2.8347 2.83467,-2.8347 1.56547,0 2.83466,1.2692 2.83466,2.8347 z"
       style="fill:none;stroke:#000000"
       id="path13324" />
    <path
       d="m 973.20717,2418.4737 c 0,1.5656 -1.26919,2.8347 -2.83466,2.8347 -1.5656,0 -2.83467,-1.2691 -2.83467,-2.8347 0,-1.5655 1.26907,-2.8347 2.83467,-2.8347 1.56547,0 2.83466,1.2692 2.83466,2.8347 z"
       style="fill:none;stroke:#000000"
       id="path13326" />
    <path
       d="m 982.656,2418.4737 c 0,1.5656 -1.26923,2.8347 -2.83467,2.8347 -1.56562,0 -2.83466,-1.2691 -2.83466,-2.8347 0,-1.5655 1.26904,-2.8347 2.83466,-2.8347 1.56544,0 2.83467,1.2692 2.83467,2.8347 z"
       style="fill:none;stroke:#000000"
       id="path13328" />
    <path
       d="m 973.20717,2427.9225 c 0,1.5656 -1.26919,2.8347 -2.83466,2.8347 -1.5656,0 -2.83467,-1.2691 -2.83467,-2.8347 0,-1.5655 1.26907,-2.8347 2.83467,-2.8347 1.56547,0 2.83466,1.2692 2.83466,2.8347 z"
       style="fill:none;stroke:#000000"
       id="path13330" />
    <path
       d="m 671.60078,2409.0249 c 0,1.5655 -1.26906,2.8347 -2.83453,2.8347 -1.5656,0 -2.83467,-1.2692 -2.83467,-2.8347 0,-1.5655 1.26907,-2.8347 2.83467,-2.8347 1.56547,0 2.83453,1.2692 2.83453,2.8347 z"
       style="fill:none;stroke:#000000"
       id="path13332" />
    <path
       d="m 671.60078,2418.4737 c 0,1.5656 -1.26906,2.8347 -2.83453,2.8347 -1.5656,0 -2.83467,-1.2691 -2.83467,-2.8347 0,-1.5655 1.26907,-2.8347 2.83467,-2.8347 1.56547,0 2.83453,1.2692 2.83453,2.8347 z"
       style="fill:none;stroke:#000000"
       id="path13334" />
    <path
       d="m 681.04972,2418.4737 c 0,1.5656 -1.2692,2.8347 -2.83467,2.8347 -1.5656,0 -2.83467,-1.2691 -2.83467,-2.8347 0,-1.5655 1.26907,-2.8347 2.83467,-2.8347 1.56547,0 2.83467,1.2692 2.83467,2.8347 z"
       style="fill:none;stroke:#000000"
       id="path13336" />
    <path
       d="m 671.60078,2427.9225 c 0,1.5656 -1.26906,2.8347 -2.83453,2.8347 -1.5656,0 -2.83467,-1.2691 -2.83467,-2.8347 0,-1.5655 1.26907,-2.8347 2.83467,-2.8347 1.56547,0 2.83453,1.2692 2.83453,2.8347 z"
       style="fill:none;stroke:#000000"
       id="path13338" />
    <use
       xlink:href="#block_14"
       id="use13344"
       x="0"
       y="0"
       width="100%"
       height="100%" />
    <use
       xlink:href="#block_15"
       id="use13346"
       x="0"
       y="0"
       width="100%"
       height="100%" />
    <path
       d="m 1047.1774,2420.149 c 0,-18.9448 -15.3577,-34.3025 -34.3025,-34.3025 0,0 -655.39504,0 -655.39504,0 -18.9448,0 -34.3024,15.3577 -34.3024,34.3025 0,0 0,0 0,0 0,18.9447 15.3576,34.3024 34.3024,34.3024 0,0 655.39504,0 655.39504,0 18.9448,0 34.3025,-15.3577 34.3025,-34.3024 0,0 0,0 0,0 z"
       style="fill:none;stroke:#000000"
       id="path13348" />
    <path
       d="M 1047.1774,2420.149 Z"
       style="fill:#000000"
       id="path13350" />
    <use
       xlink:href="#block_16"
       id="use13352"
       x="0"
       y="0"
       width="100%"
       height="100%" />
    <path
       d="m 1565.2469,1538.5693 c 0,0 2.1935,-11.794 2.1935,-11.794 0.053,-0.2869 0.3236,-0.6013 0.6003,-0.6984 0,0 8.4342,-3.6153 8.4342,-3.6153 0.2608,-0.1348 0.6694,-0.1087 0.9119,0.058 0,0 10.0163,6.8713 10.0163,6.8713 0.2405,0.1643 0.607,0.1319 0.8148,-0.075 0,0 8.5824,-8.583 8.5824,-8.583 0.2072,-0.2077 0.241,-0.5733 0.075,-0.8142 0,0 -6.994,-10.1912 -6.994,-10.1912 -0.1656,-0.2415 -0.1951,-0.6544 -0.066,-0.9162 0,0 3.3469,-8.1762 3.3469,-8.1762 0.092,-0.2778 0.4023,-0.5482 0.6901,-0.6028 0,0 12.1988,-2.2708 12.1988,-2.2708 0.2883,-0.053 0.5235,-0.3367 0.5235,-0.6294 0,0 0,-12.1388 0,-12.1388 0,-0.2922 -0.2352,-0.5757 -0.5231,-0.6288 0,0 -12.1992,-2.2698 -12.1992,-2.2698 -0.2874,-0.055 -0.598,-0.3246 -0.6897,-0.6028 0,0 -3.3468,-8.1768 -3.3468,-8.1768 -0.1295,-0.2627 -0.1,-0.6762 0.066,-0.9162 0,0 6.994,-10.1912 6.994,-10.1912 0.1656,-0.2414 0.1319,-0.6085 -0.075,-0.8152 0,0 -8.5829,-8.5829 -8.5829,-8.5829 -0.2078,-0.2067 -0.5743,-0.2415 -0.8152,-0.075 0,0 -10.0159,6.8724 -10.0159,6.8724 -0.2425,0.165 -0.6511,0.1906 -0.9119,0.056 0,0 -8.4342,-3.6158 -8.4342,-3.6158 -0.2767,-0.096 -0.5467,-0.4096 -0.6003,-0.6978 0,0 -2.1935,-11.7936 -2.1935,-11.7936 -0.055,-0.2884 -0.3372,-0.5231 -0.6298,-0.5231 0,0 -12.139,4e-4 -12.139,4e-4 -0.2926,0 -0.577,0.2357 -0.6297,0.5231 0,0 -2.1409,11.5044 -2.1409,11.5044 -0.052,0.2877 -0.3255,0.5954 -0.6047,0.6833 0,0 -8.9717,3.5912 -8.9717,3.5912 -0.2632,0.1284 -0.6751,0.098 -0.9162,-0.068 0,0 -9.5228,-6.5353 -9.5228,-6.5353 -0.2414,-0.1651 -0.6084,-0.1314 -0.8161,0.075 0,0 -8.5824,8.5845 -8.5824,8.5845 -0.2063,0.2062 -0.2401,0.5732 -0.075,0.8147 0,0 6.4204,9.3547 6.4204,9.3547 0.1652,0.2405 0.1778,0.6448 0.031,0.8964 0,0 -2.2023,4.1253 -2.2023,4.1253 -0.1337,0.2608 -0.021,0.566 0.2492,0.6781 0,0 20.5528,8.5062 20.5528,8.5062 0.2705,0.1125 0.6157,0 0.7684,-0.2498 0,0 0.6327,-1.0325 0.6327,-1.0325 0.1158,-0.1908 0.3158,-0.4496 0.4998,-0.6529 2.3848,-3.724 6.5566,-6.1952 11.3078,-6.1952 7.4142,0 13.424,6.0112 13.424,13.4244 0,7.4133 -6.0098,13.4236 -13.424,13.4236 -4.7512,0 -8.923,-2.4703 -11.3078,-6.1952 -0.1836,-0.2015 -0.384,-0.4614 -0.5004,-0.6516 0,0 -0.6321,-1.0326 -0.6321,-1.0326 -0.1527,-0.2481 -0.4975,-0.3612 -0.7679,-0.2496 0,0 -20.5542,8.5056 -20.5542,8.5056 -0.2706,0.1122 -0.382,0.4164 -0.2492,0.6782 0,0 2.2021,4.1253 2.2021,4.1253 0.1473,0.2525 0.1353,0.6559 -0.03,0.8968 0,0 -6.4208,9.3547 -6.4208,9.3547 -0.1641,0.2416 -0.1304,0.6085 0.075,0.8142 0,0 8.583,8.5844 8.583,8.5844 0.2077,0.2078 0.5748,0.2415 0.8162,0.075 0,0 9.5218,-6.5344 9.5218,-6.5344 0.2416,-0.1651 0.653,-0.1956 0.9162,-0.068 0,0 8.9718,3.5917 8.9718,3.5917 0.279,0.088 0.5524,0.3942 0.605,0.6824 0,0 2.141,11.5043 2.141,11.5043 0.052,0.2869 0.337,0.5231 0.6297,0.5231 0,0 12.1384,0 12.1384,0 0.2937,10e-4 0.5763,-0.2346 0.6308,-0.5216"
       style="fill:none;stroke:#000000"
       id="path13354" />
    <path
       d="M 1565.2469,1538.5693 Z"
       style="fill:#000000"
       id="path13356" />
    <path
       d="m 1565.2469,2092.3798 c 0,0 2.1935,-11.7941 2.1935,-11.7941 0.053,-0.2868 0.3236,-0.6012 0.6003,-0.6983 0,0 8.4342,-3.6153 8.4342,-3.6153 0.2608,-0.1348 0.6694,-0.1087 0.9119,0.058 0,0 10.0163,6.8714 10.0163,6.8714 0.2405,0.1642 0.607,0.1318 0.8148,-0.075 0,0 8.5824,-8.5831 8.5824,-8.5831 0.2072,-0.2076 0.241,-0.5732 0.075,-0.8141 0,0 -6.994,-10.1912 -6.994,-10.1912 -0.1656,-0.2415 -0.1951,-0.6544 -0.066,-0.9163 0,0 3.3469,-8.1762 3.3469,-8.1762 0.092,-0.2778 0.4023,-0.5482 0.6901,-0.6027 0,0 12.1988,-2.2708 12.1988,-2.2708 0.2883,-0.053 0.5235,-0.3367 0.5235,-0.6293 0,0 0,-12.139 0,-12.139 0,-0.2921 -0.2352,-0.5756 -0.5231,-0.6288 0,0 -12.1992,-2.2698 -12.1992,-2.2698 -0.2874,-0.055 -0.598,-0.3246 -0.6897,-0.6027 0,0 -3.3468,-8.1768 -3.3468,-8.1768 -0.1295,-0.2628 -0.1,-0.6761 0.066,-0.9161 0,0 6.994,-10.1912 6.994,-10.1912 0.1656,-0.2415 0.1319,-0.6086 -0.075,-0.8152 0,0 -8.5829,-8.5831 -8.5829,-8.5831 -0.2078,-0.2067 -0.5743,-0.2415 -0.8152,-0.075 0,0 -10.0159,6.8724 -10.0159,6.8724 -0.2425,0.1652 -0.6511,0.1908 -0.9119,0.057 0,0 -8.4342,-3.6159 -8.4342,-3.6159 -0.2767,-0.096 -0.5467,-0.4094 -0.6003,-0.6978 0,0 -2.1935,-11.7936 -2.1935,-11.7936 -0.055,-0.2883 -0.3372,-0.5231 -0.6298,-0.5231 0,0 -12.139,5e-4 -12.139,5e-4 -0.2926,0 -0.577,0.2358 -0.6297,0.5231 0,0 -2.1409,11.5043 -2.1409,11.5043 -0.052,0.2878 -0.3255,0.5954 -0.6047,0.6833 0,0 -8.9717,3.5912 -8.9717,3.5912 -0.2632,0.1285 -0.6751,0.099 -0.9162,-0.068 0,0 -9.5228,-6.5352 -9.5228,-6.5352 -0.2414,-0.1652 -0.6084,-0.1313 -0.8161,0.075 0,0 -8.5824,8.5844 -8.5824,8.5844 -0.2063,0.2063 -0.2401,0.5732 -0.075,0.8147 0,0 6.4204,9.3548 6.4204,9.3548 0.1652,0.2405 0.1778,0.6447 0.031,0.8964 0,0 -2.2023,4.1253 -2.2023,4.1253 -0.1337,0.2608 -0.021,0.566 0.2492,0.678 0,0 20.5528,8.5062 20.5528,8.5062 0.2705,0.1125 0.6157,0 0.7684,-0.2496 0,0 0.6327,-1.0326 0.6327,-1.0326 0.1158,-0.1908 0.3158,-0.4497 0.4998,-0.6529 2.3848,-3.7241 6.5566,-6.1953 11.3078,-6.1953 7.4142,0 13.424,6.0113 13.424,13.4245 0,7.4132 -6.0098,13.4236 -13.424,13.4236 -4.7512,0 -8.923,-2.4704 -11.3078,-6.1953 -0.1836,-0.2014 -0.384,-0.4612 -0.5004,-0.6515 0,0 -0.6321,-1.0325 -0.6321,-1.0325 -0.1527,-0.2483 -0.4975,-0.3614 -0.7679,-0.2498 0,0 -20.5542,8.5058 -20.5542,8.5058 -0.2706,0.112 -0.382,0.4162 -0.2492,0.678 0,0 2.2021,4.1253 2.2021,4.1253 0.1473,0.2527 0.1353,0.6559 -0.03,0.8969 0,0 -6.4208,9.3547 -6.4208,9.3547 -0.1641,0.2415 -0.1304,0.6085 0.075,0.8143 0,0 8.583,8.5844 8.583,8.5844 0.2077,0.2076 0.5748,0.2414 0.8162,0.075 0,0 9.5218,-6.5343 9.5218,-6.5343 0.2416,-0.1652 0.653,-0.1956 0.9162,-0.068 0,0 8.9718,3.5916 8.9718,3.5916 0.279,0.088 0.5524,0.3942 0.605,0.6824 0,0 2.141,11.5044 2.141,11.5044 0.052,0.2868 0.337,0.5231 0.6297,0.5231 0,0 12.1384,0 12.1384,0 0.2937,0 0.5763,-0.2346 0.6308,-0.5214"
       style="fill:none;stroke:#000000"
       id="path13358" />
    <path
       d="M 1565.2469,2092.3798 Z"
       style="fill:#000000"
       id="path13360" />
    <g
       id="g12571"
       transform="matrix(0.71634402,0,0,0.71634402,631.76972,1608.6292)">
      <g
         id="g12551">
        <circle
           style="fill:none;fill-opacity:1;stroke:#000000;stroke-width:3.054;stroke-miterlimit:4;stroke-dasharray:none;stroke-opacity:1"
           id="path37806-2-9-6-5"
           cx="72.700935"
           cy="82.201645"
           r="227.88881" />
        <text
           xml:space="preserve"
           style="font-style:normal;font-variant:normal;font-weight:bold;font-stretch:normal;font-size:22.5778px;line-height:125%;font-family:Carlito;-inkscape-font-specification:'Carlito, Bold';font-variant-ligatures:normal;font-variant-caps:normal;font-variant-numeric:normal;font-variant-east-asian:normal;letter-spacing:0px;word-spacing:0px;fill:#000000;fill-opacity:1;stroke:none;stroke-width:0.264583px;stroke-linecap:butt;stroke-linejoin:miter;stroke-opacity:1"
           x="-67.39595"
           y="240.60054"
           id="text7886-5-7-9-6-7-1-2-9"><tspan
             sodipodi:role="line"
             id="tspan7884-9-2-0-15-9-7-7-5"
             style="font-style:normal;font-variant:normal;font-weight:bold;font-stretch:normal;font-size:22.5778px;font-family:Carlito;-inkscape-font-specification:'Carlito, Bold';font-variant-ligatures:normal;font-variant-caps:normal;font-variant-numeric:normal;font-variant-east-asian:normal;fill:#000000;fill-opacity:1;stroke-width:0.264583px"
             x="-67.39595"
             y="240.60054">Open Source Braille Embosser</tspan><tspan
             sodipodi:role="line"
             style="font-style:normal;font-variant:normal;font-weight:bold;font-stretch:normal;font-size:22.5778px;font-family:Carlito;-inkscape-font-specification:'Carlito, Bold';font-variant-ligatures:normal;font-variant-caps:normal;font-variant-numeric:normal;font-variant-east-asian:normal;fill:#000000;fill-opacity:1;stroke-width:0.264583px"
             x="-67.39595"
             y="268.82278"
             id="tspan8086-3-1-6-16-0-4-5-5" /></text>
        <path
           d="m -82.695881,26.282331 q 0,-1.368116 -0.649873,-2.650726 -0.584886,-1.282608 -2.014607,-1.282608 h -5.458936 v 7.781161 h 5.458936 q 1.429721,0 2.014607,-1.197102 0.649873,-1.282608 0.649873,-2.650725 z m -8.123416,26.507255 h 6.043822 q 1.624683,0 2.274556,-1.368118 0.714861,-1.368116 0.714861,-2.82174 0,-1.53913 -0.779848,-2.821738 -0.714861,-1.368118 -2.209569,-1.368118 h -6.043822 z m -14.492173,14.707253 q -0.71486,0 -1.23476,-0.684066 -0.5199,-0.684057 -0.5199,-1.624632 V 9.9504424 q 0,-0.9405804 0.5199,-1.6246382 0.5199,-0.6840579 1.23476,-0.6840579 h 21.575792 q 9.358175,0 13.647338,4.4463787 4.35415,4.446378 4.35415,13.510148 0,2.052175 -0.519898,3.847827 -0.519898,1.710146 -1.299746,3.078262 -0.779848,1.28261 -1.689671,2.308696 -0.909822,0.94058 -1.68967,1.453624 1.234759,0.684059 2.339543,1.966667 1.169772,1.197101 2.014607,2.82174 0.844835,1.624638 1.299746,3.591306 0.5199,1.881159 0.5199,4.018841 0,9.662317 -4.744075,14.279713 -4.679088,4.53189 -13.582351,4.53189 z"
           id="path16469-7-5-0-5-9-5-2"
           style="font-weight:900;font-size:81.1389px;line-height:125%;font-family:Rubik;-inkscape-font-specification:'Rubik, Heavy';letter-spacing:0px;word-spacing:0px;fill:#000000;fill-opacity:1;stroke:#000000;stroke-width:1.10523;stroke-opacity:1" />
        <path
           d="m -45.133256,28.334506 q 2.079594,-2.394204 4.614099,-3.847828 2.599493,-1.453623 5.523923,-1.453623 h 3.119391 q 0.714861,0 1.234759,0.684058 0.519899,0.684059 0.519899,1.624638 v 13.339135 q 0,0.940579 -0.519899,1.624638 -0.519898,0.684058 -1.234759,0.684058 h -8.383365 q -3.899239,0 -3.899239,5.130435 v 19.068124 q 0,0.940575 -0.519898,1.624632 -0.519899,0.684066 -1.234759,0.684066 h -12.347592 q -0.714861,0 -1.234759,-0.684066 -0.519898,-0.684057 -0.519898,-1.624632 v -39.84639 q 0,-0.940579 0.519898,-1.624638 0.519898,-0.684058 1.234759,-0.684058 h 11.372782 q 0.71486,0 1.234759,0.684058 0.519899,0.684059 0.519899,1.624638 z"
           id="path16471-5-4-6-0-4-8-53"
           style="font-weight:900;font-size:81.1389px;line-height:125%;font-family:Rubik;-inkscape-font-specification:'Rubik, Heavy';letter-spacing:0px;word-spacing:0px;fill:#000000;fill-opacity:1;stroke:#000000;stroke-width:1.10523;stroke-opacity:1" />
        <path
           d="m -28.756527,54.756256 q 0,-3.078265 0.974811,-5.472468 1.039796,-2.479711 2.859442,-4.275364 1.884631,-1.795653 4.484124,-2.992755 2.664481,-1.282609 5.913846,-2.052175 l 6.8886569,-1.453623 q 0,-2.308696 -0.3249365,-3.334783 Q -8.2205321,34.149 -9.585266,34.149 q -0.844836,0 -1.364734,0.427537 -0.519899,0.427536 -0.97481,0.94058 -0.389924,0.513043 -0.909822,0.94058 -0.454911,0.427536 -1.234759,0.427536 h -11.047846 q -0.649873,0 -1.104784,-0.513043 -0.389924,-0.513044 -0.324937,-1.368117 0.06499,-1.624638 1.039798,-3.847827 0.974809,-2.22319 2.989417,-4.189856 2.079593,-1.966667 5.263972,-3.334785 3.249367,-1.453622 7.7984793,-1.453622 8.90326341,0 13.1274384,4.873913 4.2891658,4.788408 4.2891658,13.595657 v 24.540588 q 0,0.940575 -0.5198978,1.624632 -0.5198978,0.684066 -1.2347597,0.684066 H -5.1661287 q -0.714861,0 -1.2347588,-0.684066 -0.5198987,-0.684057 -0.5198987,-1.624632 v -2.394204 q -1.429721,2.565216 -3.8342518,4.104351 -2.339544,1.45362 -5.393948,1.45362 -2.794455,0 -5.133998,-1.02609 -2.339545,-1.026081 -4.029214,-2.821734 -1.624684,-1.881159 -2.534506,-4.360878 -0.909823,-2.47971 -0.909823,-5.38695 z m 17.091666,0.940575 q 1.8846328,0 3.0544044,-1.539129 1.1697717,-1.624639 1.1697717,-5.130437 l -3.8342521,1.111595 q -1.689671,0.513043 -2.274556,1.368116 -0.584886,0.855073 -0.584886,1.795653 0,0.940579 0.584886,1.710145 0.649873,0.684057 1.884632,0.684057 z"
           id="path16473-9-0-9-0-8-7-3"
           style="font-weight:900;font-size:81.1389px;line-height:125%;font-family:Rubik;-inkscape-font-specification:'Rubik, Heavy';letter-spacing:0px;word-spacing:0px;fill:#000000;fill-opacity:1;stroke:#000000;stroke-width:1.10523;stroke-opacity:1" />
        <g
           id="g21299-3-9-6-2-3-7-1"
           style="fill:#000000;fill-opacity:1;stroke:#000000;stroke-opacity:1"
           transform="matrix(0.91872752,0,0,0.91872752,-78.7989,-37.46349)">
          <path
             d="m 102.35764,114.24533 q -0.7781,0 -1.34399,-0.74458 -0.56589,-0.74457 -0.56589,-1.76835 V 68.361119 q 0,-1.023785 0.56589,-1.768357 0.56589,-0.744571 1.34399,-0.744571 h 12.66179 q 0.77809,0 1.34398,0.744571 0.5659,0.744572 0.5659,1.768357 V 111.7324 q 0,1.02378 -0.5659,1.76835 -0.56589,0.74458 -1.34398,0.74458 z m 14.21798,-56.028995 q 0,1.023785 -0.56589,1.768356 -0.56589,0.744573 -1.34399,0.744573 h -11.95442 q -0.7781,0 -1.34399,-0.744573 -0.56588,-0.744571 -0.56588,-1.768356 V 46.954693 q 0,-1.023785 0.56588,-1.768356 0.56589,-0.744571 1.34399,-0.744571 h 11.95442 q 0.7781,0 1.34399,0.744571 0.56589,0.744571 0.56589,1.768356 z"
             id="path16475-9-6-2-3-6-6-00"
             style="font-weight:900;font-size:81.1389px;line-height:125%;font-family:Rubik;-inkscape-font-specification:'Rubik, Heavy';letter-spacing:0px;word-spacing:0px;fill:#000000;fill-opacity:1;stroke:#000000;stroke-width:1.203;stroke-opacity:1" />
          <path
             d="m 125.20544,114.24533 q -0.7781,0 -1.34399,-0.74458 -0.56589,-0.74457 -0.56589,-1.76835 V 50.67755 q 0,-1.023786 0.56589,-1.768357 0.56589,-0.744571 1.34399,-0.744571 h 12.66178 q 0.7781,0 1.34399,0.744571 0.56589,0.744571 0.56589,1.768357 v 61.05485 q 0,1.02378 -0.56589,1.76835 -0.56589,0.74458 -1.34399,0.74458 z"
             id="path16477-4-8-2-9-4-9-56"
             style="font-weight:900;font-size:81.1389px;line-height:125%;font-family:Rubik;-inkscape-font-specification:'Rubik, Heavy';letter-spacing:0px;word-spacing:0px;fill:#000000;fill-opacity:1;stroke:#000000;stroke-width:1.203;stroke-opacity:1" />
          <path
             d="m 148.05323,114.24533 q -0.7781,0 -1.34399,-0.74458 -0.56589,-0.74457 -0.56589,-1.76835 V 50.67755 q 0,-1.023786 0.56589,-1.768357 0.56589,-0.744571 1.34399,-0.744571 h 12.66179 q 0.77809,0 1.34399,0.744571 0.56589,0.744571 0.56589,1.768357 v 61.05485 q 0,1.02378 -0.56589,1.76835 -0.5659,0.74458 -1.34399,0.74458 z"
             id="path16479-2-8-5-2-0-7-4"
             style="font-weight:900;font-size:81.1389px;line-height:125%;font-family:Rubik;-inkscape-font-specification:'Rubik, Heavy';letter-spacing:0px;word-spacing:0px;fill:#000000;fill-opacity:1;stroke:#000000;stroke-width:1.203;stroke-opacity:1" />
          <path
             d="m 185.11902,95.537972 v 0.465357 q 0,2.792143 0.56589,4.281281 0.63662,1.39608 2.19282,1.39608 0.63663,0 1.06104,-0.46536 0.42443,-0.46536 0.99031,-1.20993 0.63663,-0.837642 1.06105,-1.023785 0.42441,-0.279215 1.27325,-0.279215 h 13.36914 q 0.70737,0 1.13179,0.558429 0.49515,0.558428 0.42441,1.489141 -0.0707,1.76836 -1.27325,4.28129 -1.13178,2.41985 -3.46608,4.74664 -2.33429,2.23371 -5.94183,3.81593 -3.60756,1.58221 -8.48835,1.58221 -4.6686,0 -8.41762,-1.39607 -3.67828,-1.48914 -6.36626,-4.5605 -2.61724,-3.07136 -4.03196,-7.818 -1.41473,-4.746641 -1.41473,-11.26164 0,-6.142713 1.41473,-10.796284 1.41472,-4.746642 4.03196,-7.91107 2.68798,-3.257499 6.36626,-4.839714 3.74902,-1.675285 8.34688,-1.675285 5.16374,0 8.9835,2.047571 3.81976,2.047571 6.29552,5.491213 2.47577,3.443642 3.67828,8.097213 1.20253,4.5605 1.20253,9.679427 v 2.792143 q 0,1.023785 -0.5659,1.768357 -0.56589,0.744571 -1.34399,0.744571 z m 2.82945,-17.590497 q -1.41473,0 -2.12209,1.396071 -0.70736,1.396071 -0.70736,4.560499 h 5.65889 q 0,-3.164428 -0.70735,-4.560499 -0.70736,-1.396071 -2.12209,-1.396071 z"
             id="path16481-6-7-1-1-2-3-7"
             style="font-weight:900;font-size:81.1389px;line-height:125%;font-family:Rubik;-inkscape-font-specification:'Rubik, Heavy';letter-spacing:0px;word-spacing:0px;fill:#000000;fill-opacity:1;stroke:#000000;stroke-width:1.203;stroke-opacity:1" />
        </g>
        <path
           d="m 159.44668,64.675096 q 0.19495,0.513045 0.19495,0.940584 0,0.769563 -0.45491,1.368114 -0.38992,0.513045 -0.9748,0.513045 h -13.32241 q -1.29974,0 -1.94962,-0.855078 -0.64987,-0.855069 -0.84483,-1.45362 l -5.58891,-16.33189 h -2.66448 v 16.33189 q 0,0.940575 -0.5199,1.624632 -0.5199,0.684066 -1.23476,0.684066 H 119.3495 q -0.71487,0 -1.23477,-0.684066 -0.51988,-0.684057 -0.51988,-1.624632 V 9.9504424 q 0,-0.9405804 0.51988,-1.6246382 0.5199,-0.6840579 1.23477,-0.6840579 h 19.23624 q 4.67909,0 8.38337,1.4536235 3.70428,1.3681162 6.23877,4.1043502 2.53452,2.650724 3.89925,6.498552 1.36473,3.847827 1.36473,8.721741 0,5.814494 -1.94961,10.00435 -1.94962,4.189856 -5.06902,6.755075 z M 133.84167,32.609869 h 4.74407 q 1.49471,0 2.20957,-1.282608 0.77985,-1.368117 0.77985,-3.078263 0,-1.710145 -0.71486,-3.163768 -0.64987,-1.539131 -2.27456,-1.539131 h -4.74407 z"
           id="path16483-4-9-5-34-1-5-46"
           style="font-weight:900;font-size:81.1389px;line-height:125%;font-family:Rubik;-inkscape-font-specification:'Rubik, Heavy';letter-spacing:0px;word-spacing:0px;fill:#000000;fill-opacity:1;stroke:#000000;stroke-width:1.10523;stroke-opacity:1" />
        <path
           d="m 192.52524,7.6417463 q 1.29974,0 2.0146,0.9405804 0.71486,0.9405803 0.90983,1.8811593 l 14.49217,54.553643 q 0.0649,0.256518 0.0649,0.598551 0,0.769563 -0.45491,1.368114 -0.38992,0.513045 -0.97481,0.513045 h -12.02265 q -1.29975,0 -1.81965,-0.684066 -0.5199,-0.769563 -0.71486,-1.45362 l -1.5597,-5.643477 H 178.4879 l -1.55971,5.643477 q -0.19495,0.684057 -0.71486,1.45362 -0.5199,0.684066 -1.81964,0.684066 h -12.02265 q -0.58489,0 -1.0398,-0.513045 -0.38992,-0.598551 -0.38992,-1.368114 0,-0.342033 0.0649,-0.598551 l 14.49224,-54.553643 q 0.19496,-0.940579 0.90982,-1.8811593 0.71486,-0.9405804 2.01461,-0.9405804 z m -3.37934,35.4000097 -3.70428,-15.904353 -3.63929,15.904353 z"
           id="path16485-2-9-7-4-9-1-58"
           style="font-weight:900;font-size:81.1389px;line-height:125%;font-family:Rubik;-inkscape-font-specification:'Rubik, Heavy';letter-spacing:0px;word-spacing:0px;fill:#000000;fill-opacity:1;stroke:#000000;stroke-width:1.10523;stroke-opacity:1" />
        <path
           d="m 235.02689,7.6417463 q 4.41914,0 7.99344,1.2826098 3.63929,1.2826089 6.1738,3.9333339 2.59948,2.565218 3.96422,6.498552 1.42972,3.933335 1.42972,9.234786 0,5.301451 -1.42972,9.149277 -1.36474,3.847828 -3.96422,6.327539 -2.53451,2.47971 -6.1738,3.676811 -3.5743,1.111596 -7.99344,1.111596 h -4.54912 v 16.33189 q 0,0.940575 -0.51989,1.624632 -0.5199,0.684066 -1.23476,0.684066 h -13.38739 q -0.71486,0 -1.23476,-0.684066 -0.5199,-0.684057 -0.5199,-1.624632 V 9.9504424 q 0,-0.9405804 0.5199,-1.6246382 0.5199,-0.6840579 1.23476,-0.6840579 z m -4.87405,25.3956597 h 4.54911 q 1.03979,0 2.01461,-1.026087 0.97481,-1.111595 0.97481,-3.591306 0,-1.624638 -0.64988,-3.249275 -0.58488,-1.624639 -2.33954,-1.624639 h -4.54911 z"
           id="path16487-3-7-1-5-8-6-5"
           style="font-weight:900;font-size:81.1389px;line-height:125%;font-family:Rubik;-inkscape-font-specification:'Rubik, Heavy';letter-spacing:0px;word-spacing:0px;fill:#000000;fill-opacity:1;stroke:#000000;stroke-width:1.10523;stroke-opacity:1" />
        <text
           xml:space="preserve"
           style="font-style:normal;font-variant:normal;font-weight:normal;font-stretch:normal;font-size:50.8px;line-height:125%;font-family:Lobster;-inkscape-font-specification:'Lobster, Normal';font-variant-ligatures:normal;font-variant-caps:normal;font-variant-numeric:normal;font-variant-east-asian:normal;letter-spacing:0px;word-spacing:0px;fill:#000000;fill-opacity:1;stroke:none;stroke-width:0.264583px;stroke-linecap:butt;stroke-linejoin:miter;stroke-opacity:1"
           x="117.57389"
           y="114.55367"
           id="text2939"><tspan
             sodipodi:role="line"
             id="tspan2937"
             style="font-style:normal;font-variant:normal;font-weight:normal;font-stretch:normal;font-size:50.8px;font-family:Lobster;-inkscape-font-specification:'Lobster, Normal';font-variant-ligatures:normal;font-variant-caps:normal;font-variant-numeric:normal;font-variant-east-asian:normal;stroke-width:0.264583px"
             x="117.57389"
             y="114.55367">rework</tspan></text>
      </g>
    </g>
  </g>
</svg>
