  0
SECTION
  2
HEADER
  9
$ACADVER
  1
AC1014
  9
$HANDSEED
  5
FFFF
  9
$MEASUREMENT
 70
     1
  0
ENDSEC
  0
SECTION
  2
TABLES
  0
TABLE
  2
VPORT
  5
8
330
0
100
AcDbSymbolTable
 70
     4
  0
VPORT
  5
2E
330
8
100
AcDbSymbolTableRecord
100
AcDbViewportTableRecord
  2
*ACTIVE
 70
     0
 10
0.0
 20
0.0
 11
1.0
 21
1.0
 12
210.0
 22
148.5
 13
0.0
 23
0.0
 14
10.0
 24
10.0
 15
10.0
 25
10.0
 16
0.0
 26
0.0
 36
1.0
 17
0.0
 27
0.0
 37
0.0
 40
341.0
 41
1.24
 42
50.0
 43
0.0
 44
0.0
 50
0.0
 51
0.0
 71
     0
 72
   100
 73
     1
 74
     3
 75
     0
 76
     0
 77
     0
 78
     0
  0
ENDTAB
  0
TABLE
  2
LTYPE
  5
5
330
0
100
AcDbSymbolTable
 70
     1
  0
LTYPE
  5
14
330
5
100
AcDbSymbolTableRecord
100
AcDbLinetypeTableRecord
  2
BYBLOCK
 70
     0
  3

 72
    65
 73
     0
 40
0.0
  0
LTYPE
  5
15
330
5
100
AcDbSymbolTableRecord
100
AcDbLinetypeTableRecord
  2
BYLAYER
 70
     0
  3

 72
    65
 73
     0
 40
0.0
  0
LTYPE
  5
16
330
5
100
AcDbSymbolTableRecord
100
AcDbLinetypeTableRecord
  2
CONTINUOUS
 70
     0
  3
Solid line
 72
    65
 73
     0
 40
0.0
  0
ENDTAB
  0
TABLE
  2
LAYER
  5
2
100
AcDbSymbolTable
 70
2
  0
LAYER
  5
50
100
AcDbSymbolTableRecord
100
AcDbLayerTableRecord
  2
0
 70
0
  6
CONTINUOUS
  0
LAYER
  5
51
100
AcDbSymbolTableRecord
100
AcDbLayerTableRecord
  2
D_U+00E9coupe_V5
 70
0
  6
CONTINUOUS
  0
ENDTAB
  0
TABLE
  2
STYLE
  5
3
330
0
100
AcDbSymbolTable
 70
     1
  0
STYLE
  5
11
330
3
100
AcDbSymbolTableRecord
100
AcDbTextStyleTableRecord
  2
STANDARD
 70
     0
 40
0.0
 41
1.0
 50
0.0
 71
     0
 42
2.5
  3
txt
  4

  0
ENDTAB
  0
TABLE
  2
VIEW
  5
6
330
0
100
AcDbSymbolTable
 70
     0
  0
ENDTAB
  0
TABLE
  2
UCS
  5
7
330
0
100
AcDbSymbolTable
 70
     0
  0
ENDTAB
  0
TABLE
  2
APPID
  5
9
330
0
100
AcDbSymbolTable
 70
     2
  0
APPID
  5
12
330
9
100
AcDbSymbolTableRecord
100
AcDbRegAppTableRecord
  2
ACAD
 70
     0
  0
ENDTAB
  0
TABLE
  2
DIMSTYLE
  5
A
330
0
100
AcDbSymbolTable
 70
     1
  0
DIMSTYLE
105
27
330
A
100
AcDbSymbolTableRecord
100
AcDbDimStyleTableRecord
  2
ISO-25
 70
     0
  3

  4

  5

  6

  7

 40
1.0
 41
2.5
 42
0.625
 43
3.75
 44
1.25
 45
0.0
 46
0.0
 47
0.0
 48
0.0
140
2.5
141
2.5
142
0.0
143
0.03937007874016
144
1.0
145
0.0
146
1.0
147
0.625
 71
     0
 72
     0
 73
     0
 74
     0
 75
     0
 76
     0
 77
     1
 78
     8
170
     0
171
     3
172
     1
173
     0
174
     0
175
     0
176
     0
177
     0
178
     0
270
     2
271
     2
272
     2
273
     2
274
     3
340
11
275
     0
280
     0
281
     0
282
     0
283
     0
284
     8
285
     0
286
     0
287
     3
288
     0
  0
ENDTAB
  0
TABLE
  2
BLOCK_RECORD
  5
1
330
0
100
AcDbSymbolTable
 70
     1
  0
BLOCK_RECORD
  5
1F
330
1
100
AcDbSymbolTableRecord
100
AcDbBlockTableRecord
  2
*MODEL_SPACE
  0
BLOCK_RECORD
  5
1B
330
1
100
AcDbSymbolTableRecord
100
AcDbBlockTableRecord
  2
*PAPER_SPACE
  0
ENDTAB
  0
ENDSEC
  0
SECTION
  2
BLOCKS
  0
BLOCK
  5
20
330
1F
100
AcDbEntity
  8
0
100
AcDbBlockBegin
  2
*MODEL_SPACE
 70
     0
 10
0.0
 20
0.0
 30
0.0
  3
*MODEL_SPACE
  1

  0
ENDBLK
  5
21
330
1F
100
AcDbEntity
  8
0
100
AcDbBlockEnd
  0
BLOCK
  5
1C
330
1B
100
AcDbEntity
 67
     1
  8
0
100
AcDbBlockBegin
  2
*PAPER_SPACE
  1

  0
ENDBLK
  5
1D
330
1B
100
AcDbEntity
 67
     1
  8
0
100
AcDbBlockEnd
  0
ENDSEC
  0
SECTION
  2
ENTITIES
  0
SPLINE
  5
100
100
AcDbEntity
  8
D_U+00E9coupe_V5
 62
3
100
AcDbSpline
 70
8
 71
3
 72
8
 73
4
 74
0
 40
0
 40
0
 40
0
 40
0
 40
1
 40
1
 40
1
 40
1
 10
386.392111
 20
174.918954
 30
0.0
 10
386.944375
 20
174.918954
 30
0.0
 10
387.392102
 20
175.366682
 30
0.0
 10
387.392102
 20
175.918945
 30
0.0
  0
LWPOLYLINE
  5
101
100
AcDbEntity
  8
D_U+00E9coupe_V5
 62
3
100
AcDbPolyline
 90
2
 70
0
 10
387.392102
 20
183.982770
 30
0.0
 10
387.392102
 20
175.918945
 30
0.0
  0
SPLINE
  5
102
100
AcDbEntity
  8
D_U+00E9coupe_V5
 62
3
100
AcDbSpline
 70
8
 71
3
 72
8
 73
4
 74
0
 40
0
 40
0
 40
0
 40
0
 40
1
 40
1
 40
1
 40
1
 10
371.669343
 20
175.918945
 30
0.0
 10
371.669343
 20
175.366682
 30
0.0
 10
372.117044
 20
174.918954
 30
0.0
 10
372.669334
 20
174.918954
 30
0.0
  0
LWPOLYLINE
  5
103
100
AcDbEntity
  8
D_U+00E9coupe_V5
 62
3
100
AcDbPolyline
 90
2
 70
0
 10
386.392111
 20
174.918954
 30
0.0
 10
372.669334
 20
174.918954
 30
0.0
  0
SPLINE
  5
104
100
AcDbEntity
  8
D_U+00E9coupe_V5
 62
3
100
AcDbSpline
 70
8
 71
3
 72
8
 73
4
 74
0
 40
0
 40
0
 40
0
 40
0
 40
1
 40
1
 40
1
 40
1
 10
326.167516
 20
197.106717
 30
0.0
 10
326.167516
 20
198.211297
 30
0.0
 10
327.062944
 20
199.106699
 30
0.0
 10
328.167525
 20
199.106699
 30
0.0
  0
SPLINE
  5
105
100
AcDbEntity
  8
D_U+00E9coupe_V5
 62
3
100
AcDbSpline
 70
8
 71
3
 72
8
 73
4
 74
0
 40
0
 40
0
 40
0
 40
0
 40
1
 40
1
 40
1
 40
1
 10
328.167525
 20
199.106699
 30
0.0
 10
329.272105
 20
199.106699
 30
0.0
 10
330.167507
 20
198.211297
 30
0.0
 10
330.167507
 20
197.106717
 30
0.0
  0
SPLINE
  5
106
100
AcDbEntity
  8
D_U+00E9coupe_V5
 62
3
100
AcDbSpline
 70
8
 71
3
 72
8
 73
4
 74
0
 40
0
 40
0
 40
0
 40
0
 40
1
 40
1
 40
1
 40
1
 10
330.167507
 20
197.106717
 30
0.0
 10
330.167507
 20
196.002162
 30
0.0
 10
329.272105
 20
195.106708
 30
0.0
 10
328.167525
 20
195.106708
 30
0.0
  0
SPLINE
  5
107
100
AcDbEntity
  8
D_U+00E9coupe_V5
 62
3
100
AcDbSpline
 70
8
 71
3
 72
8
 73
4
 74
0
 40
0
 40
0
 40
0
 40
0
 40
1
 40
1
 40
1
 40
1
 10
328.167525
 20
195.106708
 30
0.0
 10
327.062944
 20
195.106708
 30
0.0
 10
326.167516
 20
196.002162
 30
0.0
 10
326.167516
 20
197.106717
 30
0.0
  0
LWPOLYLINE
  5
108
100
AcDbEntity
  8
D_U+00E9coupe_V5
 62
3
100
AcDbPolyline
 90
2
 70
0
 10
371.669343
 20
175.918945
 30
0.0
 10
371.669343
 20
183.982770
 30
0.0
  0
SPLINE
  5
109
100
AcDbEntity
  8
D_U+00E9coupe_V5
 62
3
100
AcDbSpline
 70
8
 71
3
 72
8
 73
4
 74
0
 40
0
 40
0
 40
0
 40
0
 40
1
 40
1
 40
1
 40
1
 10
546.330376
 20
183.982717
 30
0.0
 10
556.253239
 20
183.982717
 30
0.0
 10
560.730378
 20
188.459883
 30
0.0
 10
560.730378
 20
193.982733
 30
0.0
  0
LWPOLYLINE
  5
10a
100
AcDbEntity
  8
D_U+00E9coupe_V5
 62
3
100
AcDbPolyline
 90
2
 70
1
 10
326.167516
 20
197.106717
 30
0.0
 10
326.167516
 20
197.106717
 30
0.0
  0
SPLINE
  5
10b
100
AcDbEntity
  8
D_U+00E9coupe_V5
 62
3
100
AcDbSpline
 70
8
 71
3
 72
8
 73
4
 74
0
 40
0
 40
0
 40
0
 40
0
 40
1
 40
1
 40
1
 40
1
 10
560.730378
 20
258.982599
 30
0.0
 10
560.730378
 20
264.505450
 30
0.0
 10
556.253239
 20
268.982589
 30
0.0
 10
550.730389
 20
268.982589
 30
0.0
  0
LWPOLYLINE
  5
10c
100
AcDbEntity
  8
D_U+00E9coupe_V5
 62
3
100
AcDbPolyline
 90
2
 70
0
 10
560.730378
 20
193.982733
 30
0.0
 10
560.730378
 20
258.982599
 30
0.0
  0
SPLINE
  5
10d
100
AcDbEntity
  8
D_U+00E9coupe_V5
 62
3
100
AcDbSpline
 70
8
 71
3
 72
8
 73
4
 74
0
 40
0
 40
0
 40
0
 40
0
 40
1
 40
1
 40
1
 40
1
 10
282.036599
 20
268.982589
 30
0.0
 10
276.513775
 20
268.982589
 30
0.0
 10
272.036609
 20
264.505450
 30
0.0
 10
272.036609
 20
258.982599
 30
0.0
  0
LWPOLYLINE
  5
10e
100
AcDbEntity
  8
D_U+00E9coupe_V5
 62
3
100
AcDbPolyline
 90
2
 70
0
 10
550.730389
 20
268.982589
 30
0.0
 10
282.036599
 20
268.982589
 30
0.0
  0
SPLINE
  5
10f
100
AcDbEntity
  8
D_U+00E9coupe_V5
 62
3
100
AcDbSpline
 70
8
 71
3
 72
8
 73
4
 74
0
 40
0
 40
0
 40
0
 40
0
 40
1
 40
1
 40
1
 40
1
 10
272.036609
 20
193.982733
 30
0.0
 10
272.036609
 20
188.459883
 30
0.0
 10
276.513775
 20
183.982717
 30
0.0
 10
277.636612
 20
183.982717
 30
0.0
  0
LWPOLYLINE
  5
110
100
AcDbEntity
  8
D_U+00E9coupe_V5
 62
3
100
AcDbPolyline
 90
2
 70
0
 10
272.036609
 20
258.982599
 30
0.0
 10
272.036609
 20
193.982733
 30
0.0
  0
SPLINE
  5
111
100
AcDbEntity
  8
D_U+00E9coupe_V5
 62
3
100
AcDbSpline
 70
8
 71
3
 72
8
 73
4
 74
0
 40
0
 40
0
 40
0
 40
0
 40
1
 40
1
 40
1
 40
1
 10
306.852304
 20
173.982754
 30
0.0
 10
306.852304
 20
177.627833
 30
0.0
 10
309.807219
 20
180.582748
 30
0.0
 10
313.452298
 20
180.582748
 30
0.0
  0
SPLINE
  5
112
100
AcDbEntity
  8
D_U+00E9coupe_V5
 62
3
100
AcDbSpline
 70
8
 71
3
 72
8
 73
4
 74
0
 40
0
 40
0
 40
0
 40
0
 40
1
 40
1
 40
1
 40
1
 10
313.452298
 20
180.582748
 30
0.0
 10
317.097377
 20
180.582748
 30
0.0
 10
320.052291
 20
177.627833
 30
0.0
 10
320.052291
 20
173.982754
 30
0.0
  0
SPLINE
  5
113
100
AcDbEntity
  8
D_U+00E9coupe_V5
 62
3
100
AcDbSpline
 70
8
 71
3
 72
8
 73
4
 74
0
 40
0
 40
0
 40
0
 40
0
 40
1
 40
1
 40
1
 40
1
 10
320.052291
 20
173.982754
 30
0.0
 10
320.052291
 20
170.337702
 30
0.0
 10
317.097377
 20
167.382761
 30
0.0
 10
313.452298
 20
167.382761
 30
0.0
  0
SPLINE
  5
114
100
AcDbEntity
  8
D_U+00E9coupe_V5
 62
3
100
AcDbSpline
 70
8
 71
3
 72
8
 73
4
 74
0
 40
0
 40
0
 40
0
 40
0
 40
1
 40
1
 40
1
 40
1
 10
313.452298
 20
167.382761
 30
0.0
 10
309.807219
 20
167.382761
 30
0.0
 10
306.852304
 20
170.337702
 30
0.0
 10
306.852304
 20
173.982754
 30
0.0
  0
LWPOLYLINE
  5
115
100
AcDbEntity
  8
D_U+00E9coupe_V5
 62
3
100
AcDbPolyline
 90
3
 70
0
 10
277.636612
 20
183.982717
 30
0.0
 10
546.330376
 20
183.982717
 30
0.0
 10
546.330376
 20
183.982717
 30
0.0
  0
SPLINE
  5
116
100
AcDbEntity
  8
D_U+00E9coupe_V5
 62
3
100
AcDbSpline
 70
8
 71
3
 72
8
 73
4
 74
0
 40
0
 40
0
 40
0
 40
0
 40
1
 40
1
 40
1
 40
1
 10
330.052281
 20
173.982754
 30
0.0
 10
330.052281
 20
173.099100
 30
0.0
 10
329.335923
 20
172.382769
 30
0.0
 10
328.452269
 20
172.382769
 30
0.0
  0
SPLINE
  5
117
100
AcDbEntity
  8
D_U+00E9coupe_V5
 62
3
100
AcDbSpline
 70
8
 71
3
 72
8
 73
4
 74
0
 40
0
 40
0
 40
0
 40
0
 40
1
 40
1
 40
1
 40
1
 10
328.452269
 20
172.382769
 30
0.0
 10
327.568615
 20
172.382769
 30
0.0
 10
326.852283
 20
173.099100
 30
0.0
 10
326.852283
 20
173.982754
 30
0.0
  0
SPLINE
  5
118
100
AcDbEntity
  8
D_U+00E9coupe_V5
 62
3
100
AcDbSpline
 70
8
 71
3
 72
8
 73
4
 74
0
 40
0
 40
0
 40
0
 40
0
 40
1
 40
1
 40
1
 40
1
 10
326.852283
 20
173.982754
 30
0.0
 10
326.852283
 20
174.866408
 30
0.0
 10
327.568615
 20
175.582766
 30
0.0
 10
328.452269
 20
175.582766
 30
0.0
  0
SPLINE
  5
119
100
AcDbEntity
  8
D_U+00E9coupe_V5
 62
3
100
AcDbSpline
 70
8
 71
3
 72
8
 73
4
 74
0
 40
0
 40
0
 40
0
 40
0
 40
1
 40
1
 40
1
 40
1
 10
328.452269
 20
175.582766
 30
0.0
 10
329.335923
 20
175.582766
 30
0.0
 10
330.052281
 20
174.866408
 30
0.0
 10
330.052281
 20
173.982754
 30
0.0
  0
LWPOLYLINE
  5
11a
100
AcDbEntity
  8
D_U+00E9coupe_V5
 62
3
100
AcDbPolyline
 90
2
 70
1
 10
306.852304
 20
173.982754
 30
0.0
 10
306.852304
 20
173.982754
 30
0.0
  0
SPLINE
  5
11b
100
AcDbEntity
  8
D_U+00E9coupe_V5
 62
3
100
AcDbSpline
 70
8
 71
3
 72
8
 73
4
 74
0
 40
0
 40
0
 40
0
 40
0
 40
1
 40
1
 40
1
 40
1
 10
296.852315
 20
173.982754
 30
0.0
 10
296.852315
 20
174.866408
 30
0.0
 10
297.568673
 20
175.582766
 30
0.0
 10
298.452327
 20
175.582766
 30
0.0
  0
SPLINE
  5
11c
100
AcDbEntity
  8
D_U+00E9coupe_V5
 62
3
100
AcDbSpline
 70
8
 71
3
 72
8
 73
4
 74
0
 40
0
 40
0
 40
0
 40
0
 40
1
 40
1
 40
1
 40
1
 10
298.452327
 20
175.582766
 30
0.0
 10
299.335981
 20
175.582766
 30
0.0
 10
300.052312
 20
174.866408
 30
0.0
 10
300.052312
 20
173.982754
 30
0.0
  0
SPLINE
  5
11d
100
AcDbEntity
  8
D_U+00E9coupe_V5
 62
3
100
AcDbSpline
 70
8
 71
3
 72
8
 73
4
 74
0
 40
0
 40
0
 40
0
 40
0
 40
1
 40
1
 40
1
 40
1
 10
300.052312
 20
173.982754
 30
0.0
 10
300.052312
 20
173.099100
 30
0.0
 10
299.335981
 20
172.382769
 30
0.0
 10
298.452327
 20
172.382769
 30
0.0
  0
SPLINE
  5
11e
100
AcDbEntity
  8
D_U+00E9coupe_V5
 62
3
100
AcDbSpline
 70
8
 71
3
 72
8
 73
4
 74
0
 40
0
 40
0
 40
0
 40
0
 40
1
 40
1
 40
1
 40
1
 10
298.452327
 20
172.382769
 30
0.0
 10
297.568673
 20
172.382769
 30
0.0
 10
296.852315
 20
173.099100
 30
0.0
 10
296.852315
 20
173.982754
 30
0.0
  0
LWPOLYLINE
  5
11f
100
AcDbEntity
  8
D_U+00E9coupe_V5
 62
3
100
AcDbPolyline
 90
2
 70
1
 10
330.052281
 20
173.982754
 30
0.0
 10
330.052281
 20
173.982754
 30
0.0
  0
LWPOLYLINE
  5
120
100
AcDbEntity
  8
D_U+00E9coupe_V5
 62
3
100
AcDbPolyline
 90
2
 70
1
 10
296.852315
 20
173.982754
 30
0.0
 10
296.852315
 20
173.982754
 30
0.0
  0
SPLINE
  5
121
100
AcDbEntity
  8
D_U+00E9coupe_V5
 62
3
100
AcDbSpline
 70
8
 71
3
 72
8
 73
4
 74
0
 40
0
 40
0
 40
0
 40
0
 40
1
 40
1
 40
1
 40
1
 10
265.686276
 20
153.982802
 30
0.0
 10
268.447675
 20
153.982802
 30
0.0
 10
270.686258
 20
156.221358
 30
0.0
 10
270.686258
 20
158.982783
 30
0.0
  0
LWPOLYLINE
  5
122
100
AcDbEntity
  8
D_U+00E9coupe_V5
 62
3
100
AcDbPolyline
 90
16
 70
0
 10
250.686289
 20
325.982500
 30
0.0
 10
245.686297
 20
325.982500
 30
0.0
 10
245.686297
 20
304.315887
 30
0.0
 10
250.686289
 20
304.315887
 30
0.0
 10
250.686289
 20
276.315927
 30
0.0
 10
245.686297
 20
276.315927
 30
0.0
 10
245.686297
 20
254.649287
 30
0.0
 10
250.686289
 20
254.649287
 30
0.0
 10
250.686289
 20
231.649335
 30
0.0
 10
245.686297
 20
231.649335
 30
0.0
 10
245.686297
 20
204.982714
 30
0.0
 10
250.686289
 20
204.982714
 30
0.0
 10
250.686289
 20
176.982754
 30
0.0
 10
245.686297
 20
176.982754
 30
0.0
 10
245.686297
 20
153.982802
 30
0.0
 10
265.686276
 20
153.982802
 30
0.0
  0
SPLINE
  5
123
100
AcDbEntity
  8
D_U+00E9coupe_V5
 62
3
100
AcDbSpline
 70
8
 71
3
 72
8
 73
4
 74
0
 40
0
 40
0
 40
0
 40
0
 40
1
 40
1
 40
1
 40
1
 10
560.685770
 20
158.982783
 30
0.0
 10
560.685770
 20
156.221358
 30
0.0
 10
562.924326
 20
153.982802
 30
0.0
 10
565.685751
 20
153.982802
 30
0.0
  0
LWPOLYLINE
  5
124
100
AcDbEntity
  8
D_U+00E9coupe_V5
 62
3
100
AcDbPolyline
 90
20
 70
0
 10
270.686258
 20
158.982783
 30
0.0
 10
270.686258
 20
163.982791
 30
0.0
 10
300.843706
 20
163.982791
 30
0.0
 10
300.843706
 20
158.982783
 30
0.0
 10
325.843667
 20
158.982783
 30
0.0
 10
325.843667
 20
163.982791
 30
0.0
 10
378.264813
 20
163.982791
 30
0.0
 10
378.264813
 20
158.982783
 30
0.0
 10
420.685995
 20
158.982783
 30
0.0
 10
420.685995
 20
163.982791
 30
0.0
 10
450.685964
 20
163.982791
 30
0.0
 10
450.685964
 20
158.982783
 30
0.0
 10
475.685898
 20
158.982783
 30
0.0
 10
475.685898
 20
163.982791
 30
0.0
 10
505.685867
 20
163.982791
 30
0.0
 10
505.685867
 20
158.982783
 30
0.0
 10
530.685828
 20
158.982783
 30
0.0
 10
530.685828
 20
163.982791
 30
0.0
 10
560.685770
 20
163.982791
 30
0.0
 10
560.685770
 20
158.982783
 30
0.0
  0
SPLINE
  5
125
100
AcDbEntity
  8
D_U+00E9coupe_V5
 62
3
100
AcDbSpline
 70
8
 71
3
 72
8
 73
4
 74
0
 40
0
 40
0
 40
0
 40
0
 40
1
 40
1
 40
1
 40
1
 10
560.730378
 20
193.982733
 30
0.0
 10
560.730378
 20
188.459883
 30
0.0
 10
556.253239
 20
183.982744
 30
0.0
 10
550.730389
 20
183.982744
 30
0.0
  0
LWPOLYLINE
  5
126
100
AcDbEntity
  8
D_U+00E9coupe_V5
 62
3
100
AcDbPolyline
 90
20
 70
0
 10
565.685751
 20
153.982802
 30
0.0
 10
585.685730
 20
153.982802
 30
0.0
 10
585.685730
 20
176.982754
 30
0.0
 10
580.685722
 20
176.982754
 30
0.0
 10
580.685722
 20
204.982714
 30
0.0
 10
585.685730
 20
204.982714
 30
0.0
 10
585.685730
 20
226.649327
 30
0.0
 10
580.685722
 20
226.649327
 30
0.0
 10
580.685722
 20
254.649287
 30
0.0
 10
585.685730
 20
254.649287
 30
0.0
 10
585.685730
 20
276.315927
 30
0.0
 10
580.685722
 20
276.315927
 30
0.0
 10
580.685722
 20
304.315887
 30
0.0
 10
585.685730
 20
304.315887
 30
0.0
 10
585.685730
 20
325.982500
 30
0.0
 10
580.685722
 20
325.982500
 30
0.0
 10
580.685722
 20
355.982443
 30
0.0
 10
250.686289
 20
355.982443
 30
0.0
 10
250.686289
 20
325.982500
 30
0.0
 10
250.686289
 20
325.982500
 30
0.0
  0
SPLINE
  5
127
100
AcDbEntity
  8
D_U+00E9coupe_V5
 62
1
100
AcDbSpline
 70
8
 71
3
 72
8
 73
4
 74
0
 40
0
 40
0
 40
0
 40
0
 40
1
 40
1
 40
1
 40
1
 10
295.348002
 20
304.182617
 30
0.0
 10
295.348002
 20
309.705441
 30
0.0
 10
299.825141
 20
314.182606
 30
0.0
 10
305.347992
 20
314.182606
 30
0.0
  0
LWPOLYLINE
  5
128
100
AcDbEntity
  8
D_U+00E9coupe_V5
 62
1
100
AcDbPolyline
 90
2
 70
0
 10
295.348002
 20
283.982587
 30
0.0
 10
295.348002
 20
304.182617
 30
0.0
  0
SPLINE
  5
129
100
AcDbEntity
  8
D_U+00E9coupe_V5
 62
1
100
AcDbSpline
 70
8
 71
3
 72
8
 73
4
 74
0
 40
0
 40
0
 40
0
 40
0
 40
1
 40
1
 40
1
 40
1
 10
525.746621
 20
314.182606
 30
0.0
 10
531.269445
 20
314.182606
 30
0.0
 10
535.746584
 20
309.705441
 30
0.0
 10
535.746584
 20
304.182617
 30
0.0
  0
LWPOLYLINE
  5
12a
100
AcDbEntity
  8
D_U+00E9coupe_V5
 62
1
100
AcDbPolyline
 90
2
 70
0
 10
305.347992
 20
314.182606
 30
0.0
 10
525.746621
 20
314.182606
 30
0.0
  0
SPLINE
  5
12b
100
AcDbEntity
  8
D_U+00E9coupe_V5
 62
1
100
AcDbSpline
 70
8
 71
3
 72
8
 73
4
 74
0
 40
0
 40
0
 40
0
 40
0
 40
1
 40
1
 40
1
 40
1
 10
535.746584
 20
283.982587
 30
0.0
 10
480.685906
 20
283.982587
 30
0.0
 10
375.686082
 20
283.982587
 30
0.0
 10
295.348002
 20
283.982587
 30
0.0
  0
LWPOLYLINE
  5
12c
100
AcDbEntity
  8
D_U+00E9coupe_V5
 62
1
100
AcDbPolyline
 90
2
 70
0
 10
535.746584
 20
304.182617
 30
0.0
 10
535.746584
 20
283.982587
 30
0.0
  0
LWPOLYLINE
  5
12d
100
AcDbEntity
  8
D_U+00E9coupe_V5
 62
1
100
AcDbPolyline
 90
1
 70
1
 10
295.348002
 20
283.982587
 30
0.0
  0
SPLINE
  5
12e
100
AcDbEntity
  8
D_U+00E9coupe_V5
 62
3
100
AcDbSpline
 70
8
 71
3
 72
8
 73
4
 74
0
 40
0
 40
0
 40
0
 40
0
 40
1
 40
1
 40
1
 40
1
 10
551.854231
 20
56.742453
 30
0.0
 10
551.851056
 20
56.801508
 30
0.0
 10
551.851056
 20
56.860668
 30
0.0
 10
551.854231
 20
56.919697
 30
0.0
  0
SPLINE
  5
12f
100
AcDbEntity
  8
D_U+00E9coupe_V5
 62
3
100
AcDbSpline
 70
8
 71
3
 72
8
 73
4
 74
0
 40
0
 40
0
 40
0
 40
0
 40
1
 40
1
 40
1
 40
1
 10
551.854231
 20
56.919697
 30
0.0
 10
551.903179
 20
57.857299
 30
0.0
 10
552.702934
 20
58.577705
 30
0.0
 10
553.640536
 20
58.528758
 30
0.0
  0
SPLINE
  5
130
100
AcDbEntity
  8
D_U+00E9coupe_V5
 62
3
100
AcDbSpline
 70
8
 71
3
 72
8
 73
4
 74
0
 40
0
 40
0
 40
0
 40
0
 40
1
 40
1
 40
1
 40
1
 10
553.640536
 20
58.528758
 30
0.0
 10
554.578138
 20
58.479836
 30
0.0
 10
555.298545
 20
57.680081
 30
0.0
 10
555.249597
 20
56.742453
 30
0.0
  0
LWPOLYLINE
  5
131
100
AcDbEntity
  8
D_U+00E9coupe_V5
 62
3
100
AcDbPolyline
 90
2
 70
0
 10
551.854231
 20
42.919717
 30
0.0
 10
551.854231
 20
56.742453
 30
0.0
  0
SPLINE
  5
132
100
AcDbEntity
  8
D_U+00E9coupe_V5
 62
3
100
AcDbSpline
 70
8
 71
3
 72
8
 73
4
 74
0
 40
0
 40
0
 40
0
 40
0
 40
1
 40
1
 40
1
 40
1
 10
555.249597
 20
42.919717
 30
0.0
 10
555.252772
 20
42.860688
 30
0.0
 10
555.252772
 20
42.801527
 30
0.0
 10
555.249597
 20
42.742499
 30
0.0
  0
SPLINE
  5
133
100
AcDbEntity
  8
D_U+00E9coupe_V5
 62
3
100
AcDbSpline
 70
8
 71
3
 72
8
 73
4
 74
0
 40
0
 40
0
 40
0
 40
0
 40
1
 40
1
 40
1
 40
1
 10
555.249597
 20
42.742499
 30
0.0
 10
555.200649
 20
41.804870
 30
0.0
 10
554.400894
 20
41.084464
 30
0.0
 10
553.463292
 20
41.133412
 30
0.0
  0
SPLINE
  5
134
100
AcDbEntity
  8
D_U+00E9coupe_V5
 62
3
100
AcDbSpline
 70
8
 71
3
 72
8
 73
4
 74
0
 40
0
 40
0
 40
0
 40
0
 40
1
 40
1
 40
1
 40
1
 10
553.463292
 20
41.133412
 30
0.0
 10
552.525690
 20
41.182360
 30
0.0
 10
551.805283
 20
41.982114
 30
0.0
 10
551.854231
 20
42.919717
 30
0.0
  0
LWPOLYLINE
  5
135
100
AcDbEntity
  8
D_U+00E9coupe_V5
 62
3
100
AcDbPolyline
 90
2
 70
0
 10
555.249597
 20
56.742453
 30
0.0
 10
555.249597
 20
42.919717
 30
0.0
  0
SPLINE
  5
136
100
AcDbEntity
  8
D_U+00E9coupe_V5
 62
3
100
AcDbSpline
 70
8
 71
3
 72
8
 73
4
 74
0
 40
0
 40
0
 40
0
 40
0
 40
1
 40
1
 40
1
 40
1
 10
551.854231
 20
16.619781
 30
0.0
 10
551.805283
 20
15.682152
 30
0.0
 10
552.525690
 20
14.882397
 30
0.0
 10
553.463292
 20
14.833476
 30
0.0
  0
SPLINE
  5
137
100
AcDbEntity
  8
D_U+00E9coupe_V5
 62
3
100
AcDbSpline
 70
8
 71
3
 72
8
 73
4
 74
0
 40
0
 40
0
 40
0
 40
0
 40
1
 40
1
 40
1
 40
1
 10
553.463292
 20
14.833476
 30
0.0
 10
554.400894
 20
14.784528
 30
0.0
 10
555.200649
 20
15.504934
 30
0.0
 10
555.249597
 20
16.442537
 30
0.0
  0
SPLINE
  5
138
100
AcDbEntity
  8
D_U+00E9coupe_V5
 62
3
100
AcDbSpline
 70
8
 71
3
 72
8
 73
4
 74
0
 40
0
 40
0
 40
0
 40
0
 40
1
 40
1
 40
1
 40
1
 10
555.249597
 20
16.442537
 30
0.0
 10
555.252772
 20
16.501565
 30
0.0
 10
555.252772
 20
16.560726
 30
0.0
 10
555.249597
 20
16.619781
 30
0.0
  0
LWPOLYLINE
  5
139
100
AcDbEntity
  8
D_U+00E9coupe_V5
 62
3
100
AcDbPolyline
 90
1
 70
1
 10
551.854231
 20
42.919717
 30
0.0
  0
SPLINE
  5
13a
100
AcDbEntity
  8
D_U+00E9coupe_V5
 62
3
100
AcDbSpline
 70
8
 71
3
 72
8
 73
4
 74
0
 40
0
 40
0
 40
0
 40
0
 40
1
 40
1
 40
1
 40
1
 10
555.249597
 20
30.442517
 30
0.0
 10
555.298545
 20
31.380119
 30
0.0
 10
554.578138
 20
32.179874
 30
0.0
 10
553.640536
 20
32.228822
 30
0.0
  0
SPLINE
  5
13b
100
AcDbEntity
  8
D_U+00E9coupe_V5
 62
3
100
AcDbSpline
 70
8
 71
3
 72
8
 73
4
 74
0
 40
0
 40
0
 40
0
 40
0
 40
1
 40
1
 40
1
 40
1
 10
553.640536
 20
32.228822
 30
0.0
 10
552.702934
 20
32.277743
 30
0.0
 10
551.903179
 20
31.557363
 30
0.0
 10
551.854231
 20
30.619735
 30
0.0
  0
SPLINE
  5
13c
100
AcDbEntity
  8
D_U+00E9coupe_V5
 62
3
100
AcDbSpline
 70
8
 71
3
 72
8
 73
4
 74
0
 40
0
 40
0
 40
0
 40
0
 40
1
 40
1
 40
1
 40
1
 10
551.854231
 20
30.619735
 30
0.0
 10
551.851056
 20
30.560706
 30
0.0
 10
551.851056
 20
30.501545
 30
0.0
 10
551.854231
 20
30.442517
 30
0.0
  0
LWPOLYLINE
  5
13d
100
AcDbEntity
  8
D_U+00E9coupe_V5
 62
3
100
AcDbPolyline
 90
2
 70
0
 10
555.249597
 20
16.619781
 30
0.0
 10
555.249597
 20
30.442517
 30
0.0
  0
SPLINE
  5
13e
100
AcDbEntity
  8
D_U+00E9coupe_V5
 62
3
100
AcDbSpline
 70
8
 71
3
 72
8
 73
4
 74
0
 40
0
 40
0
 40
0
 40
0
 40
1
 40
1
 40
1
 40
1
 10
489.929665
 20
62.529727
 30
0.0
 10
490.813319
 20
62.529727
 30
0.0
 10
491.529651
 20
63.246059
 30
0.0
 10
491.529651
 20
64.129713
 30
0.0
  0
SPLINE
  5
13f
100
AcDbEntity
  8
D_U+00E9coupe_V5
 62
3
100
AcDbSpline
 70
8
 71
3
 72
8
 73
4
 74
0
 40
0
 40
0
 40
0
 40
0
 40
1
 40
1
 40
1
 40
1
 10
491.529651
 20
64.129713
 30
0.0
 10
491.529651
 20
65.013367
 30
0.0
 10
490.813319
 20
65.729725
 30
0.0
 10
489.929665
 20
65.729725
 30
0.0
  0
SPLINE
  5
140
100
AcDbEntity
  8
D_U+00E9coupe_V5
 62
3
100
AcDbSpline
 70
8
 71
3
 72
8
 73
4
 74
0
 40
0
 40
0
 40
0
 40
0
 40
1
 40
1
 40
1
 40
1
 10
489.929665
 20
65.729725
 30
0.0
 10
489.046011
 20
65.729725
 30
0.0
 10
488.329653
 20
65.013367
 30
0.0
 10
488.329653
 20
64.129713
 30
0.0
  0
SPLINE
  5
141
100
AcDbEntity
  8
D_U+00E9coupe_V5
 62
3
100
AcDbSpline
 70
8
 71
3
 72
8
 73
4
 74
0
 40
0
 40
0
 40
0
 40
0
 40
1
 40
1
 40
1
 40
1
 10
488.329653
 20
64.129713
 30
0.0
 10
488.329653
 20
63.246059
 30
0.0
 10
489.046011
 20
62.529727
 30
0.0
 10
489.929665
 20
62.529727
 30
0.0
  0
LWPOLYLINE
  5
142
100
AcDbEntity
  8
D_U+00E9coupe_V5
 62
3
100
AcDbPolyline
 90
3
 70
0
 10
551.854231
 20
30.442517
 30
0.0
 10
551.854231
 20
16.619781
 30
0.0
 10
551.854231
 20
16.619781
 30
0.0
  0
SPLINE
  5
143
100
AcDbEntity
  8
D_U+00E9coupe_V5
 62
3
100
AcDbSpline
 70
8
 71
3
 72
8
 73
4
 74
0
 40
0
 40
0
 40
0
 40
0
 40
1
 40
1
 40
1
 40
1
 10
489.929665
 20
138.629745
 30
0.0
 10
490.813319
 20
138.629745
 30
0.0
 10
491.529651
 20
139.346103
 30
0.0
 10
491.529651
 20
140.229757
 30
0.0
  0
SPLINE
  5
144
100
AcDbEntity
  8
D_U+00E9coupe_V5
 62
3
100
AcDbSpline
 70
8
 71
3
 72
8
 73
4
 74
0
 40
0
 40
0
 40
0
 40
0
 40
1
 40
1
 40
1
 40
1
 10
491.529651
 20
140.229757
 30
0.0
 10
491.529651
 20
141.113411
 30
0.0
 10
490.813319
 20
141.829742
 30
0.0
 10
489.929665
 20
141.829742
 30
0.0
  0
SPLINE
  5
145
100
AcDbEntity
  8
D_U+00E9coupe_V5
 62
3
100
AcDbSpline
 70
8
 71
3
 72
8
 73
4
 74
0
 40
0
 40
0
 40
0
 40
0
 40
1
 40
1
 40
1
 40
1
 10
489.929665
 20
141.829742
 30
0.0
 10
489.046011
 20
141.829742
 30
0.0
 10
488.329653
 20
141.113411
 30
0.0
 10
488.329653
 20
140.229757
 30
0.0
  0
SPLINE
  5
146
100
AcDbEntity
  8
D_U+00E9coupe_V5
 62
3
100
AcDbSpline
 70
8
 71
3
 72
8
 73
4
 74
0
 40
0
 40
0
 40
0
 40
0
 40
1
 40
1
 40
1
 40
1
 10
488.329653
 20
140.229757
 30
0.0
 10
488.329653
 20
139.346103
 30
0.0
 10
489.046011
 20
138.629745
 30
0.0
 10
489.929665
 20
138.629745
 30
0.0
  0
LWPOLYLINE
  5
147
100
AcDbEntity
  8
D_U+00E9coupe_V5
 62
3
100
AcDbPolyline
 90
2
 70
1
 10
489.929665
 20
62.529727
 30
0.0
 10
489.929665
 20
62.529727
 30
0.0
  0
SPLINE
  5
148
100
AcDbEntity
  8
D_U+00E9coupe_V5
 62
3
100
AcDbSpline
 70
8
 71
3
 72
8
 73
4
 74
0
 40
0
 40
0
 40
0
 40
0
 40
1
 40
1
 40
1
 40
1
 10
354.729609
 20
138.629745
 30
0.0
 10
355.613263
 20
138.629745
 30
0.0
 10
356.329621
 20
139.346103
 30
0.0
 10
356.329621
 20
140.229757
 30
0.0
  0
SPLINE
  5
149
100
AcDbEntity
  8
D_U+00E9coupe_V5
 62
3
100
AcDbSpline
 70
8
 71
3
 72
8
 73
4
 74
0
 40
0
 40
0
 40
0
 40
0
 40
1
 40
1
 40
1
 40
1
 10
356.329621
 20
140.229757
 30
0.0
 10
356.329621
 20
141.113411
 30
0.0
 10
355.613263
 20
141.829742
 30
0.0
 10
354.729609
 20
141.829742
 30
0.0
  0
SPLINE
  5
14a
100
AcDbEntity
  8
D_U+00E9coupe_V5
 62
3
100
AcDbSpline
 70
8
 71
3
 72
8
 73
4
 74
0
 40
0
 40
0
 40
0
 40
0
 40
1
 40
1
 40
1
 40
1
 10
354.729609
 20
141.829742
 30
0.0
 10
353.845955
 20
141.829742
 30
0.0
 10
353.129624
 20
141.113411
 30
0.0
 10
353.129624
 20
140.229757
 30
0.0
  0
SPLINE
  5
14b
100
AcDbEntity
  8
D_U+00E9coupe_V5
 62
3
100
AcDbSpline
 70
8
 71
3
 72
8
 73
4
 74
0
 40
0
 40
0
 40
0
 40
0
 40
1
 40
1
 40
1
 40
1
 10
353.129624
 20
140.229757
 30
0.0
 10
353.129624
 20
139.346103
 30
0.0
 10
353.845955
 20
138.629745
 30
0.0
 10
354.729609
 20
138.629745
 30
0.0
  0
LWPOLYLINE
  5
14c
100
AcDbEntity
  8
D_U+00E9coupe_V5
 62
3
100
AcDbPolyline
 90
2
 70
1
 10
489.929665
 20
138.629745
 30
0.0
 10
489.929665
 20
138.629745
 30
0.0
  0
SPLINE
  5
14d
100
AcDbEntity
  8
D_U+00E9coupe_V5
 62
3
100
AcDbSpline
 70
8
 71
3
 72
8
 73
4
 74
0
 40
0
 40
0
 40
0
 40
0
 40
1
 40
1
 40
1
 40
1
 10
354.729609
 20
62.529727
 30
0.0
 10
355.613263
 20
62.529727
 30
0.0
 10
356.329621
 20
63.246059
 30
0.0
 10
356.329621
 20
64.129713
 30
0.0
  0
SPLINE
  5
14e
100
AcDbEntity
  8
D_U+00E9coupe_V5
 62
3
100
AcDbSpline
 70
8
 71
3
 72
8
 73
4
 74
0
 40
0
 40
0
 40
0
 40
0
 40
1
 40
1
 40
1
 40
1
 10
356.329621
 20
64.129713
 30
0.0
 10
356.329621
 20
65.013367
 30
0.0
 10
355.613263
 20
65.729725
 30
0.0
 10
354.729609
 20
65.729725
 30
0.0
  0
SPLINE
  5
14f
100
AcDbEntity
  8
D_U+00E9coupe_V5
 62
3
100
AcDbSpline
 70
8
 71
3
 72
8
 73
4
 74
0
 40
0
 40
0
 40
0
 40
0
 40
1
 40
1
 40
1
 40
1
 10
354.729609
 20
65.729725
 30
0.0
 10
353.845955
 20
65.729725
 30
0.0
 10
353.129624
 20
65.013367
 30
0.0
 10
353.129624
 20
64.129713
 30
0.0
  0
SPLINE
  5
150
100
AcDbEntity
  8
D_U+00E9coupe_V5
 62
3
100
AcDbSpline
 70
8
 71
3
 72
8
 73
4
 74
0
 40
0
 40
0
 40
0
 40
0
 40
1
 40
1
 40
1
 40
1
 10
353.129624
 20
64.129713
 30
0.0
 10
353.129624
 20
63.246059
 30
0.0
 10
353.845955
 20
62.529727
 30
0.0
 10
354.729609
 20
62.529727
 30
0.0
  0
LWPOLYLINE
  5
151
100
AcDbEntity
  8
D_U+00E9coupe_V5
 62
3
100
AcDbPolyline
 90
2
 70
1
 10
354.729609
 20
138.629745
 30
0.0
 10
354.729609
 20
138.629745
 30
0.0
  0
LWPOLYLINE
  5
152
100
AcDbEntity
  8
D_U+00E9coupe_V5
 62
3
100
AcDbPolyline
 90
2
 70
1
 10
354.729609
 20
62.529727
 30
0.0
 10
354.729609
 20
62.529727
 30
0.0
  0
SPLINE
  5
153
100
AcDbEntity
  8
D_U+00E9coupe_V5
 62
3
100
AcDbSpline
 70
8
 71
3
 72
8
 73
4
 74
0
 40
0
 40
0
 40
0
 40
0
 40
1
 40
1
 40
1
 40
1
 10
233.212643
 20
223.519947
 30
0.0
 10
234.151526
 20
223.519947
 30
0.0
 10
234.912641
 20
222.758821
 30
0.0
 10
234.912641
 20
221.819949
 30
0.0
  0
SPLINE
  5
154
100
AcDbEntity
  8
D_U+00E9coupe_V5
 62
3
100
AcDbSpline
 70
8
 71
3
 72
8
 73
4
 74
0
 40
0
 40
0
 40
0
 40
0
 40
1
 40
1
 40
1
 40
1
 10
234.912641
 20
221.819949
 30
0.0
 10
234.912641
 20
220.881076
 30
0.0
 10
234.151526
 20
220.119951
 30
0.0
 10
233.212643
 20
220.119951
 30
0.0
  0
SPLINE
  5
155
100
AcDbEntity
  8
D_U+00E9coupe_V5
 62
3
100
AcDbSpline
 70
8
 71
3
 72
8
 73
4
 74
0
 40
0
 40
0
 40
0
 40
0
 40
1
 40
1
 40
1
 40
1
 10
233.212643
 20
220.119951
 30
0.0
 10
232.273760
 20
220.119951
 30
0.0
 10
231.512645
 20
220.881076
 30
0.0
 10
231.512645
 20
221.819949
 30
0.0
  0
SPLINE
  5
156
100
AcDbEntity
  8
D_U+00E9coupe_V5
 62
3
100
AcDbSpline
 70
8
 71
3
 72
8
 73
4
 74
0
 40
0
 40
0
 40
0
 40
0
 40
1
 40
1
 40
1
 40
1
 10
231.512645
 20
221.819949
 30
0.0
 10
231.512645
 20
222.758821
 30
0.0
 10
232.273760
 20
223.519947
 30
0.0
 10
233.212643
 20
223.519947
 30
0.0
  0
LWPOLYLINE
  5
157
100
AcDbEntity
  8
D_U+00E9coupe_V5
 62
3
100
AcDbPolyline
 90
52
 70
1
 10
269.593795
 20
150.065864
 30
0.0
 10
299.751243
 20
150.065864
 30
0.0
 10
299.751243
 20
145.065856
 30
0.0
 10
324.751204
 20
145.065856
 30
0.0
 10
324.751204
 20
150.065864
 30
0.0
 10
377.172350
 20
150.065864
 30
0.0
 10
377.172350
 20
145.065856
 30
0.0
 10
419.593533
 20
145.065856
 30
0.0
 10
419.593533
 20
150.065864
 30
0.0
 10
449.593501
 20
150.065864
 30
0.0
 10
449.593501
 20
145.065856
 30
0.0
 10
474.593436
 20
145.065856
 30
0.0
 10
474.593436
 20
150.065864
 30
0.0
 10
504.593404
 20
150.065864
 30
0.0
 10
504.593404
 20
145.065856
 30
0.0
 10
529.593365
 20
145.065856
 30
0.0
 10
529.593365
 20
150.065864
 30
0.0
 10
559.593307
 20
150.065864
 30
0.0
 10
559.593307
 20
145.065856
 30
0.0
 10
579.593260
 20
145.065856
 30
0.0
 10
579.593260
 20
125.065903
 30
0.0
 10
584.593268
 20
125.065903
 30
0.0
 10
584.593268
 20
95.065961
 30
0.0
 10
579.593260
 20
95.065961
 30
0.0
 10
579.593260
 20
65.065992
 30
0.0
 10
584.593268
 20
65.065992
 30
0.0
 10
584.593268
 20
25.066060
 30
0.0
 10
579.593260
 20
25.066060
 30
0.0
 10
579.593260
 20
5.066108
 30
0.0
 10
559.593307
 20
5.066108
 30
0.0
 10
559.593307
 20
0.066126
 30
0.0
 10
485.412468
 20
0.066126
 30
0.0
 10
485.412468
 20
5.066108
 30
0.0
 10
446.215598
 20
5.066108
 30
0.0
 10
446.215598
 20
0.066126
 30
0.0
 10
379.672314
 20
0.066126
 30
0.0
 10
379.672314
 20
5.066108
 30
0.0
 10
343.774634
 20
5.066108
 30
0.0
 10
343.774634
 20
0.066126
 30
0.0
 10
269.593795
 20
0.066126
 30
0.0
 10
269.593795
 20
5.066108
 30
0.0
 10
249.593827
 20
5.066108
 30
0.0
 10
249.593827
 20
25.066060
 30
0.0
 10
244.593834
 20
25.066060
 30
0.0
 10
244.593834
 20
65.065992
 30
0.0
 10
249.593827
 20
65.065992
 30
0.0
 10
249.593827
 20
95.065961
 30
0.0
 10
244.593834
 20
95.065961
 30
0.0
 10
244.593834
 20
125.065903
 30
0.0
 10
249.593827
 20
125.065903
 30
0.0
 10
249.593827
 20
145.065856
 30
0.0
 10
269.593795
 20
145.065856
 30
0.0
  0
SPLINE
  5
158
100
AcDbEntity
  8
D_U+00E9coupe_V5
 62
3
100
AcDbSpline
 70
8
 71
3
 72
8
 73
4
 74
0
 40
0
 40
0
 40
0
 40
0
 40
1
 40
1
 40
1
 40
1
 10
7.312939
 20
220.119951
 30
0.0
 10
6.374057
 20
220.119951
 30
0.0
 10
5.612942
 20
220.881076
 30
0.0
 10
5.612942
 20
221.819949
 30
0.0
  0
SPLINE
  5
159
100
AcDbEntity
  8
D_U+00E9coupe_V5
 62
3
100
AcDbSpline
 70
8
 71
3
 72
8
 73
4
 74
0
 40
0
 40
0
 40
0
 40
0
 40
1
 40
1
 40
1
 40
1
 10
5.612942
 20
221.819949
 30
0.0
 10
5.612942
 20
222.758821
 30
0.0
 10
6.374057
 20
223.519947
 30
0.0
 10
7.312939
 20
223.519947
 30
0.0
  0
SPLINE
  5
15a
100
AcDbEntity
  8
D_U+00E9coupe_V5
 62
3
100
AcDbSpline
 70
8
 71
3
 72
8
 73
4
 74
0
 40
0
 40
0
 40
0
 40
0
 40
1
 40
1
 40
1
 40
1
 10
7.312939
 20
223.519947
 30
0.0
 10
8.251822
 20
223.519947
 30
0.0
 10
9.012937
 20
222.758821
 30
0.0
 10
9.012937
 20
221.819949
 30
0.0
  0
SPLINE
  5
15b
100
AcDbEntity
  8
D_U+00E9coupe_V5
 62
3
100
AcDbSpline
 70
8
 71
3
 72
8
 73
4
 74
0
 40
0
 40
0
 40
0
 40
0
 40
1
 40
1
 40
1
 40
1
 10
9.012937
 20
221.819949
 30
0.0
 10
9.012937
 20
220.881076
 30
0.0
 10
8.251822
 20
220.119951
 30
0.0
 10
7.312939
 20
220.119951
 30
0.0
  0
LWPOLYLINE
  5
15c
100
AcDbEntity
  8
D_U+00E9coupe_V5
 62
3
100
AcDbPolyline
 90
2
 70
1
 10
233.212643
 20
223.519947
 30
0.0
 10
233.212643
 20
223.519947
 30
0.0
  0
LWPOLYLINE
  5
15d
100
AcDbEntity
  8
D_U+00E9coupe_V5
 62
3
100
AcDbPolyline
 90
2
 70
1
 10
7.312939
 20
220.119951
 30
0.0
 10
7.312939
 20
220.119951
 30
0.0
  0
SPLINE
  5
15e
100
AcDbEntity
  8
D_U+00E9coupe_V5
 62
3
100
AcDbSpline
 70
8
 71
3
 72
8
 73
4
 74
0
 40
0
 40
0
 40
0
 40
0
 40
1
 40
1
 40
1
 40
1
 10
82.651868
 20
248.815658
 30
0.0
 10
82.651868
 20
248.263394
 30
0.0
 10
82.204154
 20
247.815667
 30
0.0
 10
81.651869
 20
247.815667
 30
0.0
  0
LWPOLYLINE
  5
15f
100
AcDbEntity
  8
D_U+00E9coupe_V5
 62
3
100
AcDbPolyline
 90
5
 70
0
 10
14.762969
 20
311.117519
 30
0.0
 10
225.762613
 20
311.117519
 30
0.0
 10
225.762613
 20
279.375034
 30
0.0
 10
82.651868
 20
279.375034
 30
0.0
 10
82.651868
 20
248.815658
 30
0.0
  0
SPLINE
  5
160
100
AcDbEntity
  8
D_U+00E9coupe_V5
 62
3
100
AcDbSpline
 70
8
 71
3
 72
8
 73
4
 74
0
 40
0
 40
0
 40
0
 40
0
 40
1
 40
1
 40
1
 40
1
 10
77.650865
 20
247.815667
 30
0.0
 10
77.098580
 20
247.815667
 30
0.0
 10
76.650866
 20
248.263394
 30
0.0
 10
76.650866
 20
248.815658
 30
0.0
  0
LWPOLYLINE
  5
161
100
AcDbEntity
  8
D_U+00E9coupe_V5
 62
3
100
AcDbPolyline
 90
2
 70
0
 10
81.651869
 20
247.815667
 30
0.0
 10
77.650865
 20
247.815667
 30
0.0
  0
SPLINE
  5
162
100
AcDbEntity
  8
D_U+00E9coupe_V5
 62
3
100
AcDbSpline
 70
8
 71
3
 72
8
 73
4
 74
0
 40
0
 40
0
 40
0
 40
0
 40
1
 40
1
 40
1
 40
1
 10
175.953292
 20
263.737762
 30
0.0
 10
175.953292
 20
264.293863
 30
0.0
 10
180.654292
 20
264.744659
 30
0.0
 10
186.453274
 20
264.744659
 30
0.0
  0
SPLINE
  5
163
100
AcDbEntity
  8
D_U+00E9coupe_V5
 62
3
100
AcDbSpline
 70
8
 71
3
 72
8
 73
4
 74
0
 40
0
 40
0
 40
0
 40
0
 40
1
 40
1
 40
1
 40
1
 10
186.453274
 20
264.744659
 30
0.0
 10
192.252254
 20
264.744659
 30
0.0
 10
196.953257
 20
264.293863
 30
0.0
 10
196.953257
 20
263.737762
 30
0.0
  0
LWPOLYLINE
  5
164
100
AcDbEntity
  8
D_U+00E9coupe_V5
 62
3
100
AcDbPolyline
 90
5
 70
0
 10
76.650866
 20
248.815658
 30
0.0
 10
76.650866
 20
279.375034
 30
0.0
 10
14.762969
 20
279.375034
 30
0.0
 10
14.762969
 20
311.117519
 30
0.0
 10
14.762969
 20
311.117519
 30
0.0
  0
SPLINE
  5
165
100
AcDbEntity
  8
D_U+00E9coupe_V5
 62
3
100
AcDbSpline
 70
8
 71
3
 72
8
 73
4
 74
0
 40
0
 40
0
 40
0
 40
0
 40
1
 40
1
 40
1
 40
1
 10
196.953257
 20
243.737783
 30
0.0
 10
196.953257
 20
242.633229
 30
0.0
 10
196.057826
 20
241.737801
 30
0.0
 10
194.953259
 20
241.737801
 30
0.0
  0
LWPOLYLINE
  5
166
100
AcDbEntity
  8
D_U+00E9coupe_V5
 62
3
100
AcDbPolyline
 90
2
 70
0
 10
196.953257
 20
263.737762
 30
0.0
 10
196.953257
 20
243.737783
 30
0.0
  0
SPLINE
  5
167
100
AcDbEntity
  8
D_U+00E9coupe_V5
 62
3
100
AcDbSpline
 70
8
 71
3
 72
8
 73
4
 74
0
 40
0
 40
0
 40
0
 40
0
 40
1
 40
1
 40
1
 40
1
 10
177.953287
 20
241.737801
 30
0.0
 10
176.848720
 20
241.737801
 30
0.0
 10
175.953292
 20
242.633229
 30
0.0
 10
175.953292
 20
243.737783
 30
0.0
  0
LWPOLYLINE
  5
168
100
AcDbEntity
  8
D_U+00E9coupe_V5
 62
3
100
AcDbPolyline
 90
2
 70
0
 10
194.953259
 20
241.737801
 30
0.0
 10
177.953287
 20
241.737801
 30
0.0
  0
LWPOLYLINE
  5
169
100
AcDbEntity
  8
D_U+00E9coupe_V5
 62
3
100
AcDbPolyline
 90
3
 70
0
 10
175.953292
 20
243.737783
 30
0.0
 10
175.953292
 20
263.737762
 30
0.0
 10
175.953292
 20
263.737762
 30
0.0
  0
SPLINE
  5
16a
100
AcDbEntity
  8
D_U+00E9coupe_V5
 62
3
100
AcDbSpline
 70
8
 71
3
 72
8
 73
4
 74
0
 40
0
 40
0
 40
0
 40
0
 40
1
 40
1
 40
1
 40
1
 10
27.953542
 20
244.737774
 30
0.0
 10
27.953542
 20
243.633220
 30
0.0
 10
28.848970
 20
242.737792
 30
0.0
 10
29.953537
 20
242.737792
 30
0.0
  0
LWPOLYLINE
  5
16b
100
AcDbEntity
  8
D_U+00E9coupe_V5
 62
3
100
AcDbPolyline
 90
2
 70
0
 10
27.953542
 20
264.737753
 30
0.0
 10
27.953542
 20
244.737774
 30
0.0
  0
SPLINE
  5
16c
100
AcDbEntity
  8
D_U+00E9coupe_V5
 62
3
100
AcDbSpline
 70
8
 71
3
 72
8
 73
4
 74
0
 40
0
 40
0
 40
0
 40
0
 40
1
 40
1
 40
1
 40
1
 10
46.953509
 20
242.737792
 30
0.0
 10
48.058076
 20
242.737792
 30
0.0
 10
48.953507
 20
243.633220
 30
0.0
 10
48.953507
 20
244.737774
 30
0.0
  0
LWPOLYLINE
  5
16d
100
AcDbEntity
  8
D_U+00E9coupe_V5
 62
3
100
AcDbPolyline
 90
2
 70
0
 10
29.953537
 20
242.737792
 30
0.0
 10
46.953509
 20
242.737792
 30
0.0
  0
SPLINE
  5
16e
100
AcDbEntity
  8
D_U+00E9coupe_V5
 62
3
100
AcDbSpline
 70
8
 71
3
 72
8
 73
4
 74
0
 40
0
 40
0
 40
0
 40
0
 40
1
 40
1
 40
1
 40
1
 10
48.953507
 20
264.737753
 30
0.0
 10
48.953507
 20
265.293854
 30
0.0
 10
44.252504
 20
265.744677
 30
0.0
 10
38.453524
 20
265.744677
 30
0.0
  0
SPLINE
  5
16f
100
AcDbEntity
  8
D_U+00E9coupe_V5
 62
3
100
AcDbSpline
 70
8
 71
3
 72
8
 73
4
 74
0
 40
0
 40
0
 40
0
 40
0
 40
1
 40
1
 40
1
 40
1
 10
38.453524
 20
265.744677
 30
0.0
 10
32.654542
 20
265.744677
 30
0.0
 10
27.953542
 20
265.293854
 30
0.0
 10
27.953542
 20
264.737753
 30
0.0
  0
LWPOLYLINE
  5
170
100
AcDbEntity
  8
D_U+00E9coupe_V5
 62
3
100
AcDbPolyline
 90
2
 70
0
 10
48.953507
 20
244.737774
 30
0.0
 10
48.953507
 20
264.737753
 30
0.0
  0
SPLINE
  5
171
100
AcDbEntity
  8
D_U+00E9coupe_V5
 62
3
100
AcDbSpline
 70
8
 71
3
 72
8
 73
4
 74
0
 40
0
 40
0
 40
0
 40
0
 40
1
 40
1
 40
1
 40
1
 10
7.312939
 20
281.519849
 30
0.0
 10
8.251822
 20
281.519849
 30
0.0
 10
9.012937
 20
280.758723
 30
0.0
 10
9.012937
 20
279.819851
 30
0.0
  0
SPLINE
  5
172
100
AcDbEntity
  8
D_U+00E9coupe_V5
 62
3
100
AcDbSpline
 70
8
 71
3
 72
8
 73
4
 74
0
 40
0
 40
0
 40
0
 40
0
 40
1
 40
1
 40
1
 40
1
 10
9.012937
 20
279.819851
 30
0.0
 10
9.012937
 20
278.880979
 30
0.0
 10
8.251822
 20
278.119853
 30
0.0
 10
7.312939
 20
278.119853
 30
0.0
  0
SPLINE
  5
173
100
AcDbEntity
  8
D_U+00E9coupe_V5
 62
3
100
AcDbSpline
 70
8
 71
3
 72
8
 73
4
 74
0
 40
0
 40
0
 40
0
 40
0
 40
1
 40
1
 40
1
 40
1
 10
7.312939
 20
278.119853
 30
0.0
 10
6.374057
 20
278.119853
 30
0.0
 10
5.612942
 20
278.880979
 30
0.0
 10
5.612942
 20
279.819851
 30
0.0
  0
SPLINE
  5
174
100
AcDbEntity
  8
D_U+00E9coupe_V5
 62
3
100
AcDbSpline
 70
8
 71
3
 72
8
 73
4
 74
0
 40
0
 40
0
 40
0
 40
0
 40
1
 40
1
 40
1
 40
1
 10
5.612942
 20
279.819851
 30
0.0
 10
5.612942
 20
280.758723
 30
0.0
 10
6.374057
 20
281.519849
 30
0.0
 10
7.312939
 20
281.519849
 30
0.0
  0
LWPOLYLINE
  5
175
100
AcDbEntity
  8
D_U+00E9coupe_V5
 62
3
100
AcDbPolyline
 90
1
 70
1
 10
27.953542
 20
264.737753
 30
0.0
  0
SPLINE
  5
176
100
AcDbEntity
  8
D_U+00E9coupe_V5
 62
3
100
AcDbSpline
 70
8
 71
3
 72
8
 73
4
 74
0
 40
0
 40
0
 40
0
 40
0
 40
1
 40
1
 40
1
 40
1
 10
233.208986
 20
281.519849
 30
0.0
 10
234.147867
 20
281.519849
 30
0.0
 10
234.908982
 20
280.758723
 30
0.0
 10
234.908982
 20
279.819851
 30
0.0
  0
SPLINE
  5
177
100
AcDbEntity
  8
D_U+00E9coupe_V5
 62
3
100
AcDbSpline
 70
8
 71
3
 72
8
 73
4
 74
0
 40
0
 40
0
 40
0
 40
0
 40
1
 40
1
 40
1
 40
1
 10
234.908982
 20
279.819851
 30
0.0
 10
234.908982
 20
278.880979
 30
0.0
 10
234.147867
 20
278.119853
 30
0.0
 10
233.208986
 20
278.119853
 30
0.0
  0
SPLINE
  5
178
100
AcDbEntity
  8
D_U+00E9coupe_V5
 62
3
100
AcDbSpline
 70
8
 71
3
 72
8
 73
4
 74
0
 40
0
 40
0
 40
0
 40
0
 40
1
 40
1
 40
1
 40
1
 10
233.208986
 20
278.119853
 30
0.0
 10
232.270103
 20
278.119853
 30
0.0
 10
231.508988
 20
278.880979
 30
0.0
 10
231.508988
 20
279.819851
 30
0.0
  0
SPLINE
  5
179
100
AcDbEntity
  8
D_U+00E9coupe_V5
 62
3
100
AcDbSpline
 70
8
 71
3
 72
8
 73
4
 74
0
 40
0
 40
0
 40
0
 40
0
 40
1
 40
1
 40
1
 40
1
 10
231.508988
 20
279.819851
 30
0.0
 10
231.508988
 20
280.758723
 30
0.0
 10
232.270103
 20
281.519849
 30
0.0
 10
233.208986
 20
281.519849
 30
0.0
  0
LWPOLYLINE
  5
17a
100
AcDbEntity
  8
D_U+00E9coupe_V5
 62
3
100
AcDbPolyline
 90
2
 70
1
 10
7.312939
 20
281.519849
 30
0.0
 10
7.312939
 20
281.519849
 30
0.0
  0
LWPOLYLINE
  5
17b
100
AcDbEntity
  8
D_U+00E9coupe_V5
 62
3
100
AcDbPolyline
 90
2
 70
1
 10
233.208986
 20
281.519849
 30
0.0
 10
233.208986
 20
281.519849
 30
0.0
  0
SPLINE
  5
17c
100
AcDbEntity
  8
D_U+00E9coupe_V5
 62
3
100
AcDbSpline
 70
8
 71
3
 72
8
 73
4
 74
0
 40
0
 40
0
 40
0
 40
0
 40
1
 40
1
 40
1
 40
1
 10
233.208986
 20
328.119774
 30
0.0
 10
232.270103
 20
328.119774
 30
0.0
 10
231.508988
 20
328.880874
 30
0.0
 10
231.508988
 20
329.819772
 30
0.0
  0
SPLINE
  5
17d
100
AcDbEntity
  8
D_U+00E9coupe_V5
 62
3
100
AcDbSpline
 70
8
 71
3
 72
8
 73
4
 74
0
 40
0
 40
0
 40
0
 40
0
 40
1
 40
1
 40
1
 40
1
 10
231.508988
 20
329.819772
 30
0.0
 10
231.508988
 20
330.758645
 30
0.0
 10
232.270103
 20
331.519770
 30
0.0
 10
233.208986
 20
331.519770
 30
0.0
  0
SPLINE
  5
17e
100
AcDbEntity
  8
D_U+00E9coupe_V5
 62
3
100
AcDbSpline
 70
8
 71
3
 72
8
 73
4
 74
0
 40
0
 40
0
 40
0
 40
0
 40
1
 40
1
 40
1
 40
1
 10
233.208986
 20
331.519770
 30
0.0
 10
234.147867
 20
331.519770
 30
0.0
 10
234.908982
 20
330.758645
 30
0.0
 10
234.908982
 20
329.819772
 30
0.0
  0
SPLINE
  5
17f
100
AcDbEntity
  8
D_U+00E9coupe_V5
 62
3
100
AcDbSpline
 70
8
 71
3
 72
8
 73
4
 74
0
 40
0
 40
0
 40
0
 40
0
 40
1
 40
1
 40
1
 40
1
 10
234.908982
 20
329.819772
 30
0.0
 10
234.908982
 20
328.880874
 30
0.0
 10
234.147867
 20
328.119774
 30
0.0
 10
233.208986
 20
328.119774
 30
0.0
  0
LWPOLYLINE
  5
180
100
AcDbEntity
  8
D_U+00E9coupe_V5
 62
3
100
AcDbPolyline
 90
20
 70
1
 10
0.066152
 20
205.982705
 30
0.0
 10
0.066152
 20
355.982443
 30
0.0
 10
55.126844
 20
355.982443
 30
0.0
 10
55.126844
 20
350.982461
 30
0.0
 10
79.969302
 20
350.982461
 30
0.0
 10
79.969302
 20
355.982443
 30
0.0
 10
160.126666
 20
355.982443
 30
0.0
 10
160.126666
 20
350.982461
 30
0.0
 10
184.969126
 20
350.982461
 30
0.0
 10
184.969126
 20
355.982443
 30
0.0
 10
240.455774
 20
355.982443
 30
0.0
 10
240.455774
 20
205.982705
 30
0.0
 10
184.969126
 20
205.982705
 30
0.0
 10
184.969126
 20
210.982687
 30
0.0
 10
160.126666
 20
210.982687
 30
0.0
 10
160.126666
 20
205.982705
 30
0.0
 10
79.969302
 20
205.982705
 30
0.0
 10
79.969302
 20
210.982687
 30
0.0
 10
55.126844
 20
210.982687
 30
0.0
 10
55.126844
 20
205.982705
 30
0.0
  0
SPLINE
  5
181
100
AcDbEntity
  8
D_U+00E9coupe_V5
 62
3
100
AcDbSpline
 70
8
 71
3
 72
8
 73
4
 74
0
 40
0
 40
0
 40
0
 40
0
 40
1
 40
1
 40
1
 40
1
 10
7.312939
 20
328.119774
 30
0.0
 10
6.374057
 20
328.119774
 30
0.0
 10
5.612942
 20
328.880874
 30
0.0
 10
5.612942
 20
329.819772
 30
0.0
  0
SPLINE
  5
182
100
AcDbEntity
  8
D_U+00E9coupe_V5
 62
3
100
AcDbSpline
 70
8
 71
3
 72
8
 73
4
 74
0
 40
0
 40
0
 40
0
 40
0
 40
1
 40
1
 40
1
 40
1
 10
5.612942
 20
329.819772
 30
0.0
 10
5.612942
 20
330.758645
 30
0.0
 10
6.374057
 20
331.519770
 30
0.0
 10
7.312939
 20
331.519770
 30
0.0
  0
SPLINE
  5
183
100
AcDbEntity
  8
D_U+00E9coupe_V5
 62
3
100
AcDbSpline
 70
8
 71
3
 72
8
 73
4
 74
0
 40
0
 40
0
 40
0
 40
0
 40
1
 40
1
 40
1
 40
1
 10
7.312939
 20
331.519770
 30
0.0
 10
8.251822
 20
331.519770
 30
0.0
 10
9.012937
 20
330.758645
 30
0.0
 10
9.012937
 20
329.819772
 30
0.0
  0
SPLINE
  5
184
100
AcDbEntity
  8
D_U+00E9coupe_V5
 62
3
100
AcDbSpline
 70
8
 71
3
 72
8
 73
4
 74
0
 40
0
 40
0
 40
0
 40
0
 40
1
 40
1
 40
1
 40
1
 10
9.012937
 20
329.819772
 30
0.0
 10
9.012937
 20
328.880874
 30
0.0
 10
8.251822
 20
328.119774
 30
0.0
 10
7.312939
 20
328.119774
 30
0.0
  0
LWPOLYLINE
  5
185
100
AcDbEntity
  8
D_U+00E9coupe_V5
 62
3
100
AcDbPolyline
 90
2
 70
1
 10
233.208986
 20
328.119774
 30
0.0
 10
233.208986
 20
328.119774
 30
0.0
  0
LWPOLYLINE
  5
186
100
AcDbEntity
  8
D_U+00E9coupe_V5
 62
3
100
AcDbPolyline
 90
2
 70
1
 10
7.312939
 20
328.119774
 30
0.0
 10
7.312939
 20
328.119774
 30
0.0
  0
LWPOLYLINE
  5
187
100
AcDbEntity
  8
D_U+00E9coupe_V5
 62
1
100
AcDbPolyline
 90
4
 70
1
 10
295.347738
 20
283.982851
 30
0.0
 10
535.746838
 20
283.982851
 30
0.0
 10
535.746838
 20
279.114320
 30
0.0
 10
295.347738
 20
279.114320
 30
0.0
  0
LWPOLYLINE
  5
188
100
AcDbEntity
  8
D_U+00E9coupe_V5
 62
1
100
AcDbPolyline
 90
2
 70
0
 10
350.843628
 20
283.982587
 30
0.0
 10
350.843628
 20
279.100821
 30
0.0
  0
LWPOLYLINE
  5
189
100
AcDbEntity
  8
D_U+00E9coupe_V5
 62
1
100
AcDbPolyline
 90
2
 70
0
 10
375.686082
 20
283.982587
 30
0.0
 10
375.686082
 20
279.139556
 30
0.0
  0
LWPOLYLINE
  5
18a
100
AcDbEntity
  8
D_U+00E9coupe_V5
 62
1
100
AcDbPolyline
 90
2
 70
0
 10
455.843452
 20
283.982587
 30
0.0
 10
455.843452
 20
279.139556
 30
0.0
  0
LWPOLYLINE
  5
18b
100
AcDbEntity
  8
D_U+00E9coupe_V5
 62
1
100
AcDbPolyline
 90
2
 70
0
 10
480.685906
 20
283.982587
 30
0.0
 10
480.685906
 20
279.139556
 30
0.0
  0
ENDSEC
  0
SECTION
  2
OBJECTS
  0
DICTIONARY
  5
C
330
0
100
AcDbDictionary
  3
ACAD_GROUP
350
D
  3
ACAD_MLINESTYLE
350
17
  0
DICTIONARY
  5
D
330
C
100
AcDbDictionary
  0
DICTIONARY
  5
1A
330
C
100
AcDbDictionary
  0
DICTIONARY
  5
17
330
C
100
AcDbDictionary
  3
STANDARD
350
18
  0
DICTIONARY
  5
19
330
C
100
AcDbDictionary
  0
ENDSEC
  0
EOF
