<?xml version="1.0" encoding="UTF-8" standalone="no"?>
<!-- Created with Inkscape (http://www.inkscape.org/) -->

<svg
   width="585.67053mm"
   height="355.96713mm"
   viewBox="0 0 585.67053 355.96713"
   version="1.1"
   id="svg5"
   inkscape:version="1.1.2 (b8e25be833, 2022-02-05)"
   sodipodi:docname="BrailleRAP V5 600x400 planche2.svg"
   xmlns:inkscape="http://www.inkscape.org/namespaces/inkscape"
   xmlns:sodipodi="http://sodipodi.sourceforge.net/DTD/sodipodi-0.dtd"
   xmlns="http://www.w3.org/2000/svg"
   xmlns:svg="http://www.w3.org/2000/svg">
  <sodipodi:namedview
     id="namedview7"
     pagecolor="#ffffff"
     bordercolor="#666666"
     borderopacity="1.0"
     inkscape:pageshadow="2"
     inkscape:pageopacity="0.0"
     inkscape:pagecheckerboard="0"
     inkscape:document-units="mm"
     showgrid="false"
     fit-margin-top="0"
     fit-margin-left="0"
     fit-margin-right="0"
     fit-margin-bottom="0"
     inkscape:zoom="0.45291836"
     inkscape:cx="1144.7979"
     inkscape:cy="671.20264"
     inkscape:window-width="1920"
     inkscape:window-height="1017"
     inkscape:window-x="-8"
     inkscape:window-y="-8"
     inkscape:window-maximized="1"
     inkscape:current-layer="g830" />
  <defs
     id="defs2">
    <clipPath
       clipPathUnits="userSpaceOnUse"
       id="clipPath842">
      <path
         d="M 0,1133.86 H 1700.79 V 0 H 0 Z"
         id="path840" />
    </clipPath>
  </defs>
  <g
     inkscape:label="Calque 1"
     inkscape:groupmode="layer"
     id="layer1"
     transform="translate(203.19828,73.475913)">
    <g
       id="g830"
       inkscape:label="BrailleRAP V5 600x400 planche2"
       transform="matrix(0.35277777,0,0,-0.35277777,-210.31458,320.86116)">
      <g
         id="g832"
         transform="translate(1118.1769,630.1758)"
         style="stroke:#000000;stroke-opacity:1;stroke-width:1.00062994;stroke-miterlimit:4;stroke-dasharray:none">
        <path
           d="M 0,0 V -22.858"
           style="fill:none;stroke:#000000;stroke-width:1.00062994;stroke-linecap:round;stroke-linejoin:round;stroke-miterlimit:4;stroke-dasharray:none;stroke-opacity:1"
           id="path834" />
      </g>
      <g
         id="g844"
         transform="translate(1115.3423,604.4831)"
         style="stroke:#000000;stroke-opacity:1;stroke-width:1.00062994;stroke-miterlimit:4;stroke-dasharray:none">
        <path
           d="M 0,0 C 1.565,0 2.835,1.269 2.835,2.835"
           style="fill:none;stroke:#000000;stroke-width:1.00062994;stroke-linecap:round;stroke-linejoin:round;stroke-miterlimit:4;stroke-dasharray:none;stroke-opacity:1"
           id="path846" />
      </g>
      <g
         id="g848"
         transform="translate(1115.3423,604.4831)"
         style="stroke:#000000;stroke-opacity:1;stroke-width:1.00062994;stroke-miterlimit:4;stroke-dasharray:none">
        <path
           d="M 0,0 H -38.899"
           style="fill:none;stroke:#000000;stroke-width:1.00062994;stroke-linecap:round;stroke-linejoin:round;stroke-miterlimit:4;stroke-dasharray:none;stroke-opacity:1"
           id="path850" />
      </g>
      <g
         id="g852"
         transform="translate(1073.6084,607.3177)"
         style="stroke:#000000;stroke-opacity:1;stroke-width:1.00062994;stroke-miterlimit:4;stroke-dasharray:none">
        <path
           d="M 0,0 C 0,-1.565 1.269,-2.835 2.835,-2.835"
           style="fill:none;stroke:#000000;stroke-width:1.00062994;stroke-linecap:round;stroke-linejoin:round;stroke-miterlimit:4;stroke-dasharray:none;stroke-opacity:1"
           id="path854" />
      </g>
      <g
         id="g856"
         transform="translate(1073.6084,607.3177)"
         style="stroke:#000000;stroke-opacity:1;stroke-width:1.00062994;stroke-miterlimit:4;stroke-dasharray:none">
        <path
           d="M 0,0 V 22.858"
           style="fill:none;stroke:#000000;stroke-width:1.00062994;stroke-linecap:round;stroke-linejoin:round;stroke-miterlimit:4;stroke-dasharray:none;stroke-opacity:1"
           id="path858" />
      </g>
      <g
         id="g860"
         transform="translate(944.6266,667.3776)"
         style="stroke:#000000;stroke-opacity:1;stroke-width:1.00062994;stroke-miterlimit:4;stroke-dasharray:none">
        <path
           d="M 0,0 C 0,3.131 2.538,5.669 5.669,5.669 8.8,5.669 11.339,3.131 11.339,0 11.339,-3.131 8.8,-5.669 5.669,-5.669 2.538,-5.669 0,-3.131 0,0 Z"
           style="fill:none;stroke:#000000;stroke-width:1.00062994;stroke-linecap:round;stroke-linejoin:round;stroke-miterlimit:4;stroke-dasharray:none;stroke-opacity:1"
           id="path862" />
      </g>
      <g
         id="g864"
         transform="translate(1568.7113,630.1757)"
         style="stroke:#000000;stroke-opacity:1;stroke-width:1.00062994;stroke-miterlimit:4;stroke-dasharray:none">
        <path
           d="m 0,0 c 28.128,0 40.819,12.691 40.819,28.346 v 184.252 c 0,15.656 -12.691,28.347 -28.346,28.347 H -749.18 c -15.656,0 -28.347,-12.691 -28.347,-28.347 V 28.346 C -777.527,12.691 -764.836,0 -761.653,0 Z"
           style="fill:none;stroke:#000000;stroke-width:1.00062994;stroke-linecap:round;stroke-linejoin:round;stroke-miterlimit:4;stroke-dasharray:none;stroke-opacity:1"
           id="path866" />
      </g>
      <g
         id="g868"
         transform="translate(889.8747,601.8293)"
         style="stroke:#000000;stroke-opacity:1;stroke-width:1.00062994;stroke-miterlimit:4;stroke-dasharray:none">
        <path
           d="m 0,0 c 0,10.333 8.376,18.709 18.709,18.709 10.332,0 18.708,-8.376 18.708,-18.709 0,-10.333 -8.376,-18.709 -18.708,-18.709 C 8.376,-18.709 0,-10.333 0,0 Z"
           style="fill:none;stroke:#000000;stroke-width:1.00062994;stroke-linecap:round;stroke-linejoin:round;stroke-miterlimit:4;stroke-dasharray:none;stroke-opacity:1"
           id="path870" />
      </g>
      <g
         id="g872"
         transform="translate(955.6385,601.8293)"
         style="stroke:#000000;stroke-opacity:1;stroke-width:1.00062994;stroke-miterlimit:4;stroke-dasharray:none">
        <path
           d="m 0,0 c 0,-2.505 -2.031,-4.535 -4.535,-4.535 -2.505,0 -4.536,2.03 -4.536,4.535 0,2.505 2.031,4.535 4.536,4.535 C -2.031,4.535 0,2.505 0,0 Z"
           style="fill:none;stroke:#000000;stroke-width:1.00062994;stroke-linecap:round;stroke-linejoin:round;stroke-miterlimit:4;stroke-dasharray:none;stroke-opacity:1"
           id="path874" />
      </g>
      <g
         id="g876"
         transform="translate(861.5283,601.8293)"
         style="stroke:#000000;stroke-opacity:1;stroke-width:1.00062994;stroke-miterlimit:4;stroke-dasharray:none">
        <path
           d="M 0,0 C 0,2.505 2.031,4.535 4.535,4.535 7.04,4.535 9.071,2.505 9.071,0 9.071,-2.505 7.04,-4.535 4.535,-4.535 2.031,-4.535 0,-2.505 0,0 Z"
           style="fill:none;stroke:#000000;stroke-width:1.00062994;stroke-linecap:round;stroke-linejoin:round;stroke-miterlimit:4;stroke-dasharray:none;stroke-opacity:1"
           id="path878" />
      </g>
      <g
         id="g880"
         transform="translate(730.6637,1032.6954)"
         style="stroke-width:1.00062994;stroke-miterlimit:4;stroke-dasharray:none;stroke:#000000;stroke-opacity:1">
        <path
           d="M 0,0 H -14.173 V -61.417 H 0 v -79.37 h -14.173 v -61.418 H 0 v -65.197 h -14.173 v -75.59 H 0 v -79.37 h -14.173 v -65.197 H 42.52 c 7.827,0 14.173,6.345 14.173,14.173 v 14.173 h 85.486 v -14.173 h 70.866 v 14.173 h 148.596 v -14.173 H 481.89 v 14.173 h 85.039 v -14.173 h 70.866 v 14.173 h 85.04 v -14.173 h 70.866 v 14.173 h 85.039 v -14.173 c 0,-7.828 6.346,-14.173 14.173,-14.173 h 56.693 v 65.197 h -14.173 v 79.37 h 14.173 v 61.417 h -14.173 v 79.37 h 14.173 v 61.418 h -14.173 v 79.37 h 14.173 V 0 H 935.433 V 85.039 H 0 Z"
           style="fill:none;stroke:#000000;stroke-width:1.00062994;stroke-linecap:round;stroke-linejoin:round;stroke-miterlimit:4;stroke-dasharray:none;stroke-opacity:1"
           id="path882" />
      </g>
      <g
         id="g884"
         transform="translate(1609.5303,658.5222)"
         style="stroke:#000000;stroke-opacity:1;stroke-width:1.00062994;stroke-miterlimit:4;stroke-dasharray:none">
        <path
           d="M 0,0 C 0,-15.655 -12.691,-28.346 -28.346,-28.346"
           style="fill:none;stroke:#000000;stroke-width:1.00062994;stroke-linecap:round;stroke-linejoin:round;stroke-miterlimit:4;stroke-dasharray:none;stroke-opacity:1"
           id="path886" />
      </g>
      <g
         id="g888"
         transform="translate(1014.5747,927.8135)"
         style="stroke:#000000;stroke-opacity:1;stroke-width:1.00062994;stroke-miterlimit:4;stroke-dasharray:none">
        <path
           d="m 0,0 v -14.173 h -157.311 v 57.26 c 0,15.655 12.691,28.346 28.347,28.346 h 624.753 c 15.655,0 28.346,-12.691 28.346,-28.346 v -57.26 H 368.057 V 0 H 297.638 V -14.173 H 70.42 V 0 Z"
           style="fill:none;stroke:#000000;stroke-width:1.00062994;stroke-linecap:round;stroke-linejoin:round;stroke-miterlimit:4;stroke-dasharray:none;stroke-opacity:1"
           id="path890" />
      </g>
      <g
         id="g892"
         transform="translate(1584.3695,230.3114)"
         style="stroke:#000000;stroke-opacity:1;stroke-width:1.00062994;stroke-miterlimit:4;stroke-dasharray:none">
        <path
           d="m 0,0 v 39.183 c -0.009,0.167 -0.009,0.335 0,0.502 0.139,2.658 2.406,4.7 5.064,4.561 2.657,-0.139 4.699,-2.406 4.561,-5.063 V 0 c 0.008,-0.167 0.008,-0.335 0,-0.502 C 9.486,-3.16 7.219,-5.202 4.561,-5.064 1.903,-4.925 -0.139,-2.658 0,0 Z"
           style="fill:none;stroke:#000000;stroke-width:1.00062994;stroke-linecap:round;stroke-linejoin:round;stroke-miterlimit:4;stroke-dasharray:none;stroke-opacity:1"
           id="path894" />
      </g>
      <g
         id="g896"
         transform="translate(1584.3695,155.7602)"
         style="stroke:#000000;stroke-opacity:1;stroke-width:1.00062994;stroke-miterlimit:4;stroke-dasharray:none">
        <path
           d="m 0,0 c -0.139,-2.658 1.903,-4.925 4.561,-5.064 2.658,-0.138 4.925,1.904 5.064,4.562 0.008,0.167 0.008,0.335 0,0.502 V 39.183 C 9.763,41.84 7.721,44.107 5.064,44.246 2.406,44.385 0.139,42.343 0,39.685 -0.009,39.518 -0.009,39.35 0,39.183 Z"
           style="fill:none;stroke:#000000;stroke-width:1.00062994;stroke-linecap:round;stroke-linejoin:round;stroke-miterlimit:4;stroke-dasharray:none;stroke-opacity:1"
           id="path898" />
      </g>
      <g
         id="g900"
         transform="translate(1408.835,285.8989)"
         style="stroke:#000000;stroke-opacity:1;stroke-width:1.00062994;stroke-miterlimit:4;stroke-dasharray:none">
        <path
           d="M 0,0 C 2.505,0 4.536,2.031 4.536,4.535 4.536,7.04 2.505,9.071 0,9.071 -2.505,9.071 -4.535,7.04 -4.535,4.535 -4.535,2.031 -2.505,0 0,0 Z"
           style="fill:none;stroke:#000000;stroke-width:1.00062994;stroke-linecap:round;stroke-linejoin:round;stroke-miterlimit:4;stroke-dasharray:none;stroke-opacity:1"
           id="path902" />
      </g>
      <g
         id="g904"
         transform="translate(1408.835,501.6158)"
         style="stroke:#000000;stroke-opacity:1;stroke-width:1.00062994;stroke-miterlimit:4;stroke-dasharray:none">
        <path
           d="M 0,0 C 2.505,0 4.536,2.031 4.536,4.535 4.536,7.04 2.505,9.071 0,9.071 -2.505,9.071 -4.535,7.04 -4.535,4.535 -4.535,2.031 -2.505,0 0,0 Z"
           style="fill:none;stroke:#000000;stroke-width:1.00062994;stroke-linecap:round;stroke-linejoin:round;stroke-miterlimit:4;stroke-dasharray:none;stroke-opacity:1"
           id="path906" />
      </g>
      <g
         id="g908"
         transform="translate(1025.5902,501.6158)"
         style="stroke:#000000;stroke-opacity:1;stroke-width:1.00062994;stroke-miterlimit:4;stroke-dasharray:none">
        <path
           d="M 0,0 C 2.505,0 4.535,2.031 4.535,4.535 4.535,7.04 2.505,9.071 0,9.071 -2.505,9.071 -4.535,7.04 -4.535,4.535 -4.535,2.031 -2.505,0 0,0 Z"
           style="fill:none;stroke:#000000;stroke-width:1.00062994;stroke-linecap:round;stroke-linejoin:round;stroke-miterlimit:4;stroke-dasharray:none;stroke-opacity:1"
           id="path910" />
      </g>
      <g
         id="g912"
         transform="translate(1025.5902,285.8989)"
         style="stroke:#000000;stroke-opacity:1;stroke-width:1.00062994;stroke-miterlimit:4;stroke-dasharray:none">
        <path
           d="M 0,0 C 2.505,0 4.535,2.031 4.535,4.535 4.535,7.04 2.505,9.071 0,9.071 -2.505,9.071 -4.535,7.04 -4.535,4.535 -4.535,2.031 -2.505,0 0,0 Z"
           style="fill:none;stroke:#000000;stroke-width:1.00062994;stroke-linecap:round;stroke-linejoin:round;stroke-miterlimit:4;stroke-dasharray:none;stroke-opacity:1"
           id="path914" />
      </g>
      <g
         id="g916"
         transform="translate(784.2598,534.0332)"
         style="stroke:#000000;stroke-opacity:1;stroke-width:1.00062994;stroke-miterlimit:4;stroke-dasharray:none">
        <path
           d="m 0,0 h 85.486 v -14.173 h 70.866 V 0 H 304.948 V -14.173 H 425.197 V 0 h 85.039 v -14.173 h 70.866 V 0 h 85.04 v -14.173 h 70.866 V 0 h 85.039 v -14.173 h 56.693 v -56.693 h 14.173 v -85.039 H 878.74 v -85.04 h 14.173 V -354.331 H 878.74 v -56.693 h -56.693 v -14.173 H 611.771 v 14.173 h -111.11 v -14.173 H 312.034 v 14.173 H 210.277 v -14.173 H 0 v 14.173 h -56.693 v 56.693 h -14.173 v 113.386 h 14.173 v 85.04 h -14.173 v 85.039 h 14.173 v 56.693 H 0 Z"
           style="fill:none;stroke:#000000;stroke-width:1.00062994;stroke-linecap:round;stroke-linejoin:round;stroke-miterlimit:4;stroke-dasharray:none;stroke-opacity:1"
           id="path918" />
      </g>
      <g
         id="g920"
         transform="translate(681.132,742.2499)"
         style="stroke:#000000;stroke-opacity:1;stroke-width:1.00062994;stroke-miterlimit:4;stroke-dasharray:none">
        <path
           d="M 0,0 C 2.661,0 4.819,-2.157 4.819,-4.819 4.819,-7.48 2.661,-9.638 0,-9.638 c -2.661,0 -4.819,2.158 -4.819,4.819 C -4.819,-2.157 -2.661,0 0,0 Z"
           style="fill:none;stroke:#000000;stroke-width:1.00062994;stroke-linecap:round;stroke-linejoin:round;stroke-miterlimit:4;stroke-dasharray:none;stroke-opacity:1"
           id="path922" />
      </g>
      <g
         id="g924"
         transform="translate(40.7853,732.6121)"
         style="stroke:#000000;stroke-opacity:1;stroke-width:1.00062994;stroke-miterlimit:4;stroke-dasharray:none">
        <path
           d="M 0,0 C -2.661,0 -4.819,2.158 -4.819,4.819 -4.819,7.48 -2.661,9.638 0,9.638 2.661,9.638 4.819,7.48 4.819,4.819 4.819,2.158 2.661,0 0,0 Z"
           style="fill:none;stroke:#000000;stroke-width:1.00062994;stroke-linecap:round;stroke-linejoin:round;stroke-miterlimit:4;stroke-dasharray:none;stroke-opacity:1"
           id="path926" />
      </g>
      <g
         id="g928"
         transform="translate(61.9035,990.5584)"
         style="stroke:#000000;stroke-opacity:1;stroke-width:1.00062994;stroke-miterlimit:4;stroke-dasharray:none">
        <path
           d="M 0,0 H 598.11 V -89.979 H 192.441 v -86.625 c 0,-1.566 -1.269,-2.835 -2.834,-2.835 h -11.342 c -1.565,0 -2.834,1.269 -2.834,2.835 v 86.625 L 0,-89.979 Z"
           style="fill:none;stroke:#000000;stroke-width:1.00062994;stroke-linecap:round;stroke-linejoin:round;stroke-miterlimit:4;stroke-dasharray:none;stroke-opacity:1"
           id="path930" />
      </g>
      <g
         id="g932"
         transform="translate(518.8218,856.2533)"
         style="stroke:#000000;stroke-opacity:1;stroke-width:1.00062994;stroke-miterlimit:4;stroke-dasharray:none">
        <path
           d="M 0,0 C 0,1.576 13.326,2.854 29.764,2.854 46.202,2.854 59.528,1.576 59.528,0 v -56.693 c 0,-3.131 -2.539,-5.669 -5.67,-5.669 H 5.669 C 2.538,-62.362 0,-59.824 0,-56.693 Z"
           style="fill:none;stroke:#000000;stroke-width:1.00062994;stroke-linecap:round;stroke-linejoin:round;stroke-miterlimit:4;stroke-dasharray:none;stroke-opacity:1"
           id="path934" />
      </g>
      <g
         id="g936"
         transform="translate(99.2942,859.088)"
         style="stroke:#000000;stroke-opacity:1;stroke-width:1.00062994;stroke-miterlimit:4;stroke-dasharray:none">
        <path
           d="m 0,0 v -56.693 c 0,-3.131 2.538,-5.669 5.669,-5.669 h 48.189 c 3.131,0 5.67,2.538 5.67,5.669 V 0 c 0,1.576 -13.326,2.854 -29.764,2.854 C 13.326,2.854 0,1.576 0,0 Z"
           style="fill:none;stroke:#000000;stroke-width:1.00062994;stroke-linecap:round;stroke-linejoin:round;stroke-miterlimit:4;stroke-dasharray:none;stroke-opacity:1"
           id="path938" />
      </g>
      <g
         id="g940"
         transform="translate(40.7853,906.6593)"
         style="stroke:#000000;stroke-opacity:1;stroke-width:1.00062994;stroke-miterlimit:4;stroke-dasharray:none">
        <path
           d="M 0,0 C 2.661,0 4.819,-2.157 4.819,-4.819 4.819,-7.48 2.661,-9.638 0,-9.638 c -2.661,0 -4.819,2.158 -4.819,4.819 C -4.819,-2.157 -2.661,0 0,0 Z"
           style="fill:none;stroke:#000000;stroke-width:1.00062994;stroke-linecap:round;stroke-linejoin:round;stroke-miterlimit:4;stroke-dasharray:none;stroke-opacity:1"
           id="path942" />
      </g>
      <g
         id="g944"
         transform="translate(681.1216,906.6593)"
         style="stroke:#000000;stroke-opacity:1;stroke-width:1.00062994;stroke-miterlimit:4;stroke-dasharray:none">
        <path
           d="M 0,0 C 2.661,0 4.819,-2.157 4.819,-4.819 4.819,-7.48 2.661,-9.638 0,-9.638 c -2.661,0 -4.819,2.158 -4.819,4.819 C -4.819,-2.157 -2.661,0 0,0 Z"
           style="fill:none;stroke:#000000;stroke-width:1.00062994;stroke-linecap:round;stroke-linejoin:round;stroke-miterlimit:4;stroke-dasharray:none;stroke-opacity:1"
           id="path946" />
      </g>
      <g
         id="g948"
         transform="translate(20.2432,692.5379)"
         style="stroke:#000000;stroke-opacity:1;stroke-width:1.00062994;stroke-miterlimit:4;stroke-dasharray:none">
        <path
           d="m 0,0 v 425.197 h 156.078 v -14.173 h 70.419 v 14.173 h 227.219 v -14.173 h 70.419 v 14.173 H 681.421 V 0 H 524.135 V 14.173 H 453.716 V 0 H 226.497 V 14.173 H 156.078 V 0 Z"
           style="fill:none;stroke:#000000;stroke-width:1.00062994;stroke-linecap:round;stroke-linejoin:round;stroke-miterlimit:4;stroke-dasharray:none;stroke-opacity:1"
           id="path950" />
      </g>
      <g
         id="g952"
         transform="translate(681.1216,1038.7538)"
         style="stroke:#000000;stroke-opacity:1;stroke-width:1.00062994;stroke-miterlimit:4;stroke-dasharray:none">
        <path
           d="M 0,0 C -2.661,0 -4.819,2.157 -4.819,4.819 -4.819,7.48 -2.661,9.638 0,9.638 2.661,9.638 4.819,7.48 4.819,4.819 4.819,2.157 2.661,0 0,0 Z"
           style="fill:none;stroke:#000000;stroke-width:1.00062994;stroke-linecap:round;stroke-linejoin:round;stroke-miterlimit:4;stroke-dasharray:none;stroke-opacity:1"
           id="path954" />
      </g>
      <g
         id="g956"
         transform="translate(40.7853,1038.7538)"
         style="stroke:#000000;stroke-opacity:1;stroke-width:1.00062994;stroke-miterlimit:4;stroke-dasharray:none">
        <path
           d="M 0,0 C -2.661,0 -4.819,2.157 -4.819,4.819 -4.819,7.48 -2.661,9.638 0,9.638 2.661,9.638 4.819,7.48 4.819,4.819 4.819,2.157 2.661,0 0,0 Z"
           style="fill:none;stroke:#000000;stroke-width:1.00062994;stroke-linecap:round;stroke-linejoin:round;stroke-miterlimit:4;stroke-dasharray:none;stroke-opacity:1"
           id="path958" />
      </g>
    </g>
  </g>
</svg>
