  0
SECTION
  2
HEADER
  9
$ACADVER
  1
AC1014
  9
$HANDSEED
  5
FFFF
  9
$INSUNITS
 70
     4
  9
$MEASUREMENT
 70
     1
  0
ENDSEC
  0
SECTION
  2
TABLES
  0
TABLE
  2
VPORT
  5
8
330
0
100
AcDbSymbolTable
 70
     4
  0
VPORT
  5
2E
330
8
100
AcDbSymbolTableRecord
100
AcDbViewportTableRecord
  2
*ACTIVE
 70
     0
 10
0.0
 20
0.0
 11
1.0
 21
1.0
 12
210.0
 22
148.5
 13
0.0
 23
0.0
 14
10.0
 24
10.0
 15
10.0
 25
10.0
 16
0.0
 26
0.0
 36
1.0
 17
0.0
 27
0.0
 37
0.0
 40
341.0
 41
1.24
 42
50.0
 43
0.0
 44
0.0
 50
0.0
 51
0.0
 71
     0
 72
   100
 73
     1
 74
     3
 75
     0
 76
     0
 77
     0
 78
     0
  0
ENDTAB
  0
TABLE
  2
LTYPE
  5
5
330
0
100
AcDbSymbolTable
 70
     1
  0
LTYPE
  5
14
330
5
100
AcDbSymbolTableRecord
100
AcDbLinetypeTableRecord
  2
BYBLOCK
 70
     0
  3

 72
    65
 73
     0
 40
0.0
  0
LTYPE
  5
15
330
5
100
AcDbSymbolTableRecord
100
AcDbLinetypeTableRecord
  2
BYLAYER
 70
     0
  3

 72
    65
 73
     0
 40
0.0
  0
LTYPE
  5
16
330
5
100
AcDbSymbolTableRecord
100
AcDbLinetypeTableRecord
  2
CONTINUOUS
 70
     0
  3
Solid line
 72
    65
 73
     0
 40
0.0
  0
ENDTAB
  0
TABLE
  2
LAYER
  5
2
100
AcDbSymbolTable
 70
1
  0
LAYER
  5
50
100
AcDbSymbolTableRecord
100
AcDbLayerTableRecord
  2
0
 70
0
  6
CONTINUOUS
  0
ENDTAB
  0
TABLE
  2
STYLE
  5
3
330
0
100
AcDbSymbolTable
 70
     1
  0
STYLE
  5
11
330
3
100
AcDbSymbolTableRecord
100
AcDbTextStyleTableRecord
  2
STANDARD
 70
     0
 40
0.0
 41
1.0
 50
0.0
 71
     0
 42
2.5
  3
txt
  4

  0
ENDTAB
  0
TABLE
  2
VIEW
  5
6
330
0
100
AcDbSymbolTable
 70
     0
  0
ENDTAB
  0
TABLE
  2
UCS
  5
7
330
0
100
AcDbSymbolTable
 70
     0
  0
ENDTAB
  0
TABLE
  2
APPID
  5
9
330
0
100
AcDbSymbolTable
 70
     2
  0
APPID
  5
12
330
9
100
AcDbSymbolTableRecord
100
AcDbRegAppTableRecord
  2
ACAD
 70
     0
  0
ENDTAB
  0
TABLE
  2
DIMSTYLE
  5
A
330
0
100
AcDbSymbolTable
 70
     1
  0
DIMSTYLE
105
27
330
A
100
AcDbSymbolTableRecord
100
AcDbDimStyleTableRecord
  2
ISO-25
 70
     0
  3

  4

  5

  6

  7

 40
1.0
 41
2.5
 42
0.625
 43
3.75
 44
1.25
 45
0.0
 46
0.0
 47
0.0
 48
0.0
140
2.5
141
2.5
142
0.0
143
0.03937007874016
144
1.0
145
0.0
146
1.0
147
0.625
 71
     0
 72
     0
 73
     0
 74
     0
 75
     0
 76
     0
 77
     1
 78
     8
170
     0
171
     3
172
     1
173
     0
174
     0
175
     0
176
     0
177
     0
178
     0
270
     2
271
     2
272
     2
273
     2
274
     3
340
11
275
     0
280
     0
281
     0
282
     0
283
     0
284
     8
285
     0
286
     0
287
     3
288
     0
  0
ENDTAB
  0
TABLE
  2
BLOCK_RECORD
  5
1
330
0
100
AcDbSymbolTable
 70
     1
  0
BLOCK_RECORD
  5
1F
330
1
100
AcDbSymbolTableRecord
100
AcDbBlockTableRecord
  2
*MODEL_SPACE
  0
BLOCK_RECORD
  5
1B
330
1
100
AcDbSymbolTableRecord
100
AcDbBlockTableRecord
  2
*PAPER_SPACE
  0
ENDTAB
  0
ENDSEC
  0
SECTION
  2
BLOCKS
  0
BLOCK
  5
20
330
1F
100
AcDbEntity
  8
0
100
AcDbBlockBegin
  2
*MODEL_SPACE
 70
     0
 10
0.0
 20
0.0
 30
0.0
  3
*MODEL_SPACE
  1

  0
ENDBLK
  5
21
330
1F
100
AcDbEntity
  8
0
100
AcDbBlockEnd
  0
BLOCK
  5
1C
330
1B
100
AcDbEntity
 67
     1
  8
0
100
AcDbBlockBegin
  2
*PAPER_SPACE
  1

  0
ENDBLK
  5
1D
330
1B
100
AcDbEntity
 67
     1
  8
0
100
AcDbBlockEnd
  0
ENDSEC
  0
SECTION
  2
ENTITIES
  0
SPLINE
  5
100
100
AcDbEntity
  8
0
 62
5
100
AcDbSpline
 70
8
 71
3
 72
8
 73
4
 74
0
 40
0
 40
0
 40
0
 40
0
 40
1
 40
1
 40
1
 40
1
 10
555.315759
 20
42.985895
 30
0.0
 10
555.318934
 20
42.926866
 30
0.0
 10
555.318934
 20
42.867705
 30
0.0
 10
555.315759
 20
42.808677
 30
0.0
  0
SPLINE
  5
101
100
AcDbEntity
  8
0
 62
5
100
AcDbSpline
 70
8
 71
3
 72
8
 73
4
 74
0
 40
0
 40
0
 40
0
 40
0
 40
1
 40
1
 40
1
 40
1
 10
555.315759
 20
42.808677
 30
0.0
 10
555.266811
 20
41.871046
 30
0.0
 10
554.467055
 20
41.150641
 30
0.0
 10
553.529451
 20
41.199589
 30
0.0
  0
SPLINE
  5
102
100
AcDbEntity
  8
0
 62
5
100
AcDbSpline
 70
8
 71
3
 72
8
 73
4
 74
0
 40
0
 40
0
 40
0
 40
0
 40
1
 40
1
 40
1
 40
1
 10
553.706696
 20
58.594936
 30
0.0
 10
554.644300
 20
58.546014
 30
0.0
 10
555.364707
 20
57.746258
 30
0.0
 10
555.315759
 20
56.808630
 30
0.0
  0
SPLINE
  5
103
100
AcDbEntity
  8
0
 62
5
100
AcDbSpline
 70
8
 71
3
 72
8
 73
4
 74
0
 40
0
 40
0
 40
0
 40
0
 40
1
 40
1
 40
1
 40
1
 10
551.920388
 20
56.808630
 30
0.0
 10
551.917213
 20
56.867685
 30
0.0
 10
551.917213
 20
56.926846
 30
0.0
 10
551.920388
 20
56.985875
 30
0.0
  0
LWPOLYLINE
  5
104
100
AcDbEntity
  8
0
 62
5
100
AcDbPolyline
 90
2
 70
0
 10
551.920838
 20
42.986008
 30
0.0
 10
551.920838
 20
56.808636
 30
0.0
  0
LWPOLYLINE
  5
105
100
AcDbEntity
  8
0
 62
5
100
AcDbPolyline
 90
2
 70
0
 10
555.315442
 20
56.808636
 30
0.0
 10
555.315442
 20
42.986008
 30
0.0
  0
LWPOLYLINE
  5
106
100
AcDbEntity
  8
0
 62
3
100
AcDbPolyline
 90
2
 70
0
 10
303.331562
 20
314.180252
 30
0.0
 10
528.330587
 20
314.180252
 30
0.0
  0
SPLINE
  5
107
100
AcDbEntity
  8
0
 62
5
100
AcDbSpline
 70
8
 71
3
 72
8
 73
4
 74
0
 40
0
 40
0
 40
0
 40
0
 40
1
 40
1
 40
1
 40
1
 10
551.920388
 20
56.985875
 30
0.0
 10
551.969336
 20
57.923476
 30
0.0
 10
552.769092
 20
58.643881
 30
0.0
 10
553.706696
 20
58.594936
 30
0.0
  0
SPLINE
  5
108
100
AcDbEntity
  8
0
 62
5
100
AcDbSpline
 70
8
 71
3
 72
8
 73
4
 74
0
 40
0
 40
0
 40
0
 40
0
 40
1
 40
1
 40
1
 40
1
 10
553.529451
 20
41.199589
 30
0.0
 10
552.591847
 20
41.248537
 30
0.0
 10
551.871440
 20
42.048291
 30
0.0
 10
551.920388
 20
42.985895
 30
0.0
  0
SPLINE
  5
109
100
AcDbEntity
  8
0
 62
5
100
AcDbSpline
 70
8
 71
3
 72
8
 73
4
 74
0
 40
0
 40
0
 40
0
 40
0
 40
1
 40
1
 40
1
 40
1
 10
555.315759
 20
16.508704
 30
0.0
 10
555.318934
 20
16.567732
 30
0.0
 10
555.318934
 20
16.626893
 30
0.0
 10
555.315759
 20
16.685948
 30
0.0
  0
SPLINE
  5
10a
100
AcDbEntity
  8
0
 62
5
100
AcDbSpline
 70
8
 71
3
 72
8
 73
4
 74
0
 40
0
 40
0
 40
0
 40
0
 40
1
 40
1
 40
1
 40
1
 10
553.529451
 20
14.899640
 30
0.0
 10
554.467055
 20
14.850692
 30
0.0
 10
555.266811
 20
15.571100
 30
0.0
 10
555.315759
 20
16.508704
 30
0.0
  0
SPLINE
  5
10b
100
AcDbEntity
  8
0
 62
5
100
AcDbSpline
 70
8
 71
3
 72
8
 73
4
 74
0
 40
0
 40
0
 40
0
 40
0
 40
1
 40
1
 40
1
 40
1
 10
551.920388
 20
16.685948
 30
0.0
 10
551.871440
 20
15.748318
 30
0.0
 10
552.591847
 20
14.948562
 30
0.0
 10
553.529451
 20
14.899640
 30
0.0
  0
SPLINE
  5
10c
100
AcDbEntity
  8
0
 62
5
100
AcDbSpline
 70
8
 71
3
 72
8
 73
4
 74
0
 40
0
 40
0
 40
0
 40
0
 40
1
 40
1
 40
1
 40
1
 10
555.315759
 20
30.508681
 30
0.0
 10
555.364707
 20
31.446285
 30
0.0
 10
554.644300
 20
32.246041
 30
0.0
 10
553.706696
 20
32.294989
 30
0.0
  0
LWPOLYLINE
  5
10d
100
AcDbEntity
  8
0
 62
3
100
AcDbPolyline
 90
2
 70
0
 10
536.331587
 20
306.180257
 30
0.0
 10
536.331587
 20
283.448051
 30
0.0
  0
SPLINE
  5
10e
100
AcDbEntity
  8
0
 62
5
100
AcDbSpline
 70
8
 71
3
 72
8
 73
4
 74
0
 40
0
 40
0
 40
0
 40
0
 40
1
 40
1
 40
1
 40
1
 10
234.978785
 20
221.886128
 30
0.0
 10
234.978785
 20
220.947257
 30
0.0
 10
234.217671
 20
220.186132
 30
0.0
 10
233.278787
 20
220.186132
 30
0.0
  0
SPLINE
  5
10f
100
AcDbEntity
  8
0
 62
5
100
AcDbSpline
 70
8
 71
3
 72
8
 73
4
 74
0
 40
0
 40
0
 40
0
 40
0
 40
1
 40
1
 40
1
 40
1
 10
233.278787
 20
220.186132
 30
0.0
 10
232.339905
 20
220.186132
 30
0.0
 10
231.578789
 20
220.947257
 30
0.0
 10
231.578789
 20
221.886128
 30
0.0
  0
SPLINE
  5
110
100
AcDbEntity
  8
0
 62
5
100
AcDbSpline
 70
8
 71
3
 72
8
 73
4
 74
0
 40
0
 40
0
 40
0
 40
0
 40
1
 40
1
 40
1
 40
1
 10
553.706696
 20
32.294989
 30
0.0
 10
552.769092
 20
32.343911
 30
0.0
 10
551.969336
 20
31.623530
 30
0.0
 10
551.920388
 20
30.685899
 30
0.0
  0
SPLINE
  5
111
100
AcDbEntity
  8
0
 62
5
100
AcDbSpline
 70
8
 71
3
 72
8
 73
4
 74
0
 40
0
 40
0
 40
0
 40
0
 40
1
 40
1
 40
1
 40
1
 10
551.920388
 20
30.685899
 30
0.0
 10
551.917213
 20
30.626871
 30
0.0
 10
551.917213
 20
30.567710
 30
0.0
 10
551.920388
 20
30.508681
 30
0.0
  0
SPLINE
  5
112
100
AcDbEntity
  8
0
 62
5
100
AcDbSpline
 70
8
 71
3
 72
8
 73
4
 74
0
 40
0
 40
0
 40
0
 40
0
 40
1
 40
1
 40
1
 40
1
 10
233.278787
 20
223.586129
 30
0.0
 10
234.217671
 20
223.586129
 30
0.0
 10
234.978785
 20
222.825002
 30
0.0
 10
234.978785
 20
221.886128
 30
0.0
  0
LWPOLYLINE
  5
113
100
AcDbEntity
  8
0
 62
7
100
AcDbPolyline
 90
52
 70
1
 10
419.659675
 20
150.132042
 30
0.0
 10
449.659642
 20
150.132042
 30
0.0
 10
449.659642
 20
145.132036
 30
0.0
 10
474.659592
 20
145.132036
 30
0.0
 10
474.659592
 20
150.132042
 30
0.0
 10
504.659559
 20
150.132042
 30
0.0
 10
504.659559
 20
145.132036
 30
0.0
 10
529.659510
 20
145.132036
 30
0.0
 10
529.659510
 20
150.132042
 30
0.0
 10
559.659450
 20
150.132042
 30
0.0
 10
559.659450
 20
145.132036
 30
0.0
 10
579.659411
 20
145.132036
 30
0.0
 10
579.659411
 20
125.132081
 30
0.0
 10
584.659427
 20
125.132081
 30
0.0
 10
584.659427
 20
95.132138
 30
0.0
 10
579.659411
 20
95.132138
 30
0.0
 10
579.659411
 20
65.132171
 30
0.0
 10
584.659427
 20
65.132171
 30
0.0
 10
584.659427
 20
25.132242
 30
0.0
 10
579.659411
 20
25.132242
 30
0.0
 10
579.659411
 20
5.132282
 30
0.0
 10
559.659450
 20
5.132282
 30
0.0
 10
559.659450
 20
0.132292
 30
0.0
 10
485.478617
 20
0.132292
 30
0.0
 10
485.478617
 20
5.132282
 30
0.0
 10
446.281759
 20
5.132282
 30
0.0
 10
446.281759
 20
0.132292
 30
0.0
 10
379.738468
 20
0.132292
 30
0.0
 10
379.738468
 20
5.132282
 30
0.0
 10
343.840779
 20
5.132282
 30
0.0
 10
343.840779
 20
0.132292
 30
0.0
 10
269.659946
 20
0.132292
 30
0.0
 10
269.659946
 20
5.132282
 30
0.0
 10
249.659972
 20
5.132282
 30
0.0
 10
249.659972
 20
25.132242
 30
0.0
 10
244.659979
 20
25.132242
 30
0.0
 10
244.659979
 20
65.132171
 30
0.0
 10
249.724189
 20
65.132171
 30
0.0
 10
249.724189
 20
95.132138
 30
0.0
 10
244.659979
 20
95.132138
 30
0.0
 10
244.659979
 20
125.132081
 30
0.0
 10
249.659972
 20
125.132081
 30
0.0
 10
249.659972
 20
145.132036
 30
0.0
 10
269.659946
 20
145.132036
 30
0.0
 10
269.659946
 20
150.132042
 30
0.0
 10
299.817393
 20
150.132042
 30
0.0
 10
299.817393
 20
145.132036
 30
0.0
 10
324.817343
 20
145.132036
 30
0.0
 10
324.817343
 20
150.132042
 30
0.0
 10
377.238499
 20
150.132042
 30
0.0
 10
377.238499
 20
145.132036
 30
0.0
 10
419.659675
 20
145.132036
 30
0.0
  0
LWPOLYLINE
  5
114
100
AcDbEntity
  8
0
 62
5
100
AcDbPolyline
 90
2
 70
0
 10
551.920838
 20
30.509052
 30
0.0
 10
551.920838
 20
16.687218
 30
0.0
  0
SPLINE
  5
115
100
AcDbEntity
  8
0
 62
5
100
AcDbSpline
 70
8
 71
3
 72
8
 73
4
 74
0
 40
0
 40
0
 40
0
 40
0
 40
1
 40
1
 40
1
 40
1
 10
231.578789
 20
221.886128
 30
0.0
 10
231.578789
 20
222.825002
 30
0.0
 10
232.339905
 20
223.586129
 30
0.0
 10
233.278787
 20
223.586129
 30
0.0
  0
SPLINE
  5
116
100
AcDbEntity
  8
0
 62
5
100
AcDbSpline
 70
8
 71
3
 72
8
 73
4
 74
0
 40
0
 40
0
 40
0
 40
0
 40
1
 40
1
 40
1
 40
1
 10
169.019400
 20
244.803964
 30
0.0
 10
169.019400
 20
243.699410
 30
0.0
 10
168.123968
 20
242.803981
 30
0.0
 10
167.019401
 20
242.803981
 30
0.0
  0
LWPOLYLINE
  5
117
100
AcDbEntity
  8
0
 62
5
100
AcDbPolyline
 90
2
 70
0
 10
555.315442
 20
16.687218
 30
0.0
 10
555.315442
 20
30.509052
 30
0.0
  0
LWPOLYLINE
  5
118
100
AcDbEntity
  8
0
 62
7
100
AcDbPolyline
 90
2
 70
0
 10
226.521961
 20
279.441227
 30
0.0
 10
82.718006
 20
279.441227
 30
0.0
  0
SPLINE
  5
119
100
AcDbEntity
  8
0
 62
5
100
AcDbSpline
 70
8
 71
3
 72
8
 73
4
 74
0
 40
0
 40
0
 40
0
 40
0
 40
1
 40
1
 40
1
 40
1
 10
158.519418
 20
268.810840
 30
0.0
 10
164.318397
 20
268.810840
 30
0.0
 10
169.019400
 20
268.360043
 30
0.0
 10
169.019400
 20
267.803942
 30
0.0
  0
SPLINE
  5
11a
100
AcDbEntity
  8
0
 62
5
100
AcDbSpline
 70
8
 71
3
 72
8
 73
4
 74
0
 40
0
 40
0
 40
0
 40
0
 40
1
 40
1
 40
1
 40
1
 10
7.379079
 20
223.586129
 30
0.0
 10
8.317962
 20
223.586129
 30
0.0
 10
9.079077
 20
222.825002
 30
0.0
 10
9.079077
 20
221.886128
 30
0.0
  0
SPLINE
  5
11b
100
AcDbEntity
  8
0
 62
5
100
AcDbSpline
 70
8
 71
3
 72
8
 73
4
 74
0
 40
0
 40
0
 40
0
 40
0
 40
1
 40
1
 40
1
 40
1
 10
28.019682
 20
244.803956
 30
0.0
 10
28.019682
 20
243.699400
 30
0.0
 10
28.915111
 20
242.803973
 30
0.0
 10
30.019678
 20
242.803973
 30
0.0
  0
SPLINE
  5
11c
100
AcDbEntity
  8
0
 62
7
100
AcDbSpline
 70
8
 71
3
 72
8
 73
4
 74
0
 40
0
 40
0
 40
0
 40
0
 40
1
 40
1
 40
1
 40
1
 10
77.717005
 20
247.881848
 30
0.0
 10
77.164722
 20
247.881848
 30
0.0
 10
76.717007
 20
248.329574
 30
0.0
 10
76.717007
 20
248.881838
 30
0.0
  0
LWPOLYLINE
  5
11d
100
AcDbEntity
  8
0
 62
7
100
AcDbPolyline
 90
2
 70
0
 10
76.716991
 20
279.441227
 30
0.0
 10
14.132290
 20
279.441227
 30
0.0
  0
LWPOLYLINE
  5
11e
100
AcDbEntity
  8
0
 62
5
100
AcDbPolyline
 90
2
 70
0
 10
148.019555
 20
244.804093
 30
0.0
 10
148.019555
 20
267.804058
 30
0.0
  0
LWPOLYLINE
  5
11f
100
AcDbEntity
  8
0
 62
5
100
AcDbPolyline
 90
2
 70
0
 10
169.019270
 20
267.804058
 30
0.0
 10
169.019270
 20
244.804093
 30
0.0
  0
SPLINE
  5
120
100
AcDbEntity
  8
0
 62
5
100
AcDbSpline
 70
8
 71
3
 72
8
 73
4
 74
0
 40
0
 40
0
 40
0
 40
0
 40
1
 40
1
 40
1
 40
1
 10
49.019648
 20
267.803934
 30
0.0
 10
49.019648
 20
268.360035
 30
0.0
 10
44.318645
 20
268.810859
 30
0.0
 10
38.519664
 20
268.810859
 30
0.0
  0
LWPOLYLINE
  5
121
100
AcDbEntity
  8
0
 62
5
100
AcDbPolyline
 90
2
 70
0
 10
49.019614
 20
244.803829
 30
0.0
 10
49.019614
 20
267.804058
 30
0.0
  0
SPLINE
  5
122
100
AcDbEntity
  8
0
 62
5
100
AcDbSpline
 70
8
 71
3
 72
8
 73
4
 74
0
 40
0
 40
0
 40
0
 40
0
 40
1
 40
1
 40
1
 40
1
 10
148.019433
 20
267.803942
 30
0.0
 10
148.019433
 20
268.360043
 30
0.0
 10
152.720434
 20
268.810840
 30
0.0
 10
158.519418
 20
268.810840
 30
0.0
  0
LWPOLYLINE
  5
123
100
AcDbEntity
  8
0
 62
7
100
AcDbPolyline
 90
2
 70
0
 10
226.521961
 20
356.020641
 30
0.0
 10
226.521961
 20
279.441227
 30
0.0
  0
SPLINE
  5
124
100
AcDbEntity
  8
0
 62
5
100
AcDbSpline
 70
8
 71
3
 72
8
 73
4
 74
0
 40
0
 40
0
 40
0
 40
0
 40
1
 40
1
 40
1
 40
1
 10
47.019650
 20
242.803973
 30
0.0
 10
48.124216
 20
242.803973
 30
0.0
 10
49.019648
 20
243.699400
 30
0.0
 10
49.019648
 20
244.803956
 30
0.0
  0
SPLINE
  5
125
100
AcDbEntity
  8
0
 62
5
100
AcDbSpline
 70
8
 71
3
 72
8
 73
4
 74
0
 40
0
 40
0
 40
0
 40
0
 40
1
 40
1
 40
1
 40
1
 10
7.379079
 20
220.186132
 30
0.0
 10
6.440197
 20
220.186132
 30
0.0
 10
5.679082
 20
220.947257
 30
0.0
 10
5.679082
 20
221.886128
 30
0.0
  0
LWPOLYLINE
  5
126
100
AcDbEntity
  8
0
 62
7
100
AcDbPolyline
 90
2
 70
0
 10
82.718006
 20
279.441227
 30
0.0
 10
82.718006
 20
248.881852
 30
0.0
  0
LWPOLYLINE
  5
127
100
AcDbEntity
  8
0
 62
7
100
AcDbPolyline
 90
2
 70
0
 10
81.717881
 20
247.881727
 30
0.0
 10
77.717116
 20
247.881727
 30
0.0
  0
LWPOLYLINE
  5
128
100
AcDbEntity
  8
0
 62
7
100
AcDbPolyline
 90
2
 70
0
 10
76.716991
 20
248.881852
 30
0.0
 10
76.716991
 20
279.441227
 30
0.0
  0
SPLINE
  5
129
100
AcDbEntity
  8
0
 62
5
100
AcDbSpline
 70
8
 71
3
 72
8
 73
4
 74
0
 40
0
 40
0
 40
0
 40
0
 40
1
 40
1
 40
1
 40
1
 10
150.019430
 20
242.803981
 30
0.0
 10
148.914863
 20
242.803981
 30
0.0
 10
148.019433
 20
243.699410
 30
0.0
 10
148.019433
 20
244.803964
 30
0.0
  0
SPLINE
  5
12a
100
AcDbEntity
  8
0
 62
5
100
AcDbSpline
 70
8
 71
3
 72
8
 73
4
 74
0
 40
0
 40
0
 40
0
 40
0
 40
1
 40
1
 40
1
 40
1
 10
9.079077
 20
221.886128
 30
0.0
 10
9.079077
 20
220.947257
 30
0.0
 10
8.317962
 20
220.186132
 30
0.0
 10
7.379079
 20
220.186132
 30
0.0
  0
LWPOLYLINE
  5
12b
100
AcDbEntity
  8
0
 62
5
100
AcDbPolyline
 90
2
 70
0
 10
30.019620
 20
242.803843
 30
0.0
 10
47.019628
 20
242.803843
 30
0.0
  0
LWPOLYLINE
  5
12c
100
AcDbEntity
  8
0
 62
5
100
AcDbPolyline
 90
2
 70
0
 10
28.019634
 20
267.804058
 30
0.0
 10
28.019634
 20
244.803829
 30
0.0
  0
SPLINE
  5
12d
100
AcDbEntity
  8
0
 62
5
100
AcDbSpline
 70
8
 71
3
 72
8
 73
4
 74
0
 40
0
 40
0
 40
0
 40
0
 40
1
 40
1
 40
1
 40
1
 10
5.679082
 20
221.886128
 30
0.0
 10
5.679082
 20
222.825002
 30
0.0
 10
6.440197
 20
223.586129
 30
0.0
 10
7.379079
 20
223.586129
 30
0.0
  0
SPLINE
  5
12e
100
AcDbEntity
  8
0
 62
7
100
AcDbSpline
 70
8
 71
3
 72
8
 73
4
 74
0
 40
0
 40
0
 40
0
 40
0
 40
1
 40
1
 40
1
 40
1
 10
82.718009
 20
248.881838
 30
0.0
 10
82.718009
 20
248.329574
 30
0.0
 10
82.270297
 20
247.881848
 30
0.0
 10
81.718011
 20
247.881848
 30
0.0
  0
SPLINE
  5
12f
100
AcDbEntity
  8
0
 62
5
100
AcDbSpline
 70
8
 71
3
 72
8
 73
4
 74
0
 40
0
 40
0
 40
0
 40
0
 40
1
 40
1
 40
1
 40
1
 10
231.575132
 20
279.886032
 30
0.0
 10
231.575132
 20
280.824904
 30
0.0
 10
232.336248
 20
281.586030
 30
0.0
 10
233.275130
 20
281.586030
 30
0.0
  0
LWPOLYLINE
  5
130
100
AcDbEntity
  8
0
 62
5
100
AcDbPolyline
 90
2
 70
0
 10
167.019285
 20
242.804108
 30
0.0
 10
150.019541
 20
242.804108
 30
0.0
  0
SPLINE
  5
131
100
AcDbEntity
  8
0
 62
5
100
AcDbSpline
 70
8
 71
3
 72
8
 73
4
 74
0
 40
0
 40
0
 40
0
 40
0
 40
1
 40
1
 40
1
 40
1
 10
38.519664
 20
268.810859
 30
0.0
 10
32.720682
 20
268.810859
 30
0.0
 10
28.019682
 20
268.360035
 30
0.0
 10
28.019682
 20
267.803934
 30
0.0
  0
LWPOLYLINE
  5
132
100
AcDbEntity
  8
0
 62
7
100
AcDbPolyline
 90
2
 70
0
 10
160.192770
 20
211.048815
 30
0.0
 10
160.192770
 20
206.048984
 30
0.0
  0
SPLINE
  5
133
100
AcDbEntity
  8
0
 62
5
100
AcDbSpline
 70
8
 71
3
 72
8
 73
4
 74
0
 40
0
 40
0
 40
0
 40
0
 40
1
 40
1
 40
1
 40
1
 10
9.079077
 20
279.886032
 30
0.0
 10
9.079077
 20
278.947160
 30
0.0
 10
8.317962
 20
278.186034
 30
0.0
 10
7.379079
 20
278.186034
 30
0.0
  0
LWPOLYLINE
  5
134
100
AcDbEntity
  8
0
 62
7
100
AcDbPolyline
 90
2
 70
0
 10
0.132292
 20
356.048687
 30
0.0
 10
14.132290
 20
356.048687
 30
0.0
  0
SPLINE
  5
135
100
AcDbEntity
  8
0
 62
5
100
AcDbSpline
 70
8
 71
3
 72
8
 73
4
 74
0
 40
0
 40
0
 40
0
 40
0
 40
1
 40
1
 40
1
 40
1
 10
7.379079
 20
278.186034
 30
0.0
 10
6.440197
 20
278.186034
 30
0.0
 10
5.679082
 20
278.947160
 30
0.0
 10
5.679082
 20
279.886032
 30
0.0
  0
SPLINE
  5
136
100
AcDbEntity
  8
0
 62
5
100
AcDbSpline
 70
8
 71
3
 72
8
 73
4
 74
0
 40
0
 40
0
 40
0
 40
0
 40
1
 40
1
 40
1
 40
1
 10
234.975126
 20
279.886032
 30
0.0
 10
234.975126
 20
278.947160
 30
0.0
 10
234.214012
 20
278.186034
 30
0.0
 10
233.275130
 20
278.186034
 30
0.0
  0
LWPOLYLINE
  5
137
100
AcDbEntity
  8
0
 62
7
100
AcDbPolyline
 90
2
 70
0
 10
185.035293
 20
206.048984
 30
0.0
 10
185.035293
 20
211.048815
 30
0.0
  0
LWPOLYLINE
  5
138
100
AcDbEntity
  8
0
 62
7
100
AcDbPolyline
 90
2
 70
0
 10
80.035396
 20
206.048984
 30
0.0
 10
80.035396
 20
211.048815
 30
0.0
  0
SPLINE
  5
139
100
AcDbEntity
  8
0
 62
5
100
AcDbSpline
 70
8
 71
3
 72
8
 73
4
 74
0
 40
0
 40
0
 40
0
 40
0
 40
1
 40
1
 40
1
 40
1
 10
233.275130
 20
281.586030
 30
0.0
 10
234.214012
 20
281.586030
 30
0.0
 10
234.975126
 20
280.824904
 30
0.0
 10
234.975126
 20
279.886032
 30
0.0
  0
LWPOLYLINE
  5
13a
100
AcDbEntity
  8
0
 62
7
100
AcDbPolyline
 90
2
 70
0
 10
240.521859
 20
356.020641
 30
0.0
 10
240.521859
 20
206.048984
 30
0.0
  0
SPLINE
  5
13b
100
AcDbEntity
  8
0
 62
5
100
AcDbSpline
 70
8
 71
3
 72
8
 73
4
 74
0
 40
0
 40
0
 40
0
 40
0
 40
1
 40
1
 40
1
 40
1
 10
5.679082
 20
279.886032
 30
0.0
 10
5.679082
 20
280.824904
 30
0.0
 10
6.440197
 20
281.586030
 30
0.0
 10
7.379079
 20
281.586030
 30
0.0
  0
SPLINE
  5
13c
100
AcDbEntity
  8
0
 62
5
100
AcDbSpline
 70
8
 71
3
 72
8
 73
4
 74
0
 40
0
 40
0
 40
0
 40
0
 40
1
 40
1
 40
1
 40
1
 10
7.379079
 20
281.586030
 30
0.0
 10
8.317962
 20
281.586030
 30
0.0
 10
9.079077
 20
280.824904
 30
0.0
 10
9.079077
 20
279.886032
 30
0.0
  0
LWPOLYLINE
  5
13d
100
AcDbEntity
  8
0
 62
7
100
AcDbPolyline
 90
2
 70
0
 10
55.192872
 20
211.048815
 30
0.0
 10
55.192872
 20
206.048984
 30
0.0
  0
LWPOLYLINE
  5
13e
100
AcDbEntity
  8
0
 62
7
100
AcDbPolyline
 90
2
 70
0
 10
240.521859
 20
206.048984
 30
0.0
 10
185.035293
 20
206.048984
 30
0.0
  0
LWPOLYLINE
  5
13f
100
AcDbEntity
  8
0
 62
7
100
AcDbPolyline
 90
2
 70
0
 10
185.035293
 20
211.048815
 30
0.0
 10
160.192770
 20
211.048815
 30
0.0
  0
SPLINE
  5
140
100
AcDbEntity
  8
0
 62
5
100
AcDbSpline
 70
8
 71
3
 72
8
 73
4
 74
0
 40
0
 40
0
 40
0
 40
0
 40
1
 40
1
 40
1
 40
1
 10
233.275130
 20
278.186034
 30
0.0
 10
232.336248
 20
278.186034
 30
0.0
 10
231.575132
 20
278.947160
 30
0.0
 10
231.575132
 20
279.886032
 30
0.0
  0
LWPOLYLINE
  5
141
100
AcDbEntity
  8
0
 62
7
100
AcDbPolyline
 90
2
 70
0
 10
55.192872
 20
206.048984
 30
0.0
 10
0.132292
 20
206.048984
 30
0.0
  0
LWPOLYLINE
  5
142
100
AcDbEntity
  8
0
 62
7
100
AcDbPolyline
 90
2
 70
0
 10
160.192770
 20
206.048984
 30
0.0
 10
80.035396
 20
206.048984
 30
0.0
  0
LWPOLYLINE
  5
143
100
AcDbEntity
  8
0
 62
7
100
AcDbPolyline
 90
2
 70
0
 10
0.132292
 20
206.048984
 30
0.0
 10
0.132292
 20
356.048687
 30
0.0
  0
LWPOLYLINE
  5
144
100
AcDbEntity
  8
0
 62
7
100
AcDbPolyline
 90
2
 70
0
 10
560.752629
 20
164.049025
 30
0.0
 10
560.752629
 20
159.048929
 30
0.0
  0
LWPOLYLINE
  5
145
100
AcDbEntity
  8
0
 62
7
100
AcDbPolyline
 90
2
 70
0
 10
565.750609
 20
154.049098
 30
0.0
 10
585.753109
 20
154.049098
 30
0.0
  0
LWPOLYLINE
  5
146
100
AcDbEntity
  8
0
 62
7
100
AcDbPolyline
 90
2
 70
0
 10
580.752484
 20
177.049063
 30
0.0
 10
580.752484
 20
205.048859
 30
0.0
  0
LWPOLYLINE
  5
147
100
AcDbEntity
  8
0
 62
7
100
AcDbPolyline
 90
2
 70
0
 10
80.035396
 20
211.048815
 30
0.0
 10
55.192872
 20
211.048815
 30
0.0
  0
LWPOLYLINE
  5
148
100
AcDbEntity
  8
0
 62
3
100
AcDbPolyline
 90
2
 70
0
 10
375.531063
 20
284.080511
 30
0.0
 10
375.531063
 20
279.180269
 30
0.0
  0
LWPOLYLINE
  5
149
100
AcDbEntity
  8
0
 62
3
100
AcDbPolyline
 90
2
 70
0
 10
295.330562
 20
283.713401
 30
0.0
 10
295.330562
 20
306.180257
 30
0.0
  0
LWPOLYLINE
  5
14a
100
AcDbEntity
  8
0
 62
7
100
AcDbPolyline
 90
2
 70
0
 10
245.752407
 20
231.715420
 30
0.0
 10
245.752407
 20
205.048859
 30
0.0
  0
LWPOLYLINE
  5
14b
100
AcDbEntity
  8
0
 62
7
100
AcDbPolyline
 90
2
 70
0
 10
245.752407
 20
177.049063
 30
0.0
 10
245.752407
 20
154.049098
 30
0.0
  0
LWPOLYLINE
  5
14c
100
AcDbEntity
  8
0
 62
7
100
AcDbPolyline
 90
2
 70
0
 10
475.752586
 20
159.048929
 30
0.0
 10
475.752586
 20
164.049025
 30
0.0
  0
LWPOLYLINE
  5
14d
100
AcDbEntity
  8
0
 62
7
100
AcDbPolyline
 90
2
 70
0
 10
270.753416
 20
159.048929
 30
0.0
 10
270.753416
 20
164.049025
 30
0.0
  0
LWPOLYLINE
  5
14e
100
AcDbEntity
  8
0
 62
7
100
AcDbPolyline
 90
2
 70
0
 10
325.911104
 20
164.049025
 30
0.0
 10
378.330355
 20
164.049025
 30
0.0
  0
SPLINE
  5
14f
100
AcDbEntity
  8
0
 62
7
100
AcDbSpline
 70
8
 71
3
 72
8
 73
4
 74
0
 40
0
 40
0
 40
0
 40
0
 40
1
 40
1
 40
1
 40
1
 10
560.751915
 20
159.048964
 30
0.0
 10
560.751915
 20
156.287536
 30
0.0
 10
562.990475
 20
154.048981
 30
0.0
 10
565.751905
 20
154.048981
 30
0.0
  0
LWPOLYLINE
  5
150
100
AcDbEntity
  8
0
 62
7
100
AcDbPolyline
 90
2
 70
0
 10
300.910625
 20
164.049025
 30
0.0
 10
300.910625
 20
159.048929
 30
0.0
  0
LWPOLYLINE
  5
151
100
AcDbEntity
  8
0
 62
7
100
AcDbPolyline
 90
2
 70
0
 10
270.753416
 20
164.049025
 30
0.0
 10
300.910625
 20
164.049025
 30
0.0
  0
LWPOLYLINE
  5
152
100
AcDbEntity
  8
0
 62
7
100
AcDbPolyline
 90
2
 70
0
 10
378.330355
 20
164.049025
 30
0.0
 10
378.330355
 20
159.048929
 30
0.0
  0
LWPOLYLINE
  5
153
100
AcDbEntity
  8
0
 62
3
100
AcDbPolyline
 90
2
 70
0
 10
480.930482
 20
284.080273
 30
0.0
 10
480.930482
 20
279.180269
 30
0.0
  0
LWPOLYLINE
  5
154
100
AcDbEntity
  8
0
 62
7
100
AcDbPolyline
 90
2
 70
0
 10
530.751525
 20
159.048929
 30
0.0
 10
530.751525
 20
164.049025
 30
0.0
  0
LWPOLYLINE
  5
155
100
AcDbEntity
  8
0
 62
7
100
AcDbPolyline
 90
2
 70
0
 10
300.910625
 20
159.048929
 30
0.0
 10
325.911104
 20
159.048929
 30
0.0
  0
LWPOLYLINE
  5
156
100
AcDbEntity
  8
0
 62
7
100
AcDbPolyline
 90
2
 70
0
 10
245.752407
 20
154.049098
 30
0.0
 10
265.752791
 20
154.049098
 30
0.0
  0
LWPOLYLINE
  5
157
100
AcDbEntity
  8
0
 62
3
100
AcDbPolyline
 90
2
 70
0
 10
456.131086
 20
284.080273
 30
0.0
 10
456.131086
 20
279.180269
 30
0.0
  0
LWPOLYLINE
  5
158
100
AcDbEntity
  8
0
 62
7
100
AcDbPolyline
 90
2
 70
0
 10
585.753109
 20
177.049063
 30
0.0
 10
580.752484
 20
177.049063
 30
0.0
  0
LWPOLYLINE
  5
159
100
AcDbEntity
  8
0
 62
7
100
AcDbPolyline
 90
2
 70
0
 10
420.751002
 20
159.048929
 30
0.0
 10
420.751002
 20
164.049025
 30
0.0
  0
LWPOLYLINE
  5
15a
100
AcDbEntity
  8
0
 62
7
100
AcDbPolyline
 90
2
 70
0
 10
585.753109
 20
154.049098
 30
0.0
 10
585.753109
 20
177.049063
 30
0.0
  0
LWPOLYLINE
  5
15b
100
AcDbEntity
  8
0
 62
3
100
AcDbPolyline
 90
2
 70
0
 10
350.731667
 20
284.080511
 30
0.0
 10
350.731667
 20
279.180507
 30
0.0
  0
LWPOLYLINE
  5
15c
100
AcDbEntity
  8
0
 62
7
100
AcDbPolyline
 90
2
 70
0
 10
325.911104
 20
159.048929
 30
0.0
 10
325.911104
 20
164.049025
 30
0.0
  0
LWPOLYLINE
  5
15d
100
AcDbEntity
  8
0
 62
7
100
AcDbPolyline
 90
3
 70
0
 10
245.752407
 20
205.048859
 30
0.0
 10
250.752503
 20
205.048859
 30
0.0
 10
250.752503
 20
177.049063
 30
0.0
  0
LWPOLYLINE
  5
15e
100
AcDbEntity
  8
0
 62
7
100
AcDbPolyline
 90
2
 70
0
 10
378.330355
 20
159.048929
 30
0.0
 10
420.751002
 20
159.048929
 30
0.0
  0
LWPOLYLINE
  5
15f
100
AcDbEntity
  8
0
 62
7
100
AcDbPolyline
 90
2
 70
0
 10
450.752107
 20
164.049025
 30
0.0
 10
450.752107
 20
159.048929
 30
0.0
  0
LWPOLYLINE
  5
160
100
AcDbEntity
  8
0
 62
7
100
AcDbPolyline
 90
2
 70
0
 10
250.752503
 20
231.715420
 30
0.0
 10
245.752407
 20
231.715420
 30
0.0
  0
LWPOLYLINE
  5
161
100
AcDbEntity
  8
0
 62
7
100
AcDbPolyline
 90
2
 70
0
 10
580.752484
 20
226.715589
 30
0.0
 10
580.752484
 20
254.715385
 30
0.0
  0
LWPOLYLINE
  5
162
100
AcDbEntity
  8
0
 62
7
100
AcDbPolyline
 90
2
 70
0
 10
420.751002
 20
164.049025
 30
0.0
 10
450.752107
 20
164.049025
 30
0.0
  0
LWPOLYLINE
  5
163
100
AcDbEntity
  8
0
 62
7
100
AcDbPolyline
 90
2
 70
0
 10
580.752484
 20
205.048859
 30
0.0
 10
585.753109
 20
205.048859
 30
0.0
  0
LWPOLYLINE
  5
164
100
AcDbEntity
  8
0
 62
7
100
AcDbPolyline
 90
2
 70
0
 10
580.752484
 20
356.048687
 30
0.0
 10
250.752503
 20
356.048687
 30
0.0
  0
SPLINE
  5
165
100
AcDbEntity
  8
0
 62
3
100
AcDbSpline
 70
8
 71
3
 72
8
 73
4
 74
0
 40
0
 40
0
 40
0
 40
0
 40
1
 40
1
 40
1
 40
1
 10
328.233670
 20
199.172879
 30
0.0
 10
329.338252
 20
199.172879
 30
0.0
 10
330.233655
 20
198.277476
 30
0.0
 10
330.233655
 20
197.172896
 30
0.0
  0
LWPOLYLINE
  5
166
100
AcDbEntity
  8
0
 62
3
100
AcDbPolyline
 90
2
 70
0
 10
391.929939
 20
183.628986
 30
0.0
 10
391.929939
 20
175.732496
 30
0.0
  0
LWPOLYLINE
  5
167
100
AcDbEntity
  8
0
 62
7
100
AcDbPolyline
 90
2
 70
0
 10
585.753109
 20
304.382070
 30
0.0
 10
585.753109
 20
326.048640
 30
0.0
  0
SPLINE
  5
168
100
AcDbEntity
  8
0
 62
3
100
AcDbSpline
 70
8
 71
3
 72
8
 73
4
 74
0
 40
0
 40
0
 40
0
 40
0
 40
1
 40
1
 40
1
 40
1
 10
370.968879
 20
176.021630
 30
0.0
 10
370.968879
 20
175.469365
 30
0.0
 10
371.416581
 20
175.021637
 30
0.0
 10
371.968872
 20
175.021637
 30
0.0
  0
LWPOLYLINE
  5
169
100
AcDbEntity
  8
0
 62
3
100
AcDbPolyline
 90
2
 70
0
 10
390.683751
 20
175.065746
 30
0.0
 10
371.969772
 20
175.021561
 30
0.0
  0
LWPOLYLINE
  5
16a
100
AcDbEntity
  8
0
 62
7
100
AcDbPolyline
 90
2
 70
0
 10
450.752107
 20
159.048929
 30
0.0
 10
475.752586
 20
159.048929
 30
0.0
  0
LWPOLYLINE
  5
16b
100
AcDbEntity
  8
0
 62
7
100
AcDbPolyline
 90
2
 70
0
 10
505.751045
 20
159.048929
 30
0.0
 10
530.751525
 20
159.048929
 30
0.0
  0
LWPOLYLINE
  5
16c
100
AcDbEntity
  8
0
 62
7
100
AcDbPolyline
 90
2
 70
0
 10
585.753109
 20
226.715589
 30
0.0
 10
580.752484
 20
226.715589
 30
0.0
  0
LWPOLYLINE
  5
16d
100
AcDbEntity
  8
0
 62
7
100
AcDbPolyline
 90
2
 70
0
 10
585.753109
 20
254.715385
 30
0.0
 10
585.753109
 20
276.382115
 30
0.0
  0
LWPOLYLINE
  5
16e
100
AcDbEntity
  8
0
 62
7
100
AcDbPolyline
 90
2
 70
0
 10
505.751045
 20
164.049025
 30
0.0
 10
505.751045
 20
159.048929
 30
0.0
  0
LWPOLYLINE
  5
16f
100
AcDbEntity
  8
0
 62
7
100
AcDbPolyline
 90
2
 70
0
 10
475.752586
 20
164.049025
 30
0.0
 10
505.751045
 20
164.049025
 30
0.0
  0
LWPOLYLINE
  5
170
100
AcDbEntity
  8
0
 62
7
100
AcDbPolyline
 90
2
 70
0
 10
530.751525
 20
164.049025
 30
0.0
 10
560.752629
 20
164.049025
 30
0.0
  0
LWPOLYLINE
  5
171
100
AcDbEntity
  8
0
 62
7
100
AcDbPolyline
 90
2
 70
0
 10
585.753109
 20
276.382115
 30
0.0
 10
580.752484
 20
276.382115
 30
0.0
  0
LWPOLYLINE
  5
172
100
AcDbEntity
  8
0
 62
7
100
AcDbPolyline
 90
2
 70
0
 10
580.752484
 20
304.382070
 30
0.0
 10
585.753109
 20
304.382070
 30
0.0
  0
LWPOLYLINE
  5
173
100
AcDbEntity
  8
0
 62
7
100
AcDbPolyline
 90
2
 70
0
 10
585.753109
 20
326.048640
 30
0.0
 10
580.752484
 20
326.048640
 30
0.0
  0
SPLINE
  5
174
100
AcDbEntity
  8
0
 62
3
100
AcDbSpline
 70
8
 71
3
 72
8
 73
4
 74
0
 40
0
 40
0
 40
0
 40
0
 40
1
 40
1
 40
1
 40
1
 10
390.683804
 20
175.065683
 30
0.0
 10
391.212309
 20
174.905446
 30
0.0
 10
391.770686
 20
175.204009
 30
0.0
 10
391.930918
 20
175.732515
 30
0.0
  0
SPLINE
  5
175
100
AcDbEntity
  8
0
 62
3
100
AcDbSpline
 70
8
 71
3
 72
8
 73
4
 74
0
 40
0
 40
0
 40
0
 40
0
 40
1
 40
1
 40
1
 40
1
 10
326.233658
 20
197.172896
 30
0.0
 10
326.233658
 20
198.277476
 30
0.0
 10
327.129087
 20
199.172879
 30
0.0
 10
328.233670
 20
199.172879
 30
0.0
  0
LWPOLYLINE
  5
176
100
AcDbEntity
  8
0
 62
7
100
AcDbPolyline
 90
2
 70
0
 10
250.752503
 20
356.048687
 30
0.0
 10
250.752503
 20
326.048640
 30
0.0
  0
SPLINE
  5
177
100
AcDbEntity
  8
0
 62
3
100
AcDbSpline
 70
8
 71
3
 72
8
 73
4
 74
0
 40
0
 40
0
 40
0
 40
0
 40
1
 40
1
 40
1
 40
1
 10
330.233655
 20
197.172896
 30
0.0
 10
330.233655
 20
196.068342
 30
0.0
 10
329.338252
 20
195.172889
 30
0.0
 10
328.233670
 20
195.172889
 30
0.0
  0
LWPOLYLINE
  5
178
100
AcDbEntity
  8
0
 62
3
100
AcDbPolyline
 90
2
 70
0
 10
370.969647
 20
176.021686
 30
0.0
 10
370.969647
 20
184.085392
 30
0.0
  0
LWPOLYLINE
  5
179
100
AcDbEntity
  8
0
 62
7
100
AcDbPolyline
 90
2
 70
0
 10
585.753109
 20
205.048859
 30
0.0
 10
585.753109
 20
226.715589
 30
0.0
  0
SPLINE
  5
17a
100
AcDbEntity
  8
0
 62
3
100
AcDbSpline
 70
8
 71
3
 72
8
 73
4
 74
0
 40
0
 40
0
 40
0
 40
0
 40
1
 40
1
 40
1
 40
1
 10
328.233670
 20
195.172889
 30
0.0
 10
327.129087
 20
195.172889
 30
0.0
 10
326.233658
 20
196.068342
 30
0.0
 10
326.233658
 20
197.172896
 30
0.0
  0
LWPOLYLINE
  5
17b
100
AcDbEntity
  8
0
 62
7
100
AcDbPolyline
 90
2
 70
0
 10
580.752484
 20
276.382115
 30
0.0
 10
580.752484
 20
304.382070
 30
0.0
  0
LWPOLYLINE
  5
17c
100
AcDbEntity
  8
0
 62
7
100
AcDbPolyline
 90
2
 70
0
 10
250.752503
 20
177.049063
 30
0.0
 10
245.752407
 20
177.049063
 30
0.0
  0
LWPOLYLINE
  5
17d
100
AcDbEntity
  8
0
 62
7
100
AcDbPolyline
 90
2
 70
0
 10
580.752484
 20
254.715385
 30
0.0
 10
585.753109
 20
254.715385
 30
0.0
  0
LWPOLYLINE
  5
17e
100
AcDbEntity
  8
0
 62
7
100
AcDbPolyline
 90
2
 70
0
 10
580.752484
 20
326.048640
 30
0.0
 10
580.752484
 20
356.048687
 30
0.0
  0
SPLINE
  5
17f
100
AcDbEntity
  8
0
 62
5
100
AcDbSpline
 70
8
 71
3
 72
8
 73
4
 74
0
 40
0
 40
0
 40
0
 40
0
 40
1
 40
1
 40
1
 40
1
 10
280.102759
 20
269.048769
 30
0.0
 10
275.684483
 20
269.048766
 30
0.0
 10
272.102764
 20
265.467045
 30
0.0
 10
272.102764
 20
261.048769
 30
0.0
  0
LWPOLYLINE
  5
180
100
AcDbEntity
  8
0
 62
5
100
AcDbPolyline
 90
3
 70
0
 10
550.796544
 20
269.048769
 30
0.0
 10
282.102745
 20
269.048769
 30
0.0
 10
280.102759
 20
269.048769
 30
0.0
  0
SPLINE
  5
181
100
AcDbEntity
  8
0
 62
5
100
AcDbSpline
 70
8
 71
3
 72
8
 73
4
 74
0
 40
0
 40
0
 40
0
 40
0
 40
1
 40
1
 40
1
 40
1
 10
272.102764
 20
192.048843
 30
0.0
 10
272.102763
 20
187.630586
 30
0.0
 10
275.684450
 20
184.048872
 30
0.0
 10
280.102706
 20
184.048840
 30
0.0
  0
LWPOLYLINE
  5
182
100
AcDbEntity
  8
0
 62
5
100
AcDbPolyline
 90
4
 70
0
 10
272.102764
 20
261.048769
 30
0.0
 10
272.102764
 20
259.048781
 30
0.0
 10
272.102764
 20
194.048913
 30
0.0
 10
272.102764
 20
192.048843
 30
0.0
  0
SPLINE
  5
183
100
AcDbEntity
  8
0
 62
5
100
AcDbSpline
 70
8
 71
3
 72
8
 73
4
 74
0
 40
0
 40
0
 40
0
 40
0
 40
1
 40
1
 40
1
 40
1
 10
552.796529
 20
184.048768
 30
0.0
 10
557.214805
 20
184.048771
 30
0.0
 10
560.796524
 20
187.630493
 30
0.0
 10
560.796524
 20
192.048768
 30
0.0
  0
LWPOLYLINE
  5
184
100
AcDbEntity
  8
0
 62
5
100
AcDbPolyline
 90
4
 70
0
 10
280.102706
 20
184.048840
 30
0.0
 10
290.634340
 20
184.048768
 30
0.0
 10
546.396523
 20
184.048768
 30
0.0
 10
552.796529
 20
184.048768
 30
0.0
  0
SPLINE
  5
185
100
AcDbEntity
  8
0
 62
5
100
AcDbSpline
 70
8
 71
3
 72
8
 73
4
 74
0
 40
0
 40
0
 40
0
 40
0
 40
1
 40
1
 40
1
 40
1
 10
560.796524
 20
261.048769
 30
0.0
 10
560.796524
 20
265.467045
 30
0.0
 10
557.214805
 20
269.048766
 30
0.0
 10
552.796529
 20
269.048769
 30
0.0
  0
LWPOLYLINE
  5
186
100
AcDbEntity
  8
0
 62
5
100
AcDbPolyline
 90
4
 70
0
 10
560.796524
 20
192.048768
 30
0.0
 10
560.796524
 20
194.048913
 30
0.0
 10
560.796524
 20
259.048781
 30
0.0
 10
560.796524
 20
261.048769
 30
0.0
  0
SPLINE
  5
187
100
AcDbEntity
  8
0
 62
3
100
AcDbSpline
 70
8
 71
3
 72
8
 73
4
 74
0
 40
0
 40
0
 40
0
 40
0
 40
1
 40
1
 40
1
 40
1
 10
313.518444
 20
180.648928
 30
0.0
 10
317.163529
 20
180.648928
 30
0.0
 10
320.118449
 20
177.694014
 30
0.0
 10
320.118449
 20
174.048934
 30
0.0
  0
SPLINE
  5
188
100
AcDbEntity
  8
0
 62
3
100
AcDbSpline
 70
8
 71
3
 72
8
 73
4
 74
0
 40
0
 40
0
 40
0
 40
0
 40
1
 40
1
 40
1
 40
1
 10
306.918439
 20
174.048934
 30
0.0
 10
306.918439
 20
177.694014
 30
0.0
 10
309.873359
 20
180.648928
 30
0.0
 10
313.518444
 20
180.648928
 30
0.0
  0
SPLINE
  5
189
100
AcDbEntity
  8
0
 62
3
100
AcDbSpline
 70
8
 71
3
 72
8
 73
4
 74
0
 40
0
 40
0
 40
0
 40
0
 40
1
 40
1
 40
1
 40
1
 10
320.118449
 20
174.048934
 30
0.0
 10
320.118449
 20
170.403880
 30
0.0
 10
317.163529
 20
167.448939
 30
0.0
 10
313.518444
 20
167.448939
 30
0.0
  0
SPLINE
  5
18a
100
AcDbEntity
  8
0
 62
3
100
AcDbSpline
 70
8
 71
3
 72
8
 73
4
 74
0
 40
0
 40
0
 40
0
 40
0
 40
1
 40
1
 40
1
 40
1
 10
313.518444
 20
167.448939
 30
0.0
 10
309.873359
 20
167.448939
 30
0.0
 10
306.918439
 20
170.403880
 30
0.0
 10
306.918439
 20
174.048934
 30
0.0
  0
SPLINE
  5
18b
100
AcDbEntity
  8
0
 62
3
100
AcDbSpline
 70
8
 71
3
 72
8
 73
4
 74
0
 40
0
 40
0
 40
0
 40
0
 40
1
 40
1
 40
1
 40
1
 10
330.118429
 20
174.048934
 30
0.0
 10
330.118429
 20
173.165278
 30
0.0
 10
329.402070
 20
172.448948
 30
0.0
 10
328.518414
 20
172.448948
 30
0.0
  0
LWPOLYLINE
  5
18c
100
AcDbEntity
  8
0
 62
5
100
AcDbPolyline
 90
2
 70
0
 10
552.796529
 20
269.048769
 30
0.0
 10
550.796544
 20
269.048769
 30
0.0
  0
SPLINE
  5
18d
100
AcDbEntity
  8
0
 62
3
100
AcDbSpline
 70
8
 71
3
 72
8
 73
4
 74
0
 40
0
 40
0
 40
0
 40
0
 40
1
 40
1
 40
1
 40
1
 10
300.118462
 20
174.048934
 30
0.0
 10
300.118462
 20
173.165278
 30
0.0
 10
299.402129
 20
172.448948
 30
0.0
 10
298.518474
 20
172.448948
 30
0.0
  0
SPLINE
  5
18e
100
AcDbEntity
  8
0
 62
3
100
AcDbSpline
 70
8
 71
3
 72
8
 73
4
 74
0
 40
0
 40
0
 40
0
 40
0
 40
1
 40
1
 40
1
 40
1
 10
298.518474
 20
172.448948
 30
0.0
 10
297.634818
 20
172.448948
 30
0.0
 10
296.918459
 20
173.165278
 30
0.0
 10
296.918459
 20
174.048934
 30
0.0
  0
SPLINE
  5
18f
100
AcDbEntity
  8
0
 62
3
100
AcDbSpline
 70
8
 71
3
 72
8
 73
4
 74
0
 40
0
 40
0
 40
0
 40
0
 40
1
 40
1
 40
1
 40
1
 10
328.518414
 20
175.648946
 30
0.0
 10
329.402070
 20
175.648946
 30
0.0
 10
330.118429
 20
174.932587
 30
0.0
 10
330.118429
 20
174.048934
 30
0.0
  0
SPLINE
  5
190
100
AcDbEntity
  8
0
 62
7
100
AcDbSpline
 70
8
 71
3
 72
8
 73
4
 74
0
 40
0
 40
0
 40
0
 40
0
 40
1
 40
1
 40
1
 40
1
 10
265.752420
 20
154.048981
 30
0.0
 10
268.513824
 20
154.048981
 30
0.0
 10
270.752410
 20
156.287536
 30
0.0
 10
270.752410
 20
159.048964
 30
0.0
  0
LWPOLYLINE
  5
191
100
AcDbEntity
  8
0
 62
7
100
AcDbPolyline
 90
2
 70
0
 10
245.752407
 20
254.715385
 30
0.0
 10
250.752503
 20
254.715385
 30
0.0
  0
SPLINE
  5
192
100
AcDbEntity
  8
0
 62
3
100
AcDbSpline
 70
8
 71
3
 72
8
 73
4
 74
0
 40
0
 40
0
 40
0
 40
0
 40
1
 40
1
 40
1
 40
1
 10
326.918426
 20
174.048934
 30
0.0
 10
326.918426
 20
174.932587
 30
0.0
 10
327.634759
 20
175.648946
 30
0.0
 10
328.518414
 20
175.648946
 30
0.0
  0
SPLINE
  5
193
100
AcDbEntity
  8
0
 62
3
100
AcDbSpline
 70
8
 71
3
 72
8
 73
4
 74
0
 40
0
 40
0
 40
0
 40
0
 40
1
 40
1
 40
1
 40
1
 10
296.918459
 20
174.048934
 30
0.0
 10
296.918459
 20
174.932587
 30
0.0
 10
297.634818
 20
175.648946
 30
0.0
 10
298.518474
 20
175.648946
 30
0.0
  0
SPLINE
  5
194
100
AcDbEntity
  8
0
 62
3
100
AcDbSpline
 70
8
 71
3
 72
8
 73
4
 74
0
 40
0
 40
0
 40
0
 40
0
 40
1
 40
1
 40
1
 40
1
 10
298.518474
 20
175.648946
 30
0.0
 10
299.402129
 20
175.648946
 30
0.0
 10
300.118462
 20
174.932587
 30
0.0
 10
300.118462
 20
174.048934
 30
0.0
  0
LWPOLYLINE
  5
195
100
AcDbEntity
  8
0
 62
7
100
AcDbPolyline
 90
2
 70
0
 10
250.752503
 20
304.382070
 30
0.0
 10
250.752503
 20
276.382115
 30
0.0
  0
LWPOLYLINE
  5
196
100
AcDbEntity
  8
0
 62
7
100
AcDbPolyline
 90
2
 70
0
 10
250.752503
 20
326.048640
 30
0.0
 10
245.752407
 20
326.048640
 30
0.0
  0
LWPOLYLINE
  5
197
100
AcDbEntity
  8
0
 62
7
100
AcDbPolyline
 90
2
 70
0
 10
250.752503
 20
254.715385
 30
0.0
 10
250.752503
 20
231.715420
 30
0.0
  0
SPLINE
  5
198
100
AcDbEntity
  8
0
 62
3
100
AcDbSpline
 70
8
 71
3
 72
8
 73
4
 74
0
 40
0
 40
0
 40
0
 40
0
 40
1
 40
1
 40
1
 40
1
 10
328.518414
 20
172.448948
 30
0.0
 10
327.634759
 20
172.448948
 30
0.0
 10
326.918426
 20
173.165278
 30
0.0
 10
326.918426
 20
174.048934
 30
0.0
  0
LWPOLYLINE
  5
199
100
AcDbEntity
  8
0
 62
7
100
AcDbPolyline
 90
2
 70
0
 10
245.752407
 20
304.382070
 30
0.0
 10
250.752503
 20
304.382070
 30
0.0
  0
LWPOLYLINE
  5
19a
100
AcDbEntity
  8
0
 62
7
100
AcDbPolyline
 90
2
 70
0
 10
245.752407
 20
326.048640
 30
0.0
 10
245.752407
 20
304.382070
 30
0.0
  0
SPLINE
  5
19b
100
AcDbEntity
  8
0
 62
5
100
AcDbSpline
 70
8
 71
3
 72
8
 73
4
 74
0
 40
0
 40
0
 40
0
 40
0
 40
1
 40
1
 40
1
 40
1
 10
118.519667
 20
268.810859
 30
0.0
 10
112.720685
 20
268.810859
 30
0.0
 10
108.019685
 20
268.360035
 30
0.0
 10
108.019685
 20
267.803934
 30
0.0
  0
LWPOLYLINE
  5
19c
100
AcDbEntity
  8
0
 62
7
100
AcDbPolyline
 90
3
 70
0
 10
250.752503
 20
276.382115
 30
0.0
 10
245.752407
 20
276.382115
 30
0.0
 10
245.752407
 20
254.715385
 30
0.0
  0
LWPOLYLINE
  5
19d
100
AcDbEntity
  8
0
 62
5
100
AcDbPolyline
 90
2
 70
0
 10
108.019582
 20
267.804058
 30
0.0
 10
108.019582
 20
244.803829
 30
0.0
  0
SPLINE
  5
19e
100
AcDbEntity
  8
0
 62
5
100
AcDbSpline
 70
8
 71
3
 72
8
 73
4
 74
0
 40
0
 40
0
 40
0
 40
0
 40
1
 40
1
 40
1
 40
1
 10
129.019648
 20
267.803934
 30
0.0
 10
129.019648
 20
268.360035
 30
0.0
 10
124.318645
 20
268.810859
 30
0.0
 10
118.519667
 20
268.810859
 30
0.0
  0
LWPOLYLINE
  5
19f
100
AcDbEntity
  8
0
 62
5
100
AcDbPolyline
 90
2
 70
0
 10
110.019567
 20
242.803843
 30
0.0
 10
127.019576
 20
242.803843
 30
0.0
  0
SPLINE
  5
1a0
100
AcDbEntity
  8
0
 62
5
100
AcDbSpline
 70
8
 71
3
 72
8
 73
4
 74
0
 40
0
 40
0
 40
0
 40
0
 40
1
 40
1
 40
1
 40
1
 10
127.019652
 20
242.803973
 30
0.0
 10
128.124219
 20
242.803973
 30
0.0
 10
129.019648
 20
243.699400
 30
0.0
 10
129.019648
 20
244.803956
 30
0.0
  0
SPLINE
  5
1a1
100
AcDbEntity
  8
0
 62
5
100
AcDbSpline
 70
8
 71
3
 72
8
 73
4
 74
0
 40
0
 40
0
 40
0
 40
0
 40
1
 40
1
 40
1
 40
1
 10
108.019685
 20
244.803956
 30
0.0
 10
108.019685
 20
243.699400
 30
0.0
 10
108.915111
 20
242.803973
 30
0.0
 10
110.019678
 20
242.803973
 30
0.0
  0
SPLINE
  5
1a2
100
AcDbEntity
  8
0
 62
5
100
AcDbSpline
 70
8
 71
3
 72
8
 73
4
 74
0
 40
0
 40
0
 40
0
 40
0
 40
1
 40
1
 40
1
 40
1
 10
9.079076
 20
279.886034
 30
0.0
 10
9.079076
 20
280.824916
 30
0.0
 10
8.317961
 20
281.586030
 30
0.0
 10
7.379080
 20
281.586030
 30
0.0
  0
SPLINE
  5
1a3
100
AcDbEntity
  8
0
 62
5
100
AcDbSpline
 70
8
 71
3
 72
8
 73
4
 74
0
 40
0
 40
0
 40
0
 40
0
 40
1
 40
1
 40
1
 40
1
 10
7.379080
 20
281.586030
 30
0.0
 10
6.440198
 20
281.586030
 30
0.0
 10
5.679083
 20
280.824916
 30
0.0
 10
5.679083
 20
279.886034
 30
0.0
  0
SPLINE
  5
1a4
100
AcDbEntity
  8
0
 62
5
100
AcDbSpline
 70
8
 71
3
 72
8
 73
4
 74
0
 40
0
 40
0
 40
0
 40
0
 40
1
 40
1
 40
1
 40
1
 10
5.679083
 20
279.886034
 30
0.0
 10
5.679083
 20
279.278684
 30
0.0
 10
6.003101
 20
278.717469
 30
0.0
 10
6.529081
 20
278.413794
 30
0.0
  0
SPLINE
  5
1a5
100
AcDbEntity
  8
0
 62
5
100
AcDbSpline
 70
8
 71
3
 72
8
 73
4
 74
0
 40
0
 40
0
 40
0
 40
0
 40
1
 40
1
 40
1
 40
1
 10
6.529081
 20
278.413794
 30
0.0
 10
7.055062
 20
278.110119
 30
0.0
 10
7.703097
 20
278.110119
 30
0.0
 10
8.229078
 20
278.413794
 30
0.0
  0
SPLINE
  5
1a6
100
AcDbEntity
  8
0
 62
5
100
AcDbSpline
 70
8
 71
3
 72
8
 73
4
 74
0
 40
0
 40
0
 40
0
 40
0
 40
1
 40
1
 40
1
 40
1
 10
8.229078
 20
278.413794
 30
0.0
 10
8.755058
 20
278.717469
 30
0.0
 10
9.079076
 20
279.278684
 30
0.0
 10
9.079076
 20
279.886034
 30
0.0
  0
LWPOLYLINE
  5
1a7
100
AcDbEntity
  8
0
 62
5
100
AcDbPolyline
 90
2
 70
0
 10
129.019561
 20
244.803829
 30
0.0
 10
129.019561
 20
267.804058
 30
0.0
  0
SPLINE
  5
1a8
100
AcDbEntity
  8
0
 62
5
100
AcDbSpline
 70
8
 71
3
 72
8
 73
4
 74
0
 40
0
 40
0
 40
0
 40
0
 40
1
 40
1
 40
1
 40
1
 10
9.079077
 20
221.885951
 30
0.0
 10
9.078707
 20
222.824671
 30
0.0
 10
8.317620
 20
223.585457
 30
0.0
 10
7.378900
 20
223.585457
 30
0.0
  0
SPLINE
  5
1a9
100
AcDbEntity
  8
0
 62
5
100
AcDbSpline
 70
8
 71
3
 72
8
 73
4
 74
0
 40
0
 40
0
 40
0
 40
0
 40
1
 40
1
 40
1
 40
1
 10
7.378900
 20
223.585457
 30
0.0
 10
6.440180
 20
223.585457
 30
0.0
 10
5.679093
 20
222.824671
 30
0.0
 10
5.678722
 20
221.885951
 30
0.0
  0
SPLINE
  5
1aa
100
AcDbEntity
  8
0
 62
5
100
AcDbSpline
 70
8
 71
3
 72
8
 73
4
 74
0
 40
0
 40
0
 40
0
 40
0
 40
1
 40
1
 40
1
 40
1
 10
5.678722
 20
221.885951
 30
0.0
 10
5.679093
 20
220.947230
 30
0.0
 10
6.440180
 20
220.186444
 30
0.0
 10
7.378900
 20
220.186444
 30
0.0
  0
SPLINE
  5
1ab
100
AcDbEntity
  8
0
 62
5
100
AcDbSpline
 70
8
 71
3
 72
8
 73
4
 74
0
 40
0
 40
0
 40
0
 40
0
 40
1
 40
1
 40
1
 40
1
 10
7.378900
 20
220.186444
 30
0.0
 10
8.317620
 20
220.186444
 30
0.0
 10
9.078707
 20
220.947230
 30
0.0
 10
9.079077
 20
221.885951
 30
0.0
  0
LWPOLYLINE
  5
1ac
100
AcDbEntity
  8
0
 62
5
100
AcDbPolyline
 90
1
 70
1
 10
9.079076
 20
279.886034
 30
0.0
  0
LWPOLYLINE
  5
1ad
100
AcDbEntity
  8
0
 62
5
100
AcDbPolyline
 90
1
 70
1
 10
9.079077
 20
221.885951
 30
0.0
  0
LWPOLYLINE
  5
1ae
100
AcDbEntity
  8
0
 62
7
100
AcDbPolyline
 90
2
 70
0
 10
226.521961
 20
356.020641
 30
0.0
 10
240.521859
 20
356.020641
 30
0.0
  0
SPLINE
  5
1af
100
AcDbEntity
  8
0
 62
5
100
AcDbSpline
 70
8
 71
3
 72
8
 73
4
 74
0
 40
0
 40
0
 40
0
 40
0
 40
1
 40
1
 40
1
 40
1
 10
9.079273
 20
341.048624
 30
0.0
 10
9.079273
 20
341.987615
 30
0.0
 10
8.318071
 20
342.748818
 30
0.0
 10
7.379080
 20
342.748818
 30
0.0
  0
SPLINE
  5
1b0
100
AcDbEntity
  8
0
 62
5
100
AcDbSpline
 70
8
 71
3
 72
8
 73
4
 74
0
 40
0
 40
0
 40
0
 40
0
 40
1
 40
1
 40
1
 40
1
 10
7.379080
 20
342.748818
 30
0.0
 10
6.440088
 20
342.748818
 30
0.0
 10
5.678886
 20
341.987615
 30
0.0
 10
5.678886
 20
341.048624
 30
0.0
  0
SPLINE
  5
1b1
100
AcDbEntity
  8
0
 62
5
100
AcDbSpline
 70
8
 71
3
 72
8
 73
4
 74
0
 40
0
 40
0
 40
0
 40
0
 40
1
 40
1
 40
1
 40
1
 10
5.678886
 20
341.048624
 30
0.0
 10
5.678886
 20
340.109633
 30
0.0
 10
6.440088
 20
339.348430
 30
0.0
 10
7.379080
 20
339.348430
 30
0.0
  0
SPLINE
  5
1b2
100
AcDbEntity
  8
0
 62
5
100
AcDbSpline
 70
8
 71
3
 72
8
 73
4
 74
0
 40
0
 40
0
 40
0
 40
0
 40
1
 40
1
 40
1
 40
1
 10
7.379080
 20
339.348430
 30
0.0
 10
8.318071
 20
339.348430
 30
0.0
 10
9.079273
 20
340.109633
 30
0.0
 10
9.079273
 20
341.048624
 30
0.0
  0
LWPOLYLINE
  5
1b3
100
AcDbEntity
  8
0
 62
7
100
AcDbPolyline
 90
14
 70
1
 10
14.132292
 20
93.441212
 30
0.0
 10
226.522297
 20
93.441212
 30
0.0
 10
240.522296
 20
93.441212
 30
0.0
 10
240.522296
 20
156.048623
 30
0.0
 10
186.122294
 20
156.048623
 30
0.0
 10
186.122294
 20
151.048641
 30
0.0
 10
159.322293
 20
151.048641
 30
0.0
 10
159.322293
 20
156.048623
 30
0.0
 10
80.932293
 20
156.048623
 30
0.0
 10
80.932293
 20
151.048641
 30
0.0
 10
54.132293
 20
151.048641
 30
0.0
 10
54.132293
 20
156.048623
 30
0.0
 10
0.132292
 20
156.048623
 30
0.0
 10
0.132292
 20
93.441212
 30
0.0
  0
SPLINE
  5
1b4
100
AcDbEntity
  8
0
 62
5
100
AcDbSpline
 70
8
 71
3
 72
8
 73
4
 74
0
 40
0
 40
0
 40
0
 40
0
 40
1
 40
1
 40
1
 40
1
 10
9.079273
 20
341.048624
 30
0.0
 10
9.079273
 20
341.987615
 30
0.0
 10
8.318071
 20
342.748818
 30
0.0
 10
7.379080
 20
342.748818
 30
0.0
  0
SPLINE
  5
1b5
100
AcDbEntity
  8
0
 62
5
100
AcDbSpline
 70
8
 71
3
 72
8
 73
4
 74
0
 40
0
 40
0
 40
0
 40
0
 40
1
 40
1
 40
1
 40
1
 10
7.379080
 20
342.748818
 30
0.0
 10
6.440088
 20
342.748818
 30
0.0
 10
5.678886
 20
341.987615
 30
0.0
 10
5.678886
 20
341.048624
 30
0.0
  0
SPLINE
  5
1b6
100
AcDbEntity
  8
0
 62
5
100
AcDbSpline
 70
8
 71
3
 72
8
 73
4
 74
0
 40
0
 40
0
 40
0
 40
0
 40
1
 40
1
 40
1
 40
1
 10
5.678886
 20
341.048624
 30
0.0
 10
5.678886
 20
340.109633
 30
0.0
 10
6.440088
 20
339.348430
 30
0.0
 10
7.379080
 20
339.348430
 30
0.0
  0
SPLINE
  5
1b7
100
AcDbEntity
  8
0
 62
5
100
AcDbSpline
 70
8
 71
3
 72
8
 73
4
 74
0
 40
0
 40
0
 40
0
 40
0
 40
1
 40
1
 40
1
 40
1
 10
7.379080
 20
339.348430
 30
0.0
 10
8.318071
 20
339.348430
 30
0.0
 10
9.079273
 20
340.109633
 30
0.0
 10
9.079273
 20
341.048624
 30
0.0
  0
SPLINE
  5
1b8
100
AcDbEntity
  8
0
 62
5
100
AcDbSpline
 70
8
 71
3
 72
8
 73
4
 74
0
 40
0
 40
0
 40
0
 40
0
 40
1
 40
1
 40
1
 40
1
 10
9.079273
 20
311.048625
 30
0.0
 10
9.079273
 20
311.987616
 30
0.0
 10
8.318071
 20
312.748819
 30
0.0
 10
7.379080
 20
312.748819
 30
0.0
  0
SPLINE
  5
1b9
100
AcDbEntity
  8
0
 62
5
100
AcDbSpline
 70
8
 71
3
 72
8
 73
4
 74
0
 40
0
 40
0
 40
0
 40
0
 40
1
 40
1
 40
1
 40
1
 10
7.379080
 20
312.748819
 30
0.0
 10
6.440088
 20
312.748819
 30
0.0
 10
5.678886
 20
311.987616
 30
0.0
 10
5.678886
 20
311.048625
 30
0.0
  0
SPLINE
  5
1ba
100
AcDbEntity
  8
0
 62
5
100
AcDbSpline
 70
8
 71
3
 72
8
 73
4
 74
0
 40
0
 40
0
 40
0
 40
0
 40
1
 40
1
 40
1
 40
1
 10
5.678886
 20
311.048625
 30
0.0
 10
5.678886
 20
310.109634
 30
0.0
 10
6.440088
 20
309.348431
 30
0.0
 10
7.379080
 20
309.348431
 30
0.0
  0
SPLINE
  5
1bb
100
AcDbEntity
  8
0
 62
5
100
AcDbSpline
 70
8
 71
3
 72
8
 73
4
 74
0
 40
0
 40
0
 40
0
 40
0
 40
1
 40
1
 40
1
 40
1
 10
7.379080
 20
309.348431
 30
0.0
 10
8.318071
 20
309.348431
 30
0.0
 10
9.079273
 20
310.109634
 30
0.0
 10
9.079273
 20
311.048625
 30
0.0
  0
LWPOLYLINE
  5
1bc
100
AcDbEntity
  8
0
 62
5
100
AcDbPolyline
 90
2
 70
1
 10
9.079273
 20
341.048624
 30
0.0
 10
9.079273
 20
341.048624
 30
0.0
  0
SPLINE
  5
1bd
100
AcDbEntity
  8
0
 62
5
100
AcDbSpline
 70
8
 71
3
 72
8
 73
4
 74
0
 40
0
 40
0
 40
0
 40
0
 40
1
 40
1
 40
1
 40
1
 10
234.937362
 20
341.020594
 30
0.0
 10
234.936622
 20
341.958954
 30
0.0
 10
234.175723
 20
342.719253
 30
0.0
 10
233.237362
 20
342.719253
 30
0.0
  0
SPLINE
  5
1be
100
AcDbEntity
  8
0
 62
5
100
AcDbSpline
 70
8
 71
3
 72
8
 73
4
 74
0
 40
0
 40
0
 40
0
 40
0
 40
1
 40
1
 40
1
 40
1
 10
233.237362
 20
342.719253
 30
0.0
 10
232.299002
 20
342.719253
 30
0.0
 10
231.538103
 20
341.958954
 30
0.0
 10
231.537363
 20
341.020594
 30
0.0
  0
SPLINE
  5
1bf
100
AcDbEntity
  8
0
 62
5
100
AcDbSpline
 70
8
 71
3
 72
8
 73
4
 74
0
 40
0
 40
0
 40
0
 40
0
 40
1
 40
1
 40
1
 40
1
 10
231.537363
 20
341.020594
 30
0.0
 10
231.538103
 20
340.082234
 30
0.0
 10
232.299002
 20
339.321935
 30
0.0
 10
233.237362
 20
339.321935
 30
0.0
  0
SPLINE
  5
1c0
100
AcDbEntity
  8
0
 62
5
100
AcDbSpline
 70
8
 71
3
 72
8
 73
4
 74
0
 40
0
 40
0
 40
0
 40
0
 40
1
 40
1
 40
1
 40
1
 10
233.237362
 20
339.321935
 30
0.0
 10
234.175723
 20
339.321935
 30
0.0
 10
234.936622
 20
340.082234
 30
0.0
 10
234.937362
 20
341.020594
 30
0.0
  0
LWPOLYLINE
  5
1c1
100
AcDbEntity
  8
0
 62
5
100
AcDbPolyline
 90
1
 70
1
 10
9.079273
 20
311.048625
 30
0.0
  0
SPLINE
  5
1c2
100
AcDbEntity
  8
0
 62
5
100
AcDbSpline
 70
8
 71
3
 72
8
 73
4
 74
0
 40
0
 40
0
 40
0
 40
0
 40
1
 40
1
 40
1
 40
1
 10
234.871923
 20
311.020594
 30
0.0
 10
234.871923
 20
311.627946
 30
0.0
 10
234.547904
 20
312.189162
 30
0.0
 10
234.021922
 20
312.492838
 30
0.0
  0
SPLINE
  5
1c3
100
AcDbEntity
  8
0
 62
5
100
AcDbSpline
 70
8
 71
3
 72
8
 73
4
 74
0
 40
0
 40
0
 40
0
 40
0
 40
1
 40
1
 40
1
 40
1
 10
234.021922
 20
312.492838
 30
0.0
 10
233.495940
 20
312.796514
 30
0.0
 10
232.847903
 20
312.796514
 30
0.0
 10
232.321921
 20
312.492838
 30
0.0
  0
SPLINE
  5
1c4
100
AcDbEntity
  8
0
 62
5
100
AcDbSpline
 70
8
 71
3
 72
8
 73
4
 74
0
 40
0
 40
0
 40
0
 40
0
 40
1
 40
1
 40
1
 40
1
 10
232.321921
 20
312.492838
 30
0.0
 10
231.795939
 20
312.189162
 30
0.0
 10
231.471921
 20
311.627946
 30
0.0
 10
231.471921
 20
311.020594
 30
0.0
  0
SPLINE
  5
1c5
100
AcDbEntity
  8
0
 62
5
100
AcDbSpline
 70
8
 71
3
 72
8
 73
4
 74
0
 40
0
 40
0
 40
0
 40
0
 40
1
 40
1
 40
1
 40
1
 10
231.471921
 20
311.020594
 30
0.0
 10
231.471921
 20
310.413242
 30
0.0
 10
231.795939
 20
309.852026
 30
0.0
 10
232.321921
 20
309.548350
 30
0.0
  0
SPLINE
  5
1c6
100
AcDbEntity
  8
0
 62
5
100
AcDbSpline
 70
8
 71
3
 72
8
 73
4
 74
0
 40
0
 40
0
 40
0
 40
0
 40
1
 40
1
 40
1
 40
1
 10
232.321921
 20
309.548350
 30
0.0
 10
232.847903
 20
309.244674
 30
0.0
 10
233.495940
 20
309.244674
 30
0.0
 10
234.021922
 20
309.548350
 30
0.0
  0
SPLINE
  5
1c7
100
AcDbEntity
  8
0
 62
5
100
AcDbSpline
 70
8
 71
3
 72
8
 73
4
 74
0
 40
0
 40
0
 40
0
 40
0
 40
1
 40
1
 40
1
 40
1
 10
234.021922
 20
309.548350
 30
0.0
 10
234.547904
 20
309.852026
 30
0.0
 10
234.871923
 20
310.413242
 30
0.0
 10
234.871923
 20
311.020594
 30
0.0
  0
LWPOLYLINE
  5
1c8
100
AcDbEntity
  8
0
 62
5
100
AcDbPolyline
 90
1
 70
1
 10
234.937362
 20
341.020594
 30
0.0
  0
LWPOLYLINE
  5
1c9
100
AcDbEntity
  8
0
 62
5
100
AcDbPolyline
 90
1
 70
1
 10
234.871923
 20
311.020594
 30
0.0
  0
LWPOLYLINE
  5
1ca
100
AcDbEntity
  8
0
 62
3
100
AcDbPolyline
 90
2
 70
0
 10
295.730083
 20
279.180507
 30
0.0
 10
350.731667
 20
279.180507
 30
0.0
  0
LWPOLYLINE
  5
1cb
100
AcDbEntity
  8
0
 62
3
100
AcDbPolyline
 90
2
 70
0
 10
350.731667
 20
284.080511
 30
0.0
 10
375.531063
 20
284.080511
 30
0.0
  0
LWPOLYLINE
  5
1cc
100
AcDbEntity
  8
0
 62
3
100
AcDbPolyline
 90
2
 70
0
 10
375.531063
 20
279.180269
 30
0.0
 10
456.131086
 20
279.180269
 30
0.0
  0
LWPOLYLINE
  5
1cd
100
AcDbEntity
  8
0
 62
3
100
AcDbPolyline
 90
2
 70
0
 10
456.131086
 20
284.080273
 30
0.0
 10
480.930482
 20
284.080273
 30
0.0
  0
LWPOLYLINE
  5
1ce
100
AcDbEntity
  8
0
 62
3
100
AcDbPolyline
 90
2
 70
0
 10
480.930482
 20
279.180269
 30
0.0
 10
536.196650
 20
279.180269
 30
0.0
  0
LWPOLYLINE
  5
1cf
100
AcDbEntity
  8
0
 62
3
100
AcDbPolyline
 90
2
 70
0
 10
295.330562
 20
283.713401
 30
0.0
 10
295.330562
 20
279.180507
 30
0.0
  0
LWPOLYLINE
  5
1d0
100
AcDbEntity
  8
0
 62
3
100
AcDbPolyline
 90
2
 70
0
 10
295.730083
 20
279.180507
 30
0.0
 10
295.330562
 20
279.180507
 30
0.0
  0
SPLINE
  5
1d1
100
AcDbEntity
  8
0
 62
3
100
AcDbSpline
 70
8
 71
3
 72
8
 73
4
 74
0
 40
0
 40
0
 40
0
 40
0
 40
1
 40
1
 40
1
 40
1
 10
303.330901
 20
314.180265
 30
0.0
 10
298.912625
 20
314.180262
 30
0.0
 10
295.330906
 20
310.598540
 30
0.0
 10
295.330906
 20
306.180264
 30
0.0
  0
SPLINE
  5
1d2
100
AcDbEntity
  8
0
 62
3
100
AcDbSpline
 70
8
 71
3
 72
8
 73
4
 74
0
 40
0
 40
0
 40
0
 40
0
 40
1
 40
1
 40
1
 40
1
 10
536.330926
 20
306.180264
 30
0.0
 10
536.330926
 20
308.302000
 30
0.0
 10
535.488068
 20
310.336835
 30
0.0
 10
533.987773
 20
311.837126
 30
0.0
  0
SPLINE
  5
1d3
100
AcDbEntity
  8
0
 62
3
100
AcDbSpline
 70
8
 71
3
 72
8
 73
4
 74
0
 40
0
 40
0
 40
0
 40
0
 40
1
 40
1
 40
1
 40
1
 10
533.987773
 20
311.837126
 30
0.0
 10
532.487477
 20
313.337418
 30
0.0
 10
530.452640
 20
314.180270
 30
0.0
 10
528.330905
 20
314.180265
 30
0.0
  0
LWPOLYLINE
  5
1d4
100
AcDbEntity
  8
0
 62
3
100
AcDbPolyline
 90
3
 70
0
 10
536.331587
 20
283.448051
 30
0.0
 10
536.331587
 20
279.180269
 30
0.0
 10
535.379087
 20
279.180269
 30
0.0
  0
SPLINE
  5
1d5
100
AcDbEntity
  8
0
 62
5
100
AcDbSpline
 70
8
 71
3
 72
8
 73
4
 74
0
 40
0
 40
0
 40
0
 40
0
 40
1
 40
1
 40
1
 40
1
 10
9.078989
 20
141.048621
 30
0.0
 10
9.078619
 20
141.987243
 30
0.0
 10
8.317612
 20
142.747950
 30
0.0
 10
7.378989
 20
142.747950
 30
0.0
  0
SPLINE
  5
1d6
100
AcDbEntity
  8
0
 62
5
100
AcDbSpline
 70
8
 71
3
 72
8
 73
4
 74
0
 40
0
 40
0
 40
0
 40
0
 40
1
 40
1
 40
1
 40
1
 10
7.378989
 20
142.747950
 30
0.0
 10
6.440367
 20
142.747950
 30
0.0
 10
5.679360
 20
141.987243
 30
0.0
 10
5.678990
 20
141.048621
 30
0.0
  0
SPLINE
  5
1d7
100
AcDbEntity
  8
0
 62
5
100
AcDbSpline
 70
8
 71
3
 72
8
 73
4
 74
0
 40
0
 40
0
 40
0
 40
0
 40
1
 40
1
 40
1
 40
1
 10
5.678990
 20
141.048621
 30
0.0
 10
5.679360
 20
140.109999
 30
0.0
 10
6.440367
 20
139.349291
 30
0.0
 10
7.378989
 20
139.349291
 30
0.0
  0
SPLINE
  5
1d8
100
AcDbEntity
  8
0
 62
5
100
AcDbSpline
 70
8
 71
3
 72
8
 73
4
 74
0
 40
0
 40
0
 40
0
 40
0
 40
1
 40
1
 40
1
 40
1
 10
7.378989
 20
139.349291
 30
0.0
 10
8.317612
 20
139.349291
 30
0.0
 10
9.078619
 20
140.109999
 30
0.0
 10
9.078989
 20
141.048621
 30
0.0
  0
LWPOLYLINE
  5
1d9
100
AcDbEntity
  8
0
 62
7
100
AcDbPolyline
 90
2
 70
0
 10
14.132290
 20
356.048687
 30
0.0
 10
14.132290
 20
279.441227
 30
0.0
  0
SPLINE
  5
1da
100
AcDbEntity
  8
0
 62
5
100
AcDbSpline
 70
8
 71
3
 72
8
 73
4
 74
0
 40
0
 40
0
 40
0
 40
0
 40
1
 40
1
 40
1
 40
1
 10
9.078989
 20
111.048622
 30
0.0
 10
9.078619
 20
111.987244
 30
0.0
 10
8.317612
 20
112.747952
 30
0.0
 10
7.378989
 20
112.747952
 30
0.0
  0
SPLINE
  5
1db
100
AcDbEntity
  8
0
 62
5
100
AcDbSpline
 70
8
 71
3
 72
8
 73
4
 74
0
 40
0
 40
0
 40
0
 40
0
 40
1
 40
1
 40
1
 40
1
 10
7.378989
 20
112.747952
 30
0.0
 10
6.440367
 20
112.747952
 30
0.0
 10
5.679360
 20
111.987244
 30
0.0
 10
5.678990
 20
111.048622
 30
0.0
  0
SPLINE
  5
1dc
100
AcDbEntity
  8
0
 62
5
100
AcDbSpline
 70
8
 71
3
 72
8
 73
4
 74
0
 40
0
 40
0
 40
0
 40
0
 40
1
 40
1
 40
1
 40
1
 10
5.678990
 20
111.048622
 30
0.0
 10
5.679360
 20
110.110000
 30
0.0
 10
6.440367
 20
109.349293
 30
0.0
 10
7.378989
 20
109.349293
 30
0.0
  0
SPLINE
  5
1dd
100
AcDbEntity
  8
0
 62
5
100
AcDbSpline
 70
8
 71
3
 72
8
 73
4
 74
0
 40
0
 40
0
 40
0
 40
0
 40
1
 40
1
 40
1
 40
1
 10
7.378989
 20
109.349293
 30
0.0
 10
8.317612
 20
109.349293
 30
0.0
 10
9.078619
 20
110.110000
 30
0.0
 10
9.078989
 20
111.048622
 30
0.0
  0
LWPOLYLINE
  5
1de
100
AcDbEntity
  8
0
 62
5
100
AcDbPolyline
 90
1
 70
1
 10
9.078989
 20
141.048621
 30
0.0
  0
SPLINE
  5
1df
100
AcDbEntity
  8
0
 62
5
100
AcDbSpline
 70
8
 71
3
 72
8
 73
4
 74
0
 40
0
 40
0
 40
0
 40
0
 40
1
 40
1
 40
1
 40
1
 10
234.871923
 20
141.048621
 30
0.0
 10
234.871923
 20
141.655973
 30
0.0
 10
234.547904
 20
142.217189
 30
0.0
 10
234.021922
 20
142.520865
 30
0.0
  0
SPLINE
  5
1e0
100
AcDbEntity
  8
0
 62
5
100
AcDbSpline
 70
8
 71
3
 72
8
 73
4
 74
0
 40
0
 40
0
 40
0
 40
0
 40
1
 40
1
 40
1
 40
1
 10
234.021922
 20
142.520865
 30
0.0
 10
233.495940
 20
142.824541
 30
0.0
 10
232.847903
 20
142.824541
 30
0.0
 10
232.321921
 20
142.520865
 30
0.0
  0
SPLINE
  5
1e1
100
AcDbEntity
  8
0
 62
5
100
AcDbSpline
 70
8
 71
3
 72
8
 73
4
 74
0
 40
0
 40
0
 40
0
 40
0
 40
1
 40
1
 40
1
 40
1
 10
232.321921
 20
142.520865
 30
0.0
 10
231.795939
 20
142.217189
 30
0.0
 10
231.471921
 20
141.655973
 30
0.0
 10
231.471921
 20
141.048621
 30
0.0
  0
SPLINE
  5
1e2
100
AcDbEntity
  8
0
 62
5
100
AcDbSpline
 70
8
 71
3
 72
8
 73
4
 74
0
 40
0
 40
0
 40
0
 40
0
 40
1
 40
1
 40
1
 40
1
 10
231.471921
 20
141.048621
 30
0.0
 10
231.471921
 20
140.441269
 30
0.0
 10
231.795939
 20
139.880053
 30
0.0
 10
232.321921
 20
139.576377
 30
0.0
  0
SPLINE
  5
1e3
100
AcDbEntity
  8
0
 62
5
100
AcDbSpline
 70
8
 71
3
 72
8
 73
4
 74
0
 40
0
 40
0
 40
0
 40
0
 40
1
 40
1
 40
1
 40
1
 10
232.321921
 20
139.576377
 30
0.0
 10
232.847903
 20
139.272701
 30
0.0
 10
233.495940
 20
139.272701
 30
0.0
 10
234.021922
 20
139.576377
 30
0.0
  0
SPLINE
  5
1e4
100
AcDbEntity
  8
0
 62
5
100
AcDbSpline
 70
8
 71
3
 72
8
 73
4
 74
0
 40
0
 40
0
 40
0
 40
0
 40
1
 40
1
 40
1
 40
1
 10
234.021922
 20
139.576377
 30
0.0
 10
234.547904
 20
139.880053
 30
0.0
 10
234.871923
 20
140.441269
 30
0.0
 10
234.871923
 20
141.048621
 30
0.0
  0
LWPOLYLINE
  5
1e5
100
AcDbEntity
  8
0
 62
5
100
AcDbPolyline
 90
1
 70
1
 10
9.078989
 20
111.048622
 30
0.0
  0
SPLINE
  5
1e6
100
AcDbEntity
  8
0
 62
5
100
AcDbSpline
 70
8
 71
3
 72
8
 73
4
 74
0
 40
0
 40
0
 40
0
 40
0
 40
1
 40
1
 40
1
 40
1
 10
234.871923
 20
111.048622
 30
0.0
 10
234.871923
 20
111.655974
 30
0.0
 10
234.547904
 20
112.217190
 30
0.0
 10
234.021922
 20
112.520866
 30
0.0
  0
SPLINE
  5
1e7
100
AcDbEntity
  8
0
 62
5
100
AcDbSpline
 70
8
 71
3
 72
8
 73
4
 74
0
 40
0
 40
0
 40
0
 40
0
 40
1
 40
1
 40
1
 40
1
 10
234.021922
 20
112.520866
 30
0.0
 10
233.495940
 20
112.824542
 30
0.0
 10
232.847903
 20
112.824542
 30
0.0
 10
232.321921
 20
112.520866
 30
0.0
  0
SPLINE
  5
1e8
100
AcDbEntity
  8
0
 62
5
100
AcDbSpline
 70
8
 71
3
 72
8
 73
4
 74
0
 40
0
 40
0
 40
0
 40
0
 40
1
 40
1
 40
1
 40
1
 10
232.321921
 20
112.520866
 30
0.0
 10
231.795939
 20
112.217190
 30
0.0
 10
231.471921
 20
111.655974
 30
0.0
 10
231.471921
 20
111.048622
 30
0.0
  0
SPLINE
  5
1e9
100
AcDbEntity
  8
0
 62
5
100
AcDbSpline
 70
8
 71
3
 72
8
 73
4
 74
0
 40
0
 40
0
 40
0
 40
0
 40
1
 40
1
 40
1
 40
1
 10
231.471921
 20
111.048622
 30
0.0
 10
231.471921
 20
110.441270
 30
0.0
 10
231.795939
 20
109.880054
 30
0.0
 10
232.321921
 20
109.576378
 30
0.0
  0
SPLINE
  5
1ea
100
AcDbEntity
  8
0
 62
5
100
AcDbSpline
 70
8
 71
3
 72
8
 73
4
 74
0
 40
0
 40
0
 40
0
 40
0
 40
1
 40
1
 40
1
 40
1
 10
232.321921
 20
109.576378
 30
0.0
 10
232.847903
 20
109.272702
 30
0.0
 10
233.495940
 20
109.272702
 30
0.0
 10
234.021922
 20
109.576378
 30
0.0
  0
SPLINE
  5
1eb
100
AcDbEntity
  8
0
 62
5
100
AcDbSpline
 70
8
 71
3
 72
8
 73
4
 74
0
 40
0
 40
0
 40
0
 40
0
 40
1
 40
1
 40
1
 40
1
 10
234.021922
 20
109.576378
 30
0.0
 10
234.547904
 20
109.880054
 30
0.0
 10
234.871923
 20
110.441270
 30
0.0
 10
234.871923
 20
111.048622
 30
0.0
  0
LWPOLYLINE
  5
1ec
100
AcDbEntity
  8
0
 62
5
100
AcDbPolyline
 90
1
 70
1
 10
234.871923
 20
141.048621
 30
0.0
  0
SPLINE
  5
1ed
100
AcDbEntity
  8
0
 62
5
100
AcDbSpline
 70
8
 71
3
 72
8
 73
4
 74
0
 40
0
 40
0
 40
0
 40
0
 40
1
 40
1
 40
1
 40
1
 10
356.396291
 20
140.296143
 30
0.0
 10
356.396291
 20
140.867877
 30
0.0
 10
356.091274
 20
141.396182
 30
0.0
 10
355.596138
 20
141.682049
 30
0.0
  0
SPLINE
  5
1ee
100
AcDbEntity
  8
0
 62
5
100
AcDbSpline
 70
8
 71
3
 72
8
 73
4
 74
0
 40
0
 40
0
 40
0
 40
0
 40
1
 40
1
 40
1
 40
1
 10
355.596138
 20
141.682049
 30
0.0
 10
355.101001
 20
141.967916
 30
0.0
 10
354.490968
 20
141.967916
 30
0.0
 10
353.995832
 20
141.682049
 30
0.0
  0
SPLINE
  5
1ef
100
AcDbEntity
  8
0
 62
5
100
AcDbSpline
 70
8
 71
3
 72
8
 73
4
 74
0
 40
0
 40
0
 40
0
 40
0
 40
1
 40
1
 40
1
 40
1
 10
353.995832
 20
141.682049
 30
0.0
 10
353.500695
 20
141.396182
 30
0.0
 10
353.195679
 20
140.867877
 30
0.0
 10
353.195679
 20
140.296143
 30
0.0
  0
SPLINE
  5
1f0
100
AcDbEntity
  8
0
 62
5
100
AcDbSpline
 70
8
 71
3
 72
8
 73
4
 74
0
 40
0
 40
0
 40
0
 40
0
 40
1
 40
1
 40
1
 40
1
 10
353.195679
 20
140.296143
 30
0.0
 10
353.195679
 20
139.724409
 30
0.0
 10
353.500695
 20
139.196105
 30
0.0
 10
353.995832
 20
138.910238
 30
0.0
  0
SPLINE
  5
1f1
100
AcDbEntity
  8
0
 62
5
100
AcDbSpline
 70
8
 71
3
 72
8
 73
4
 74
0
 40
0
 40
0
 40
0
 40
0
 40
1
 40
1
 40
1
 40
1
 10
353.995832
 20
138.910238
 30
0.0
 10
354.490968
 20
138.624371
 30
0.0
 10
355.101001
 20
138.624371
 30
0.0
 10
355.596138
 20
138.910238
 30
0.0
  0
SPLINE
  5
1f2
100
AcDbEntity
  8
0
 62
5
100
AcDbSpline
 70
8
 71
3
 72
8
 73
4
 74
0
 40
0
 40
0
 40
0
 40
0
 40
1
 40
1
 40
1
 40
1
 10
355.596138
 20
138.910238
 30
0.0
 10
356.091274
 20
139.196105
 30
0.0
 10
356.396291
 20
139.724409
 30
0.0
 10
356.396291
 20
140.296143
 30
0.0
  0
LWPOLYLINE
  5
1f3
100
AcDbEntity
  8
0
 62
5
100
AcDbPolyline
 90
1
 70
1
 10
234.871923
 20
111.048622
 30
0.0
  0
SPLINE
  5
1f4
100
AcDbEntity
  8
0
 62
5
100
AcDbSpline
 70
8
 71
3
 72
8
 73
4
 74
0
 40
0
 40
0
 40
0
 40
0
 40
1
 40
1
 40
1
 40
1
 10
491.596207
 20
140.295966
 30
0.0
 10
491.593165
 20
141.177562
 30
0.0
 10
490.877635
 20
141.890628
 30
0.0
 10
489.996033
 20
141.890628
 30
0.0
  0
SPLINE
  5
1f5
100
AcDbEntity
  8
0
 62
5
100
AcDbSpline
 70
8
 71
3
 72
8
 73
4
 74
0
 40
0
 40
0
 40
0
 40
0
 40
1
 40
1
 40
1
 40
1
 10
489.996033
 20
141.890628
 30
0.0
 10
489.114432
 20
141.890628
 30
0.0
 10
488.398902
 20
141.177562
 30
0.0
 10
488.395860
 20
140.295966
 30
0.0
  0
SPLINE
  5
1f6
100
AcDbEntity
  8
0
 62
5
100
AcDbSpline
 70
8
 71
3
 72
8
 73
4
 74
0
 40
0
 40
0
 40
0
 40
0
 40
1
 40
1
 40
1
 40
1
 10
488.395860
 20
140.295966
 30
0.0
 10
488.398902
 20
139.414370
 30
0.0
 10
489.114432
 20
138.701304
 30
0.0
 10
489.996033
 20
138.701304
 30
0.0
  0
SPLINE
  5
1f7
100
AcDbEntity
  8
0
 62
5
100
AcDbSpline
 70
8
 71
3
 72
8
 73
4
 74
0
 40
0
 40
0
 40
0
 40
0
 40
1
 40
1
 40
1
 40
1
 10
489.996033
 20
138.701304
 30
0.0
 10
490.877635
 20
138.701304
 30
0.0
 10
491.593165
 20
139.414370
 30
0.0
 10
491.596207
 20
140.295966
 30
0.0
  0
LWPOLYLINE
  5
1f8
100
AcDbEntity
  8
0
 62
5
100
AcDbPolyline
 90
1
 70
1
 10
356.396291
 20
140.296143
 30
0.0
  0
SPLINE
  5
1f9
100
AcDbEntity
  8
0
 62
5
100
AcDbSpline
 70
8
 71
3
 72
8
 73
4
 74
0
 40
0
 40
0
 40
0
 40
0
 40
1
 40
1
 40
1
 40
1
 10
458.395972
 20
140.296032
 30
0.0
 10
458.392610
 20
141.177299
 30
0.0
 10
457.677257
 20
141.889929
 30
0.0
 10
456.795984
 20
141.889929
 30
0.0
  0
SPLINE
  5
1fa
100
AcDbEntity
  8
0
 62
5
100
AcDbSpline
 70
8
 71
3
 72
8
 73
4
 74
0
 40
0
 40
0
 40
0
 40
0
 40
1
 40
1
 40
1
 40
1
 10
456.795984
 20
141.889929
 30
0.0
 10
455.914711
 20
141.889929
 30
0.0
 10
455.199357
 20
141.177299
 30
0.0
 10
455.195995
 20
140.296032
 30
0.0
  0
SPLINE
  5
1fb
100
AcDbEntity
  8
0
 62
5
100
AcDbSpline
 70
8
 71
3
 72
8
 73
4
 74
0
 40
0
 40
0
 40
0
 40
0
 40
1
 40
1
 40
1
 40
1
 10
455.195995
 20
140.296032
 30
0.0
 10
455.199357
 20
139.414766
 30
0.0
 10
455.914711
 20
138.702136
 30
0.0
 10
456.795984
 20
138.702136
 30
0.0
  0
SPLINE
  5
1fc
100
AcDbEntity
  8
0
 62
5
100
AcDbSpline
 70
8
 71
3
 72
8
 73
4
 74
0
 40
0
 40
0
 40
0
 40
0
 40
1
 40
1
 40
1
 40
1
 10
456.795984
 20
138.702136
 30
0.0
 10
457.677257
 20
138.702136
 30
0.0
 10
458.392610
 20
139.414766
 30
0.0
 10
458.395972
 20
140.296032
 30
0.0
  0
LWPOLYLINE
  5
1fd
100
AcDbEntity
  8
0
 62
5
100
AcDbPolyline
 90
1
 70
1
 10
491.596207
 20
140.295966
 30
0.0
  0
SPLINE
  5
1fe
100
AcDbEntity
  8
0
 62
5
100
AcDbSpline
 70
8
 71
3
 72
8
 73
4
 74
0
 40
0
 40
0
 40
0
 40
0
 40
1
 40
1
 40
1
 40
1
 10
356.396238
 20
64.195760
 30
0.0
 10
356.393805
 20
65.077862
 30
0.0
 10
355.678037
 20
65.791659
 30
0.0
 10
354.795932
 20
65.791659
 30
0.0
  0
SPLINE
  5
1ff
100
AcDbEntity
  8
0
 62
5
100
AcDbSpline
 70
8
 71
3
 72
8
 73
4
 74
0
 40
0
 40
0
 40
0
 40
0
 40
1
 40
1
 40
1
 40
1
 10
354.795932
 20
65.791659
 30
0.0
 10
353.913827
 20
65.791659
 30
0.0
 10
353.198059
 20
65.077862
 30
0.0
 10
353.195626
 20
64.195760
 30
0.0
  0
SPLINE
  5
200
100
AcDbEntity
  8
0
 62
5
100
AcDbSpline
 70
8
 71
3
 72
8
 73
4
 74
0
 40
0
 40
0
 40
0
 40
0
 40
1
 40
1
 40
1
 40
1
 10
353.195626
 20
64.195760
 30
0.0
 10
353.198059
 20
63.313659
 30
0.0
 10
353.913827
 20
62.599861
 30
0.0
 10
354.795932
 20
62.599861
 30
0.0
  0
SPLINE
  5
201
100
AcDbEntity
  8
0
 62
5
100
AcDbSpline
 70
8
 71
3
 72
8
 73
4
 74
0
 40
0
 40
0
 40
0
 40
0
 40
1
 40
1
 40
1
 40
1
 10
354.795932
 20
62.599861
 30
0.0
 10
355.678037
 20
62.599861
 30
0.0
 10
356.393805
 20
63.313659
 30
0.0
 10
356.396238
 20
64.195760
 30
0.0
  0
LWPOLYLINE
  5
202
100
AcDbEntity
  8
0
 62
5
100
AcDbPolyline
 90
1
 70
1
 10
458.395972
 20
140.296032
 30
0.0
  0
SPLINE
  5
203
100
AcDbEntity
  8
0
 62
5
100
AcDbSpline
 70
8
 71
3
 72
8
 73
4
 74
0
 40
0
 40
0
 40
0
 40
0
 40
1
 40
1
 40
1
 40
1
 10
491.596260
 20
64.195911
 30
0.0
 10
491.594430
 20
65.078374
 30
0.0
 10
490.878538
 20
65.792783
 30
0.0
 10
489.996073
 20
65.792783
 30
0.0
  0
SPLINE
  5
204
100
AcDbEntity
  8
0
 62
5
100
AcDbSpline
 70
8
 71
3
 72
8
 73
4
 74
0
 40
0
 40
0
 40
0
 40
0
 40
1
 40
1
 40
1
 40
1
 10
489.996073
 20
65.792783
 30
0.0
 10
489.113608
 20
65.792783
 30
0.0
 10
488.397716
 20
65.078374
 30
0.0
 10
488.395886
 20
64.195911
 30
0.0
  0
SPLINE
  5
205
100
AcDbEntity
  8
0
 62
5
100
AcDbSpline
 70
8
 71
3
 72
8
 73
4
 74
0
 40
0
 40
0
 40
0
 40
0
 40
1
 40
1
 40
1
 40
1
 10
488.395886
 20
64.195911
 30
0.0
 10
488.397716
 20
63.313448
 30
0.0
 10
489.113608
 20
62.599038
 30
0.0
 10
489.996073
 20
62.599038
 30
0.0
  0
SPLINE
  5
206
100
AcDbEntity
  8
0
 62
5
100
AcDbSpline
 70
8
 71
3
 72
8
 73
4
 74
0
 40
0
 40
0
 40
0
 40
0
 40
1
 40
1
 40
1
 40
1
 10
489.996073
 20
62.599038
 30
0.0
 10
490.878538
 20
62.599038
 30
0.0
 10
491.594430
 20
63.313448
 30
0.0
 10
491.596260
 20
64.195911
 30
0.0
  0
LWPOLYLINE
  5
207
100
AcDbEntity
  8
0
 62
5
100
AcDbPolyline
 90
1
 70
1
 10
356.396238
 20
64.195760
 30
0.0
  0
SPLINE
  5
208
100
AcDbEntity
  8
0
 62
5
100
AcDbSpline
 70
8
 71
3
 72
8
 73
4
 74
0
 40
0
 40
0
 40
0
 40
0
 40
1
 40
1
 40
1
 40
1
 10
458.395893
 20
64.195874
 30
0.0
 10
458.395893
 20
64.767499
 30
0.0
 10
458.090934
 20
65.295703
 30
0.0
 10
457.595892
 20
65.581516
 30
0.0
  0
SPLINE
  5
209
100
AcDbEntity
  8
0
 62
5
100
AcDbSpline
 70
8
 71
3
 72
8
 73
4
 74
0
 40
0
 40
0
 40
0
 40
0
 40
1
 40
1
 40
1
 40
1
 10
457.595892
 20
65.581516
 30
0.0
 10
457.100850
 20
65.867329
 30
0.0
 10
456.490933
 20
65.867329
 30
0.0
 10
455.995890
 20
65.581516
 30
0.0
  0
SPLINE
  5
20a
100
AcDbEntity
  8
0
 62
5
100
AcDbSpline
 70
8
 71
3
 72
8
 73
4
 74
0
 40
0
 40
0
 40
0
 40
0
 40
1
 40
1
 40
1
 40
1
 10
455.995890
 20
65.581516
 30
0.0
 10
455.500848
 20
65.295703
 30
0.0
 10
455.195890
 20
64.767499
 30
0.0
 10
455.195890
 20
64.195874
 30
0.0
  0
SPLINE
  5
20b
100
AcDbEntity
  8
0
 62
5
100
AcDbSpline
 70
8
 71
3
 72
8
 73
4
 74
0
 40
0
 40
0
 40
0
 40
0
 40
1
 40
1
 40
1
 40
1
 10
455.195890
 20
64.195874
 30
0.0
 10
455.195890
 20
63.624248
 30
0.0
 10
455.500848
 20
63.096045
 30
0.0
 10
455.995890
 20
62.810232
 30
0.0
  0
SPLINE
  5
20c
100
AcDbEntity
  8
0
 62
5
100
AcDbSpline
 70
8
 71
3
 72
8
 73
4
 74
0
 40
0
 40
0
 40
0
 40
0
 40
1
 40
1
 40
1
 40
1
 10
455.995890
 20
62.810232
 30
0.0
 10
456.490933
 20
62.524419
 30
0.0
 10
457.100850
 20
62.524419
 30
0.0
 10
457.595892
 20
62.810232
 30
0.0
  0
SPLINE
  5
20d
100
AcDbEntity
  8
0
 62
5
100
AcDbSpline
 70
8
 71
3
 72
8
 73
4
 74
0
 40
0
 40
0
 40
0
 40
0
 40
1
 40
1
 40
1
 40
1
 10
457.595892
 20
62.810232
 30
0.0
 10
458.090934
 20
63.096045
 30
0.0
 10
458.395893
 20
63.624248
 30
0.0
 10
458.395893
 20
64.195874
 30
0.0
  0
LWPOLYLINE
  5
20e
100
AcDbEntity
  8
0
 62
5
100
AcDbPolyline
 90
1
 70
1
 10
491.596260
 20
64.195911
 30
0.0
  0
LWPOLYLINE
  5
20f
100
AcDbEntity
  8
0
 62
5
100
AcDbPolyline
 90
1
 70
1
 10
458.395893
 20
64.195874
 30
0.0
  0
SPLINE
  5
210
100
AcDbEntity
  8
0
 62
5
100
AcDbSpline
 70
8
 71
3
 72
8
 73
4
 74
0
 40
0
 40
0
 40
0
 40
0
 40
1
 40
1
 40
1
 40
1
 10
493.529438
 20
41.199589
 30
0.0
 10
492.591834
 20
41.248537
 30
0.0
 10
491.871426
 20
42.048291
 30
0.0
 10
491.920374
 20
42.985895
 30
0.0
  0
SPLINE
  5
211
100
AcDbEntity
  8
0
 62
5
100
AcDbSpline
 70
8
 71
3
 72
8
 73
4
 74
0
 40
0
 40
0
 40
0
 40
0
 40
1
 40
1
 40
1
 40
1
 10
491.920374
 20
16.685948
 30
0.0
 10
491.871426
 20
15.748318
 30
0.0
 10
492.591834
 20
14.948562
 30
0.0
 10
493.529438
 20
14.899640
 30
0.0
  0
LWPOLYLINE
  5
212
100
AcDbEntity
  8
0
 62
3
100
AcDbPolyline
 90
4
 70
1
 10
370.968879
 20
184.085456
 30
0.0
 10
391.930918
 20
184.085456
 30
0.0
 10
391.930918
 20
189.085454
 30
0.0
 10
370.968879
 20
189.085454
 30
0.0
  0
SPLINE
  5
213
100
AcDbEntity
  8
0
 62
5
100
AcDbSpline
 70
8
 71
3
 72
8
 73
4
 74
0
 40
0
 40
0
 40
0
 40
0
 40
1
 40
1
 40
1
 40
1
 10
491.920374
 20
56.985875
 30
0.0
 10
491.969322
 20
57.923476
 30
0.0
 10
492.769078
 20
58.643881
 30
0.0
 10
493.706682
 20
58.594936
 30
0.0
  0
SPLINE
  5
214
100
AcDbEntity
  8
0
 62
5
100
AcDbSpline
 70
8
 71
3
 72
8
 73
4
 74
0
 40
0
 40
0
 40
0
 40
0
 40
1
 40
1
 40
1
 40
1
 10
491.920374
 20
30.685899
 30
0.0
 10
491.917199
 20
30.626871
 30
0.0
 10
491.917199
 20
30.567710
 30
0.0
 10
491.920374
 20
30.508681
 30
0.0
  0
SPLINE
  5
215
100
AcDbEntity
  8
0
 62
5
100
AcDbSpline
 70
8
 71
3
 72
8
 73
4
 74
0
 40
0
 40
0
 40
0
 40
0
 40
1
 40
1
 40
1
 40
1
 10
493.529438
 20
14.899640
 30
0.0
 10
494.467042
 20
14.850692
 30
0.0
 10
495.266798
 20
15.571100
 30
0.0
 10
495.315746
 20
16.508704
 30
0.0
  0
LWPOLYLINE
  5
216
100
AcDbEntity
  8
0
 62
5
100
AcDbPolyline
 90
2
 70
0
 10
491.921274
 20
30.509052
 30
0.0
 10
491.921274
 20
16.687218
 30
0.0
  0
SPLINE
  5
217
100
AcDbEntity
  8
0
 62
5
100
AcDbSpline
 70
8
 71
3
 72
8
 73
4
 74
0
 40
0
 40
0
 40
0
 40
0
 40
1
 40
1
 40
1
 40
1
 10
495.315746
 20
42.808677
 30
0.0
 10
495.266798
 20
41.871046
 30
0.0
 10
494.467042
 20
41.150641
 30
0.0
 10
493.529438
 20
41.199589
 30
0.0
  0
LWPOLYLINE
  5
218
100
AcDbEntity
  8
0
 62
5
100
AcDbPolyline
 90
2
 70
0
 10
491.921274
 20
42.986008
 30
0.0
 10
491.921274
 20
56.808636
 30
0.0
  0
SPLINE
  5
219
100
AcDbEntity
  8
0
 62
5
100
AcDbSpline
 70
8
 71
3
 72
8
 73
4
 74
0
 40
0
 40
0
 40
0
 40
0
 40
1
 40
1
 40
1
 40
1
 10
493.706682
 20
58.594936
 30
0.0
 10
494.644286
 20
58.546014
 30
0.0
 10
495.364694
 20
57.746258
 30
0.0
 10
495.315746
 20
56.808630
 30
0.0
  0
SPLINE
  5
21a
100
AcDbEntity
  8
0
 62
5
100
AcDbSpline
 70
8
 71
3
 72
8
 73
4
 74
0
 40
0
 40
0
 40
0
 40
0
 40
1
 40
1
 40
1
 40
1
 10
495.315746
 20
42.985895
 30
0.0
 10
495.318921
 20
42.926866
 30
0.0
 10
495.318921
 20
42.867705
 30
0.0
 10
495.315746
 20
42.808677
 30
0.0
  0
SPLINE
  5
21b
100
AcDbEntity
  8
0
 62
5
100
AcDbSpline
 70
8
 71
3
 72
8
 73
4
 74
0
 40
0
 40
0
 40
0
 40
0
 40
1
 40
1
 40
1
 40
1
 10
495.315746
 20
16.508704
 30
0.0
 10
495.318921
 20
16.567732
 30
0.0
 10
495.318921
 20
16.626893
 30
0.0
 10
495.315746
 20
16.685948
 30
0.0
  0
SPLINE
  5
21c
100
AcDbEntity
  8
0
 62
5
100
AcDbSpline
 70
8
 71
3
 72
8
 73
4
 74
0
 40
0
 40
0
 40
0
 40
0
 40
1
 40
1
 40
1
 40
1
 10
495.315746
 20
30.508681
 30
0.0
 10
495.364694
 20
31.446285
 30
0.0
 10
494.644286
 20
32.246041
 30
0.0
 10
493.706682
 20
32.294989
 30
0.0
  0
SPLINE
  5
21d
100
AcDbEntity
  8
0
 62
5
100
AcDbSpline
 70
8
 71
3
 72
8
 73
4
 74
0
 40
0
 40
0
 40
0
 40
0
 40
1
 40
1
 40
1
 40
1
 10
491.920374
 20
56.808630
 30
0.0
 10
491.917199
 20
56.867685
 30
0.0
 10
491.917199
 20
56.926846
 30
0.0
 10
491.920374
 20
56.985875
 30
0.0
  0
SPLINE
  5
21e
100
AcDbEntity
  8
0
 62
5
100
AcDbSpline
 70
8
 71
3
 72
8
 73
4
 74
0
 40
0
 40
0
 40
0
 40
0
 40
1
 40
1
 40
1
 40
1
 10
493.706682
 20
32.294989
 30
0.0
 10
492.769078
 20
32.343911
 30
0.0
 10
491.969322
 20
31.623530
 30
0.0
 10
491.920374
 20
30.685899
 30
0.0
  0
LWPOLYLINE
  5
21f
100
AcDbEntity
  8
0
 62
5
100
AcDbPolyline
 90
2
 70
0
 10
495.315878
 20
56.808636
 30
0.0
 10
495.315878
 20
42.986008
 30
0.0
  0
SPLINE
  5
220
100
AcDbEntity
  8
0
 62
5
100
AcDbSpline
 70
8
 71
3
 72
8
 73
4
 74
0
 40
0
 40
0
 40
0
 40
0
 40
1
 40
1
 40
1
 40
1
 10
305.853200
 20
97.532033
 30
0.0
 10
305.853200
 20
98.139385
 30
0.0
 10
305.529182
 20
98.700601
 30
0.0
 10
305.003200
 20
99.004277
 30
0.0
  0
SPLINE
  5
221
100
AcDbEntity
  8
0
 62
5
100
AcDbSpline
 70
8
 71
3
 72
8
 73
4
 74
0
 40
0
 40
0
 40
0
 40
0
 40
1
 40
1
 40
1
 40
1
 10
305.003200
 20
99.004277
 30
0.0
 10
304.477218
 20
99.307953
 30
0.0
 10
303.829181
 20
99.307953
 30
0.0
 10
303.303199
 20
99.004277
 30
0.0
  0
SPLINE
  5
222
100
AcDbEntity
  8
0
 62
5
100
AcDbSpline
 70
8
 71
3
 72
8
 73
4
 74
0
 40
0
 40
0
 40
0
 40
0
 40
1
 40
1
 40
1
 40
1
 10
303.303199
 20
99.004277
 30
0.0
 10
302.777217
 20
98.700601
 30
0.0
 10
302.453198
 20
98.139385
 30
0.0
 10
302.453198
 20
97.532033
 30
0.0
  0
SPLINE
  5
223
100
AcDbEntity
  8
0
 62
5
100
AcDbSpline
 70
8
 71
3
 72
8
 73
4
 74
0
 40
0
 40
0
 40
0
 40
0
 40
1
 40
1
 40
1
 40
1
 10
302.453198
 20
97.532033
 30
0.0
 10
302.453198
 20
96.924681
 30
0.0
 10
302.777217
 20
96.363465
 30
0.0
 10
303.303199
 20
96.059789
 30
0.0
  0
SPLINE
  5
224
100
AcDbEntity
  8
0
 62
5
100
AcDbSpline
 70
8
 71
3
 72
8
 73
4
 74
0
 40
0
 40
0
 40
0
 40
0
 40
1
 40
1
 40
1
 40
1
 10
303.303199
 20
96.059789
 30
0.0
 10
303.829181
 20
95.756113
 30
0.0
 10
304.477218
 20
95.756113
 30
0.0
 10
305.003200
 20
96.059789
 30
0.0
  0
SPLINE
  5
225
100
AcDbEntity
  8
0
 62
5
100
AcDbSpline
 70
8
 71
3
 72
8
 73
4
 74
0
 40
0
 40
0
 40
0
 40
0
 40
1
 40
1
 40
1
 40
1
 10
305.003200
 20
96.059789
 30
0.0
 10
305.529182
 20
96.363465
 30
0.0
 10
305.853200
 20
96.924681
 30
0.0
 10
305.853200
 20
97.532033
 30
0.0
  0
LWPOLYLINE
  5
226
100
AcDbEntity
  8
0
 62
5
100
AcDbPolyline
 90
2
 70
0
 10
495.315878
 20
16.687218
 30
0.0
 10
495.315878
 20
30.509052
 30
0.0
  0
LWPOLYLINE
  5
227
100
AcDbEntity
  8
0
 62
5
100
AcDbPolyline
 90
1
 70
1
 10
305.853200
 20
97.532033
 30
0.0
  0
SPLINE
  5
228
100
AcDbEntity
  8
0
 62
3
100
AcDbSpline
 70
8
 71
3
 72
8
 73
4
 74
0
 40
0
 40
0
 40
0
 40
0
 40
1
 40
1
 40
1
 40
1
 10
283.102764
 20
237.348770
 30
0.0
 10
284.041124
 20
237.349510
 30
0.0
 10
284.801422
 20
238.110409
 30
0.0
 10
284.801422
 20
239.048769
 30
0.0
  0
SPLINE
  5
229
100
AcDbEntity
  8
0
 62
3
100
AcDbSpline
 70
8
 71
3
 72
8
 73
4
 74
0
 40
0
 40
0
 40
0
 40
0
 40
1
 40
1
 40
1
 40
1
 10
284.801422
 20
239.048769
 30
0.0
 10
284.801422
 20
239.987130
 30
0.0
 10
284.041124
 20
240.748028
 30
0.0
 10
283.102764
 20
240.748769
 30
0.0
  0
LWPOLYLINE
  5
22a
100
AcDbEntity
  8
0
 62
3
100
AcDbPolyline
 90
2
 70
0
 10
278.102747
 20
237.348770
 30
0.0
 10
283.102764
 20
237.348770
 30
0.0
  0
SPLINE
  5
22b
100
AcDbEntity
  8
0
 62
3
100
AcDbSpline
 70
8
 71
3
 72
8
 73
4
 74
0
 40
0
 40
0
 40
0
 40
0
 40
1
 40
1
 40
1
 40
1
 10
278.102747
 20
240.748769
 30
0.0
 10
277.164387
 20
240.748028
 30
0.0
 10
276.404088
 20
239.987130
 30
0.0
 10
276.404088
 20
239.048769
 30
0.0
  0
SPLINE
  5
22c
100
AcDbEntity
  8
0
 62
3
100
AcDbSpline
 70
8
 71
3
 72
8
 73
4
 74
0
 40
0
 40
0
 40
0
 40
0
 40
1
 40
1
 40
1
 40
1
 10
276.404088
 20
239.048769
 30
0.0
 10
276.404088
 20
238.110409
 30
0.0
 10
277.164387
 20
237.349510
 30
0.0
 10
278.102747
 20
237.348770
 30
0.0
  0
LWPOLYLINE
  5
22d
100
AcDbEntity
  8
0
 62
3
100
AcDbPolyline
 90
2
 70
0
 10
283.102764
 20
240.748769
 30
0.0
 10
278.102747
 20
240.748769
 30
0.0
  0
LWPOLYLINE
  5
22e
100
AcDbEntity
  8
0
 62
3
100
AcDbPolyline
 90
1
 70
1
 10
278.102747
 20
237.348770
 30
0.0
  0
SPLINE
  5
22f
100
AcDbEntity
  8
0
 62
3
100
AcDbSpline
 70
8
 71
3
 72
8
 73
4
 74
0
 40
0
 40
0
 40
0
 40
0
 40
1
 40
1
 40
1
 40
1
 10
283.102764
 20
219.348768
 30
0.0
 10
284.041648
 20
219.348768
 30
0.0
 10
284.802764
 20
220.109885
 30
0.0
 10
284.802764
 20
221.048769
 30
0.0
  0
SPLINE
  5
230
100
AcDbEntity
  8
0
 62
3
100
AcDbSpline
 70
8
 71
3
 72
8
 73
4
 74
0
 40
0
 40
0
 40
0
 40
0
 40
1
 40
1
 40
1
 40
1
 10
284.802764
 20
221.048769
 30
0.0
 10
284.802764
 20
221.987654
 30
0.0
 10
284.041648
 20
222.748770
 30
0.0
 10
283.102764
 20
222.748770
 30
0.0
  0
LWPOLYLINE
  5
231
100
AcDbEntity
  8
0
 62
3
100
AcDbPolyline
 90
2
 70
0
 10
278.102747
 20
219.348768
 30
0.0
 10
283.102764
 20
219.348768
 30
0.0
  0
SPLINE
  5
232
100
AcDbEntity
  8
0
 62
3
100
AcDbSpline
 70
8
 71
3
 72
8
 73
4
 74
0
 40
0
 40
0
 40
0
 40
0
 40
1
 40
1
 40
1
 40
1
 10
278.102747
 20
222.748770
 30
0.0
 10
277.495395
 20
222.748770
 30
0.0
 10
276.934179
 20
222.424752
 30
0.0
 10
276.630503
 20
221.898770
 30
0.0
  0
SPLINE
  5
233
100
AcDbEntity
  8
0
 62
3
100
AcDbSpline
 70
8
 71
3
 72
8
 73
4
 74
0
 40
0
 40
0
 40
0
 40
0
 40
1
 40
1
 40
1
 40
1
 10
276.630503
 20
221.898770
 30
0.0
 10
276.326827
 20
221.372788
 30
0.0
 10
276.326827
 20
220.724751
 30
0.0
 10
276.630503
 20
220.198769
 30
0.0
  0
SPLINE
  5
234
100
AcDbEntity
  8
0
 62
3
100
AcDbSpline
 70
8
 71
3
 72
8
 73
4
 74
0
 40
0
 40
0
 40
0
 40
0
 40
1
 40
1
 40
1
 40
1
 10
276.630503
 20
220.198769
 30
0.0
 10
276.934179
 20
219.672787
 30
0.0
 10
277.495395
 20
219.348768
 30
0.0
 10
278.102747
 20
219.348768
 30
0.0
  0
LWPOLYLINE
  5
235
100
AcDbEntity
  8
0
 62
3
100
AcDbPolyline
 90
2
 70
0
 10
283.102764
 20
222.748770
 30
0.0
 10
278.102747
 20
222.748770
 30
0.0
  0
LWPOLYLINE
  5
236
100
AcDbEntity
  8
0
 62
3
100
AcDbPolyline
 90
1
 70
1
 10
278.102747
 20
219.348768
 30
0.0
  0
SPLINE
  5
237
100
AcDbEntity
  8
0
 62
3
100
AcDbSpline
 70
8
 71
3
 72
8
 73
4
 74
0
 40
0
 40
0
 40
0
 40
0
 40
1
 40
1
 40
1
 40
1
 10
549.796524
 20
240.748769
 30
0.0
 10
548.858164
 20
240.748028
 30
0.0
 10
548.097866
 20
239.987130
 30
0.0
 10
548.097866
 20
239.048769
 30
0.0
  0
SPLINE
  5
238
100
AcDbEntity
  8
0
 62
3
100
AcDbSpline
 70
8
 71
3
 72
8
 73
4
 74
0
 40
0
 40
0
 40
0
 40
0
 40
1
 40
1
 40
1
 40
1
 10
548.097866
 20
239.048769
 30
0.0
 10
548.097866
 20
238.110409
 30
0.0
 10
548.858164
 20
237.349510
 30
0.0
 10
549.796524
 20
237.348770
 30
0.0
  0
LWPOLYLINE
  5
239
100
AcDbEntity
  8
0
 62
3
100
AcDbPolyline
 90
2
 70
0
 10
554.796541
 20
240.748769
 30
0.0
 10
549.796524
 20
240.748769
 30
0.0
  0
SPLINE
  5
23a
100
AcDbEntity
  8
0
 62
3
100
AcDbSpline
 70
8
 71
3
 72
8
 73
4
 74
0
 40
0
 40
0
 40
0
 40
0
 40
1
 40
1
 40
1
 40
1
 10
554.796541
 20
237.348770
 30
0.0
 10
555.734901
 20
237.349510
 30
0.0
 10
556.495200
 20
238.110409
 30
0.0
 10
556.495200
 20
239.048769
 30
0.0
  0
SPLINE
  5
23b
100
AcDbEntity
  8
0
 62
3
100
AcDbSpline
 70
8
 71
3
 72
8
 73
4
 74
0
 40
0
 40
0
 40
0
 40
0
 40
1
 40
1
 40
1
 40
1
 10
556.495200
 20
239.048769
 30
0.0
 10
556.495200
 20
239.987130
 30
0.0
 10
555.734901
 20
240.748028
 30
0.0
 10
554.796541
 20
240.748769
 30
0.0
  0
LWPOLYLINE
  5
23c
100
AcDbEntity
  8
0
 62
3
100
AcDbPolyline
 90
2
 70
0
 10
549.796524
 20
237.348770
 30
0.0
 10
554.796541
 20
237.348770
 30
0.0
  0
LWPOLYLINE
  5
23d
100
AcDbEntity
  8
0
 62
3
100
AcDbPolyline
 90
1
 70
1
 10
554.796541
 20
240.748769
 30
0.0
  0
SPLINE
  5
23e
100
AcDbEntity
  8
0
 62
3
100
AcDbSpline
 70
8
 71
3
 72
8
 73
4
 74
0
 40
0
 40
0
 40
0
 40
0
 40
1
 40
1
 40
1
 40
1
 10
549.796524
 20
222.748770
 30
0.0
 10
548.857640
 20
222.748770
 30
0.0
 10
548.096524
 20
221.987654
 30
0.0
 10
548.096524
 20
221.048769
 30
0.0
  0
SPLINE
  5
23f
100
AcDbEntity
  8
0
 62
3
100
AcDbSpline
 70
8
 71
3
 72
8
 73
4
 74
0
 40
0
 40
0
 40
0
 40
0
 40
1
 40
1
 40
1
 40
1
 10
548.096524
 20
221.048769
 30
0.0
 10
548.096524
 20
220.109885
 30
0.0
 10
548.857640
 20
219.348768
 30
0.0
 10
549.796524
 20
219.348768
 30
0.0
  0
LWPOLYLINE
  5
240
100
AcDbEntity
  8
0
 62
3
100
AcDbPolyline
 90
2
 70
0
 10
554.796541
 20
222.748770
 30
0.0
 10
549.796524
 20
222.748770
 30
0.0
  0
SPLINE
  5
241
100
AcDbEntity
  8
0
 62
3
100
AcDbSpline
 70
8
 71
3
 72
8
 73
4
 74
0
 40
0
 40
0
 40
0
 40
0
 40
1
 40
1
 40
1
 40
1
 10
554.796541
 20
219.348768
 30
0.0
 10
555.735425
 20
219.348768
 30
0.0
 10
556.496542
 20
220.109885
 30
0.0
 10
556.496542
 20
221.048769
 30
0.0
  0
SPLINE
  5
242
100
AcDbEntity
  8
0
 62
3
100
AcDbSpline
 70
8
 71
3
 72
8
 73
4
 74
0
 40
0
 40
0
 40
0
 40
0
 40
1
 40
1
 40
1
 40
1
 10
556.496542
 20
221.048769
 30
0.0
 10
556.496542
 20
221.987654
 30
0.0
 10
555.735425
 20
222.748770
 30
0.0
 10
554.796541
 20
222.748770
 30
0.0
  0
LWPOLYLINE
  5
243
100
AcDbEntity
  8
0
 62
3
100
AcDbPolyline
 90
2
 70
0
 10
549.796524
 20
219.348768
 30
0.0
 10
554.796541
 20
219.348768
 30
0.0
  0
LWPOLYLINE
  5
244
100
AcDbEntity
  8
0
 62
3
100
AcDbPolyline
 90
1
 70
1
 10
554.796541
 20
222.748770
 30
0.0
  0
ENDSEC
  0
SECTION
  2
OBJECTS
  0
DICTIONARY
  5
C
330
0
100
AcDbDictionary
  3
ACAD_GROUP
350
D
  3
ACAD_MLINESTYLE
350
17
  0
DICTIONARY
  5
D
330
C
100
AcDbDictionary
  0
DICTIONARY
  5
1A
330
C
100
AcDbDictionary
  0
DICTIONARY
  5
17
330
C
100
AcDbDictionary
  3
STANDARD
350
18
  0
DICTIONARY
  5
19
330
C
100
AcDbDictionary
  0
ENDSEC
  0
EOF
