<?xml version="1.0" encoding="UTF-8" standalone="no"?>
<svg
   viewBox="0 0 2213.8691 1345.6978"
   width="585.75287mm"
   height="356.04919mm"
   version="1.1"
   id="svg15561"
   sodipodi:docname="BrailleRAP V6 600x400 planche2.svg"
   inkscape:version="1.1.2 (b8e25be833, 2022-02-05)"
   xmlns:inkscape="http://www.inkscape.org/namespaces/inkscape"
   xmlns:sodipodi="http://sodipodi.sourceforge.net/DTD/sodipodi-0.dtd"
   xmlns="http://www.w3.org/2000/svg"
   xmlns:svg="http://www.w3.org/2000/svg">
  <sodipodi:namedview
     id="namedview15563"
     pagecolor="#ffffff"
     bordercolor="#666666"
     borderopacity="1.0"
     inkscape:pageshadow="2"
     inkscape:pageopacity="0.0"
     inkscape:pagecheckerboard="0"
     showgrid="false"
     units="mm"
     fit-margin-top="0"
     fit-margin-left="0"
     fit-margin-right="0"
     fit-margin-bottom="0"
     inkscape:zoom="0.90583675"
     inkscape:cx="651.88347"
     inkscape:cy="87.212183"
     inkscape:window-width="1920"
     inkscape:window-height="1017"
     inkscape:window-x="1912"
     inkscape:window-y="-8"
     inkscape:window-maximized="1"
     inkscape:current-layer="g15559"
     inkscape:document-units="mm" />
  <desc
     id="desc15480">BrailleRAP V5 600x400 planche2.dxf - scale = 1.0, origin = (0.0, 0.0), method = manual</desc>
  <defs
     id="defs15495">
    <marker
       id="DistanceX"
       orient="auto"
       refX="0"
       refY="0"
       style="overflow:visible">
      <path
         d="M 3,-3 -3,3 M 0,-5 V 5"
         style="stroke:#000000;stroke-width:0.5"
         id="path15482" />
    </marker>
    <pattern
       id="Hatch"
       patternUnits="userSpaceOnUse"
       width="8"
       height="8"
       x="0"
       y="0">
      <path
         d="M8 4 l-4,4"
         stroke="#000000"
         stroke-width="0.25"
         linecap="square"
         id="path15485" />
      <path
         d="M6 2 l-4,4"
         stroke="#000000"
         stroke-width="0.25"
         linecap="square"
         id="path15487" />
      <path
         d="M4 0 l-4,4"
         stroke="#000000"
         stroke-width="0.25"
         linecap="square"
         id="path15489" />
    </pattern>
    <symbol
       id="*Model_Space" />
    <symbol
       id="*Paper_Space" />
    <symbol
       id="*Paper_Space0" />
  </defs>
  <g
     inkscape:groupmode="layer"
     inkscape:label="0"
     id="g15497"
     transform="translate(-26.740922,-1143.77)" />
  <g
     inkscape:groupmode="layer"
     inkscape:label="D_U+00E9coupe V5"
     id="g15559"
     transform="translate(-26.740922,-1143.77)">
    <path
       d="m 1490.9025,1794.0986 v 30.4775"
       style="fill:none;stroke:#00ff00;stroke-width:0.5"
       id="path15499" />
    <path
       d="m 1487.123,1828.3556 c 2.0873,0 3.7795,-1.6922 3.7795,-3.7795"
       style="fill:none;stroke:#00ff00;stroke-width:0.5"
       id="path15501" />
    <path
       d="m 1487.123,1828.3556 h -51.8657"
       style="fill:none;stroke:#00ff00;stroke-width:0.5"
       id="path15503" />
    <path
       d="m 1431.4778,1824.5761 c 0,2.0873 1.6921,3.7795 3.7795,3.7795"
       style="fill:none;stroke:#00ff00;stroke-width:0.5"
       id="path15505" />
    <path
       d="m 1431.4778,1824.5761 v -30.4775"
       style="fill:none;stroke:#00ff00;stroke-width:0.5"
       id="path15507" />
    <path
       d="m 1259.5021,1744.4962 c 0,-4.1748 3.3843,-7.559 7.5591,-7.559 4.1748,0 7.559,3.3842 7.559,7.559 0,4.1747 -3.3842,7.5591 -7.559,7.5591 -4.1748,0 -7.5591,-3.3844 -7.5591,-7.5591 0,0 0,0 0,0 z"
       style="fill:none;stroke:#00ff00;stroke-width:0.5"
       id="path15509" />
    <path
       d="m 2091.6151,1794.0988 c 37.5038,0 54.4253,-16.9216 54.4253,-37.7954 0,0 0,-245.6692 0,-245.6692 0,-20.8738 -16.9215,-37.7953 -37.7953,-37.7953 0,0 -1015.5373,0 -1015.5373,0 -20.8737,0 -37.7953,16.9215 -37.7953,37.7953 0,0 0,245.6692 0,245.6692 0,20.8738 16.9216,37.7954 21.1654,37.7954 0,0 1015.5372,0 1015.5372,0 z"
       style="fill:none;stroke:#00ff00;stroke-width:0.5"
       id="path15511" />
    <path
       d="m 1186.4996,1831.894 c 0,-13.7767 11.1682,-24.9449 24.9449,-24.9449 13.7767,0 24.9449,11.1682 24.9449,24.9449 0,13.7766 -11.1682,24.9449 -24.9449,24.9449 -13.7767,0 -24.9449,-11.1683 -24.9449,-24.9449 0,0 0,0 0,0 z"
       style="fill:none;stroke:#00ff00;stroke-width:0.5"
       id="path15513" />
    <path
       d="m 1274.1847,1831.894 c 0,3.3398 -2.7075,6.0472 -6.0473,6.0472 -3.3398,0 -6.0472,-2.7074 -6.0472,-6.0472 0,-3.3398 2.7074,-6.0473 6.0472,-6.0473 3.3398,0 6.0473,2.7075 6.0473,6.0473 0,0 0,0 0,0 z"
       style="fill:none;stroke:#00ff00;stroke-width:0.5"
       id="path15515" />
    <path
       d="m 1148.7043,1831.894 c 0,-3.3398 2.7075,-6.0473 6.0473,-6.0473 3.3398,0 6.0472,2.7075 6.0472,6.0473 0,3.3398 -2.7074,6.0472 -6.0472,6.0472 -3.3398,0 -6.0473,-2.7074 -6.0473,-6.0472 0,0 0,0 0,0 z"
       style="fill:none;stroke:#00ff00;stroke-width:0.5"
       id="path15517" />
    <path
       d="m 974.21824,1257.4058 c 0,0 -18.89764,0 -18.89764,0 0,0 0,81.8897 0,81.8897 0,0 18.89764,0 18.89764,0 0,0 0,105.8268 0,105.8268 0,0 -18.89764,0 -18.89764,0 0,0 0,81.8898 0,81.8898 0,0 18.89764,0 18.89764,0 0,0 0,86.9291 0,86.9291 0,0 -18.89764,0 -18.89764,0 0,0 0,100.7874 0,100.7874 0,0 18.89764,0 18.89764,0 0,0 0,105.8268 0,105.8268 0,0 -18.89764,0 -18.89764,0 0,0 0,86.9291 0,86.9291 0,0 75.5906,0 75.5906,0 10.4368,0 18.8976,-8.4607 18.8976,-18.8976 0,0 0,-18.8977 0,-18.8977 0,0 113.9811,0 113.9811,0 0,0 0,18.8977 0,18.8977 0,0 94.4882,0 94.4882,0 0,0 0,-18.8977 0,-18.8977 0,0 198.1275,0 198.1275,0 0,0 0,18.8977 0,18.8977 0,0 160.3323,0 160.3323,0 0,0 0,-18.8977 0,-18.8977 0,0 113.3859,0 113.3859,0 0,0 0,18.8977 0,18.8977 0,0 94.4881,0 94.4881,0 0,0 0,-18.8977 0,-18.8977 0,0 113.3859,0 113.3859,0 0,0 0,18.8977 0,18.8977 0,0 94.4882,0 94.4882,0 0,0 0,-18.8977 0,-18.8977 0,0 113.3858,0 113.3858,0 0,0 0,18.8977 0,18.8977 0,10.4369 8.4607,18.8976 18.8976,18.8976 0,0 75.5906,0 75.5906,0 0,0 0,-86.9291 0,-86.9291 0,0 -18.8977,0 -18.8977,0 0,0 0,-105.8268 0,-105.8268 0,0 18.8977,0 18.8977,0 0,0 0,-81.8897 0,-81.8897 0,0 -18.8977,0 -18.8977,0 0,0 0,-105.8268 0,-105.8268 0,0 18.8977,0 18.8977,0 0,0 0,-81.8898 0,-81.8898 0,0 -18.8977,0 -18.8977,0 0,0 0,-105.8268 0,-105.8268 0,0 18.8977,0 18.8977,0 0,0 0,-81.8897 0,-81.8897 0,0 -18.8977,0 -18.8977,0 0,0 0,-113.3858 0,-113.3858 0,0 -1247.24406,0 -1247.24406,0 0,0 0,113.3858 0,113.3858 z"
       style="fill:none;stroke:#00ff00;stroke-width:0.5"
       id="path15519" />
    <path
       d="m 2146.0404,1756.3034 c 0,20.8738 -16.9215,37.7953 -37.7953,37.7953"
       style="fill:none;stroke:#00ff00;stroke-width:0.5"
       id="path15521" />
    <path
       d="m 1143.0187,1416.1459 v -76.3467 c 0,-20.8737 16.9215,-37.7953 37.7953,-37.7953 h 833.0041 c 20.8737,0 37.7952,16.9216 37.7952,37.7953 v 76.3467 c -208.1037,0 -604.9541,0 -908.5946,0 z"
       style="fill:none;stroke:#ff0000;stroke-width:0.5;stroke-miterlimit:4;stroke-dasharray:none;stroke-opacity:1"
       id="path15523"
       sodipodi:nodetypes="csssscc" />
    <path
       d="m 2112.4927,2327.2512 c 0,0 0,-52.2435 0,-52.2435 -0.012,-0.2232 -0.012,-0.4468 0,-0.6699 0.185,-3.5437 3.2077,-6.2665 6.7514,-6.0815 3.5437,0.1849 6.2665,3.2076 6.0815,6.7514 0,0 0,52.2435 0,52.2435 0.012,0.2231 0.012,0.4467 0,0.6698 -0.185,3.5438 -3.2077,6.2666 -6.7514,6.0816 -3.5437,-0.185 -6.2665,-3.2077 -6.0815,-6.7514 z"
       style="fill:none;stroke:#00ff00;stroke-width:0.5"
       id="path15525" />
    <path
       d="m 2112.4927,2426.6527 c -0.185,3.5438 2.5378,6.5665 6.0815,6.7514 3.5437,0.185 6.5664,-2.5378 6.7514,-6.0815 0.012,-0.2231 0.012,-0.4467 0,-0.6699 0,0 0,-52.2435 0,-52.2435 0.185,-3.5437 -2.5378,-6.5664 -6.0815,-6.7514 -3.5437,-0.1849 -6.5664,2.5378 -6.7514,6.0816 -0.012,0.2231 -0.012,0.4467 0,0.6698 0,0 0,52.2435 0,52.2435 z"
       style="fill:none;stroke:#00ff00;stroke-width:0.5"
       id="path15527" />
    <path
       d="m 1878.4467,2253.1345 c 3.3398,0 6.0472,-2.7074 6.0472,-6.0472 0,-3.3398 -2.7074,-6.0473 -6.0472,-6.0473 -3.3398,0 -6.0473,2.7075 -6.0473,6.0473 0,3.3398 2.7075,6.0472 6.0473,6.0472 0,0 0,0 0,0 z"
       style="fill:none;stroke:#00ff00;stroke-width:0.5"
       id="path15529" />
    <path
       d="m 1878.4467,1965.5119 c 3.3398,0 6.0472,-2.7075 6.0472,-6.0473 0,-3.3398 -2.7074,-6.0472 -6.0472,-6.0472 -3.3398,0 -6.0473,2.7074 -6.0473,6.0472 0,3.3398 2.7075,6.0473 6.0473,6.0473 0,0 0,0 0,0 z"
       style="fill:none;stroke:#00ff00;stroke-width:0.5"
       id="path15531" />
    <path
       d="m 1367.4535,1965.5119 c 3.3398,0 6.0473,-2.7075 6.0473,-6.0473 0,-3.3398 -2.7075,-6.0472 -6.0473,-6.0472 -3.3398,0 -6.0472,2.7074 -6.0472,6.0472 0,3.3398 2.7074,6.0473 6.0472,6.0473 0,0 0,0 0,0 z"
       style="fill:none;stroke:#00ff00;stroke-width:0.5"
       id="path15533" />
    <path
       d="m 1367.4535,2253.1345 c 3.3398,0 6.0473,-2.7074 6.0473,-6.0472 0,-3.3398 -2.7075,-6.0473 -6.0473,-6.0473 -3.3398,0 -6.0472,2.7075 -6.0472,6.0473 0,3.3398 2.7074,6.0472 6.0472,6.0472 0,0 0,0 0,0 z"
       style="fill:none;stroke:#00ff00;stroke-width:0.5"
       id="path15535" />
    <path
       d="m 1045.6798,1922.2887 h 113.9811 v 18.8977 h 94.4882 v -18.8977 h 198.1275 v 18.8977 h 160.3323 v -18.8977 h 113.3859 v 18.8977 h 94.4881 v -18.8977 h 113.3859 v 18.8977 h 94.4882 v -18.8977 h 113.3858 v 18.8977 h 75.5905 v 75.5905 h 18.8977 v 113.3858 h -18.8977 v 113.3859 h 18.8977 v 151.1811 h -18.8977 v 75.5905 h -75.5905 v 18.8976 h -280.369 v -18.8976 h -148.1459 v 18.8976 h -251.5026 v -18.8976 h -135.6765 v 18.8976 h -280.369 v -18.8976 h -75.59056 v -75.5905 H 951.1916 v -151.1811 h 18.89764 V 2130.1627 H 951.1916 v -113.3858 h 18.89764 v -75.5905 h 75.59056 v -18.8977"
       style="fill:none;stroke:#00ff00;stroke-width:0.5"
       id="path15537" />
    <path
       d="m 908.176,1644.6665 c 3.54854,0 6.4252,2.8767 6.4252,6.4252 0,3.5485 -2.87666,6.4252 -6.4252,6.4252 -3.54854,0 -6.4252,-2.8767 -6.4252,-6.4252 0,-3.5485 2.87666,-6.4252 6.4252,-6.4252 0,0 0,0 0,0 z"
       style="fill:none;stroke:#00ff00;stroke-width:0.5"
       id="path15539" />
    <path
       d="m 54.380403,1657.5169 c -3.548538,0 -6.425197,-2.8767 -6.425197,-6.4252 0,-3.5485 2.876659,-6.4252 6.425197,-6.4252 3.548538,0 6.425197,2.8767 6.425197,6.4252 0,3.5485 -2.876659,6.4252 -6.425197,6.4252 0,0 0,0 0,0 z"
       style="fill:none;stroke:#00ff00;stroke-width:0.5"
       id="path15541" />
    <path
       d="m 82.538044,1313.5885 c 0,0 797.480316,0 797.480316,0 0,0 0,119.9718 0,119.9718 0,0 -540.89192,0 -540.89192,0 0,0 0,115.5002 0,115.5002 0,2.0873 -1.69215,3.7795 -3.77953,3.7795 0,0 -15.12193,0 -15.12193,0 -2.08738,0 -3.77953,-1.6922 -3.77953,-3.7795 0,0 0,-115.5002 0,-115.5002 0,0 -233.907406,0 -233.907406,0 0,0 0,-119.9718 0,-119.9718 z"
       style="fill:none;stroke:#00ff00;stroke-width:0.5"
       id="path15543" />
    <path
       d="m 691.76234,1492.6619 c 0,-2.1018 17.76759,-3.8056 39.68504,-3.8056 21.91744,0 39.68504,1.7038 39.68504,3.8056 0,0 0,75.5906 0,75.5906 0,4.1747 -3.38431,7.559 -7.55906,7.559 0,0 -64.25197,0 -64.25197,0 -4.17475,0 -7.55905,-3.3843 -7.55905,-7.559 0,0 0,-75.5906 0,-75.5906 z"
       style="fill:none;stroke:#00ff00;stroke-width:0.5"
       id="path15545" />
    <path
       d="m 132.39226,1488.8824 c 0,0 0,75.5906 0,75.5906 0,4.1747 3.3843,7.559 7.55905,7.559 0,0 64.25197,0 64.25197,0 4.17475,0 7.55906,-3.3843 7.55906,-7.559 0,0 0,-75.5906 0,-75.5906 0,-2.1018 -17.7676,-3.8057 -39.68504,-3.8057 -21.91745,0 -39.68504,1.7039 -39.68504,3.8057 z"
       style="fill:none;stroke:#00ff00;stroke-width:0.5"
       id="path15547" />
    <path
       d="m 54.380403,1425.4539 c 3.548538,0 6.425197,2.8767 6.425197,6.4252 0,3.5485 -2.876659,6.4252 -6.425197,6.4252 -3.548538,0 -6.425197,-2.8767 -6.425197,-6.4252 0,-3.5485 2.876659,-6.4252 6.425197,-6.4252 0,0 0,0 0,0 z"
       style="fill:none;stroke:#00ff00;stroke-width:0.5"
       id="path15549" />
    <path
       d="m 908.16218,1425.4539 c 3.54853,0 6.42519,2.8767 6.42519,6.4252 0,3.5485 -2.87666,6.4252 -6.42519,6.4252 -3.54854,0 -6.4252,-2.8767 -6.4252,-6.4252 0,-3.5485 2.87666,-6.4252 6.4252,-6.4252 0,0 0,0 0,0 z"
       style="fill:none;stroke:#00ff00;stroke-width:0.5"
       id="path15551" />
    <path
       d="M 26.990922,1710.9491 V 1144.02 H 235.09468 v 18.8976 h 93.89291 V 1144.02 h 302.95748 v 18.8976 h 93.89292 V 1144.02 h 209.71367 v 566.9291 H 725.83799 v -18.8976 h -93.89292 v 18.8976 H 328.98759 v -18.8976 h -93.89291 v 18.8976 H 26.990922"
       style="fill:none;stroke:#00ff00;stroke-width:0.5"
       id="path15553" />
    <path
       d="m 908.16218,1249.3279 c -3.54854,0 -6.4252,-2.8766 -6.4252,-6.4252 0,-3.5485 2.87666,-6.4252 6.4252,-6.4252 3.54853,0 6.42519,2.8767 6.42519,6.4252 0,3.5486 -2.87666,6.4252 -6.42519,6.4252 0,0 0,0 0,0 z"
       style="fill:none;stroke:#00ff00;stroke-width:0.5"
       id="path15555" />
    <path
       d="m 54.380403,1249.3279 c -3.548538,0 -6.425197,-2.8766 -6.425197,-6.4252 0,-3.5485 2.876659,-6.4252 6.425197,-6.4252 3.548538,0 6.425197,2.8767 6.425197,6.4252 0,3.5486 -2.876659,6.4252 -6.425197,6.4252 0,0 0,0 0,0 z"
       style="fill:none;stroke:#00ff00;stroke-width:0.5"
       id="path15557" />
    <rect
       style="fill:none;stroke:#ff5100;stroke-width:0.496859;stroke-miterlimit:4;stroke-dasharray:none;stroke-dashoffset:0;stroke-opacity:1"
       id="rect16196"
       width="908.59656"
       height="18.40078"
       x="1143.0177"
       y="1416.1449" />
    <path
       style="fill:none;fill-rule:evenodd;stroke:#ff5100;stroke-width:0.49889764;stroke-linecap:butt;stroke-linejoin:miter;stroke-opacity:1;stroke-miterlimit:4;stroke-dasharray:none"
       d="m 1352.7663,1416.1459 v 18.4508"
       id="path16419" />
    <path
       style="fill:none;fill-rule:evenodd;stroke:#ff5100;stroke-width:0.49889764;stroke-linecap:butt;stroke-linejoin:miter;stroke-opacity:1;stroke-miterlimit:4;stroke-dasharray:none"
       d="m 1446.6592,1416.1459 v 18.3044"
       id="path16454" />
    <path
       style="fill:none;fill-rule:evenodd;stroke:#ff5100;stroke-width:0.49889764;stroke-linecap:butt;stroke-linejoin:miter;stroke-opacity:1;stroke-miterlimit:4;stroke-dasharray:none"
       d="m 1749.6167,1416.1459 v 18.3044"
       id="path18827" />
    <path
       style="fill:none;fill-rule:evenodd;stroke:#ff5100;stroke-width:0.49889764;stroke-linecap:butt;stroke-linejoin:miter;stroke-opacity:1;stroke-miterlimit:4;stroke-dasharray:none"
       d="m 1843.5096,1416.1459 v 18.3044"
       id="path18862" />
  </g>
</svg>
