0
SECTION
2
HEADER
9
$INSUNITS
70
4
9
$ACADVER
1
AC1014
9
$HANDSEED
5
FFFF
0
ENDSEC
0
SECTION
2
TABLES
0
TABLE
2
VPORT
5
8
100
AcDbSymbolTable
0
ENDTAB
0
TABLE
2
LTYPE
5
5
100
AcDbSymbolTable
0
LTYPE
5
14
100
AcDbSymbolTableRecord
100
AcDbLinetypeTableRecord
2
BYBLOCK
70
0
0
LTYPE
5
15
100
AcDbSymbolTableRecord
100
AcDbLinetypeTableRecord
2
BYLAYER
70
0
0
ENDTAB
0
TABLE
2
LAYER
5
2
100
AcDbSymbolTable
70
2
0
LAYER
5
50
100
AcDbSymbolTableRecord
100
AcDbLayerTableRecord
2
0
70
0
6
CONTINUOUS
0
ENDTAB
0
TABLE
2
STYLE
5
3
100
AcDbSymbolTable
70
1
0
STYLE
5
11
100
AcDbSymbolTableRecord
100
AcDbTextStyleTableRecord
2
STANDARD
70
0
0
ENDTAB
0
TABLE
2
VIEW
5
6
100
AcDbSymbolTable
70
0
0
ENDTAB
0
TABLE
2
UCS
5
7
100
AcDbSymbolTable
70
0
0
ENDTAB
0
TABLE
2
APPID
5
9
100
AcDbSymbolTable
70
2
0
APPID
5
12
100
AcDbSymbolTableRecord
100
AcDbRegAppTableRecord
2
ACAD
70
0
0
ENDTAB
0
TABLE
2
DIMSTYLE
5
A
100
AcDbSymbolTable
70
1
0
ENDTAB
0
TABLE
2
BLOCK_RECORD
5
1
100
AcDbSymbolTable
70
1
0
BLOCK_RECORD
5
1F
100
AcDbSymbolTableRecord
100
AcDbBlockTableRecord
2
*MODEL_SPACE
0
BLOCK_RECORD
5
1B
100
AcDbSymbolTableRecord
100
AcDbBlockTableRecord
2
*PAPER_SPACE
0
ENDTAB
0
ENDSEC
0
SECTION
2
BLOCKS
0
BLOCK
5
20
100
AcDbEntity
100
AcDbBlockBegin
2
*MODEL_SPACE
0
ENDBLK
5
21
100
AcDbEntity
100
AcDbBlockEnd
0
BLOCK
5
1C
100
AcDbEntity
100
AcDbBlockBegin
2
*PAPER_SPACE
0
ENDBLK
5
1D
100
AcDbEntity
100
AcDbBlockEnd
0
ENDSEC
0
SECTION
2
ENTITIES
0
CIRCLE
5
100
100
AcDbEntity
8
0
100
AcDbCircle
10
11.282136113804198
20
5.2499999999999991
30
2.2204460492503131e-15
40
7.75
210
0
220
-0
230
1
0
LWPOLYLINE
5
101
100
AcDbEntity
8
0
100
AcDbPolyline
90
10
70
1
43
0.0
10
3.5861956254688172
20
6.0000000000000009
42
-0.016238046658400989
10
3.6186460407510523
20
5.9989458593354703
42
1.1024932215994103
10
18.945626186857361
20
5.9989458593354703
42
-0.016238046658394213
10
18.978076602139602
20
6.0000000000000009
10
30.255399277269596
20
6.0000000000000009
10
30.2553992772696
20
-6.0000000000000009
10
-30.255399277269607
20
-6.0000000000000009
10
-30.255399277269607
20
-2.0000000000000009
10
-4.0522275269577213
20
-2.0000000000000009
10
-4.0522275269577213
20
6.0000000000000009
0
LINE
5
102
100
AcDbEntity
8
0
100
AcDbLine
10
-30.255399277269618
20
-6.0000000000000009
30
2.2204460492503131e-15
11
-30.255399277269618
21
-2.0000000000000009
31
2.2204460492503131e-15
0
LINE
5
103
100
AcDbEntity
8
0
100
AcDbLine
10
-30.255399277269618
20
-2.0000000000000009
30
2.2204460492503131e-15
11
-4.0522275269577301
21
-2.0000000000000009
31
2.2204460492503131e-15
0
LINE
5
104
100
AcDbEntity
8
0
100
AcDbLine
10
-4.0522275269577301
20
-2.0000000000000009
30
6.6613381477509392e-15
11
-4.0522275269577301
21
6.0000000000000009
31
6.6613381477509392e-15
0
LINE
5
105
100
AcDbEntity
8
0
100
AcDbLine
10
-4.0522275269577301
20
6.0000000000000009
30
6.6613381477509392e-15
11
30.255399277269589
21
6.0000000000000009
31
6.6613381477509392e-15
0
LINE
5
106
100
AcDbEntity
8
0
100
AcDbLine
10
30.255399277269586
20
-6.0000000000000009
30
8.8817841970012523e-15
11
-30.255399277269621
21
-6.0000000000000009
31
8.8817841970012523e-15
0
LINE
5
107
100
AcDbEntity
8
0
100
AcDbLine
10
30.255399277269586
20
6.0000000000000009
30
8.8817841970012523e-15
11
30.255399277269586
21
-6.0000000000000009
31
8.8817841970012523e-15
0
LINE
5
108
100
AcDbEntity
8
0
100
AcDbLine
10
7.2821361138041958
20
-6.0000000000000009
30
8.8817841970012523e-15
11
15.282136113804196
21
-6.0000000000000009
31
8.8817841970012523e-15
0
LINE
5
109
100
AcDbEntity
8
0
100
AcDbLine
10
15.282136113804196
20
-6.0000000000000009
30
8.8817841970012523e-15
11
15.282136113804196
21
-4.5000000000000009
31
8.8817841970012523e-15
0
LINE
5
110
100
AcDbEntity
8
0
100
AcDbLine
10
15.282136113804196
20
-4.5000000000000009
30
8.8817841970012523e-15
11
7.2821361138041958
21
-4.5
31
8.8817841970012523e-15
0
LINE
5
111
100
AcDbEntity
8
0
100
AcDbLine
10
7.2821361138041958
20
-4.5
30
8.8817841970012523e-15
11
7.2821361138041958
21
-6.0000000000000009
31
8.8817841970012523e-15
0
LINE
5
112
100
AcDbEntity
8
0
100
AcDbLine
10
11.282136113804198
20
-6.0000000000000009
30
2.2204460492503131e-15
11
11.282136113804198
21
22.576201827003779
31
2.2204460492503131e-15
0
LINE
5
113
100
AcDbEntity
8
0
100
AcDbLine
10
15.282136113804196
20
-4.5000000000000009
30
8.8817841970012523e-15
11
21.978076602139602
21
2.1959404883353963
31
8.0538050903513929e-16
0
LINE
5
114
100
AcDbEntity
8
0
100
AcDbLine
10
15.282136113804196
20
-4.5000000000000009
30
8.8817841970012523e-15
11
20.506956218275775
21
-4.5000000000000009
31
8.8817841970012523e-15
0
LINE
5
115
100
AcDbEntity
8
0
100
AcDbLine
10
21.978076602139602
20
2.1959404883353963
30
8.0538050903513929e-16
11
21.978076602139602
21
6.0000000000000009
31
2.2204460492503131e-15
0
LINE
5
116
100
AcDbEntity
8
0
100
AcDbLine
10
7.2821361138041958
20
-4.5
30
8.8817841970012523e-15
11
0.61864604075105312
21
2.163490073053143
31
-2.4301300395351555e-48
0
LINE
5
117
100
AcDbEntity
8
0
100
AcDbLine
10
7.2821361138041958
20
-4.5
30
8.8817841970012523e-15
11
17.669987485532157
21
-4.5
31
8.8817841970012523e-15
0
LINE
5
118
100
AcDbEntity
8
0
100
AcDbLine
10
0.61864604075105245
20
6.0000000000000009
30
-2.4301300395351555e-48
11
0.61864604075105312
21
2.163490073053143
31
-2.4301300395351555e-48
0
LINE
5
119
100
AcDbEntity
8
0
100
AcDbLine
10
-4.0522275269577301
20
2
30
6.6613381477509392e-15
11
3.9477724730422725
21
-6.0000000000000009
31
0
0
LINE
5
120
100
AcDbEntity
8
0
100
AcDbLine
10
-4.0522275269577301
20
2
30
6.6613381477509392e-15
11
7.2614809720270319
21
2
31
6.6613381477509392e-15
0
LINE
5
121
100
AcDbEntity
8
0
100
AcDbLine
10
19.282136113804196
20
-6.0000000000000009
30
8.8817841970012523e-15
11
32.466178305253749
21
7.1840421914495556
31
8.266982934046234e-16
0
LINE
5
122
100
AcDbEntity
8
0
100
AcDbLine
10
19.282136113804196
20
-6.0000000000000009
30
8.8817841970012523e-15
11
37.927187387851255
21
-6.0000000000000009
31
8.8817841970012523e-15
0
ENDSEC
0
SECTION
2
OBJECTS
0
DICTIONARY
5
C
100
AcDbDictionary
3
ACAD_GROUP
350
D
3
ACAD_MLINESTYLE
350
17
0
DICTIONARY
5
D
100
AcDbDictionary
0
DICTIONARY
5
1A
330
C
100
AcDbDictionary
0
DICTIONARY
5
17
100
AcDbDictionary
0
ENDSEC
0
EOF
